G75*
G70*
%OFA0B0*%
%FSLAX25Y25*%
%IPPOS*%
%LPD*%
%AMOC8*
5,1,8,0,0,1.08239X$1,22.5*
%
%ADD135C,0.00800*%
%ADD200C,0.03200*%
%ADD208R,0.04488X0.00787*%
X0010000Y0010000D02*
G75*
%LPD*%
D208*
X0017299Y0066851D03*
X0017299Y0068425D03*
X0017299Y0070000D03*
X0017299Y0071575D03*
X0017299Y0073150D03*
X0027693Y0073150D03*
X0027693Y0071575D03*
X0027693Y0070000D03*
X0027693Y0068425D03*
X0027693Y0066851D03*
X0092299Y0053150D03*
X0092299Y0051575D03*
X0092299Y0050000D03*
X0092299Y0048425D03*
X0092299Y0046851D03*
X0102693Y0046851D03*
X0102693Y0048425D03*
X0102693Y0050000D03*
X0102693Y0051575D03*
X0102693Y0053150D03*
D135*
X0091921Y0025172D02*
X0028072Y0025172D01*
X0028879Y0024373D02*
X0091113Y0024373D01*
X0090554Y0023821D02*
X0084569Y0019515D01*
X0077988Y0016192D01*
X0070969Y0013932D01*
X0063685Y0012791D01*
X0059998Y0012650D01*
X0059994Y0012650D01*
X0056308Y0012791D01*
X0049023Y0013932D01*
X0042005Y0016192D01*
X0035423Y0019515D01*
X0029438Y0023821D01*
X0024196Y0029005D01*
X0019823Y0034941D01*
X0016426Y0041485D01*
X0014088Y0048478D01*
X0013335Y0052089D01*
X0013334Y0052095D01*
X0013332Y0052103D01*
X0012925Y0054992D01*
X0012655Y0060821D01*
X0013115Y0066638D01*
X0013455Y0068590D01*
X0013455Y0067369D01*
X0013655Y0067169D01*
X0013655Y0066851D01*
X0013974Y0066851D01*
X0013974Y0066851D01*
X0013655Y0066851D01*
X0013655Y0066273D01*
X0013751Y0065917D01*
X0013935Y0065597D01*
X0014196Y0065337D01*
X0014515Y0065152D01*
X0014871Y0065057D01*
X0017299Y0065057D01*
X0017299Y0066425D01*
X0017299Y0066425D01*
X0017299Y0065057D01*
X0019728Y0065057D01*
X0020084Y0065152D01*
X0020403Y0065337D01*
X0020664Y0065597D01*
X0020848Y0065917D01*
X0020944Y0066273D01*
X0020943Y0066851D01*
X0020944Y0066851D02*
X0020944Y0067169D01*
X0021144Y0067369D01*
X0021144Y0068119D01*
X0022196Y0069172D01*
X0023849Y0070825D01*
X0023849Y0069482D01*
X0023849Y0067369D01*
X0024049Y0067169D01*
X0024049Y0066851D01*
X0024367Y0066851D01*
X0024367Y0066851D01*
X0024049Y0066851D01*
X0024049Y0066273D01*
X0024144Y0065917D01*
X0024329Y0065597D01*
X0024589Y0065337D01*
X0024909Y0065152D01*
X0025265Y0065057D01*
X0027693Y0065057D01*
X0027693Y0066425D01*
X0027693Y0066425D01*
X0027693Y0065057D01*
X0030122Y0065057D01*
X0030478Y0065152D01*
X0030797Y0065337D01*
X0031057Y0065597D01*
X0031242Y0065917D01*
X0031244Y0065924D01*
X0031319Y0065849D01*
X0031283Y0065813D01*
X0030796Y0064637D01*
X0030796Y0063364D01*
X0031283Y0062188D01*
X0032184Y0061287D01*
X0033360Y0060800D01*
X0034633Y0060800D01*
X0035809Y0061287D01*
X0036709Y0062188D01*
X0037196Y0063364D01*
X0037196Y0064637D01*
X0037056Y0064976D01*
X0037809Y0065287D01*
X0038709Y0066188D01*
X0039062Y0067041D01*
X0039160Y0067000D01*
X0040433Y0067000D01*
X0041609Y0067487D01*
X0042509Y0068388D01*
X0042996Y0069564D01*
X0042996Y0070837D01*
X0042509Y0072013D01*
X0041796Y0072726D01*
X0041796Y0075629D01*
X0038396Y0079029D01*
X0037225Y0080200D01*
X0031625Y0080200D01*
X0031396Y0080429D01*
X0031396Y0084829D01*
X0030225Y0086000D01*
X0028596Y0087629D01*
X0028596Y0088637D01*
X0028109Y0089813D01*
X0028072Y0089850D01*
X0048418Y0089850D01*
X0047396Y0088829D01*
X0043396Y0084829D01*
X0043396Y0069572D01*
X0044568Y0068400D01*
X0045648Y0067320D01*
X0045648Y0066126D01*
X0044935Y0065413D01*
X0044448Y0064237D01*
X0044448Y0062964D01*
X0044935Y0061788D01*
X0045648Y0061075D01*
X0045648Y0049177D01*
X0044883Y0048413D01*
X0044396Y0047237D01*
X0044396Y0045964D01*
X0044883Y0044788D01*
X0045784Y0043887D01*
X0046960Y0043400D01*
X0048233Y0043400D01*
X0049409Y0043887D01*
X0050309Y0044788D01*
X0050796Y0045964D01*
X0050796Y0047237D01*
X0050309Y0048413D01*
X0049648Y0049074D01*
X0049648Y0061075D01*
X0050361Y0061788D01*
X0050848Y0062964D01*
X0050848Y0064237D01*
X0050361Y0065413D01*
X0049648Y0066126D01*
X0049648Y0068977D01*
X0048476Y0070149D01*
X0047396Y0071229D01*
X0047396Y0083172D01*
X0050225Y0086000D01*
X0077768Y0086000D01*
X0083596Y0080172D01*
X0083596Y0079164D01*
X0084083Y0077988D01*
X0084984Y0077087D01*
X0084996Y0077082D01*
X0084996Y0058526D01*
X0084283Y0057813D01*
X0083972Y0057060D01*
X0083633Y0057200D01*
X0082360Y0057200D01*
X0081184Y0056713D01*
X0080283Y0055813D01*
X0079796Y0054637D01*
X0079796Y0053364D01*
X0080100Y0052630D01*
X0079283Y0051813D01*
X0078796Y0050637D01*
X0078796Y0049364D01*
X0079283Y0048188D01*
X0079471Y0048000D01*
X0079283Y0047813D01*
X0078796Y0046637D01*
X0078796Y0045364D01*
X0079283Y0044188D01*
X0080184Y0043287D01*
X0081360Y0042800D01*
X0082633Y0042800D01*
X0083809Y0043287D01*
X0084115Y0043594D01*
X0084283Y0043188D01*
X0085184Y0042287D01*
X0086360Y0041800D01*
X0087633Y0041800D01*
X0088809Y0042287D01*
X0089709Y0043188D01*
X0090196Y0044364D01*
X0090196Y0044851D01*
X0093128Y0044851D01*
X0093134Y0044857D01*
X0095206Y0044857D01*
X0095596Y0045247D01*
X0095596Y0042791D01*
X0094855Y0042000D01*
X0093960Y0042000D01*
X0092784Y0041513D01*
X0091883Y0040613D01*
X0091396Y0039437D01*
X0091396Y0038164D01*
X0091883Y0036988D01*
X0092784Y0036087D01*
X0093960Y0035600D01*
X0095233Y0035600D01*
X0096409Y0036087D01*
X0097196Y0036875D01*
X0097984Y0036087D01*
X0099160Y0035600D01*
X0100433Y0035600D01*
X0100534Y0035642D01*
X0100170Y0034941D01*
X0095797Y0029005D01*
X0090554Y0023821D01*
X0090212Y0023575D02*
X0029780Y0023575D01*
X0030890Y0022776D02*
X0089103Y0022776D01*
X0087993Y0021978D02*
X0032000Y0021978D01*
X0033110Y0021179D02*
X0086883Y0021179D01*
X0085773Y0020381D02*
X0034219Y0020381D01*
X0035329Y0019582D02*
X0084663Y0019582D01*
X0083122Y0018784D02*
X0036871Y0018784D01*
X0038452Y0017985D02*
X0081540Y0017985D01*
X0079959Y0017187D02*
X0040034Y0017187D01*
X0041615Y0016388D02*
X0078377Y0016388D01*
X0076118Y0015590D02*
X0043874Y0015590D01*
X0046355Y0014791D02*
X0073638Y0014791D01*
X0071158Y0013993D02*
X0048835Y0013993D01*
X0053735Y0013194D02*
X0066258Y0013194D01*
X0092728Y0025970D02*
X0027264Y0025970D01*
X0026457Y0026769D02*
X0093536Y0026769D01*
X0094343Y0027568D02*
X0025649Y0027568D01*
X0024842Y0028366D02*
X0095151Y0028366D01*
X0095914Y0029165D02*
X0024078Y0029165D01*
X0023490Y0029963D02*
X0096503Y0029963D01*
X0097091Y0030762D02*
X0022902Y0030762D01*
X0022313Y0031560D02*
X0097679Y0031560D01*
X0098267Y0032359D02*
X0021725Y0032359D01*
X0021137Y0033157D02*
X0098856Y0033157D01*
X0099444Y0033956D02*
X0020549Y0033956D01*
X0019961Y0034754D02*
X0100032Y0034754D01*
X0100487Y0035553D02*
X0019505Y0035553D01*
X0019091Y0036351D02*
X0092520Y0036351D01*
X0091816Y0037150D02*
X0018676Y0037150D01*
X0018262Y0037948D02*
X0091486Y0037948D01*
X0091396Y0038747D02*
X0017847Y0038747D01*
X0017433Y0039545D02*
X0091441Y0039545D01*
X0091772Y0040344D02*
X0017018Y0040344D01*
X0016604Y0041142D02*
X0092413Y0041142D01*
X0093816Y0041941D02*
X0087972Y0041941D01*
X0089261Y0042739D02*
X0095548Y0042739D01*
X0095596Y0043538D02*
X0089854Y0043538D01*
X0090185Y0044336D02*
X0095596Y0044336D01*
X0095596Y0045135D02*
X0095484Y0045135D01*
X0097596Y0047200D02*
X0097596Y0042000D01*
X0094596Y0038800D01*
X0096673Y0036351D02*
X0097720Y0036351D01*
X0099796Y0038800D02*
X0099796Y0046200D01*
X0100447Y0046851D01*
X0102693Y0046851D01*
X0102693Y0048425D02*
X0098821Y0048425D01*
X0097596Y0047200D01*
X0099596Y0050000D02*
X0097796Y0051800D01*
X0097796Y0062800D01*
X0099196Y0064200D01*
X0102996Y0061600D02*
X0099396Y0058000D01*
X0099396Y0052200D01*
X0100021Y0051575D01*
X0102693Y0051575D01*
X0102693Y0050000D02*
X0099596Y0050000D01*
X0102693Y0053150D02*
X0105146Y0053150D01*
X0106596Y0054600D01*
X0106596Y0057400D01*
X0105996Y0058000D01*
X0092299Y0053150D02*
X0089847Y0053150D01*
X0086996Y0056000D01*
X0086996Y0079600D01*
X0086796Y0079800D01*
X0078596Y0088000D01*
X0049396Y0088000D01*
X0045396Y0084000D01*
X0045396Y0070400D01*
X0047648Y0068149D01*
X0047648Y0063600D01*
X0047648Y0063200D01*
X0047648Y0046652D01*
X0047596Y0046600D01*
X0044740Y0045135D02*
X0015206Y0045135D01*
X0014939Y0045933D02*
X0044409Y0045933D01*
X0044396Y0046732D02*
X0014672Y0046732D01*
X0014405Y0047530D02*
X0035441Y0047530D01*
X0035684Y0047287D02*
X0036860Y0046800D01*
X0038133Y0046800D01*
X0039309Y0047287D01*
X0040209Y0048188D01*
X0040696Y0049364D01*
X0040696Y0050637D01*
X0040209Y0051813D01*
X0039309Y0052713D01*
X0038133Y0053200D01*
X0036860Y0053200D01*
X0035684Y0052713D01*
X0034783Y0051813D01*
X0034296Y0050637D01*
X0034296Y0049364D01*
X0034783Y0048188D01*
X0035684Y0047287D01*
X0034725Y0048329D02*
X0014138Y0048329D01*
X0013952Y0049127D02*
X0034394Y0049127D01*
X0034296Y0049926D02*
X0013786Y0049926D01*
X0013619Y0050724D02*
X0034333Y0050724D01*
X0034663Y0051523D02*
X0013453Y0051523D01*
X0013302Y0052321D02*
X0035292Y0052321D01*
X0036666Y0053120D02*
X0013189Y0053120D01*
X0013076Y0053918D02*
X0045648Y0053918D01*
X0045648Y0053120D02*
X0038327Y0053120D01*
X0039701Y0052321D02*
X0045648Y0052321D01*
X0045648Y0051523D02*
X0040329Y0051523D01*
X0040660Y0050724D02*
X0045648Y0050724D01*
X0045648Y0049926D02*
X0040696Y0049926D01*
X0040598Y0049127D02*
X0045598Y0049127D01*
X0044849Y0048329D02*
X0040268Y0048329D01*
X0039552Y0047530D02*
X0044518Y0047530D01*
X0045335Y0044336D02*
X0015473Y0044336D01*
X0015740Y0043538D02*
X0046628Y0043538D01*
X0048565Y0043538D02*
X0079933Y0043538D01*
X0079222Y0044336D02*
X0049858Y0044336D01*
X0050453Y0045135D02*
X0078891Y0045135D01*
X0078796Y0045933D02*
X0050784Y0045933D01*
X0050796Y0046732D02*
X0078836Y0046732D01*
X0079166Y0047530D02*
X0050675Y0047530D01*
X0050344Y0048329D02*
X0079225Y0048329D01*
X0078894Y0049127D02*
X0049648Y0049127D01*
X0049648Y0049926D02*
X0078796Y0049926D01*
X0078833Y0050724D02*
X0049648Y0050724D01*
X0049648Y0051523D02*
X0079163Y0051523D01*
X0079792Y0052321D02*
X0049648Y0052321D01*
X0049648Y0053120D02*
X0079897Y0053120D01*
X0079796Y0053918D02*
X0049648Y0053918D01*
X0049648Y0054717D02*
X0079829Y0054717D01*
X0080160Y0055515D02*
X0049648Y0055515D01*
X0049648Y0056314D02*
X0080784Y0056314D01*
X0082148Y0057112D02*
X0049648Y0057112D01*
X0049648Y0057911D02*
X0084381Y0057911D01*
X0083993Y0057112D02*
X0083845Y0057112D01*
X0084996Y0058709D02*
X0049648Y0058709D01*
X0049648Y0059508D02*
X0084996Y0059508D01*
X0084996Y0060306D02*
X0049648Y0060306D01*
X0049678Y0061105D02*
X0084996Y0061105D01*
X0084996Y0061903D02*
X0050409Y0061903D01*
X0050739Y0062702D02*
X0084996Y0062702D01*
X0084996Y0063501D02*
X0050848Y0063501D01*
X0050822Y0064299D02*
X0084996Y0064299D01*
X0084996Y0065098D02*
X0050491Y0065098D01*
X0049877Y0065896D02*
X0084996Y0065896D01*
X0084996Y0066695D02*
X0049648Y0066695D01*
X0049648Y0067493D02*
X0084996Y0067493D01*
X0084996Y0068292D02*
X0049648Y0068292D01*
X0049535Y0069090D02*
X0084996Y0069090D01*
X0084996Y0069889D02*
X0048736Y0069889D01*
X0048476Y0070149D02*
X0048476Y0070149D01*
X0047938Y0070687D02*
X0084996Y0070687D01*
X0084996Y0071486D02*
X0047396Y0071486D01*
X0047396Y0072284D02*
X0084996Y0072284D01*
X0084996Y0073083D02*
X0047396Y0073083D01*
X0047396Y0073881D02*
X0084996Y0073881D01*
X0084996Y0074680D02*
X0047396Y0074680D01*
X0047396Y0075478D02*
X0084996Y0075478D01*
X0084996Y0076277D02*
X0047396Y0076277D01*
X0047396Y0077075D02*
X0084996Y0077075D01*
X0084197Y0077874D02*
X0047396Y0077874D01*
X0047396Y0078672D02*
X0083800Y0078672D01*
X0083596Y0079471D02*
X0047396Y0079471D01*
X0047396Y0080269D02*
X0083499Y0080269D01*
X0082700Y0081068D02*
X0047396Y0081068D01*
X0047396Y0081866D02*
X0081902Y0081866D01*
X0081103Y0082665D02*
X0047396Y0082665D01*
X0047688Y0083463D02*
X0080305Y0083463D01*
X0079506Y0084262D02*
X0048486Y0084262D01*
X0049285Y0085060D02*
X0078708Y0085060D01*
X0077909Y0085859D02*
X0050083Y0085859D01*
X0046822Y0088254D02*
X0028596Y0088254D01*
X0028769Y0087456D02*
X0046023Y0087456D01*
X0045225Y0086657D02*
X0029568Y0086657D01*
X0030225Y0086000D02*
X0030225Y0086000D01*
X0030366Y0085859D02*
X0044426Y0085859D01*
X0043628Y0085060D02*
X0031165Y0085060D01*
X0031396Y0084262D02*
X0043396Y0084262D01*
X0043396Y0083463D02*
X0031396Y0083463D01*
X0031396Y0082665D02*
X0043396Y0082665D01*
X0043396Y0081866D02*
X0031396Y0081866D01*
X0031396Y0081068D02*
X0043396Y0081068D01*
X0043396Y0080269D02*
X0031556Y0080269D01*
X0030796Y0078200D02*
X0029396Y0079600D01*
X0029396Y0084000D01*
X0025396Y0088000D01*
X0022796Y0088000D01*
X0020196Y0085400D01*
X0020196Y0073600D01*
X0019746Y0073150D01*
X0018171Y0071575D01*
X0017299Y0071575D01*
X0017299Y0073150D02*
X0019746Y0073150D01*
X0022196Y0072000D02*
X0020196Y0070000D01*
X0018621Y0068425D01*
X0017299Y0068425D01*
X0017299Y0066851D02*
X0015347Y0066851D01*
X0013996Y0065500D01*
X0013996Y0062500D01*
X0020496Y0056000D01*
X0023496Y0056000D01*
X0030996Y0063500D01*
X0030996Y0065500D01*
X0029646Y0066851D01*
X0027693Y0066851D01*
X0027693Y0065896D02*
X0027693Y0065896D01*
X0027693Y0065098D02*
X0027693Y0065098D01*
X0030273Y0065098D02*
X0030987Y0065098D01*
X0030796Y0064299D02*
X0012930Y0064299D01*
X0012867Y0063501D02*
X0030796Y0063501D01*
X0031070Y0062702D02*
X0012804Y0062702D01*
X0012741Y0061903D02*
X0031568Y0061903D01*
X0032624Y0061105D02*
X0012678Y0061105D01*
X0012679Y0060306D02*
X0045648Y0060306D01*
X0045648Y0059508D02*
X0012716Y0059508D01*
X0012753Y0058709D02*
X0045648Y0058709D01*
X0045648Y0057911D02*
X0012790Y0057911D01*
X0012827Y0057112D02*
X0045648Y0057112D01*
X0045648Y0056314D02*
X0012864Y0056314D01*
X0012901Y0055515D02*
X0045648Y0055515D01*
X0045648Y0054717D02*
X0012964Y0054717D01*
X0012993Y0065098D02*
X0014720Y0065098D01*
X0013763Y0065896D02*
X0013056Y0065896D01*
X0013125Y0066695D02*
X0013655Y0066695D01*
X0013455Y0067493D02*
X0013264Y0067493D01*
X0013403Y0068292D02*
X0013455Y0068292D01*
X0017299Y0070000D02*
X0020196Y0070000D01*
X0022115Y0069090D02*
X0023849Y0069090D01*
X0023849Y0068292D02*
X0021316Y0068292D01*
X0021144Y0067493D02*
X0023849Y0067493D01*
X0024049Y0066695D02*
X0020944Y0066695D01*
X0020943Y0066851D02*
X0020625Y0066851D01*
X0020944Y0066851D01*
X0020625Y0066851D02*
X0020625Y0066851D01*
X0020836Y0065896D02*
X0024156Y0065896D01*
X0025113Y0065098D02*
X0019879Y0065098D01*
X0017299Y0065098D02*
X0017299Y0065098D01*
X0017299Y0065896D02*
X0017299Y0065896D01*
X0022196Y0069172D02*
X0022196Y0069172D01*
X0022913Y0069889D02*
X0023849Y0069889D01*
X0023849Y0070687D02*
X0023712Y0070687D01*
X0022196Y0072000D02*
X0022196Y0082800D01*
X0022996Y0083600D01*
X0028424Y0089053D02*
X0047620Y0089053D01*
X0043396Y0079471D02*
X0037954Y0079471D01*
X0038753Y0078672D02*
X0043396Y0078672D01*
X0043396Y0077874D02*
X0039551Y0077874D01*
X0040350Y0077075D02*
X0043396Y0077075D01*
X0043396Y0076277D02*
X0041148Y0076277D01*
X0041796Y0075478D02*
X0043396Y0075478D01*
X0043396Y0074680D02*
X0041796Y0074680D01*
X0041796Y0073881D02*
X0043396Y0073881D01*
X0043396Y0073083D02*
X0041796Y0073083D01*
X0042238Y0072284D02*
X0043396Y0072284D01*
X0043396Y0071486D02*
X0042727Y0071486D01*
X0042996Y0070687D02*
X0043396Y0070687D01*
X0043396Y0069889D02*
X0042996Y0069889D01*
X0042800Y0069090D02*
X0043878Y0069090D01*
X0044568Y0068400D02*
X0044568Y0068400D01*
X0044677Y0068292D02*
X0042413Y0068292D01*
X0041615Y0067493D02*
X0045475Y0067493D01*
X0045648Y0066695D02*
X0038919Y0066695D01*
X0038418Y0065896D02*
X0045418Y0065896D01*
X0044804Y0065098D02*
X0037350Y0065098D01*
X0037196Y0064299D02*
X0044474Y0064299D01*
X0044448Y0063501D02*
X0037196Y0063501D01*
X0036922Y0062702D02*
X0044556Y0062702D01*
X0044887Y0061903D02*
X0036425Y0061903D01*
X0035368Y0061105D02*
X0045618Y0061105D01*
X0035996Y0068000D02*
X0033996Y0070000D01*
X0027693Y0070000D01*
X0027693Y0068425D02*
X0031571Y0068425D01*
X0033996Y0066000D01*
X0033996Y0064000D01*
X0031272Y0065896D02*
X0031230Y0065896D01*
X0034571Y0071575D02*
X0027693Y0071575D01*
X0027693Y0073150D02*
X0030146Y0073150D01*
X0031996Y0075000D01*
X0034571Y0071575D02*
X0035996Y0073000D01*
X0039796Y0074800D02*
X0039796Y0070200D01*
X0039796Y0074800D02*
X0036396Y0078200D01*
X0030796Y0078200D01*
X0016007Y0042739D02*
X0084732Y0042739D01*
X0084138Y0043538D02*
X0084059Y0043538D01*
X0086021Y0041941D02*
X0016274Y0041941D01*
X0081996Y0046000D02*
X0084421Y0048425D01*
X0092299Y0048425D01*
X0092299Y0046851D02*
X0088847Y0046851D01*
X0086996Y0045000D01*
X0081996Y0050000D02*
X0092299Y0050000D01*
X0092299Y0051575D02*
X0085421Y0051575D01*
X0082996Y0054000D01*
D200*
X0082996Y0054000D03*
X0081996Y0050000D03*
X0076996Y0050000D03*
X0081996Y0046000D03*
X0086996Y0045000D03*
X0094596Y0038800D03*
X0099796Y0038800D03*
X0081996Y0037000D03*
X0081996Y0026000D03*
X0063996Y0028500D03*
X0049996Y0034500D03*
X0047596Y0046600D03*
X0037496Y0050000D03*
X0033996Y0064000D03*
X0035996Y0068000D03*
X0039796Y0070200D03*
X0035996Y0073000D03*
X0031996Y0075000D03*
X0022996Y0083600D03*
X0025396Y0088000D03*
X0049596Y0077600D03*
X0062996Y0069000D03*
X0076996Y0069000D03*
X0086796Y0079800D03*
X0099196Y0064200D03*
X0102996Y0061600D03*
X0105996Y0058000D03*
X0086996Y0056000D03*
X0062996Y0050000D03*
X0047648Y0063600D03*
X0020496Y0056000D03*
X0021496Y0037000D03*
X0040996Y0022000D03*
X0222500Y0010000D02*
G75*
%LPD*%
D208*
X0234003Y0066851D03*
X0234003Y0068425D03*
X0234003Y0070000D03*
X0234003Y0071575D03*
X0234003Y0073150D03*
X0244397Y0073150D03*
X0244397Y0071575D03*
X0244397Y0070000D03*
X0244397Y0068425D03*
X0244397Y0066851D03*
X0309003Y0053150D03*
X0309003Y0051575D03*
X0309003Y0050000D03*
X0309003Y0048425D03*
X0309003Y0046851D03*
X0319397Y0046851D03*
X0319397Y0048425D03*
X0319397Y0050000D03*
X0319397Y0051575D03*
X0319397Y0053150D03*
D135*
X0310239Y0026769D02*
X0243161Y0026769D01*
X0243968Y0025970D02*
X0309432Y0025970D01*
X0308624Y0025172D02*
X0244776Y0025172D01*
X0245583Y0024373D02*
X0307817Y0024373D01*
X0307258Y0023821D02*
X0301273Y0019515D01*
X0294691Y0016192D01*
X0287673Y0013932D01*
X0280389Y0012791D01*
X0276702Y0012650D01*
X0276698Y0012650D01*
X0273011Y0012791D01*
X0265727Y0013932D01*
X0258709Y0016192D01*
X0252127Y0019515D01*
X0246142Y0023821D01*
X0240899Y0029005D01*
X0236526Y0034941D01*
X0233130Y0041485D01*
X0230791Y0048478D01*
X0230118Y0051709D01*
X0230125Y0051754D01*
X0230023Y0052179D01*
X0229951Y0052609D01*
X0229901Y0052689D01*
X0229738Y0053371D01*
X0229178Y0057444D01*
X0229437Y0065460D01*
X0230105Y0068740D01*
X0230156Y0068919D01*
X0230159Y0068923D01*
X0230159Y0067369D01*
X0230359Y0067169D01*
X0230359Y0066851D01*
X0230677Y0066851D01*
X0230677Y0066851D01*
X0230359Y0066851D01*
X0230359Y0066273D01*
X0230454Y0065917D01*
X0230639Y0065597D01*
X0230899Y0065337D01*
X0231219Y0065152D01*
X0231575Y0065057D01*
X0234003Y0065057D01*
X0234003Y0066425D01*
X0234003Y0066425D01*
X0234003Y0065057D01*
X0236432Y0065057D01*
X0236788Y0065152D01*
X0237107Y0065337D01*
X0237368Y0065597D01*
X0237552Y0065917D01*
X0237647Y0066273D01*
X0237647Y0066851D01*
X0237647Y0067169D01*
X0237847Y0067369D01*
X0237847Y0068119D01*
X0238900Y0069172D01*
X0240553Y0070825D01*
X0240553Y0069482D01*
X0240553Y0067369D01*
X0240753Y0067169D01*
X0240753Y0066851D01*
X0241071Y0066851D01*
X0241071Y0066851D01*
X0240753Y0066851D01*
X0240753Y0066273D01*
X0240848Y0065917D01*
X0241032Y0065597D01*
X0241293Y0065337D01*
X0241612Y0065152D01*
X0241968Y0065057D01*
X0244397Y0065057D01*
X0246825Y0065057D01*
X0247181Y0065152D01*
X0247501Y0065337D01*
X0247761Y0065597D01*
X0247946Y0065917D01*
X0247948Y0065924D01*
X0248023Y0065849D01*
X0247987Y0065813D01*
X0247500Y0064637D01*
X0247500Y0063364D01*
X0247987Y0062188D01*
X0248887Y0061287D01*
X0250063Y0060800D01*
X0251337Y0060800D01*
X0252513Y0061287D01*
X0253413Y0062188D01*
X0253900Y0063364D01*
X0253900Y0064637D01*
X0253760Y0064976D01*
X0254513Y0065287D01*
X0255413Y0066188D01*
X0255766Y0067041D01*
X0255863Y0067000D01*
X0257137Y0067000D01*
X0258313Y0067487D01*
X0259213Y0068388D01*
X0259700Y0069564D01*
X0259700Y0070837D01*
X0259213Y0072013D01*
X0258500Y0072726D01*
X0258500Y0075629D01*
X0255100Y0079029D01*
X0253928Y0080200D01*
X0248328Y0080200D01*
X0248100Y0080429D01*
X0248100Y0084829D01*
X0246928Y0086000D01*
X0245300Y0087629D01*
X0245300Y0088637D01*
X0244813Y0089813D01*
X0244775Y0089850D01*
X0265122Y0089850D01*
X0264100Y0088829D01*
X0260100Y0084829D01*
X0260100Y0069572D01*
X0261272Y0068400D01*
X0262352Y0067320D01*
X0262352Y0066126D01*
X0261639Y0065413D01*
X0261152Y0064237D01*
X0261152Y0062964D01*
X0261639Y0061788D01*
X0262352Y0061075D01*
X0262352Y0049177D01*
X0261587Y0048413D01*
X0261100Y0047237D01*
X0261100Y0045964D01*
X0261587Y0044788D01*
X0262487Y0043887D01*
X0263663Y0043400D01*
X0264937Y0043400D01*
X0266113Y0043887D01*
X0267013Y0044788D01*
X0267500Y0045964D01*
X0267500Y0047237D01*
X0267013Y0048413D01*
X0266352Y0049074D01*
X0266352Y0061075D01*
X0267064Y0061788D01*
X0267552Y0062964D01*
X0267552Y0064237D01*
X0267064Y0065413D01*
X0266352Y0066126D01*
X0266352Y0068977D01*
X0265180Y0070149D01*
X0264100Y0071229D01*
X0264100Y0083172D01*
X0266928Y0086000D01*
X0294472Y0086000D01*
X0300300Y0080172D01*
X0300300Y0079164D01*
X0300787Y0077988D01*
X0301687Y0077087D01*
X0301700Y0077082D01*
X0301700Y0058526D01*
X0300987Y0057813D01*
X0300675Y0057060D01*
X0300337Y0057200D01*
X0299063Y0057200D01*
X0297887Y0056713D01*
X0296987Y0055813D01*
X0296500Y0054637D01*
X0296500Y0053364D01*
X0296804Y0052630D01*
X0295987Y0051813D01*
X0295500Y0050637D01*
X0295500Y0049364D01*
X0295987Y0048188D01*
X0296175Y0048000D01*
X0295987Y0047813D01*
X0295500Y0046637D01*
X0295500Y0045364D01*
X0295987Y0044188D01*
X0296887Y0043287D01*
X0298063Y0042800D01*
X0299337Y0042800D01*
X0300513Y0043287D01*
X0300819Y0043594D01*
X0300987Y0043188D01*
X0301887Y0042287D01*
X0303063Y0041800D01*
X0304337Y0041800D01*
X0305513Y0042287D01*
X0306413Y0043188D01*
X0306900Y0044364D01*
X0306900Y0044851D01*
X0309832Y0044851D01*
X0309838Y0044857D01*
X0311910Y0044857D01*
X0312300Y0045247D01*
X0312300Y0042791D01*
X0311559Y0042000D01*
X0310663Y0042000D01*
X0309487Y0041513D01*
X0308587Y0040613D01*
X0308100Y0039437D01*
X0308100Y0038164D01*
X0308587Y0036988D01*
X0309487Y0036087D01*
X0310663Y0035600D01*
X0311937Y0035600D01*
X0313113Y0036087D01*
X0313900Y0036875D01*
X0314687Y0036087D01*
X0315863Y0035600D01*
X0317137Y0035600D01*
X0317237Y0035642D01*
X0316874Y0034941D01*
X0312501Y0029005D01*
X0307258Y0023821D01*
X0306916Y0023575D02*
X0246484Y0023575D01*
X0247594Y0022776D02*
X0305806Y0022776D01*
X0304696Y0021978D02*
X0248704Y0021978D01*
X0249813Y0021179D02*
X0303587Y0021179D01*
X0302477Y0020381D02*
X0250923Y0020381D01*
X0252033Y0019582D02*
X0301367Y0019582D01*
X0299825Y0018784D02*
X0253575Y0018784D01*
X0255156Y0017985D02*
X0298244Y0017985D01*
X0296662Y0017187D02*
X0256738Y0017187D01*
X0258319Y0016388D02*
X0295081Y0016388D01*
X0292822Y0015590D02*
X0260578Y0015590D01*
X0263058Y0014791D02*
X0290342Y0014791D01*
X0287861Y0013993D02*
X0265539Y0013993D01*
X0270439Y0013194D02*
X0282961Y0013194D01*
X0311047Y0027568D02*
X0242353Y0027568D01*
X0241546Y0028366D02*
X0311854Y0028366D01*
X0312618Y0029165D02*
X0240782Y0029165D01*
X0240194Y0029963D02*
X0313206Y0029963D01*
X0313795Y0030762D02*
X0239605Y0030762D01*
X0239017Y0031560D02*
X0314383Y0031560D01*
X0314971Y0032359D02*
X0238429Y0032359D01*
X0237841Y0033157D02*
X0315559Y0033157D01*
X0316147Y0033956D02*
X0237253Y0033956D01*
X0236664Y0034754D02*
X0316736Y0034754D01*
X0317191Y0035553D02*
X0236209Y0035553D01*
X0235795Y0036351D02*
X0309224Y0036351D01*
X0308520Y0037150D02*
X0235380Y0037150D01*
X0234966Y0037948D02*
X0308189Y0037948D01*
X0308100Y0038747D02*
X0234551Y0038747D01*
X0234137Y0039545D02*
X0308145Y0039545D01*
X0308476Y0040344D02*
X0233722Y0040344D01*
X0233308Y0041142D02*
X0309116Y0041142D01*
X0310520Y0041941D02*
X0304676Y0041941D01*
X0305964Y0042739D02*
X0312251Y0042739D01*
X0312300Y0043538D02*
X0306558Y0043538D01*
X0306889Y0044336D02*
X0312300Y0044336D01*
X0312300Y0045135D02*
X0312188Y0045135D01*
X0314300Y0047200D02*
X0314300Y0042000D01*
X0311300Y0038800D01*
X0313376Y0036351D02*
X0314424Y0036351D01*
X0316500Y0038800D02*
X0316500Y0046200D01*
X0317150Y0046851D01*
X0319397Y0046851D01*
X0319397Y0048425D02*
X0315525Y0048425D01*
X0314300Y0047200D01*
X0316300Y0050000D02*
X0314500Y0051800D01*
X0314500Y0062800D01*
X0315900Y0064200D01*
X0319700Y0061600D02*
X0316100Y0058000D01*
X0316100Y0052200D01*
X0316725Y0051575D01*
X0319397Y0051575D01*
X0319397Y0050000D02*
X0316300Y0050000D01*
X0319397Y0053150D02*
X0321850Y0053150D01*
X0323300Y0054600D01*
X0323300Y0057400D01*
X0322700Y0058000D01*
X0309003Y0053150D02*
X0306550Y0053150D01*
X0303700Y0056000D01*
X0303700Y0079600D01*
X0303500Y0079800D01*
X0295300Y0088000D01*
X0266100Y0088000D01*
X0262100Y0084000D01*
X0262100Y0070400D01*
X0264352Y0068149D01*
X0264352Y0063600D01*
X0264352Y0063200D01*
X0264352Y0046652D01*
X0264300Y0046600D01*
X0267157Y0045135D02*
X0295595Y0045135D01*
X0295500Y0045933D02*
X0267487Y0045933D01*
X0267500Y0046732D02*
X0295539Y0046732D01*
X0295870Y0047530D02*
X0267378Y0047530D01*
X0267048Y0048329D02*
X0295929Y0048329D01*
X0295598Y0049127D02*
X0266352Y0049127D01*
X0266352Y0049926D02*
X0295500Y0049926D01*
X0295536Y0050724D02*
X0266352Y0050724D01*
X0266352Y0051523D02*
X0295867Y0051523D01*
X0296496Y0052321D02*
X0266352Y0052321D01*
X0266352Y0053120D02*
X0296601Y0053120D01*
X0296500Y0053918D02*
X0266352Y0053918D01*
X0266352Y0054717D02*
X0296533Y0054717D01*
X0296864Y0055515D02*
X0266352Y0055515D01*
X0266352Y0056314D02*
X0297488Y0056314D01*
X0298851Y0057112D02*
X0266352Y0057112D01*
X0266352Y0057911D02*
X0301085Y0057911D01*
X0300697Y0057112D02*
X0300549Y0057112D01*
X0301700Y0058709D02*
X0266352Y0058709D01*
X0266352Y0059508D02*
X0301700Y0059508D01*
X0301700Y0060306D02*
X0266352Y0060306D01*
X0266382Y0061105D02*
X0301700Y0061105D01*
X0301700Y0061903D02*
X0267112Y0061903D01*
X0267443Y0062702D02*
X0301700Y0062702D01*
X0301700Y0063501D02*
X0267552Y0063501D01*
X0267526Y0064299D02*
X0301700Y0064299D01*
X0301700Y0065098D02*
X0267195Y0065098D01*
X0266581Y0065896D02*
X0301700Y0065896D01*
X0301700Y0066695D02*
X0266352Y0066695D01*
X0266352Y0067493D02*
X0301700Y0067493D01*
X0301700Y0068292D02*
X0266352Y0068292D01*
X0266239Y0069090D02*
X0301700Y0069090D01*
X0301700Y0069889D02*
X0265440Y0069889D01*
X0265180Y0070149D02*
X0265180Y0070149D01*
X0264642Y0070687D02*
X0301700Y0070687D01*
X0301700Y0071486D02*
X0264100Y0071486D01*
X0264100Y0072284D02*
X0301700Y0072284D01*
X0301700Y0073083D02*
X0264100Y0073083D01*
X0264100Y0073881D02*
X0301700Y0073881D01*
X0301700Y0074680D02*
X0264100Y0074680D01*
X0264100Y0075478D02*
X0301700Y0075478D01*
X0301700Y0076277D02*
X0264100Y0076277D01*
X0264100Y0077075D02*
X0301700Y0077075D01*
X0300901Y0077874D02*
X0264100Y0077874D01*
X0264100Y0078672D02*
X0300504Y0078672D01*
X0300300Y0079471D02*
X0264100Y0079471D01*
X0264100Y0080269D02*
X0300203Y0080269D01*
X0299404Y0081068D02*
X0264100Y0081068D01*
X0264100Y0081866D02*
X0298606Y0081866D01*
X0297807Y0082665D02*
X0264100Y0082665D01*
X0264391Y0083463D02*
X0297009Y0083463D01*
X0296210Y0084262D02*
X0265190Y0084262D01*
X0265988Y0085060D02*
X0295412Y0085060D01*
X0294613Y0085859D02*
X0266787Y0085859D01*
X0263526Y0088254D02*
X0245300Y0088254D01*
X0245473Y0087456D02*
X0262727Y0087456D01*
X0261929Y0086657D02*
X0246271Y0086657D01*
X0246928Y0086000D02*
X0246928Y0086000D01*
X0247070Y0085859D02*
X0261130Y0085859D01*
X0260332Y0085060D02*
X0247868Y0085060D01*
X0248100Y0084262D02*
X0260100Y0084262D01*
X0260100Y0083463D02*
X0248100Y0083463D01*
X0248100Y0082665D02*
X0260100Y0082665D01*
X0260100Y0081866D02*
X0248100Y0081866D01*
X0248100Y0081068D02*
X0260100Y0081068D01*
X0260100Y0080269D02*
X0248259Y0080269D01*
X0247500Y0078200D02*
X0246100Y0079600D01*
X0246100Y0084000D01*
X0242100Y0088000D01*
X0239500Y0088000D01*
X0236900Y0085400D01*
X0236900Y0073600D01*
X0236450Y0073150D01*
X0234875Y0071575D01*
X0234003Y0071575D01*
X0234003Y0073150D02*
X0236450Y0073150D01*
X0238900Y0072000D02*
X0236900Y0070000D01*
X0235325Y0068425D01*
X0234003Y0068425D01*
X0234003Y0066851D02*
X0232050Y0066851D01*
X0230700Y0065500D01*
X0230700Y0062500D01*
X0237200Y0056000D01*
X0240200Y0056000D01*
X0247700Y0063500D01*
X0247700Y0065500D01*
X0246350Y0066851D01*
X0244397Y0066851D01*
X0244397Y0066425D02*
X0244397Y0065057D01*
X0244397Y0066425D01*
X0244397Y0066425D01*
X0244397Y0065896D02*
X0244397Y0065896D01*
X0244397Y0065098D02*
X0244397Y0065098D01*
X0246977Y0065098D02*
X0247691Y0065098D01*
X0247500Y0064299D02*
X0229399Y0064299D01*
X0229374Y0063501D02*
X0247500Y0063501D01*
X0247774Y0062702D02*
X0229348Y0062702D01*
X0229322Y0061903D02*
X0248271Y0061903D01*
X0249328Y0061105D02*
X0229296Y0061105D01*
X0229271Y0060306D02*
X0262352Y0060306D01*
X0262352Y0059508D02*
X0229245Y0059508D01*
X0229219Y0058709D02*
X0262352Y0058709D01*
X0262352Y0057911D02*
X0229193Y0057911D01*
X0229224Y0057112D02*
X0262352Y0057112D01*
X0262352Y0056314D02*
X0229334Y0056314D01*
X0229443Y0055515D02*
X0262352Y0055515D01*
X0262352Y0054717D02*
X0229553Y0054717D01*
X0229663Y0053918D02*
X0262352Y0053918D01*
X0262352Y0053120D02*
X0255031Y0053120D01*
X0254837Y0053200D02*
X0253563Y0053200D01*
X0252387Y0052713D01*
X0251487Y0051813D01*
X0251000Y0050637D01*
X0251000Y0049364D01*
X0251487Y0048188D01*
X0252387Y0047287D01*
X0253563Y0046800D01*
X0254837Y0046800D01*
X0256013Y0047287D01*
X0256913Y0048188D01*
X0257400Y0049364D01*
X0257400Y0050637D01*
X0256913Y0051813D01*
X0256013Y0052713D01*
X0254837Y0053200D01*
X0256404Y0052321D02*
X0262352Y0052321D01*
X0262352Y0051523D02*
X0257033Y0051523D01*
X0257364Y0050724D02*
X0262352Y0050724D01*
X0262352Y0049926D02*
X0257400Y0049926D01*
X0257302Y0049127D02*
X0262302Y0049127D01*
X0261552Y0048329D02*
X0256971Y0048329D01*
X0256256Y0047530D02*
X0261222Y0047530D01*
X0261100Y0046732D02*
X0231375Y0046732D01*
X0231108Y0047530D02*
X0252144Y0047530D01*
X0251429Y0048329D02*
X0230841Y0048329D01*
X0230656Y0049127D02*
X0251098Y0049127D01*
X0251000Y0049926D02*
X0230490Y0049926D01*
X0230323Y0050724D02*
X0251036Y0050724D01*
X0251367Y0051523D02*
X0230157Y0051523D01*
X0229999Y0052321D02*
X0251996Y0052321D01*
X0253369Y0053120D02*
X0229798Y0053120D01*
X0231642Y0045933D02*
X0261113Y0045933D01*
X0261443Y0045135D02*
X0231909Y0045135D01*
X0232176Y0044336D02*
X0262039Y0044336D01*
X0263332Y0043538D02*
X0232443Y0043538D01*
X0232710Y0042739D02*
X0301436Y0042739D01*
X0300842Y0043538D02*
X0300763Y0043538D01*
X0302724Y0041941D02*
X0232977Y0041941D01*
X0252072Y0061105D02*
X0262321Y0061105D01*
X0261591Y0061903D02*
X0253129Y0061903D01*
X0253626Y0062702D02*
X0261260Y0062702D01*
X0261152Y0063501D02*
X0253900Y0063501D01*
X0253900Y0064299D02*
X0261177Y0064299D01*
X0261508Y0065098D02*
X0254054Y0065098D01*
X0255121Y0065896D02*
X0262122Y0065896D01*
X0262352Y0066695D02*
X0255623Y0066695D01*
X0258318Y0067493D02*
X0262179Y0067493D01*
X0261380Y0068292D02*
X0259117Y0068292D01*
X0259504Y0069090D02*
X0260582Y0069090D01*
X0260100Y0069889D02*
X0259700Y0069889D01*
X0259700Y0070687D02*
X0260100Y0070687D01*
X0260100Y0071486D02*
X0259431Y0071486D01*
X0258942Y0072284D02*
X0260100Y0072284D01*
X0260100Y0073083D02*
X0258500Y0073083D01*
X0258500Y0073881D02*
X0260100Y0073881D01*
X0260100Y0074680D02*
X0258500Y0074680D01*
X0258500Y0075478D02*
X0260100Y0075478D01*
X0260100Y0076277D02*
X0257852Y0076277D01*
X0257053Y0077075D02*
X0260100Y0077075D01*
X0260100Y0077874D02*
X0256255Y0077874D01*
X0255456Y0078672D02*
X0260100Y0078672D01*
X0260100Y0079471D02*
X0254658Y0079471D01*
X0253100Y0078200D02*
X0247500Y0078200D01*
X0248700Y0075000D02*
X0246850Y0073150D01*
X0244397Y0073150D01*
X0244397Y0071575D02*
X0251275Y0071575D01*
X0252700Y0073000D01*
X0250700Y0070000D02*
X0244397Y0070000D01*
X0244397Y0068425D02*
X0248275Y0068425D01*
X0250700Y0066000D01*
X0250700Y0064000D01*
X0247976Y0065896D02*
X0247934Y0065896D01*
X0250700Y0070000D02*
X0252700Y0068000D01*
X0256500Y0070200D02*
X0256500Y0074800D01*
X0253100Y0078200D01*
X0261272Y0068400D02*
X0261272Y0068400D01*
X0241817Y0065098D02*
X0236583Y0065098D01*
X0237540Y0065896D02*
X0240860Y0065896D01*
X0240753Y0066695D02*
X0237647Y0066695D01*
X0237647Y0066851D02*
X0237329Y0066851D01*
X0237647Y0066851D01*
X0237329Y0066851D02*
X0237329Y0066851D01*
X0237847Y0067493D02*
X0240553Y0067493D01*
X0240553Y0068292D02*
X0238020Y0068292D01*
X0238818Y0069090D02*
X0240553Y0069090D01*
X0240553Y0069889D02*
X0239617Y0069889D01*
X0238900Y0069172D02*
X0238900Y0069172D01*
X0240415Y0070687D02*
X0240553Y0070687D01*
X0238900Y0072000D02*
X0238900Y0082800D01*
X0239700Y0083600D01*
X0245128Y0089053D02*
X0264324Y0089053D01*
X0236900Y0070000D02*
X0234003Y0070000D01*
X0230159Y0068292D02*
X0230013Y0068292D01*
X0230159Y0067493D02*
X0229851Y0067493D01*
X0229688Y0066695D02*
X0230359Y0066695D01*
X0230466Y0065896D02*
X0229525Y0065896D01*
X0229425Y0065098D02*
X0231423Y0065098D01*
X0234003Y0065098D02*
X0234003Y0065098D01*
X0234003Y0065896D02*
X0234003Y0065896D01*
X0265268Y0043538D02*
X0296637Y0043538D01*
X0295926Y0044336D02*
X0266561Y0044336D01*
X0298700Y0046000D02*
X0301125Y0048425D01*
X0309003Y0048425D01*
X0309003Y0046851D02*
X0305550Y0046851D01*
X0303700Y0045000D01*
X0298700Y0050000D02*
X0309003Y0050000D01*
X0309003Y0051575D02*
X0302125Y0051575D01*
X0299700Y0054000D01*
D200*
X0299700Y0054000D03*
X0303700Y0056000D03*
X0298700Y0050000D03*
X0298700Y0046000D03*
X0303700Y0045000D03*
X0311300Y0038800D03*
X0316500Y0038800D03*
X0298700Y0037000D03*
X0298700Y0026000D03*
X0280700Y0028500D03*
X0266700Y0034500D03*
X0264300Y0046600D03*
X0254200Y0050000D03*
X0250700Y0064000D03*
X0252700Y0068000D03*
X0256500Y0070200D03*
X0252700Y0073000D03*
X0248700Y0075000D03*
X0239700Y0083600D03*
X0242100Y0088000D03*
X0266300Y0077600D03*
X0279700Y0069000D03*
X0293700Y0069000D03*
X0303500Y0079800D03*
X0315900Y0064200D03*
X0319700Y0061600D03*
X0322700Y0058000D03*
X0293700Y0050000D03*
X0279700Y0050000D03*
X0264352Y0063600D03*
X0237200Y0056000D03*
X0238200Y0037000D03*
X0257700Y0022000D03*
X0114500Y0010000D02*
G75*
%LPD*%
D208*
X0126003Y0066851D03*
X0126003Y0068425D03*
X0126003Y0070000D03*
X0126003Y0071575D03*
X0126003Y0073150D03*
X0136397Y0073150D03*
X0136397Y0071575D03*
X0136397Y0070000D03*
X0136397Y0068425D03*
X0136397Y0066851D03*
X0201003Y0053150D03*
X0201003Y0051575D03*
X0201003Y0050000D03*
X0201003Y0048425D03*
X0201003Y0046851D03*
X0211397Y0046851D03*
X0211397Y0048425D03*
X0211397Y0050000D03*
X0211397Y0051575D03*
X0211397Y0053150D03*
D135*
X0202239Y0026769D02*
X0135161Y0026769D01*
X0135968Y0025970D02*
X0201432Y0025970D01*
X0200624Y0025172D02*
X0136776Y0025172D01*
X0137583Y0024373D02*
X0199817Y0024373D01*
X0199258Y0023821D02*
X0193273Y0019515D01*
X0186691Y0016192D01*
X0179673Y0013932D01*
X0172389Y0012791D01*
X0168702Y0012650D01*
X0168698Y0012650D01*
X0165011Y0012791D01*
X0157727Y0013932D01*
X0150709Y0016192D01*
X0144127Y0019515D01*
X0138142Y0023821D01*
X0132899Y0029005D01*
X0128526Y0034941D01*
X0125130Y0041485D01*
X0122791Y0048478D01*
X0122118Y0051709D01*
X0122125Y0051754D01*
X0122023Y0052179D01*
X0121951Y0052609D01*
X0121901Y0052689D01*
X0121738Y0053371D01*
X0121178Y0057444D01*
X0121437Y0065460D01*
X0122105Y0068740D01*
X0122156Y0068919D01*
X0122159Y0068923D01*
X0122159Y0067369D01*
X0122359Y0067169D01*
X0122359Y0066851D01*
X0122677Y0066851D01*
X0122677Y0066851D01*
X0122359Y0066851D01*
X0122359Y0066273D01*
X0122454Y0065917D01*
X0122639Y0065597D01*
X0122899Y0065337D01*
X0123219Y0065152D01*
X0123575Y0065057D01*
X0126003Y0065057D01*
X0126003Y0066425D01*
X0126003Y0066425D01*
X0126003Y0065057D01*
X0128432Y0065057D01*
X0128788Y0065152D01*
X0129107Y0065337D01*
X0129368Y0065597D01*
X0129552Y0065917D01*
X0129647Y0066273D01*
X0129647Y0066851D01*
X0129647Y0067169D01*
X0129847Y0067369D01*
X0129847Y0068119D01*
X0130900Y0069172D01*
X0132553Y0070825D01*
X0132553Y0069482D01*
X0132553Y0067369D01*
X0132753Y0067169D01*
X0132753Y0066851D01*
X0133071Y0066851D01*
X0133071Y0066851D01*
X0132753Y0066851D01*
X0132753Y0066273D01*
X0132848Y0065917D01*
X0133032Y0065597D01*
X0133293Y0065337D01*
X0133612Y0065152D01*
X0133968Y0065057D01*
X0136397Y0065057D01*
X0138825Y0065057D01*
X0139181Y0065152D01*
X0139501Y0065337D01*
X0139761Y0065597D01*
X0139946Y0065917D01*
X0139948Y0065924D01*
X0140023Y0065849D01*
X0139987Y0065813D01*
X0139500Y0064637D01*
X0139500Y0063364D01*
X0139987Y0062188D01*
X0140887Y0061287D01*
X0142063Y0060800D01*
X0143337Y0060800D01*
X0144513Y0061287D01*
X0145413Y0062188D01*
X0145900Y0063364D01*
X0145900Y0064637D01*
X0145760Y0064976D01*
X0146513Y0065287D01*
X0147413Y0066188D01*
X0147766Y0067041D01*
X0147863Y0067000D01*
X0149137Y0067000D01*
X0150313Y0067487D01*
X0151213Y0068388D01*
X0151700Y0069564D01*
X0151700Y0070837D01*
X0151213Y0072013D01*
X0150500Y0072726D01*
X0150500Y0075629D01*
X0147100Y0079029D01*
X0145928Y0080200D01*
X0140328Y0080200D01*
X0140100Y0080429D01*
X0140100Y0084829D01*
X0138928Y0086000D01*
X0137300Y0087629D01*
X0137300Y0088637D01*
X0136813Y0089813D01*
X0136775Y0089850D01*
X0157122Y0089850D01*
X0156100Y0088829D01*
X0152100Y0084829D01*
X0152100Y0069572D01*
X0153272Y0068400D01*
X0154352Y0067320D01*
X0154352Y0066126D01*
X0153639Y0065413D01*
X0153152Y0064237D01*
X0153152Y0062964D01*
X0153639Y0061788D01*
X0154352Y0061075D01*
X0154352Y0049177D01*
X0153587Y0048413D01*
X0153100Y0047237D01*
X0153100Y0045964D01*
X0153587Y0044788D01*
X0154487Y0043887D01*
X0155663Y0043400D01*
X0156937Y0043400D01*
X0158113Y0043887D01*
X0159013Y0044788D01*
X0159500Y0045964D01*
X0159500Y0047237D01*
X0159013Y0048413D01*
X0158352Y0049074D01*
X0158352Y0061075D01*
X0159064Y0061788D01*
X0159552Y0062964D01*
X0159552Y0064237D01*
X0159064Y0065413D01*
X0158352Y0066126D01*
X0158352Y0068977D01*
X0157180Y0070149D01*
X0156100Y0071229D01*
X0156100Y0083172D01*
X0158928Y0086000D01*
X0186472Y0086000D01*
X0192300Y0080172D01*
X0192300Y0079164D01*
X0192787Y0077988D01*
X0193687Y0077087D01*
X0193700Y0077082D01*
X0193700Y0058526D01*
X0192987Y0057813D01*
X0192675Y0057060D01*
X0192337Y0057200D01*
X0191063Y0057200D01*
X0189887Y0056713D01*
X0188987Y0055813D01*
X0188500Y0054637D01*
X0188500Y0053364D01*
X0188804Y0052630D01*
X0187987Y0051813D01*
X0187500Y0050637D01*
X0187500Y0049364D01*
X0187987Y0048188D01*
X0188175Y0048000D01*
X0187987Y0047813D01*
X0187500Y0046637D01*
X0187500Y0045364D01*
X0187987Y0044188D01*
X0188887Y0043287D01*
X0190063Y0042800D01*
X0191337Y0042800D01*
X0192513Y0043287D01*
X0192819Y0043594D01*
X0192987Y0043188D01*
X0193887Y0042287D01*
X0195063Y0041800D01*
X0196337Y0041800D01*
X0197513Y0042287D01*
X0198413Y0043188D01*
X0198900Y0044364D01*
X0198900Y0044851D01*
X0201832Y0044851D01*
X0201838Y0044857D01*
X0203910Y0044857D01*
X0204300Y0045247D01*
X0204300Y0042791D01*
X0203559Y0042000D01*
X0202663Y0042000D01*
X0201487Y0041513D01*
X0200587Y0040613D01*
X0200100Y0039437D01*
X0200100Y0038164D01*
X0200587Y0036988D01*
X0201487Y0036087D01*
X0202663Y0035600D01*
X0203937Y0035600D01*
X0205113Y0036087D01*
X0205900Y0036875D01*
X0206687Y0036087D01*
X0207863Y0035600D01*
X0209137Y0035600D01*
X0209237Y0035642D01*
X0208874Y0034941D01*
X0204501Y0029005D01*
X0199258Y0023821D01*
X0198916Y0023575D02*
X0138484Y0023575D01*
X0139594Y0022776D02*
X0197806Y0022776D01*
X0196696Y0021978D02*
X0140704Y0021978D01*
X0141813Y0021179D02*
X0195587Y0021179D01*
X0194477Y0020381D02*
X0142923Y0020381D01*
X0144033Y0019582D02*
X0193367Y0019582D01*
X0191825Y0018784D02*
X0145575Y0018784D01*
X0147156Y0017985D02*
X0190244Y0017985D01*
X0188662Y0017187D02*
X0148738Y0017187D01*
X0150319Y0016388D02*
X0187081Y0016388D01*
X0184822Y0015590D02*
X0152578Y0015590D01*
X0155058Y0014791D02*
X0182342Y0014791D01*
X0179861Y0013993D02*
X0157539Y0013993D01*
X0162439Y0013194D02*
X0174961Y0013194D01*
X0203047Y0027568D02*
X0134353Y0027568D01*
X0133546Y0028366D02*
X0203854Y0028366D01*
X0204618Y0029165D02*
X0132782Y0029165D01*
X0132194Y0029963D02*
X0205206Y0029963D01*
X0205795Y0030762D02*
X0131605Y0030762D01*
X0131017Y0031560D02*
X0206383Y0031560D01*
X0206971Y0032359D02*
X0130429Y0032359D01*
X0129841Y0033157D02*
X0207559Y0033157D01*
X0208147Y0033956D02*
X0129253Y0033956D01*
X0128664Y0034754D02*
X0208736Y0034754D01*
X0209191Y0035553D02*
X0128209Y0035553D01*
X0127795Y0036351D02*
X0201224Y0036351D01*
X0200520Y0037150D02*
X0127380Y0037150D01*
X0126966Y0037948D02*
X0200189Y0037948D01*
X0200100Y0038747D02*
X0126551Y0038747D01*
X0126137Y0039545D02*
X0200145Y0039545D01*
X0200476Y0040344D02*
X0125722Y0040344D01*
X0125308Y0041142D02*
X0201116Y0041142D01*
X0202520Y0041941D02*
X0196676Y0041941D01*
X0197964Y0042739D02*
X0204251Y0042739D01*
X0204300Y0043538D02*
X0198558Y0043538D01*
X0198889Y0044336D02*
X0204300Y0044336D01*
X0204300Y0045135D02*
X0204188Y0045135D01*
X0206300Y0047200D02*
X0206300Y0042000D01*
X0203300Y0038800D01*
X0205376Y0036351D02*
X0206424Y0036351D01*
X0208500Y0038800D02*
X0208500Y0046200D01*
X0209150Y0046851D01*
X0211397Y0046851D01*
X0211397Y0048425D02*
X0207525Y0048425D01*
X0206300Y0047200D01*
X0208300Y0050000D02*
X0206500Y0051800D01*
X0206500Y0062800D01*
X0207900Y0064200D01*
X0211700Y0061600D02*
X0208100Y0058000D01*
X0208100Y0052200D01*
X0208725Y0051575D01*
X0211397Y0051575D01*
X0211397Y0050000D02*
X0208300Y0050000D01*
X0211397Y0053150D02*
X0213850Y0053150D01*
X0215300Y0054600D01*
X0215300Y0057400D01*
X0214700Y0058000D01*
X0201003Y0053150D02*
X0198550Y0053150D01*
X0195700Y0056000D01*
X0195700Y0079600D01*
X0195500Y0079800D01*
X0187300Y0088000D01*
X0158100Y0088000D01*
X0154100Y0084000D01*
X0154100Y0070400D01*
X0156352Y0068149D01*
X0156352Y0063600D01*
X0156352Y0063200D01*
X0156352Y0046652D01*
X0156300Y0046600D01*
X0153443Y0045135D02*
X0123909Y0045135D01*
X0123642Y0045933D02*
X0153113Y0045933D01*
X0153100Y0046732D02*
X0123375Y0046732D01*
X0123108Y0047530D02*
X0144144Y0047530D01*
X0144387Y0047287D02*
X0143487Y0048188D01*
X0143000Y0049364D01*
X0143000Y0050637D01*
X0143487Y0051813D01*
X0144387Y0052713D01*
X0145563Y0053200D01*
X0146837Y0053200D01*
X0148013Y0052713D01*
X0148913Y0051813D01*
X0149400Y0050637D01*
X0149400Y0049364D01*
X0148913Y0048188D01*
X0148013Y0047287D01*
X0146837Y0046800D01*
X0145563Y0046800D01*
X0144387Y0047287D01*
X0143429Y0048329D02*
X0122841Y0048329D01*
X0122656Y0049127D02*
X0143098Y0049127D01*
X0143000Y0049926D02*
X0122490Y0049926D01*
X0122323Y0050724D02*
X0143036Y0050724D01*
X0143367Y0051523D02*
X0122157Y0051523D01*
X0121999Y0052321D02*
X0143996Y0052321D01*
X0145369Y0053120D02*
X0121798Y0053120D01*
X0121663Y0053918D02*
X0154352Y0053918D01*
X0154352Y0053120D02*
X0147031Y0053120D01*
X0148404Y0052321D02*
X0154352Y0052321D01*
X0154352Y0051523D02*
X0149033Y0051523D01*
X0149364Y0050724D02*
X0154352Y0050724D01*
X0154352Y0049926D02*
X0149400Y0049926D01*
X0149302Y0049127D02*
X0154302Y0049127D01*
X0153552Y0048329D02*
X0148971Y0048329D01*
X0148256Y0047530D02*
X0153222Y0047530D01*
X0154039Y0044336D02*
X0124176Y0044336D01*
X0124443Y0043538D02*
X0155332Y0043538D01*
X0157268Y0043538D02*
X0188637Y0043538D01*
X0187926Y0044336D02*
X0158561Y0044336D01*
X0159157Y0045135D02*
X0187595Y0045135D01*
X0187500Y0045933D02*
X0159487Y0045933D01*
X0159500Y0046732D02*
X0187539Y0046732D01*
X0187870Y0047530D02*
X0159378Y0047530D01*
X0159048Y0048329D02*
X0187929Y0048329D01*
X0187598Y0049127D02*
X0158352Y0049127D01*
X0158352Y0049926D02*
X0187500Y0049926D01*
X0187536Y0050724D02*
X0158352Y0050724D01*
X0158352Y0051523D02*
X0187867Y0051523D01*
X0188496Y0052321D02*
X0158352Y0052321D01*
X0158352Y0053120D02*
X0188601Y0053120D01*
X0188500Y0053918D02*
X0158352Y0053918D01*
X0158352Y0054717D02*
X0188533Y0054717D01*
X0188864Y0055515D02*
X0158352Y0055515D01*
X0158352Y0056314D02*
X0189488Y0056314D01*
X0190851Y0057112D02*
X0158352Y0057112D01*
X0158352Y0057911D02*
X0193085Y0057911D01*
X0192697Y0057112D02*
X0192549Y0057112D01*
X0193700Y0058709D02*
X0158352Y0058709D01*
X0158352Y0059508D02*
X0193700Y0059508D01*
X0193700Y0060306D02*
X0158352Y0060306D01*
X0158382Y0061105D02*
X0193700Y0061105D01*
X0193700Y0061903D02*
X0159112Y0061903D01*
X0159443Y0062702D02*
X0193700Y0062702D01*
X0193700Y0063501D02*
X0159552Y0063501D01*
X0159526Y0064299D02*
X0193700Y0064299D01*
X0193700Y0065098D02*
X0159195Y0065098D01*
X0158581Y0065896D02*
X0193700Y0065896D01*
X0193700Y0066695D02*
X0158352Y0066695D01*
X0158352Y0067493D02*
X0193700Y0067493D01*
X0193700Y0068292D02*
X0158352Y0068292D01*
X0158239Y0069090D02*
X0193700Y0069090D01*
X0193700Y0069889D02*
X0157440Y0069889D01*
X0157180Y0070149D02*
X0157180Y0070149D01*
X0156642Y0070687D02*
X0193700Y0070687D01*
X0193700Y0071486D02*
X0156100Y0071486D01*
X0156100Y0072284D02*
X0193700Y0072284D01*
X0193700Y0073083D02*
X0156100Y0073083D01*
X0156100Y0073881D02*
X0193700Y0073881D01*
X0193700Y0074680D02*
X0156100Y0074680D01*
X0156100Y0075478D02*
X0193700Y0075478D01*
X0193700Y0076277D02*
X0156100Y0076277D01*
X0156100Y0077075D02*
X0193700Y0077075D01*
X0192901Y0077874D02*
X0156100Y0077874D01*
X0156100Y0078672D02*
X0192504Y0078672D01*
X0192300Y0079471D02*
X0156100Y0079471D01*
X0156100Y0080269D02*
X0192203Y0080269D01*
X0191404Y0081068D02*
X0156100Y0081068D01*
X0156100Y0081866D02*
X0190606Y0081866D01*
X0189807Y0082665D02*
X0156100Y0082665D01*
X0156391Y0083463D02*
X0189009Y0083463D01*
X0188210Y0084262D02*
X0157190Y0084262D01*
X0157988Y0085060D02*
X0187412Y0085060D01*
X0186613Y0085859D02*
X0158787Y0085859D01*
X0155526Y0088254D02*
X0137300Y0088254D01*
X0137473Y0087456D02*
X0154727Y0087456D01*
X0153929Y0086657D02*
X0138271Y0086657D01*
X0139070Y0085859D02*
X0153130Y0085859D01*
X0152332Y0085060D02*
X0139868Y0085060D01*
X0140100Y0084262D02*
X0152100Y0084262D01*
X0152100Y0083463D02*
X0140100Y0083463D01*
X0140100Y0082665D02*
X0152100Y0082665D01*
X0152100Y0081866D02*
X0140100Y0081866D01*
X0140100Y0081068D02*
X0152100Y0081068D01*
X0152100Y0080269D02*
X0140259Y0080269D01*
X0139500Y0078200D02*
X0138100Y0079600D01*
X0138100Y0084000D01*
X0134100Y0088000D01*
X0131500Y0088000D01*
X0128900Y0085400D01*
X0128900Y0073600D01*
X0128450Y0073150D01*
X0126875Y0071575D01*
X0126003Y0071575D01*
X0126003Y0073150D02*
X0128450Y0073150D01*
X0130900Y0072000D02*
X0128900Y0070000D01*
X0127325Y0068425D01*
X0126003Y0068425D01*
X0126003Y0066851D02*
X0124050Y0066851D01*
X0122700Y0065500D01*
X0122700Y0062500D01*
X0129200Y0056000D01*
X0132200Y0056000D01*
X0139700Y0063500D01*
X0139700Y0065500D01*
X0138350Y0066851D01*
X0136397Y0066851D01*
X0136397Y0066425D02*
X0136397Y0065057D01*
X0136397Y0066425D01*
X0136397Y0066425D01*
X0136397Y0065896D02*
X0136397Y0065896D01*
X0136397Y0065098D02*
X0136397Y0065098D01*
X0133817Y0065098D02*
X0128583Y0065098D01*
X0129540Y0065896D02*
X0132860Y0065896D01*
X0132753Y0066695D02*
X0129647Y0066695D01*
X0129647Y0066851D02*
X0129329Y0066851D01*
X0129647Y0066851D01*
X0129329Y0066851D02*
X0129329Y0066851D01*
X0129847Y0067493D02*
X0132553Y0067493D01*
X0132553Y0068292D02*
X0130020Y0068292D01*
X0130818Y0069090D02*
X0132553Y0069090D01*
X0132553Y0069889D02*
X0131617Y0069889D01*
X0132415Y0070687D02*
X0132553Y0070687D01*
X0130900Y0072000D02*
X0130900Y0082800D01*
X0131700Y0083600D01*
X0137128Y0089053D02*
X0156324Y0089053D01*
X0152100Y0079471D02*
X0146658Y0079471D01*
X0147456Y0078672D02*
X0152100Y0078672D01*
X0152100Y0077874D02*
X0148255Y0077874D01*
X0149053Y0077075D02*
X0152100Y0077075D01*
X0152100Y0076277D02*
X0149852Y0076277D01*
X0150500Y0075478D02*
X0152100Y0075478D01*
X0152100Y0074680D02*
X0150500Y0074680D01*
X0150500Y0073881D02*
X0152100Y0073881D01*
X0152100Y0073083D02*
X0150500Y0073083D01*
X0150942Y0072284D02*
X0152100Y0072284D01*
X0152100Y0071486D02*
X0151431Y0071486D01*
X0151700Y0070687D02*
X0152100Y0070687D01*
X0152100Y0069889D02*
X0151700Y0069889D01*
X0151504Y0069090D02*
X0152582Y0069090D01*
X0153380Y0068292D02*
X0151117Y0068292D01*
X0150318Y0067493D02*
X0154179Y0067493D01*
X0154352Y0066695D02*
X0147623Y0066695D01*
X0147121Y0065896D02*
X0154122Y0065896D01*
X0153508Y0065098D02*
X0146054Y0065098D01*
X0145900Y0064299D02*
X0153177Y0064299D01*
X0153152Y0063501D02*
X0145900Y0063501D01*
X0145626Y0062702D02*
X0153260Y0062702D01*
X0153591Y0061903D02*
X0145129Y0061903D01*
X0144072Y0061105D02*
X0154321Y0061105D01*
X0154352Y0060306D02*
X0121271Y0060306D01*
X0121245Y0059508D02*
X0154352Y0059508D01*
X0154352Y0058709D02*
X0121219Y0058709D01*
X0121193Y0057911D02*
X0154352Y0057911D01*
X0154352Y0057112D02*
X0121224Y0057112D01*
X0121334Y0056314D02*
X0154352Y0056314D01*
X0154352Y0055515D02*
X0121443Y0055515D01*
X0121553Y0054717D02*
X0154352Y0054717D01*
X0142700Y0064000D02*
X0142700Y0066000D01*
X0140275Y0068425D01*
X0136397Y0068425D01*
X0136397Y0070000D02*
X0142700Y0070000D01*
X0144700Y0068000D01*
X0148500Y0070200D02*
X0148500Y0074800D01*
X0145100Y0078200D01*
X0139500Y0078200D01*
X0140700Y0075000D02*
X0138850Y0073150D01*
X0136397Y0073150D01*
X0136397Y0071575D02*
X0143275Y0071575D01*
X0144700Y0073000D01*
X0139976Y0065896D02*
X0139934Y0065896D01*
X0139691Y0065098D02*
X0138977Y0065098D01*
X0139500Y0064299D02*
X0121399Y0064299D01*
X0121374Y0063501D02*
X0139500Y0063501D01*
X0139774Y0062702D02*
X0121348Y0062702D01*
X0121322Y0061903D02*
X0140271Y0061903D01*
X0141328Y0061105D02*
X0121296Y0061105D01*
X0121425Y0065098D02*
X0123423Y0065098D01*
X0122466Y0065896D02*
X0121525Y0065896D01*
X0121688Y0066695D02*
X0122359Y0066695D01*
X0122159Y0067493D02*
X0121851Y0067493D01*
X0122013Y0068292D02*
X0122159Y0068292D01*
X0126003Y0070000D02*
X0128900Y0070000D01*
X0126003Y0065896D02*
X0126003Y0065896D01*
X0126003Y0065098D02*
X0126003Y0065098D01*
X0124710Y0042739D02*
X0193436Y0042739D01*
X0192842Y0043538D02*
X0192763Y0043538D01*
X0194724Y0041941D02*
X0124977Y0041941D01*
X0190700Y0046000D02*
X0193125Y0048425D01*
X0201003Y0048425D01*
X0201003Y0046851D02*
X0197550Y0046851D01*
X0195700Y0045000D01*
X0190700Y0050000D02*
X0201003Y0050000D01*
X0201003Y0051575D02*
X0194125Y0051575D01*
X0191700Y0054000D01*
D200*
X0191700Y0054000D03*
X0190700Y0050000D03*
X0185700Y0050000D03*
X0190700Y0046000D03*
X0195700Y0045000D03*
X0203300Y0038800D03*
X0208500Y0038800D03*
X0190700Y0037000D03*
X0190700Y0026000D03*
X0172700Y0028500D03*
X0158700Y0034500D03*
X0156300Y0046600D03*
X0146200Y0050000D03*
X0142700Y0064000D03*
X0144700Y0068000D03*
X0148500Y0070200D03*
X0144700Y0073000D03*
X0140700Y0075000D03*
X0131700Y0083600D03*
X0134100Y0088000D03*
X0158300Y0077600D03*
X0171700Y0069000D03*
X0185700Y0069000D03*
X0195500Y0079800D03*
X0207900Y0064200D03*
X0211700Y0061600D03*
X0214700Y0058000D03*
X0195700Y0056000D03*
X0171700Y0050000D03*
X0156352Y0063600D03*
X0129200Y0056000D03*
X0130200Y0037000D03*
X0149700Y0022000D03*
X0222700Y0097000D02*
G75*
%LPD*%
D208*
X0319598Y0127549D03*
X0319598Y0125975D03*
X0319598Y0124400D03*
X0319598Y0122825D03*
X0319598Y0121250D03*
X0309204Y0121250D03*
X0309204Y0122825D03*
X0309204Y0124400D03*
X0309204Y0125975D03*
X0309204Y0127549D03*
X0244598Y0141250D03*
X0244598Y0142825D03*
X0244598Y0144400D03*
X0244598Y0145975D03*
X0244598Y0147549D03*
X0234204Y0147549D03*
X0234204Y0145975D03*
X0234204Y0144400D03*
X0234204Y0142825D03*
X0234204Y0141250D03*
D135*
X0244976Y0169228D02*
X0308825Y0169228D01*
X0308018Y0170027D02*
X0245784Y0170027D01*
X0246343Y0170579D02*
X0252328Y0174885D01*
X0258909Y0178208D01*
X0265928Y0180468D01*
X0273212Y0181609D01*
X0276899Y0181750D01*
X0276903Y0181750D01*
X0280589Y0181609D01*
X0287874Y0180468D01*
X0294892Y0178208D01*
X0301474Y0174885D01*
X0307459Y0170579D01*
X0312701Y0165395D01*
X0317074Y0159459D01*
X0320471Y0152915D01*
X0322809Y0145922D01*
X0323562Y0142311D01*
X0323563Y0142305D01*
X0323565Y0142297D01*
X0323972Y0139408D01*
X0324242Y0133579D01*
X0323782Y0127762D01*
X0323442Y0125810D01*
X0323442Y0127031D01*
X0323242Y0127231D01*
X0323242Y0127549D01*
X0322923Y0127549D01*
X0322923Y0127549D01*
X0323242Y0127549D01*
X0323242Y0128127D01*
X0323146Y0128483D01*
X0322962Y0128803D01*
X0322701Y0129063D01*
X0322382Y0129248D01*
X0322026Y0129343D01*
X0319598Y0129343D01*
X0319598Y0127975D01*
X0319598Y0127975D01*
X0319598Y0129343D01*
X0317169Y0129343D01*
X0316813Y0129248D01*
X0316494Y0129063D01*
X0316233Y0128803D01*
X0316049Y0128483D01*
X0315953Y0128127D01*
X0315954Y0127549D01*
X0315953Y0127549D02*
X0315953Y0127231D01*
X0315753Y0127031D01*
X0315753Y0126281D01*
X0314701Y0125228D01*
X0313048Y0123575D01*
X0313048Y0124918D01*
X0313048Y0127031D01*
X0312848Y0127231D01*
X0312848Y0127549D01*
X0312530Y0127549D01*
X0312530Y0127549D01*
X0312848Y0127549D01*
X0312848Y0128127D01*
X0312753Y0128483D01*
X0312568Y0128803D01*
X0312308Y0129063D01*
X0311988Y0129248D01*
X0311632Y0129343D01*
X0309204Y0129343D01*
X0309204Y0127975D01*
X0309204Y0127975D01*
X0309204Y0129343D01*
X0306775Y0129343D01*
X0306419Y0129248D01*
X0306100Y0129063D01*
X0305840Y0128803D01*
X0305655Y0128483D01*
X0305653Y0128476D01*
X0305578Y0128551D01*
X0305614Y0128587D01*
X0306101Y0129763D01*
X0306101Y0131036D01*
X0305614Y0132212D01*
X0304713Y0133113D01*
X0303537Y0133600D01*
X0302264Y0133600D01*
X0301088Y0133113D01*
X0300188Y0132212D01*
X0299701Y0131036D01*
X0299701Y0129763D01*
X0299841Y0129424D01*
X0299088Y0129113D01*
X0298188Y0128212D01*
X0297835Y0127359D01*
X0297737Y0127400D01*
X0296464Y0127400D01*
X0295288Y0126913D01*
X0294388Y0126012D01*
X0293901Y0124836D01*
X0293901Y0123563D01*
X0294388Y0122387D01*
X0295101Y0121674D01*
X0295101Y0118771D01*
X0298501Y0115371D01*
X0299672Y0114200D01*
X0305272Y0114200D01*
X0305501Y0113971D01*
X0305501Y0109571D01*
X0306672Y0108400D01*
X0308301Y0106771D01*
X0308301Y0105763D01*
X0308788Y0104587D01*
X0308825Y0104550D01*
X0288479Y0104550D01*
X0289501Y0105571D01*
X0293501Y0109571D01*
X0293501Y0124828D01*
X0292329Y0126000D01*
X0291249Y0127080D01*
X0291249Y0128274D01*
X0291962Y0128987D01*
X0292449Y0130163D01*
X0292449Y0131436D01*
X0291962Y0132612D01*
X0291249Y0133325D01*
X0291249Y0145223D01*
X0292014Y0145987D01*
X0292501Y0147163D01*
X0292501Y0148436D01*
X0292014Y0149612D01*
X0291113Y0150513D01*
X0289937Y0151000D01*
X0288664Y0151000D01*
X0287488Y0150513D01*
X0286588Y0149612D01*
X0286101Y0148436D01*
X0286101Y0147163D01*
X0286588Y0145987D01*
X0287249Y0145326D01*
X0287249Y0133325D01*
X0286536Y0132612D01*
X0286049Y0131436D01*
X0286049Y0130163D01*
X0286536Y0128987D01*
X0287249Y0128274D01*
X0287249Y0125423D01*
X0288421Y0124251D01*
X0289501Y0123171D01*
X0289501Y0111228D01*
X0286672Y0108400D01*
X0259129Y0108400D01*
X0253301Y0114228D01*
X0253301Y0115236D01*
X0252814Y0116412D01*
X0251913Y0117313D01*
X0251901Y0117318D01*
X0251901Y0135874D01*
X0252614Y0136587D01*
X0252925Y0137340D01*
X0253264Y0137200D01*
X0254537Y0137200D01*
X0255713Y0137687D01*
X0256614Y0138587D01*
X0257101Y0139763D01*
X0257101Y0141036D01*
X0256797Y0141770D01*
X0257614Y0142587D01*
X0258101Y0143763D01*
X0258101Y0145036D01*
X0257614Y0146212D01*
X0257426Y0146400D01*
X0257614Y0146587D01*
X0258101Y0147763D01*
X0258101Y0149036D01*
X0257614Y0150212D01*
X0256713Y0151113D01*
X0255537Y0151600D01*
X0254264Y0151600D01*
X0253088Y0151113D01*
X0252782Y0150806D01*
X0252614Y0151212D01*
X0251713Y0152113D01*
X0250537Y0152600D01*
X0249264Y0152600D01*
X0248088Y0152113D01*
X0247188Y0151212D01*
X0246701Y0150036D01*
X0246701Y0149549D01*
X0243769Y0149549D01*
X0243763Y0149543D01*
X0241691Y0149543D01*
X0241301Y0149153D01*
X0241301Y0151609D01*
X0242042Y0152400D01*
X0242937Y0152400D01*
X0244113Y0152887D01*
X0245014Y0153787D01*
X0245501Y0154963D01*
X0245501Y0156236D01*
X0245014Y0157412D01*
X0244113Y0158313D01*
X0242937Y0158800D01*
X0241664Y0158800D01*
X0240488Y0158313D01*
X0239701Y0157525D01*
X0238913Y0158313D01*
X0237737Y0158800D01*
X0236464Y0158800D01*
X0236363Y0158758D01*
X0236727Y0159459D01*
X0241100Y0165395D01*
X0246343Y0170579D01*
X0246685Y0170825D02*
X0307117Y0170825D01*
X0306007Y0171624D02*
X0247794Y0171624D01*
X0248904Y0172422D02*
X0304897Y0172422D01*
X0303787Y0173221D02*
X0250014Y0173221D01*
X0251124Y0174019D02*
X0302678Y0174019D01*
X0301568Y0174818D02*
X0252234Y0174818D01*
X0253775Y0175616D02*
X0300026Y0175616D01*
X0298445Y0176415D02*
X0255357Y0176415D01*
X0256938Y0177213D02*
X0296863Y0177213D01*
X0295282Y0178012D02*
X0258520Y0178012D01*
X0260779Y0178810D02*
X0293023Y0178810D01*
X0290542Y0179609D02*
X0263259Y0179609D01*
X0265739Y0180407D02*
X0288062Y0180407D01*
X0283162Y0181206D02*
X0270639Y0181206D01*
X0244169Y0168430D02*
X0309633Y0168430D01*
X0310440Y0167631D02*
X0243361Y0167631D01*
X0242554Y0166832D02*
X0311248Y0166832D01*
X0312055Y0166034D02*
X0241746Y0166034D01*
X0240983Y0165235D02*
X0312819Y0165235D01*
X0313407Y0164437D02*
X0240394Y0164437D01*
X0239806Y0163638D02*
X0313995Y0163638D01*
X0314584Y0162840D02*
X0239218Y0162840D01*
X0238630Y0162041D02*
X0315172Y0162041D01*
X0315760Y0161243D02*
X0238041Y0161243D01*
X0237453Y0160444D02*
X0316348Y0160444D01*
X0316936Y0159646D02*
X0236865Y0159646D01*
X0236410Y0158847D02*
X0317392Y0158847D01*
X0317806Y0158049D02*
X0244377Y0158049D01*
X0245081Y0157250D02*
X0318221Y0157250D01*
X0318635Y0156452D02*
X0245411Y0156452D01*
X0245501Y0155653D02*
X0319050Y0155653D01*
X0319464Y0154855D02*
X0245456Y0154855D01*
X0245125Y0154056D02*
X0319879Y0154056D01*
X0320293Y0153258D02*
X0244484Y0153258D01*
X0243081Y0152459D02*
X0248925Y0152459D01*
X0247636Y0151661D02*
X0241349Y0151661D01*
X0241301Y0150862D02*
X0247043Y0150862D01*
X0246712Y0150064D02*
X0241301Y0150064D01*
X0241301Y0149265D02*
X0241413Y0149265D01*
X0239301Y0147200D02*
X0239301Y0152400D01*
X0242301Y0155600D01*
X0240224Y0158049D02*
X0239177Y0158049D01*
X0237101Y0155600D02*
X0237101Y0148200D01*
X0236450Y0147549D01*
X0234204Y0147549D01*
X0234204Y0145975D02*
X0238076Y0145975D01*
X0239301Y0147200D01*
X0237301Y0144400D02*
X0239101Y0142600D01*
X0239101Y0131600D01*
X0237701Y0130200D01*
X0233901Y0132800D02*
X0237501Y0136400D01*
X0237501Y0142200D01*
X0236876Y0142825D01*
X0234204Y0142825D01*
X0234204Y0144400D02*
X0237301Y0144400D01*
X0234204Y0141250D02*
X0231751Y0141250D01*
X0230301Y0139800D01*
X0230301Y0137000D01*
X0230901Y0136400D01*
X0244598Y0141250D02*
X0247050Y0141250D01*
X0249901Y0138400D01*
X0249901Y0114800D01*
X0250101Y0114600D01*
X0258301Y0106400D01*
X0287501Y0106400D01*
X0291501Y0110400D01*
X0291501Y0124000D01*
X0289249Y0126251D01*
X0289249Y0130800D01*
X0289249Y0131200D01*
X0289249Y0147748D01*
X0289301Y0147800D01*
X0292157Y0149265D02*
X0321691Y0149265D01*
X0321958Y0148467D02*
X0292488Y0148467D01*
X0292501Y0147668D02*
X0322225Y0147668D01*
X0322492Y0146870D02*
X0301456Y0146870D01*
X0301213Y0147113D02*
X0300037Y0147600D01*
X0298764Y0147600D01*
X0297588Y0147113D01*
X0296688Y0146212D01*
X0296201Y0145036D01*
X0296201Y0143763D01*
X0296688Y0142587D01*
X0297588Y0141687D01*
X0298764Y0141200D01*
X0300037Y0141200D01*
X0301213Y0141687D01*
X0302114Y0142587D01*
X0302601Y0143763D01*
X0302601Y0145036D01*
X0302114Y0146212D01*
X0301213Y0147113D01*
X0302172Y0146071D02*
X0322759Y0146071D01*
X0322945Y0145273D02*
X0302503Y0145273D01*
X0302601Y0144474D02*
X0323111Y0144474D01*
X0323278Y0143676D02*
X0302564Y0143676D01*
X0302234Y0142877D02*
X0323444Y0142877D01*
X0323595Y0142079D02*
X0301605Y0142079D01*
X0300231Y0141280D02*
X0323708Y0141280D01*
X0323821Y0140482D02*
X0291249Y0140482D01*
X0291249Y0141280D02*
X0298570Y0141280D01*
X0297196Y0142079D02*
X0291249Y0142079D01*
X0291249Y0142877D02*
X0296568Y0142877D01*
X0296237Y0143676D02*
X0291249Y0143676D01*
X0291249Y0144474D02*
X0296201Y0144474D01*
X0296299Y0145273D02*
X0291299Y0145273D01*
X0292048Y0146071D02*
X0296629Y0146071D01*
X0297345Y0146870D02*
X0292379Y0146870D01*
X0291562Y0150064D02*
X0321424Y0150064D01*
X0321157Y0150862D02*
X0290269Y0150862D01*
X0288332Y0150862D02*
X0256964Y0150862D01*
X0257675Y0150064D02*
X0287039Y0150064D01*
X0286444Y0149265D02*
X0258006Y0149265D01*
X0258101Y0148467D02*
X0286113Y0148467D01*
X0286101Y0147668D02*
X0258061Y0147668D01*
X0257731Y0146870D02*
X0286222Y0146870D01*
X0286553Y0146071D02*
X0257672Y0146071D01*
X0258003Y0145273D02*
X0287249Y0145273D01*
X0287249Y0144474D02*
X0258101Y0144474D01*
X0258064Y0143676D02*
X0287249Y0143676D01*
X0287249Y0142877D02*
X0257734Y0142877D01*
X0257105Y0142079D02*
X0287249Y0142079D01*
X0287249Y0141280D02*
X0257000Y0141280D01*
X0257101Y0140482D02*
X0287249Y0140482D01*
X0287249Y0139683D02*
X0257068Y0139683D01*
X0256737Y0138885D02*
X0287249Y0138885D01*
X0287249Y0138086D02*
X0256113Y0138086D01*
X0254749Y0137288D02*
X0287249Y0137288D01*
X0287249Y0136489D02*
X0252516Y0136489D01*
X0252904Y0137288D02*
X0253052Y0137288D01*
X0251901Y0135691D02*
X0287249Y0135691D01*
X0287249Y0134892D02*
X0251901Y0134892D01*
X0251901Y0134094D02*
X0287249Y0134094D01*
X0287219Y0133295D02*
X0251901Y0133295D01*
X0251901Y0132497D02*
X0286488Y0132497D01*
X0286158Y0131698D02*
X0251901Y0131698D01*
X0251901Y0130899D02*
X0286049Y0130899D01*
X0286075Y0130101D02*
X0251901Y0130101D01*
X0251901Y0129302D02*
X0286406Y0129302D01*
X0287020Y0128504D02*
X0251901Y0128504D01*
X0251901Y0127705D02*
X0287249Y0127705D01*
X0287249Y0126907D02*
X0251901Y0126907D01*
X0251901Y0126108D02*
X0287249Y0126108D01*
X0287362Y0125310D02*
X0251901Y0125310D01*
X0251901Y0124511D02*
X0288161Y0124511D01*
X0288421Y0124251D02*
X0288421Y0124251D01*
X0288959Y0123713D02*
X0251901Y0123713D01*
X0251901Y0122914D02*
X0289501Y0122914D01*
X0289501Y0122116D02*
X0251901Y0122116D01*
X0251901Y0121317D02*
X0289501Y0121317D01*
X0289501Y0120519D02*
X0251901Y0120519D01*
X0251901Y0119720D02*
X0289501Y0119720D01*
X0289501Y0118922D02*
X0251901Y0118922D01*
X0251901Y0118123D02*
X0289501Y0118123D01*
X0289501Y0117325D02*
X0251901Y0117325D01*
X0252700Y0116526D02*
X0289501Y0116526D01*
X0289501Y0115728D02*
X0253097Y0115728D01*
X0253301Y0114929D02*
X0289501Y0114929D01*
X0289501Y0114131D02*
X0253398Y0114131D01*
X0254197Y0113332D02*
X0289501Y0113332D01*
X0289501Y0112534D02*
X0254995Y0112534D01*
X0255794Y0111735D02*
X0289501Y0111735D01*
X0289209Y0110937D02*
X0256592Y0110937D01*
X0257391Y0110138D02*
X0288411Y0110138D01*
X0287612Y0109340D02*
X0258189Y0109340D01*
X0258988Y0108541D02*
X0286814Y0108541D01*
X0290075Y0106146D02*
X0308301Y0106146D01*
X0308128Y0106944D02*
X0290874Y0106944D01*
X0291672Y0107743D02*
X0307329Y0107743D01*
X0306672Y0108400D02*
X0306672Y0108400D01*
X0306531Y0108541D02*
X0292471Y0108541D01*
X0293269Y0109340D02*
X0305732Y0109340D01*
X0305501Y0110138D02*
X0293501Y0110138D01*
X0293501Y0110937D02*
X0305501Y0110937D01*
X0305501Y0111735D02*
X0293501Y0111735D01*
X0293501Y0112534D02*
X0305501Y0112534D01*
X0305501Y0113332D02*
X0293501Y0113332D01*
X0293501Y0114131D02*
X0305341Y0114131D01*
X0306101Y0116200D02*
X0307501Y0114800D01*
X0307501Y0110400D01*
X0311501Y0106400D01*
X0314101Y0106400D01*
X0316701Y0109000D01*
X0316701Y0120800D01*
X0317151Y0121250D01*
X0318726Y0122825D01*
X0319598Y0122825D01*
X0319598Y0121250D02*
X0317151Y0121250D01*
X0314701Y0122400D02*
X0316701Y0124400D01*
X0318276Y0125975D01*
X0319598Y0125975D01*
X0319598Y0127549D02*
X0321550Y0127549D01*
X0322901Y0128900D01*
X0322901Y0131900D01*
X0316401Y0138400D01*
X0313401Y0138400D01*
X0305901Y0130900D01*
X0305901Y0128900D01*
X0307251Y0127549D01*
X0309204Y0127549D01*
X0309204Y0128504D02*
X0309204Y0128504D01*
X0309204Y0129302D02*
X0309204Y0129302D01*
X0306624Y0129302D02*
X0305910Y0129302D01*
X0306101Y0130101D02*
X0323967Y0130101D01*
X0324030Y0130899D02*
X0306101Y0130899D01*
X0305827Y0131698D02*
X0324093Y0131698D01*
X0324156Y0132497D02*
X0305329Y0132497D01*
X0304273Y0133295D02*
X0324219Y0133295D01*
X0324218Y0134094D02*
X0291249Y0134094D01*
X0291249Y0134892D02*
X0324181Y0134892D01*
X0324144Y0135691D02*
X0291249Y0135691D01*
X0291249Y0136489D02*
X0324107Y0136489D01*
X0324070Y0137288D02*
X0291249Y0137288D01*
X0291249Y0138086D02*
X0324033Y0138086D01*
X0323996Y0138885D02*
X0291249Y0138885D01*
X0291249Y0139683D02*
X0323933Y0139683D01*
X0323904Y0129302D02*
X0322177Y0129302D01*
X0323134Y0128504D02*
X0323841Y0128504D01*
X0323772Y0127705D02*
X0323242Y0127705D01*
X0323442Y0126907D02*
X0323633Y0126907D01*
X0323494Y0126108D02*
X0323442Y0126108D01*
X0319598Y0124400D02*
X0316701Y0124400D01*
X0314782Y0125310D02*
X0313048Y0125310D01*
X0313048Y0126108D02*
X0315581Y0126108D01*
X0315753Y0126907D02*
X0313048Y0126907D01*
X0312848Y0127705D02*
X0315953Y0127705D01*
X0315954Y0127549D02*
X0316272Y0127549D01*
X0315953Y0127549D01*
X0316272Y0127549D02*
X0316272Y0127549D01*
X0316061Y0128504D02*
X0312741Y0128504D01*
X0311784Y0129302D02*
X0317018Y0129302D01*
X0319598Y0129302D02*
X0319598Y0129302D01*
X0319598Y0128504D02*
X0319598Y0128504D01*
X0314701Y0125228D02*
X0314701Y0125228D01*
X0313984Y0124511D02*
X0313048Y0124511D01*
X0313048Y0123713D02*
X0313185Y0123713D01*
X0314701Y0122400D02*
X0314701Y0111600D01*
X0313901Y0110800D01*
X0308473Y0105347D02*
X0289277Y0105347D01*
X0293501Y0114929D02*
X0298943Y0114929D01*
X0298144Y0115728D02*
X0293501Y0115728D01*
X0293501Y0116526D02*
X0297346Y0116526D01*
X0296547Y0117325D02*
X0293501Y0117325D01*
X0293501Y0118123D02*
X0295749Y0118123D01*
X0295101Y0118922D02*
X0293501Y0118922D01*
X0293501Y0119720D02*
X0295101Y0119720D01*
X0295101Y0120519D02*
X0293501Y0120519D01*
X0293501Y0121317D02*
X0295101Y0121317D01*
X0294659Y0122116D02*
X0293501Y0122116D01*
X0293501Y0122914D02*
X0294170Y0122914D01*
X0293901Y0123713D02*
X0293501Y0123713D01*
X0293501Y0124511D02*
X0293901Y0124511D01*
X0294097Y0125310D02*
X0293019Y0125310D01*
X0292329Y0126000D02*
X0292329Y0126000D01*
X0292220Y0126108D02*
X0294484Y0126108D01*
X0295282Y0126907D02*
X0291422Y0126907D01*
X0291249Y0127705D02*
X0297978Y0127705D01*
X0298479Y0128504D02*
X0291479Y0128504D01*
X0292093Y0129302D02*
X0299547Y0129302D01*
X0299701Y0130101D02*
X0292423Y0130101D01*
X0292449Y0130899D02*
X0299701Y0130899D01*
X0299975Y0131698D02*
X0292341Y0131698D01*
X0292010Y0132497D02*
X0300472Y0132497D01*
X0301529Y0133295D02*
X0291279Y0133295D01*
X0300901Y0126400D02*
X0302901Y0124400D01*
X0309204Y0124400D01*
X0309204Y0125975D02*
X0305326Y0125975D01*
X0302901Y0128400D01*
X0302901Y0130400D01*
X0305625Y0128504D02*
X0305667Y0128504D01*
X0302326Y0122825D02*
X0309204Y0122825D01*
X0309204Y0121250D02*
X0306751Y0121250D01*
X0304901Y0119400D01*
X0302326Y0122825D02*
X0300901Y0121400D01*
X0297101Y0119600D02*
X0297101Y0124200D01*
X0297101Y0119600D02*
X0300501Y0116200D01*
X0306101Y0116200D01*
X0320890Y0151661D02*
X0252165Y0151661D01*
X0252759Y0150862D02*
X0252838Y0150862D01*
X0250876Y0152459D02*
X0320623Y0152459D01*
X0254901Y0148400D02*
X0252476Y0145975D01*
X0244598Y0145975D01*
X0244598Y0147549D02*
X0248050Y0147549D01*
X0249901Y0149400D01*
X0254901Y0144400D02*
X0244598Y0144400D01*
X0244598Y0142825D02*
X0251476Y0142825D01*
X0253901Y0140400D01*
D200*
X0253901Y0140400D03*
X0254901Y0144400D03*
X0259901Y0144400D03*
X0254901Y0148400D03*
X0249901Y0149400D03*
X0242301Y0155600D03*
X0237101Y0155600D03*
X0254901Y0157400D03*
X0254901Y0168400D03*
X0272901Y0165900D03*
X0286901Y0159900D03*
X0289301Y0147800D03*
X0299401Y0144400D03*
X0302901Y0130400D03*
X0300901Y0126400D03*
X0297101Y0124200D03*
X0300901Y0121400D03*
X0304901Y0119400D03*
X0313901Y0110800D03*
X0311501Y0106400D03*
X0287301Y0116800D03*
X0273901Y0125400D03*
X0259901Y0125400D03*
X0250101Y0114600D03*
X0237701Y0130200D03*
X0233901Y0132800D03*
X0230901Y0136400D03*
X0249901Y0138400D03*
X0273901Y0144400D03*
X0289249Y0130800D03*
X0316401Y0138400D03*
X0315401Y0157400D03*
X0295901Y0172400D03*
X0010200Y0097000D02*
G75*
%LPD*%
D208*
X0102893Y0127549D03*
X0102893Y0125975D03*
X0102893Y0124400D03*
X0102893Y0122825D03*
X0102893Y0121250D03*
X0092499Y0121250D03*
X0092499Y0122825D03*
X0092499Y0124400D03*
X0092499Y0125975D03*
X0092499Y0127549D03*
X0027893Y0141250D03*
X0027893Y0142825D03*
X0027893Y0144400D03*
X0027893Y0145975D03*
X0027893Y0147549D03*
X0017499Y0147549D03*
X0017499Y0145975D03*
X0017499Y0144400D03*
X0017499Y0142825D03*
X0017499Y0141250D03*
D135*
X0026657Y0167631D02*
X0093735Y0167631D01*
X0092928Y0168430D02*
X0027464Y0168430D01*
X0028272Y0169228D02*
X0092120Y0169228D01*
X0091313Y0170027D02*
X0029079Y0170027D01*
X0029638Y0170579D02*
X0035623Y0174885D01*
X0042205Y0178208D01*
X0049223Y0180468D01*
X0056507Y0181609D01*
X0060194Y0181750D01*
X0060198Y0181750D01*
X0063885Y0181609D01*
X0071169Y0180468D01*
X0078187Y0178208D01*
X0084769Y0174885D01*
X0090754Y0170579D01*
X0095997Y0165395D01*
X0100370Y0159459D01*
X0103766Y0152915D01*
X0106105Y0145922D01*
X0106778Y0142691D01*
X0106771Y0142646D01*
X0106873Y0142221D01*
X0106945Y0141791D01*
X0106995Y0141711D01*
X0107158Y0141029D01*
X0107718Y0136956D01*
X0107459Y0128940D01*
X0106791Y0125660D01*
X0106740Y0125481D01*
X0106737Y0125477D01*
X0106737Y0127031D01*
X0106537Y0127231D01*
X0106537Y0127549D01*
X0106219Y0127549D01*
X0106219Y0127549D01*
X0106537Y0127549D01*
X0106537Y0128127D01*
X0106442Y0128483D01*
X0106257Y0128803D01*
X0105997Y0129063D01*
X0105677Y0129248D01*
X0105321Y0129343D01*
X0102893Y0129343D01*
X0102893Y0127975D01*
X0102893Y0127975D01*
X0102893Y0129343D01*
X0100464Y0129343D01*
X0100108Y0129248D01*
X0099789Y0129063D01*
X0099528Y0128803D01*
X0099344Y0128483D01*
X0099249Y0128127D01*
X0099249Y0127549D01*
X0099249Y0127231D01*
X0099049Y0127031D01*
X0099049Y0126281D01*
X0097996Y0125228D01*
X0096343Y0123575D01*
X0096343Y0124918D01*
X0096343Y0127031D01*
X0096143Y0127231D01*
X0096143Y0127549D01*
X0095825Y0127549D01*
X0095825Y0127549D01*
X0096143Y0127549D01*
X0096143Y0128127D01*
X0096048Y0128483D01*
X0095864Y0128803D01*
X0095603Y0129063D01*
X0095284Y0129248D01*
X0094928Y0129343D01*
X0092499Y0129343D01*
X0090071Y0129343D01*
X0089715Y0129248D01*
X0089395Y0129063D01*
X0089135Y0128803D01*
X0088950Y0128483D01*
X0088948Y0128476D01*
X0088873Y0128551D01*
X0088909Y0128587D01*
X0089396Y0129763D01*
X0089396Y0131036D01*
X0088909Y0132212D01*
X0088009Y0133113D01*
X0086833Y0133600D01*
X0085559Y0133600D01*
X0084383Y0133113D01*
X0083483Y0132212D01*
X0082996Y0131036D01*
X0082996Y0129763D01*
X0083136Y0129424D01*
X0082383Y0129113D01*
X0081483Y0128212D01*
X0081130Y0127359D01*
X0081033Y0127400D01*
X0079759Y0127400D01*
X0078583Y0126913D01*
X0077683Y0126012D01*
X0077196Y0124836D01*
X0077196Y0123563D01*
X0077683Y0122387D01*
X0078396Y0121674D01*
X0078396Y0118771D01*
X0081796Y0115371D01*
X0082968Y0114200D01*
X0088568Y0114200D01*
X0088796Y0113971D01*
X0088796Y0109571D01*
X0089968Y0108400D01*
X0091596Y0106771D01*
X0091596Y0105763D01*
X0092083Y0104587D01*
X0092121Y0104550D01*
X0071774Y0104550D01*
X0072796Y0105571D01*
X0076796Y0109571D01*
X0076796Y0124828D01*
X0075624Y0126000D01*
X0074544Y0127080D01*
X0074544Y0128274D01*
X0075257Y0128987D01*
X0075744Y0130163D01*
X0075744Y0131436D01*
X0075257Y0132612D01*
X0074544Y0133325D01*
X0074544Y0145223D01*
X0075309Y0145987D01*
X0075796Y0147163D01*
X0075796Y0148436D01*
X0075309Y0149612D01*
X0074409Y0150513D01*
X0073233Y0151000D01*
X0071959Y0151000D01*
X0070783Y0150513D01*
X0069883Y0149612D01*
X0069396Y0148436D01*
X0069396Y0147163D01*
X0069883Y0145987D01*
X0070544Y0145326D01*
X0070544Y0133325D01*
X0069832Y0132612D01*
X0069344Y0131436D01*
X0069344Y0130163D01*
X0069832Y0128987D01*
X0070544Y0128274D01*
X0070544Y0125423D01*
X0071716Y0124251D01*
X0072796Y0123171D01*
X0072796Y0111228D01*
X0069968Y0108400D01*
X0042424Y0108400D01*
X0036596Y0114228D01*
X0036596Y0115236D01*
X0036109Y0116412D01*
X0035209Y0117313D01*
X0035196Y0117318D01*
X0035196Y0135874D01*
X0035909Y0136587D01*
X0036221Y0137340D01*
X0036559Y0137200D01*
X0037833Y0137200D01*
X0039009Y0137687D01*
X0039909Y0138587D01*
X0040396Y0139763D01*
X0040396Y0141036D01*
X0040092Y0141770D01*
X0040909Y0142587D01*
X0041396Y0143763D01*
X0041396Y0145036D01*
X0040909Y0146212D01*
X0040721Y0146400D01*
X0040909Y0146587D01*
X0041396Y0147763D01*
X0041396Y0149036D01*
X0040909Y0150212D01*
X0040009Y0151113D01*
X0038833Y0151600D01*
X0037559Y0151600D01*
X0036383Y0151113D01*
X0036077Y0150806D01*
X0035909Y0151212D01*
X0035009Y0152113D01*
X0033833Y0152600D01*
X0032559Y0152600D01*
X0031383Y0152113D01*
X0030483Y0151212D01*
X0029996Y0150036D01*
X0029996Y0149549D01*
X0027064Y0149549D01*
X0027058Y0149543D01*
X0024986Y0149543D01*
X0024596Y0149153D01*
X0024596Y0151609D01*
X0025337Y0152400D01*
X0026233Y0152400D01*
X0027409Y0152887D01*
X0028309Y0153787D01*
X0028796Y0154963D01*
X0028796Y0156236D01*
X0028309Y0157412D01*
X0027409Y0158313D01*
X0026233Y0158800D01*
X0024959Y0158800D01*
X0023783Y0158313D01*
X0022996Y0157525D01*
X0022209Y0158313D01*
X0021033Y0158800D01*
X0019759Y0158800D01*
X0019659Y0158758D01*
X0020022Y0159459D01*
X0024395Y0165395D01*
X0029638Y0170579D01*
X0029980Y0170825D02*
X0090412Y0170825D01*
X0089302Y0171624D02*
X0031090Y0171624D01*
X0032200Y0172422D02*
X0088192Y0172422D01*
X0087083Y0173221D02*
X0033309Y0173221D01*
X0034419Y0174019D02*
X0085973Y0174019D01*
X0084863Y0174818D02*
X0035529Y0174818D01*
X0037071Y0175616D02*
X0083321Y0175616D01*
X0081740Y0176415D02*
X0038652Y0176415D01*
X0040234Y0177213D02*
X0080158Y0177213D01*
X0078577Y0178012D02*
X0041815Y0178012D01*
X0044074Y0178810D02*
X0076318Y0178810D01*
X0073838Y0179609D02*
X0046554Y0179609D01*
X0049035Y0180407D02*
X0071357Y0180407D01*
X0066457Y0181206D02*
X0053935Y0181206D01*
X0025849Y0166832D02*
X0094543Y0166832D01*
X0095350Y0166034D02*
X0025042Y0166034D01*
X0024278Y0165235D02*
X0096114Y0165235D01*
X0096702Y0164437D02*
X0023690Y0164437D01*
X0023101Y0163638D02*
X0097291Y0163638D01*
X0097879Y0162840D02*
X0022513Y0162840D01*
X0021925Y0162041D02*
X0098467Y0162041D01*
X0099055Y0161243D02*
X0021337Y0161243D01*
X0020749Y0160444D02*
X0099643Y0160444D01*
X0100232Y0159646D02*
X0020160Y0159646D01*
X0019705Y0158847D02*
X0100687Y0158847D01*
X0101101Y0158049D02*
X0027672Y0158049D01*
X0028376Y0157250D02*
X0101516Y0157250D01*
X0101930Y0156452D02*
X0028707Y0156452D01*
X0028796Y0155653D02*
X0102345Y0155653D01*
X0102759Y0154855D02*
X0028751Y0154855D01*
X0028420Y0154056D02*
X0103174Y0154056D01*
X0103588Y0153258D02*
X0027780Y0153258D01*
X0026376Y0152459D02*
X0032220Y0152459D01*
X0030932Y0151661D02*
X0024645Y0151661D01*
X0024596Y0150862D02*
X0030338Y0150862D01*
X0030007Y0150064D02*
X0024596Y0150064D01*
X0024596Y0149265D02*
X0024708Y0149265D01*
X0022596Y0147200D02*
X0022596Y0152400D01*
X0025596Y0155600D01*
X0023520Y0158049D02*
X0022472Y0158049D01*
X0020396Y0155600D02*
X0020396Y0148200D01*
X0019746Y0147549D01*
X0017499Y0147549D01*
X0017499Y0145975D02*
X0021371Y0145975D01*
X0022596Y0147200D01*
X0020596Y0144400D02*
X0022396Y0142600D01*
X0022396Y0131600D01*
X0020996Y0130200D01*
X0017196Y0132800D02*
X0020796Y0136400D01*
X0020796Y0142200D01*
X0020171Y0142825D01*
X0017499Y0142825D01*
X0017499Y0144400D02*
X0020596Y0144400D01*
X0017499Y0141250D02*
X0015046Y0141250D01*
X0013596Y0139800D01*
X0013596Y0137000D01*
X0014196Y0136400D01*
X0027893Y0141250D02*
X0030346Y0141250D01*
X0033196Y0138400D01*
X0033196Y0114800D01*
X0033396Y0114600D01*
X0041596Y0106400D01*
X0070796Y0106400D01*
X0074796Y0110400D01*
X0074796Y0124000D01*
X0072544Y0126251D01*
X0072544Y0130800D01*
X0072544Y0131200D01*
X0072544Y0147748D01*
X0072596Y0147800D01*
X0069739Y0149265D02*
X0041301Y0149265D01*
X0041396Y0148467D02*
X0069409Y0148467D01*
X0069396Y0147668D02*
X0041357Y0147668D01*
X0041026Y0146870D02*
X0069518Y0146870D01*
X0069848Y0146071D02*
X0040967Y0146071D01*
X0041298Y0145273D02*
X0070544Y0145273D01*
X0070544Y0144474D02*
X0041396Y0144474D01*
X0041360Y0143676D02*
X0070544Y0143676D01*
X0070544Y0142877D02*
X0041029Y0142877D01*
X0040400Y0142079D02*
X0070544Y0142079D01*
X0070544Y0141280D02*
X0040295Y0141280D01*
X0040396Y0140482D02*
X0070544Y0140482D01*
X0070544Y0139683D02*
X0040363Y0139683D01*
X0040032Y0138885D02*
X0070544Y0138885D01*
X0070544Y0138086D02*
X0039408Y0138086D01*
X0038045Y0137288D02*
X0070544Y0137288D01*
X0070544Y0136489D02*
X0035811Y0136489D01*
X0036199Y0137288D02*
X0036347Y0137288D01*
X0035196Y0135691D02*
X0070544Y0135691D01*
X0070544Y0134892D02*
X0035196Y0134892D01*
X0035196Y0134094D02*
X0070544Y0134094D01*
X0070514Y0133295D02*
X0035196Y0133295D01*
X0035196Y0132497D02*
X0069784Y0132497D01*
X0069453Y0131698D02*
X0035196Y0131698D01*
X0035196Y0130899D02*
X0069344Y0130899D01*
X0069370Y0130101D02*
X0035196Y0130101D01*
X0035196Y0129302D02*
X0069701Y0129302D01*
X0070315Y0128504D02*
X0035196Y0128504D01*
X0035196Y0127705D02*
X0070544Y0127705D01*
X0070544Y0126907D02*
X0035196Y0126907D01*
X0035196Y0126108D02*
X0070544Y0126108D01*
X0070657Y0125310D02*
X0035196Y0125310D01*
X0035196Y0124511D02*
X0071456Y0124511D01*
X0071716Y0124251D02*
X0071716Y0124251D01*
X0072254Y0123713D02*
X0035196Y0123713D01*
X0035196Y0122914D02*
X0072796Y0122914D01*
X0072796Y0122116D02*
X0035196Y0122116D01*
X0035196Y0121317D02*
X0072796Y0121317D01*
X0072796Y0120519D02*
X0035196Y0120519D01*
X0035196Y0119720D02*
X0072796Y0119720D01*
X0072796Y0118922D02*
X0035196Y0118922D01*
X0035196Y0118123D02*
X0072796Y0118123D01*
X0072796Y0117325D02*
X0035196Y0117325D01*
X0035995Y0116526D02*
X0072796Y0116526D01*
X0072796Y0115728D02*
X0036392Y0115728D01*
X0036596Y0114929D02*
X0072796Y0114929D01*
X0072796Y0114131D02*
X0036693Y0114131D01*
X0037492Y0113332D02*
X0072796Y0113332D01*
X0072796Y0112534D02*
X0038290Y0112534D01*
X0039089Y0111735D02*
X0072796Y0111735D01*
X0072505Y0110937D02*
X0039887Y0110937D01*
X0040686Y0110138D02*
X0071706Y0110138D01*
X0070908Y0109340D02*
X0041484Y0109340D01*
X0042283Y0108541D02*
X0070109Y0108541D01*
X0073370Y0106146D02*
X0091596Y0106146D01*
X0091423Y0106944D02*
X0074169Y0106944D01*
X0074967Y0107743D02*
X0090625Y0107743D01*
X0089968Y0108400D02*
X0089968Y0108400D01*
X0089826Y0108541D02*
X0075766Y0108541D01*
X0076564Y0109340D02*
X0089028Y0109340D01*
X0088796Y0110138D02*
X0076796Y0110138D01*
X0076796Y0110937D02*
X0088796Y0110937D01*
X0088796Y0111735D02*
X0076796Y0111735D01*
X0076796Y0112534D02*
X0088796Y0112534D01*
X0088796Y0113332D02*
X0076796Y0113332D01*
X0076796Y0114131D02*
X0088637Y0114131D01*
X0089396Y0116200D02*
X0090796Y0114800D01*
X0090796Y0110400D01*
X0094796Y0106400D01*
X0097396Y0106400D01*
X0099996Y0109000D01*
X0099996Y0120800D01*
X0100446Y0121250D01*
X0102021Y0122825D01*
X0102893Y0122825D01*
X0102893Y0121250D02*
X0100446Y0121250D01*
X0097996Y0122400D02*
X0099996Y0124400D01*
X0101571Y0125975D01*
X0102893Y0125975D01*
X0102893Y0127549D02*
X0104846Y0127549D01*
X0106196Y0128900D01*
X0106196Y0131900D01*
X0099696Y0138400D01*
X0096696Y0138400D01*
X0089196Y0130900D01*
X0089196Y0128900D01*
X0090546Y0127549D01*
X0092499Y0127549D01*
X0092499Y0127975D02*
X0092499Y0129343D01*
X0092499Y0127975D01*
X0092499Y0127975D01*
X0092499Y0128504D02*
X0092499Y0128504D01*
X0092499Y0129302D02*
X0092499Y0129302D01*
X0089919Y0129302D02*
X0089205Y0129302D01*
X0089396Y0130101D02*
X0107497Y0130101D01*
X0107522Y0130899D02*
X0089396Y0130899D01*
X0089122Y0131698D02*
X0107548Y0131698D01*
X0107574Y0132497D02*
X0088625Y0132497D01*
X0087568Y0133295D02*
X0107600Y0133295D01*
X0107625Y0134094D02*
X0074544Y0134094D01*
X0074544Y0134892D02*
X0107651Y0134892D01*
X0107677Y0135691D02*
X0074544Y0135691D01*
X0074544Y0136489D02*
X0107703Y0136489D01*
X0107672Y0137288D02*
X0074544Y0137288D01*
X0074544Y0138086D02*
X0107562Y0138086D01*
X0107453Y0138885D02*
X0074544Y0138885D01*
X0074544Y0139683D02*
X0107343Y0139683D01*
X0107233Y0140482D02*
X0074544Y0140482D01*
X0074544Y0141280D02*
X0081865Y0141280D01*
X0082059Y0141200D02*
X0083333Y0141200D01*
X0084509Y0141687D01*
X0085409Y0142587D01*
X0085896Y0143763D01*
X0085896Y0145036D01*
X0085409Y0146212D01*
X0084509Y0147113D01*
X0083333Y0147600D01*
X0082059Y0147600D01*
X0080883Y0147113D01*
X0079983Y0146212D01*
X0079496Y0145036D01*
X0079496Y0143763D01*
X0079983Y0142587D01*
X0080883Y0141687D01*
X0082059Y0141200D01*
X0080492Y0142079D02*
X0074544Y0142079D01*
X0074544Y0142877D02*
X0079863Y0142877D01*
X0079532Y0143676D02*
X0074544Y0143676D01*
X0074544Y0144474D02*
X0079496Y0144474D01*
X0079594Y0145273D02*
X0074594Y0145273D01*
X0075344Y0146071D02*
X0079925Y0146071D01*
X0080640Y0146870D02*
X0075674Y0146870D01*
X0075796Y0147668D02*
X0105521Y0147668D01*
X0105788Y0146870D02*
X0084752Y0146870D01*
X0085467Y0146071D02*
X0106055Y0146071D01*
X0106240Y0145273D02*
X0085798Y0145273D01*
X0085896Y0144474D02*
X0106406Y0144474D01*
X0106573Y0143676D02*
X0085860Y0143676D01*
X0085529Y0142877D02*
X0106739Y0142877D01*
X0106897Y0142079D02*
X0084900Y0142079D01*
X0083527Y0141280D02*
X0107098Y0141280D01*
X0105254Y0148467D02*
X0075783Y0148467D01*
X0075453Y0149265D02*
X0104987Y0149265D01*
X0104720Y0150064D02*
X0074857Y0150064D01*
X0073564Y0150862D02*
X0104453Y0150862D01*
X0104186Y0151661D02*
X0035460Y0151661D01*
X0036054Y0150862D02*
X0036133Y0150862D01*
X0034172Y0152459D02*
X0103919Y0152459D01*
X0084824Y0133295D02*
X0074575Y0133295D01*
X0075305Y0132497D02*
X0083767Y0132497D01*
X0083270Y0131698D02*
X0075636Y0131698D01*
X0075744Y0130899D02*
X0082996Y0130899D01*
X0082996Y0130101D02*
X0075719Y0130101D01*
X0075388Y0129302D02*
X0082842Y0129302D01*
X0081775Y0128504D02*
X0074774Y0128504D01*
X0074544Y0127705D02*
X0081273Y0127705D01*
X0078578Y0126907D02*
X0074717Y0126907D01*
X0075516Y0126108D02*
X0077779Y0126108D01*
X0077392Y0125310D02*
X0076314Y0125310D01*
X0076796Y0124511D02*
X0077196Y0124511D01*
X0077196Y0123713D02*
X0076796Y0123713D01*
X0076796Y0122914D02*
X0077465Y0122914D01*
X0077954Y0122116D02*
X0076796Y0122116D01*
X0076796Y0121317D02*
X0078396Y0121317D01*
X0078396Y0120519D02*
X0076796Y0120519D01*
X0076796Y0119720D02*
X0078396Y0119720D01*
X0078396Y0118922D02*
X0076796Y0118922D01*
X0076796Y0118123D02*
X0079044Y0118123D01*
X0079843Y0117325D02*
X0076796Y0117325D01*
X0076796Y0116526D02*
X0080641Y0116526D01*
X0081440Y0115728D02*
X0076796Y0115728D01*
X0076796Y0114929D02*
X0082238Y0114929D01*
X0083796Y0116200D02*
X0089396Y0116200D01*
X0088196Y0119400D02*
X0090046Y0121250D01*
X0092499Y0121250D01*
X0092499Y0122825D02*
X0085621Y0122825D01*
X0084196Y0121400D01*
X0086196Y0124400D02*
X0092499Y0124400D01*
X0092499Y0125975D02*
X0088621Y0125975D01*
X0086196Y0128400D01*
X0086196Y0130400D01*
X0088920Y0128504D02*
X0088962Y0128504D01*
X0086196Y0124400D02*
X0084196Y0126400D01*
X0080396Y0124200D02*
X0080396Y0119600D01*
X0083796Y0116200D01*
X0075624Y0126000D02*
X0075624Y0126000D01*
X0095079Y0129302D02*
X0100313Y0129302D01*
X0099356Y0128504D02*
X0096036Y0128504D01*
X0096143Y0127705D02*
X0099249Y0127705D01*
X0099249Y0127549D02*
X0099567Y0127549D01*
X0099249Y0127549D01*
X0099567Y0127549D02*
X0099567Y0127549D01*
X0099049Y0126907D02*
X0096343Y0126907D01*
X0096343Y0126108D02*
X0098876Y0126108D01*
X0098078Y0125310D02*
X0096343Y0125310D01*
X0096343Y0124511D02*
X0097279Y0124511D01*
X0097996Y0125228D02*
X0097996Y0125228D01*
X0096481Y0123713D02*
X0096343Y0123713D01*
X0097996Y0122400D02*
X0097996Y0111600D01*
X0097196Y0110800D01*
X0091768Y0105347D02*
X0072572Y0105347D01*
X0099996Y0124400D02*
X0102893Y0124400D01*
X0106737Y0126108D02*
X0106883Y0126108D01*
X0106737Y0126907D02*
X0107045Y0126907D01*
X0107208Y0127705D02*
X0106537Y0127705D01*
X0106430Y0128504D02*
X0107371Y0128504D01*
X0107471Y0129302D02*
X0105473Y0129302D01*
X0102893Y0129302D02*
X0102893Y0129302D01*
X0102893Y0128504D02*
X0102893Y0128504D01*
X0071628Y0150862D02*
X0040259Y0150862D01*
X0040970Y0150064D02*
X0070335Y0150064D01*
X0038196Y0148400D02*
X0035771Y0145975D01*
X0027893Y0145975D01*
X0027893Y0147549D02*
X0031346Y0147549D01*
X0033196Y0149400D01*
X0038196Y0144400D02*
X0027893Y0144400D01*
X0027893Y0142825D02*
X0034771Y0142825D01*
X0037196Y0140400D01*
D200*
X0037196Y0140400D03*
X0033196Y0138400D03*
X0038196Y0144400D03*
X0038196Y0148400D03*
X0033196Y0149400D03*
X0025596Y0155600D03*
X0020396Y0155600D03*
X0038196Y0157400D03*
X0038196Y0168400D03*
X0056196Y0165900D03*
X0070196Y0159900D03*
X0072596Y0147800D03*
X0082696Y0144400D03*
X0086196Y0130400D03*
X0084196Y0126400D03*
X0080396Y0124200D03*
X0084196Y0121400D03*
X0088196Y0119400D03*
X0097196Y0110800D03*
X0094796Y0106400D03*
X0070596Y0116800D03*
X0057196Y0125400D03*
X0043196Y0125400D03*
X0033396Y0114600D03*
X0020996Y0130200D03*
X0017196Y0132800D03*
X0014196Y0136400D03*
X0043196Y0144400D03*
X0057196Y0144400D03*
X0072544Y0130800D03*
X0099696Y0138400D03*
X0098696Y0157400D03*
X0079196Y0172400D03*
X0114700Y0097000D02*
G75*
%LPD*%
D208*
X0211597Y0127549D03*
X0211597Y0125975D03*
X0211597Y0124400D03*
X0211597Y0122825D03*
X0211597Y0121250D03*
X0201203Y0121250D03*
X0201203Y0122825D03*
X0201203Y0124400D03*
X0201203Y0125975D03*
X0201203Y0127549D03*
X0136597Y0141250D03*
X0136597Y0142825D03*
X0136597Y0144400D03*
X0136597Y0145975D03*
X0136597Y0147549D03*
X0126203Y0147549D03*
X0126203Y0145975D03*
X0126203Y0144400D03*
X0126203Y0142825D03*
X0126203Y0141250D03*
D135*
X0135361Y0167631D02*
X0202439Y0167631D01*
X0201632Y0168430D02*
X0136168Y0168430D01*
X0136976Y0169228D02*
X0200824Y0169228D01*
X0200017Y0170027D02*
X0137783Y0170027D01*
X0138342Y0170579D02*
X0144327Y0174885D01*
X0150909Y0178208D01*
X0157927Y0180468D01*
X0165211Y0181609D01*
X0168898Y0181750D01*
X0168902Y0181750D01*
X0172589Y0181609D01*
X0179873Y0180468D01*
X0186891Y0178208D01*
X0193473Y0174885D01*
X0199458Y0170579D01*
X0204701Y0165395D01*
X0209074Y0159459D01*
X0212470Y0152915D01*
X0214809Y0145922D01*
X0215482Y0142691D01*
X0215475Y0142646D01*
X0215577Y0142221D01*
X0215649Y0141791D01*
X0215699Y0141711D01*
X0215862Y0141029D01*
X0216422Y0136956D01*
X0216163Y0128940D01*
X0215495Y0125660D01*
X0215444Y0125481D01*
X0215441Y0125477D01*
X0215441Y0127031D01*
X0215241Y0127231D01*
X0215241Y0127549D01*
X0214923Y0127549D01*
X0214923Y0127549D01*
X0215241Y0127549D01*
X0215241Y0128127D01*
X0215146Y0128483D01*
X0214961Y0128803D01*
X0214701Y0129063D01*
X0214381Y0129248D01*
X0214025Y0129343D01*
X0211597Y0129343D01*
X0211597Y0127975D01*
X0211597Y0127975D01*
X0211597Y0129343D01*
X0209168Y0129343D01*
X0208812Y0129248D01*
X0208493Y0129063D01*
X0208232Y0128803D01*
X0208048Y0128483D01*
X0207953Y0128127D01*
X0207953Y0127549D01*
X0207953Y0127231D01*
X0207753Y0127031D01*
X0207753Y0126281D01*
X0206700Y0125228D01*
X0205047Y0123575D01*
X0205047Y0124918D01*
X0205047Y0127031D01*
X0204847Y0127231D01*
X0204847Y0127549D01*
X0204529Y0127549D01*
X0204529Y0127549D01*
X0204847Y0127549D01*
X0204847Y0128127D01*
X0204752Y0128483D01*
X0204568Y0128803D01*
X0204307Y0129063D01*
X0203988Y0129248D01*
X0203632Y0129343D01*
X0201203Y0129343D01*
X0198775Y0129343D01*
X0198419Y0129248D01*
X0198099Y0129063D01*
X0197839Y0128803D01*
X0197654Y0128483D01*
X0197652Y0128476D01*
X0197577Y0128551D01*
X0197613Y0128587D01*
X0198100Y0129763D01*
X0198100Y0131036D01*
X0197613Y0132212D01*
X0196713Y0133113D01*
X0195537Y0133600D01*
X0194263Y0133600D01*
X0193087Y0133113D01*
X0192187Y0132212D01*
X0191700Y0131036D01*
X0191700Y0129763D01*
X0191840Y0129424D01*
X0191087Y0129113D01*
X0190187Y0128212D01*
X0189834Y0127359D01*
X0189737Y0127400D01*
X0188463Y0127400D01*
X0187287Y0126913D01*
X0186387Y0126012D01*
X0185900Y0124836D01*
X0185900Y0123563D01*
X0186387Y0122387D01*
X0187100Y0121674D01*
X0187100Y0118771D01*
X0190500Y0115371D01*
X0191672Y0114200D01*
X0197272Y0114200D01*
X0197500Y0113971D01*
X0197500Y0109571D01*
X0198672Y0108400D01*
X0200300Y0106771D01*
X0200300Y0105763D01*
X0200787Y0104587D01*
X0200825Y0104550D01*
X0180478Y0104550D01*
X0181500Y0105571D01*
X0185500Y0109571D01*
X0185500Y0124828D01*
X0184328Y0126000D01*
X0183248Y0127080D01*
X0183248Y0128274D01*
X0183961Y0128987D01*
X0184448Y0130163D01*
X0184448Y0131436D01*
X0183961Y0132612D01*
X0183248Y0133325D01*
X0183248Y0145223D01*
X0184013Y0145987D01*
X0184500Y0147163D01*
X0184500Y0148436D01*
X0184013Y0149612D01*
X0183113Y0150513D01*
X0181937Y0151000D01*
X0180663Y0151000D01*
X0179487Y0150513D01*
X0178587Y0149612D01*
X0178100Y0148436D01*
X0178100Y0147163D01*
X0178587Y0145987D01*
X0179248Y0145326D01*
X0179248Y0133325D01*
X0178536Y0132612D01*
X0178048Y0131436D01*
X0178048Y0130163D01*
X0178536Y0128987D01*
X0179248Y0128274D01*
X0179248Y0125423D01*
X0180420Y0124251D01*
X0181500Y0123171D01*
X0181500Y0111228D01*
X0178672Y0108400D01*
X0151128Y0108400D01*
X0145300Y0114228D01*
X0145300Y0115236D01*
X0144813Y0116412D01*
X0143913Y0117313D01*
X0143900Y0117318D01*
X0143900Y0135874D01*
X0144613Y0136587D01*
X0144925Y0137340D01*
X0145263Y0137200D01*
X0146537Y0137200D01*
X0147713Y0137687D01*
X0148613Y0138587D01*
X0149100Y0139763D01*
X0149100Y0141036D01*
X0148796Y0141770D01*
X0149613Y0142587D01*
X0150100Y0143763D01*
X0150100Y0145036D01*
X0149613Y0146212D01*
X0149425Y0146400D01*
X0149613Y0146587D01*
X0150100Y0147763D01*
X0150100Y0149036D01*
X0149613Y0150212D01*
X0148713Y0151113D01*
X0147537Y0151600D01*
X0146263Y0151600D01*
X0145087Y0151113D01*
X0144781Y0150806D01*
X0144613Y0151212D01*
X0143713Y0152113D01*
X0142537Y0152600D01*
X0141263Y0152600D01*
X0140087Y0152113D01*
X0139187Y0151212D01*
X0138700Y0150036D01*
X0138700Y0149549D01*
X0135768Y0149549D01*
X0135762Y0149543D01*
X0133690Y0149543D01*
X0133300Y0149153D01*
X0133300Y0151609D01*
X0134041Y0152400D01*
X0134937Y0152400D01*
X0136113Y0152887D01*
X0137013Y0153787D01*
X0137500Y0154963D01*
X0137500Y0156236D01*
X0137013Y0157412D01*
X0136113Y0158313D01*
X0134937Y0158800D01*
X0133663Y0158800D01*
X0132487Y0158313D01*
X0131700Y0157525D01*
X0130913Y0158313D01*
X0129737Y0158800D01*
X0128463Y0158800D01*
X0128363Y0158758D01*
X0128726Y0159459D01*
X0133099Y0165395D01*
X0138342Y0170579D01*
X0138684Y0170825D02*
X0199116Y0170825D01*
X0198006Y0171624D02*
X0139794Y0171624D01*
X0140904Y0172422D02*
X0196896Y0172422D01*
X0195787Y0173221D02*
X0142013Y0173221D01*
X0143123Y0174019D02*
X0194677Y0174019D01*
X0193567Y0174818D02*
X0144233Y0174818D01*
X0145775Y0175616D02*
X0192025Y0175616D01*
X0190444Y0176415D02*
X0147356Y0176415D01*
X0148938Y0177213D02*
X0188862Y0177213D01*
X0187281Y0178012D02*
X0150519Y0178012D01*
X0152778Y0178810D02*
X0185022Y0178810D01*
X0182542Y0179609D02*
X0155258Y0179609D01*
X0157739Y0180407D02*
X0180061Y0180407D01*
X0175161Y0181206D02*
X0162639Y0181206D01*
X0134553Y0166832D02*
X0203247Y0166832D01*
X0204054Y0166034D02*
X0133746Y0166034D01*
X0132982Y0165235D02*
X0204818Y0165235D01*
X0205406Y0164437D02*
X0132394Y0164437D01*
X0131805Y0163638D02*
X0205995Y0163638D01*
X0206583Y0162840D02*
X0131217Y0162840D01*
X0130629Y0162041D02*
X0207171Y0162041D01*
X0207759Y0161243D02*
X0130041Y0161243D01*
X0129453Y0160444D02*
X0208347Y0160444D01*
X0208936Y0159646D02*
X0128864Y0159646D01*
X0128409Y0158847D02*
X0209391Y0158847D01*
X0209805Y0158049D02*
X0136376Y0158049D01*
X0137080Y0157250D02*
X0210220Y0157250D01*
X0210634Y0156452D02*
X0137411Y0156452D01*
X0137500Y0155653D02*
X0211049Y0155653D01*
X0211463Y0154855D02*
X0137455Y0154855D01*
X0137124Y0154056D02*
X0211878Y0154056D01*
X0212292Y0153258D02*
X0136484Y0153258D01*
X0135080Y0152459D02*
X0140924Y0152459D01*
X0139636Y0151661D02*
X0133349Y0151661D01*
X0133300Y0150862D02*
X0139042Y0150862D01*
X0138711Y0150064D02*
X0133300Y0150064D01*
X0133300Y0149265D02*
X0133412Y0149265D01*
X0131300Y0147200D02*
X0131300Y0152400D01*
X0134300Y0155600D01*
X0132224Y0158049D02*
X0131176Y0158049D01*
X0129100Y0155600D02*
X0129100Y0148200D01*
X0128450Y0147549D01*
X0126203Y0147549D01*
X0126203Y0145975D02*
X0130075Y0145975D01*
X0131300Y0147200D01*
X0129300Y0144400D02*
X0131100Y0142600D01*
X0131100Y0131600D01*
X0129700Y0130200D01*
X0125900Y0132800D02*
X0129500Y0136400D01*
X0129500Y0142200D01*
X0128875Y0142825D01*
X0126203Y0142825D01*
X0126203Y0144400D02*
X0129300Y0144400D01*
X0126203Y0141250D02*
X0123750Y0141250D01*
X0122300Y0139800D01*
X0122300Y0137000D01*
X0122900Y0136400D01*
X0136597Y0141250D02*
X0139050Y0141250D01*
X0141900Y0138400D01*
X0141900Y0114800D01*
X0142100Y0114600D01*
X0150300Y0106400D01*
X0179500Y0106400D01*
X0183500Y0110400D01*
X0183500Y0124000D01*
X0181248Y0126251D01*
X0181248Y0130800D01*
X0181248Y0131200D01*
X0181248Y0147748D01*
X0181300Y0147800D01*
X0184157Y0149265D02*
X0213691Y0149265D01*
X0213958Y0148467D02*
X0184487Y0148467D01*
X0184500Y0147668D02*
X0214225Y0147668D01*
X0214492Y0146870D02*
X0193456Y0146870D01*
X0193213Y0147113D02*
X0194113Y0146212D01*
X0194600Y0145036D01*
X0194600Y0143763D01*
X0194113Y0142587D01*
X0193213Y0141687D01*
X0192037Y0141200D01*
X0190763Y0141200D01*
X0189587Y0141687D01*
X0188687Y0142587D01*
X0188200Y0143763D01*
X0188200Y0145036D01*
X0188687Y0146212D01*
X0189587Y0147113D01*
X0190763Y0147600D01*
X0192037Y0147600D01*
X0193213Y0147113D01*
X0194171Y0146071D02*
X0214759Y0146071D01*
X0214944Y0145273D02*
X0194502Y0145273D01*
X0194600Y0144474D02*
X0215110Y0144474D01*
X0215277Y0143676D02*
X0194564Y0143676D01*
X0194233Y0142877D02*
X0215443Y0142877D01*
X0215601Y0142079D02*
X0193604Y0142079D01*
X0192231Y0141280D02*
X0215802Y0141280D01*
X0215937Y0140482D02*
X0183248Y0140482D01*
X0183248Y0141280D02*
X0190569Y0141280D01*
X0189196Y0142079D02*
X0183248Y0142079D01*
X0183248Y0142877D02*
X0188567Y0142877D01*
X0188236Y0143676D02*
X0183248Y0143676D01*
X0183248Y0144474D02*
X0188200Y0144474D01*
X0188298Y0145273D02*
X0183298Y0145273D01*
X0184048Y0146071D02*
X0188629Y0146071D01*
X0189344Y0146870D02*
X0184378Y0146870D01*
X0183561Y0150064D02*
X0213424Y0150064D01*
X0213157Y0150862D02*
X0182268Y0150862D01*
X0180332Y0150862D02*
X0148963Y0150862D01*
X0149674Y0150064D02*
X0179039Y0150064D01*
X0178443Y0149265D02*
X0150005Y0149265D01*
X0150100Y0148467D02*
X0178113Y0148467D01*
X0178100Y0147668D02*
X0150061Y0147668D01*
X0149730Y0146870D02*
X0178222Y0146870D01*
X0178552Y0146071D02*
X0149671Y0146071D01*
X0150002Y0145273D02*
X0179248Y0145273D01*
X0179248Y0144474D02*
X0150100Y0144474D01*
X0150064Y0143676D02*
X0179248Y0143676D01*
X0179248Y0142877D02*
X0149733Y0142877D01*
X0149104Y0142079D02*
X0179248Y0142079D01*
X0179248Y0141280D02*
X0148999Y0141280D01*
X0149100Y0140482D02*
X0179248Y0140482D01*
X0179248Y0139683D02*
X0149067Y0139683D01*
X0148736Y0138885D02*
X0179248Y0138885D01*
X0179248Y0138086D02*
X0148112Y0138086D01*
X0146749Y0137288D02*
X0179248Y0137288D01*
X0179248Y0136489D02*
X0144515Y0136489D01*
X0144903Y0137288D02*
X0145051Y0137288D01*
X0143900Y0135691D02*
X0179248Y0135691D01*
X0179248Y0134892D02*
X0143900Y0134892D01*
X0143900Y0134094D02*
X0179248Y0134094D01*
X0179218Y0133295D02*
X0143900Y0133295D01*
X0143900Y0132497D02*
X0178488Y0132497D01*
X0178157Y0131698D02*
X0143900Y0131698D01*
X0143900Y0130899D02*
X0178048Y0130899D01*
X0178074Y0130101D02*
X0143900Y0130101D01*
X0143900Y0129302D02*
X0178405Y0129302D01*
X0179019Y0128504D02*
X0143900Y0128504D01*
X0143900Y0127705D02*
X0179248Y0127705D01*
X0179248Y0126907D02*
X0143900Y0126907D01*
X0143900Y0126108D02*
X0179248Y0126108D01*
X0179361Y0125310D02*
X0143900Y0125310D01*
X0143900Y0124511D02*
X0180160Y0124511D01*
X0180420Y0124251D02*
X0180420Y0124251D01*
X0180958Y0123713D02*
X0143900Y0123713D01*
X0143900Y0122914D02*
X0181500Y0122914D01*
X0181500Y0122116D02*
X0143900Y0122116D01*
X0143900Y0121317D02*
X0181500Y0121317D01*
X0181500Y0120519D02*
X0143900Y0120519D01*
X0143900Y0119720D02*
X0181500Y0119720D01*
X0181500Y0118922D02*
X0143900Y0118922D01*
X0143900Y0118123D02*
X0181500Y0118123D01*
X0181500Y0117325D02*
X0143900Y0117325D01*
X0144699Y0116526D02*
X0181500Y0116526D01*
X0181500Y0115728D02*
X0145096Y0115728D01*
X0145300Y0114929D02*
X0181500Y0114929D01*
X0181500Y0114131D02*
X0145397Y0114131D01*
X0146196Y0113332D02*
X0181500Y0113332D01*
X0181500Y0112534D02*
X0146994Y0112534D01*
X0147793Y0111735D02*
X0181500Y0111735D01*
X0181209Y0110937D02*
X0148591Y0110937D01*
X0149390Y0110138D02*
X0180410Y0110138D01*
X0179612Y0109340D02*
X0150188Y0109340D01*
X0150987Y0108541D02*
X0178813Y0108541D01*
X0182074Y0106146D02*
X0200300Y0106146D01*
X0200127Y0106944D02*
X0182873Y0106944D01*
X0183671Y0107743D02*
X0199329Y0107743D01*
X0198530Y0108541D02*
X0184470Y0108541D01*
X0185268Y0109340D02*
X0197732Y0109340D01*
X0197500Y0110138D02*
X0185500Y0110138D01*
X0185500Y0110937D02*
X0197500Y0110937D01*
X0197500Y0111735D02*
X0185500Y0111735D01*
X0185500Y0112534D02*
X0197500Y0112534D01*
X0197500Y0113332D02*
X0185500Y0113332D01*
X0185500Y0114131D02*
X0197341Y0114131D01*
X0198100Y0116200D02*
X0199500Y0114800D01*
X0199500Y0110400D01*
X0203500Y0106400D01*
X0206100Y0106400D01*
X0208700Y0109000D01*
X0208700Y0120800D01*
X0209150Y0121250D01*
X0210725Y0122825D01*
X0211597Y0122825D01*
X0211597Y0121250D02*
X0209150Y0121250D01*
X0206700Y0122400D02*
X0208700Y0124400D01*
X0210275Y0125975D01*
X0211597Y0125975D01*
X0211597Y0127549D02*
X0213550Y0127549D01*
X0214900Y0128900D01*
X0214900Y0131900D01*
X0208400Y0138400D01*
X0205400Y0138400D01*
X0197900Y0130900D01*
X0197900Y0128900D01*
X0199250Y0127549D01*
X0201203Y0127549D01*
X0201203Y0127975D02*
X0201203Y0129343D01*
X0201203Y0127975D01*
X0201203Y0127975D01*
X0201203Y0128504D02*
X0201203Y0128504D01*
X0201203Y0129302D02*
X0201203Y0129302D01*
X0203783Y0129302D02*
X0209017Y0129302D01*
X0208060Y0128504D02*
X0204740Y0128504D01*
X0204847Y0127705D02*
X0207953Y0127705D01*
X0207953Y0127549D02*
X0208271Y0127549D01*
X0207953Y0127549D01*
X0208271Y0127549D02*
X0208271Y0127549D01*
X0207753Y0126907D02*
X0205047Y0126907D01*
X0205047Y0126108D02*
X0207580Y0126108D01*
X0206782Y0125310D02*
X0205047Y0125310D01*
X0205047Y0124511D02*
X0205983Y0124511D01*
X0205185Y0123713D02*
X0205047Y0123713D01*
X0206700Y0122400D02*
X0206700Y0111600D01*
X0205900Y0110800D01*
X0200472Y0105347D02*
X0181276Y0105347D01*
X0185500Y0114929D02*
X0190942Y0114929D01*
X0190144Y0115728D02*
X0185500Y0115728D01*
X0185500Y0116526D02*
X0189345Y0116526D01*
X0188547Y0117325D02*
X0185500Y0117325D01*
X0185500Y0118123D02*
X0187748Y0118123D01*
X0187100Y0118922D02*
X0185500Y0118922D01*
X0185500Y0119720D02*
X0187100Y0119720D01*
X0187100Y0120519D02*
X0185500Y0120519D01*
X0185500Y0121317D02*
X0187100Y0121317D01*
X0186658Y0122116D02*
X0185500Y0122116D01*
X0185500Y0122914D02*
X0186169Y0122914D01*
X0185900Y0123713D02*
X0185500Y0123713D01*
X0185500Y0124511D02*
X0185900Y0124511D01*
X0186096Y0125310D02*
X0185018Y0125310D01*
X0184220Y0126108D02*
X0186483Y0126108D01*
X0187282Y0126907D02*
X0183421Y0126907D01*
X0183248Y0127705D02*
X0189977Y0127705D01*
X0190479Y0128504D02*
X0183478Y0128504D01*
X0184092Y0129302D02*
X0191546Y0129302D01*
X0191700Y0130101D02*
X0184423Y0130101D01*
X0184448Y0130899D02*
X0191700Y0130899D01*
X0191974Y0131698D02*
X0184340Y0131698D01*
X0184009Y0132497D02*
X0192471Y0132497D01*
X0193528Y0133295D02*
X0183279Y0133295D01*
X0183248Y0134094D02*
X0216329Y0134094D01*
X0216355Y0134892D02*
X0183248Y0134892D01*
X0183248Y0135691D02*
X0216381Y0135691D01*
X0216407Y0136489D02*
X0183248Y0136489D01*
X0183248Y0137288D02*
X0216376Y0137288D01*
X0216266Y0138086D02*
X0183248Y0138086D01*
X0183248Y0138885D02*
X0216157Y0138885D01*
X0216047Y0139683D02*
X0183248Y0139683D01*
X0194900Y0130400D02*
X0194900Y0128400D01*
X0197325Y0125975D01*
X0201203Y0125975D01*
X0201203Y0124400D02*
X0194900Y0124400D01*
X0192900Y0126400D01*
X0189100Y0124200D02*
X0189100Y0119600D01*
X0192500Y0116200D01*
X0198100Y0116200D01*
X0196900Y0119400D02*
X0198750Y0121250D01*
X0201203Y0121250D01*
X0201203Y0122825D02*
X0194325Y0122825D01*
X0192900Y0121400D01*
X0197624Y0128504D02*
X0197666Y0128504D01*
X0197909Y0129302D02*
X0198623Y0129302D01*
X0198100Y0130101D02*
X0216201Y0130101D01*
X0216226Y0130899D02*
X0198100Y0130899D01*
X0197826Y0131698D02*
X0216252Y0131698D01*
X0216278Y0132497D02*
X0197329Y0132497D01*
X0196272Y0133295D02*
X0216304Y0133295D01*
X0216175Y0129302D02*
X0214177Y0129302D01*
X0215134Y0128504D02*
X0216075Y0128504D01*
X0215912Y0127705D02*
X0215241Y0127705D01*
X0215441Y0126907D02*
X0215749Y0126907D01*
X0215587Y0126108D02*
X0215441Y0126108D01*
X0211597Y0124400D02*
X0208700Y0124400D01*
X0211597Y0128504D02*
X0211597Y0128504D01*
X0211597Y0129302D02*
X0211597Y0129302D01*
X0212890Y0151661D02*
X0144164Y0151661D01*
X0144758Y0150862D02*
X0144837Y0150862D01*
X0142876Y0152459D02*
X0212623Y0152459D01*
X0146900Y0148400D02*
X0144475Y0145975D01*
X0136597Y0145975D01*
X0136597Y0147549D02*
X0140050Y0147549D01*
X0141900Y0149400D01*
X0146900Y0144400D02*
X0136597Y0144400D01*
X0136597Y0142825D02*
X0143475Y0142825D01*
X0145900Y0140400D01*
D200*
X0145900Y0140400D03*
X0146900Y0144400D03*
X0151900Y0144400D03*
X0146900Y0148400D03*
X0141900Y0149400D03*
X0134300Y0155600D03*
X0129100Y0155600D03*
X0146900Y0157400D03*
X0146900Y0168400D03*
X0164900Y0165900D03*
X0178900Y0159900D03*
X0181300Y0147800D03*
X0191400Y0144400D03*
X0194900Y0130400D03*
X0192900Y0126400D03*
X0189100Y0124200D03*
X0192900Y0121400D03*
X0196900Y0119400D03*
X0205900Y0110800D03*
X0203500Y0106400D03*
X0179300Y0116800D03*
X0165900Y0125400D03*
X0151900Y0125400D03*
X0142100Y0114600D03*
X0129700Y0130200D03*
X0125900Y0132800D03*
X0122900Y0136400D03*
X0141900Y0138400D03*
X0165900Y0144400D03*
X0181248Y0130800D03*
X0208400Y0138400D03*
X0207400Y0157400D03*
X0187900Y0172400D03*
M02*
