G75*
G70*
%OFA0B0*%
%FSLAX25Y25*%
%IPPOS*%
%LPD*%
%AMOC8*
5,1,8,0,0,1.08239X$1,22.5*
%
%ADD536C,0.00100*%
D536*
X0010000Y0010000D02*
X0326897Y0010000D01*
X0326897Y0184400D01*
X0010000Y0184400D01*
X0010000Y0010000D01*
X0010000Y0196900D02*
X0010000Y0211900D01*
X0017500Y0208150D02*
X0010000Y0204400D01*
X0017500Y0200650D01*
X0010000Y0204400D02*
X0022500Y0204400D01*
X0326897Y0211900D02*
X0326897Y0196900D01*
X0319397Y0200650D02*
X0326897Y0204400D01*
X0319397Y0208150D01*
X0326897Y0204400D02*
X0314397Y0204400D01*
X0339397Y0184400D02*
X0354397Y0184400D01*
X0350647Y0176900D02*
X0346897Y0184400D01*
X0343147Y0176900D01*
X0346897Y0184400D02*
X0346897Y0171900D01*
X0354397Y0010000D02*
X0339397Y0010000D01*
X0343147Y0017500D02*
X0346897Y0010000D01*
X0350647Y0017500D01*
X0346897Y0010000D02*
X0346897Y0022500D01*
X0161448Y0201900D02*
X0162448Y0200900D01*
X0164448Y0200900D01*
X0165448Y0201900D01*
X0165448Y0202900D01*
X0164448Y0203900D01*
X0163448Y0203900D01*
X0164448Y0203900D02*
X0165448Y0204900D01*
X0165448Y0205900D01*
X0164448Y0206900D01*
X0162448Y0206900D01*
X0161448Y0205900D01*
X0168948Y0201900D02*
X0169948Y0201900D01*
X0169948Y0200900D01*
X0168948Y0200900D01*
X0168948Y0201900D01*
X0174448Y0205900D02*
X0175448Y0206900D01*
X0175448Y0200900D01*
X0174448Y0200900D02*
X0176448Y0200900D01*
X0179448Y0203900D02*
X0179448Y0201900D01*
X0180448Y0200900D01*
X0182448Y0200900D01*
X0183448Y0201900D01*
X0183448Y0202900D01*
X0182448Y0203900D01*
X0179448Y0203900D01*
X0181448Y0205900D01*
X0183448Y0206900D01*
X0185448Y0204900D02*
X0186448Y0203900D01*
X0189448Y0203900D01*
X0189448Y0201900D02*
X0189448Y0205900D01*
X0188448Y0206900D01*
X0186448Y0206900D01*
X0185448Y0205900D01*
X0185448Y0204900D01*
X0185448Y0201900D02*
X0186448Y0200900D01*
X0188448Y0200900D01*
X0189448Y0201900D01*
X0194948Y0205900D02*
X0193948Y0204900D01*
X0194948Y0205900D02*
X0194948Y0207900D01*
X0192948Y0207900D02*
X0192948Y0205900D01*
X0191948Y0204900D01*
X0010000Y0204400D02*
X0150948Y0204400D01*
X0205948Y0204400D02*
X0326897Y0204400D01*
X0348397Y0123200D02*
X0349397Y0122200D01*
X0343397Y0122200D01*
X0343397Y0123200D02*
X0343397Y0121200D01*
X0344397Y0116700D02*
X0344397Y0115700D01*
X0343397Y0115700D01*
X0343397Y0116700D01*
X0344397Y0116700D01*
X0349397Y0112200D02*
X0349397Y0108200D01*
X0348397Y0108200D01*
X0344397Y0112200D01*
X0343397Y0112200D01*
X0346397Y0106200D02*
X0346397Y0102200D01*
X0343397Y0103200D02*
X0349397Y0103200D01*
X0346397Y0106200D01*
X0346397Y0100200D02*
X0346397Y0096200D01*
X0343397Y0097200D02*
X0349397Y0097200D01*
X0346397Y0100200D01*
X0348397Y0090700D02*
X0347397Y0091700D01*
X0348397Y0090700D02*
X0350397Y0090700D01*
X0350397Y0092700D02*
X0348397Y0092700D01*
X0347397Y0093700D01*
X0346897Y0184400D02*
X0346897Y0134700D01*
X0346897Y0079700D02*
X0346897Y0010000D01*
M02*
