G75*
G70*
%OFA0B0*%
%FSLAX25Y25*%
%IPPOS*%
%LPD*%
%AMOC8*
5,1,8,0,0,1.08239X$1,22.5*
%
%ADD164C,0.00500*%
X0010000Y0010000D02*
G75*
%LPD*%
D164*
X0010721Y0051650D02*
X0010936Y0050460D01*
X0011180Y0049275D01*
X0011452Y0048097D01*
X0011753Y0046925D01*
X0012082Y0045762D01*
X0012439Y0044606D01*
X0012824Y0043460D01*
X0013237Y0042323D01*
X0013677Y0041196D01*
X0014144Y0040081D01*
X0014638Y0038977D01*
X0015159Y0037885D01*
X0015706Y0036807D01*
X0016279Y0035742D01*
X0016878Y0034691D01*
X0017502Y0033655D01*
X0018151Y0032634D01*
X0018824Y0031630D01*
X0019522Y0030641D01*
X0020243Y0029671D01*
X0020987Y0028718D01*
X0021755Y0027783D01*
X0022545Y0026867D01*
X0023356Y0025970D01*
X0024190Y0025094D01*
X0025044Y0024238D01*
X0025919Y0023402D01*
X0026813Y0022589D01*
X0027727Y0021797D01*
X0028660Y0021027D01*
X0029612Y0020281D01*
X0030581Y0019557D01*
X0031568Y0018858D01*
X0032571Y0018182D01*
X0033590Y0017531D01*
X0034624Y0016905D01*
X0035674Y0016304D01*
X0036738Y0015728D01*
X0037815Y0015179D01*
X0038906Y0014655D01*
X0040008Y0014159D01*
X0041123Y0013689D01*
X0042248Y0013246D01*
X0043384Y0012831D01*
X0044530Y0012444D01*
X0045685Y0012084D01*
X0046848Y0011752D01*
X0048018Y0011449D01*
X0049196Y0011174D01*
X0050380Y0010927D01*
X0051570Y0010710D01*
X0052764Y0010521D01*
X0053963Y0010361D01*
X0055166Y0010231D01*
X0056371Y0010129D01*
X0057578Y0010057D01*
X0058787Y0010014D01*
X0059996Y0010000D01*
X0109271Y0051650D02*
X0109304Y0051781D01*
X0109342Y0051912D01*
X0109383Y0052041D01*
X0109427Y0052170D01*
X0109475Y0052297D01*
X0109527Y0052422D01*
X0109583Y0052546D01*
X0109642Y0052669D01*
X0109704Y0052790D01*
X0109770Y0052908D01*
X0109839Y0053025D01*
X0109911Y0053140D01*
X0109987Y0053253D01*
X0110066Y0053364D01*
X0110148Y0053472D01*
X0110233Y0053578D01*
X0110321Y0053681D01*
X0110412Y0053782D01*
X0110506Y0053881D01*
X0110602Y0053976D01*
X0110702Y0054069D01*
X0110804Y0054159D01*
X0110908Y0054246D01*
X0111015Y0054330D01*
X0111124Y0054411D01*
X0111235Y0054488D01*
X0111349Y0054563D01*
X0111465Y0054634D01*
X0111582Y0054702D01*
X0111702Y0054767D01*
X0111823Y0054828D01*
X0111946Y0054886D01*
X0112071Y0054940D01*
X0112197Y0054990D01*
X0112324Y0055037D01*
X0112453Y0055081D01*
X0112583Y0055120D01*
X0112714Y0055156D01*
X0112846Y0055188D01*
X0112979Y0055217D01*
X0113113Y0055241D01*
X0113247Y0055262D01*
X0113382Y0055279D01*
X0113517Y0055292D01*
X0113652Y0055301D01*
X0113788Y0055306D01*
X0113924Y0055308D01*
X0114060Y0055306D01*
X0114196Y0055299D01*
X0114196Y0066200D02*
X0114050Y0066199D01*
X0113905Y0066202D01*
X0113760Y0066209D01*
X0113615Y0066220D01*
X0113470Y0066235D01*
X0113326Y0066254D01*
X0113183Y0066277D01*
X0113040Y0066304D01*
X0112898Y0066335D01*
X0112756Y0066369D01*
X0112616Y0066407D01*
X0112477Y0066450D01*
X0112339Y0066495D01*
X0112202Y0066545D01*
X0112067Y0066598D01*
X0111934Y0066656D01*
X0111801Y0066716D01*
X0111671Y0066780D01*
X0111542Y0066848D01*
X0111416Y0066919D01*
X0111291Y0066994D01*
X0111168Y0067072D01*
X0111048Y0067154D01*
X0110930Y0067238D01*
X0110814Y0067326D01*
X0110700Y0067417D01*
X0110590Y0067511D01*
X0110481Y0067608D01*
X0110376Y0067708D01*
X0110273Y0067811D01*
X0110173Y0067916D01*
X0110076Y0068024D01*
X0109982Y0068135D01*
X0109891Y0068249D01*
X0109803Y0068364D01*
X0109718Y0068483D01*
X0109636Y0068603D01*
X0109558Y0068725D01*
X0109484Y0068850D01*
X0109412Y0068977D01*
X0109344Y0069105D01*
X0109280Y0069236D01*
X0109219Y0069368D01*
X0109162Y0069501D01*
X0109109Y0069637D01*
X0109059Y0069773D01*
X0109013Y0069911D01*
X0108970Y0070050D01*
X0097996Y0092500D02*
X0071296Y0092500D01*
X0071159Y0092502D01*
X0071021Y0092508D01*
X0070884Y0092517D01*
X0070747Y0092531D01*
X0070611Y0092548D01*
X0070475Y0092569D01*
X0070340Y0092594D01*
X0070206Y0092623D01*
X0070072Y0092655D01*
X0069940Y0092692D01*
X0069808Y0092731D01*
X0069678Y0092775D01*
X0069549Y0092822D01*
X0069421Y0092873D01*
X0069295Y0092927D01*
X0069170Y0092985D01*
X0069047Y0093047D01*
X0068926Y0093111D01*
X0068806Y0093180D01*
X0068689Y0093251D01*
X0068574Y0093326D01*
X0068461Y0093404D01*
X0068350Y0093485D01*
X0068241Y0093569D01*
X0068135Y0093656D01*
X0068031Y0093746D01*
X0067930Y0093839D01*
X0067831Y0093935D01*
X0067735Y0094034D01*
X0067642Y0094135D01*
X0067552Y0094239D01*
X0067465Y0094345D01*
X0067381Y0094454D01*
X0067300Y0094565D01*
X0067222Y0094678D01*
X0067147Y0094793D01*
X0067076Y0094910D01*
X0067007Y0095030D01*
X0066943Y0095151D01*
X0066881Y0095274D01*
X0066823Y0095399D01*
X0066769Y0095525D01*
X0066718Y0095653D01*
X0066671Y0095782D01*
X0066627Y0095912D01*
X0066588Y0096044D01*
X0066551Y0096176D01*
X0066519Y0096310D01*
X0066490Y0096444D01*
X0066465Y0096579D01*
X0066444Y0096715D01*
X0066427Y0096851D01*
X0066413Y0096988D01*
X0066404Y0097125D01*
X0066398Y0097263D01*
X0066396Y0097400D01*
X0053846Y0097400D02*
X0053844Y0097263D01*
X0053838Y0097125D01*
X0053829Y0096988D01*
X0053815Y0096851D01*
X0053798Y0096715D01*
X0053777Y0096579D01*
X0053752Y0096444D01*
X0053723Y0096310D01*
X0053691Y0096176D01*
X0053654Y0096044D01*
X0053615Y0095912D01*
X0053571Y0095782D01*
X0053524Y0095653D01*
X0053473Y0095525D01*
X0053419Y0095399D01*
X0053361Y0095274D01*
X0053299Y0095151D01*
X0053235Y0095030D01*
X0053166Y0094910D01*
X0053095Y0094793D01*
X0053020Y0094678D01*
X0052942Y0094565D01*
X0052861Y0094454D01*
X0052777Y0094345D01*
X0052690Y0094239D01*
X0052600Y0094135D01*
X0052507Y0094034D01*
X0052411Y0093935D01*
X0052312Y0093839D01*
X0052211Y0093746D01*
X0052107Y0093656D01*
X0052001Y0093569D01*
X0051892Y0093485D01*
X0051781Y0093404D01*
X0051668Y0093326D01*
X0051553Y0093251D01*
X0051436Y0093180D01*
X0051316Y0093111D01*
X0051195Y0093047D01*
X0051072Y0092985D01*
X0050947Y0092927D01*
X0050821Y0092873D01*
X0050693Y0092822D01*
X0050564Y0092775D01*
X0050434Y0092731D01*
X0050302Y0092692D01*
X0050170Y0092655D01*
X0050036Y0092623D01*
X0049902Y0092594D01*
X0049767Y0092569D01*
X0049631Y0092548D01*
X0049495Y0092531D01*
X0049358Y0092517D01*
X0049221Y0092508D01*
X0049083Y0092502D01*
X0048946Y0092500D01*
X0048796Y0092500D02*
X0022096Y0092500D01*
X0021996Y0092500D02*
X0021221Y0091580D01*
X0020469Y0090641D01*
X0019740Y0089684D01*
X0019034Y0088709D01*
X0018353Y0087717D01*
X0017697Y0086709D01*
X0017065Y0085685D01*
X0016458Y0084646D01*
X0015878Y0083592D01*
X0015323Y0082524D01*
X0014794Y0081443D01*
X0014293Y0080350D01*
X0013818Y0079244D01*
X0013370Y0078127D01*
X0012950Y0077000D01*
X0012558Y0075862D01*
X0012194Y0074716D01*
X0011858Y0073560D01*
X0011550Y0072397D01*
X0011271Y0071227D01*
X0011021Y0070050D01*
X0010800Y0068915D01*
X0010606Y0067774D01*
X0010438Y0066629D01*
X0010298Y0065481D01*
X0010184Y0064330D01*
X0010098Y0063176D01*
X0010038Y0062021D01*
X0010006Y0060864D01*
X0010000Y0059707D01*
X0010022Y0058551D01*
X0010071Y0057395D01*
X0010147Y0056240D01*
X0010250Y0055088D01*
X0010380Y0053939D01*
X0010537Y0052792D01*
X0010721Y0051650D01*
X0059996Y0010000D02*
X0061205Y0010014D01*
X0062414Y0010057D01*
X0063621Y0010129D01*
X0064826Y0010231D01*
X0066029Y0010361D01*
X0067228Y0010521D01*
X0068422Y0010710D01*
X0069612Y0010927D01*
X0070796Y0011174D01*
X0071974Y0011449D01*
X0073144Y0011752D01*
X0074307Y0012084D01*
X0075462Y0012444D01*
X0076608Y0012831D01*
X0077744Y0013246D01*
X0078869Y0013689D01*
X0079984Y0014159D01*
X0081086Y0014655D01*
X0082177Y0015179D01*
X0083254Y0015728D01*
X0084318Y0016304D01*
X0085368Y0016905D01*
X0086402Y0017531D01*
X0087421Y0018182D01*
X0088424Y0018858D01*
X0089411Y0019557D01*
X0090380Y0020281D01*
X0091332Y0021027D01*
X0092265Y0021797D01*
X0093179Y0022589D01*
X0094073Y0023402D01*
X0094948Y0024238D01*
X0095802Y0025094D01*
X0096636Y0025970D01*
X0097447Y0026867D01*
X0098237Y0027783D01*
X0099005Y0028718D01*
X0099749Y0029671D01*
X0100470Y0030641D01*
X0101168Y0031630D01*
X0101841Y0032634D01*
X0102490Y0033655D01*
X0103114Y0034691D01*
X0103713Y0035742D01*
X0104286Y0036807D01*
X0104833Y0037885D01*
X0105354Y0038977D01*
X0105848Y0040081D01*
X0106315Y0041196D01*
X0106755Y0042323D01*
X0107168Y0043460D01*
X0107553Y0044606D01*
X0107910Y0045762D01*
X0108239Y0046925D01*
X0108540Y0048097D01*
X0108812Y0049275D01*
X0109056Y0050460D01*
X0109271Y0051650D01*
X0108971Y0070050D02*
X0108721Y0071227D01*
X0108442Y0072397D01*
X0108134Y0073560D01*
X0107798Y0074716D01*
X0107434Y0075862D01*
X0107042Y0077000D01*
X0106622Y0078127D01*
X0106174Y0079244D01*
X0105699Y0080350D01*
X0105198Y0081443D01*
X0104669Y0082524D01*
X0104114Y0083592D01*
X0103534Y0084646D01*
X0102927Y0085685D01*
X0102295Y0086709D01*
X0101639Y0087717D01*
X0100958Y0088709D01*
X0100252Y0089684D01*
X0099523Y0090641D01*
X0098771Y0091580D01*
X0097996Y0092500D01*
X0222500Y0010000D02*
G75*
%LPD*%
D164*
X0222500Y0055299D02*
X0222636Y0055306D01*
X0222772Y0055308D01*
X0222908Y0055306D01*
X0223044Y0055301D01*
X0223179Y0055292D01*
X0223314Y0055279D01*
X0223449Y0055262D01*
X0223583Y0055241D01*
X0223717Y0055217D01*
X0223850Y0055188D01*
X0223982Y0055156D01*
X0224113Y0055120D01*
X0224243Y0055081D01*
X0224372Y0055037D01*
X0224499Y0054990D01*
X0224625Y0054940D01*
X0224750Y0054886D01*
X0224873Y0054828D01*
X0224994Y0054767D01*
X0225114Y0054702D01*
X0225231Y0054634D01*
X0225347Y0054563D01*
X0225461Y0054488D01*
X0225572Y0054411D01*
X0225681Y0054330D01*
X0225788Y0054246D01*
X0225892Y0054159D01*
X0225994Y0054069D01*
X0226094Y0053976D01*
X0226190Y0053881D01*
X0226284Y0053782D01*
X0226375Y0053681D01*
X0226463Y0053578D01*
X0226548Y0053472D01*
X0226630Y0053364D01*
X0226709Y0053253D01*
X0226785Y0053140D01*
X0226857Y0053025D01*
X0226926Y0052908D01*
X0226992Y0052790D01*
X0227054Y0052669D01*
X0227113Y0052546D01*
X0227169Y0052422D01*
X0227221Y0052297D01*
X0227269Y0052170D01*
X0227313Y0052041D01*
X0227354Y0051912D01*
X0227392Y0051781D01*
X0227425Y0051650D01*
X0222500Y0066200D02*
X0222646Y0066199D01*
X0222791Y0066202D01*
X0222936Y0066209D01*
X0223081Y0066220D01*
X0223226Y0066235D01*
X0223370Y0066254D01*
X0223513Y0066277D01*
X0223656Y0066304D01*
X0223798Y0066335D01*
X0223940Y0066369D01*
X0224080Y0066407D01*
X0224219Y0066450D01*
X0224357Y0066495D01*
X0224494Y0066545D01*
X0224629Y0066598D01*
X0224762Y0066656D01*
X0224895Y0066716D01*
X0225025Y0066780D01*
X0225154Y0066848D01*
X0225280Y0066919D01*
X0225405Y0066994D01*
X0225528Y0067072D01*
X0225648Y0067154D01*
X0225766Y0067238D01*
X0225882Y0067326D01*
X0225996Y0067417D01*
X0226106Y0067511D01*
X0226215Y0067608D01*
X0226320Y0067708D01*
X0226423Y0067811D01*
X0226523Y0067916D01*
X0226620Y0068024D01*
X0226714Y0068135D01*
X0226805Y0068249D01*
X0226893Y0068364D01*
X0226978Y0068483D01*
X0227060Y0068603D01*
X0227138Y0068725D01*
X0227212Y0068850D01*
X0227284Y0068977D01*
X0227352Y0069105D01*
X0227416Y0069236D01*
X0227477Y0069368D01*
X0227534Y0069501D01*
X0227587Y0069637D01*
X0227637Y0069773D01*
X0227683Y0069911D01*
X0227726Y0070050D01*
X0238800Y0092500D02*
X0265500Y0092500D01*
X0265650Y0092500D02*
X0265787Y0092502D01*
X0265925Y0092508D01*
X0266062Y0092517D01*
X0266199Y0092531D01*
X0266335Y0092548D01*
X0266471Y0092569D01*
X0266606Y0092594D01*
X0266740Y0092623D01*
X0266874Y0092655D01*
X0267006Y0092692D01*
X0267138Y0092731D01*
X0267268Y0092775D01*
X0267397Y0092822D01*
X0267525Y0092873D01*
X0267651Y0092927D01*
X0267776Y0092985D01*
X0267899Y0093047D01*
X0268020Y0093111D01*
X0268140Y0093180D01*
X0268257Y0093251D01*
X0268372Y0093326D01*
X0268485Y0093404D01*
X0268596Y0093485D01*
X0268705Y0093569D01*
X0268811Y0093656D01*
X0268915Y0093746D01*
X0269016Y0093839D01*
X0269115Y0093935D01*
X0269211Y0094034D01*
X0269304Y0094135D01*
X0269394Y0094239D01*
X0269481Y0094345D01*
X0269565Y0094454D01*
X0269646Y0094565D01*
X0269724Y0094678D01*
X0269799Y0094793D01*
X0269870Y0094910D01*
X0269939Y0095030D01*
X0270003Y0095151D01*
X0270065Y0095274D01*
X0270123Y0095399D01*
X0270177Y0095525D01*
X0270228Y0095653D01*
X0270275Y0095782D01*
X0270319Y0095912D01*
X0270358Y0096044D01*
X0270395Y0096176D01*
X0270427Y0096310D01*
X0270456Y0096444D01*
X0270481Y0096579D01*
X0270502Y0096715D01*
X0270519Y0096851D01*
X0270533Y0096988D01*
X0270542Y0097125D01*
X0270548Y0097263D01*
X0270550Y0097400D01*
X0283100Y0097400D02*
X0283102Y0097263D01*
X0283108Y0097125D01*
X0283117Y0096988D01*
X0283131Y0096851D01*
X0283148Y0096715D01*
X0283169Y0096579D01*
X0283194Y0096444D01*
X0283223Y0096310D01*
X0283255Y0096176D01*
X0283292Y0096044D01*
X0283331Y0095912D01*
X0283375Y0095782D01*
X0283422Y0095653D01*
X0283473Y0095525D01*
X0283527Y0095399D01*
X0283585Y0095274D01*
X0283647Y0095151D01*
X0283711Y0095030D01*
X0283780Y0094910D01*
X0283851Y0094793D01*
X0283926Y0094678D01*
X0284004Y0094565D01*
X0284085Y0094454D01*
X0284169Y0094345D01*
X0284256Y0094239D01*
X0284346Y0094135D01*
X0284439Y0094034D01*
X0284535Y0093935D01*
X0284634Y0093839D01*
X0284735Y0093746D01*
X0284839Y0093656D01*
X0284945Y0093569D01*
X0285054Y0093485D01*
X0285165Y0093404D01*
X0285278Y0093326D01*
X0285393Y0093251D01*
X0285510Y0093180D01*
X0285630Y0093111D01*
X0285751Y0093047D01*
X0285874Y0092985D01*
X0285999Y0092927D01*
X0286125Y0092873D01*
X0286253Y0092822D01*
X0286382Y0092775D01*
X0286512Y0092731D01*
X0286644Y0092692D01*
X0286776Y0092655D01*
X0286910Y0092623D01*
X0287044Y0092594D01*
X0287179Y0092569D01*
X0287315Y0092548D01*
X0287451Y0092531D01*
X0287588Y0092517D01*
X0287725Y0092508D01*
X0287863Y0092502D01*
X0288000Y0092500D01*
X0314700Y0092500D01*
X0315475Y0091580D01*
X0316227Y0090641D01*
X0316956Y0089684D01*
X0317662Y0088709D01*
X0318343Y0087717D01*
X0318999Y0086709D01*
X0319631Y0085685D01*
X0320238Y0084646D01*
X0320818Y0083592D01*
X0321373Y0082524D01*
X0321902Y0081443D01*
X0322403Y0080350D01*
X0322878Y0079244D01*
X0323326Y0078127D01*
X0323746Y0077000D01*
X0324138Y0075862D01*
X0324502Y0074716D01*
X0324838Y0073560D01*
X0325146Y0072397D01*
X0325425Y0071227D01*
X0325675Y0070050D01*
X0325896Y0068915D01*
X0326090Y0067774D01*
X0326258Y0066629D01*
X0326398Y0065481D01*
X0326512Y0064330D01*
X0326598Y0063176D01*
X0326658Y0062021D01*
X0326690Y0060864D01*
X0326696Y0059707D01*
X0326674Y0058551D01*
X0326625Y0057395D01*
X0326549Y0056240D01*
X0326446Y0055088D01*
X0326316Y0053939D01*
X0326159Y0052792D01*
X0325975Y0051650D01*
X0325760Y0050460D01*
X0325516Y0049275D01*
X0325244Y0048097D01*
X0324943Y0046925D01*
X0324614Y0045762D01*
X0324257Y0044606D01*
X0323872Y0043460D01*
X0323459Y0042323D01*
X0323019Y0041196D01*
X0322552Y0040081D01*
X0322058Y0038977D01*
X0321537Y0037885D01*
X0320990Y0036807D01*
X0320417Y0035742D01*
X0319818Y0034691D01*
X0319194Y0033655D01*
X0318545Y0032634D01*
X0317872Y0031630D01*
X0317174Y0030641D01*
X0316453Y0029671D01*
X0315709Y0028718D01*
X0314941Y0027783D01*
X0314151Y0026867D01*
X0313340Y0025970D01*
X0312506Y0025094D01*
X0311652Y0024238D01*
X0310777Y0023402D01*
X0309883Y0022589D01*
X0308969Y0021797D01*
X0308036Y0021027D01*
X0307084Y0020281D01*
X0306115Y0019557D01*
X0305128Y0018858D01*
X0304125Y0018182D01*
X0303106Y0017531D01*
X0302072Y0016905D01*
X0301022Y0016304D01*
X0299958Y0015728D01*
X0298881Y0015179D01*
X0297790Y0014655D01*
X0296688Y0014159D01*
X0295573Y0013689D01*
X0294448Y0013246D01*
X0293312Y0012831D01*
X0292166Y0012444D01*
X0291011Y0012084D01*
X0289848Y0011752D01*
X0288678Y0011449D01*
X0287500Y0011174D01*
X0286316Y0010927D01*
X0285126Y0010710D01*
X0283932Y0010521D01*
X0282733Y0010361D01*
X0281530Y0010231D01*
X0280325Y0010129D01*
X0279118Y0010057D01*
X0277909Y0010014D01*
X0276700Y0010000D01*
X0275491Y0010014D01*
X0274282Y0010057D01*
X0273075Y0010129D01*
X0271870Y0010231D01*
X0270667Y0010361D01*
X0269468Y0010521D01*
X0268274Y0010710D01*
X0267084Y0010927D01*
X0265900Y0011174D01*
X0264722Y0011449D01*
X0263552Y0011752D01*
X0262389Y0012084D01*
X0261234Y0012444D01*
X0260088Y0012831D01*
X0258952Y0013246D01*
X0257827Y0013689D01*
X0256712Y0014159D01*
X0255610Y0014655D01*
X0254519Y0015179D01*
X0253442Y0015728D01*
X0252378Y0016304D01*
X0251328Y0016905D01*
X0250294Y0017531D01*
X0249275Y0018182D01*
X0248272Y0018858D01*
X0247285Y0019557D01*
X0246316Y0020281D01*
X0245364Y0021027D01*
X0244431Y0021797D01*
X0243517Y0022589D01*
X0242623Y0023402D01*
X0241748Y0024238D01*
X0240894Y0025094D01*
X0240060Y0025970D01*
X0239249Y0026867D01*
X0238459Y0027783D01*
X0237691Y0028718D01*
X0236947Y0029671D01*
X0236226Y0030641D01*
X0235528Y0031630D01*
X0234855Y0032634D01*
X0234206Y0033655D01*
X0233582Y0034691D01*
X0232983Y0035742D01*
X0232410Y0036807D01*
X0231863Y0037885D01*
X0231342Y0038977D01*
X0230848Y0040081D01*
X0230381Y0041196D01*
X0229941Y0042323D01*
X0229528Y0043460D01*
X0229143Y0044606D01*
X0228786Y0045762D01*
X0228457Y0046925D01*
X0228156Y0048097D01*
X0227884Y0049275D01*
X0227640Y0050460D01*
X0227425Y0051650D01*
X0227725Y0070050D02*
X0227975Y0071227D01*
X0228254Y0072397D01*
X0228562Y0073560D01*
X0228898Y0074716D01*
X0229262Y0075862D01*
X0229654Y0077000D01*
X0230074Y0078127D01*
X0230522Y0079244D01*
X0230997Y0080350D01*
X0231498Y0081443D01*
X0232027Y0082524D01*
X0232582Y0083592D01*
X0233162Y0084646D01*
X0233769Y0085685D01*
X0234401Y0086709D01*
X0235057Y0087717D01*
X0235738Y0088709D01*
X0236444Y0089684D01*
X0237173Y0090641D01*
X0237925Y0091580D01*
X0238700Y0092500D01*
X0114500Y0010000D02*
G75*
%LPD*%
D164*
X0114500Y0055299D02*
X0114636Y0055306D01*
X0114772Y0055308D01*
X0114908Y0055306D01*
X0115044Y0055301D01*
X0115179Y0055292D01*
X0115314Y0055279D01*
X0115449Y0055262D01*
X0115583Y0055241D01*
X0115717Y0055217D01*
X0115850Y0055188D01*
X0115982Y0055156D01*
X0116113Y0055120D01*
X0116243Y0055081D01*
X0116372Y0055037D01*
X0116499Y0054990D01*
X0116625Y0054940D01*
X0116750Y0054886D01*
X0116873Y0054828D01*
X0116994Y0054767D01*
X0117114Y0054702D01*
X0117231Y0054634D01*
X0117347Y0054563D01*
X0117461Y0054488D01*
X0117572Y0054411D01*
X0117681Y0054330D01*
X0117788Y0054246D01*
X0117892Y0054159D01*
X0117994Y0054069D01*
X0118094Y0053976D01*
X0118190Y0053881D01*
X0118284Y0053782D01*
X0118375Y0053681D01*
X0118463Y0053578D01*
X0118548Y0053472D01*
X0118630Y0053364D01*
X0118709Y0053253D01*
X0118785Y0053140D01*
X0118857Y0053025D01*
X0118926Y0052908D01*
X0118992Y0052790D01*
X0119054Y0052669D01*
X0119113Y0052546D01*
X0119169Y0052422D01*
X0119221Y0052297D01*
X0119269Y0052170D01*
X0119313Y0052041D01*
X0119354Y0051912D01*
X0119392Y0051781D01*
X0119425Y0051650D01*
X0114500Y0066200D02*
X0114646Y0066199D01*
X0114791Y0066202D01*
X0114936Y0066209D01*
X0115081Y0066220D01*
X0115226Y0066235D01*
X0115370Y0066254D01*
X0115513Y0066277D01*
X0115656Y0066304D01*
X0115798Y0066335D01*
X0115940Y0066369D01*
X0116080Y0066407D01*
X0116219Y0066450D01*
X0116357Y0066495D01*
X0116494Y0066545D01*
X0116629Y0066598D01*
X0116762Y0066656D01*
X0116895Y0066716D01*
X0117025Y0066780D01*
X0117154Y0066848D01*
X0117280Y0066919D01*
X0117405Y0066994D01*
X0117528Y0067072D01*
X0117648Y0067154D01*
X0117766Y0067238D01*
X0117882Y0067326D01*
X0117996Y0067417D01*
X0118106Y0067511D01*
X0118215Y0067608D01*
X0118320Y0067708D01*
X0118423Y0067811D01*
X0118523Y0067916D01*
X0118620Y0068024D01*
X0118714Y0068135D01*
X0118805Y0068249D01*
X0118893Y0068364D01*
X0118978Y0068483D01*
X0119060Y0068603D01*
X0119138Y0068725D01*
X0119212Y0068850D01*
X0119284Y0068977D01*
X0119352Y0069105D01*
X0119416Y0069236D01*
X0119477Y0069368D01*
X0119534Y0069501D01*
X0119587Y0069637D01*
X0119637Y0069773D01*
X0119683Y0069911D01*
X0119726Y0070050D01*
X0130800Y0092500D02*
X0157500Y0092500D01*
X0157650Y0092500D02*
X0157787Y0092502D01*
X0157925Y0092508D01*
X0158062Y0092517D01*
X0158199Y0092531D01*
X0158335Y0092548D01*
X0158471Y0092569D01*
X0158606Y0092594D01*
X0158740Y0092623D01*
X0158874Y0092655D01*
X0159006Y0092692D01*
X0159138Y0092731D01*
X0159268Y0092775D01*
X0159397Y0092822D01*
X0159525Y0092873D01*
X0159651Y0092927D01*
X0159776Y0092985D01*
X0159899Y0093047D01*
X0160020Y0093111D01*
X0160140Y0093180D01*
X0160257Y0093251D01*
X0160372Y0093326D01*
X0160485Y0093404D01*
X0160596Y0093485D01*
X0160705Y0093569D01*
X0160811Y0093656D01*
X0160915Y0093746D01*
X0161016Y0093839D01*
X0161115Y0093935D01*
X0161211Y0094034D01*
X0161304Y0094135D01*
X0161394Y0094239D01*
X0161481Y0094345D01*
X0161565Y0094454D01*
X0161646Y0094565D01*
X0161724Y0094678D01*
X0161799Y0094793D01*
X0161870Y0094910D01*
X0161939Y0095030D01*
X0162003Y0095151D01*
X0162065Y0095274D01*
X0162123Y0095399D01*
X0162177Y0095525D01*
X0162228Y0095653D01*
X0162275Y0095782D01*
X0162319Y0095912D01*
X0162358Y0096044D01*
X0162395Y0096176D01*
X0162427Y0096310D01*
X0162456Y0096444D01*
X0162481Y0096579D01*
X0162502Y0096715D01*
X0162519Y0096851D01*
X0162533Y0096988D01*
X0162542Y0097125D01*
X0162548Y0097263D01*
X0162550Y0097400D01*
X0175100Y0097400D02*
X0175102Y0097263D01*
X0175108Y0097125D01*
X0175117Y0096988D01*
X0175131Y0096851D01*
X0175148Y0096715D01*
X0175169Y0096579D01*
X0175194Y0096444D01*
X0175223Y0096310D01*
X0175255Y0096176D01*
X0175292Y0096044D01*
X0175331Y0095912D01*
X0175375Y0095782D01*
X0175422Y0095653D01*
X0175473Y0095525D01*
X0175527Y0095399D01*
X0175585Y0095274D01*
X0175647Y0095151D01*
X0175711Y0095030D01*
X0175780Y0094910D01*
X0175851Y0094793D01*
X0175926Y0094678D01*
X0176004Y0094565D01*
X0176085Y0094454D01*
X0176169Y0094345D01*
X0176256Y0094239D01*
X0176346Y0094135D01*
X0176439Y0094034D01*
X0176535Y0093935D01*
X0176634Y0093839D01*
X0176735Y0093746D01*
X0176839Y0093656D01*
X0176945Y0093569D01*
X0177054Y0093485D01*
X0177165Y0093404D01*
X0177278Y0093326D01*
X0177393Y0093251D01*
X0177510Y0093180D01*
X0177630Y0093111D01*
X0177751Y0093047D01*
X0177874Y0092985D01*
X0177999Y0092927D01*
X0178125Y0092873D01*
X0178253Y0092822D01*
X0178382Y0092775D01*
X0178512Y0092731D01*
X0178644Y0092692D01*
X0178776Y0092655D01*
X0178910Y0092623D01*
X0179044Y0092594D01*
X0179179Y0092569D01*
X0179315Y0092548D01*
X0179451Y0092531D01*
X0179588Y0092517D01*
X0179725Y0092508D01*
X0179863Y0092502D01*
X0180000Y0092500D01*
X0206700Y0092500D01*
X0217674Y0070050D02*
X0217717Y0069911D01*
X0217763Y0069773D01*
X0217813Y0069637D01*
X0217866Y0069501D01*
X0217923Y0069368D01*
X0217984Y0069236D01*
X0218048Y0069105D01*
X0218116Y0068977D01*
X0218188Y0068850D01*
X0218262Y0068725D01*
X0218340Y0068603D01*
X0218422Y0068483D01*
X0218507Y0068364D01*
X0218595Y0068249D01*
X0218686Y0068135D01*
X0218780Y0068024D01*
X0218877Y0067916D01*
X0218977Y0067811D01*
X0219080Y0067708D01*
X0219185Y0067608D01*
X0219294Y0067511D01*
X0219404Y0067417D01*
X0219518Y0067326D01*
X0219634Y0067238D01*
X0219752Y0067154D01*
X0219872Y0067072D01*
X0219995Y0066994D01*
X0220120Y0066919D01*
X0220246Y0066848D01*
X0220375Y0066780D01*
X0220505Y0066716D01*
X0220638Y0066656D01*
X0220771Y0066598D01*
X0220906Y0066545D01*
X0221043Y0066495D01*
X0221181Y0066450D01*
X0221320Y0066407D01*
X0221460Y0066369D01*
X0221602Y0066335D01*
X0221744Y0066304D01*
X0221887Y0066277D01*
X0222030Y0066254D01*
X0222174Y0066235D01*
X0222319Y0066220D01*
X0222464Y0066209D01*
X0222609Y0066202D01*
X0222754Y0066199D01*
X0222900Y0066200D01*
X0222900Y0055299D02*
X0222764Y0055306D01*
X0222628Y0055308D01*
X0222492Y0055306D01*
X0222356Y0055301D01*
X0222221Y0055292D01*
X0222086Y0055279D01*
X0221951Y0055262D01*
X0221817Y0055241D01*
X0221683Y0055217D01*
X0221550Y0055188D01*
X0221418Y0055156D01*
X0221287Y0055120D01*
X0221157Y0055081D01*
X0221028Y0055037D01*
X0220901Y0054990D01*
X0220775Y0054940D01*
X0220650Y0054886D01*
X0220527Y0054828D01*
X0220406Y0054767D01*
X0220286Y0054702D01*
X0220169Y0054634D01*
X0220053Y0054563D01*
X0219939Y0054488D01*
X0219828Y0054411D01*
X0219719Y0054330D01*
X0219612Y0054246D01*
X0219508Y0054159D01*
X0219406Y0054069D01*
X0219306Y0053976D01*
X0219210Y0053881D01*
X0219116Y0053782D01*
X0219025Y0053681D01*
X0218937Y0053578D01*
X0218852Y0053472D01*
X0218770Y0053364D01*
X0218691Y0053253D01*
X0218615Y0053140D01*
X0218543Y0053025D01*
X0218474Y0052908D01*
X0218408Y0052790D01*
X0218346Y0052669D01*
X0218287Y0052546D01*
X0218231Y0052422D01*
X0218179Y0052297D01*
X0218131Y0052170D01*
X0218087Y0052041D01*
X0218046Y0051912D01*
X0218008Y0051781D01*
X0217975Y0051650D01*
X0217675Y0070050D02*
X0217425Y0071227D01*
X0217146Y0072397D01*
X0216838Y0073560D01*
X0216502Y0074716D01*
X0216138Y0075862D01*
X0215746Y0077000D01*
X0215326Y0078127D01*
X0214878Y0079244D01*
X0214403Y0080350D01*
X0213902Y0081443D01*
X0213373Y0082524D01*
X0212818Y0083592D01*
X0212238Y0084646D01*
X0211631Y0085685D01*
X0210999Y0086709D01*
X0210343Y0087717D01*
X0209662Y0088709D01*
X0208956Y0089684D01*
X0208227Y0090641D01*
X0207475Y0091580D01*
X0206700Y0092500D01*
X0130700Y0092500D02*
X0129925Y0091580D01*
X0129173Y0090641D01*
X0128444Y0089684D01*
X0127738Y0088709D01*
X0127057Y0087717D01*
X0126401Y0086709D01*
X0125769Y0085685D01*
X0125162Y0084646D01*
X0124582Y0083592D01*
X0124027Y0082524D01*
X0123498Y0081443D01*
X0122997Y0080350D01*
X0122522Y0079244D01*
X0122074Y0078127D01*
X0121654Y0077000D01*
X0121262Y0075862D01*
X0120898Y0074716D01*
X0120562Y0073560D01*
X0120254Y0072397D01*
X0119975Y0071227D01*
X0119725Y0070050D01*
X0119425Y0051650D02*
X0119640Y0050460D01*
X0119884Y0049275D01*
X0120156Y0048097D01*
X0120457Y0046925D01*
X0120786Y0045762D01*
X0121143Y0044606D01*
X0121528Y0043460D01*
X0121941Y0042323D01*
X0122381Y0041196D01*
X0122848Y0040081D01*
X0123342Y0038977D01*
X0123863Y0037885D01*
X0124410Y0036807D01*
X0124983Y0035742D01*
X0125582Y0034691D01*
X0126206Y0033655D01*
X0126855Y0032634D01*
X0127528Y0031630D01*
X0128226Y0030641D01*
X0128947Y0029671D01*
X0129691Y0028718D01*
X0130459Y0027783D01*
X0131249Y0026867D01*
X0132060Y0025970D01*
X0132894Y0025094D01*
X0133748Y0024238D01*
X0134623Y0023402D01*
X0135517Y0022589D01*
X0136431Y0021797D01*
X0137364Y0021027D01*
X0138316Y0020281D01*
X0139285Y0019557D01*
X0140272Y0018858D01*
X0141275Y0018182D01*
X0142294Y0017531D01*
X0143328Y0016905D01*
X0144378Y0016304D01*
X0145442Y0015728D01*
X0146519Y0015179D01*
X0147610Y0014655D01*
X0148712Y0014159D01*
X0149827Y0013689D01*
X0150952Y0013246D01*
X0152088Y0012831D01*
X0153234Y0012444D01*
X0154389Y0012084D01*
X0155552Y0011752D01*
X0156722Y0011449D01*
X0157900Y0011174D01*
X0159084Y0010927D01*
X0160274Y0010710D01*
X0161468Y0010521D01*
X0162667Y0010361D01*
X0163870Y0010231D01*
X0165075Y0010129D01*
X0166282Y0010057D01*
X0167491Y0010014D01*
X0168700Y0010000D01*
X0169909Y0010014D01*
X0171118Y0010057D01*
X0172325Y0010129D01*
X0173530Y0010231D01*
X0174733Y0010361D01*
X0175932Y0010521D01*
X0177126Y0010710D01*
X0178316Y0010927D01*
X0179500Y0011174D01*
X0180678Y0011449D01*
X0181848Y0011752D01*
X0183011Y0012084D01*
X0184166Y0012444D01*
X0185312Y0012831D01*
X0186448Y0013246D01*
X0187573Y0013689D01*
X0188688Y0014159D01*
X0189790Y0014655D01*
X0190881Y0015179D01*
X0191958Y0015728D01*
X0193022Y0016304D01*
X0194072Y0016905D01*
X0195106Y0017531D01*
X0196125Y0018182D01*
X0197128Y0018858D01*
X0198115Y0019557D01*
X0199084Y0020281D01*
X0200036Y0021027D01*
X0200969Y0021797D01*
X0201883Y0022589D01*
X0202777Y0023402D01*
X0203652Y0024238D01*
X0204506Y0025094D01*
X0205340Y0025970D01*
X0206151Y0026867D01*
X0206941Y0027783D01*
X0207709Y0028718D01*
X0208453Y0029671D01*
X0209174Y0030641D01*
X0209872Y0031630D01*
X0210545Y0032634D01*
X0211194Y0033655D01*
X0211818Y0034691D01*
X0212417Y0035742D01*
X0212990Y0036807D01*
X0213537Y0037885D01*
X0214058Y0038977D01*
X0214552Y0040081D01*
X0215019Y0041196D01*
X0215459Y0042323D01*
X0215872Y0043460D01*
X0216257Y0044606D01*
X0216614Y0045762D01*
X0216943Y0046925D01*
X0217244Y0048097D01*
X0217516Y0049275D01*
X0217760Y0050460D01*
X0217975Y0051650D01*
X0222700Y0097000D02*
G75*
%LPD*%
D164*
X0326175Y0142750D02*
X0325960Y0143940D01*
X0325716Y0145125D01*
X0325444Y0146303D01*
X0325143Y0147475D01*
X0324814Y0148638D01*
X0324457Y0149794D01*
X0324072Y0150940D01*
X0323659Y0152077D01*
X0323219Y0153204D01*
X0322752Y0154319D01*
X0322258Y0155423D01*
X0321737Y0156515D01*
X0321190Y0157593D01*
X0320617Y0158658D01*
X0320018Y0159709D01*
X0319394Y0160745D01*
X0318745Y0161766D01*
X0318072Y0162770D01*
X0317374Y0163759D01*
X0316653Y0164729D01*
X0315909Y0165682D01*
X0315141Y0166617D01*
X0314351Y0167533D01*
X0313540Y0168430D01*
X0312706Y0169306D01*
X0311852Y0170162D01*
X0310977Y0170998D01*
X0310083Y0171811D01*
X0309169Y0172603D01*
X0308236Y0173373D01*
X0307284Y0174119D01*
X0306315Y0174843D01*
X0305328Y0175542D01*
X0304325Y0176218D01*
X0303306Y0176869D01*
X0302272Y0177495D01*
X0301222Y0178096D01*
X0300158Y0178672D01*
X0299081Y0179221D01*
X0297990Y0179745D01*
X0296888Y0180241D01*
X0295773Y0180711D01*
X0294648Y0181154D01*
X0293512Y0181569D01*
X0292366Y0181956D01*
X0291211Y0182316D01*
X0290048Y0182648D01*
X0288878Y0182951D01*
X0287700Y0183226D01*
X0286516Y0183473D01*
X0285326Y0183690D01*
X0284132Y0183879D01*
X0282933Y0184039D01*
X0281730Y0184169D01*
X0280525Y0184271D01*
X0279318Y0184343D01*
X0278109Y0184386D01*
X0276900Y0184400D01*
X0227625Y0142750D02*
X0227592Y0142619D01*
X0227554Y0142488D01*
X0227513Y0142359D01*
X0227469Y0142230D01*
X0227421Y0142103D01*
X0227369Y0141978D01*
X0227313Y0141854D01*
X0227254Y0141731D01*
X0227192Y0141610D01*
X0227126Y0141492D01*
X0227057Y0141375D01*
X0226985Y0141260D01*
X0226909Y0141147D01*
X0226830Y0141036D01*
X0226748Y0140928D01*
X0226663Y0140822D01*
X0226575Y0140719D01*
X0226484Y0140618D01*
X0226390Y0140519D01*
X0226294Y0140424D01*
X0226194Y0140331D01*
X0226092Y0140241D01*
X0225988Y0140154D01*
X0225881Y0140070D01*
X0225772Y0139989D01*
X0225661Y0139912D01*
X0225547Y0139837D01*
X0225431Y0139766D01*
X0225314Y0139698D01*
X0225194Y0139633D01*
X0225073Y0139572D01*
X0224950Y0139514D01*
X0224825Y0139460D01*
X0224699Y0139410D01*
X0224572Y0139363D01*
X0224443Y0139319D01*
X0224313Y0139280D01*
X0224182Y0139244D01*
X0224050Y0139212D01*
X0223917Y0139183D01*
X0223783Y0139159D01*
X0223649Y0139138D01*
X0223514Y0139121D01*
X0223379Y0139108D01*
X0223244Y0139099D01*
X0223108Y0139094D01*
X0222972Y0139092D01*
X0222836Y0139094D01*
X0222700Y0139101D01*
X0222700Y0128200D02*
X0222846Y0128201D01*
X0222991Y0128198D01*
X0223136Y0128191D01*
X0223281Y0128180D01*
X0223426Y0128165D01*
X0223570Y0128146D01*
X0223713Y0128123D01*
X0223856Y0128096D01*
X0223998Y0128065D01*
X0224140Y0128031D01*
X0224280Y0127993D01*
X0224419Y0127950D01*
X0224557Y0127905D01*
X0224694Y0127855D01*
X0224829Y0127802D01*
X0224962Y0127744D01*
X0225095Y0127684D01*
X0225225Y0127620D01*
X0225354Y0127552D01*
X0225480Y0127481D01*
X0225605Y0127406D01*
X0225728Y0127328D01*
X0225848Y0127246D01*
X0225966Y0127162D01*
X0226082Y0127074D01*
X0226196Y0126983D01*
X0226306Y0126889D01*
X0226415Y0126792D01*
X0226520Y0126692D01*
X0226623Y0126589D01*
X0226723Y0126484D01*
X0226820Y0126376D01*
X0226914Y0126265D01*
X0227005Y0126151D01*
X0227093Y0126036D01*
X0227178Y0125917D01*
X0227260Y0125797D01*
X0227338Y0125675D01*
X0227412Y0125550D01*
X0227484Y0125423D01*
X0227552Y0125295D01*
X0227616Y0125164D01*
X0227677Y0125032D01*
X0227734Y0124899D01*
X0227787Y0124763D01*
X0227837Y0124627D01*
X0227883Y0124489D01*
X0227926Y0124350D01*
X0238900Y0101900D02*
X0265600Y0101900D01*
X0265737Y0101898D01*
X0265875Y0101892D01*
X0266012Y0101883D01*
X0266149Y0101869D01*
X0266285Y0101852D01*
X0266421Y0101831D01*
X0266556Y0101806D01*
X0266690Y0101777D01*
X0266824Y0101745D01*
X0266956Y0101708D01*
X0267088Y0101669D01*
X0267218Y0101625D01*
X0267347Y0101578D01*
X0267475Y0101527D01*
X0267601Y0101473D01*
X0267726Y0101415D01*
X0267849Y0101353D01*
X0267970Y0101289D01*
X0268090Y0101220D01*
X0268207Y0101149D01*
X0268322Y0101074D01*
X0268435Y0100996D01*
X0268546Y0100915D01*
X0268655Y0100831D01*
X0268761Y0100744D01*
X0268865Y0100654D01*
X0268966Y0100561D01*
X0269065Y0100465D01*
X0269161Y0100366D01*
X0269254Y0100265D01*
X0269344Y0100161D01*
X0269431Y0100055D01*
X0269515Y0099946D01*
X0269596Y0099835D01*
X0269674Y0099722D01*
X0269749Y0099607D01*
X0269820Y0099490D01*
X0269889Y0099370D01*
X0269953Y0099249D01*
X0270015Y0099126D01*
X0270073Y0099001D01*
X0270127Y0098875D01*
X0270178Y0098747D01*
X0270225Y0098618D01*
X0270269Y0098488D01*
X0270308Y0098356D01*
X0270345Y0098224D01*
X0270377Y0098090D01*
X0270406Y0097956D01*
X0270431Y0097821D01*
X0270452Y0097685D01*
X0270469Y0097549D01*
X0270483Y0097412D01*
X0270492Y0097275D01*
X0270498Y0097137D01*
X0270500Y0097000D01*
X0283050Y0097000D02*
X0283052Y0097137D01*
X0283058Y0097275D01*
X0283067Y0097412D01*
X0283081Y0097549D01*
X0283098Y0097685D01*
X0283119Y0097821D01*
X0283144Y0097956D01*
X0283173Y0098090D01*
X0283205Y0098224D01*
X0283242Y0098356D01*
X0283281Y0098488D01*
X0283325Y0098618D01*
X0283372Y0098747D01*
X0283423Y0098875D01*
X0283477Y0099001D01*
X0283535Y0099126D01*
X0283597Y0099249D01*
X0283661Y0099370D01*
X0283730Y0099490D01*
X0283801Y0099607D01*
X0283876Y0099722D01*
X0283954Y0099835D01*
X0284035Y0099946D01*
X0284119Y0100055D01*
X0284206Y0100161D01*
X0284296Y0100265D01*
X0284389Y0100366D01*
X0284485Y0100465D01*
X0284584Y0100561D01*
X0284685Y0100654D01*
X0284789Y0100744D01*
X0284895Y0100831D01*
X0285004Y0100915D01*
X0285115Y0100996D01*
X0285228Y0101074D01*
X0285343Y0101149D01*
X0285460Y0101220D01*
X0285580Y0101289D01*
X0285701Y0101353D01*
X0285824Y0101415D01*
X0285949Y0101473D01*
X0286075Y0101527D01*
X0286203Y0101578D01*
X0286332Y0101625D01*
X0286462Y0101669D01*
X0286594Y0101708D01*
X0286726Y0101745D01*
X0286860Y0101777D01*
X0286994Y0101806D01*
X0287129Y0101831D01*
X0287265Y0101852D01*
X0287401Y0101869D01*
X0287538Y0101883D01*
X0287675Y0101892D01*
X0287813Y0101898D01*
X0287950Y0101900D01*
X0288100Y0101900D02*
X0314800Y0101900D01*
X0314900Y0101900D02*
X0315675Y0102820D01*
X0316427Y0103759D01*
X0317156Y0104716D01*
X0317862Y0105691D01*
X0318543Y0106683D01*
X0319199Y0107691D01*
X0319831Y0108715D01*
X0320438Y0109754D01*
X0321018Y0110808D01*
X0321573Y0111876D01*
X0322102Y0112957D01*
X0322603Y0114050D01*
X0323078Y0115156D01*
X0323526Y0116273D01*
X0323946Y0117400D01*
X0324338Y0118538D01*
X0324702Y0119684D01*
X0325038Y0120840D01*
X0325346Y0122003D01*
X0325625Y0123173D01*
X0325875Y0124350D01*
X0326096Y0125485D01*
X0326290Y0126626D01*
X0326458Y0127771D01*
X0326598Y0128919D01*
X0326712Y0130070D01*
X0326798Y0131224D01*
X0326858Y0132379D01*
X0326890Y0133536D01*
X0326896Y0134693D01*
X0326874Y0135849D01*
X0326825Y0137005D01*
X0326749Y0138160D01*
X0326646Y0139312D01*
X0326516Y0140461D01*
X0326359Y0141608D01*
X0326175Y0142750D01*
X0276900Y0184400D02*
X0275691Y0184386D01*
X0274482Y0184343D01*
X0273275Y0184271D01*
X0272070Y0184169D01*
X0270867Y0184039D01*
X0269668Y0183879D01*
X0268474Y0183690D01*
X0267284Y0183473D01*
X0266100Y0183226D01*
X0264922Y0182951D01*
X0263752Y0182648D01*
X0262589Y0182316D01*
X0261434Y0181956D01*
X0260288Y0181569D01*
X0259152Y0181154D01*
X0258027Y0180711D01*
X0256912Y0180241D01*
X0255810Y0179745D01*
X0254719Y0179221D01*
X0253642Y0178672D01*
X0252578Y0178096D01*
X0251528Y0177495D01*
X0250494Y0176869D01*
X0249475Y0176218D01*
X0248472Y0175542D01*
X0247485Y0174843D01*
X0246516Y0174119D01*
X0245564Y0173373D01*
X0244631Y0172603D01*
X0243717Y0171811D01*
X0242823Y0170998D01*
X0241948Y0170162D01*
X0241094Y0169306D01*
X0240260Y0168430D01*
X0239449Y0167533D01*
X0238659Y0166617D01*
X0237891Y0165682D01*
X0237147Y0164729D01*
X0236426Y0163759D01*
X0235728Y0162770D01*
X0235055Y0161766D01*
X0234406Y0160745D01*
X0233782Y0159709D01*
X0233183Y0158658D01*
X0232610Y0157593D01*
X0232063Y0156515D01*
X0231542Y0155423D01*
X0231048Y0154319D01*
X0230581Y0153204D01*
X0230141Y0152077D01*
X0229728Y0150940D01*
X0229343Y0149794D01*
X0228986Y0148638D01*
X0228657Y0147475D01*
X0228356Y0146303D01*
X0228084Y0145125D01*
X0227840Y0143940D01*
X0227625Y0142750D01*
X0227925Y0124350D02*
X0228175Y0123173D01*
X0228454Y0122003D01*
X0228762Y0120840D01*
X0229098Y0119684D01*
X0229462Y0118538D01*
X0229854Y0117400D01*
X0230274Y0116273D01*
X0230722Y0115156D01*
X0231197Y0114050D01*
X0231698Y0112957D01*
X0232227Y0111876D01*
X0232782Y0110808D01*
X0233362Y0109754D01*
X0233969Y0108715D01*
X0234601Y0107691D01*
X0235257Y0106683D01*
X0235938Y0105691D01*
X0236644Y0104716D01*
X0237373Y0103759D01*
X0238125Y0102820D01*
X0238900Y0101900D01*
X0010200Y0097000D02*
G75*
%LPD*%
D164*
X0114396Y0139101D02*
X0114260Y0139094D01*
X0114124Y0139092D01*
X0113988Y0139094D01*
X0113852Y0139099D01*
X0113717Y0139108D01*
X0113582Y0139121D01*
X0113447Y0139138D01*
X0113313Y0139159D01*
X0113179Y0139183D01*
X0113046Y0139212D01*
X0112914Y0139244D01*
X0112783Y0139280D01*
X0112653Y0139319D01*
X0112524Y0139363D01*
X0112397Y0139410D01*
X0112271Y0139460D01*
X0112146Y0139514D01*
X0112023Y0139572D01*
X0111902Y0139633D01*
X0111782Y0139698D01*
X0111665Y0139766D01*
X0111549Y0139837D01*
X0111435Y0139912D01*
X0111324Y0139989D01*
X0111215Y0140070D01*
X0111108Y0140154D01*
X0111004Y0140241D01*
X0110902Y0140331D01*
X0110802Y0140424D01*
X0110706Y0140519D01*
X0110612Y0140618D01*
X0110521Y0140719D01*
X0110433Y0140822D01*
X0110348Y0140928D01*
X0110266Y0141036D01*
X0110187Y0141147D01*
X0110111Y0141260D01*
X0110039Y0141375D01*
X0109970Y0141492D01*
X0109904Y0141610D01*
X0109842Y0141731D01*
X0109783Y0141854D01*
X0109727Y0141978D01*
X0109675Y0142103D01*
X0109627Y0142230D01*
X0109583Y0142359D01*
X0109542Y0142488D01*
X0109504Y0142619D01*
X0109471Y0142750D01*
X0114396Y0128200D02*
X0114250Y0128201D01*
X0114105Y0128198D01*
X0113960Y0128191D01*
X0113815Y0128180D01*
X0113670Y0128165D01*
X0113526Y0128146D01*
X0113383Y0128123D01*
X0113240Y0128096D01*
X0113098Y0128065D01*
X0112956Y0128031D01*
X0112816Y0127993D01*
X0112677Y0127950D01*
X0112539Y0127905D01*
X0112402Y0127855D01*
X0112267Y0127802D01*
X0112134Y0127744D01*
X0112001Y0127684D01*
X0111871Y0127620D01*
X0111742Y0127552D01*
X0111616Y0127481D01*
X0111491Y0127406D01*
X0111368Y0127328D01*
X0111248Y0127246D01*
X0111130Y0127162D01*
X0111014Y0127074D01*
X0110900Y0126983D01*
X0110790Y0126889D01*
X0110681Y0126792D01*
X0110576Y0126692D01*
X0110473Y0126589D01*
X0110373Y0126484D01*
X0110276Y0126376D01*
X0110182Y0126265D01*
X0110091Y0126151D01*
X0110003Y0126036D01*
X0109918Y0125917D01*
X0109836Y0125797D01*
X0109758Y0125675D01*
X0109684Y0125550D01*
X0109612Y0125423D01*
X0109544Y0125295D01*
X0109480Y0125164D01*
X0109419Y0125032D01*
X0109362Y0124899D01*
X0109309Y0124763D01*
X0109259Y0124627D01*
X0109213Y0124489D01*
X0109170Y0124350D01*
X0098096Y0101900D02*
X0071396Y0101900D01*
X0071246Y0101900D02*
X0071109Y0101898D01*
X0070971Y0101892D01*
X0070834Y0101883D01*
X0070697Y0101869D01*
X0070561Y0101852D01*
X0070425Y0101831D01*
X0070290Y0101806D01*
X0070156Y0101777D01*
X0070022Y0101745D01*
X0069890Y0101708D01*
X0069758Y0101669D01*
X0069628Y0101625D01*
X0069499Y0101578D01*
X0069371Y0101527D01*
X0069245Y0101473D01*
X0069120Y0101415D01*
X0068997Y0101353D01*
X0068876Y0101289D01*
X0068756Y0101220D01*
X0068639Y0101149D01*
X0068524Y0101074D01*
X0068411Y0100996D01*
X0068300Y0100915D01*
X0068191Y0100831D01*
X0068085Y0100744D01*
X0067981Y0100654D01*
X0067880Y0100561D01*
X0067781Y0100465D01*
X0067685Y0100366D01*
X0067592Y0100265D01*
X0067502Y0100161D01*
X0067415Y0100055D01*
X0067331Y0099946D01*
X0067250Y0099835D01*
X0067172Y0099722D01*
X0067097Y0099607D01*
X0067026Y0099490D01*
X0066957Y0099370D01*
X0066893Y0099249D01*
X0066831Y0099126D01*
X0066773Y0099001D01*
X0066719Y0098875D01*
X0066668Y0098747D01*
X0066621Y0098618D01*
X0066577Y0098488D01*
X0066538Y0098356D01*
X0066501Y0098224D01*
X0066469Y0098090D01*
X0066440Y0097956D01*
X0066415Y0097821D01*
X0066394Y0097685D01*
X0066377Y0097549D01*
X0066363Y0097412D01*
X0066354Y0097275D01*
X0066348Y0097137D01*
X0066346Y0097000D01*
X0053796Y0097000D02*
X0053794Y0097137D01*
X0053788Y0097275D01*
X0053779Y0097412D01*
X0053765Y0097549D01*
X0053748Y0097685D01*
X0053727Y0097821D01*
X0053702Y0097956D01*
X0053673Y0098090D01*
X0053641Y0098224D01*
X0053604Y0098356D01*
X0053565Y0098488D01*
X0053521Y0098618D01*
X0053474Y0098747D01*
X0053423Y0098875D01*
X0053369Y0099001D01*
X0053311Y0099126D01*
X0053249Y0099249D01*
X0053185Y0099370D01*
X0053116Y0099490D01*
X0053045Y0099607D01*
X0052970Y0099722D01*
X0052892Y0099835D01*
X0052811Y0099946D01*
X0052727Y0100055D01*
X0052640Y0100161D01*
X0052550Y0100265D01*
X0052457Y0100366D01*
X0052361Y0100465D01*
X0052262Y0100561D01*
X0052161Y0100654D01*
X0052057Y0100744D01*
X0051951Y0100831D01*
X0051842Y0100915D01*
X0051731Y0100996D01*
X0051618Y0101074D01*
X0051503Y0101149D01*
X0051386Y0101220D01*
X0051266Y0101289D01*
X0051145Y0101353D01*
X0051022Y0101415D01*
X0050897Y0101473D01*
X0050771Y0101527D01*
X0050643Y0101578D01*
X0050514Y0101625D01*
X0050384Y0101669D01*
X0050252Y0101708D01*
X0050120Y0101745D01*
X0049986Y0101777D01*
X0049852Y0101806D01*
X0049717Y0101831D01*
X0049581Y0101852D01*
X0049445Y0101869D01*
X0049308Y0101883D01*
X0049171Y0101892D01*
X0049033Y0101898D01*
X0048896Y0101900D01*
X0022196Y0101900D01*
X0021421Y0102820D01*
X0020669Y0103759D01*
X0019940Y0104716D01*
X0019234Y0105691D01*
X0018553Y0106683D01*
X0017897Y0107691D01*
X0017265Y0108715D01*
X0016658Y0109754D01*
X0016078Y0110808D01*
X0015523Y0111876D01*
X0014994Y0112957D01*
X0014493Y0114050D01*
X0014018Y0115156D01*
X0013570Y0116273D01*
X0013150Y0117400D01*
X0012758Y0118538D01*
X0012394Y0119684D01*
X0012058Y0120840D01*
X0011750Y0122003D01*
X0011471Y0123173D01*
X0011221Y0124350D01*
X0011000Y0125485D01*
X0010806Y0126626D01*
X0010638Y0127771D01*
X0010498Y0128919D01*
X0010384Y0130070D01*
X0010298Y0131224D01*
X0010238Y0132379D01*
X0010206Y0133536D01*
X0010200Y0134693D01*
X0010222Y0135849D01*
X0010271Y0137005D01*
X0010347Y0138160D01*
X0010450Y0139312D01*
X0010580Y0140461D01*
X0010737Y0141608D01*
X0010921Y0142750D01*
X0011136Y0143940D01*
X0011380Y0145125D01*
X0011652Y0146303D01*
X0011953Y0147475D01*
X0012282Y0148638D01*
X0012639Y0149794D01*
X0013024Y0150940D01*
X0013437Y0152077D01*
X0013877Y0153204D01*
X0014344Y0154319D01*
X0014838Y0155423D01*
X0015359Y0156515D01*
X0015906Y0157593D01*
X0016479Y0158658D01*
X0017078Y0159709D01*
X0017702Y0160745D01*
X0018351Y0161766D01*
X0019024Y0162770D01*
X0019722Y0163759D01*
X0020443Y0164729D01*
X0021187Y0165682D01*
X0021955Y0166617D01*
X0022745Y0167533D01*
X0023556Y0168430D01*
X0024390Y0169306D01*
X0025244Y0170162D01*
X0026119Y0170998D01*
X0027013Y0171811D01*
X0027927Y0172603D01*
X0028860Y0173373D01*
X0029812Y0174119D01*
X0030781Y0174843D01*
X0031768Y0175542D01*
X0032771Y0176218D01*
X0033790Y0176869D01*
X0034824Y0177495D01*
X0035874Y0178096D01*
X0036938Y0178672D01*
X0038015Y0179221D01*
X0039106Y0179745D01*
X0040208Y0180241D01*
X0041323Y0180711D01*
X0042448Y0181154D01*
X0043584Y0181569D01*
X0044730Y0181956D01*
X0045885Y0182316D01*
X0047048Y0182648D01*
X0048218Y0182951D01*
X0049396Y0183226D01*
X0050580Y0183473D01*
X0051770Y0183690D01*
X0052964Y0183879D01*
X0054163Y0184039D01*
X0055366Y0184169D01*
X0056571Y0184271D01*
X0057778Y0184343D01*
X0058987Y0184386D01*
X0060196Y0184400D01*
X0061405Y0184386D01*
X0062614Y0184343D01*
X0063821Y0184271D01*
X0065026Y0184169D01*
X0066229Y0184039D01*
X0067428Y0183879D01*
X0068622Y0183690D01*
X0069812Y0183473D01*
X0070996Y0183226D01*
X0072174Y0182951D01*
X0073344Y0182648D01*
X0074507Y0182316D01*
X0075662Y0181956D01*
X0076808Y0181569D01*
X0077944Y0181154D01*
X0079069Y0180711D01*
X0080184Y0180241D01*
X0081286Y0179745D01*
X0082377Y0179221D01*
X0083454Y0178672D01*
X0084518Y0178096D01*
X0085568Y0177495D01*
X0086602Y0176869D01*
X0087621Y0176218D01*
X0088624Y0175542D01*
X0089611Y0174843D01*
X0090580Y0174119D01*
X0091532Y0173373D01*
X0092465Y0172603D01*
X0093379Y0171811D01*
X0094273Y0170998D01*
X0095148Y0170162D01*
X0096002Y0169306D01*
X0096836Y0168430D01*
X0097647Y0167533D01*
X0098437Y0166617D01*
X0099205Y0165682D01*
X0099949Y0164729D01*
X0100670Y0163759D01*
X0101368Y0162770D01*
X0102041Y0161766D01*
X0102690Y0160745D01*
X0103314Y0159709D01*
X0103913Y0158658D01*
X0104486Y0157593D01*
X0105033Y0156515D01*
X0105554Y0155423D01*
X0106048Y0154319D01*
X0106515Y0153204D01*
X0106955Y0152077D01*
X0107368Y0150940D01*
X0107753Y0149794D01*
X0108110Y0148638D01*
X0108439Y0147475D01*
X0108740Y0146303D01*
X0109012Y0145125D01*
X0109256Y0143940D01*
X0109471Y0142750D01*
X0109171Y0124350D02*
X0108921Y0123173D01*
X0108642Y0122003D01*
X0108334Y0120840D01*
X0107998Y0119684D01*
X0107634Y0118538D01*
X0107242Y0117400D01*
X0106822Y0116273D01*
X0106374Y0115156D01*
X0105899Y0114050D01*
X0105398Y0112957D01*
X0104869Y0111876D01*
X0104314Y0110808D01*
X0103734Y0109754D01*
X0103127Y0108715D01*
X0102495Y0107691D01*
X0101839Y0106683D01*
X0101158Y0105691D01*
X0100452Y0104716D01*
X0099723Y0103759D01*
X0098971Y0102820D01*
X0098196Y0101900D01*
X0114700Y0097000D02*
G75*
%LPD*%
D164*
X0223100Y0139101D02*
X0222964Y0139094D01*
X0222828Y0139092D01*
X0222692Y0139094D01*
X0222556Y0139099D01*
X0222421Y0139108D01*
X0222286Y0139121D01*
X0222151Y0139138D01*
X0222017Y0139159D01*
X0221883Y0139183D01*
X0221750Y0139212D01*
X0221618Y0139244D01*
X0221487Y0139280D01*
X0221357Y0139319D01*
X0221228Y0139363D01*
X0221101Y0139410D01*
X0220975Y0139460D01*
X0220850Y0139514D01*
X0220727Y0139572D01*
X0220606Y0139633D01*
X0220486Y0139698D01*
X0220369Y0139766D01*
X0220253Y0139837D01*
X0220139Y0139912D01*
X0220028Y0139989D01*
X0219919Y0140070D01*
X0219812Y0140154D01*
X0219708Y0140241D01*
X0219606Y0140331D01*
X0219506Y0140424D01*
X0219410Y0140519D01*
X0219316Y0140618D01*
X0219225Y0140719D01*
X0219137Y0140822D01*
X0219052Y0140928D01*
X0218970Y0141036D01*
X0218891Y0141147D01*
X0218815Y0141260D01*
X0218743Y0141375D01*
X0218674Y0141492D01*
X0218608Y0141610D01*
X0218546Y0141731D01*
X0218487Y0141854D01*
X0218431Y0141978D01*
X0218379Y0142103D01*
X0218331Y0142230D01*
X0218287Y0142359D01*
X0218246Y0142488D01*
X0218208Y0142619D01*
X0218175Y0142750D01*
X0223100Y0128200D02*
X0222954Y0128201D01*
X0222809Y0128198D01*
X0222664Y0128191D01*
X0222519Y0128180D01*
X0222374Y0128165D01*
X0222230Y0128146D01*
X0222087Y0128123D01*
X0221944Y0128096D01*
X0221802Y0128065D01*
X0221660Y0128031D01*
X0221520Y0127993D01*
X0221381Y0127950D01*
X0221243Y0127905D01*
X0221106Y0127855D01*
X0220971Y0127802D01*
X0220838Y0127744D01*
X0220705Y0127684D01*
X0220575Y0127620D01*
X0220446Y0127552D01*
X0220320Y0127481D01*
X0220195Y0127406D01*
X0220072Y0127328D01*
X0219952Y0127246D01*
X0219834Y0127162D01*
X0219718Y0127074D01*
X0219604Y0126983D01*
X0219494Y0126889D01*
X0219385Y0126792D01*
X0219280Y0126692D01*
X0219177Y0126589D01*
X0219077Y0126484D01*
X0218980Y0126376D01*
X0218886Y0126265D01*
X0218795Y0126151D01*
X0218707Y0126036D01*
X0218622Y0125917D01*
X0218540Y0125797D01*
X0218462Y0125675D01*
X0218388Y0125550D01*
X0218316Y0125423D01*
X0218248Y0125295D01*
X0218184Y0125164D01*
X0218123Y0125032D01*
X0218066Y0124899D01*
X0218013Y0124763D01*
X0217963Y0124627D01*
X0217917Y0124489D01*
X0217874Y0124350D01*
X0206800Y0101900D02*
X0180100Y0101900D01*
X0179950Y0101900D02*
X0179813Y0101898D01*
X0179675Y0101892D01*
X0179538Y0101883D01*
X0179401Y0101869D01*
X0179265Y0101852D01*
X0179129Y0101831D01*
X0178994Y0101806D01*
X0178860Y0101777D01*
X0178726Y0101745D01*
X0178594Y0101708D01*
X0178462Y0101669D01*
X0178332Y0101625D01*
X0178203Y0101578D01*
X0178075Y0101527D01*
X0177949Y0101473D01*
X0177824Y0101415D01*
X0177701Y0101353D01*
X0177580Y0101289D01*
X0177460Y0101220D01*
X0177343Y0101149D01*
X0177228Y0101074D01*
X0177115Y0100996D01*
X0177004Y0100915D01*
X0176895Y0100831D01*
X0176789Y0100744D01*
X0176685Y0100654D01*
X0176584Y0100561D01*
X0176485Y0100465D01*
X0176389Y0100366D01*
X0176296Y0100265D01*
X0176206Y0100161D01*
X0176119Y0100055D01*
X0176035Y0099946D01*
X0175954Y0099835D01*
X0175876Y0099722D01*
X0175801Y0099607D01*
X0175730Y0099490D01*
X0175661Y0099370D01*
X0175597Y0099249D01*
X0175535Y0099126D01*
X0175477Y0099001D01*
X0175423Y0098875D01*
X0175372Y0098747D01*
X0175325Y0098618D01*
X0175281Y0098488D01*
X0175242Y0098356D01*
X0175205Y0098224D01*
X0175173Y0098090D01*
X0175144Y0097956D01*
X0175119Y0097821D01*
X0175098Y0097685D01*
X0175081Y0097549D01*
X0175067Y0097412D01*
X0175058Y0097275D01*
X0175052Y0097137D01*
X0175050Y0097000D01*
X0162500Y0097000D02*
X0162498Y0097137D01*
X0162492Y0097275D01*
X0162483Y0097412D01*
X0162469Y0097549D01*
X0162452Y0097685D01*
X0162431Y0097821D01*
X0162406Y0097956D01*
X0162377Y0098090D01*
X0162345Y0098224D01*
X0162308Y0098356D01*
X0162269Y0098488D01*
X0162225Y0098618D01*
X0162178Y0098747D01*
X0162127Y0098875D01*
X0162073Y0099001D01*
X0162015Y0099126D01*
X0161953Y0099249D01*
X0161889Y0099370D01*
X0161820Y0099490D01*
X0161749Y0099607D01*
X0161674Y0099722D01*
X0161596Y0099835D01*
X0161515Y0099946D01*
X0161431Y0100055D01*
X0161344Y0100161D01*
X0161254Y0100265D01*
X0161161Y0100366D01*
X0161065Y0100465D01*
X0160966Y0100561D01*
X0160865Y0100654D01*
X0160761Y0100744D01*
X0160655Y0100831D01*
X0160546Y0100915D01*
X0160435Y0100996D01*
X0160322Y0101074D01*
X0160207Y0101149D01*
X0160090Y0101220D01*
X0159970Y0101289D01*
X0159849Y0101353D01*
X0159726Y0101415D01*
X0159601Y0101473D01*
X0159475Y0101527D01*
X0159347Y0101578D01*
X0159218Y0101625D01*
X0159088Y0101669D01*
X0158956Y0101708D01*
X0158824Y0101745D01*
X0158690Y0101777D01*
X0158556Y0101806D01*
X0158421Y0101831D01*
X0158285Y0101852D01*
X0158149Y0101869D01*
X0158012Y0101883D01*
X0157875Y0101892D01*
X0157737Y0101898D01*
X0157600Y0101900D01*
X0130900Y0101900D01*
X0119926Y0124350D02*
X0119883Y0124489D01*
X0119837Y0124627D01*
X0119787Y0124763D01*
X0119734Y0124899D01*
X0119677Y0125032D01*
X0119616Y0125164D01*
X0119552Y0125295D01*
X0119484Y0125423D01*
X0119412Y0125550D01*
X0119338Y0125675D01*
X0119260Y0125797D01*
X0119178Y0125917D01*
X0119093Y0126036D01*
X0119005Y0126151D01*
X0118914Y0126265D01*
X0118820Y0126376D01*
X0118723Y0126484D01*
X0118623Y0126589D01*
X0118520Y0126692D01*
X0118415Y0126792D01*
X0118306Y0126889D01*
X0118196Y0126983D01*
X0118082Y0127074D01*
X0117966Y0127162D01*
X0117848Y0127246D01*
X0117728Y0127328D01*
X0117605Y0127406D01*
X0117480Y0127481D01*
X0117354Y0127552D01*
X0117225Y0127620D01*
X0117095Y0127684D01*
X0116962Y0127744D01*
X0116829Y0127802D01*
X0116694Y0127855D01*
X0116557Y0127905D01*
X0116419Y0127950D01*
X0116280Y0127993D01*
X0116140Y0128031D01*
X0115998Y0128065D01*
X0115856Y0128096D01*
X0115713Y0128123D01*
X0115570Y0128146D01*
X0115426Y0128165D01*
X0115281Y0128180D01*
X0115136Y0128191D01*
X0114991Y0128198D01*
X0114846Y0128201D01*
X0114700Y0128200D01*
X0114700Y0139101D02*
X0114836Y0139094D01*
X0114972Y0139092D01*
X0115108Y0139094D01*
X0115244Y0139099D01*
X0115379Y0139108D01*
X0115514Y0139121D01*
X0115649Y0139138D01*
X0115783Y0139159D01*
X0115917Y0139183D01*
X0116050Y0139212D01*
X0116182Y0139244D01*
X0116313Y0139280D01*
X0116443Y0139319D01*
X0116572Y0139363D01*
X0116699Y0139410D01*
X0116825Y0139460D01*
X0116950Y0139514D01*
X0117073Y0139572D01*
X0117194Y0139633D01*
X0117314Y0139698D01*
X0117431Y0139766D01*
X0117547Y0139837D01*
X0117661Y0139912D01*
X0117772Y0139989D01*
X0117881Y0140070D01*
X0117988Y0140154D01*
X0118092Y0140241D01*
X0118194Y0140331D01*
X0118294Y0140424D01*
X0118390Y0140519D01*
X0118484Y0140618D01*
X0118575Y0140719D01*
X0118663Y0140822D01*
X0118748Y0140928D01*
X0118830Y0141036D01*
X0118909Y0141147D01*
X0118985Y0141260D01*
X0119057Y0141375D01*
X0119126Y0141492D01*
X0119192Y0141610D01*
X0119254Y0141731D01*
X0119313Y0141854D01*
X0119369Y0141978D01*
X0119421Y0142103D01*
X0119469Y0142230D01*
X0119513Y0142359D01*
X0119554Y0142488D01*
X0119592Y0142619D01*
X0119625Y0142750D01*
X0119925Y0124350D02*
X0120175Y0123173D01*
X0120454Y0122003D01*
X0120762Y0120840D01*
X0121098Y0119684D01*
X0121462Y0118538D01*
X0121854Y0117400D01*
X0122274Y0116273D01*
X0122722Y0115156D01*
X0123197Y0114050D01*
X0123698Y0112957D01*
X0124227Y0111876D01*
X0124782Y0110808D01*
X0125362Y0109754D01*
X0125969Y0108715D01*
X0126601Y0107691D01*
X0127257Y0106683D01*
X0127938Y0105691D01*
X0128644Y0104716D01*
X0129373Y0103759D01*
X0130125Y0102820D01*
X0130900Y0101900D01*
X0206900Y0101900D02*
X0207675Y0102820D01*
X0208427Y0103759D01*
X0209156Y0104716D01*
X0209862Y0105691D01*
X0210543Y0106683D01*
X0211199Y0107691D01*
X0211831Y0108715D01*
X0212438Y0109754D01*
X0213018Y0110808D01*
X0213573Y0111876D01*
X0214102Y0112957D01*
X0214603Y0114050D01*
X0215078Y0115156D01*
X0215526Y0116273D01*
X0215946Y0117400D01*
X0216338Y0118538D01*
X0216702Y0119684D01*
X0217038Y0120840D01*
X0217346Y0122003D01*
X0217625Y0123173D01*
X0217875Y0124350D01*
X0218175Y0142750D02*
X0217960Y0143940D01*
X0217716Y0145125D01*
X0217444Y0146303D01*
X0217143Y0147475D01*
X0216814Y0148638D01*
X0216457Y0149794D01*
X0216072Y0150940D01*
X0215659Y0152077D01*
X0215219Y0153204D01*
X0214752Y0154319D01*
X0214258Y0155423D01*
X0213737Y0156515D01*
X0213190Y0157593D01*
X0212617Y0158658D01*
X0212018Y0159709D01*
X0211394Y0160745D01*
X0210745Y0161766D01*
X0210072Y0162770D01*
X0209374Y0163759D01*
X0208653Y0164729D01*
X0207909Y0165682D01*
X0207141Y0166617D01*
X0206351Y0167533D01*
X0205540Y0168430D01*
X0204706Y0169306D01*
X0203852Y0170162D01*
X0202977Y0170998D01*
X0202083Y0171811D01*
X0201169Y0172603D01*
X0200236Y0173373D01*
X0199284Y0174119D01*
X0198315Y0174843D01*
X0197328Y0175542D01*
X0196325Y0176218D01*
X0195306Y0176869D01*
X0194272Y0177495D01*
X0193222Y0178096D01*
X0192158Y0178672D01*
X0191081Y0179221D01*
X0189990Y0179745D01*
X0188888Y0180241D01*
X0187773Y0180711D01*
X0186648Y0181154D01*
X0185512Y0181569D01*
X0184366Y0181956D01*
X0183211Y0182316D01*
X0182048Y0182648D01*
X0180878Y0182951D01*
X0179700Y0183226D01*
X0178516Y0183473D01*
X0177326Y0183690D01*
X0176132Y0183879D01*
X0174933Y0184039D01*
X0173730Y0184169D01*
X0172525Y0184271D01*
X0171318Y0184343D01*
X0170109Y0184386D01*
X0168900Y0184400D01*
X0167691Y0184386D01*
X0166482Y0184343D01*
X0165275Y0184271D01*
X0164070Y0184169D01*
X0162867Y0184039D01*
X0161668Y0183879D01*
X0160474Y0183690D01*
X0159284Y0183473D01*
X0158100Y0183226D01*
X0156922Y0182951D01*
X0155752Y0182648D01*
X0154589Y0182316D01*
X0153434Y0181956D01*
X0152288Y0181569D01*
X0151152Y0181154D01*
X0150027Y0180711D01*
X0148912Y0180241D01*
X0147810Y0179745D01*
X0146719Y0179221D01*
X0145642Y0178672D01*
X0144578Y0178096D01*
X0143528Y0177495D01*
X0142494Y0176869D01*
X0141475Y0176218D01*
X0140472Y0175542D01*
X0139485Y0174843D01*
X0138516Y0174119D01*
X0137564Y0173373D01*
X0136631Y0172603D01*
X0135717Y0171811D01*
X0134823Y0170998D01*
X0133948Y0170162D01*
X0133094Y0169306D01*
X0132260Y0168430D01*
X0131449Y0167533D01*
X0130659Y0166617D01*
X0129891Y0165682D01*
X0129147Y0164729D01*
X0128426Y0163759D01*
X0127728Y0162770D01*
X0127055Y0161766D01*
X0126406Y0160745D01*
X0125782Y0159709D01*
X0125183Y0158658D01*
X0124610Y0157593D01*
X0124063Y0156515D01*
X0123542Y0155423D01*
X0123048Y0154319D01*
X0122581Y0153204D01*
X0122141Y0152077D01*
X0121728Y0150940D01*
X0121343Y0149794D01*
X0120986Y0148638D01*
X0120657Y0147475D01*
X0120356Y0146303D01*
X0120084Y0145125D01*
X0119840Y0143940D01*
X0119625Y0142750D01*
M02*
