G75*
G70*
%OFA0B0*%
%FSLAX25Y25*%
%IPPOS*%
%LPD*%
%AMOC8*
5,1,8,0,0,1.08239X$1,22.5*
%
%ADD160R,0.01978X0.02569*%
%ADD162R,0.02569X0.01978*%
%ADD181R,0.05718X0.02175*%
%ADD199R,0.03198X0.01781*%
%ADD203R,0.02962X0.02175*%
%ADD222R,0.02750X0.02710*%
%ADD251R,0.06506X0.10049*%
%ADD275R,0.03198X0.01506*%
%ADD276R,0.04537X0.03356*%
%ADD88C,0.03800*%
X0010000Y0010000D02*
G75*
%LPD*%
D275*
X0017161Y0066850D03*
X0017161Y0068425D03*
X0017161Y0070000D03*
X0017161Y0071575D03*
X0017161Y0073150D03*
X0027831Y0073150D03*
X0027831Y0071575D03*
X0027831Y0070000D03*
X0027831Y0068425D03*
X0027831Y0066850D03*
X0092161Y0053150D03*
X0092161Y0051575D03*
X0092161Y0050000D03*
X0092161Y0048425D03*
X0092161Y0046850D03*
X0102831Y0046850D03*
X0102831Y0048425D03*
X0102831Y0050000D03*
X0102831Y0051575D03*
X0102831Y0053150D03*
D199*
X0102831Y0054921D03*
X0092161Y0054921D03*
X0092161Y0045079D03*
X0102831Y0045079D03*
X0027831Y0065079D03*
X0017161Y0065079D03*
X0017161Y0074921D03*
X0027831Y0074921D03*
D203*
X0033081Y0042937D03*
X0033081Y0039000D03*
X0033081Y0035063D03*
X0043711Y0035063D03*
X0043711Y0039000D03*
X0043711Y0042937D03*
D251*
X0038396Y0039000D03*
D181*
X0072366Y0076821D03*
X0072366Y0079380D03*
X0072366Y0081939D03*
X0078666Y0081939D03*
X0078666Y0079380D03*
X0078666Y0076821D03*
D162*
X0053947Y0077680D03*
X0053947Y0075711D03*
X0053947Y0073743D03*
X0053947Y0079648D03*
X0053947Y0081617D03*
X0045285Y0081617D03*
X0045285Y0079648D03*
X0045285Y0077680D03*
X0045285Y0075711D03*
X0045285Y0073743D03*
D160*
X0047648Y0073349D03*
X0049616Y0073349D03*
X0051585Y0073349D03*
X0051585Y0082011D03*
X0049616Y0082011D03*
X0047648Y0082011D03*
D276*
X0037516Y0081261D03*
X0037516Y0086379D03*
D222*
X0028196Y0035495D03*
X0028196Y0038905D03*
X0066196Y0079635D03*
X0066196Y0083045D03*
X0091176Y0075825D03*
X0091176Y0072415D03*
X0095596Y0072475D03*
X0095596Y0075885D03*
X0032196Y0082815D03*
X0032196Y0086225D03*
D88*
X0025396Y0088000D03*
X0022996Y0083600D03*
X0031996Y0075000D03*
X0035996Y0073000D03*
X0039796Y0070200D03*
X0035996Y0068000D03*
X0033996Y0064000D03*
X0047648Y0063600D03*
X0062996Y0069000D03*
X0049596Y0077600D03*
X0076996Y0069000D03*
X0086796Y0079800D03*
X0099196Y0064200D03*
X0102996Y0061600D03*
X0105996Y0058000D03*
X0086996Y0056000D03*
X0082996Y0054000D03*
X0081996Y0050000D03*
X0081996Y0046000D03*
X0076996Y0050000D03*
X0086996Y0045000D03*
X0094596Y0038800D03*
X0099796Y0038800D03*
X0081996Y0037000D03*
X0081996Y0026000D03*
X0063996Y0028500D03*
X0049996Y0034500D03*
X0047596Y0046600D03*
X0037496Y0050000D03*
X0021496Y0037000D03*
X0040996Y0022000D03*
X0062996Y0050000D03*
X0020496Y0056000D03*
X0222500Y0010000D02*
G75*
%LPD*%
D275*
X0233865Y0066850D03*
X0233865Y0068425D03*
X0233865Y0070000D03*
X0233865Y0071575D03*
X0233865Y0073150D03*
X0244535Y0073150D03*
X0244535Y0071575D03*
X0244535Y0070000D03*
X0244535Y0068425D03*
X0244535Y0066850D03*
X0308865Y0053150D03*
X0308865Y0051575D03*
X0308865Y0050000D03*
X0308865Y0048425D03*
X0308865Y0046850D03*
X0319535Y0046850D03*
X0319535Y0048425D03*
X0319535Y0050000D03*
X0319535Y0051575D03*
X0319535Y0053150D03*
D199*
X0319535Y0054921D03*
X0308865Y0054921D03*
X0308865Y0045079D03*
X0319535Y0045079D03*
X0244535Y0065079D03*
X0233865Y0065079D03*
X0233865Y0074921D03*
X0244535Y0074921D03*
D203*
X0249785Y0042937D03*
X0249785Y0039000D03*
X0249785Y0035063D03*
X0260415Y0035063D03*
X0260415Y0039000D03*
X0260415Y0042937D03*
D251*
X0255100Y0039000D03*
D181*
X0289070Y0076821D03*
X0289070Y0079380D03*
X0289070Y0081939D03*
X0295370Y0081939D03*
X0295370Y0079380D03*
X0295370Y0076821D03*
D162*
X0270651Y0077680D03*
X0270651Y0075711D03*
X0270651Y0073743D03*
X0270651Y0079648D03*
X0270651Y0081617D03*
X0261989Y0081617D03*
X0261989Y0079648D03*
X0261989Y0077680D03*
X0261989Y0075711D03*
X0261989Y0073743D03*
D160*
X0264352Y0073349D03*
X0266320Y0073349D03*
X0268289Y0073349D03*
X0268289Y0082011D03*
X0266320Y0082011D03*
X0264352Y0082011D03*
D276*
X0254220Y0081261D03*
X0254220Y0086379D03*
D222*
X0244900Y0035495D03*
X0244900Y0038905D03*
X0282900Y0079635D03*
X0282900Y0083045D03*
X0307880Y0075825D03*
X0307880Y0072415D03*
X0312300Y0072475D03*
X0312300Y0075885D03*
X0248900Y0082815D03*
X0248900Y0086225D03*
D88*
X0242100Y0088000D03*
X0239700Y0083600D03*
X0248700Y0075000D03*
X0252700Y0073000D03*
X0256500Y0070200D03*
X0252700Y0068000D03*
X0250700Y0064000D03*
X0264352Y0063600D03*
X0279700Y0069000D03*
X0266300Y0077600D03*
X0293700Y0069000D03*
X0303500Y0079800D03*
X0315900Y0064200D03*
X0319700Y0061600D03*
X0322700Y0058000D03*
X0303700Y0056000D03*
X0299700Y0054000D03*
X0298700Y0050000D03*
X0298700Y0046000D03*
X0293700Y0050000D03*
X0303700Y0045000D03*
X0311300Y0038800D03*
X0316500Y0038800D03*
X0298700Y0037000D03*
X0298700Y0026000D03*
X0280700Y0028500D03*
X0266700Y0034500D03*
X0264300Y0046600D03*
X0254200Y0050000D03*
X0238200Y0037000D03*
X0257700Y0022000D03*
X0279700Y0050000D03*
X0237200Y0056000D03*
X0114500Y0010000D02*
G75*
%LPD*%
D275*
X0125865Y0066850D03*
X0125865Y0068425D03*
X0125865Y0070000D03*
X0125865Y0071575D03*
X0125865Y0073150D03*
X0136535Y0073150D03*
X0136535Y0071575D03*
X0136535Y0070000D03*
X0136535Y0068425D03*
X0136535Y0066850D03*
X0200865Y0053150D03*
X0200865Y0051575D03*
X0200865Y0050000D03*
X0200865Y0048425D03*
X0200865Y0046850D03*
X0211535Y0046850D03*
X0211535Y0048425D03*
X0211535Y0050000D03*
X0211535Y0051575D03*
X0211535Y0053150D03*
D199*
X0211535Y0054921D03*
X0200865Y0054921D03*
X0200865Y0045079D03*
X0211535Y0045079D03*
X0136535Y0065079D03*
X0125865Y0065079D03*
X0125865Y0074921D03*
X0136535Y0074921D03*
D203*
X0141785Y0042937D03*
X0141785Y0039000D03*
X0141785Y0035063D03*
X0152415Y0035063D03*
X0152415Y0039000D03*
X0152415Y0042937D03*
D251*
X0147100Y0039000D03*
D181*
X0181070Y0076821D03*
X0181070Y0079380D03*
X0181070Y0081939D03*
X0187370Y0081939D03*
X0187370Y0079380D03*
X0187370Y0076821D03*
D162*
X0162651Y0077680D03*
X0162651Y0075711D03*
X0162651Y0073743D03*
X0162651Y0079648D03*
X0162651Y0081617D03*
X0153989Y0081617D03*
X0153989Y0079648D03*
X0153989Y0077680D03*
X0153989Y0075711D03*
X0153989Y0073743D03*
D160*
X0156352Y0073349D03*
X0158320Y0073349D03*
X0160289Y0073349D03*
X0160289Y0082011D03*
X0158320Y0082011D03*
X0156352Y0082011D03*
D276*
X0146220Y0081261D03*
X0146220Y0086379D03*
D222*
X0136900Y0035495D03*
X0136900Y0038905D03*
X0174900Y0079635D03*
X0174900Y0083045D03*
X0199880Y0075825D03*
X0199880Y0072415D03*
X0204300Y0072475D03*
X0204300Y0075885D03*
X0140900Y0082815D03*
X0140900Y0086225D03*
D88*
X0134100Y0088000D03*
X0131700Y0083600D03*
X0140700Y0075000D03*
X0144700Y0073000D03*
X0148500Y0070200D03*
X0144700Y0068000D03*
X0142700Y0064000D03*
X0156352Y0063600D03*
X0171700Y0069000D03*
X0158300Y0077600D03*
X0185700Y0069000D03*
X0195500Y0079800D03*
X0207900Y0064200D03*
X0211700Y0061600D03*
X0214700Y0058000D03*
X0195700Y0056000D03*
X0191700Y0054000D03*
X0190700Y0050000D03*
X0190700Y0046000D03*
X0185700Y0050000D03*
X0195700Y0045000D03*
X0203300Y0038800D03*
X0208500Y0038800D03*
X0190700Y0037000D03*
X0190700Y0026000D03*
X0172700Y0028500D03*
X0158700Y0034500D03*
X0156300Y0046600D03*
X0146200Y0050000D03*
X0130200Y0037000D03*
X0149700Y0022000D03*
X0171700Y0050000D03*
X0129200Y0056000D03*
X0222700Y0097000D02*
G75*
%LPD*%
D275*
X0319735Y0127550D03*
X0319735Y0125975D03*
X0319735Y0124400D03*
X0319735Y0122825D03*
X0319735Y0121250D03*
X0309065Y0121250D03*
X0309065Y0122825D03*
X0309065Y0124400D03*
X0309065Y0125975D03*
X0309065Y0127550D03*
X0244735Y0141250D03*
X0244735Y0142825D03*
X0244735Y0144400D03*
X0244735Y0145975D03*
X0244735Y0147550D03*
X0234065Y0147550D03*
X0234065Y0145975D03*
X0234065Y0144400D03*
X0234065Y0142825D03*
X0234065Y0141250D03*
D199*
X0234065Y0139479D03*
X0244735Y0139479D03*
X0244735Y0149321D03*
X0234065Y0149321D03*
X0309065Y0129321D03*
X0319735Y0129321D03*
X0319735Y0119479D03*
X0309065Y0119479D03*
D203*
X0303815Y0151463D03*
X0303815Y0155400D03*
X0303815Y0159337D03*
X0293185Y0159337D03*
X0293185Y0155400D03*
X0293185Y0151463D03*
D251*
X0298500Y0155400D03*
D181*
X0264530Y0117579D03*
X0264530Y0115020D03*
X0264530Y0112461D03*
X0258230Y0112461D03*
X0258230Y0115020D03*
X0258230Y0117579D03*
D162*
X0282949Y0116720D03*
X0282949Y0118689D03*
X0282949Y0120657D03*
X0282949Y0114752D03*
X0282949Y0112783D03*
X0291611Y0112783D03*
X0291611Y0114752D03*
X0291611Y0116720D03*
X0291611Y0118689D03*
X0291611Y0120657D03*
D160*
X0289248Y0121051D03*
X0287280Y0121051D03*
X0285311Y0121051D03*
X0285311Y0112389D03*
X0287280Y0112389D03*
X0289248Y0112389D03*
D276*
X0299380Y0113139D03*
X0299380Y0108021D03*
D222*
X0308700Y0158905D03*
X0308700Y0155495D03*
X0270700Y0114765D03*
X0270700Y0111355D03*
X0245720Y0118575D03*
X0245720Y0121985D03*
X0241300Y0121925D03*
X0241300Y0118515D03*
X0304700Y0111585D03*
X0304700Y0108175D03*
D88*
X0311500Y0106400D03*
X0313900Y0110800D03*
X0304900Y0119400D03*
X0300900Y0121400D03*
X0297100Y0124200D03*
X0300900Y0126400D03*
X0302900Y0130400D03*
X0289248Y0130800D03*
X0273900Y0125400D03*
X0287300Y0116800D03*
X0259900Y0125400D03*
X0250100Y0114600D03*
X0237700Y0130200D03*
X0233900Y0132800D03*
X0230900Y0136400D03*
X0249900Y0138400D03*
X0253900Y0140400D03*
X0254900Y0144400D03*
X0254900Y0148400D03*
X0259900Y0144400D03*
X0249900Y0149400D03*
X0242300Y0155600D03*
X0237100Y0155600D03*
X0254900Y0157400D03*
X0254900Y0168400D03*
X0272900Y0165900D03*
X0286900Y0159900D03*
X0289300Y0147800D03*
X0299400Y0144400D03*
X0315400Y0157400D03*
X0295900Y0172400D03*
X0273900Y0144400D03*
X0316400Y0138400D03*
X0010200Y0097000D02*
G75*
%LPD*%
D275*
X0103031Y0127550D03*
X0103031Y0125975D03*
X0103031Y0124400D03*
X0103031Y0122825D03*
X0103031Y0121250D03*
X0092361Y0121250D03*
X0092361Y0122825D03*
X0092361Y0124400D03*
X0092361Y0125975D03*
X0092361Y0127550D03*
X0028031Y0141250D03*
X0028031Y0142825D03*
X0028031Y0144400D03*
X0028031Y0145975D03*
X0028031Y0147550D03*
X0017361Y0147550D03*
X0017361Y0145975D03*
X0017361Y0144400D03*
X0017361Y0142825D03*
X0017361Y0141250D03*
D199*
X0017361Y0139479D03*
X0028031Y0139479D03*
X0028031Y0149321D03*
X0017361Y0149321D03*
X0092361Y0129321D03*
X0103031Y0129321D03*
X0103031Y0119479D03*
X0092361Y0119479D03*
D203*
X0087111Y0151463D03*
X0087111Y0155400D03*
X0087111Y0159337D03*
X0076481Y0159337D03*
X0076481Y0155400D03*
X0076481Y0151463D03*
D251*
X0081796Y0155400D03*
D181*
X0047826Y0117579D03*
X0047826Y0115020D03*
X0047826Y0112461D03*
X0041526Y0112461D03*
X0041526Y0115020D03*
X0041526Y0117579D03*
D162*
X0066245Y0116720D03*
X0066245Y0118689D03*
X0066245Y0120657D03*
X0066245Y0114752D03*
X0066245Y0112783D03*
X0074907Y0112783D03*
X0074907Y0114752D03*
X0074907Y0116720D03*
X0074907Y0118689D03*
X0074907Y0120657D03*
D160*
X0072544Y0121051D03*
X0070576Y0121051D03*
X0068607Y0121051D03*
X0068607Y0112389D03*
X0070576Y0112389D03*
X0072544Y0112389D03*
D276*
X0082676Y0113139D03*
X0082676Y0108021D03*
D222*
X0091996Y0158905D03*
X0091996Y0155495D03*
X0053996Y0114765D03*
X0053996Y0111355D03*
X0029016Y0118575D03*
X0029016Y0121985D03*
X0024596Y0121925D03*
X0024596Y0118515D03*
X0087996Y0111585D03*
X0087996Y0108175D03*
D88*
X0094796Y0106400D03*
X0097196Y0110800D03*
X0088196Y0119400D03*
X0084196Y0121400D03*
X0080396Y0124200D03*
X0084196Y0126400D03*
X0086196Y0130400D03*
X0072544Y0130800D03*
X0057196Y0125400D03*
X0070596Y0116800D03*
X0043196Y0125400D03*
X0033396Y0114600D03*
X0020996Y0130200D03*
X0017196Y0132800D03*
X0014196Y0136400D03*
X0033196Y0138400D03*
X0037196Y0140400D03*
X0038196Y0144400D03*
X0038196Y0148400D03*
X0043196Y0144400D03*
X0033196Y0149400D03*
X0025596Y0155600D03*
X0020396Y0155600D03*
X0038196Y0157400D03*
X0038196Y0168400D03*
X0056196Y0165900D03*
X0070196Y0159900D03*
X0072596Y0147800D03*
X0082696Y0144400D03*
X0098696Y0157400D03*
X0079196Y0172400D03*
X0057196Y0144400D03*
X0099696Y0138400D03*
X0114700Y0097000D02*
G75*
%LPD*%
D275*
X0211735Y0127550D03*
X0211735Y0125975D03*
X0211735Y0124400D03*
X0211735Y0122825D03*
X0211735Y0121250D03*
X0201065Y0121250D03*
X0201065Y0122825D03*
X0201065Y0124400D03*
X0201065Y0125975D03*
X0201065Y0127550D03*
X0136735Y0141250D03*
X0136735Y0142825D03*
X0136735Y0144400D03*
X0136735Y0145975D03*
X0136735Y0147550D03*
X0126065Y0147550D03*
X0126065Y0145975D03*
X0126065Y0144400D03*
X0126065Y0142825D03*
X0126065Y0141250D03*
D199*
X0126065Y0139479D03*
X0136735Y0139479D03*
X0136735Y0149321D03*
X0126065Y0149321D03*
X0201065Y0129321D03*
X0211735Y0129321D03*
X0211735Y0119479D03*
X0201065Y0119479D03*
D203*
X0195815Y0151463D03*
X0195815Y0155400D03*
X0195815Y0159337D03*
X0185185Y0159337D03*
X0185185Y0155400D03*
X0185185Y0151463D03*
D251*
X0190500Y0155400D03*
D181*
X0156530Y0117579D03*
X0156530Y0115020D03*
X0156530Y0112461D03*
X0150230Y0112461D03*
X0150230Y0115020D03*
X0150230Y0117579D03*
D162*
X0174949Y0116720D03*
X0174949Y0118689D03*
X0174949Y0120657D03*
X0174949Y0114752D03*
X0174949Y0112783D03*
X0183611Y0112783D03*
X0183611Y0114752D03*
X0183611Y0116720D03*
X0183611Y0118689D03*
X0183611Y0120657D03*
D160*
X0181248Y0121051D03*
X0179280Y0121051D03*
X0177311Y0121051D03*
X0177311Y0112389D03*
X0179280Y0112389D03*
X0181248Y0112389D03*
D276*
X0191380Y0113139D03*
X0191380Y0108021D03*
D222*
X0200700Y0158905D03*
X0200700Y0155495D03*
X0162700Y0114765D03*
X0162700Y0111355D03*
X0137720Y0118575D03*
X0137720Y0121985D03*
X0133300Y0121925D03*
X0133300Y0118515D03*
X0196700Y0111585D03*
X0196700Y0108175D03*
D88*
X0203500Y0106400D03*
X0205900Y0110800D03*
X0196900Y0119400D03*
X0192900Y0121400D03*
X0189100Y0124200D03*
X0192900Y0126400D03*
X0194900Y0130400D03*
X0181248Y0130800D03*
X0165900Y0125400D03*
X0179300Y0116800D03*
X0151900Y0125400D03*
X0142100Y0114600D03*
X0129700Y0130200D03*
X0125900Y0132800D03*
X0122900Y0136400D03*
X0141900Y0138400D03*
X0145900Y0140400D03*
X0146900Y0144400D03*
X0146900Y0148400D03*
X0151900Y0144400D03*
X0141900Y0149400D03*
X0134300Y0155600D03*
X0129100Y0155600D03*
X0146900Y0157400D03*
X0146900Y0168400D03*
X0164900Y0165900D03*
X0178900Y0159900D03*
X0181300Y0147800D03*
X0191400Y0144400D03*
X0207400Y0157400D03*
X0187900Y0172400D03*
X0165900Y0144400D03*
X0208400Y0138400D03*
M02*
