%
T01C0.016000
X4100Y2200
X5000Y3450
X4760Y4660
X3750Y5000
X3400Y6400
X3600Y6800
X3980Y7020
X3600Y7300
X3200Y7500
X2300Y8360
X2540Y8800
X4960Y7760
X6300Y6900
X7700Y6900
X8680Y7980
X9920Y6420
X10300Y6160
X10600Y5800
X8700Y5600
X8300Y5400
X8200Y5000
X7700Y5000
X8200Y4600
X8700Y4500
X9460Y3880
X9980Y3880
X8200Y3700
X8200Y2600
X6400Y2850
X6300Y5000
X4765Y6360
X2050Y5600
X2150Y3700
X23820Y3700
X25420Y5000
X26430Y4660
X26670Y3450
X28070Y2850
X29870Y2600
X29870Y3700
X30370Y4500
X29870Y4600
X29870Y5000
X29970Y5400
X30370Y5600
X29370Y5000
X27970Y5000
X26435Y6360
X25650Y7020
X25270Y6800
X25070Y6400
X25270Y7300
X24870Y7500
X23970Y8360
X24210Y8800
X26630Y7760
X27970Y6900
X29370Y6900
X30350Y7980
X31590Y6420
X31970Y6160
X32270Y5800
X31650Y3880
X31130Y3880
X25770Y2200
X23720Y5600
X13020Y3700
X14620Y5000
X15630Y4660
X15870Y3450
X17270Y2850
X19070Y2600
X19070Y3700
X19570Y4500
X19070Y4600
X19070Y5000
X19170Y5400
X19570Y5600
X18570Y5000
X17170Y5000
X15635Y6360
X14850Y7020
X14470Y6800
X14270Y6400
X14470Y7300
X14070Y7500
X13170Y8360
X13410Y8800
X15830Y7760
X17170Y6900
X18570Y6900
X19550Y7980
X20790Y6420
X21170Y6160
X21470Y5800
X20850Y3880
X20330Y3880
X14970Y2200
X12920Y5600
X29590Y17240
X28690Y15990
X28930Y14780
X29940Y14440
X30290Y13040
X30090Y12640
X29710Y12420
X30090Y12140
X30490Y11940
X31390Y11080
X31150Y10640
X28730Y11680
X27390Y12540
X25990Y12540
X25010Y11460
X23770Y13020
X23390Y13280
X23090Y13640
X24990Y13840
X25390Y14040
X25490Y14440
X25990Y14440
X25490Y14840
X24990Y14940
X24230Y15560
X23710Y15560
X25490Y15740
X25490Y16840
X27290Y16590
X27390Y14440
X28925Y13080
X31640Y13840
X31540Y15740
X9870Y15740
X8270Y14440
X7260Y14780
X7020Y15990
X5620Y16590
X3820Y16840
X3820Y15740
X3320Y14940
X3820Y14840
X3820Y14440
X3720Y14040
X3320Y13840
X4320Y14440
X5720Y14440
X7255Y13080
X8040Y12420
X8420Y12640
X8620Y13040
X8420Y12140
X8820Y11940
X9720Y11080
X9480Y10640
X7060Y11680
X5720Y12540
X4320Y12540
X3340Y11460
X2100Y13020
X1720Y13280
X1420Y13640
X2040Y15560
X2560Y15560
X7920Y17240
X9970Y13840
X20740Y15740
X19140Y14440
X18130Y14780
X17890Y15990
X16490Y16590
X14690Y16840
X14690Y15740
X14190Y14940
X14690Y14840
X14690Y14440
X14590Y14040
X14190Y13840
X15190Y14440
X16590Y14440
X18125Y13080
X18910Y12420
X19290Y12640
X19490Y13040
X19290Y12140
X19690Y11940
X20590Y11080
X20350Y10640
X17930Y11680
X16590Y12540
X15190Y12540
X14210Y11460
X12970Y13020
X12590Y13280
X12290Y13640
X12910Y15560
X13430Y15560
X18790Y17240
X20840Y13840
M30
