G75*
G70*
%OFA0B0*%
%FSLAX25Y25*%
%IPPOS*%
%LPD*%
%AMOC8*
5,1,8,0,0,1.08239X$1,22.5*
%
%ADD135C,0.00800*%
%ADD200C,0.03200*%
%ADD528R,0.00787X0.04488*%
X0010000Y0010000D02*
G75*
%LPD*%
D528*
X0035650Y0017303D03*
X0034075Y0017303D03*
X0032500Y0017303D03*
X0030925Y0017303D03*
X0029350Y0017303D03*
X0029350Y0027697D03*
X0030925Y0027697D03*
X0032500Y0027697D03*
X0034075Y0027697D03*
X0035650Y0027697D03*
X0049350Y0092303D03*
X0050925Y0092303D03*
X0052500Y0092303D03*
X0054075Y0092303D03*
X0055650Y0092303D03*
X0055650Y0102697D03*
X0054075Y0102697D03*
X0052500Y0102697D03*
X0050925Y0102697D03*
X0049350Y0102697D03*
D135*
X0076530Y0092707D02*
X0076530Y0027293D01*
X0077328Y0028161D02*
X0077328Y0091839D01*
X0078127Y0090972D02*
X0078127Y0029028D01*
X0078925Y0029895D02*
X0078925Y0090105D01*
X0079724Y0089237D02*
X0079724Y0030763D01*
X0079866Y0030917D02*
X0074569Y0025163D01*
X0068398Y0020360D01*
X0061520Y0016638D01*
X0054124Y0014099D01*
X0046410Y0012812D01*
X0042500Y0012650D01*
X0042500Y0012650D01*
X0039152Y0012768D01*
X0034300Y0013459D01*
X0035131Y0013459D01*
X0035331Y0013659D01*
X0035650Y0013659D01*
X0036228Y0013659D01*
X0036584Y0013754D01*
X0036903Y0013939D01*
X0037164Y0014199D01*
X0037348Y0014519D01*
X0037443Y0014875D01*
X0037443Y0017303D01*
X0036075Y0017303D01*
X0036075Y0017303D01*
X0037443Y0017303D01*
X0037443Y0019732D01*
X0037348Y0020088D01*
X0037164Y0020407D01*
X0036903Y0020668D01*
X0036584Y0020852D01*
X0036228Y0020947D01*
X0035650Y0020947D01*
X0035650Y0020629D01*
X0035650Y0020629D01*
X0035650Y0020947D01*
X0035331Y0020947D01*
X0035131Y0021147D01*
X0034381Y0021147D01*
X0033328Y0022200D01*
X0031676Y0023853D01*
X0033018Y0023853D01*
X0035131Y0023853D01*
X0035331Y0024053D01*
X0035650Y0024053D01*
X0036228Y0024053D01*
X0036584Y0024148D01*
X0036903Y0024332D01*
X0037164Y0024593D01*
X0037348Y0024912D01*
X0037443Y0025268D01*
X0037443Y0027697D01*
X0037443Y0030125D01*
X0037348Y0030481D01*
X0037164Y0030801D01*
X0036903Y0031061D01*
X0036584Y0031246D01*
X0036576Y0031248D01*
X0036651Y0031323D01*
X0036687Y0031287D01*
X0037863Y0030800D01*
X0039137Y0030800D01*
X0040313Y0031287D01*
X0041213Y0032187D01*
X0041700Y0033363D01*
X0041700Y0034637D01*
X0041213Y0035813D01*
X0040313Y0036713D01*
X0039137Y0037200D01*
X0037863Y0037200D01*
X0037525Y0037060D01*
X0037213Y0037813D01*
X0036313Y0038713D01*
X0035460Y0039066D01*
X0035500Y0039163D01*
X0035500Y0040437D01*
X0035013Y0041613D01*
X0034113Y0042513D01*
X0032937Y0043000D01*
X0031663Y0043000D01*
X0030487Y0042513D01*
X0029775Y0041800D01*
X0026872Y0041800D01*
X0023472Y0038400D01*
X0023472Y0038400D01*
X0022300Y0037228D01*
X0022300Y0031628D01*
X0022072Y0031400D01*
X0017672Y0031400D01*
X0016500Y0030228D01*
X0014872Y0028600D01*
X0013863Y0028600D01*
X0012687Y0028113D01*
X0012650Y0028075D01*
X0012650Y0048422D01*
X0013672Y0047400D01*
X0017672Y0043400D01*
X0032928Y0043400D01*
X0034100Y0044572D01*
X0035180Y0045652D01*
X0036375Y0045652D01*
X0037087Y0044939D01*
X0038263Y0044452D01*
X0039537Y0044452D01*
X0040713Y0044939D01*
X0041425Y0045652D01*
X0053323Y0045652D01*
X0054087Y0044887D01*
X0055263Y0044400D01*
X0056537Y0044400D01*
X0057713Y0044887D01*
X0058613Y0045787D01*
X0059100Y0046963D01*
X0059100Y0048237D01*
X0058613Y0049413D01*
X0057713Y0050313D01*
X0056537Y0050800D01*
X0055263Y0050800D01*
X0054087Y0050313D01*
X0053426Y0049652D01*
X0041425Y0049652D01*
X0040713Y0050364D01*
X0039537Y0050852D01*
X0038263Y0050852D01*
X0037087Y0050364D01*
X0036375Y0049652D01*
X0033523Y0049652D01*
X0032352Y0048480D01*
X0031272Y0047400D01*
X0019328Y0047400D01*
X0016500Y0050228D01*
X0016500Y0077772D01*
X0022328Y0083600D01*
X0023337Y0083600D01*
X0024513Y0084087D01*
X0025413Y0084987D01*
X0025418Y0085000D01*
X0043975Y0085000D01*
X0044687Y0084287D01*
X0045440Y0083975D01*
X0045300Y0083637D01*
X0045300Y0082363D01*
X0045787Y0081187D01*
X0046687Y0080287D01*
X0047863Y0079800D01*
X0049137Y0079800D01*
X0049870Y0080104D01*
X0050687Y0079287D01*
X0051863Y0078800D01*
X0053137Y0078800D01*
X0054313Y0079287D01*
X0054500Y0079475D01*
X0054687Y0079287D01*
X0055863Y0078800D01*
X0057137Y0078800D01*
X0058313Y0079287D01*
X0059213Y0080187D01*
X0059700Y0081363D01*
X0059700Y0082637D01*
X0059213Y0083813D01*
X0058907Y0084119D01*
X0059313Y0084287D01*
X0060213Y0085187D01*
X0060700Y0086363D01*
X0060700Y0087637D01*
X0060213Y0088813D01*
X0059313Y0089713D01*
X0058137Y0090200D01*
X0057650Y0090200D01*
X0057650Y0093132D01*
X0057643Y0093138D01*
X0057643Y0095210D01*
X0057253Y0095600D01*
X0059709Y0095600D01*
X0060500Y0094859D01*
X0060500Y0093963D01*
X0060987Y0092787D01*
X0061887Y0091887D01*
X0063063Y0091400D01*
X0064337Y0091400D01*
X0065513Y0091887D01*
X0066413Y0092787D01*
X0066900Y0093963D01*
X0066900Y0095237D01*
X0066413Y0096413D01*
X0065625Y0097200D01*
X0066413Y0097987D01*
X0066900Y0099163D01*
X0066900Y0100437D01*
X0066893Y0100455D01*
X0068398Y0099640D01*
X0074569Y0094837D01*
X0079866Y0089083D01*
X0084143Y0082536D01*
X0087284Y0075375D01*
X0089204Y0067794D01*
X0089850Y0060000D01*
X0089204Y0052206D01*
X0087284Y0044625D01*
X0084143Y0037464D01*
X0079866Y0030917D01*
X0080522Y0031922D02*
X0080522Y0088078D01*
X0081321Y0086856D02*
X0081321Y0033144D01*
X0082119Y0034366D02*
X0082119Y0085634D01*
X0082918Y0084411D02*
X0082918Y0035589D01*
X0083716Y0036811D02*
X0083716Y0083189D01*
X0084515Y0081689D02*
X0084515Y0038311D01*
X0085313Y0040132D02*
X0085313Y0079868D01*
X0086112Y0078048D02*
X0086112Y0041952D01*
X0086910Y0043773D02*
X0086910Y0076227D01*
X0087709Y0073698D02*
X0087709Y0046302D01*
X0088507Y0049455D02*
X0088507Y0070545D01*
X0089306Y0066566D02*
X0089306Y0053434D01*
X0075731Y0026426D02*
X0075731Y0093574D01*
X0074933Y0094442D02*
X0074933Y0025558D01*
X0074134Y0024825D02*
X0074134Y0095175D01*
X0073336Y0095797D02*
X0073336Y0024203D01*
X0072537Y0023582D02*
X0072537Y0096418D01*
X0071739Y0097040D02*
X0071739Y0022960D01*
X0070940Y0022339D02*
X0070940Y0097661D01*
X0070142Y0098283D02*
X0070142Y0021717D01*
X0069343Y0021096D02*
X0069343Y0098904D01*
X0068545Y0099526D02*
X0068545Y0020474D01*
X0067746Y0020007D02*
X0067746Y0099993D01*
X0066948Y0100425D02*
X0066948Y0019575D01*
X0066149Y0019143D02*
X0066149Y0092524D01*
X0065351Y0091820D02*
X0065351Y0018711D01*
X0064552Y0018279D02*
X0064552Y0091489D01*
X0063754Y0091400D02*
X0063754Y0017847D01*
X0062955Y0017415D02*
X0062955Y0091445D01*
X0062157Y0091776D02*
X0062157Y0016982D01*
X0061358Y0016582D02*
X0061358Y0092416D01*
X0060560Y0093820D02*
X0060560Y0087976D01*
X0059761Y0089264D02*
X0059761Y0095551D01*
X0058963Y0095600D02*
X0058963Y0089858D01*
X0058164Y0090189D02*
X0058164Y0095600D01*
X0057366Y0095600D02*
X0057366Y0095488D01*
X0055300Y0097600D02*
X0060500Y0097600D01*
X0063700Y0094600D01*
X0066149Y0096676D02*
X0066149Y0097724D01*
X0063700Y0099800D02*
X0056300Y0099800D01*
X0055650Y0100450D01*
X0055650Y0102697D01*
X0054075Y0102697D02*
X0054075Y0098825D01*
X0055300Y0097600D01*
X0052500Y0099600D02*
X0050700Y0097800D01*
X0039700Y0097800D01*
X0038300Y0099200D01*
X0040900Y0103000D02*
X0044500Y0099400D01*
X0050300Y0099400D01*
X0050925Y0100025D01*
X0050925Y0102697D01*
X0049350Y0102697D02*
X0049350Y0105150D01*
X0047900Y0106600D01*
X0045100Y0106600D01*
X0044500Y0106000D01*
X0052500Y0102697D02*
X0052500Y0099600D01*
X0052500Y0092303D02*
X0052500Y0082000D01*
X0054075Y0084425D02*
X0056500Y0082000D01*
X0056567Y0078800D02*
X0056567Y0050787D01*
X0055768Y0050800D02*
X0055768Y0078839D01*
X0054970Y0079170D02*
X0054970Y0050678D01*
X0054171Y0050348D02*
X0054171Y0079229D01*
X0053373Y0078898D02*
X0053373Y0049652D01*
X0052574Y0049652D02*
X0052574Y0078800D01*
X0051776Y0078836D02*
X0051776Y0049652D01*
X0050977Y0049652D02*
X0050977Y0079167D01*
X0050179Y0079796D02*
X0050179Y0049652D01*
X0049380Y0049652D02*
X0049380Y0079901D01*
X0048582Y0079800D02*
X0048582Y0049652D01*
X0047783Y0049652D02*
X0047783Y0079833D01*
X0046985Y0080164D02*
X0046985Y0049652D01*
X0046186Y0049652D02*
X0046186Y0080788D01*
X0045388Y0082151D02*
X0045388Y0049652D01*
X0044589Y0049652D02*
X0044589Y0084385D01*
X0045388Y0083997D02*
X0045388Y0083849D01*
X0043791Y0085000D02*
X0043791Y0049652D01*
X0042992Y0049652D02*
X0042992Y0085000D01*
X0042194Y0085000D02*
X0042194Y0049652D01*
X0041395Y0049682D02*
X0041395Y0085000D01*
X0040597Y0085000D02*
X0040597Y0050412D01*
X0039798Y0050743D02*
X0039798Y0085000D01*
X0039000Y0085000D02*
X0039000Y0050852D01*
X0038201Y0050826D02*
X0038201Y0085000D01*
X0037403Y0085000D02*
X0037403Y0050495D01*
X0036604Y0049881D02*
X0036604Y0085000D01*
X0035806Y0085000D02*
X0035806Y0049652D01*
X0035007Y0049652D02*
X0035007Y0085000D01*
X0034209Y0085000D02*
X0034209Y0049652D01*
X0033410Y0049539D02*
X0033410Y0085000D01*
X0032612Y0085000D02*
X0032612Y0048740D01*
X0032352Y0048480D02*
X0032352Y0048480D01*
X0031813Y0047942D02*
X0031813Y0085000D01*
X0031015Y0085000D02*
X0031015Y0047400D01*
X0030216Y0047400D02*
X0030216Y0085000D01*
X0029418Y0085000D02*
X0029418Y0047400D01*
X0028619Y0047400D02*
X0028619Y0085000D01*
X0027821Y0085000D02*
X0027821Y0047400D01*
X0027022Y0047400D02*
X0027022Y0085000D01*
X0026224Y0085000D02*
X0026224Y0047400D01*
X0025425Y0047400D02*
X0025425Y0085000D01*
X0024627Y0084201D02*
X0024627Y0047400D01*
X0023828Y0047400D02*
X0023828Y0083804D01*
X0023030Y0083600D02*
X0023030Y0047400D01*
X0022231Y0047400D02*
X0022231Y0083503D01*
X0021432Y0082704D02*
X0021432Y0047400D01*
X0020634Y0047400D02*
X0020634Y0081906D01*
X0019835Y0081107D02*
X0019835Y0047400D01*
X0019037Y0047691D02*
X0019037Y0080309D01*
X0018238Y0079510D02*
X0018238Y0048490D01*
X0017440Y0049288D02*
X0017440Y0078712D01*
X0016641Y0077913D02*
X0016641Y0050087D01*
X0014500Y0049400D02*
X0014500Y0078600D01*
X0022700Y0086800D01*
X0022900Y0087000D01*
X0046500Y0087000D01*
X0049350Y0089850D01*
X0049350Y0092303D01*
X0050925Y0092303D02*
X0050925Y0085425D01*
X0048500Y0083000D01*
X0054075Y0084425D02*
X0054075Y0092303D01*
X0055650Y0092303D02*
X0055650Y0088850D01*
X0057500Y0087000D01*
X0059761Y0084736D02*
X0059761Y0016034D01*
X0058963Y0015760D02*
X0058963Y0046632D01*
X0058164Y0045339D02*
X0058164Y0015486D01*
X0057366Y0015212D02*
X0057366Y0044743D01*
X0056567Y0044413D02*
X0056567Y0014938D01*
X0055768Y0014664D02*
X0055768Y0044400D01*
X0054970Y0044522D02*
X0054970Y0039556D01*
X0055213Y0039313D02*
X0054313Y0040213D01*
X0053137Y0040700D01*
X0051863Y0040700D01*
X0050687Y0040213D01*
X0049787Y0039313D01*
X0049300Y0038137D01*
X0049300Y0036863D01*
X0049787Y0035687D01*
X0050687Y0034787D01*
X0051863Y0034300D01*
X0053137Y0034300D01*
X0054313Y0034787D01*
X0055213Y0035687D01*
X0055700Y0036863D01*
X0055700Y0038137D01*
X0055213Y0039313D01*
X0054171Y0040271D02*
X0054171Y0044852D01*
X0053373Y0045602D02*
X0053373Y0040602D01*
X0052574Y0040700D02*
X0052574Y0045652D01*
X0051776Y0045652D02*
X0051776Y0040664D01*
X0050977Y0040333D02*
X0050977Y0045652D01*
X0050179Y0045652D02*
X0050179Y0039704D01*
X0049380Y0038331D02*
X0049380Y0045652D01*
X0048582Y0045652D02*
X0048582Y0013174D01*
X0049380Y0013307D02*
X0049380Y0036669D01*
X0050179Y0035296D02*
X0050179Y0013441D01*
X0050977Y0013574D02*
X0050977Y0034667D01*
X0051776Y0034336D02*
X0051776Y0013707D01*
X0052574Y0013840D02*
X0052574Y0034300D01*
X0053373Y0034398D02*
X0053373Y0013974D01*
X0054171Y0014115D02*
X0054171Y0034729D01*
X0054970Y0035444D02*
X0054970Y0014389D01*
X0060560Y0016308D02*
X0060560Y0086024D01*
X0058963Y0084142D02*
X0058963Y0084063D01*
X0058963Y0079937D02*
X0058963Y0048568D01*
X0058164Y0049861D02*
X0058164Y0079226D01*
X0057366Y0078895D02*
X0057366Y0050457D01*
X0055848Y0047652D02*
X0055900Y0047600D01*
X0055848Y0047652D02*
X0039300Y0047652D01*
X0038900Y0047652D01*
X0034352Y0047652D01*
X0032100Y0045400D01*
X0018500Y0045400D01*
X0014500Y0049400D01*
X0013447Y0047624D02*
X0013447Y0028428D01*
X0014246Y0028600D02*
X0014246Y0046826D01*
X0015044Y0046027D02*
X0015044Y0028773D01*
X0015843Y0029571D02*
X0015843Y0045229D01*
X0016641Y0044430D02*
X0016641Y0030370D01*
X0017440Y0031168D02*
X0017440Y0043632D01*
X0018238Y0043400D02*
X0018238Y0031400D01*
X0019037Y0031400D02*
X0019037Y0043400D01*
X0019835Y0043400D02*
X0019835Y0031400D01*
X0020634Y0031400D02*
X0020634Y0043400D01*
X0021432Y0043400D02*
X0021432Y0031400D01*
X0022231Y0031559D02*
X0022231Y0043400D01*
X0023030Y0043400D02*
X0023030Y0037958D01*
X0023828Y0038756D02*
X0023828Y0043400D01*
X0024627Y0043400D02*
X0024627Y0039555D01*
X0025425Y0040353D02*
X0025425Y0043400D01*
X0026224Y0043400D02*
X0026224Y0041152D01*
X0027022Y0041800D02*
X0027022Y0043400D01*
X0027821Y0043400D02*
X0027821Y0041800D01*
X0028619Y0041800D02*
X0028619Y0043400D01*
X0029418Y0043400D02*
X0029418Y0041800D01*
X0030216Y0042242D02*
X0030216Y0043400D01*
X0031015Y0043400D02*
X0031015Y0042731D01*
X0031813Y0043000D02*
X0031813Y0043400D01*
X0032612Y0043400D02*
X0032612Y0043000D01*
X0033410Y0042804D02*
X0033410Y0043882D01*
X0034209Y0044680D02*
X0034209Y0042417D01*
X0035007Y0041618D02*
X0035007Y0045479D01*
X0035806Y0045652D02*
X0035806Y0038923D01*
X0036604Y0038421D02*
X0036604Y0045422D01*
X0037403Y0044808D02*
X0037403Y0037354D01*
X0038201Y0037200D02*
X0038201Y0044477D01*
X0039000Y0044452D02*
X0039000Y0037200D01*
X0039798Y0036926D02*
X0039798Y0044560D01*
X0040597Y0044891D02*
X0040597Y0036429D01*
X0041395Y0035372D02*
X0041395Y0045621D01*
X0042194Y0045652D02*
X0042194Y0012661D01*
X0042992Y0012670D02*
X0042992Y0045652D01*
X0043791Y0045652D02*
X0043791Y0012703D01*
X0044589Y0012736D02*
X0044589Y0045652D01*
X0045388Y0045652D02*
X0045388Y0012769D01*
X0046186Y0012802D02*
X0046186Y0045652D01*
X0046985Y0045652D02*
X0046985Y0012908D01*
X0047783Y0013041D02*
X0047783Y0045652D01*
X0038500Y0034000D02*
X0036500Y0034000D01*
X0034075Y0031575D01*
X0034075Y0027697D01*
X0035650Y0027697D02*
X0035650Y0029650D01*
X0037000Y0031000D01*
X0039000Y0031000D01*
X0046500Y0023500D01*
X0046500Y0020500D01*
X0040000Y0014000D01*
X0037000Y0014000D01*
X0035650Y0015350D01*
X0035650Y0017303D01*
X0036604Y0017303D02*
X0036604Y0017303D01*
X0037403Y0017303D02*
X0037403Y0017303D01*
X0037403Y0019883D02*
X0037403Y0025117D01*
X0036604Y0024160D02*
X0036604Y0020840D01*
X0035806Y0020947D02*
X0035806Y0024053D01*
X0035650Y0024053D02*
X0035650Y0024371D01*
X0035650Y0024371D01*
X0035650Y0024053D01*
X0035007Y0023853D02*
X0035007Y0021147D01*
X0034209Y0021320D02*
X0034209Y0023853D01*
X0033410Y0023853D02*
X0033410Y0022118D01*
X0033328Y0022200D02*
X0033328Y0022200D01*
X0032612Y0022917D02*
X0032612Y0023853D01*
X0031813Y0023853D02*
X0031813Y0023715D01*
X0030500Y0022200D02*
X0032500Y0020200D01*
X0034075Y0018625D01*
X0034075Y0017303D01*
X0032500Y0017303D02*
X0032500Y0020200D01*
X0030925Y0018175D02*
X0029350Y0019750D01*
X0028900Y0020200D01*
X0017100Y0020200D01*
X0014500Y0022800D01*
X0014500Y0025400D01*
X0018500Y0029400D01*
X0022900Y0029400D01*
X0024300Y0030800D01*
X0024300Y0036400D01*
X0027700Y0039800D01*
X0032300Y0039800D01*
X0034500Y0036000D02*
X0032500Y0034000D01*
X0032500Y0027697D01*
X0030925Y0027697D02*
X0030925Y0034575D01*
X0029500Y0036000D01*
X0027500Y0032000D02*
X0029350Y0030150D01*
X0029350Y0027697D01*
X0030500Y0022200D02*
X0019700Y0022200D01*
X0018900Y0023000D01*
X0029350Y0019750D02*
X0029350Y0017303D01*
X0030925Y0017303D02*
X0030925Y0018175D01*
X0035007Y0013459D02*
X0035007Y0013358D01*
X0035650Y0013659D02*
X0035650Y0013977D01*
X0035650Y0013978D01*
X0035650Y0013659D01*
X0035806Y0013659D02*
X0035806Y0013245D01*
X0036604Y0013131D02*
X0036604Y0013766D01*
X0037403Y0013017D02*
X0037403Y0014723D01*
X0038201Y0012904D02*
X0038201Y0030800D01*
X0039000Y0030800D02*
X0039000Y0012790D01*
X0039798Y0012745D02*
X0039798Y0031074D01*
X0040597Y0031571D02*
X0040597Y0012717D01*
X0041395Y0012689D02*
X0041395Y0032628D01*
X0037403Y0030991D02*
X0037403Y0030277D01*
X0036604Y0031234D02*
X0036604Y0031276D01*
X0036604Y0027697D02*
X0036604Y0027697D01*
X0036075Y0027697D02*
X0037443Y0027697D01*
X0036075Y0027697D01*
X0036075Y0027697D01*
X0037403Y0027697D02*
X0037403Y0027697D01*
D200*
X0038500Y0034000D03*
X0034500Y0036000D03*
X0032300Y0039800D03*
X0029500Y0036000D03*
X0027500Y0032000D03*
X0018900Y0023000D03*
X0014500Y0025400D03*
X0024900Y0049600D03*
X0033500Y0063000D03*
X0033500Y0077000D03*
X0022700Y0086800D03*
X0038300Y0099200D03*
X0040900Y0103000D03*
X0044500Y0106000D03*
X0046500Y0087000D03*
X0048500Y0083000D03*
X0052500Y0082000D03*
X0056500Y0082000D03*
X0057500Y0087000D03*
X0063700Y0094600D03*
X0063700Y0099800D03*
X0065500Y0082000D03*
X0076500Y0082000D03*
X0074000Y0064000D03*
X0068000Y0050000D03*
X0055900Y0047600D03*
X0052500Y0037500D03*
X0038900Y0047652D03*
X0052500Y0063000D03*
X0052500Y0077000D03*
X0080500Y0041000D03*
X0065500Y0021500D03*
X0046500Y0020500D03*
X0092496Y0010000D02*
G75*
%LPD*%
D528*
X0118146Y0017303D03*
X0116571Y0017303D03*
X0114996Y0017303D03*
X0113421Y0017303D03*
X0111846Y0017303D03*
X0111846Y0027697D03*
X0113421Y0027697D03*
X0114996Y0027697D03*
X0116571Y0027697D03*
X0118146Y0027697D03*
X0131846Y0092303D03*
X0133421Y0092303D03*
X0134996Y0092303D03*
X0136571Y0092303D03*
X0138146Y0092303D03*
X0138146Y0102697D03*
X0136571Y0102697D03*
X0134996Y0102697D03*
X0133421Y0102697D03*
X0131846Y0102697D03*
D135*
X0159026Y0092707D02*
X0159026Y0027293D01*
X0159824Y0028161D02*
X0159824Y0091839D01*
X0160623Y0090972D02*
X0160623Y0029028D01*
X0161421Y0029895D02*
X0161421Y0090105D01*
X0162220Y0089237D02*
X0162220Y0030763D01*
X0162362Y0030917D02*
X0157065Y0025163D01*
X0150894Y0020360D01*
X0144016Y0016638D01*
X0136620Y0014099D01*
X0128906Y0012812D01*
X0124996Y0012650D01*
X0124996Y0012650D01*
X0121648Y0012768D01*
X0116796Y0013459D01*
X0117627Y0013459D01*
X0117827Y0013659D01*
X0118146Y0013659D01*
X0118724Y0013659D01*
X0119080Y0013754D01*
X0119399Y0013939D01*
X0119660Y0014199D01*
X0119844Y0014519D01*
X0119939Y0014875D01*
X0119939Y0017303D01*
X0118571Y0017303D01*
X0118571Y0017303D01*
X0119939Y0017303D01*
X0119939Y0019732D01*
X0119844Y0020088D01*
X0119660Y0020407D01*
X0119399Y0020668D01*
X0119080Y0020852D01*
X0118724Y0020947D01*
X0118146Y0020947D01*
X0118146Y0020629D01*
X0118146Y0020629D01*
X0118146Y0020947D01*
X0117827Y0020947D01*
X0117627Y0021147D01*
X0116877Y0021147D01*
X0115824Y0022200D01*
X0114172Y0023853D01*
X0115514Y0023853D01*
X0117627Y0023853D01*
X0117827Y0024053D01*
X0118146Y0024053D01*
X0118724Y0024053D01*
X0119080Y0024148D01*
X0119399Y0024332D01*
X0119660Y0024593D01*
X0119844Y0024912D01*
X0119939Y0025268D01*
X0119939Y0027697D01*
X0119939Y0030125D01*
X0119844Y0030481D01*
X0119660Y0030801D01*
X0119399Y0031061D01*
X0119080Y0031246D01*
X0119072Y0031248D01*
X0119147Y0031323D01*
X0119183Y0031287D01*
X0120359Y0030800D01*
X0121633Y0030800D01*
X0122809Y0031287D01*
X0123709Y0032187D01*
X0124196Y0033363D01*
X0124196Y0034637D01*
X0123709Y0035813D01*
X0122809Y0036713D01*
X0121633Y0037200D01*
X0120359Y0037200D01*
X0120021Y0037060D01*
X0119709Y0037813D01*
X0118809Y0038713D01*
X0117956Y0039066D01*
X0117996Y0039163D01*
X0117996Y0040437D01*
X0117509Y0041613D01*
X0116609Y0042513D01*
X0115433Y0043000D01*
X0114159Y0043000D01*
X0112983Y0042513D01*
X0112271Y0041800D01*
X0109368Y0041800D01*
X0105968Y0038400D01*
X0105968Y0038400D01*
X0104796Y0037228D01*
X0104796Y0031628D01*
X0104568Y0031400D01*
X0100168Y0031400D01*
X0098996Y0030228D01*
X0097368Y0028600D01*
X0096359Y0028600D01*
X0095183Y0028113D01*
X0095146Y0028075D01*
X0095146Y0048422D01*
X0096168Y0047400D01*
X0100168Y0043400D01*
X0115424Y0043400D01*
X0116596Y0044572D01*
X0117676Y0045652D01*
X0118871Y0045652D01*
X0119583Y0044939D01*
X0120759Y0044452D01*
X0122033Y0044452D01*
X0123209Y0044939D01*
X0123921Y0045652D01*
X0135819Y0045652D01*
X0136583Y0044887D01*
X0137759Y0044400D01*
X0139033Y0044400D01*
X0140209Y0044887D01*
X0141109Y0045787D01*
X0141596Y0046963D01*
X0141596Y0048237D01*
X0141109Y0049413D01*
X0140209Y0050313D01*
X0139033Y0050800D01*
X0137759Y0050800D01*
X0136583Y0050313D01*
X0135922Y0049652D01*
X0123921Y0049652D01*
X0123209Y0050364D01*
X0122033Y0050852D01*
X0120759Y0050852D01*
X0119583Y0050364D01*
X0118871Y0049652D01*
X0116019Y0049652D01*
X0114848Y0048480D01*
X0113768Y0047400D01*
X0101824Y0047400D01*
X0098996Y0050228D01*
X0098996Y0077772D01*
X0104824Y0083600D01*
X0105833Y0083600D01*
X0107009Y0084087D01*
X0107909Y0084987D01*
X0107914Y0085000D01*
X0126471Y0085000D01*
X0127183Y0084287D01*
X0127936Y0083975D01*
X0127796Y0083637D01*
X0127796Y0082363D01*
X0128283Y0081187D01*
X0129183Y0080287D01*
X0130359Y0079800D01*
X0131633Y0079800D01*
X0132366Y0080104D01*
X0133183Y0079287D01*
X0134359Y0078800D01*
X0135633Y0078800D01*
X0136809Y0079287D01*
X0136996Y0079475D01*
X0137183Y0079287D01*
X0138359Y0078800D01*
X0139633Y0078800D01*
X0140809Y0079287D01*
X0141709Y0080187D01*
X0142196Y0081363D01*
X0142196Y0082637D01*
X0141709Y0083813D01*
X0141403Y0084119D01*
X0141809Y0084287D01*
X0142709Y0085187D01*
X0143196Y0086363D01*
X0143196Y0087637D01*
X0142709Y0088813D01*
X0141809Y0089713D01*
X0140633Y0090200D01*
X0140146Y0090200D01*
X0140146Y0093132D01*
X0140139Y0093138D01*
X0140139Y0095210D01*
X0139749Y0095600D01*
X0142205Y0095600D01*
X0142996Y0094859D01*
X0142996Y0093963D01*
X0143483Y0092787D01*
X0144383Y0091887D01*
X0145559Y0091400D01*
X0146833Y0091400D01*
X0148009Y0091887D01*
X0148909Y0092787D01*
X0149396Y0093963D01*
X0149396Y0095237D01*
X0148909Y0096413D01*
X0148121Y0097200D01*
X0148909Y0097987D01*
X0149396Y0099163D01*
X0149396Y0100437D01*
X0149389Y0100455D01*
X0150894Y0099640D01*
X0157065Y0094837D01*
X0162362Y0089083D01*
X0166639Y0082536D01*
X0169780Y0075375D01*
X0171700Y0067794D01*
X0172346Y0060000D01*
X0171700Y0052206D01*
X0169780Y0044625D01*
X0166639Y0037464D01*
X0162362Y0030917D01*
X0163018Y0031922D02*
X0163018Y0088078D01*
X0163817Y0086856D02*
X0163817Y0033144D01*
X0164615Y0034366D02*
X0164615Y0085634D01*
X0165414Y0084411D02*
X0165414Y0035589D01*
X0166212Y0036811D02*
X0166212Y0083189D01*
X0167011Y0081689D02*
X0167011Y0038311D01*
X0167809Y0040132D02*
X0167809Y0079868D01*
X0168608Y0078048D02*
X0168608Y0041952D01*
X0169406Y0043773D02*
X0169406Y0076227D01*
X0170205Y0073698D02*
X0170205Y0046302D01*
X0171003Y0049455D02*
X0171003Y0070545D01*
X0171802Y0066566D02*
X0171802Y0053434D01*
X0158227Y0026426D02*
X0158227Y0093574D01*
X0157429Y0094442D02*
X0157429Y0025558D01*
X0156630Y0024825D02*
X0156630Y0095175D01*
X0155832Y0095797D02*
X0155832Y0024203D01*
X0155033Y0023582D02*
X0155033Y0096418D01*
X0154235Y0097040D02*
X0154235Y0022960D01*
X0153436Y0022339D02*
X0153436Y0097661D01*
X0152638Y0098283D02*
X0152638Y0021717D01*
X0151839Y0021096D02*
X0151839Y0098904D01*
X0151041Y0099526D02*
X0151041Y0020474D01*
X0150242Y0020007D02*
X0150242Y0099993D01*
X0149444Y0100425D02*
X0149444Y0019575D01*
X0148645Y0019143D02*
X0148645Y0092524D01*
X0147847Y0091820D02*
X0147847Y0018711D01*
X0147048Y0018279D02*
X0147048Y0091489D01*
X0146250Y0091400D02*
X0146250Y0017847D01*
X0145451Y0017415D02*
X0145451Y0091445D01*
X0144653Y0091776D02*
X0144653Y0016982D01*
X0143854Y0016582D02*
X0143854Y0092416D01*
X0143056Y0093820D02*
X0143056Y0087976D01*
X0142257Y0089264D02*
X0142257Y0095551D01*
X0141459Y0095600D02*
X0141459Y0089858D01*
X0140660Y0090189D02*
X0140660Y0095600D01*
X0139862Y0095600D02*
X0139862Y0095488D01*
X0137796Y0097600D02*
X0142996Y0097600D01*
X0146196Y0094600D01*
X0148645Y0096676D02*
X0148645Y0097724D01*
X0146196Y0099800D02*
X0138796Y0099800D01*
X0138146Y0100450D01*
X0138146Y0102697D01*
X0136571Y0102697D02*
X0136571Y0098825D01*
X0137796Y0097600D01*
X0134996Y0099600D02*
X0133196Y0097800D01*
X0122196Y0097800D01*
X0120796Y0099200D01*
X0123396Y0103000D02*
X0126996Y0099400D01*
X0132796Y0099400D01*
X0133421Y0100025D01*
X0133421Y0102697D01*
X0131846Y0102697D02*
X0131846Y0105150D01*
X0130396Y0106600D01*
X0127596Y0106600D01*
X0126996Y0106000D01*
X0134996Y0102697D02*
X0134996Y0099600D01*
X0134996Y0092303D02*
X0134996Y0082000D01*
X0136571Y0084425D02*
X0138996Y0082000D01*
X0139063Y0078800D02*
X0139063Y0050787D01*
X0138264Y0050800D02*
X0138264Y0078839D01*
X0137466Y0079170D02*
X0137466Y0050678D01*
X0136667Y0050348D02*
X0136667Y0079229D01*
X0135869Y0078898D02*
X0135869Y0049652D01*
X0135070Y0049652D02*
X0135070Y0078800D01*
X0134272Y0078836D02*
X0134272Y0049652D01*
X0133473Y0049652D02*
X0133473Y0079167D01*
X0132675Y0079796D02*
X0132675Y0049652D01*
X0131876Y0049652D02*
X0131876Y0079901D01*
X0131078Y0079800D02*
X0131078Y0049652D01*
X0130279Y0049652D02*
X0130279Y0079833D01*
X0129481Y0080164D02*
X0129481Y0049652D01*
X0128682Y0049652D02*
X0128682Y0080788D01*
X0127884Y0082151D02*
X0127884Y0049652D01*
X0127085Y0049652D02*
X0127085Y0084385D01*
X0127884Y0083997D02*
X0127884Y0083849D01*
X0126287Y0085000D02*
X0126287Y0049652D01*
X0125488Y0049652D02*
X0125488Y0085000D01*
X0124690Y0085000D02*
X0124690Y0049652D01*
X0123891Y0049682D02*
X0123891Y0085000D01*
X0123093Y0085000D02*
X0123093Y0050412D01*
X0122294Y0050743D02*
X0122294Y0085000D01*
X0121496Y0085000D02*
X0121496Y0050852D01*
X0120697Y0050826D02*
X0120697Y0085000D01*
X0119899Y0085000D02*
X0119899Y0050495D01*
X0119100Y0049881D02*
X0119100Y0085000D01*
X0118302Y0085000D02*
X0118302Y0049652D01*
X0117503Y0049652D02*
X0117503Y0085000D01*
X0116705Y0085000D02*
X0116705Y0049652D01*
X0115906Y0049539D02*
X0115906Y0085000D01*
X0115108Y0085000D02*
X0115108Y0048740D01*
X0114848Y0048480D02*
X0114848Y0048480D01*
X0114309Y0047942D02*
X0114309Y0085000D01*
X0113511Y0085000D02*
X0113511Y0047400D01*
X0112712Y0047400D02*
X0112712Y0085000D01*
X0111914Y0085000D02*
X0111914Y0047400D01*
X0111115Y0047400D02*
X0111115Y0085000D01*
X0110317Y0085000D02*
X0110317Y0047400D01*
X0109518Y0047400D02*
X0109518Y0085000D01*
X0108720Y0085000D02*
X0108720Y0047400D01*
X0107921Y0047400D02*
X0107921Y0085000D01*
X0107123Y0084201D02*
X0107123Y0047400D01*
X0106324Y0047400D02*
X0106324Y0083804D01*
X0105526Y0083600D02*
X0105526Y0047400D01*
X0104727Y0047400D02*
X0104727Y0083503D01*
X0103928Y0082704D02*
X0103928Y0047400D01*
X0103130Y0047400D02*
X0103130Y0081906D01*
X0102331Y0081107D02*
X0102331Y0047400D01*
X0101533Y0047691D02*
X0101533Y0080309D01*
X0100734Y0079510D02*
X0100734Y0048490D01*
X0099936Y0049288D02*
X0099936Y0078712D01*
X0099137Y0077913D02*
X0099137Y0050087D01*
X0096996Y0049400D02*
X0096996Y0078600D01*
X0105196Y0086800D01*
X0105396Y0087000D01*
X0128996Y0087000D01*
X0131846Y0089850D01*
X0131846Y0092303D01*
X0133421Y0092303D02*
X0133421Y0085425D01*
X0130996Y0083000D01*
X0136571Y0084425D02*
X0136571Y0092303D01*
X0138146Y0092303D02*
X0138146Y0088850D01*
X0139996Y0087000D01*
X0142257Y0084736D02*
X0142257Y0016034D01*
X0141459Y0015760D02*
X0141459Y0046632D01*
X0140660Y0045339D02*
X0140660Y0015486D01*
X0139862Y0015212D02*
X0139862Y0044743D01*
X0139063Y0044413D02*
X0139063Y0014938D01*
X0138264Y0014664D02*
X0138264Y0044400D01*
X0137466Y0044522D02*
X0137466Y0039556D01*
X0137709Y0039313D02*
X0136809Y0040213D01*
X0135633Y0040700D01*
X0134359Y0040700D01*
X0133183Y0040213D01*
X0132283Y0039313D01*
X0131796Y0038137D01*
X0131796Y0036863D01*
X0132283Y0035687D01*
X0133183Y0034787D01*
X0134359Y0034300D01*
X0135633Y0034300D01*
X0136809Y0034787D01*
X0137709Y0035687D01*
X0138196Y0036863D01*
X0138196Y0038137D01*
X0137709Y0039313D01*
X0136667Y0040271D02*
X0136667Y0044852D01*
X0135869Y0045602D02*
X0135869Y0040602D01*
X0135070Y0040700D02*
X0135070Y0045652D01*
X0134272Y0045652D02*
X0134272Y0040664D01*
X0133473Y0040333D02*
X0133473Y0045652D01*
X0132675Y0045652D02*
X0132675Y0039704D01*
X0131876Y0038331D02*
X0131876Y0045652D01*
X0131078Y0045652D02*
X0131078Y0013174D01*
X0131876Y0013307D02*
X0131876Y0036669D01*
X0132675Y0035296D02*
X0132675Y0013441D01*
X0133473Y0013574D02*
X0133473Y0034667D01*
X0134272Y0034336D02*
X0134272Y0013707D01*
X0135070Y0013840D02*
X0135070Y0034300D01*
X0135869Y0034398D02*
X0135869Y0013974D01*
X0136667Y0014115D02*
X0136667Y0034729D01*
X0137466Y0035444D02*
X0137466Y0014389D01*
X0143056Y0016308D02*
X0143056Y0086024D01*
X0141459Y0084142D02*
X0141459Y0084063D01*
X0141459Y0079937D02*
X0141459Y0048568D01*
X0140660Y0049861D02*
X0140660Y0079226D01*
X0139862Y0078895D02*
X0139862Y0050457D01*
X0138344Y0047652D02*
X0138396Y0047600D01*
X0138344Y0047652D02*
X0121796Y0047652D01*
X0121396Y0047652D01*
X0116848Y0047652D01*
X0114596Y0045400D01*
X0100996Y0045400D01*
X0096996Y0049400D01*
X0095943Y0047624D02*
X0095943Y0028428D01*
X0096742Y0028600D02*
X0096742Y0046826D01*
X0097540Y0046027D02*
X0097540Y0028773D01*
X0098339Y0029571D02*
X0098339Y0045229D01*
X0099137Y0044430D02*
X0099137Y0030370D01*
X0099936Y0031168D02*
X0099936Y0043632D01*
X0100734Y0043400D02*
X0100734Y0031400D01*
X0101533Y0031400D02*
X0101533Y0043400D01*
X0102331Y0043400D02*
X0102331Y0031400D01*
X0103130Y0031400D02*
X0103130Y0043400D01*
X0103928Y0043400D02*
X0103928Y0031400D01*
X0104727Y0031559D02*
X0104727Y0043400D01*
X0105526Y0043400D02*
X0105526Y0037958D01*
X0106324Y0038756D02*
X0106324Y0043400D01*
X0107123Y0043400D02*
X0107123Y0039555D01*
X0107921Y0040353D02*
X0107921Y0043400D01*
X0108720Y0043400D02*
X0108720Y0041152D01*
X0109518Y0041800D02*
X0109518Y0043400D01*
X0110317Y0043400D02*
X0110317Y0041800D01*
X0111115Y0041800D02*
X0111115Y0043400D01*
X0111914Y0043400D02*
X0111914Y0041800D01*
X0112712Y0042242D02*
X0112712Y0043400D01*
X0113511Y0043400D02*
X0113511Y0042731D01*
X0114309Y0043000D02*
X0114309Y0043400D01*
X0115108Y0043400D02*
X0115108Y0043000D01*
X0115906Y0042804D02*
X0115906Y0043882D01*
X0116705Y0044680D02*
X0116705Y0042417D01*
X0117503Y0041618D02*
X0117503Y0045479D01*
X0118302Y0045652D02*
X0118302Y0038923D01*
X0119100Y0038421D02*
X0119100Y0045422D01*
X0119899Y0044808D02*
X0119899Y0037354D01*
X0120697Y0037200D02*
X0120697Y0044477D01*
X0121496Y0044452D02*
X0121496Y0037200D01*
X0122294Y0036926D02*
X0122294Y0044560D01*
X0123093Y0044891D02*
X0123093Y0036429D01*
X0123891Y0035372D02*
X0123891Y0045621D01*
X0124690Y0045652D02*
X0124690Y0012661D01*
X0125488Y0012670D02*
X0125488Y0045652D01*
X0126287Y0045652D02*
X0126287Y0012703D01*
X0127085Y0012736D02*
X0127085Y0045652D01*
X0127884Y0045652D02*
X0127884Y0012769D01*
X0128682Y0012802D02*
X0128682Y0045652D01*
X0129481Y0045652D02*
X0129481Y0012908D01*
X0130279Y0013041D02*
X0130279Y0045652D01*
X0120996Y0034000D02*
X0118996Y0034000D01*
X0116571Y0031575D01*
X0116571Y0027697D01*
X0118146Y0027697D02*
X0118146Y0029650D01*
X0119496Y0031000D01*
X0121496Y0031000D01*
X0128996Y0023500D01*
X0128996Y0020500D01*
X0122496Y0014000D01*
X0119496Y0014000D01*
X0118146Y0015350D01*
X0118146Y0017303D01*
X0119100Y0017303D02*
X0119100Y0017303D01*
X0119899Y0017303D02*
X0119899Y0017303D01*
X0119899Y0019883D02*
X0119899Y0025117D01*
X0119100Y0024160D02*
X0119100Y0020840D01*
X0118302Y0020947D02*
X0118302Y0024053D01*
X0118146Y0024053D02*
X0118146Y0024371D01*
X0118146Y0024371D01*
X0118146Y0024053D01*
X0117503Y0023853D02*
X0117503Y0021147D01*
X0116705Y0021320D02*
X0116705Y0023853D01*
X0115906Y0023853D02*
X0115906Y0022118D01*
X0115824Y0022200D02*
X0115824Y0022200D01*
X0115108Y0022917D02*
X0115108Y0023853D01*
X0114309Y0023853D02*
X0114309Y0023715D01*
X0112996Y0022200D02*
X0114996Y0020200D01*
X0116571Y0018625D01*
X0116571Y0017303D01*
X0114996Y0017303D02*
X0114996Y0020200D01*
X0113421Y0018175D02*
X0111846Y0019750D01*
X0111396Y0020200D01*
X0099596Y0020200D01*
X0096996Y0022800D01*
X0096996Y0025400D01*
X0100996Y0029400D01*
X0105396Y0029400D01*
X0106796Y0030800D01*
X0106796Y0036400D01*
X0110196Y0039800D01*
X0114796Y0039800D01*
X0116996Y0036000D02*
X0114996Y0034000D01*
X0114996Y0027697D01*
X0113421Y0027697D02*
X0113421Y0034575D01*
X0111996Y0036000D01*
X0109996Y0032000D02*
X0111846Y0030150D01*
X0111846Y0027697D01*
X0112996Y0022200D02*
X0102196Y0022200D01*
X0101396Y0023000D01*
X0111846Y0019750D02*
X0111846Y0017303D01*
X0113421Y0017303D02*
X0113421Y0018175D01*
X0117503Y0013459D02*
X0117503Y0013358D01*
X0118146Y0013659D02*
X0118146Y0013977D01*
X0118146Y0013978D01*
X0118146Y0013659D01*
X0118302Y0013659D02*
X0118302Y0013245D01*
X0119100Y0013131D02*
X0119100Y0013766D01*
X0119899Y0013017D02*
X0119899Y0014723D01*
X0120697Y0012904D02*
X0120697Y0030800D01*
X0121496Y0030800D02*
X0121496Y0012790D01*
X0122294Y0012745D02*
X0122294Y0031074D01*
X0123093Y0031571D02*
X0123093Y0012717D01*
X0123891Y0012689D02*
X0123891Y0032628D01*
X0119899Y0030991D02*
X0119899Y0030277D01*
X0119100Y0031234D02*
X0119100Y0031276D01*
X0119100Y0027697D02*
X0119100Y0027697D01*
X0118571Y0027697D02*
X0119939Y0027697D01*
X0118571Y0027697D01*
X0118571Y0027697D01*
X0119899Y0027697D02*
X0119899Y0027697D01*
D200*
X0120996Y0034000D03*
X0116996Y0036000D03*
X0114796Y0039800D03*
X0111996Y0036000D03*
X0109996Y0032000D03*
X0101396Y0023000D03*
X0096996Y0025400D03*
X0107396Y0049600D03*
X0115996Y0063000D03*
X0115996Y0077000D03*
X0105196Y0086800D03*
X0120796Y0099200D03*
X0123396Y0103000D03*
X0126996Y0106000D03*
X0128996Y0087000D03*
X0130996Y0083000D03*
X0134996Y0082000D03*
X0138996Y0082000D03*
X0139996Y0087000D03*
X0146196Y0094600D03*
X0146196Y0099800D03*
X0147996Y0082000D03*
X0158996Y0082000D03*
X0156496Y0064000D03*
X0150496Y0050000D03*
X0138396Y0047600D03*
X0134996Y0037500D03*
X0121396Y0047652D03*
X0134996Y0063000D03*
X0134996Y0077000D03*
X0162996Y0041000D03*
X0147996Y0021500D03*
X0128996Y0020500D03*
X0010000Y0110000D02*
G75*
%LPD*%
D528*
X0035650Y0117303D03*
X0034075Y0117303D03*
X0032500Y0117303D03*
X0030925Y0117303D03*
X0029350Y0117303D03*
X0029350Y0127697D03*
X0030925Y0127697D03*
X0032500Y0127697D03*
X0034075Y0127697D03*
X0035650Y0127697D03*
X0049350Y0192303D03*
X0050925Y0192303D03*
X0052500Y0192303D03*
X0054075Y0192303D03*
X0055650Y0192303D03*
X0055650Y0202697D03*
X0054075Y0202697D03*
X0052500Y0202697D03*
X0050925Y0202697D03*
X0049350Y0202697D03*
D135*
X0076530Y0192707D02*
X0076530Y0127293D01*
X0077328Y0128161D02*
X0077328Y0191839D01*
X0078127Y0190972D02*
X0078127Y0129028D01*
X0078925Y0129895D02*
X0078925Y0190105D01*
X0079724Y0189237D02*
X0079724Y0130763D01*
X0079866Y0130917D02*
X0074569Y0125163D01*
X0068398Y0120360D01*
X0061520Y0116638D01*
X0054124Y0114099D01*
X0046410Y0112812D01*
X0042500Y0112650D01*
X0042500Y0112650D01*
X0039152Y0112768D01*
X0034300Y0113459D01*
X0035131Y0113459D01*
X0035331Y0113659D01*
X0035650Y0113659D01*
X0036228Y0113659D01*
X0036584Y0113754D01*
X0036903Y0113939D01*
X0037164Y0114199D01*
X0037348Y0114519D01*
X0037443Y0114875D01*
X0037443Y0117303D01*
X0036075Y0117303D01*
X0036075Y0117303D01*
X0037443Y0117303D01*
X0037443Y0119732D01*
X0037348Y0120088D01*
X0037164Y0120407D01*
X0036903Y0120668D01*
X0036584Y0120852D01*
X0036228Y0120947D01*
X0035650Y0120947D01*
X0035650Y0120629D01*
X0035650Y0120629D01*
X0035650Y0120947D01*
X0035331Y0120947D01*
X0035131Y0121147D01*
X0034381Y0121147D01*
X0033328Y0122200D01*
X0031676Y0123853D01*
X0033018Y0123853D01*
X0035131Y0123853D01*
X0035331Y0124053D01*
X0035650Y0124053D01*
X0036228Y0124053D01*
X0036584Y0124148D01*
X0036903Y0124332D01*
X0037164Y0124593D01*
X0037348Y0124912D01*
X0037443Y0125268D01*
X0037443Y0127697D01*
X0037443Y0130125D01*
X0037348Y0130481D01*
X0037164Y0130801D01*
X0036903Y0131061D01*
X0036584Y0131246D01*
X0036576Y0131248D01*
X0036651Y0131323D01*
X0036687Y0131287D01*
X0037863Y0130800D01*
X0039137Y0130800D01*
X0040313Y0131287D01*
X0041213Y0132187D01*
X0041700Y0133363D01*
X0041700Y0134637D01*
X0041213Y0135813D01*
X0040313Y0136713D01*
X0039137Y0137200D01*
X0037863Y0137200D01*
X0037525Y0137060D01*
X0037213Y0137813D01*
X0036313Y0138713D01*
X0035460Y0139066D01*
X0035500Y0139163D01*
X0035500Y0140437D01*
X0035013Y0141613D01*
X0034113Y0142513D01*
X0032937Y0143000D01*
X0031663Y0143000D01*
X0030487Y0142513D01*
X0029775Y0141800D01*
X0026872Y0141800D01*
X0023472Y0138400D01*
X0023472Y0138400D01*
X0022300Y0137228D01*
X0022300Y0131628D01*
X0022072Y0131400D01*
X0017672Y0131400D01*
X0016500Y0130228D01*
X0014872Y0128600D01*
X0013863Y0128600D01*
X0012687Y0128113D01*
X0012650Y0128075D01*
X0012650Y0148422D01*
X0013672Y0147400D01*
X0017672Y0143400D01*
X0032928Y0143400D01*
X0034100Y0144572D01*
X0035180Y0145652D01*
X0036375Y0145652D01*
X0037087Y0144939D01*
X0038263Y0144452D01*
X0039537Y0144452D01*
X0040713Y0144939D01*
X0041425Y0145652D01*
X0053323Y0145652D01*
X0054087Y0144887D01*
X0055263Y0144400D01*
X0056537Y0144400D01*
X0057713Y0144887D01*
X0058613Y0145787D01*
X0059100Y0146963D01*
X0059100Y0148237D01*
X0058613Y0149413D01*
X0057713Y0150313D01*
X0056537Y0150800D01*
X0055263Y0150800D01*
X0054087Y0150313D01*
X0053426Y0149652D01*
X0041425Y0149652D01*
X0040713Y0150364D01*
X0039537Y0150852D01*
X0038263Y0150852D01*
X0037087Y0150364D01*
X0036375Y0149652D01*
X0033523Y0149652D01*
X0032352Y0148480D01*
X0031272Y0147400D01*
X0019328Y0147400D01*
X0016500Y0150228D01*
X0016500Y0177772D01*
X0022328Y0183600D01*
X0023337Y0183600D01*
X0024513Y0184087D01*
X0025413Y0184987D01*
X0025418Y0185000D01*
X0043975Y0185000D01*
X0044687Y0184287D01*
X0045440Y0183975D01*
X0045300Y0183637D01*
X0045300Y0182363D01*
X0045787Y0181187D01*
X0046687Y0180287D01*
X0047863Y0179800D01*
X0049137Y0179800D01*
X0049870Y0180104D01*
X0050687Y0179287D01*
X0051863Y0178800D01*
X0053137Y0178800D01*
X0054313Y0179287D01*
X0054500Y0179475D01*
X0054687Y0179287D01*
X0055863Y0178800D01*
X0057137Y0178800D01*
X0058313Y0179287D01*
X0059213Y0180187D01*
X0059700Y0181363D01*
X0059700Y0182637D01*
X0059213Y0183813D01*
X0058907Y0184119D01*
X0059313Y0184287D01*
X0060213Y0185187D01*
X0060700Y0186363D01*
X0060700Y0187637D01*
X0060213Y0188813D01*
X0059313Y0189713D01*
X0058137Y0190200D01*
X0057650Y0190200D01*
X0057650Y0193132D01*
X0057643Y0193138D01*
X0057643Y0195210D01*
X0057253Y0195600D01*
X0059709Y0195600D01*
X0060500Y0194859D01*
X0060500Y0193963D01*
X0060987Y0192787D01*
X0061887Y0191887D01*
X0063063Y0191400D01*
X0064337Y0191400D01*
X0065513Y0191887D01*
X0066413Y0192787D01*
X0066900Y0193963D01*
X0066900Y0195237D01*
X0066413Y0196413D01*
X0065625Y0197200D01*
X0066413Y0197987D01*
X0066900Y0199163D01*
X0066900Y0200437D01*
X0066893Y0200455D01*
X0068398Y0199640D01*
X0074569Y0194837D01*
X0079866Y0189083D01*
X0084143Y0182536D01*
X0087284Y0175375D01*
X0089204Y0167794D01*
X0089850Y0160000D01*
X0089204Y0152206D01*
X0087284Y0144625D01*
X0084143Y0137464D01*
X0079866Y0130917D01*
X0080522Y0131922D02*
X0080522Y0188078D01*
X0081321Y0186856D02*
X0081321Y0133144D01*
X0082119Y0134366D02*
X0082119Y0185634D01*
X0082918Y0184411D02*
X0082918Y0135589D01*
X0083716Y0136811D02*
X0083716Y0183189D01*
X0084515Y0181689D02*
X0084515Y0138311D01*
X0085313Y0140132D02*
X0085313Y0179868D01*
X0086112Y0178048D02*
X0086112Y0141952D01*
X0086910Y0143773D02*
X0086910Y0176227D01*
X0087709Y0173698D02*
X0087709Y0146302D01*
X0088507Y0149455D02*
X0088507Y0170545D01*
X0089306Y0166566D02*
X0089306Y0153434D01*
X0075731Y0126426D02*
X0075731Y0193574D01*
X0074933Y0194442D02*
X0074933Y0125558D01*
X0074134Y0124825D02*
X0074134Y0195175D01*
X0073336Y0195797D02*
X0073336Y0124203D01*
X0072537Y0123582D02*
X0072537Y0196418D01*
X0071739Y0197040D02*
X0071739Y0122960D01*
X0070940Y0122339D02*
X0070940Y0197661D01*
X0070142Y0198283D02*
X0070142Y0121717D01*
X0069343Y0121096D02*
X0069343Y0198904D01*
X0068545Y0199526D02*
X0068545Y0120474D01*
X0067746Y0120007D02*
X0067746Y0199993D01*
X0066948Y0200425D02*
X0066948Y0119575D01*
X0066149Y0119143D02*
X0066149Y0192524D01*
X0065351Y0191820D02*
X0065351Y0118711D01*
X0064552Y0118279D02*
X0064552Y0191489D01*
X0063754Y0191400D02*
X0063754Y0117847D01*
X0062955Y0117415D02*
X0062955Y0191445D01*
X0062157Y0191776D02*
X0062157Y0116982D01*
X0061358Y0116582D02*
X0061358Y0192416D01*
X0060560Y0193820D02*
X0060560Y0187976D01*
X0059761Y0189264D02*
X0059761Y0195551D01*
X0058963Y0195600D02*
X0058963Y0189858D01*
X0058164Y0190189D02*
X0058164Y0195600D01*
X0057366Y0195600D02*
X0057366Y0195488D01*
X0055300Y0197600D02*
X0060500Y0197600D01*
X0063700Y0194600D01*
X0066149Y0196676D02*
X0066149Y0197724D01*
X0063700Y0199800D02*
X0056300Y0199800D01*
X0055650Y0200450D01*
X0055650Y0202697D01*
X0054075Y0202697D02*
X0054075Y0198825D01*
X0055300Y0197600D01*
X0052500Y0199600D02*
X0050700Y0197800D01*
X0039700Y0197800D01*
X0038300Y0199200D01*
X0040900Y0203000D02*
X0044500Y0199400D01*
X0050300Y0199400D01*
X0050925Y0200025D01*
X0050925Y0202697D01*
X0049350Y0202697D02*
X0049350Y0205150D01*
X0047900Y0206600D01*
X0045100Y0206600D01*
X0044500Y0206000D01*
X0052500Y0202697D02*
X0052500Y0199600D01*
X0052500Y0192303D02*
X0052500Y0182000D01*
X0054075Y0184425D02*
X0056500Y0182000D01*
X0056567Y0178800D02*
X0056567Y0150787D01*
X0055768Y0150800D02*
X0055768Y0178839D01*
X0054970Y0179170D02*
X0054970Y0150678D01*
X0054171Y0150348D02*
X0054171Y0179229D01*
X0053373Y0178898D02*
X0053373Y0149652D01*
X0052574Y0149652D02*
X0052574Y0178800D01*
X0051776Y0178836D02*
X0051776Y0149652D01*
X0050977Y0149652D02*
X0050977Y0179167D01*
X0050179Y0179796D02*
X0050179Y0149652D01*
X0049380Y0149652D02*
X0049380Y0179901D01*
X0048582Y0179800D02*
X0048582Y0149652D01*
X0047783Y0149652D02*
X0047783Y0179833D01*
X0046985Y0180164D02*
X0046985Y0149652D01*
X0046186Y0149652D02*
X0046186Y0180788D01*
X0045388Y0182151D02*
X0045388Y0149652D01*
X0044589Y0149652D02*
X0044589Y0184385D01*
X0045388Y0183997D02*
X0045388Y0183849D01*
X0043791Y0185000D02*
X0043791Y0149652D01*
X0042992Y0149652D02*
X0042992Y0185000D01*
X0042194Y0185000D02*
X0042194Y0149652D01*
X0041395Y0149682D02*
X0041395Y0185000D01*
X0040597Y0185000D02*
X0040597Y0150412D01*
X0039798Y0150743D02*
X0039798Y0185000D01*
X0039000Y0185000D02*
X0039000Y0150852D01*
X0038201Y0150826D02*
X0038201Y0185000D01*
X0037403Y0185000D02*
X0037403Y0150495D01*
X0036604Y0149881D02*
X0036604Y0185000D01*
X0035806Y0185000D02*
X0035806Y0149652D01*
X0035007Y0149652D02*
X0035007Y0185000D01*
X0034209Y0185000D02*
X0034209Y0149652D01*
X0033410Y0149539D02*
X0033410Y0185000D01*
X0032612Y0185000D02*
X0032612Y0148740D01*
X0032352Y0148480D02*
X0032352Y0148480D01*
X0031813Y0147942D02*
X0031813Y0185000D01*
X0031015Y0185000D02*
X0031015Y0147400D01*
X0030216Y0147400D02*
X0030216Y0185000D01*
X0029418Y0185000D02*
X0029418Y0147400D01*
X0028619Y0147400D02*
X0028619Y0185000D01*
X0027821Y0185000D02*
X0027821Y0147400D01*
X0027022Y0147400D02*
X0027022Y0185000D01*
X0026224Y0185000D02*
X0026224Y0147400D01*
X0025425Y0147400D02*
X0025425Y0185000D01*
X0024627Y0184201D02*
X0024627Y0147400D01*
X0023828Y0147400D02*
X0023828Y0183804D01*
X0023030Y0183600D02*
X0023030Y0147400D01*
X0022231Y0147400D02*
X0022231Y0183503D01*
X0021432Y0182704D02*
X0021432Y0147400D01*
X0020634Y0147400D02*
X0020634Y0181906D01*
X0019835Y0181107D02*
X0019835Y0147400D01*
X0019037Y0147691D02*
X0019037Y0180309D01*
X0018238Y0179510D02*
X0018238Y0148490D01*
X0017440Y0149288D02*
X0017440Y0178712D01*
X0016641Y0177913D02*
X0016641Y0150087D01*
X0014500Y0149400D02*
X0014500Y0178600D01*
X0022700Y0186800D01*
X0022900Y0187000D01*
X0046500Y0187000D01*
X0049350Y0189850D01*
X0049350Y0192303D01*
X0050925Y0192303D02*
X0050925Y0185425D01*
X0048500Y0183000D01*
X0054075Y0184425D02*
X0054075Y0192303D01*
X0055650Y0192303D02*
X0055650Y0188850D01*
X0057500Y0187000D01*
X0059761Y0184736D02*
X0059761Y0116034D01*
X0058963Y0115760D02*
X0058963Y0146632D01*
X0058164Y0145339D02*
X0058164Y0115486D01*
X0057366Y0115212D02*
X0057366Y0144743D01*
X0056567Y0144413D02*
X0056567Y0114938D01*
X0055768Y0114664D02*
X0055768Y0144400D01*
X0054970Y0144522D02*
X0054970Y0139556D01*
X0055213Y0139313D02*
X0054313Y0140213D01*
X0053137Y0140700D01*
X0051863Y0140700D01*
X0050687Y0140213D01*
X0049787Y0139313D01*
X0049300Y0138137D01*
X0049300Y0136863D01*
X0049787Y0135687D01*
X0050687Y0134787D01*
X0051863Y0134300D01*
X0053137Y0134300D01*
X0054313Y0134787D01*
X0055213Y0135687D01*
X0055700Y0136863D01*
X0055700Y0138137D01*
X0055213Y0139313D01*
X0054171Y0140271D02*
X0054171Y0144852D01*
X0053373Y0145602D02*
X0053373Y0140602D01*
X0052574Y0140700D02*
X0052574Y0145652D01*
X0051776Y0145652D02*
X0051776Y0140664D01*
X0050977Y0140333D02*
X0050977Y0145652D01*
X0050179Y0145652D02*
X0050179Y0139704D01*
X0049380Y0138331D02*
X0049380Y0145652D01*
X0048582Y0145652D02*
X0048582Y0113174D01*
X0049380Y0113307D02*
X0049380Y0136669D01*
X0050179Y0135296D02*
X0050179Y0113441D01*
X0050977Y0113574D02*
X0050977Y0134667D01*
X0051776Y0134336D02*
X0051776Y0113707D01*
X0052574Y0113840D02*
X0052574Y0134300D01*
X0053373Y0134398D02*
X0053373Y0113974D01*
X0054171Y0114115D02*
X0054171Y0134729D01*
X0054970Y0135444D02*
X0054970Y0114389D01*
X0060560Y0116308D02*
X0060560Y0186024D01*
X0058963Y0184142D02*
X0058963Y0184063D01*
X0058963Y0179937D02*
X0058963Y0148568D01*
X0058164Y0149861D02*
X0058164Y0179226D01*
X0057366Y0178895D02*
X0057366Y0150457D01*
X0055848Y0147652D02*
X0055900Y0147600D01*
X0055848Y0147652D02*
X0039300Y0147652D01*
X0038900Y0147652D01*
X0034352Y0147652D01*
X0032100Y0145400D01*
X0018500Y0145400D01*
X0014500Y0149400D01*
X0013447Y0147624D02*
X0013447Y0128428D01*
X0014246Y0128600D02*
X0014246Y0146826D01*
X0015044Y0146027D02*
X0015044Y0128773D01*
X0015843Y0129571D02*
X0015843Y0145229D01*
X0016641Y0144430D02*
X0016641Y0130370D01*
X0017440Y0131168D02*
X0017440Y0143632D01*
X0018238Y0143400D02*
X0018238Y0131400D01*
X0019037Y0131400D02*
X0019037Y0143400D01*
X0019835Y0143400D02*
X0019835Y0131400D01*
X0020634Y0131400D02*
X0020634Y0143400D01*
X0021432Y0143400D02*
X0021432Y0131400D01*
X0022231Y0131559D02*
X0022231Y0143400D01*
X0023030Y0143400D02*
X0023030Y0137958D01*
X0023828Y0138756D02*
X0023828Y0143400D01*
X0024627Y0143400D02*
X0024627Y0139555D01*
X0025425Y0140353D02*
X0025425Y0143400D01*
X0026224Y0143400D02*
X0026224Y0141152D01*
X0027022Y0141800D02*
X0027022Y0143400D01*
X0027821Y0143400D02*
X0027821Y0141800D01*
X0028619Y0141800D02*
X0028619Y0143400D01*
X0029418Y0143400D02*
X0029418Y0141800D01*
X0030216Y0142242D02*
X0030216Y0143400D01*
X0031015Y0143400D02*
X0031015Y0142731D01*
X0031813Y0143000D02*
X0031813Y0143400D01*
X0032612Y0143400D02*
X0032612Y0143000D01*
X0033410Y0142804D02*
X0033410Y0143882D01*
X0034209Y0144680D02*
X0034209Y0142417D01*
X0035007Y0141618D02*
X0035007Y0145479D01*
X0035806Y0145652D02*
X0035806Y0138923D01*
X0036604Y0138421D02*
X0036604Y0145422D01*
X0037403Y0144808D02*
X0037403Y0137354D01*
X0038201Y0137200D02*
X0038201Y0144477D01*
X0039000Y0144452D02*
X0039000Y0137200D01*
X0039798Y0136926D02*
X0039798Y0144560D01*
X0040597Y0144891D02*
X0040597Y0136429D01*
X0041395Y0135372D02*
X0041395Y0145621D01*
X0042194Y0145652D02*
X0042194Y0112661D01*
X0042992Y0112670D02*
X0042992Y0145652D01*
X0043791Y0145652D02*
X0043791Y0112703D01*
X0044589Y0112736D02*
X0044589Y0145652D01*
X0045388Y0145652D02*
X0045388Y0112769D01*
X0046186Y0112802D02*
X0046186Y0145652D01*
X0046985Y0145652D02*
X0046985Y0112908D01*
X0047783Y0113041D02*
X0047783Y0145652D01*
X0038500Y0134000D02*
X0036500Y0134000D01*
X0034075Y0131575D01*
X0034075Y0127697D01*
X0035650Y0127697D02*
X0035650Y0129650D01*
X0037000Y0131000D01*
X0039000Y0131000D01*
X0046500Y0123500D01*
X0046500Y0120500D01*
X0040000Y0114000D01*
X0037000Y0114000D01*
X0035650Y0115350D01*
X0035650Y0117303D01*
X0036604Y0117303D02*
X0036604Y0117303D01*
X0037403Y0117303D02*
X0037403Y0117303D01*
X0037403Y0119883D02*
X0037403Y0125117D01*
X0036604Y0124160D02*
X0036604Y0120840D01*
X0035806Y0120947D02*
X0035806Y0124053D01*
X0035650Y0124053D02*
X0035650Y0124371D01*
X0035650Y0124371D01*
X0035650Y0124053D01*
X0035007Y0123853D02*
X0035007Y0121147D01*
X0034209Y0121320D02*
X0034209Y0123853D01*
X0033410Y0123853D02*
X0033410Y0122118D01*
X0033328Y0122200D02*
X0033328Y0122200D01*
X0032612Y0122917D02*
X0032612Y0123853D01*
X0031813Y0123853D02*
X0031813Y0123715D01*
X0030500Y0122200D02*
X0032500Y0120200D01*
X0034075Y0118625D01*
X0034075Y0117303D01*
X0032500Y0117303D02*
X0032500Y0120200D01*
X0030925Y0118175D02*
X0029350Y0119750D01*
X0028900Y0120200D01*
X0017100Y0120200D01*
X0014500Y0122800D01*
X0014500Y0125400D01*
X0018500Y0129400D01*
X0022900Y0129400D01*
X0024300Y0130800D01*
X0024300Y0136400D01*
X0027700Y0139800D01*
X0032300Y0139800D01*
X0034500Y0136000D02*
X0032500Y0134000D01*
X0032500Y0127697D01*
X0030925Y0127697D02*
X0030925Y0134575D01*
X0029500Y0136000D01*
X0027500Y0132000D02*
X0029350Y0130150D01*
X0029350Y0127697D01*
X0030500Y0122200D02*
X0019700Y0122200D01*
X0018900Y0123000D01*
X0029350Y0119750D02*
X0029350Y0117303D01*
X0030925Y0117303D02*
X0030925Y0118175D01*
X0035007Y0113459D02*
X0035007Y0113358D01*
X0035650Y0113659D02*
X0035650Y0113977D01*
X0035650Y0113978D01*
X0035650Y0113659D01*
X0035806Y0113659D02*
X0035806Y0113245D01*
X0036604Y0113131D02*
X0036604Y0113766D01*
X0037403Y0113017D02*
X0037403Y0114723D01*
X0038201Y0112904D02*
X0038201Y0130800D01*
X0039000Y0130800D02*
X0039000Y0112790D01*
X0039798Y0112745D02*
X0039798Y0131074D01*
X0040597Y0131571D02*
X0040597Y0112717D01*
X0041395Y0112689D02*
X0041395Y0132628D01*
X0037403Y0130991D02*
X0037403Y0130277D01*
X0036604Y0131234D02*
X0036604Y0131276D01*
X0036604Y0127697D02*
X0036604Y0127697D01*
X0036075Y0127697D02*
X0037443Y0127697D01*
X0036075Y0127697D01*
X0036075Y0127697D01*
X0037403Y0127697D02*
X0037403Y0127697D01*
D200*
X0038500Y0134000D03*
X0034500Y0136000D03*
X0032300Y0139800D03*
X0029500Y0136000D03*
X0027500Y0132000D03*
X0018900Y0123000D03*
X0014500Y0125400D03*
X0024900Y0149600D03*
X0033500Y0163000D03*
X0033500Y0177000D03*
X0022700Y0186800D03*
X0038300Y0199200D03*
X0040900Y0203000D03*
X0044500Y0206000D03*
X0046500Y0187000D03*
X0048500Y0183000D03*
X0052500Y0182000D03*
X0056500Y0182000D03*
X0057500Y0187000D03*
X0063700Y0194600D03*
X0063700Y0199800D03*
X0065500Y0182000D03*
X0076500Y0182000D03*
X0074000Y0164000D03*
X0068000Y0150000D03*
X0055900Y0147600D03*
X0052500Y0137500D03*
X0038900Y0147652D03*
X0052500Y0163000D03*
X0052500Y0177000D03*
X0080500Y0141000D03*
X0065500Y0121500D03*
X0046500Y0120500D03*
X0010000Y0210000D02*
G75*
%LPD*%
D528*
X0035650Y0217303D03*
X0034075Y0217303D03*
X0032500Y0217303D03*
X0030925Y0217303D03*
X0029350Y0217303D03*
X0029350Y0227697D03*
X0030925Y0227697D03*
X0032500Y0227697D03*
X0034075Y0227697D03*
X0035650Y0227697D03*
X0049350Y0292303D03*
X0050925Y0292303D03*
X0052500Y0292303D03*
X0054075Y0292303D03*
X0055650Y0292303D03*
X0055650Y0302697D03*
X0054075Y0302697D03*
X0052500Y0302697D03*
X0050925Y0302697D03*
X0049350Y0302697D03*
D135*
X0076530Y0292707D02*
X0076530Y0227293D01*
X0077328Y0228161D02*
X0077328Y0291839D01*
X0078127Y0290972D02*
X0078127Y0229028D01*
X0078925Y0229895D02*
X0078925Y0290105D01*
X0079724Y0289237D02*
X0079724Y0230763D01*
X0079866Y0230917D02*
X0074569Y0225163D01*
X0068398Y0220360D01*
X0061520Y0216638D01*
X0054124Y0214099D01*
X0046410Y0212812D01*
X0042500Y0212650D01*
X0042500Y0212650D01*
X0039152Y0212768D01*
X0034300Y0213459D01*
X0035131Y0213459D01*
X0035331Y0213659D01*
X0035650Y0213659D01*
X0036228Y0213659D01*
X0036584Y0213754D01*
X0036903Y0213939D01*
X0037164Y0214199D01*
X0037348Y0214519D01*
X0037443Y0214875D01*
X0037443Y0217303D01*
X0036075Y0217303D01*
X0036075Y0217303D01*
X0037443Y0217303D01*
X0037443Y0219732D01*
X0037348Y0220088D01*
X0037164Y0220407D01*
X0036903Y0220668D01*
X0036584Y0220852D01*
X0036228Y0220947D01*
X0035650Y0220947D01*
X0035650Y0220629D01*
X0035650Y0220629D01*
X0035650Y0220947D01*
X0035331Y0220947D01*
X0035131Y0221147D01*
X0034381Y0221147D01*
X0033328Y0222200D01*
X0031676Y0223853D01*
X0033018Y0223853D01*
X0035131Y0223853D01*
X0035331Y0224053D01*
X0035650Y0224053D01*
X0036228Y0224053D01*
X0036584Y0224148D01*
X0036903Y0224332D01*
X0037164Y0224593D01*
X0037348Y0224912D01*
X0037443Y0225268D01*
X0037443Y0227697D01*
X0037443Y0230125D01*
X0037348Y0230481D01*
X0037164Y0230801D01*
X0036903Y0231061D01*
X0036584Y0231246D01*
X0036576Y0231248D01*
X0036651Y0231323D01*
X0036687Y0231287D01*
X0037863Y0230800D01*
X0039137Y0230800D01*
X0040313Y0231287D01*
X0041213Y0232187D01*
X0041700Y0233363D01*
X0041700Y0234637D01*
X0041213Y0235813D01*
X0040313Y0236713D01*
X0039137Y0237200D01*
X0037863Y0237200D01*
X0037525Y0237060D01*
X0037213Y0237813D01*
X0036313Y0238713D01*
X0035460Y0239066D01*
X0035500Y0239163D01*
X0035500Y0240437D01*
X0035013Y0241613D01*
X0034113Y0242513D01*
X0032937Y0243000D01*
X0031663Y0243000D01*
X0030487Y0242513D01*
X0029775Y0241800D01*
X0026872Y0241800D01*
X0023472Y0238400D01*
X0023472Y0238400D01*
X0022300Y0237228D01*
X0022300Y0231628D01*
X0022072Y0231400D01*
X0017672Y0231400D01*
X0016500Y0230228D01*
X0014872Y0228600D01*
X0013863Y0228600D01*
X0012687Y0228113D01*
X0012650Y0228075D01*
X0012650Y0248422D01*
X0013672Y0247400D01*
X0017672Y0243400D01*
X0032928Y0243400D01*
X0034100Y0244572D01*
X0035180Y0245652D01*
X0036375Y0245652D01*
X0037087Y0244939D01*
X0038263Y0244452D01*
X0039537Y0244452D01*
X0040713Y0244939D01*
X0041425Y0245652D01*
X0053323Y0245652D01*
X0054087Y0244887D01*
X0055263Y0244400D01*
X0056537Y0244400D01*
X0057713Y0244887D01*
X0058613Y0245787D01*
X0059100Y0246963D01*
X0059100Y0248237D01*
X0058613Y0249413D01*
X0057713Y0250313D01*
X0056537Y0250800D01*
X0055263Y0250800D01*
X0054087Y0250313D01*
X0053426Y0249652D01*
X0041425Y0249652D01*
X0040713Y0250364D01*
X0039537Y0250852D01*
X0038263Y0250852D01*
X0037087Y0250364D01*
X0036375Y0249652D01*
X0033523Y0249652D01*
X0032352Y0248480D01*
X0031272Y0247400D01*
X0019328Y0247400D01*
X0016500Y0250228D01*
X0016500Y0277772D01*
X0022328Y0283600D01*
X0023337Y0283600D01*
X0024513Y0284087D01*
X0025413Y0284987D01*
X0025418Y0285000D01*
X0043975Y0285000D01*
X0044687Y0284287D01*
X0045440Y0283975D01*
X0045300Y0283637D01*
X0045300Y0282363D01*
X0045787Y0281187D01*
X0046687Y0280287D01*
X0047863Y0279800D01*
X0049137Y0279800D01*
X0049870Y0280104D01*
X0050687Y0279287D01*
X0051863Y0278800D01*
X0053137Y0278800D01*
X0054313Y0279287D01*
X0054500Y0279475D01*
X0054687Y0279287D01*
X0055863Y0278800D01*
X0057137Y0278800D01*
X0058313Y0279287D01*
X0059213Y0280187D01*
X0059700Y0281363D01*
X0059700Y0282637D01*
X0059213Y0283813D01*
X0058907Y0284119D01*
X0059313Y0284287D01*
X0060213Y0285187D01*
X0060700Y0286363D01*
X0060700Y0287637D01*
X0060213Y0288813D01*
X0059313Y0289713D01*
X0058137Y0290200D01*
X0057650Y0290200D01*
X0057650Y0293132D01*
X0057643Y0293138D01*
X0057643Y0295210D01*
X0057253Y0295600D01*
X0059709Y0295600D01*
X0060500Y0294859D01*
X0060500Y0293963D01*
X0060987Y0292787D01*
X0061887Y0291887D01*
X0063063Y0291400D01*
X0064337Y0291400D01*
X0065513Y0291887D01*
X0066413Y0292787D01*
X0066900Y0293963D01*
X0066900Y0295237D01*
X0066413Y0296413D01*
X0065625Y0297200D01*
X0066413Y0297987D01*
X0066900Y0299163D01*
X0066900Y0300437D01*
X0066893Y0300455D01*
X0068398Y0299640D01*
X0074569Y0294837D01*
X0079866Y0289083D01*
X0084143Y0282536D01*
X0087284Y0275375D01*
X0089204Y0267794D01*
X0089850Y0260000D01*
X0089204Y0252206D01*
X0087284Y0244625D01*
X0084143Y0237464D01*
X0079866Y0230917D01*
X0080522Y0231922D02*
X0080522Y0288078D01*
X0081321Y0286856D02*
X0081321Y0233144D01*
X0082119Y0234366D02*
X0082119Y0285634D01*
X0082918Y0284411D02*
X0082918Y0235589D01*
X0083716Y0236811D02*
X0083716Y0283189D01*
X0084515Y0281689D02*
X0084515Y0238311D01*
X0085313Y0240132D02*
X0085313Y0279868D01*
X0086112Y0278048D02*
X0086112Y0241952D01*
X0086910Y0243773D02*
X0086910Y0276227D01*
X0087709Y0273698D02*
X0087709Y0246302D01*
X0088507Y0249455D02*
X0088507Y0270545D01*
X0089306Y0266566D02*
X0089306Y0253434D01*
X0075731Y0226426D02*
X0075731Y0293574D01*
X0074933Y0294442D02*
X0074933Y0225558D01*
X0074134Y0224825D02*
X0074134Y0295175D01*
X0073336Y0295797D02*
X0073336Y0224203D01*
X0072537Y0223582D02*
X0072537Y0296418D01*
X0071739Y0297040D02*
X0071739Y0222960D01*
X0070940Y0222339D02*
X0070940Y0297661D01*
X0070142Y0298283D02*
X0070142Y0221717D01*
X0069343Y0221096D02*
X0069343Y0298904D01*
X0068545Y0299526D02*
X0068545Y0220474D01*
X0067746Y0220007D02*
X0067746Y0299993D01*
X0066948Y0300425D02*
X0066948Y0219575D01*
X0066149Y0219143D02*
X0066149Y0292524D01*
X0065351Y0291820D02*
X0065351Y0218711D01*
X0064552Y0218279D02*
X0064552Y0291489D01*
X0063754Y0291400D02*
X0063754Y0217847D01*
X0062955Y0217415D02*
X0062955Y0291445D01*
X0062157Y0291776D02*
X0062157Y0216982D01*
X0061358Y0216582D02*
X0061358Y0292416D01*
X0060560Y0293820D02*
X0060560Y0287976D01*
X0059761Y0289264D02*
X0059761Y0295551D01*
X0058963Y0295600D02*
X0058963Y0289858D01*
X0058164Y0290189D02*
X0058164Y0295600D01*
X0057366Y0295600D02*
X0057366Y0295488D01*
X0055300Y0297600D02*
X0060500Y0297600D01*
X0063700Y0294600D01*
X0066149Y0296676D02*
X0066149Y0297724D01*
X0063700Y0299800D02*
X0056300Y0299800D01*
X0055650Y0300450D01*
X0055650Y0302697D01*
X0054075Y0302697D02*
X0054075Y0298825D01*
X0055300Y0297600D01*
X0052500Y0299600D02*
X0050700Y0297800D01*
X0039700Y0297800D01*
X0038300Y0299200D01*
X0040900Y0303000D02*
X0044500Y0299400D01*
X0050300Y0299400D01*
X0050925Y0300025D01*
X0050925Y0302697D01*
X0049350Y0302697D02*
X0049350Y0305150D01*
X0047900Y0306600D01*
X0045100Y0306600D01*
X0044500Y0306000D01*
X0052500Y0302697D02*
X0052500Y0299600D01*
X0052500Y0292303D02*
X0052500Y0282000D01*
X0054075Y0284425D02*
X0056500Y0282000D01*
X0056567Y0278800D02*
X0056567Y0250787D01*
X0055768Y0250800D02*
X0055768Y0278839D01*
X0054970Y0279170D02*
X0054970Y0250678D01*
X0054171Y0250348D02*
X0054171Y0279229D01*
X0053373Y0278898D02*
X0053373Y0249652D01*
X0052574Y0249652D02*
X0052574Y0278800D01*
X0051776Y0278836D02*
X0051776Y0249652D01*
X0050977Y0249652D02*
X0050977Y0279167D01*
X0050179Y0279796D02*
X0050179Y0249652D01*
X0049380Y0249652D02*
X0049380Y0279901D01*
X0048582Y0279800D02*
X0048582Y0249652D01*
X0047783Y0249652D02*
X0047783Y0279833D01*
X0046985Y0280164D02*
X0046985Y0249652D01*
X0046186Y0249652D02*
X0046186Y0280788D01*
X0045388Y0282151D02*
X0045388Y0249652D01*
X0044589Y0249652D02*
X0044589Y0284385D01*
X0045388Y0283997D02*
X0045388Y0283849D01*
X0043791Y0285000D02*
X0043791Y0249652D01*
X0042992Y0249652D02*
X0042992Y0285000D01*
X0042194Y0285000D02*
X0042194Y0249652D01*
X0041395Y0249682D02*
X0041395Y0285000D01*
X0040597Y0285000D02*
X0040597Y0250412D01*
X0039798Y0250743D02*
X0039798Y0285000D01*
X0039000Y0285000D02*
X0039000Y0250852D01*
X0038201Y0250826D02*
X0038201Y0285000D01*
X0037403Y0285000D02*
X0037403Y0250495D01*
X0036604Y0249881D02*
X0036604Y0285000D01*
X0035806Y0285000D02*
X0035806Y0249652D01*
X0035007Y0249652D02*
X0035007Y0285000D01*
X0034209Y0285000D02*
X0034209Y0249652D01*
X0033410Y0249539D02*
X0033410Y0285000D01*
X0032612Y0285000D02*
X0032612Y0248740D01*
X0032352Y0248480D02*
X0032352Y0248480D01*
X0031813Y0247942D02*
X0031813Y0285000D01*
X0031015Y0285000D02*
X0031015Y0247400D01*
X0030216Y0247400D02*
X0030216Y0285000D01*
X0029418Y0285000D02*
X0029418Y0247400D01*
X0028619Y0247400D02*
X0028619Y0285000D01*
X0027821Y0285000D02*
X0027821Y0247400D01*
X0027022Y0247400D02*
X0027022Y0285000D01*
X0026224Y0285000D02*
X0026224Y0247400D01*
X0025425Y0247400D02*
X0025425Y0285000D01*
X0024627Y0284201D02*
X0024627Y0247400D01*
X0023828Y0247400D02*
X0023828Y0283804D01*
X0023030Y0283600D02*
X0023030Y0247400D01*
X0022231Y0247400D02*
X0022231Y0283503D01*
X0021432Y0282704D02*
X0021432Y0247400D01*
X0020634Y0247400D02*
X0020634Y0281906D01*
X0019835Y0281107D02*
X0019835Y0247400D01*
X0019037Y0247691D02*
X0019037Y0280309D01*
X0018238Y0279510D02*
X0018238Y0248490D01*
X0017440Y0249288D02*
X0017440Y0278712D01*
X0016641Y0277913D02*
X0016641Y0250087D01*
X0014500Y0249400D02*
X0014500Y0278600D01*
X0022700Y0286800D01*
X0022900Y0287000D01*
X0046500Y0287000D01*
X0049350Y0289850D01*
X0049350Y0292303D01*
X0050925Y0292303D02*
X0050925Y0285425D01*
X0048500Y0283000D01*
X0054075Y0284425D02*
X0054075Y0292303D01*
X0055650Y0292303D02*
X0055650Y0288850D01*
X0057500Y0287000D01*
X0059761Y0284736D02*
X0059761Y0216034D01*
X0058963Y0215760D02*
X0058963Y0246632D01*
X0058164Y0245339D02*
X0058164Y0215486D01*
X0057366Y0215212D02*
X0057366Y0244743D01*
X0056567Y0244413D02*
X0056567Y0214938D01*
X0055768Y0214664D02*
X0055768Y0244400D01*
X0054970Y0244522D02*
X0054970Y0239556D01*
X0055213Y0239313D02*
X0054313Y0240213D01*
X0053137Y0240700D01*
X0051863Y0240700D01*
X0050687Y0240213D01*
X0049787Y0239313D01*
X0049300Y0238137D01*
X0049300Y0236863D01*
X0049787Y0235687D01*
X0050687Y0234787D01*
X0051863Y0234300D01*
X0053137Y0234300D01*
X0054313Y0234787D01*
X0055213Y0235687D01*
X0055700Y0236863D01*
X0055700Y0238137D01*
X0055213Y0239313D01*
X0054171Y0240271D02*
X0054171Y0244852D01*
X0053373Y0245602D02*
X0053373Y0240602D01*
X0052574Y0240700D02*
X0052574Y0245652D01*
X0051776Y0245652D02*
X0051776Y0240664D01*
X0050977Y0240333D02*
X0050977Y0245652D01*
X0050179Y0245652D02*
X0050179Y0239704D01*
X0049380Y0238331D02*
X0049380Y0245652D01*
X0048582Y0245652D02*
X0048582Y0213174D01*
X0049380Y0213307D02*
X0049380Y0236669D01*
X0050179Y0235296D02*
X0050179Y0213441D01*
X0050977Y0213574D02*
X0050977Y0234667D01*
X0051776Y0234336D02*
X0051776Y0213707D01*
X0052574Y0213840D02*
X0052574Y0234300D01*
X0053373Y0234398D02*
X0053373Y0213974D01*
X0054171Y0214115D02*
X0054171Y0234729D01*
X0054970Y0235444D02*
X0054970Y0214389D01*
X0060560Y0216308D02*
X0060560Y0286024D01*
X0058963Y0284142D02*
X0058963Y0284063D01*
X0058963Y0279937D02*
X0058963Y0248568D01*
X0058164Y0249861D02*
X0058164Y0279226D01*
X0057366Y0278895D02*
X0057366Y0250457D01*
X0055848Y0247652D02*
X0055900Y0247600D01*
X0055848Y0247652D02*
X0039300Y0247652D01*
X0038900Y0247652D01*
X0034352Y0247652D01*
X0032100Y0245400D01*
X0018500Y0245400D01*
X0014500Y0249400D01*
X0013447Y0247624D02*
X0013447Y0228428D01*
X0014246Y0228600D02*
X0014246Y0246826D01*
X0015044Y0246027D02*
X0015044Y0228773D01*
X0015843Y0229571D02*
X0015843Y0245229D01*
X0016641Y0244430D02*
X0016641Y0230370D01*
X0017440Y0231168D02*
X0017440Y0243632D01*
X0018238Y0243400D02*
X0018238Y0231400D01*
X0019037Y0231400D02*
X0019037Y0243400D01*
X0019835Y0243400D02*
X0019835Y0231400D01*
X0020634Y0231400D02*
X0020634Y0243400D01*
X0021432Y0243400D02*
X0021432Y0231400D01*
X0022231Y0231559D02*
X0022231Y0243400D01*
X0023030Y0243400D02*
X0023030Y0237958D01*
X0023828Y0238756D02*
X0023828Y0243400D01*
X0024627Y0243400D02*
X0024627Y0239555D01*
X0025425Y0240353D02*
X0025425Y0243400D01*
X0026224Y0243400D02*
X0026224Y0241152D01*
X0027022Y0241800D02*
X0027022Y0243400D01*
X0027821Y0243400D02*
X0027821Y0241800D01*
X0028619Y0241800D02*
X0028619Y0243400D01*
X0029418Y0243400D02*
X0029418Y0241800D01*
X0030216Y0242242D02*
X0030216Y0243400D01*
X0031015Y0243400D02*
X0031015Y0242731D01*
X0031813Y0243000D02*
X0031813Y0243400D01*
X0032612Y0243400D02*
X0032612Y0243000D01*
X0033410Y0242804D02*
X0033410Y0243882D01*
X0034209Y0244680D02*
X0034209Y0242417D01*
X0035007Y0241618D02*
X0035007Y0245479D01*
X0035806Y0245652D02*
X0035806Y0238923D01*
X0036604Y0238421D02*
X0036604Y0245422D01*
X0037403Y0244808D02*
X0037403Y0237354D01*
X0038201Y0237200D02*
X0038201Y0244477D01*
X0039000Y0244452D02*
X0039000Y0237200D01*
X0039798Y0236926D02*
X0039798Y0244560D01*
X0040597Y0244891D02*
X0040597Y0236429D01*
X0041395Y0235372D02*
X0041395Y0245621D01*
X0042194Y0245652D02*
X0042194Y0212661D01*
X0042992Y0212670D02*
X0042992Y0245652D01*
X0043791Y0245652D02*
X0043791Y0212703D01*
X0044589Y0212736D02*
X0044589Y0245652D01*
X0045388Y0245652D02*
X0045388Y0212769D01*
X0046186Y0212802D02*
X0046186Y0245652D01*
X0046985Y0245652D02*
X0046985Y0212908D01*
X0047783Y0213041D02*
X0047783Y0245652D01*
X0038500Y0234000D02*
X0036500Y0234000D01*
X0034075Y0231575D01*
X0034075Y0227697D01*
X0035650Y0227697D02*
X0035650Y0229650D01*
X0037000Y0231000D01*
X0039000Y0231000D01*
X0046500Y0223500D01*
X0046500Y0220500D01*
X0040000Y0214000D01*
X0037000Y0214000D01*
X0035650Y0215350D01*
X0035650Y0217303D01*
X0036604Y0217303D02*
X0036604Y0217303D01*
X0037403Y0217303D02*
X0037403Y0217303D01*
X0037403Y0219883D02*
X0037403Y0225117D01*
X0036604Y0224160D02*
X0036604Y0220840D01*
X0035806Y0220947D02*
X0035806Y0224053D01*
X0035650Y0224053D02*
X0035650Y0224371D01*
X0035650Y0224371D01*
X0035650Y0224053D01*
X0035007Y0223853D02*
X0035007Y0221147D01*
X0034209Y0221320D02*
X0034209Y0223853D01*
X0033410Y0223853D02*
X0033410Y0222118D01*
X0033328Y0222200D02*
X0033328Y0222200D01*
X0032612Y0222917D02*
X0032612Y0223853D01*
X0031813Y0223853D02*
X0031813Y0223715D01*
X0030500Y0222200D02*
X0032500Y0220200D01*
X0034075Y0218625D01*
X0034075Y0217303D01*
X0032500Y0217303D02*
X0032500Y0220200D01*
X0030925Y0218175D02*
X0029350Y0219750D01*
X0028900Y0220200D01*
X0017100Y0220200D01*
X0014500Y0222800D01*
X0014500Y0225400D01*
X0018500Y0229400D01*
X0022900Y0229400D01*
X0024300Y0230800D01*
X0024300Y0236400D01*
X0027700Y0239800D01*
X0032300Y0239800D01*
X0034500Y0236000D02*
X0032500Y0234000D01*
X0032500Y0227697D01*
X0030925Y0227697D02*
X0030925Y0234575D01*
X0029500Y0236000D01*
X0027500Y0232000D02*
X0029350Y0230150D01*
X0029350Y0227697D01*
X0030500Y0222200D02*
X0019700Y0222200D01*
X0018900Y0223000D01*
X0029350Y0219750D02*
X0029350Y0217303D01*
X0030925Y0217303D02*
X0030925Y0218175D01*
X0035007Y0213459D02*
X0035007Y0213358D01*
X0035650Y0213659D02*
X0035650Y0213977D01*
X0035650Y0213978D01*
X0035650Y0213659D01*
X0035806Y0213659D02*
X0035806Y0213245D01*
X0036604Y0213131D02*
X0036604Y0213766D01*
X0037403Y0213017D02*
X0037403Y0214723D01*
X0038201Y0212904D02*
X0038201Y0230800D01*
X0039000Y0230800D02*
X0039000Y0212790D01*
X0039798Y0212745D02*
X0039798Y0231074D01*
X0040597Y0231571D02*
X0040597Y0212717D01*
X0041395Y0212689D02*
X0041395Y0232628D01*
X0037403Y0230991D02*
X0037403Y0230277D01*
X0036604Y0231234D02*
X0036604Y0231276D01*
X0036604Y0227697D02*
X0036604Y0227697D01*
X0036075Y0227697D02*
X0037443Y0227697D01*
X0036075Y0227697D01*
X0036075Y0227697D01*
X0037403Y0227697D02*
X0037403Y0227697D01*
D200*
X0038500Y0234000D03*
X0034500Y0236000D03*
X0032300Y0239800D03*
X0029500Y0236000D03*
X0027500Y0232000D03*
X0018900Y0223000D03*
X0014500Y0225400D03*
X0024900Y0249600D03*
X0033500Y0263000D03*
X0033500Y0277000D03*
X0022700Y0286800D03*
X0038300Y0299200D03*
X0040900Y0303000D03*
X0044500Y0306000D03*
X0046500Y0287000D03*
X0048500Y0283000D03*
X0052500Y0282000D03*
X0056500Y0282000D03*
X0057500Y0287000D03*
X0063700Y0294600D03*
X0063700Y0299800D03*
X0065500Y0282000D03*
X0076500Y0282000D03*
X0074000Y0264000D03*
X0068000Y0250000D03*
X0055900Y0247600D03*
X0052500Y0237500D03*
X0038900Y0247652D03*
X0052500Y0263000D03*
X0052500Y0277000D03*
X0080500Y0241000D03*
X0065500Y0221500D03*
X0046500Y0220500D03*
X0092496Y0110000D02*
G75*
%LPD*%
D528*
X0118146Y0117303D03*
X0116571Y0117303D03*
X0114996Y0117303D03*
X0113421Y0117303D03*
X0111846Y0117303D03*
X0111846Y0127697D03*
X0113421Y0127697D03*
X0114996Y0127697D03*
X0116571Y0127697D03*
X0118146Y0127697D03*
X0131846Y0192303D03*
X0133421Y0192303D03*
X0134996Y0192303D03*
X0136571Y0192303D03*
X0138146Y0192303D03*
X0138146Y0202697D03*
X0136571Y0202697D03*
X0134996Y0202697D03*
X0133421Y0202697D03*
X0131846Y0202697D03*
D135*
X0159026Y0192707D02*
X0159026Y0127293D01*
X0159824Y0128161D02*
X0159824Y0191839D01*
X0160623Y0190972D02*
X0160623Y0129028D01*
X0161421Y0129895D02*
X0161421Y0190105D01*
X0162220Y0189237D02*
X0162220Y0130763D01*
X0162362Y0130917D02*
X0157065Y0125163D01*
X0150894Y0120360D01*
X0144016Y0116638D01*
X0136620Y0114099D01*
X0128906Y0112812D01*
X0124996Y0112650D01*
X0124996Y0112650D01*
X0121648Y0112768D01*
X0116796Y0113459D01*
X0117627Y0113459D01*
X0117827Y0113659D01*
X0118146Y0113659D01*
X0118724Y0113659D01*
X0119080Y0113754D01*
X0119399Y0113939D01*
X0119660Y0114199D01*
X0119844Y0114519D01*
X0119939Y0114875D01*
X0119939Y0117303D01*
X0118571Y0117303D01*
X0118571Y0117303D01*
X0119939Y0117303D01*
X0119939Y0119732D01*
X0119844Y0120088D01*
X0119660Y0120407D01*
X0119399Y0120668D01*
X0119080Y0120852D01*
X0118724Y0120947D01*
X0118146Y0120947D01*
X0118146Y0120629D01*
X0118146Y0120629D01*
X0118146Y0120947D01*
X0117827Y0120947D01*
X0117627Y0121147D01*
X0116877Y0121147D01*
X0115824Y0122200D01*
X0114172Y0123853D01*
X0115514Y0123853D01*
X0117627Y0123853D01*
X0117827Y0124053D01*
X0118146Y0124053D01*
X0118724Y0124053D01*
X0119080Y0124148D01*
X0119399Y0124332D01*
X0119660Y0124593D01*
X0119844Y0124912D01*
X0119939Y0125268D01*
X0119939Y0127697D01*
X0119939Y0130125D01*
X0119844Y0130481D01*
X0119660Y0130801D01*
X0119399Y0131061D01*
X0119080Y0131246D01*
X0119072Y0131248D01*
X0119147Y0131323D01*
X0119183Y0131287D01*
X0120359Y0130800D01*
X0121633Y0130800D01*
X0122809Y0131287D01*
X0123709Y0132187D01*
X0124196Y0133363D01*
X0124196Y0134637D01*
X0123709Y0135813D01*
X0122809Y0136713D01*
X0121633Y0137200D01*
X0120359Y0137200D01*
X0120021Y0137060D01*
X0119709Y0137813D01*
X0118809Y0138713D01*
X0117956Y0139066D01*
X0117996Y0139163D01*
X0117996Y0140437D01*
X0117509Y0141613D01*
X0116609Y0142513D01*
X0115433Y0143000D01*
X0114159Y0143000D01*
X0112983Y0142513D01*
X0112271Y0141800D01*
X0109368Y0141800D01*
X0105968Y0138400D01*
X0105968Y0138400D01*
X0104796Y0137228D01*
X0104796Y0131628D01*
X0104568Y0131400D01*
X0100168Y0131400D01*
X0098996Y0130228D01*
X0097368Y0128600D01*
X0096359Y0128600D01*
X0095183Y0128113D01*
X0095146Y0128075D01*
X0095146Y0148422D01*
X0096168Y0147400D01*
X0100168Y0143400D01*
X0115424Y0143400D01*
X0116596Y0144572D01*
X0117676Y0145652D01*
X0118871Y0145652D01*
X0119583Y0144939D01*
X0120759Y0144452D01*
X0122033Y0144452D01*
X0123209Y0144939D01*
X0123921Y0145652D01*
X0135819Y0145652D01*
X0136583Y0144887D01*
X0137759Y0144400D01*
X0139033Y0144400D01*
X0140209Y0144887D01*
X0141109Y0145787D01*
X0141596Y0146963D01*
X0141596Y0148237D01*
X0141109Y0149413D01*
X0140209Y0150313D01*
X0139033Y0150800D01*
X0137759Y0150800D01*
X0136583Y0150313D01*
X0135922Y0149652D01*
X0123921Y0149652D01*
X0123209Y0150364D01*
X0122033Y0150852D01*
X0120759Y0150852D01*
X0119583Y0150364D01*
X0118871Y0149652D01*
X0116019Y0149652D01*
X0114848Y0148480D01*
X0113768Y0147400D01*
X0101824Y0147400D01*
X0098996Y0150228D01*
X0098996Y0177772D01*
X0104824Y0183600D01*
X0105833Y0183600D01*
X0107009Y0184087D01*
X0107909Y0184987D01*
X0107914Y0185000D01*
X0126471Y0185000D01*
X0127183Y0184287D01*
X0127936Y0183975D01*
X0127796Y0183637D01*
X0127796Y0182363D01*
X0128283Y0181187D01*
X0129183Y0180287D01*
X0130359Y0179800D01*
X0131633Y0179800D01*
X0132366Y0180104D01*
X0133183Y0179287D01*
X0134359Y0178800D01*
X0135633Y0178800D01*
X0136809Y0179287D01*
X0136996Y0179475D01*
X0137183Y0179287D01*
X0138359Y0178800D01*
X0139633Y0178800D01*
X0140809Y0179287D01*
X0141709Y0180187D01*
X0142196Y0181363D01*
X0142196Y0182637D01*
X0141709Y0183813D01*
X0141403Y0184119D01*
X0141809Y0184287D01*
X0142709Y0185187D01*
X0143196Y0186363D01*
X0143196Y0187637D01*
X0142709Y0188813D01*
X0141809Y0189713D01*
X0140633Y0190200D01*
X0140146Y0190200D01*
X0140146Y0193132D01*
X0140139Y0193138D01*
X0140139Y0195210D01*
X0139749Y0195600D01*
X0142205Y0195600D01*
X0142996Y0194859D01*
X0142996Y0193963D01*
X0143483Y0192787D01*
X0144383Y0191887D01*
X0145559Y0191400D01*
X0146833Y0191400D01*
X0148009Y0191887D01*
X0148909Y0192787D01*
X0149396Y0193963D01*
X0149396Y0195237D01*
X0148909Y0196413D01*
X0148121Y0197200D01*
X0148909Y0197987D01*
X0149396Y0199163D01*
X0149396Y0200437D01*
X0149389Y0200455D01*
X0150894Y0199640D01*
X0157065Y0194837D01*
X0162362Y0189083D01*
X0166639Y0182536D01*
X0169780Y0175375D01*
X0171700Y0167794D01*
X0172346Y0160000D01*
X0171700Y0152206D01*
X0169780Y0144625D01*
X0166639Y0137464D01*
X0162362Y0130917D01*
X0163018Y0131922D02*
X0163018Y0188078D01*
X0163817Y0186856D02*
X0163817Y0133144D01*
X0164615Y0134366D02*
X0164615Y0185634D01*
X0165414Y0184411D02*
X0165414Y0135589D01*
X0166212Y0136811D02*
X0166212Y0183189D01*
X0167011Y0181689D02*
X0167011Y0138311D01*
X0167809Y0140132D02*
X0167809Y0179868D01*
X0168608Y0178048D02*
X0168608Y0141952D01*
X0169406Y0143773D02*
X0169406Y0176227D01*
X0170205Y0173698D02*
X0170205Y0146302D01*
X0171003Y0149455D02*
X0171003Y0170545D01*
X0171802Y0166566D02*
X0171802Y0153434D01*
X0158227Y0126426D02*
X0158227Y0193574D01*
X0157429Y0194442D02*
X0157429Y0125558D01*
X0156630Y0124825D02*
X0156630Y0195175D01*
X0155832Y0195797D02*
X0155832Y0124203D01*
X0155033Y0123582D02*
X0155033Y0196418D01*
X0154235Y0197040D02*
X0154235Y0122960D01*
X0153436Y0122339D02*
X0153436Y0197661D01*
X0152638Y0198283D02*
X0152638Y0121717D01*
X0151839Y0121096D02*
X0151839Y0198904D01*
X0151041Y0199526D02*
X0151041Y0120474D01*
X0150242Y0120007D02*
X0150242Y0199993D01*
X0149444Y0200425D02*
X0149444Y0119575D01*
X0148645Y0119143D02*
X0148645Y0192524D01*
X0147847Y0191820D02*
X0147847Y0118711D01*
X0147048Y0118279D02*
X0147048Y0191489D01*
X0146250Y0191400D02*
X0146250Y0117847D01*
X0145451Y0117415D02*
X0145451Y0191445D01*
X0144653Y0191776D02*
X0144653Y0116982D01*
X0143854Y0116582D02*
X0143854Y0192416D01*
X0143056Y0193820D02*
X0143056Y0187976D01*
X0142257Y0189264D02*
X0142257Y0195551D01*
X0141459Y0195600D02*
X0141459Y0189858D01*
X0140660Y0190189D02*
X0140660Y0195600D01*
X0139862Y0195600D02*
X0139862Y0195488D01*
X0137796Y0197600D02*
X0142996Y0197600D01*
X0146196Y0194600D01*
X0148645Y0196676D02*
X0148645Y0197724D01*
X0146196Y0199800D02*
X0138796Y0199800D01*
X0138146Y0200450D01*
X0138146Y0202697D01*
X0136571Y0202697D02*
X0136571Y0198825D01*
X0137796Y0197600D01*
X0134996Y0199600D02*
X0133196Y0197800D01*
X0122196Y0197800D01*
X0120796Y0199200D01*
X0123396Y0203000D02*
X0126996Y0199400D01*
X0132796Y0199400D01*
X0133421Y0200025D01*
X0133421Y0202697D01*
X0131846Y0202697D02*
X0131846Y0205150D01*
X0130396Y0206600D01*
X0127596Y0206600D01*
X0126996Y0206000D01*
X0134996Y0202697D02*
X0134996Y0199600D01*
X0134996Y0192303D02*
X0134996Y0182000D01*
X0136571Y0184425D02*
X0138996Y0182000D01*
X0139063Y0178800D02*
X0139063Y0150787D01*
X0138264Y0150800D02*
X0138264Y0178839D01*
X0137466Y0179170D02*
X0137466Y0150678D01*
X0136667Y0150348D02*
X0136667Y0179229D01*
X0135869Y0178898D02*
X0135869Y0149652D01*
X0135070Y0149652D02*
X0135070Y0178800D01*
X0134272Y0178836D02*
X0134272Y0149652D01*
X0133473Y0149652D02*
X0133473Y0179167D01*
X0132675Y0179796D02*
X0132675Y0149652D01*
X0131876Y0149652D02*
X0131876Y0179901D01*
X0131078Y0179800D02*
X0131078Y0149652D01*
X0130279Y0149652D02*
X0130279Y0179833D01*
X0129481Y0180164D02*
X0129481Y0149652D01*
X0128682Y0149652D02*
X0128682Y0180788D01*
X0127884Y0182151D02*
X0127884Y0149652D01*
X0127085Y0149652D02*
X0127085Y0184385D01*
X0127884Y0183997D02*
X0127884Y0183849D01*
X0126287Y0185000D02*
X0126287Y0149652D01*
X0125488Y0149652D02*
X0125488Y0185000D01*
X0124690Y0185000D02*
X0124690Y0149652D01*
X0123891Y0149682D02*
X0123891Y0185000D01*
X0123093Y0185000D02*
X0123093Y0150412D01*
X0122294Y0150743D02*
X0122294Y0185000D01*
X0121496Y0185000D02*
X0121496Y0150852D01*
X0120697Y0150826D02*
X0120697Y0185000D01*
X0119899Y0185000D02*
X0119899Y0150495D01*
X0119100Y0149881D02*
X0119100Y0185000D01*
X0118302Y0185000D02*
X0118302Y0149652D01*
X0117503Y0149652D02*
X0117503Y0185000D01*
X0116705Y0185000D02*
X0116705Y0149652D01*
X0115906Y0149539D02*
X0115906Y0185000D01*
X0115108Y0185000D02*
X0115108Y0148740D01*
X0114848Y0148480D02*
X0114848Y0148480D01*
X0114309Y0147942D02*
X0114309Y0185000D01*
X0113511Y0185000D02*
X0113511Y0147400D01*
X0112712Y0147400D02*
X0112712Y0185000D01*
X0111914Y0185000D02*
X0111914Y0147400D01*
X0111115Y0147400D02*
X0111115Y0185000D01*
X0110317Y0185000D02*
X0110317Y0147400D01*
X0109518Y0147400D02*
X0109518Y0185000D01*
X0108720Y0185000D02*
X0108720Y0147400D01*
X0107921Y0147400D02*
X0107921Y0185000D01*
X0107123Y0184201D02*
X0107123Y0147400D01*
X0106324Y0147400D02*
X0106324Y0183804D01*
X0105526Y0183600D02*
X0105526Y0147400D01*
X0104727Y0147400D02*
X0104727Y0183503D01*
X0103928Y0182704D02*
X0103928Y0147400D01*
X0103130Y0147400D02*
X0103130Y0181906D01*
X0102331Y0181107D02*
X0102331Y0147400D01*
X0101533Y0147691D02*
X0101533Y0180309D01*
X0100734Y0179510D02*
X0100734Y0148490D01*
X0099936Y0149288D02*
X0099936Y0178712D01*
X0099137Y0177913D02*
X0099137Y0150087D01*
X0096996Y0149400D02*
X0096996Y0178600D01*
X0105196Y0186800D01*
X0105396Y0187000D01*
X0128996Y0187000D01*
X0131846Y0189850D01*
X0131846Y0192303D01*
X0133421Y0192303D02*
X0133421Y0185425D01*
X0130996Y0183000D01*
X0136571Y0184425D02*
X0136571Y0192303D01*
X0138146Y0192303D02*
X0138146Y0188850D01*
X0139996Y0187000D01*
X0142257Y0184736D02*
X0142257Y0116034D01*
X0141459Y0115760D02*
X0141459Y0146632D01*
X0140660Y0145339D02*
X0140660Y0115486D01*
X0139862Y0115212D02*
X0139862Y0144743D01*
X0139063Y0144413D02*
X0139063Y0114938D01*
X0138264Y0114664D02*
X0138264Y0144400D01*
X0137466Y0144522D02*
X0137466Y0139556D01*
X0137709Y0139313D02*
X0136809Y0140213D01*
X0135633Y0140700D01*
X0134359Y0140700D01*
X0133183Y0140213D01*
X0132283Y0139313D01*
X0131796Y0138137D01*
X0131796Y0136863D01*
X0132283Y0135687D01*
X0133183Y0134787D01*
X0134359Y0134300D01*
X0135633Y0134300D01*
X0136809Y0134787D01*
X0137709Y0135687D01*
X0138196Y0136863D01*
X0138196Y0138137D01*
X0137709Y0139313D01*
X0136667Y0140271D02*
X0136667Y0144852D01*
X0135869Y0145602D02*
X0135869Y0140602D01*
X0135070Y0140700D02*
X0135070Y0145652D01*
X0134272Y0145652D02*
X0134272Y0140664D01*
X0133473Y0140333D02*
X0133473Y0145652D01*
X0132675Y0145652D02*
X0132675Y0139704D01*
X0131876Y0138331D02*
X0131876Y0145652D01*
X0131078Y0145652D02*
X0131078Y0113174D01*
X0131876Y0113307D02*
X0131876Y0136669D01*
X0132675Y0135296D02*
X0132675Y0113441D01*
X0133473Y0113574D02*
X0133473Y0134667D01*
X0134272Y0134336D02*
X0134272Y0113707D01*
X0135070Y0113840D02*
X0135070Y0134300D01*
X0135869Y0134398D02*
X0135869Y0113974D01*
X0136667Y0114115D02*
X0136667Y0134729D01*
X0137466Y0135444D02*
X0137466Y0114389D01*
X0143056Y0116308D02*
X0143056Y0186024D01*
X0141459Y0184142D02*
X0141459Y0184063D01*
X0141459Y0179937D02*
X0141459Y0148568D01*
X0140660Y0149861D02*
X0140660Y0179226D01*
X0139862Y0178895D02*
X0139862Y0150457D01*
X0138344Y0147652D02*
X0138396Y0147600D01*
X0138344Y0147652D02*
X0121796Y0147652D01*
X0121396Y0147652D01*
X0116848Y0147652D01*
X0114596Y0145400D01*
X0100996Y0145400D01*
X0096996Y0149400D01*
X0095943Y0147624D02*
X0095943Y0128428D01*
X0096742Y0128600D02*
X0096742Y0146826D01*
X0097540Y0146027D02*
X0097540Y0128773D01*
X0098339Y0129571D02*
X0098339Y0145229D01*
X0099137Y0144430D02*
X0099137Y0130370D01*
X0099936Y0131168D02*
X0099936Y0143632D01*
X0100734Y0143400D02*
X0100734Y0131400D01*
X0101533Y0131400D02*
X0101533Y0143400D01*
X0102331Y0143400D02*
X0102331Y0131400D01*
X0103130Y0131400D02*
X0103130Y0143400D01*
X0103928Y0143400D02*
X0103928Y0131400D01*
X0104727Y0131559D02*
X0104727Y0143400D01*
X0105526Y0143400D02*
X0105526Y0137958D01*
X0106324Y0138756D02*
X0106324Y0143400D01*
X0107123Y0143400D02*
X0107123Y0139555D01*
X0107921Y0140353D02*
X0107921Y0143400D01*
X0108720Y0143400D02*
X0108720Y0141152D01*
X0109518Y0141800D02*
X0109518Y0143400D01*
X0110317Y0143400D02*
X0110317Y0141800D01*
X0111115Y0141800D02*
X0111115Y0143400D01*
X0111914Y0143400D02*
X0111914Y0141800D01*
X0112712Y0142242D02*
X0112712Y0143400D01*
X0113511Y0143400D02*
X0113511Y0142731D01*
X0114309Y0143000D02*
X0114309Y0143400D01*
X0115108Y0143400D02*
X0115108Y0143000D01*
X0115906Y0142804D02*
X0115906Y0143882D01*
X0116705Y0144680D02*
X0116705Y0142417D01*
X0117503Y0141618D02*
X0117503Y0145479D01*
X0118302Y0145652D02*
X0118302Y0138923D01*
X0119100Y0138421D02*
X0119100Y0145422D01*
X0119899Y0144808D02*
X0119899Y0137354D01*
X0120697Y0137200D02*
X0120697Y0144477D01*
X0121496Y0144452D02*
X0121496Y0137200D01*
X0122294Y0136926D02*
X0122294Y0144560D01*
X0123093Y0144891D02*
X0123093Y0136429D01*
X0123891Y0135372D02*
X0123891Y0145621D01*
X0124690Y0145652D02*
X0124690Y0112661D01*
X0125488Y0112670D02*
X0125488Y0145652D01*
X0126287Y0145652D02*
X0126287Y0112703D01*
X0127085Y0112736D02*
X0127085Y0145652D01*
X0127884Y0145652D02*
X0127884Y0112769D01*
X0128682Y0112802D02*
X0128682Y0145652D01*
X0129481Y0145652D02*
X0129481Y0112908D01*
X0130279Y0113041D02*
X0130279Y0145652D01*
X0120996Y0134000D02*
X0118996Y0134000D01*
X0116571Y0131575D01*
X0116571Y0127697D01*
X0118146Y0127697D02*
X0118146Y0129650D01*
X0119496Y0131000D01*
X0121496Y0131000D01*
X0128996Y0123500D01*
X0128996Y0120500D01*
X0122496Y0114000D01*
X0119496Y0114000D01*
X0118146Y0115350D01*
X0118146Y0117303D01*
X0119100Y0117303D02*
X0119100Y0117303D01*
X0119899Y0117303D02*
X0119899Y0117303D01*
X0119899Y0119883D02*
X0119899Y0125117D01*
X0119100Y0124160D02*
X0119100Y0120840D01*
X0118302Y0120947D02*
X0118302Y0124053D01*
X0118146Y0124053D02*
X0118146Y0124371D01*
X0118146Y0124371D01*
X0118146Y0124053D01*
X0117503Y0123853D02*
X0117503Y0121147D01*
X0116705Y0121320D02*
X0116705Y0123853D01*
X0115906Y0123853D02*
X0115906Y0122118D01*
X0115824Y0122200D02*
X0115824Y0122200D01*
X0115108Y0122917D02*
X0115108Y0123853D01*
X0114309Y0123853D02*
X0114309Y0123715D01*
X0112996Y0122200D02*
X0114996Y0120200D01*
X0116571Y0118625D01*
X0116571Y0117303D01*
X0114996Y0117303D02*
X0114996Y0120200D01*
X0113421Y0118175D02*
X0111846Y0119750D01*
X0111396Y0120200D01*
X0099596Y0120200D01*
X0096996Y0122800D01*
X0096996Y0125400D01*
X0100996Y0129400D01*
X0105396Y0129400D01*
X0106796Y0130800D01*
X0106796Y0136400D01*
X0110196Y0139800D01*
X0114796Y0139800D01*
X0116996Y0136000D02*
X0114996Y0134000D01*
X0114996Y0127697D01*
X0113421Y0127697D02*
X0113421Y0134575D01*
X0111996Y0136000D01*
X0109996Y0132000D02*
X0111846Y0130150D01*
X0111846Y0127697D01*
X0112996Y0122200D02*
X0102196Y0122200D01*
X0101396Y0123000D01*
X0111846Y0119750D02*
X0111846Y0117303D01*
X0113421Y0117303D02*
X0113421Y0118175D01*
X0117503Y0113459D02*
X0117503Y0113358D01*
X0118146Y0113659D02*
X0118146Y0113977D01*
X0118146Y0113978D01*
X0118146Y0113659D01*
X0118302Y0113659D02*
X0118302Y0113245D01*
X0119100Y0113131D02*
X0119100Y0113766D01*
X0119899Y0113017D02*
X0119899Y0114723D01*
X0120697Y0112904D02*
X0120697Y0130800D01*
X0121496Y0130800D02*
X0121496Y0112790D01*
X0122294Y0112745D02*
X0122294Y0131074D01*
X0123093Y0131571D02*
X0123093Y0112717D01*
X0123891Y0112689D02*
X0123891Y0132628D01*
X0119899Y0130991D02*
X0119899Y0130277D01*
X0119100Y0131234D02*
X0119100Y0131276D01*
X0119100Y0127697D02*
X0119100Y0127697D01*
X0118571Y0127697D02*
X0119939Y0127697D01*
X0118571Y0127697D01*
X0118571Y0127697D01*
X0119899Y0127697D02*
X0119899Y0127697D01*
D200*
X0120996Y0134000D03*
X0116996Y0136000D03*
X0114796Y0139800D03*
X0111996Y0136000D03*
X0109996Y0132000D03*
X0101396Y0123000D03*
X0096996Y0125400D03*
X0107396Y0149600D03*
X0115996Y0163000D03*
X0115996Y0177000D03*
X0105196Y0186800D03*
X0120796Y0199200D03*
X0123396Y0203000D03*
X0126996Y0206000D03*
X0128996Y0187000D03*
X0130996Y0183000D03*
X0134996Y0182000D03*
X0138996Y0182000D03*
X0139996Y0187000D03*
X0146196Y0194600D03*
X0146196Y0199800D03*
X0147996Y0182000D03*
X0158996Y0182000D03*
X0156496Y0164000D03*
X0150496Y0150000D03*
X0138396Y0147600D03*
X0134996Y0137500D03*
X0121396Y0147652D03*
X0134996Y0163000D03*
X0134996Y0177000D03*
X0162996Y0141000D03*
X0147996Y0121500D03*
X0128996Y0120500D03*
X0092496Y0210000D02*
G75*
%LPD*%
D528*
X0118146Y0217303D03*
X0116571Y0217303D03*
X0114996Y0217303D03*
X0113421Y0217303D03*
X0111846Y0217303D03*
X0111846Y0227697D03*
X0113421Y0227697D03*
X0114996Y0227697D03*
X0116571Y0227697D03*
X0118146Y0227697D03*
X0131846Y0292303D03*
X0133421Y0292303D03*
X0134996Y0292303D03*
X0136571Y0292303D03*
X0138146Y0292303D03*
X0138146Y0302697D03*
X0136571Y0302697D03*
X0134996Y0302697D03*
X0133421Y0302697D03*
X0131846Y0302697D03*
D135*
X0159026Y0292707D02*
X0159026Y0227293D01*
X0159824Y0228161D02*
X0159824Y0291839D01*
X0160623Y0290972D02*
X0160623Y0229028D01*
X0161421Y0229895D02*
X0161421Y0290105D01*
X0162220Y0289237D02*
X0162220Y0230763D01*
X0162362Y0230917D02*
X0157065Y0225163D01*
X0150894Y0220360D01*
X0144016Y0216638D01*
X0136620Y0214099D01*
X0128906Y0212812D01*
X0124996Y0212650D01*
X0124996Y0212650D01*
X0121648Y0212768D01*
X0116796Y0213459D01*
X0117627Y0213459D01*
X0117827Y0213659D01*
X0118146Y0213659D01*
X0118724Y0213659D01*
X0119080Y0213754D01*
X0119399Y0213939D01*
X0119660Y0214199D01*
X0119844Y0214519D01*
X0119939Y0214875D01*
X0119939Y0217303D01*
X0118571Y0217303D01*
X0118571Y0217303D01*
X0119939Y0217303D01*
X0119939Y0219732D01*
X0119844Y0220088D01*
X0119660Y0220407D01*
X0119399Y0220668D01*
X0119080Y0220852D01*
X0118724Y0220947D01*
X0118146Y0220947D01*
X0118146Y0220629D01*
X0118146Y0220629D01*
X0118146Y0220947D01*
X0117827Y0220947D01*
X0117627Y0221147D01*
X0116877Y0221147D01*
X0115824Y0222200D01*
X0114172Y0223853D01*
X0115514Y0223853D01*
X0117627Y0223853D01*
X0117827Y0224053D01*
X0118146Y0224053D01*
X0118724Y0224053D01*
X0119080Y0224148D01*
X0119399Y0224332D01*
X0119660Y0224593D01*
X0119844Y0224912D01*
X0119939Y0225268D01*
X0119939Y0227697D01*
X0119939Y0230125D01*
X0119844Y0230481D01*
X0119660Y0230801D01*
X0119399Y0231061D01*
X0119080Y0231246D01*
X0119072Y0231248D01*
X0119147Y0231323D01*
X0119183Y0231287D01*
X0120359Y0230800D01*
X0121633Y0230800D01*
X0122809Y0231287D01*
X0123709Y0232187D01*
X0124196Y0233363D01*
X0124196Y0234637D01*
X0123709Y0235813D01*
X0122809Y0236713D01*
X0121633Y0237200D01*
X0120359Y0237200D01*
X0120021Y0237060D01*
X0119709Y0237813D01*
X0118809Y0238713D01*
X0117956Y0239066D01*
X0117996Y0239163D01*
X0117996Y0240437D01*
X0117509Y0241613D01*
X0116609Y0242513D01*
X0115433Y0243000D01*
X0114159Y0243000D01*
X0112983Y0242513D01*
X0112271Y0241800D01*
X0109368Y0241800D01*
X0105968Y0238400D01*
X0105968Y0238400D01*
X0104796Y0237228D01*
X0104796Y0231628D01*
X0104568Y0231400D01*
X0100168Y0231400D01*
X0098996Y0230228D01*
X0097368Y0228600D01*
X0096359Y0228600D01*
X0095183Y0228113D01*
X0095146Y0228075D01*
X0095146Y0248422D01*
X0096168Y0247400D01*
X0100168Y0243400D01*
X0115424Y0243400D01*
X0116596Y0244572D01*
X0117676Y0245652D01*
X0118871Y0245652D01*
X0119583Y0244939D01*
X0120759Y0244452D01*
X0122033Y0244452D01*
X0123209Y0244939D01*
X0123921Y0245652D01*
X0135819Y0245652D01*
X0136583Y0244887D01*
X0137759Y0244400D01*
X0139033Y0244400D01*
X0140209Y0244887D01*
X0141109Y0245787D01*
X0141596Y0246963D01*
X0141596Y0248237D01*
X0141109Y0249413D01*
X0140209Y0250313D01*
X0139033Y0250800D01*
X0137759Y0250800D01*
X0136583Y0250313D01*
X0135922Y0249652D01*
X0123921Y0249652D01*
X0123209Y0250364D01*
X0122033Y0250852D01*
X0120759Y0250852D01*
X0119583Y0250364D01*
X0118871Y0249652D01*
X0116019Y0249652D01*
X0114848Y0248480D01*
X0113768Y0247400D01*
X0101824Y0247400D01*
X0098996Y0250228D01*
X0098996Y0277772D01*
X0104824Y0283600D01*
X0105833Y0283600D01*
X0107009Y0284087D01*
X0107909Y0284987D01*
X0107914Y0285000D01*
X0126471Y0285000D01*
X0127183Y0284287D01*
X0127936Y0283975D01*
X0127796Y0283637D01*
X0127796Y0282363D01*
X0128283Y0281187D01*
X0129183Y0280287D01*
X0130359Y0279800D01*
X0131633Y0279800D01*
X0132366Y0280104D01*
X0133183Y0279287D01*
X0134359Y0278800D01*
X0135633Y0278800D01*
X0136809Y0279287D01*
X0136996Y0279475D01*
X0137183Y0279287D01*
X0138359Y0278800D01*
X0139633Y0278800D01*
X0140809Y0279287D01*
X0141709Y0280187D01*
X0142196Y0281363D01*
X0142196Y0282637D01*
X0141709Y0283813D01*
X0141403Y0284119D01*
X0141809Y0284287D01*
X0142709Y0285187D01*
X0143196Y0286363D01*
X0143196Y0287637D01*
X0142709Y0288813D01*
X0141809Y0289713D01*
X0140633Y0290200D01*
X0140146Y0290200D01*
X0140146Y0293132D01*
X0140139Y0293138D01*
X0140139Y0295210D01*
X0139749Y0295600D01*
X0142205Y0295600D01*
X0142996Y0294859D01*
X0142996Y0293963D01*
X0143483Y0292787D01*
X0144383Y0291887D01*
X0145559Y0291400D01*
X0146833Y0291400D01*
X0148009Y0291887D01*
X0148909Y0292787D01*
X0149396Y0293963D01*
X0149396Y0295237D01*
X0148909Y0296413D01*
X0148121Y0297200D01*
X0148909Y0297987D01*
X0149396Y0299163D01*
X0149396Y0300437D01*
X0149389Y0300455D01*
X0150894Y0299640D01*
X0157065Y0294837D01*
X0162362Y0289083D01*
X0166639Y0282536D01*
X0169780Y0275375D01*
X0171700Y0267794D01*
X0172346Y0260000D01*
X0171700Y0252206D01*
X0169780Y0244625D01*
X0166639Y0237464D01*
X0162362Y0230917D01*
X0163018Y0231922D02*
X0163018Y0288078D01*
X0163817Y0286856D02*
X0163817Y0233144D01*
X0164615Y0234366D02*
X0164615Y0285634D01*
X0165414Y0284411D02*
X0165414Y0235589D01*
X0166212Y0236811D02*
X0166212Y0283189D01*
X0167011Y0281689D02*
X0167011Y0238311D01*
X0167809Y0240132D02*
X0167809Y0279868D01*
X0168608Y0278048D02*
X0168608Y0241952D01*
X0169406Y0243773D02*
X0169406Y0276227D01*
X0170205Y0273698D02*
X0170205Y0246302D01*
X0171003Y0249455D02*
X0171003Y0270545D01*
X0171802Y0266566D02*
X0171802Y0253434D01*
X0158227Y0226426D02*
X0158227Y0293574D01*
X0157429Y0294442D02*
X0157429Y0225558D01*
X0156630Y0224825D02*
X0156630Y0295175D01*
X0155832Y0295797D02*
X0155832Y0224203D01*
X0155033Y0223582D02*
X0155033Y0296418D01*
X0154235Y0297040D02*
X0154235Y0222960D01*
X0153436Y0222339D02*
X0153436Y0297661D01*
X0152638Y0298283D02*
X0152638Y0221717D01*
X0151839Y0221096D02*
X0151839Y0298904D01*
X0151041Y0299526D02*
X0151041Y0220474D01*
X0150242Y0220007D02*
X0150242Y0299993D01*
X0149444Y0300425D02*
X0149444Y0219575D01*
X0148645Y0219143D02*
X0148645Y0292524D01*
X0147847Y0291820D02*
X0147847Y0218711D01*
X0147048Y0218279D02*
X0147048Y0291489D01*
X0146250Y0291400D02*
X0146250Y0217847D01*
X0145451Y0217415D02*
X0145451Y0291445D01*
X0144653Y0291776D02*
X0144653Y0216982D01*
X0143854Y0216582D02*
X0143854Y0292416D01*
X0143056Y0293820D02*
X0143056Y0287976D01*
X0142257Y0289264D02*
X0142257Y0295551D01*
X0141459Y0295600D02*
X0141459Y0289858D01*
X0140660Y0290189D02*
X0140660Y0295600D01*
X0139862Y0295600D02*
X0139862Y0295488D01*
X0137796Y0297600D02*
X0142996Y0297600D01*
X0146196Y0294600D01*
X0148645Y0296676D02*
X0148645Y0297724D01*
X0146196Y0299800D02*
X0138796Y0299800D01*
X0138146Y0300450D01*
X0138146Y0302697D01*
X0136571Y0302697D02*
X0136571Y0298825D01*
X0137796Y0297600D01*
X0134996Y0299600D02*
X0133196Y0297800D01*
X0122196Y0297800D01*
X0120796Y0299200D01*
X0123396Y0303000D02*
X0126996Y0299400D01*
X0132796Y0299400D01*
X0133421Y0300025D01*
X0133421Y0302697D01*
X0131846Y0302697D02*
X0131846Y0305150D01*
X0130396Y0306600D01*
X0127596Y0306600D01*
X0126996Y0306000D01*
X0134996Y0302697D02*
X0134996Y0299600D01*
X0134996Y0292303D02*
X0134996Y0282000D01*
X0136571Y0284425D02*
X0138996Y0282000D01*
X0139063Y0278800D02*
X0139063Y0250787D01*
X0138264Y0250800D02*
X0138264Y0278839D01*
X0137466Y0279170D02*
X0137466Y0250678D01*
X0136667Y0250348D02*
X0136667Y0279229D01*
X0135869Y0278898D02*
X0135869Y0249652D01*
X0135070Y0249652D02*
X0135070Y0278800D01*
X0134272Y0278836D02*
X0134272Y0249652D01*
X0133473Y0249652D02*
X0133473Y0279167D01*
X0132675Y0279796D02*
X0132675Y0249652D01*
X0131876Y0249652D02*
X0131876Y0279901D01*
X0131078Y0279800D02*
X0131078Y0249652D01*
X0130279Y0249652D02*
X0130279Y0279833D01*
X0129481Y0280164D02*
X0129481Y0249652D01*
X0128682Y0249652D02*
X0128682Y0280788D01*
X0127884Y0282151D02*
X0127884Y0249652D01*
X0127085Y0249652D02*
X0127085Y0284385D01*
X0127884Y0283997D02*
X0127884Y0283849D01*
X0126287Y0285000D02*
X0126287Y0249652D01*
X0125488Y0249652D02*
X0125488Y0285000D01*
X0124690Y0285000D02*
X0124690Y0249652D01*
X0123891Y0249682D02*
X0123891Y0285000D01*
X0123093Y0285000D02*
X0123093Y0250412D01*
X0122294Y0250743D02*
X0122294Y0285000D01*
X0121496Y0285000D02*
X0121496Y0250852D01*
X0120697Y0250826D02*
X0120697Y0285000D01*
X0119899Y0285000D02*
X0119899Y0250495D01*
X0119100Y0249881D02*
X0119100Y0285000D01*
X0118302Y0285000D02*
X0118302Y0249652D01*
X0117503Y0249652D02*
X0117503Y0285000D01*
X0116705Y0285000D02*
X0116705Y0249652D01*
X0115906Y0249539D02*
X0115906Y0285000D01*
X0115108Y0285000D02*
X0115108Y0248740D01*
X0114848Y0248480D02*
X0114848Y0248480D01*
X0114309Y0247942D02*
X0114309Y0285000D01*
X0113511Y0285000D02*
X0113511Y0247400D01*
X0112712Y0247400D02*
X0112712Y0285000D01*
X0111914Y0285000D02*
X0111914Y0247400D01*
X0111115Y0247400D02*
X0111115Y0285000D01*
X0110317Y0285000D02*
X0110317Y0247400D01*
X0109518Y0247400D02*
X0109518Y0285000D01*
X0108720Y0285000D02*
X0108720Y0247400D01*
X0107921Y0247400D02*
X0107921Y0285000D01*
X0107123Y0284201D02*
X0107123Y0247400D01*
X0106324Y0247400D02*
X0106324Y0283804D01*
X0105526Y0283600D02*
X0105526Y0247400D01*
X0104727Y0247400D02*
X0104727Y0283503D01*
X0103928Y0282704D02*
X0103928Y0247400D01*
X0103130Y0247400D02*
X0103130Y0281906D01*
X0102331Y0281107D02*
X0102331Y0247400D01*
X0101533Y0247691D02*
X0101533Y0280309D01*
X0100734Y0279510D02*
X0100734Y0248490D01*
X0099936Y0249288D02*
X0099936Y0278712D01*
X0099137Y0277913D02*
X0099137Y0250087D01*
X0096996Y0249400D02*
X0096996Y0278600D01*
X0105196Y0286800D01*
X0105396Y0287000D01*
X0128996Y0287000D01*
X0131846Y0289850D01*
X0131846Y0292303D01*
X0133421Y0292303D02*
X0133421Y0285425D01*
X0130996Y0283000D01*
X0136571Y0284425D02*
X0136571Y0292303D01*
X0138146Y0292303D02*
X0138146Y0288850D01*
X0139996Y0287000D01*
X0142257Y0284736D02*
X0142257Y0216034D01*
X0141459Y0215760D02*
X0141459Y0246632D01*
X0140660Y0245339D02*
X0140660Y0215486D01*
X0139862Y0215212D02*
X0139862Y0244743D01*
X0139063Y0244413D02*
X0139063Y0214938D01*
X0138264Y0214664D02*
X0138264Y0244400D01*
X0137466Y0244522D02*
X0137466Y0239556D01*
X0137709Y0239313D02*
X0136809Y0240213D01*
X0135633Y0240700D01*
X0134359Y0240700D01*
X0133183Y0240213D01*
X0132283Y0239313D01*
X0131796Y0238137D01*
X0131796Y0236863D01*
X0132283Y0235687D01*
X0133183Y0234787D01*
X0134359Y0234300D01*
X0135633Y0234300D01*
X0136809Y0234787D01*
X0137709Y0235687D01*
X0138196Y0236863D01*
X0138196Y0238137D01*
X0137709Y0239313D01*
X0136667Y0240271D02*
X0136667Y0244852D01*
X0135869Y0245602D02*
X0135869Y0240602D01*
X0135070Y0240700D02*
X0135070Y0245652D01*
X0134272Y0245652D02*
X0134272Y0240664D01*
X0133473Y0240333D02*
X0133473Y0245652D01*
X0132675Y0245652D02*
X0132675Y0239704D01*
X0131876Y0238331D02*
X0131876Y0245652D01*
X0131078Y0245652D02*
X0131078Y0213174D01*
X0131876Y0213307D02*
X0131876Y0236669D01*
X0132675Y0235296D02*
X0132675Y0213441D01*
X0133473Y0213574D02*
X0133473Y0234667D01*
X0134272Y0234336D02*
X0134272Y0213707D01*
X0135070Y0213840D02*
X0135070Y0234300D01*
X0135869Y0234398D02*
X0135869Y0213974D01*
X0136667Y0214115D02*
X0136667Y0234729D01*
X0137466Y0235444D02*
X0137466Y0214389D01*
X0143056Y0216308D02*
X0143056Y0286024D01*
X0141459Y0284142D02*
X0141459Y0284063D01*
X0141459Y0279937D02*
X0141459Y0248568D01*
X0140660Y0249861D02*
X0140660Y0279226D01*
X0139862Y0278895D02*
X0139862Y0250457D01*
X0138344Y0247652D02*
X0138396Y0247600D01*
X0138344Y0247652D02*
X0121796Y0247652D01*
X0121396Y0247652D01*
X0116848Y0247652D01*
X0114596Y0245400D01*
X0100996Y0245400D01*
X0096996Y0249400D01*
X0095943Y0247624D02*
X0095943Y0228428D01*
X0096742Y0228600D02*
X0096742Y0246826D01*
X0097540Y0246027D02*
X0097540Y0228773D01*
X0098339Y0229571D02*
X0098339Y0245229D01*
X0099137Y0244430D02*
X0099137Y0230370D01*
X0099936Y0231168D02*
X0099936Y0243632D01*
X0100734Y0243400D02*
X0100734Y0231400D01*
X0101533Y0231400D02*
X0101533Y0243400D01*
X0102331Y0243400D02*
X0102331Y0231400D01*
X0103130Y0231400D02*
X0103130Y0243400D01*
X0103928Y0243400D02*
X0103928Y0231400D01*
X0104727Y0231559D02*
X0104727Y0243400D01*
X0105526Y0243400D02*
X0105526Y0237958D01*
X0106324Y0238756D02*
X0106324Y0243400D01*
X0107123Y0243400D02*
X0107123Y0239555D01*
X0107921Y0240353D02*
X0107921Y0243400D01*
X0108720Y0243400D02*
X0108720Y0241152D01*
X0109518Y0241800D02*
X0109518Y0243400D01*
X0110317Y0243400D02*
X0110317Y0241800D01*
X0111115Y0241800D02*
X0111115Y0243400D01*
X0111914Y0243400D02*
X0111914Y0241800D01*
X0112712Y0242242D02*
X0112712Y0243400D01*
X0113511Y0243400D02*
X0113511Y0242731D01*
X0114309Y0243000D02*
X0114309Y0243400D01*
X0115108Y0243400D02*
X0115108Y0243000D01*
X0115906Y0242804D02*
X0115906Y0243882D01*
X0116705Y0244680D02*
X0116705Y0242417D01*
X0117503Y0241618D02*
X0117503Y0245479D01*
X0118302Y0245652D02*
X0118302Y0238923D01*
X0119100Y0238421D02*
X0119100Y0245422D01*
X0119899Y0244808D02*
X0119899Y0237354D01*
X0120697Y0237200D02*
X0120697Y0244477D01*
X0121496Y0244452D02*
X0121496Y0237200D01*
X0122294Y0236926D02*
X0122294Y0244560D01*
X0123093Y0244891D02*
X0123093Y0236429D01*
X0123891Y0235372D02*
X0123891Y0245621D01*
X0124690Y0245652D02*
X0124690Y0212661D01*
X0125488Y0212670D02*
X0125488Y0245652D01*
X0126287Y0245652D02*
X0126287Y0212703D01*
X0127085Y0212736D02*
X0127085Y0245652D01*
X0127884Y0245652D02*
X0127884Y0212769D01*
X0128682Y0212802D02*
X0128682Y0245652D01*
X0129481Y0245652D02*
X0129481Y0212908D01*
X0130279Y0213041D02*
X0130279Y0245652D01*
X0120996Y0234000D02*
X0118996Y0234000D01*
X0116571Y0231575D01*
X0116571Y0227697D01*
X0118146Y0227697D02*
X0118146Y0229650D01*
X0119496Y0231000D01*
X0121496Y0231000D01*
X0128996Y0223500D01*
X0128996Y0220500D01*
X0122496Y0214000D01*
X0119496Y0214000D01*
X0118146Y0215350D01*
X0118146Y0217303D01*
X0119100Y0217303D02*
X0119100Y0217303D01*
X0119899Y0217303D02*
X0119899Y0217303D01*
X0119899Y0219883D02*
X0119899Y0225117D01*
X0119100Y0224160D02*
X0119100Y0220840D01*
X0118302Y0220947D02*
X0118302Y0224053D01*
X0118146Y0224053D02*
X0118146Y0224371D01*
X0118146Y0224371D01*
X0118146Y0224053D01*
X0117503Y0223853D02*
X0117503Y0221147D01*
X0116705Y0221320D02*
X0116705Y0223853D01*
X0115906Y0223853D02*
X0115906Y0222118D01*
X0115824Y0222200D02*
X0115824Y0222200D01*
X0115108Y0222917D02*
X0115108Y0223853D01*
X0114309Y0223853D02*
X0114309Y0223715D01*
X0112996Y0222200D02*
X0114996Y0220200D01*
X0116571Y0218625D01*
X0116571Y0217303D01*
X0114996Y0217303D02*
X0114996Y0220200D01*
X0113421Y0218175D02*
X0111846Y0219750D01*
X0111396Y0220200D01*
X0099596Y0220200D01*
X0096996Y0222800D01*
X0096996Y0225400D01*
X0100996Y0229400D01*
X0105396Y0229400D01*
X0106796Y0230800D01*
X0106796Y0236400D01*
X0110196Y0239800D01*
X0114796Y0239800D01*
X0116996Y0236000D02*
X0114996Y0234000D01*
X0114996Y0227697D01*
X0113421Y0227697D02*
X0113421Y0234575D01*
X0111996Y0236000D01*
X0109996Y0232000D02*
X0111846Y0230150D01*
X0111846Y0227697D01*
X0112996Y0222200D02*
X0102196Y0222200D01*
X0101396Y0223000D01*
X0111846Y0219750D02*
X0111846Y0217303D01*
X0113421Y0217303D02*
X0113421Y0218175D01*
X0117503Y0213459D02*
X0117503Y0213358D01*
X0118146Y0213659D02*
X0118146Y0213977D01*
X0118146Y0213978D01*
X0118146Y0213659D01*
X0118302Y0213659D02*
X0118302Y0213245D01*
X0119100Y0213131D02*
X0119100Y0213766D01*
X0119899Y0213017D02*
X0119899Y0214723D01*
X0120697Y0212904D02*
X0120697Y0230800D01*
X0121496Y0230800D02*
X0121496Y0212790D01*
X0122294Y0212745D02*
X0122294Y0231074D01*
X0123093Y0231571D02*
X0123093Y0212717D01*
X0123891Y0212689D02*
X0123891Y0232628D01*
X0119899Y0230991D02*
X0119899Y0230277D01*
X0119100Y0231234D02*
X0119100Y0231276D01*
X0119100Y0227697D02*
X0119100Y0227697D01*
X0118571Y0227697D02*
X0119939Y0227697D01*
X0118571Y0227697D01*
X0118571Y0227697D01*
X0119899Y0227697D02*
X0119899Y0227697D01*
D200*
X0120996Y0234000D03*
X0116996Y0236000D03*
X0114796Y0239800D03*
X0111996Y0236000D03*
X0109996Y0232000D03*
X0101396Y0223000D03*
X0096996Y0225400D03*
X0107396Y0249600D03*
X0115996Y0263000D03*
X0115996Y0277000D03*
X0105196Y0286800D03*
X0120796Y0299200D03*
X0123396Y0303000D03*
X0126996Y0306000D03*
X0128996Y0287000D03*
X0130996Y0283000D03*
X0134996Y0282000D03*
X0138996Y0282000D03*
X0139996Y0287000D03*
X0146196Y0294600D03*
X0146196Y0299800D03*
X0147996Y0282000D03*
X0158996Y0282000D03*
X0156496Y0264000D03*
X0150496Y0250000D03*
X0138396Y0247600D03*
X0134996Y0237500D03*
X0121396Y0247652D03*
X0134996Y0263000D03*
X0134996Y0277000D03*
X0162996Y0241000D03*
X0147996Y0221500D03*
X0128996Y0220500D03*
X0174992Y0010000D02*
G75*
%LPD*%
D528*
X0200642Y0017303D03*
X0199067Y0017303D03*
X0197492Y0017303D03*
X0195917Y0017303D03*
X0194342Y0017303D03*
X0194342Y0027697D03*
X0195917Y0027697D03*
X0197492Y0027697D03*
X0199067Y0027697D03*
X0200642Y0027697D03*
X0214342Y0092303D03*
X0215917Y0092303D03*
X0217492Y0092303D03*
X0219067Y0092303D03*
X0220642Y0092303D03*
X0220642Y0102697D03*
X0219067Y0102697D03*
X0217492Y0102697D03*
X0215917Y0102697D03*
X0214342Y0102697D03*
D135*
X0241522Y0092707D02*
X0241522Y0027293D01*
X0242320Y0028161D02*
X0242320Y0091839D01*
X0243119Y0090972D02*
X0243119Y0029028D01*
X0243917Y0029895D02*
X0243917Y0090105D01*
X0244716Y0089237D02*
X0244716Y0030763D01*
X0244858Y0030917D02*
X0239561Y0025163D01*
X0233390Y0020360D01*
X0226512Y0016638D01*
X0219116Y0014099D01*
X0211402Y0012812D01*
X0207492Y0012650D01*
X0207492Y0012650D01*
X0204144Y0012768D01*
X0199292Y0013459D01*
X0200123Y0013459D01*
X0200323Y0013659D01*
X0200642Y0013659D01*
X0201220Y0013659D01*
X0201576Y0013754D01*
X0201895Y0013939D01*
X0202156Y0014199D01*
X0202340Y0014519D01*
X0202435Y0014875D01*
X0202435Y0017303D01*
X0201067Y0017303D01*
X0201067Y0017303D01*
X0202435Y0017303D01*
X0202435Y0019732D01*
X0202340Y0020088D01*
X0202156Y0020407D01*
X0201895Y0020668D01*
X0201576Y0020852D01*
X0201220Y0020947D01*
X0200642Y0020947D01*
X0200642Y0020629D01*
X0200642Y0020629D01*
X0200642Y0020947D01*
X0200323Y0020947D01*
X0200123Y0021147D01*
X0199373Y0021147D01*
X0198320Y0022200D01*
X0196668Y0023853D01*
X0198010Y0023853D01*
X0200123Y0023853D01*
X0200323Y0024053D01*
X0200642Y0024053D01*
X0201220Y0024053D01*
X0201576Y0024148D01*
X0201895Y0024332D01*
X0202156Y0024593D01*
X0202340Y0024912D01*
X0202435Y0025268D01*
X0202435Y0027697D01*
X0202435Y0030125D01*
X0202340Y0030481D01*
X0202156Y0030801D01*
X0201895Y0031061D01*
X0201576Y0031246D01*
X0201568Y0031248D01*
X0201643Y0031323D01*
X0201679Y0031287D01*
X0202855Y0030800D01*
X0204129Y0030800D01*
X0205305Y0031287D01*
X0206205Y0032187D01*
X0206692Y0033363D01*
X0206692Y0034637D01*
X0206205Y0035813D01*
X0205305Y0036713D01*
X0204129Y0037200D01*
X0202855Y0037200D01*
X0202517Y0037060D01*
X0202205Y0037813D01*
X0201305Y0038713D01*
X0200452Y0039066D01*
X0200492Y0039163D01*
X0200492Y0040437D01*
X0200005Y0041613D01*
X0199105Y0042513D01*
X0197929Y0043000D01*
X0196655Y0043000D01*
X0195479Y0042513D01*
X0194767Y0041800D01*
X0191864Y0041800D01*
X0188464Y0038400D01*
X0188464Y0038400D01*
X0187292Y0037228D01*
X0187292Y0031628D01*
X0187064Y0031400D01*
X0182664Y0031400D01*
X0181492Y0030228D01*
X0179864Y0028600D01*
X0178855Y0028600D01*
X0177679Y0028113D01*
X0177642Y0028075D01*
X0177642Y0048422D01*
X0178664Y0047400D01*
X0182664Y0043400D01*
X0197920Y0043400D01*
X0199092Y0044572D01*
X0200172Y0045652D01*
X0201367Y0045652D01*
X0202079Y0044939D01*
X0203255Y0044452D01*
X0204529Y0044452D01*
X0205705Y0044939D01*
X0206417Y0045652D01*
X0218315Y0045652D01*
X0219079Y0044887D01*
X0220255Y0044400D01*
X0221529Y0044400D01*
X0222705Y0044887D01*
X0223605Y0045787D01*
X0224092Y0046963D01*
X0224092Y0048237D01*
X0223605Y0049413D01*
X0222705Y0050313D01*
X0221529Y0050800D01*
X0220255Y0050800D01*
X0219079Y0050313D01*
X0218418Y0049652D01*
X0206417Y0049652D01*
X0205705Y0050364D01*
X0204529Y0050852D01*
X0203255Y0050852D01*
X0202079Y0050364D01*
X0201367Y0049652D01*
X0198515Y0049652D01*
X0197344Y0048480D01*
X0196264Y0047400D01*
X0184320Y0047400D01*
X0181492Y0050228D01*
X0181492Y0077772D01*
X0187320Y0083600D01*
X0188329Y0083600D01*
X0189505Y0084087D01*
X0190405Y0084987D01*
X0190410Y0085000D01*
X0208967Y0085000D01*
X0209679Y0084287D01*
X0210432Y0083975D01*
X0210292Y0083637D01*
X0210292Y0082363D01*
X0210779Y0081187D01*
X0211679Y0080287D01*
X0212855Y0079800D01*
X0214129Y0079800D01*
X0214862Y0080104D01*
X0215679Y0079287D01*
X0216855Y0078800D01*
X0218129Y0078800D01*
X0219305Y0079287D01*
X0219492Y0079475D01*
X0219679Y0079287D01*
X0220855Y0078800D01*
X0222129Y0078800D01*
X0223305Y0079287D01*
X0224205Y0080187D01*
X0224692Y0081363D01*
X0224692Y0082637D01*
X0224205Y0083813D01*
X0223899Y0084119D01*
X0224305Y0084287D01*
X0225205Y0085187D01*
X0225692Y0086363D01*
X0225692Y0087637D01*
X0225205Y0088813D01*
X0224305Y0089713D01*
X0223129Y0090200D01*
X0222642Y0090200D01*
X0222642Y0093132D01*
X0222635Y0093138D01*
X0222635Y0095210D01*
X0222245Y0095600D01*
X0224701Y0095600D01*
X0225492Y0094859D01*
X0225492Y0093963D01*
X0225979Y0092787D01*
X0226879Y0091887D01*
X0228055Y0091400D01*
X0229329Y0091400D01*
X0230505Y0091887D01*
X0231405Y0092787D01*
X0231892Y0093963D01*
X0231892Y0095237D01*
X0231405Y0096413D01*
X0230617Y0097200D01*
X0231405Y0097987D01*
X0231892Y0099163D01*
X0231892Y0100437D01*
X0231885Y0100455D01*
X0233390Y0099640D01*
X0239561Y0094837D01*
X0244858Y0089083D01*
X0249135Y0082536D01*
X0252276Y0075375D01*
X0254196Y0067794D01*
X0254842Y0060000D01*
X0254196Y0052206D01*
X0252276Y0044625D01*
X0249135Y0037464D01*
X0244858Y0030917D01*
X0245514Y0031922D02*
X0245514Y0088078D01*
X0246313Y0086856D02*
X0246313Y0033144D01*
X0247111Y0034366D02*
X0247111Y0085634D01*
X0247910Y0084411D02*
X0247910Y0035589D01*
X0248708Y0036811D02*
X0248708Y0083189D01*
X0249507Y0081689D02*
X0249507Y0038311D01*
X0250305Y0040132D02*
X0250305Y0079868D01*
X0251104Y0078048D02*
X0251104Y0041952D01*
X0251902Y0043773D02*
X0251902Y0076227D01*
X0252701Y0073698D02*
X0252701Y0046302D01*
X0253499Y0049455D02*
X0253499Y0070545D01*
X0254298Y0066566D02*
X0254298Y0053434D01*
X0240723Y0026426D02*
X0240723Y0093574D01*
X0239925Y0094442D02*
X0239925Y0025558D01*
X0239126Y0024825D02*
X0239126Y0095175D01*
X0238328Y0095797D02*
X0238328Y0024203D01*
X0237529Y0023582D02*
X0237529Y0096418D01*
X0236731Y0097040D02*
X0236731Y0022960D01*
X0235932Y0022339D02*
X0235932Y0097661D01*
X0235134Y0098283D02*
X0235134Y0021717D01*
X0234335Y0021096D02*
X0234335Y0098904D01*
X0233537Y0099526D02*
X0233537Y0020474D01*
X0232738Y0020007D02*
X0232738Y0099993D01*
X0231940Y0100425D02*
X0231940Y0019575D01*
X0231141Y0019143D02*
X0231141Y0092524D01*
X0230343Y0091820D02*
X0230343Y0018711D01*
X0229544Y0018279D02*
X0229544Y0091489D01*
X0228746Y0091400D02*
X0228746Y0017847D01*
X0227947Y0017415D02*
X0227947Y0091445D01*
X0227149Y0091776D02*
X0227149Y0016982D01*
X0226350Y0016582D02*
X0226350Y0092416D01*
X0225552Y0093820D02*
X0225552Y0087976D01*
X0224753Y0089264D02*
X0224753Y0095551D01*
X0223955Y0095600D02*
X0223955Y0089858D01*
X0223156Y0090189D02*
X0223156Y0095600D01*
X0222358Y0095600D02*
X0222358Y0095488D01*
X0220292Y0097600D02*
X0225492Y0097600D01*
X0228692Y0094600D01*
X0231141Y0096676D02*
X0231141Y0097724D01*
X0228692Y0099800D02*
X0221292Y0099800D01*
X0220642Y0100450D01*
X0220642Y0102697D01*
X0219067Y0102697D02*
X0219067Y0098825D01*
X0220292Y0097600D01*
X0217492Y0099600D02*
X0215692Y0097800D01*
X0204692Y0097800D01*
X0203292Y0099200D01*
X0205892Y0103000D02*
X0209492Y0099400D01*
X0215292Y0099400D01*
X0215917Y0100025D01*
X0215917Y0102697D01*
X0214342Y0102697D02*
X0214342Y0105150D01*
X0212892Y0106600D01*
X0210092Y0106600D01*
X0209492Y0106000D01*
X0217492Y0102697D02*
X0217492Y0099600D01*
X0217492Y0092303D02*
X0217492Y0082000D01*
X0219067Y0084425D02*
X0221492Y0082000D01*
X0221559Y0078800D02*
X0221559Y0050787D01*
X0220760Y0050800D02*
X0220760Y0078839D01*
X0219962Y0079170D02*
X0219962Y0050678D01*
X0219163Y0050348D02*
X0219163Y0079229D01*
X0218365Y0078898D02*
X0218365Y0049652D01*
X0217566Y0049652D02*
X0217566Y0078800D01*
X0216768Y0078836D02*
X0216768Y0049652D01*
X0215969Y0049652D02*
X0215969Y0079167D01*
X0215171Y0079796D02*
X0215171Y0049652D01*
X0214372Y0049652D02*
X0214372Y0079901D01*
X0213574Y0079800D02*
X0213574Y0049652D01*
X0212775Y0049652D02*
X0212775Y0079833D01*
X0211977Y0080164D02*
X0211977Y0049652D01*
X0211178Y0049652D02*
X0211178Y0080788D01*
X0210380Y0082151D02*
X0210380Y0049652D01*
X0209581Y0049652D02*
X0209581Y0084385D01*
X0210380Y0083997D02*
X0210380Y0083849D01*
X0208783Y0085000D02*
X0208783Y0049652D01*
X0207984Y0049652D02*
X0207984Y0085000D01*
X0207186Y0085000D02*
X0207186Y0049652D01*
X0206387Y0049682D02*
X0206387Y0085000D01*
X0205589Y0085000D02*
X0205589Y0050412D01*
X0204790Y0050743D02*
X0204790Y0085000D01*
X0203992Y0085000D02*
X0203992Y0050852D01*
X0203193Y0050826D02*
X0203193Y0085000D01*
X0202395Y0085000D02*
X0202395Y0050495D01*
X0201596Y0049881D02*
X0201596Y0085000D01*
X0200798Y0085000D02*
X0200798Y0049652D01*
X0199999Y0049652D02*
X0199999Y0085000D01*
X0199201Y0085000D02*
X0199201Y0049652D01*
X0198402Y0049539D02*
X0198402Y0085000D01*
X0197604Y0085000D02*
X0197604Y0048740D01*
X0197344Y0048480D02*
X0197344Y0048480D01*
X0196805Y0047942D02*
X0196805Y0085000D01*
X0196007Y0085000D02*
X0196007Y0047400D01*
X0195208Y0047400D02*
X0195208Y0085000D01*
X0194410Y0085000D02*
X0194410Y0047400D01*
X0193611Y0047400D02*
X0193611Y0085000D01*
X0192813Y0085000D02*
X0192813Y0047400D01*
X0192014Y0047400D02*
X0192014Y0085000D01*
X0191216Y0085000D02*
X0191216Y0047400D01*
X0190417Y0047400D02*
X0190417Y0085000D01*
X0189619Y0084201D02*
X0189619Y0047400D01*
X0188820Y0047400D02*
X0188820Y0083804D01*
X0188022Y0083600D02*
X0188022Y0047400D01*
X0187223Y0047400D02*
X0187223Y0083503D01*
X0186424Y0082704D02*
X0186424Y0047400D01*
X0185626Y0047400D02*
X0185626Y0081906D01*
X0184827Y0081107D02*
X0184827Y0047400D01*
X0184029Y0047691D02*
X0184029Y0080309D01*
X0183230Y0079510D02*
X0183230Y0048490D01*
X0182432Y0049288D02*
X0182432Y0078712D01*
X0181633Y0077913D02*
X0181633Y0050087D01*
X0179492Y0049400D02*
X0179492Y0078600D01*
X0187692Y0086800D01*
X0187892Y0087000D01*
X0211492Y0087000D01*
X0214342Y0089850D01*
X0214342Y0092303D01*
X0215917Y0092303D02*
X0215917Y0085425D01*
X0213492Y0083000D01*
X0219067Y0084425D02*
X0219067Y0092303D01*
X0220642Y0092303D02*
X0220642Y0088850D01*
X0222492Y0087000D01*
X0224753Y0084736D02*
X0224753Y0016034D01*
X0223955Y0015760D02*
X0223955Y0046632D01*
X0223156Y0045339D02*
X0223156Y0015486D01*
X0222358Y0015212D02*
X0222358Y0044743D01*
X0221559Y0044413D02*
X0221559Y0014938D01*
X0220760Y0014664D02*
X0220760Y0044400D01*
X0219962Y0044522D02*
X0219962Y0039556D01*
X0220205Y0039313D02*
X0219305Y0040213D01*
X0218129Y0040700D01*
X0216855Y0040700D01*
X0215679Y0040213D01*
X0214779Y0039313D01*
X0214292Y0038137D01*
X0214292Y0036863D01*
X0214779Y0035687D01*
X0215679Y0034787D01*
X0216855Y0034300D01*
X0218129Y0034300D01*
X0219305Y0034787D01*
X0220205Y0035687D01*
X0220692Y0036863D01*
X0220692Y0038137D01*
X0220205Y0039313D01*
X0219163Y0040271D02*
X0219163Y0044852D01*
X0218365Y0045602D02*
X0218365Y0040602D01*
X0217566Y0040700D02*
X0217566Y0045652D01*
X0216768Y0045652D02*
X0216768Y0040664D01*
X0215969Y0040333D02*
X0215969Y0045652D01*
X0215171Y0045652D02*
X0215171Y0039704D01*
X0214372Y0038331D02*
X0214372Y0045652D01*
X0213574Y0045652D02*
X0213574Y0013174D01*
X0214372Y0013307D02*
X0214372Y0036669D01*
X0215171Y0035296D02*
X0215171Y0013441D01*
X0215969Y0013574D02*
X0215969Y0034667D01*
X0216768Y0034336D02*
X0216768Y0013707D01*
X0217566Y0013840D02*
X0217566Y0034300D01*
X0218365Y0034398D02*
X0218365Y0013974D01*
X0219163Y0014115D02*
X0219163Y0034729D01*
X0219962Y0035444D02*
X0219962Y0014389D01*
X0225552Y0016308D02*
X0225552Y0086024D01*
X0223955Y0084142D02*
X0223955Y0084063D01*
X0223955Y0079937D02*
X0223955Y0048568D01*
X0223156Y0049861D02*
X0223156Y0079226D01*
X0222358Y0078895D02*
X0222358Y0050457D01*
X0220840Y0047652D02*
X0220892Y0047600D01*
X0220840Y0047652D02*
X0204292Y0047652D01*
X0203892Y0047652D01*
X0199344Y0047652D01*
X0197092Y0045400D01*
X0183492Y0045400D01*
X0179492Y0049400D01*
X0178439Y0047624D02*
X0178439Y0028428D01*
X0179238Y0028600D02*
X0179238Y0046826D01*
X0180036Y0046027D02*
X0180036Y0028773D01*
X0180835Y0029571D02*
X0180835Y0045229D01*
X0181633Y0044430D02*
X0181633Y0030370D01*
X0182432Y0031168D02*
X0182432Y0043632D01*
X0183230Y0043400D02*
X0183230Y0031400D01*
X0184029Y0031400D02*
X0184029Y0043400D01*
X0184827Y0043400D02*
X0184827Y0031400D01*
X0185626Y0031400D02*
X0185626Y0043400D01*
X0186424Y0043400D02*
X0186424Y0031400D01*
X0187223Y0031559D02*
X0187223Y0043400D01*
X0188022Y0043400D02*
X0188022Y0037958D01*
X0188820Y0038756D02*
X0188820Y0043400D01*
X0189619Y0043400D02*
X0189619Y0039555D01*
X0190417Y0040353D02*
X0190417Y0043400D01*
X0191216Y0043400D02*
X0191216Y0041152D01*
X0192014Y0041800D02*
X0192014Y0043400D01*
X0192813Y0043400D02*
X0192813Y0041800D01*
X0193611Y0041800D02*
X0193611Y0043400D01*
X0194410Y0043400D02*
X0194410Y0041800D01*
X0195208Y0042242D02*
X0195208Y0043400D01*
X0196007Y0043400D02*
X0196007Y0042731D01*
X0196805Y0043000D02*
X0196805Y0043400D01*
X0197604Y0043400D02*
X0197604Y0043000D01*
X0198402Y0042804D02*
X0198402Y0043882D01*
X0199201Y0044680D02*
X0199201Y0042417D01*
X0199999Y0041618D02*
X0199999Y0045479D01*
X0200798Y0045652D02*
X0200798Y0038923D01*
X0201596Y0038421D02*
X0201596Y0045422D01*
X0202395Y0044808D02*
X0202395Y0037354D01*
X0203193Y0037200D02*
X0203193Y0044477D01*
X0203992Y0044452D02*
X0203992Y0037200D01*
X0204790Y0036926D02*
X0204790Y0044560D01*
X0205589Y0044891D02*
X0205589Y0036429D01*
X0206387Y0035372D02*
X0206387Y0045621D01*
X0207186Y0045652D02*
X0207186Y0012661D01*
X0207984Y0012670D02*
X0207984Y0045652D01*
X0208783Y0045652D02*
X0208783Y0012703D01*
X0209581Y0012736D02*
X0209581Y0045652D01*
X0210380Y0045652D02*
X0210380Y0012769D01*
X0211178Y0012802D02*
X0211178Y0045652D01*
X0211977Y0045652D02*
X0211977Y0012908D01*
X0212775Y0013041D02*
X0212775Y0045652D01*
X0203492Y0034000D02*
X0201492Y0034000D01*
X0199067Y0031575D01*
X0199067Y0027697D01*
X0200642Y0027697D02*
X0200642Y0029650D01*
X0201992Y0031000D01*
X0203992Y0031000D01*
X0211492Y0023500D01*
X0211492Y0020500D01*
X0204992Y0014000D01*
X0201992Y0014000D01*
X0200642Y0015350D01*
X0200642Y0017303D01*
X0201596Y0017303D02*
X0201596Y0017303D01*
X0202395Y0017303D02*
X0202395Y0017303D01*
X0202395Y0019883D02*
X0202395Y0025117D01*
X0201596Y0024160D02*
X0201596Y0020840D01*
X0200798Y0020947D02*
X0200798Y0024053D01*
X0200642Y0024053D02*
X0200642Y0024371D01*
X0200642Y0024371D01*
X0200642Y0024053D01*
X0199999Y0023853D02*
X0199999Y0021147D01*
X0199201Y0021320D02*
X0199201Y0023853D01*
X0198402Y0023853D02*
X0198402Y0022118D01*
X0198320Y0022200D02*
X0198320Y0022200D01*
X0197604Y0022917D02*
X0197604Y0023853D01*
X0196805Y0023853D02*
X0196805Y0023715D01*
X0195492Y0022200D02*
X0197492Y0020200D01*
X0199067Y0018625D01*
X0199067Y0017303D01*
X0197492Y0017303D02*
X0197492Y0020200D01*
X0195917Y0018175D02*
X0194342Y0019750D01*
X0193892Y0020200D01*
X0182092Y0020200D01*
X0179492Y0022800D01*
X0179492Y0025400D01*
X0183492Y0029400D01*
X0187892Y0029400D01*
X0189292Y0030800D01*
X0189292Y0036400D01*
X0192692Y0039800D01*
X0197292Y0039800D01*
X0199492Y0036000D02*
X0197492Y0034000D01*
X0197492Y0027697D01*
X0195917Y0027697D02*
X0195917Y0034575D01*
X0194492Y0036000D01*
X0192492Y0032000D02*
X0194342Y0030150D01*
X0194342Y0027697D01*
X0195492Y0022200D02*
X0184692Y0022200D01*
X0183892Y0023000D01*
X0194342Y0019750D02*
X0194342Y0017303D01*
X0195917Y0017303D02*
X0195917Y0018175D01*
X0199999Y0013459D02*
X0199999Y0013358D01*
X0200642Y0013659D02*
X0200642Y0013977D01*
X0200642Y0013978D01*
X0200642Y0013659D01*
X0200798Y0013659D02*
X0200798Y0013245D01*
X0201596Y0013131D02*
X0201596Y0013766D01*
X0202395Y0013017D02*
X0202395Y0014723D01*
X0203193Y0012904D02*
X0203193Y0030800D01*
X0203992Y0030800D02*
X0203992Y0012790D01*
X0204790Y0012745D02*
X0204790Y0031074D01*
X0205589Y0031571D02*
X0205589Y0012717D01*
X0206387Y0012689D02*
X0206387Y0032628D01*
X0202395Y0030991D02*
X0202395Y0030277D01*
X0201596Y0031234D02*
X0201596Y0031276D01*
X0201596Y0027697D02*
X0201596Y0027697D01*
X0201067Y0027697D02*
X0202435Y0027697D01*
X0201067Y0027697D01*
X0201067Y0027697D01*
X0202395Y0027697D02*
X0202395Y0027697D01*
D200*
X0203492Y0034000D03*
X0199492Y0036000D03*
X0197292Y0039800D03*
X0194492Y0036000D03*
X0192492Y0032000D03*
X0183892Y0023000D03*
X0179492Y0025400D03*
X0189892Y0049600D03*
X0198492Y0063000D03*
X0198492Y0077000D03*
X0187692Y0086800D03*
X0203292Y0099200D03*
X0205892Y0103000D03*
X0209492Y0106000D03*
X0211492Y0087000D03*
X0213492Y0083000D03*
X0217492Y0082000D03*
X0221492Y0082000D03*
X0222492Y0087000D03*
X0228692Y0094600D03*
X0228692Y0099800D03*
X0230492Y0082000D03*
X0241492Y0082000D03*
X0238992Y0064000D03*
X0232992Y0050000D03*
X0220892Y0047600D03*
X0217492Y0037500D03*
X0203892Y0047652D03*
X0217492Y0063000D03*
X0217492Y0077000D03*
X0245492Y0041000D03*
X0230492Y0021500D03*
X0211492Y0020500D03*
X0174992Y0110000D02*
G75*
%LPD*%
D528*
X0200642Y0117303D03*
X0199067Y0117303D03*
X0197492Y0117303D03*
X0195917Y0117303D03*
X0194342Y0117303D03*
X0194342Y0127697D03*
X0195917Y0127697D03*
X0197492Y0127697D03*
X0199067Y0127697D03*
X0200642Y0127697D03*
X0214342Y0192303D03*
X0215917Y0192303D03*
X0217492Y0192303D03*
X0219067Y0192303D03*
X0220642Y0192303D03*
X0220642Y0202697D03*
X0219067Y0202697D03*
X0217492Y0202697D03*
X0215917Y0202697D03*
X0214342Y0202697D03*
D135*
X0241522Y0192707D02*
X0241522Y0127293D01*
X0242320Y0128161D02*
X0242320Y0191839D01*
X0243119Y0190972D02*
X0243119Y0129028D01*
X0243917Y0129895D02*
X0243917Y0190105D01*
X0244716Y0189237D02*
X0244716Y0130763D01*
X0244858Y0130917D02*
X0239561Y0125163D01*
X0233390Y0120360D01*
X0226512Y0116638D01*
X0219116Y0114099D01*
X0211402Y0112812D01*
X0207492Y0112650D01*
X0207492Y0112650D01*
X0204144Y0112768D01*
X0199292Y0113459D01*
X0200123Y0113459D01*
X0200323Y0113659D01*
X0200642Y0113659D01*
X0201220Y0113659D01*
X0201576Y0113754D01*
X0201895Y0113939D01*
X0202156Y0114199D01*
X0202340Y0114519D01*
X0202435Y0114875D01*
X0202435Y0117303D01*
X0201067Y0117303D01*
X0201067Y0117303D01*
X0202435Y0117303D01*
X0202435Y0119732D01*
X0202340Y0120088D01*
X0202156Y0120407D01*
X0201895Y0120668D01*
X0201576Y0120852D01*
X0201220Y0120947D01*
X0200642Y0120947D01*
X0200642Y0120629D01*
X0200642Y0120629D01*
X0200642Y0120947D01*
X0200323Y0120947D01*
X0200123Y0121147D01*
X0199373Y0121147D01*
X0198320Y0122200D01*
X0196668Y0123853D01*
X0198010Y0123853D01*
X0200123Y0123853D01*
X0200323Y0124053D01*
X0200642Y0124053D01*
X0201220Y0124053D01*
X0201576Y0124148D01*
X0201895Y0124332D01*
X0202156Y0124593D01*
X0202340Y0124912D01*
X0202435Y0125268D01*
X0202435Y0127697D01*
X0202435Y0130125D01*
X0202340Y0130481D01*
X0202156Y0130801D01*
X0201895Y0131061D01*
X0201576Y0131246D01*
X0201568Y0131248D01*
X0201643Y0131323D01*
X0201679Y0131287D01*
X0202855Y0130800D01*
X0204129Y0130800D01*
X0205305Y0131287D01*
X0206205Y0132187D01*
X0206692Y0133363D01*
X0206692Y0134637D01*
X0206205Y0135813D01*
X0205305Y0136713D01*
X0204129Y0137200D01*
X0202855Y0137200D01*
X0202517Y0137060D01*
X0202205Y0137813D01*
X0201305Y0138713D01*
X0200452Y0139066D01*
X0200492Y0139163D01*
X0200492Y0140437D01*
X0200005Y0141613D01*
X0199105Y0142513D01*
X0197929Y0143000D01*
X0196655Y0143000D01*
X0195479Y0142513D01*
X0194767Y0141800D01*
X0191864Y0141800D01*
X0188464Y0138400D01*
X0188464Y0138400D01*
X0187292Y0137228D01*
X0187292Y0131628D01*
X0187064Y0131400D01*
X0182664Y0131400D01*
X0181492Y0130228D01*
X0179864Y0128600D01*
X0178855Y0128600D01*
X0177679Y0128113D01*
X0177642Y0128075D01*
X0177642Y0148422D01*
X0178664Y0147400D01*
X0182664Y0143400D01*
X0197920Y0143400D01*
X0199092Y0144572D01*
X0200172Y0145652D01*
X0201367Y0145652D01*
X0202079Y0144939D01*
X0203255Y0144452D01*
X0204529Y0144452D01*
X0205705Y0144939D01*
X0206417Y0145652D01*
X0218315Y0145652D01*
X0219079Y0144887D01*
X0220255Y0144400D01*
X0221529Y0144400D01*
X0222705Y0144887D01*
X0223605Y0145787D01*
X0224092Y0146963D01*
X0224092Y0148237D01*
X0223605Y0149413D01*
X0222705Y0150313D01*
X0221529Y0150800D01*
X0220255Y0150800D01*
X0219079Y0150313D01*
X0218418Y0149652D01*
X0206417Y0149652D01*
X0205705Y0150364D01*
X0204529Y0150852D01*
X0203255Y0150852D01*
X0202079Y0150364D01*
X0201367Y0149652D01*
X0198515Y0149652D01*
X0197344Y0148480D01*
X0196264Y0147400D01*
X0184320Y0147400D01*
X0181492Y0150228D01*
X0181492Y0177772D01*
X0187320Y0183600D01*
X0188329Y0183600D01*
X0189505Y0184087D01*
X0190405Y0184987D01*
X0190410Y0185000D01*
X0208967Y0185000D01*
X0209679Y0184287D01*
X0210432Y0183975D01*
X0210292Y0183637D01*
X0210292Y0182363D01*
X0210779Y0181187D01*
X0211679Y0180287D01*
X0212855Y0179800D01*
X0214129Y0179800D01*
X0214862Y0180104D01*
X0215679Y0179287D01*
X0216855Y0178800D01*
X0218129Y0178800D01*
X0219305Y0179287D01*
X0219492Y0179475D01*
X0219679Y0179287D01*
X0220855Y0178800D01*
X0222129Y0178800D01*
X0223305Y0179287D01*
X0224205Y0180187D01*
X0224692Y0181363D01*
X0224692Y0182637D01*
X0224205Y0183813D01*
X0223899Y0184119D01*
X0224305Y0184287D01*
X0225205Y0185187D01*
X0225692Y0186363D01*
X0225692Y0187637D01*
X0225205Y0188813D01*
X0224305Y0189713D01*
X0223129Y0190200D01*
X0222642Y0190200D01*
X0222642Y0193132D01*
X0222635Y0193138D01*
X0222635Y0195210D01*
X0222245Y0195600D01*
X0224701Y0195600D01*
X0225492Y0194859D01*
X0225492Y0193963D01*
X0225979Y0192787D01*
X0226879Y0191887D01*
X0228055Y0191400D01*
X0229329Y0191400D01*
X0230505Y0191887D01*
X0231405Y0192787D01*
X0231892Y0193963D01*
X0231892Y0195237D01*
X0231405Y0196413D01*
X0230617Y0197200D01*
X0231405Y0197987D01*
X0231892Y0199163D01*
X0231892Y0200437D01*
X0231885Y0200455D01*
X0233390Y0199640D01*
X0239561Y0194837D01*
X0244858Y0189083D01*
X0249135Y0182536D01*
X0252276Y0175375D01*
X0254196Y0167794D01*
X0254842Y0160000D01*
X0254196Y0152206D01*
X0252276Y0144625D01*
X0249135Y0137464D01*
X0244858Y0130917D01*
X0245514Y0131922D02*
X0245514Y0188078D01*
X0246313Y0186856D02*
X0246313Y0133144D01*
X0247111Y0134366D02*
X0247111Y0185634D01*
X0247910Y0184411D02*
X0247910Y0135589D01*
X0248708Y0136811D02*
X0248708Y0183189D01*
X0249507Y0181689D02*
X0249507Y0138311D01*
X0250305Y0140132D02*
X0250305Y0179868D01*
X0251104Y0178048D02*
X0251104Y0141952D01*
X0251902Y0143773D02*
X0251902Y0176227D01*
X0252701Y0173698D02*
X0252701Y0146302D01*
X0253499Y0149455D02*
X0253499Y0170545D01*
X0254298Y0166566D02*
X0254298Y0153434D01*
X0240723Y0126426D02*
X0240723Y0193574D01*
X0239925Y0194442D02*
X0239925Y0125558D01*
X0239126Y0124825D02*
X0239126Y0195175D01*
X0238328Y0195797D02*
X0238328Y0124203D01*
X0237529Y0123582D02*
X0237529Y0196418D01*
X0236731Y0197040D02*
X0236731Y0122960D01*
X0235932Y0122339D02*
X0235932Y0197661D01*
X0235134Y0198283D02*
X0235134Y0121717D01*
X0234335Y0121096D02*
X0234335Y0198904D01*
X0233537Y0199526D02*
X0233537Y0120474D01*
X0232738Y0120007D02*
X0232738Y0199993D01*
X0231940Y0200425D02*
X0231940Y0119575D01*
X0231141Y0119143D02*
X0231141Y0192524D01*
X0230343Y0191820D02*
X0230343Y0118711D01*
X0229544Y0118279D02*
X0229544Y0191489D01*
X0228746Y0191400D02*
X0228746Y0117847D01*
X0227947Y0117415D02*
X0227947Y0191445D01*
X0227149Y0191776D02*
X0227149Y0116982D01*
X0226350Y0116582D02*
X0226350Y0192416D01*
X0225552Y0193820D02*
X0225552Y0187976D01*
X0224753Y0189264D02*
X0224753Y0195551D01*
X0223955Y0195600D02*
X0223955Y0189858D01*
X0223156Y0190189D02*
X0223156Y0195600D01*
X0222358Y0195600D02*
X0222358Y0195488D01*
X0220292Y0197600D02*
X0225492Y0197600D01*
X0228692Y0194600D01*
X0231141Y0196676D02*
X0231141Y0197724D01*
X0228692Y0199800D02*
X0221292Y0199800D01*
X0220642Y0200450D01*
X0220642Y0202697D01*
X0219067Y0202697D02*
X0219067Y0198825D01*
X0220292Y0197600D01*
X0217492Y0199600D02*
X0215692Y0197800D01*
X0204692Y0197800D01*
X0203292Y0199200D01*
X0205892Y0203000D02*
X0209492Y0199400D01*
X0215292Y0199400D01*
X0215917Y0200025D01*
X0215917Y0202697D01*
X0214342Y0202697D02*
X0214342Y0205150D01*
X0212892Y0206600D01*
X0210092Y0206600D01*
X0209492Y0206000D01*
X0217492Y0202697D02*
X0217492Y0199600D01*
X0217492Y0192303D02*
X0217492Y0182000D01*
X0219067Y0184425D02*
X0221492Y0182000D01*
X0221559Y0178800D02*
X0221559Y0150787D01*
X0220760Y0150800D02*
X0220760Y0178839D01*
X0219962Y0179170D02*
X0219962Y0150678D01*
X0219163Y0150348D02*
X0219163Y0179229D01*
X0218365Y0178898D02*
X0218365Y0149652D01*
X0217566Y0149652D02*
X0217566Y0178800D01*
X0216768Y0178836D02*
X0216768Y0149652D01*
X0215969Y0149652D02*
X0215969Y0179167D01*
X0215171Y0179796D02*
X0215171Y0149652D01*
X0214372Y0149652D02*
X0214372Y0179901D01*
X0213574Y0179800D02*
X0213574Y0149652D01*
X0212775Y0149652D02*
X0212775Y0179833D01*
X0211977Y0180164D02*
X0211977Y0149652D01*
X0211178Y0149652D02*
X0211178Y0180788D01*
X0210380Y0182151D02*
X0210380Y0149652D01*
X0209581Y0149652D02*
X0209581Y0184385D01*
X0210380Y0183997D02*
X0210380Y0183849D01*
X0208783Y0185000D02*
X0208783Y0149652D01*
X0207984Y0149652D02*
X0207984Y0185000D01*
X0207186Y0185000D02*
X0207186Y0149652D01*
X0206387Y0149682D02*
X0206387Y0185000D01*
X0205589Y0185000D02*
X0205589Y0150412D01*
X0204790Y0150743D02*
X0204790Y0185000D01*
X0203992Y0185000D02*
X0203992Y0150852D01*
X0203193Y0150826D02*
X0203193Y0185000D01*
X0202395Y0185000D02*
X0202395Y0150495D01*
X0201596Y0149881D02*
X0201596Y0185000D01*
X0200798Y0185000D02*
X0200798Y0149652D01*
X0199999Y0149652D02*
X0199999Y0185000D01*
X0199201Y0185000D02*
X0199201Y0149652D01*
X0198402Y0149539D02*
X0198402Y0185000D01*
X0197604Y0185000D02*
X0197604Y0148740D01*
X0197344Y0148480D02*
X0197344Y0148480D01*
X0196805Y0147942D02*
X0196805Y0185000D01*
X0196007Y0185000D02*
X0196007Y0147400D01*
X0195208Y0147400D02*
X0195208Y0185000D01*
X0194410Y0185000D02*
X0194410Y0147400D01*
X0193611Y0147400D02*
X0193611Y0185000D01*
X0192813Y0185000D02*
X0192813Y0147400D01*
X0192014Y0147400D02*
X0192014Y0185000D01*
X0191216Y0185000D02*
X0191216Y0147400D01*
X0190417Y0147400D02*
X0190417Y0185000D01*
X0189619Y0184201D02*
X0189619Y0147400D01*
X0188820Y0147400D02*
X0188820Y0183804D01*
X0188022Y0183600D02*
X0188022Y0147400D01*
X0187223Y0147400D02*
X0187223Y0183503D01*
X0186424Y0182704D02*
X0186424Y0147400D01*
X0185626Y0147400D02*
X0185626Y0181906D01*
X0184827Y0181107D02*
X0184827Y0147400D01*
X0184029Y0147691D02*
X0184029Y0180309D01*
X0183230Y0179510D02*
X0183230Y0148490D01*
X0182432Y0149288D02*
X0182432Y0178712D01*
X0181633Y0177913D02*
X0181633Y0150087D01*
X0179492Y0149400D02*
X0179492Y0178600D01*
X0187692Y0186800D01*
X0187892Y0187000D01*
X0211492Y0187000D01*
X0214342Y0189850D01*
X0214342Y0192303D01*
X0215917Y0192303D02*
X0215917Y0185425D01*
X0213492Y0183000D01*
X0219067Y0184425D02*
X0219067Y0192303D01*
X0220642Y0192303D02*
X0220642Y0188850D01*
X0222492Y0187000D01*
X0224753Y0184736D02*
X0224753Y0116034D01*
X0223955Y0115760D02*
X0223955Y0146632D01*
X0223156Y0145339D02*
X0223156Y0115486D01*
X0222358Y0115212D02*
X0222358Y0144743D01*
X0221559Y0144413D02*
X0221559Y0114938D01*
X0220760Y0114664D02*
X0220760Y0144400D01*
X0219962Y0144522D02*
X0219962Y0139556D01*
X0220205Y0139313D02*
X0219305Y0140213D01*
X0218129Y0140700D01*
X0216855Y0140700D01*
X0215679Y0140213D01*
X0214779Y0139313D01*
X0214292Y0138137D01*
X0214292Y0136863D01*
X0214779Y0135687D01*
X0215679Y0134787D01*
X0216855Y0134300D01*
X0218129Y0134300D01*
X0219305Y0134787D01*
X0220205Y0135687D01*
X0220692Y0136863D01*
X0220692Y0138137D01*
X0220205Y0139313D01*
X0219163Y0140271D02*
X0219163Y0144852D01*
X0218365Y0145602D02*
X0218365Y0140602D01*
X0217566Y0140700D02*
X0217566Y0145652D01*
X0216768Y0145652D02*
X0216768Y0140664D01*
X0215969Y0140333D02*
X0215969Y0145652D01*
X0215171Y0145652D02*
X0215171Y0139704D01*
X0214372Y0138331D02*
X0214372Y0145652D01*
X0213574Y0145652D02*
X0213574Y0113174D01*
X0214372Y0113307D02*
X0214372Y0136669D01*
X0215171Y0135296D02*
X0215171Y0113441D01*
X0215969Y0113574D02*
X0215969Y0134667D01*
X0216768Y0134336D02*
X0216768Y0113707D01*
X0217566Y0113840D02*
X0217566Y0134300D01*
X0218365Y0134398D02*
X0218365Y0113974D01*
X0219163Y0114115D02*
X0219163Y0134729D01*
X0219962Y0135444D02*
X0219962Y0114389D01*
X0225552Y0116308D02*
X0225552Y0186024D01*
X0223955Y0184142D02*
X0223955Y0184063D01*
X0223955Y0179937D02*
X0223955Y0148568D01*
X0223156Y0149861D02*
X0223156Y0179226D01*
X0222358Y0178895D02*
X0222358Y0150457D01*
X0220840Y0147652D02*
X0220892Y0147600D01*
X0220840Y0147652D02*
X0204292Y0147652D01*
X0203892Y0147652D01*
X0199344Y0147652D01*
X0197092Y0145400D01*
X0183492Y0145400D01*
X0179492Y0149400D01*
X0178439Y0147624D02*
X0178439Y0128428D01*
X0179238Y0128600D02*
X0179238Y0146826D01*
X0180036Y0146027D02*
X0180036Y0128773D01*
X0180835Y0129571D02*
X0180835Y0145229D01*
X0181633Y0144430D02*
X0181633Y0130370D01*
X0182432Y0131168D02*
X0182432Y0143632D01*
X0183230Y0143400D02*
X0183230Y0131400D01*
X0184029Y0131400D02*
X0184029Y0143400D01*
X0184827Y0143400D02*
X0184827Y0131400D01*
X0185626Y0131400D02*
X0185626Y0143400D01*
X0186424Y0143400D02*
X0186424Y0131400D01*
X0187223Y0131559D02*
X0187223Y0143400D01*
X0188022Y0143400D02*
X0188022Y0137958D01*
X0188820Y0138756D02*
X0188820Y0143400D01*
X0189619Y0143400D02*
X0189619Y0139555D01*
X0190417Y0140353D02*
X0190417Y0143400D01*
X0191216Y0143400D02*
X0191216Y0141152D01*
X0192014Y0141800D02*
X0192014Y0143400D01*
X0192813Y0143400D02*
X0192813Y0141800D01*
X0193611Y0141800D02*
X0193611Y0143400D01*
X0194410Y0143400D02*
X0194410Y0141800D01*
X0195208Y0142242D02*
X0195208Y0143400D01*
X0196007Y0143400D02*
X0196007Y0142731D01*
X0196805Y0143000D02*
X0196805Y0143400D01*
X0197604Y0143400D02*
X0197604Y0143000D01*
X0198402Y0142804D02*
X0198402Y0143882D01*
X0199201Y0144680D02*
X0199201Y0142417D01*
X0199999Y0141618D02*
X0199999Y0145479D01*
X0200798Y0145652D02*
X0200798Y0138923D01*
X0201596Y0138421D02*
X0201596Y0145422D01*
X0202395Y0144808D02*
X0202395Y0137354D01*
X0203193Y0137200D02*
X0203193Y0144477D01*
X0203992Y0144452D02*
X0203992Y0137200D01*
X0204790Y0136926D02*
X0204790Y0144560D01*
X0205589Y0144891D02*
X0205589Y0136429D01*
X0206387Y0135372D02*
X0206387Y0145621D01*
X0207186Y0145652D02*
X0207186Y0112661D01*
X0207984Y0112670D02*
X0207984Y0145652D01*
X0208783Y0145652D02*
X0208783Y0112703D01*
X0209581Y0112736D02*
X0209581Y0145652D01*
X0210380Y0145652D02*
X0210380Y0112769D01*
X0211178Y0112802D02*
X0211178Y0145652D01*
X0211977Y0145652D02*
X0211977Y0112908D01*
X0212775Y0113041D02*
X0212775Y0145652D01*
X0203492Y0134000D02*
X0201492Y0134000D01*
X0199067Y0131575D01*
X0199067Y0127697D01*
X0200642Y0127697D02*
X0200642Y0129650D01*
X0201992Y0131000D01*
X0203992Y0131000D01*
X0211492Y0123500D01*
X0211492Y0120500D01*
X0204992Y0114000D01*
X0201992Y0114000D01*
X0200642Y0115350D01*
X0200642Y0117303D01*
X0201596Y0117303D02*
X0201596Y0117303D01*
X0202395Y0117303D02*
X0202395Y0117303D01*
X0202395Y0119883D02*
X0202395Y0125117D01*
X0201596Y0124160D02*
X0201596Y0120840D01*
X0200798Y0120947D02*
X0200798Y0124053D01*
X0200642Y0124053D02*
X0200642Y0124371D01*
X0200642Y0124371D01*
X0200642Y0124053D01*
X0199999Y0123853D02*
X0199999Y0121147D01*
X0199201Y0121320D02*
X0199201Y0123853D01*
X0198402Y0123853D02*
X0198402Y0122118D01*
X0198320Y0122200D02*
X0198320Y0122200D01*
X0197604Y0122917D02*
X0197604Y0123853D01*
X0196805Y0123853D02*
X0196805Y0123715D01*
X0195492Y0122200D02*
X0197492Y0120200D01*
X0199067Y0118625D01*
X0199067Y0117303D01*
X0197492Y0117303D02*
X0197492Y0120200D01*
X0195917Y0118175D02*
X0194342Y0119750D01*
X0193892Y0120200D01*
X0182092Y0120200D01*
X0179492Y0122800D01*
X0179492Y0125400D01*
X0183492Y0129400D01*
X0187892Y0129400D01*
X0189292Y0130800D01*
X0189292Y0136400D01*
X0192692Y0139800D01*
X0197292Y0139800D01*
X0199492Y0136000D02*
X0197492Y0134000D01*
X0197492Y0127697D01*
X0195917Y0127697D02*
X0195917Y0134575D01*
X0194492Y0136000D01*
X0192492Y0132000D02*
X0194342Y0130150D01*
X0194342Y0127697D01*
X0195492Y0122200D02*
X0184692Y0122200D01*
X0183892Y0123000D01*
X0194342Y0119750D02*
X0194342Y0117303D01*
X0195917Y0117303D02*
X0195917Y0118175D01*
X0199999Y0113459D02*
X0199999Y0113358D01*
X0200642Y0113659D02*
X0200642Y0113977D01*
X0200642Y0113978D01*
X0200642Y0113659D01*
X0200798Y0113659D02*
X0200798Y0113245D01*
X0201596Y0113131D02*
X0201596Y0113766D01*
X0202395Y0113017D02*
X0202395Y0114723D01*
X0203193Y0112904D02*
X0203193Y0130800D01*
X0203992Y0130800D02*
X0203992Y0112790D01*
X0204790Y0112745D02*
X0204790Y0131074D01*
X0205589Y0131571D02*
X0205589Y0112717D01*
X0206387Y0112689D02*
X0206387Y0132628D01*
X0202395Y0130991D02*
X0202395Y0130277D01*
X0201596Y0131234D02*
X0201596Y0131276D01*
X0201596Y0127697D02*
X0201596Y0127697D01*
X0201067Y0127697D02*
X0202435Y0127697D01*
X0201067Y0127697D01*
X0201067Y0127697D01*
X0202395Y0127697D02*
X0202395Y0127697D01*
D200*
X0203492Y0134000D03*
X0199492Y0136000D03*
X0197292Y0139800D03*
X0194492Y0136000D03*
X0192492Y0132000D03*
X0183892Y0123000D03*
X0179492Y0125400D03*
X0189892Y0149600D03*
X0198492Y0163000D03*
X0198492Y0177000D03*
X0187692Y0186800D03*
X0203292Y0199200D03*
X0205892Y0203000D03*
X0209492Y0206000D03*
X0211492Y0187000D03*
X0213492Y0183000D03*
X0217492Y0182000D03*
X0221492Y0182000D03*
X0222492Y0187000D03*
X0228692Y0194600D03*
X0228692Y0199800D03*
X0230492Y0182000D03*
X0241492Y0182000D03*
X0238992Y0164000D03*
X0232992Y0150000D03*
X0220892Y0147600D03*
X0217492Y0137500D03*
X0203892Y0147652D03*
X0217492Y0163000D03*
X0217492Y0177000D03*
X0245492Y0141000D03*
X0230492Y0121500D03*
X0211492Y0120500D03*
X0174992Y0210000D02*
G75*
%LPD*%
D528*
X0200642Y0217303D03*
X0199067Y0217303D03*
X0197492Y0217303D03*
X0195917Y0217303D03*
X0194342Y0217303D03*
X0194342Y0227697D03*
X0195917Y0227697D03*
X0197492Y0227697D03*
X0199067Y0227697D03*
X0200642Y0227697D03*
X0214342Y0292303D03*
X0215917Y0292303D03*
X0217492Y0292303D03*
X0219067Y0292303D03*
X0220642Y0292303D03*
X0220642Y0302697D03*
X0219067Y0302697D03*
X0217492Y0302697D03*
X0215917Y0302697D03*
X0214342Y0302697D03*
D135*
X0241522Y0292707D02*
X0241522Y0227293D01*
X0242320Y0228161D02*
X0242320Y0291839D01*
X0243119Y0290972D02*
X0243119Y0229028D01*
X0243917Y0229895D02*
X0243917Y0290105D01*
X0244716Y0289237D02*
X0244716Y0230763D01*
X0244858Y0230917D02*
X0239561Y0225163D01*
X0233390Y0220360D01*
X0226512Y0216638D01*
X0219116Y0214099D01*
X0211402Y0212812D01*
X0207492Y0212650D01*
X0207492Y0212650D01*
X0204144Y0212768D01*
X0199292Y0213459D01*
X0200123Y0213459D01*
X0200323Y0213659D01*
X0200642Y0213659D01*
X0201220Y0213659D01*
X0201576Y0213754D01*
X0201895Y0213939D01*
X0202156Y0214199D01*
X0202340Y0214519D01*
X0202435Y0214875D01*
X0202435Y0217303D01*
X0201067Y0217303D01*
X0201067Y0217303D01*
X0202435Y0217303D01*
X0202435Y0219732D01*
X0202340Y0220088D01*
X0202156Y0220407D01*
X0201895Y0220668D01*
X0201576Y0220852D01*
X0201220Y0220947D01*
X0200642Y0220947D01*
X0200642Y0220629D01*
X0200642Y0220629D01*
X0200642Y0220947D01*
X0200323Y0220947D01*
X0200123Y0221147D01*
X0199373Y0221147D01*
X0198320Y0222200D01*
X0196668Y0223853D01*
X0198010Y0223853D01*
X0200123Y0223853D01*
X0200323Y0224053D01*
X0200642Y0224053D01*
X0201220Y0224053D01*
X0201576Y0224148D01*
X0201895Y0224332D01*
X0202156Y0224593D01*
X0202340Y0224912D01*
X0202435Y0225268D01*
X0202435Y0227697D01*
X0202435Y0230125D01*
X0202340Y0230481D01*
X0202156Y0230801D01*
X0201895Y0231061D01*
X0201576Y0231246D01*
X0201568Y0231248D01*
X0201643Y0231323D01*
X0201679Y0231287D01*
X0202855Y0230800D01*
X0204129Y0230800D01*
X0205305Y0231287D01*
X0206205Y0232187D01*
X0206692Y0233363D01*
X0206692Y0234637D01*
X0206205Y0235813D01*
X0205305Y0236713D01*
X0204129Y0237200D01*
X0202855Y0237200D01*
X0202517Y0237060D01*
X0202205Y0237813D01*
X0201305Y0238713D01*
X0200452Y0239066D01*
X0200492Y0239163D01*
X0200492Y0240437D01*
X0200005Y0241613D01*
X0199105Y0242513D01*
X0197929Y0243000D01*
X0196655Y0243000D01*
X0195479Y0242513D01*
X0194767Y0241800D01*
X0191864Y0241800D01*
X0188464Y0238400D01*
X0188464Y0238400D01*
X0187292Y0237228D01*
X0187292Y0231628D01*
X0187064Y0231400D01*
X0182664Y0231400D01*
X0181492Y0230228D01*
X0179864Y0228600D01*
X0178855Y0228600D01*
X0177679Y0228113D01*
X0177642Y0228075D01*
X0177642Y0248422D01*
X0178664Y0247400D01*
X0182664Y0243400D01*
X0197920Y0243400D01*
X0199092Y0244572D01*
X0200172Y0245652D01*
X0201367Y0245652D01*
X0202079Y0244939D01*
X0203255Y0244452D01*
X0204529Y0244452D01*
X0205705Y0244939D01*
X0206417Y0245652D01*
X0218315Y0245652D01*
X0219079Y0244887D01*
X0220255Y0244400D01*
X0221529Y0244400D01*
X0222705Y0244887D01*
X0223605Y0245787D01*
X0224092Y0246963D01*
X0224092Y0248237D01*
X0223605Y0249413D01*
X0222705Y0250313D01*
X0221529Y0250800D01*
X0220255Y0250800D01*
X0219079Y0250313D01*
X0218418Y0249652D01*
X0206417Y0249652D01*
X0205705Y0250364D01*
X0204529Y0250852D01*
X0203255Y0250852D01*
X0202079Y0250364D01*
X0201367Y0249652D01*
X0198515Y0249652D01*
X0197344Y0248480D01*
X0196264Y0247400D01*
X0184320Y0247400D01*
X0181492Y0250228D01*
X0181492Y0277772D01*
X0187320Y0283600D01*
X0188329Y0283600D01*
X0189505Y0284087D01*
X0190405Y0284987D01*
X0190410Y0285000D01*
X0208967Y0285000D01*
X0209679Y0284287D01*
X0210432Y0283975D01*
X0210292Y0283637D01*
X0210292Y0282363D01*
X0210779Y0281187D01*
X0211679Y0280287D01*
X0212855Y0279800D01*
X0214129Y0279800D01*
X0214862Y0280104D01*
X0215679Y0279287D01*
X0216855Y0278800D01*
X0218129Y0278800D01*
X0219305Y0279287D01*
X0219492Y0279475D01*
X0219679Y0279287D01*
X0220855Y0278800D01*
X0222129Y0278800D01*
X0223305Y0279287D01*
X0224205Y0280187D01*
X0224692Y0281363D01*
X0224692Y0282637D01*
X0224205Y0283813D01*
X0223899Y0284119D01*
X0224305Y0284287D01*
X0225205Y0285187D01*
X0225692Y0286363D01*
X0225692Y0287637D01*
X0225205Y0288813D01*
X0224305Y0289713D01*
X0223129Y0290200D01*
X0222642Y0290200D01*
X0222642Y0293132D01*
X0222635Y0293138D01*
X0222635Y0295210D01*
X0222245Y0295600D01*
X0224701Y0295600D01*
X0225492Y0294859D01*
X0225492Y0293963D01*
X0225979Y0292787D01*
X0226879Y0291887D01*
X0228055Y0291400D01*
X0229329Y0291400D01*
X0230505Y0291887D01*
X0231405Y0292787D01*
X0231892Y0293963D01*
X0231892Y0295237D01*
X0231405Y0296413D01*
X0230617Y0297200D01*
X0231405Y0297987D01*
X0231892Y0299163D01*
X0231892Y0300437D01*
X0231885Y0300455D01*
X0233390Y0299640D01*
X0239561Y0294837D01*
X0244858Y0289083D01*
X0249135Y0282536D01*
X0252276Y0275375D01*
X0254196Y0267794D01*
X0254842Y0260000D01*
X0254196Y0252206D01*
X0252276Y0244625D01*
X0249135Y0237464D01*
X0244858Y0230917D01*
X0245514Y0231922D02*
X0245514Y0288078D01*
X0246313Y0286856D02*
X0246313Y0233144D01*
X0247111Y0234366D02*
X0247111Y0285634D01*
X0247910Y0284411D02*
X0247910Y0235589D01*
X0248708Y0236811D02*
X0248708Y0283189D01*
X0249507Y0281689D02*
X0249507Y0238311D01*
X0250305Y0240132D02*
X0250305Y0279868D01*
X0251104Y0278048D02*
X0251104Y0241952D01*
X0251902Y0243773D02*
X0251902Y0276227D01*
X0252701Y0273698D02*
X0252701Y0246302D01*
X0253499Y0249455D02*
X0253499Y0270545D01*
X0254298Y0266566D02*
X0254298Y0253434D01*
X0240723Y0226426D02*
X0240723Y0293574D01*
X0239925Y0294442D02*
X0239925Y0225558D01*
X0239126Y0224825D02*
X0239126Y0295175D01*
X0238328Y0295797D02*
X0238328Y0224203D01*
X0237529Y0223582D02*
X0237529Y0296418D01*
X0236731Y0297040D02*
X0236731Y0222960D01*
X0235932Y0222339D02*
X0235932Y0297661D01*
X0235134Y0298283D02*
X0235134Y0221717D01*
X0234335Y0221096D02*
X0234335Y0298904D01*
X0233537Y0299526D02*
X0233537Y0220474D01*
X0232738Y0220007D02*
X0232738Y0299993D01*
X0231940Y0300425D02*
X0231940Y0219575D01*
X0231141Y0219143D02*
X0231141Y0292524D01*
X0230343Y0291820D02*
X0230343Y0218711D01*
X0229544Y0218279D02*
X0229544Y0291489D01*
X0228746Y0291400D02*
X0228746Y0217847D01*
X0227947Y0217415D02*
X0227947Y0291445D01*
X0227149Y0291776D02*
X0227149Y0216982D01*
X0226350Y0216582D02*
X0226350Y0292416D01*
X0225552Y0293820D02*
X0225552Y0287976D01*
X0224753Y0289264D02*
X0224753Y0295551D01*
X0223955Y0295600D02*
X0223955Y0289858D01*
X0223156Y0290189D02*
X0223156Y0295600D01*
X0222358Y0295600D02*
X0222358Y0295488D01*
X0220292Y0297600D02*
X0225492Y0297600D01*
X0228692Y0294600D01*
X0231141Y0296676D02*
X0231141Y0297724D01*
X0228692Y0299800D02*
X0221292Y0299800D01*
X0220642Y0300450D01*
X0220642Y0302697D01*
X0219067Y0302697D02*
X0219067Y0298825D01*
X0220292Y0297600D01*
X0217492Y0299600D02*
X0215692Y0297800D01*
X0204692Y0297800D01*
X0203292Y0299200D01*
X0205892Y0303000D02*
X0209492Y0299400D01*
X0215292Y0299400D01*
X0215917Y0300025D01*
X0215917Y0302697D01*
X0214342Y0302697D02*
X0214342Y0305150D01*
X0212892Y0306600D01*
X0210092Y0306600D01*
X0209492Y0306000D01*
X0217492Y0302697D02*
X0217492Y0299600D01*
X0217492Y0292303D02*
X0217492Y0282000D01*
X0219067Y0284425D02*
X0221492Y0282000D01*
X0221559Y0278800D02*
X0221559Y0250787D01*
X0220760Y0250800D02*
X0220760Y0278839D01*
X0219962Y0279170D02*
X0219962Y0250678D01*
X0219163Y0250348D02*
X0219163Y0279229D01*
X0218365Y0278898D02*
X0218365Y0249652D01*
X0217566Y0249652D02*
X0217566Y0278800D01*
X0216768Y0278836D02*
X0216768Y0249652D01*
X0215969Y0249652D02*
X0215969Y0279167D01*
X0215171Y0279796D02*
X0215171Y0249652D01*
X0214372Y0249652D02*
X0214372Y0279901D01*
X0213574Y0279800D02*
X0213574Y0249652D01*
X0212775Y0249652D02*
X0212775Y0279833D01*
X0211977Y0280164D02*
X0211977Y0249652D01*
X0211178Y0249652D02*
X0211178Y0280788D01*
X0210380Y0282151D02*
X0210380Y0249652D01*
X0209581Y0249652D02*
X0209581Y0284385D01*
X0210380Y0283997D02*
X0210380Y0283849D01*
X0208783Y0285000D02*
X0208783Y0249652D01*
X0207984Y0249652D02*
X0207984Y0285000D01*
X0207186Y0285000D02*
X0207186Y0249652D01*
X0206387Y0249682D02*
X0206387Y0285000D01*
X0205589Y0285000D02*
X0205589Y0250412D01*
X0204790Y0250743D02*
X0204790Y0285000D01*
X0203992Y0285000D02*
X0203992Y0250852D01*
X0203193Y0250826D02*
X0203193Y0285000D01*
X0202395Y0285000D02*
X0202395Y0250495D01*
X0201596Y0249881D02*
X0201596Y0285000D01*
X0200798Y0285000D02*
X0200798Y0249652D01*
X0199999Y0249652D02*
X0199999Y0285000D01*
X0199201Y0285000D02*
X0199201Y0249652D01*
X0198402Y0249539D02*
X0198402Y0285000D01*
X0197604Y0285000D02*
X0197604Y0248740D01*
X0197344Y0248480D02*
X0197344Y0248480D01*
X0196805Y0247942D02*
X0196805Y0285000D01*
X0196007Y0285000D02*
X0196007Y0247400D01*
X0195208Y0247400D02*
X0195208Y0285000D01*
X0194410Y0285000D02*
X0194410Y0247400D01*
X0193611Y0247400D02*
X0193611Y0285000D01*
X0192813Y0285000D02*
X0192813Y0247400D01*
X0192014Y0247400D02*
X0192014Y0285000D01*
X0191216Y0285000D02*
X0191216Y0247400D01*
X0190417Y0247400D02*
X0190417Y0285000D01*
X0189619Y0284201D02*
X0189619Y0247400D01*
X0188820Y0247400D02*
X0188820Y0283804D01*
X0188022Y0283600D02*
X0188022Y0247400D01*
X0187223Y0247400D02*
X0187223Y0283503D01*
X0186424Y0282704D02*
X0186424Y0247400D01*
X0185626Y0247400D02*
X0185626Y0281906D01*
X0184827Y0281107D02*
X0184827Y0247400D01*
X0184029Y0247691D02*
X0184029Y0280309D01*
X0183230Y0279510D02*
X0183230Y0248490D01*
X0182432Y0249288D02*
X0182432Y0278712D01*
X0181633Y0277913D02*
X0181633Y0250087D01*
X0179492Y0249400D02*
X0179492Y0278600D01*
X0187692Y0286800D01*
X0187892Y0287000D01*
X0211492Y0287000D01*
X0214342Y0289850D01*
X0214342Y0292303D01*
X0215917Y0292303D02*
X0215917Y0285425D01*
X0213492Y0283000D01*
X0219067Y0284425D02*
X0219067Y0292303D01*
X0220642Y0292303D02*
X0220642Y0288850D01*
X0222492Y0287000D01*
X0224753Y0284736D02*
X0224753Y0216034D01*
X0223955Y0215760D02*
X0223955Y0246632D01*
X0223156Y0245339D02*
X0223156Y0215486D01*
X0222358Y0215212D02*
X0222358Y0244743D01*
X0221559Y0244413D02*
X0221559Y0214938D01*
X0220760Y0214664D02*
X0220760Y0244400D01*
X0219962Y0244522D02*
X0219962Y0239556D01*
X0220205Y0239313D02*
X0219305Y0240213D01*
X0218129Y0240700D01*
X0216855Y0240700D01*
X0215679Y0240213D01*
X0214779Y0239313D01*
X0214292Y0238137D01*
X0214292Y0236863D01*
X0214779Y0235687D01*
X0215679Y0234787D01*
X0216855Y0234300D01*
X0218129Y0234300D01*
X0219305Y0234787D01*
X0220205Y0235687D01*
X0220692Y0236863D01*
X0220692Y0238137D01*
X0220205Y0239313D01*
X0219163Y0240271D02*
X0219163Y0244852D01*
X0218365Y0245602D02*
X0218365Y0240602D01*
X0217566Y0240700D02*
X0217566Y0245652D01*
X0216768Y0245652D02*
X0216768Y0240664D01*
X0215969Y0240333D02*
X0215969Y0245652D01*
X0215171Y0245652D02*
X0215171Y0239704D01*
X0214372Y0238331D02*
X0214372Y0245652D01*
X0213574Y0245652D02*
X0213574Y0213174D01*
X0214372Y0213307D02*
X0214372Y0236669D01*
X0215171Y0235296D02*
X0215171Y0213441D01*
X0215969Y0213574D02*
X0215969Y0234667D01*
X0216768Y0234336D02*
X0216768Y0213707D01*
X0217566Y0213840D02*
X0217566Y0234300D01*
X0218365Y0234398D02*
X0218365Y0213974D01*
X0219163Y0214115D02*
X0219163Y0234729D01*
X0219962Y0235444D02*
X0219962Y0214389D01*
X0225552Y0216308D02*
X0225552Y0286024D01*
X0223955Y0284142D02*
X0223955Y0284063D01*
X0223955Y0279937D02*
X0223955Y0248568D01*
X0223156Y0249861D02*
X0223156Y0279226D01*
X0222358Y0278895D02*
X0222358Y0250457D01*
X0220840Y0247652D02*
X0220892Y0247600D01*
X0220840Y0247652D02*
X0204292Y0247652D01*
X0203892Y0247652D01*
X0199344Y0247652D01*
X0197092Y0245400D01*
X0183492Y0245400D01*
X0179492Y0249400D01*
X0178439Y0247624D02*
X0178439Y0228428D01*
X0179238Y0228600D02*
X0179238Y0246826D01*
X0180036Y0246027D02*
X0180036Y0228773D01*
X0180835Y0229571D02*
X0180835Y0245229D01*
X0181633Y0244430D02*
X0181633Y0230370D01*
X0182432Y0231168D02*
X0182432Y0243632D01*
X0183230Y0243400D02*
X0183230Y0231400D01*
X0184029Y0231400D02*
X0184029Y0243400D01*
X0184827Y0243400D02*
X0184827Y0231400D01*
X0185626Y0231400D02*
X0185626Y0243400D01*
X0186424Y0243400D02*
X0186424Y0231400D01*
X0187223Y0231559D02*
X0187223Y0243400D01*
X0188022Y0243400D02*
X0188022Y0237958D01*
X0188820Y0238756D02*
X0188820Y0243400D01*
X0189619Y0243400D02*
X0189619Y0239555D01*
X0190417Y0240353D02*
X0190417Y0243400D01*
X0191216Y0243400D02*
X0191216Y0241152D01*
X0192014Y0241800D02*
X0192014Y0243400D01*
X0192813Y0243400D02*
X0192813Y0241800D01*
X0193611Y0241800D02*
X0193611Y0243400D01*
X0194410Y0243400D02*
X0194410Y0241800D01*
X0195208Y0242242D02*
X0195208Y0243400D01*
X0196007Y0243400D02*
X0196007Y0242731D01*
X0196805Y0243000D02*
X0196805Y0243400D01*
X0197604Y0243400D02*
X0197604Y0243000D01*
X0198402Y0242804D02*
X0198402Y0243882D01*
X0199201Y0244680D02*
X0199201Y0242417D01*
X0199999Y0241618D02*
X0199999Y0245479D01*
X0200798Y0245652D02*
X0200798Y0238923D01*
X0201596Y0238421D02*
X0201596Y0245422D01*
X0202395Y0244808D02*
X0202395Y0237354D01*
X0203193Y0237200D02*
X0203193Y0244477D01*
X0203992Y0244452D02*
X0203992Y0237200D01*
X0204790Y0236926D02*
X0204790Y0244560D01*
X0205589Y0244891D02*
X0205589Y0236429D01*
X0206387Y0235372D02*
X0206387Y0245621D01*
X0207186Y0245652D02*
X0207186Y0212661D01*
X0207984Y0212670D02*
X0207984Y0245652D01*
X0208783Y0245652D02*
X0208783Y0212703D01*
X0209581Y0212736D02*
X0209581Y0245652D01*
X0210380Y0245652D02*
X0210380Y0212769D01*
X0211178Y0212802D02*
X0211178Y0245652D01*
X0211977Y0245652D02*
X0211977Y0212908D01*
X0212775Y0213041D02*
X0212775Y0245652D01*
X0203492Y0234000D02*
X0201492Y0234000D01*
X0199067Y0231575D01*
X0199067Y0227697D01*
X0200642Y0227697D02*
X0200642Y0229650D01*
X0201992Y0231000D01*
X0203992Y0231000D01*
X0211492Y0223500D01*
X0211492Y0220500D01*
X0204992Y0214000D01*
X0201992Y0214000D01*
X0200642Y0215350D01*
X0200642Y0217303D01*
X0201596Y0217303D02*
X0201596Y0217303D01*
X0202395Y0217303D02*
X0202395Y0217303D01*
X0202395Y0219883D02*
X0202395Y0225117D01*
X0201596Y0224160D02*
X0201596Y0220840D01*
X0200798Y0220947D02*
X0200798Y0224053D01*
X0200642Y0224053D02*
X0200642Y0224371D01*
X0200642Y0224371D01*
X0200642Y0224053D01*
X0199999Y0223853D02*
X0199999Y0221147D01*
X0199201Y0221320D02*
X0199201Y0223853D01*
X0198402Y0223853D02*
X0198402Y0222118D01*
X0198320Y0222200D02*
X0198320Y0222200D01*
X0197604Y0222917D02*
X0197604Y0223853D01*
X0196805Y0223853D02*
X0196805Y0223715D01*
X0195492Y0222200D02*
X0197492Y0220200D01*
X0199067Y0218625D01*
X0199067Y0217303D01*
X0197492Y0217303D02*
X0197492Y0220200D01*
X0195917Y0218175D02*
X0194342Y0219750D01*
X0193892Y0220200D01*
X0182092Y0220200D01*
X0179492Y0222800D01*
X0179492Y0225400D01*
X0183492Y0229400D01*
X0187892Y0229400D01*
X0189292Y0230800D01*
X0189292Y0236400D01*
X0192692Y0239800D01*
X0197292Y0239800D01*
X0199492Y0236000D02*
X0197492Y0234000D01*
X0197492Y0227697D01*
X0195917Y0227697D02*
X0195917Y0234575D01*
X0194492Y0236000D01*
X0192492Y0232000D02*
X0194342Y0230150D01*
X0194342Y0227697D01*
X0195492Y0222200D02*
X0184692Y0222200D01*
X0183892Y0223000D01*
X0194342Y0219750D02*
X0194342Y0217303D01*
X0195917Y0217303D02*
X0195917Y0218175D01*
X0199999Y0213459D02*
X0199999Y0213358D01*
X0200642Y0213659D02*
X0200642Y0213977D01*
X0200642Y0213978D01*
X0200642Y0213659D01*
X0200798Y0213659D02*
X0200798Y0213245D01*
X0201596Y0213131D02*
X0201596Y0213766D01*
X0202395Y0213017D02*
X0202395Y0214723D01*
X0203193Y0212904D02*
X0203193Y0230800D01*
X0203992Y0230800D02*
X0203992Y0212790D01*
X0204790Y0212745D02*
X0204790Y0231074D01*
X0205589Y0231571D02*
X0205589Y0212717D01*
X0206387Y0212689D02*
X0206387Y0232628D01*
X0202395Y0230991D02*
X0202395Y0230277D01*
X0201596Y0231234D02*
X0201596Y0231276D01*
X0201596Y0227697D02*
X0201596Y0227697D01*
X0201067Y0227697D02*
X0202435Y0227697D01*
X0201067Y0227697D01*
X0201067Y0227697D01*
X0202395Y0227697D02*
X0202395Y0227697D01*
D200*
X0203492Y0234000D03*
X0199492Y0236000D03*
X0197292Y0239800D03*
X0194492Y0236000D03*
X0192492Y0232000D03*
X0183892Y0223000D03*
X0179492Y0225400D03*
X0189892Y0249600D03*
X0198492Y0263000D03*
X0198492Y0277000D03*
X0187692Y0286800D03*
X0203292Y0299200D03*
X0205892Y0303000D03*
X0209492Y0306000D03*
X0211492Y0287000D03*
X0213492Y0283000D03*
X0217492Y0282000D03*
X0221492Y0282000D03*
X0222492Y0287000D03*
X0228692Y0294600D03*
X0228692Y0299800D03*
X0230492Y0282000D03*
X0241492Y0282000D03*
X0238992Y0264000D03*
X0232992Y0250000D03*
X0220892Y0247600D03*
X0217492Y0237500D03*
X0203892Y0247652D03*
X0217492Y0263000D03*
X0217492Y0277000D03*
X0245492Y0241000D03*
X0230492Y0221500D03*
X0211492Y0220500D03*
M02*
