G75*
G70*
%OFA0B0*%
%FSLAX25Y25*%
%IPPOS*%
%LPD*%
%AMOC8*
5,1,8,0,0,1.08239X$1,22.5*
%
%ADD88C,0.03800*%
%ADD97R,0.05088X0.01387*%
X0010000Y0010000D02*
G75*
%LPD*%
D97*
X0017299Y0066851D03*
X0017299Y0068425D03*
X0017299Y0070000D03*
X0017299Y0071575D03*
X0017299Y0073150D03*
X0027693Y0073150D03*
X0027693Y0071575D03*
X0027693Y0070000D03*
X0027693Y0068425D03*
X0027693Y0066851D03*
X0092299Y0053150D03*
X0092299Y0051575D03*
X0092299Y0050000D03*
X0092299Y0048425D03*
X0092299Y0046851D03*
X0102693Y0046851D03*
X0102693Y0048425D03*
X0102693Y0050000D03*
X0102693Y0051575D03*
X0102693Y0053150D03*
D88*
X0040996Y0022000D03*
X0049996Y0034500D03*
X0047596Y0046600D03*
X0037496Y0050000D03*
X0033996Y0064000D03*
X0035996Y0068000D03*
X0039796Y0070200D03*
X0035996Y0073000D03*
X0031996Y0075000D03*
X0022996Y0083600D03*
X0025396Y0088000D03*
X0049596Y0077600D03*
X0062996Y0069000D03*
X0076996Y0069000D03*
X0086796Y0079800D03*
X0099196Y0064200D03*
X0102996Y0061600D03*
X0105996Y0058000D03*
X0086996Y0056000D03*
X0082996Y0054000D03*
X0081996Y0050000D03*
X0076996Y0050000D03*
X0081996Y0046000D03*
X0086996Y0045000D03*
X0094596Y0038800D03*
X0099796Y0038800D03*
X0081996Y0037000D03*
X0081996Y0026000D03*
X0063996Y0028500D03*
X0062996Y0050000D03*
X0047648Y0063600D03*
X0020496Y0056000D03*
X0021496Y0037000D03*
X0222500Y0010000D02*
G75*
%LPD*%
D97*
X0234003Y0066851D03*
X0234003Y0068425D03*
X0234003Y0070000D03*
X0234003Y0071575D03*
X0234003Y0073150D03*
X0244397Y0073150D03*
X0244397Y0071575D03*
X0244397Y0070000D03*
X0244397Y0068425D03*
X0244397Y0066851D03*
X0309003Y0053150D03*
X0309003Y0051575D03*
X0309003Y0050000D03*
X0309003Y0048425D03*
X0309003Y0046851D03*
X0319397Y0046851D03*
X0319397Y0048425D03*
X0319397Y0050000D03*
X0319397Y0051575D03*
X0319397Y0053150D03*
D88*
X0238200Y0037000D03*
X0254200Y0050000D03*
X0264300Y0046600D03*
X0266700Y0034500D03*
X0280700Y0028500D03*
X0298700Y0026000D03*
X0298700Y0037000D03*
X0303700Y0045000D03*
X0298700Y0046000D03*
X0298700Y0050000D03*
X0299700Y0054000D03*
X0303700Y0056000D03*
X0293700Y0050000D03*
X0279700Y0050000D03*
X0264352Y0063600D03*
X0256500Y0070200D03*
X0252700Y0068000D03*
X0250700Y0064000D03*
X0252700Y0073000D03*
X0248700Y0075000D03*
X0239700Y0083600D03*
X0242100Y0088000D03*
X0266300Y0077600D03*
X0279700Y0069000D03*
X0293700Y0069000D03*
X0303500Y0079800D03*
X0315900Y0064200D03*
X0319700Y0061600D03*
X0322700Y0058000D03*
X0316500Y0038800D03*
X0311300Y0038800D03*
X0257700Y0022000D03*
X0237200Y0056000D03*
X0114500Y0010000D02*
G75*
%LPD*%
D97*
X0126003Y0066851D03*
X0126003Y0068425D03*
X0126003Y0070000D03*
X0126003Y0071575D03*
X0126003Y0073150D03*
X0136397Y0073150D03*
X0136397Y0071575D03*
X0136397Y0070000D03*
X0136397Y0068425D03*
X0136397Y0066851D03*
X0201003Y0053150D03*
X0201003Y0051575D03*
X0201003Y0050000D03*
X0201003Y0048425D03*
X0201003Y0046851D03*
X0211397Y0046851D03*
X0211397Y0048425D03*
X0211397Y0050000D03*
X0211397Y0051575D03*
X0211397Y0053150D03*
D88*
X0130200Y0037000D03*
X0146200Y0050000D03*
X0156300Y0046600D03*
X0158700Y0034500D03*
X0172700Y0028500D03*
X0190700Y0026000D03*
X0190700Y0037000D03*
X0195700Y0045000D03*
X0190700Y0046000D03*
X0190700Y0050000D03*
X0191700Y0054000D03*
X0195700Y0056000D03*
X0185700Y0050000D03*
X0171700Y0050000D03*
X0156352Y0063600D03*
X0148500Y0070200D03*
X0144700Y0068000D03*
X0142700Y0064000D03*
X0144700Y0073000D03*
X0140700Y0075000D03*
X0131700Y0083600D03*
X0134100Y0088000D03*
X0158300Y0077600D03*
X0171700Y0069000D03*
X0185700Y0069000D03*
X0195500Y0079800D03*
X0207900Y0064200D03*
X0211700Y0061600D03*
X0214700Y0058000D03*
X0208500Y0038800D03*
X0203300Y0038800D03*
X0149700Y0022000D03*
X0129200Y0056000D03*
X0222700Y0097000D02*
G75*
%LPD*%
D97*
X0319598Y0127549D03*
X0319598Y0125975D03*
X0319598Y0124400D03*
X0319598Y0122825D03*
X0319598Y0121250D03*
X0309204Y0121250D03*
X0309204Y0122825D03*
X0309204Y0124400D03*
X0309204Y0125975D03*
X0309204Y0127549D03*
X0244598Y0141250D03*
X0244598Y0142825D03*
X0244598Y0144400D03*
X0244598Y0145975D03*
X0244598Y0147549D03*
X0234204Y0147549D03*
X0234204Y0145975D03*
X0234204Y0144400D03*
X0234204Y0142825D03*
X0234204Y0141250D03*
D88*
X0295901Y0172400D03*
X0286901Y0159900D03*
X0289301Y0147800D03*
X0299401Y0144400D03*
X0302901Y0130400D03*
X0300901Y0126400D03*
X0297101Y0124200D03*
X0300901Y0121400D03*
X0304901Y0119400D03*
X0313901Y0110800D03*
X0311501Y0106400D03*
X0287301Y0116800D03*
X0273901Y0125400D03*
X0259901Y0125400D03*
X0250101Y0114600D03*
X0237701Y0130200D03*
X0233901Y0132800D03*
X0230901Y0136400D03*
X0249901Y0138400D03*
X0253901Y0140400D03*
X0254901Y0144400D03*
X0259901Y0144400D03*
X0254901Y0148400D03*
X0249901Y0149400D03*
X0242301Y0155600D03*
X0237101Y0155600D03*
X0254901Y0157400D03*
X0254901Y0168400D03*
X0272901Y0165900D03*
X0273901Y0144400D03*
X0289249Y0130800D03*
X0316401Y0138400D03*
X0315401Y0157400D03*
X0010200Y0097000D02*
G75*
%LPD*%
D97*
X0102893Y0127549D03*
X0102893Y0125975D03*
X0102893Y0124400D03*
X0102893Y0122825D03*
X0102893Y0121250D03*
X0092499Y0121250D03*
X0092499Y0122825D03*
X0092499Y0124400D03*
X0092499Y0125975D03*
X0092499Y0127549D03*
X0027893Y0141250D03*
X0027893Y0142825D03*
X0027893Y0144400D03*
X0027893Y0145975D03*
X0027893Y0147549D03*
X0017499Y0147549D03*
X0017499Y0145975D03*
X0017499Y0144400D03*
X0017499Y0142825D03*
X0017499Y0141250D03*
D88*
X0098696Y0157400D03*
X0082696Y0144400D03*
X0072596Y0147800D03*
X0070196Y0159900D03*
X0056196Y0165900D03*
X0038196Y0168400D03*
X0038196Y0157400D03*
X0033196Y0149400D03*
X0038196Y0148400D03*
X0038196Y0144400D03*
X0037196Y0140400D03*
X0033196Y0138400D03*
X0043196Y0144400D03*
X0057196Y0144400D03*
X0072544Y0130800D03*
X0080396Y0124200D03*
X0084196Y0126400D03*
X0086196Y0130400D03*
X0084196Y0121400D03*
X0088196Y0119400D03*
X0097196Y0110800D03*
X0094796Y0106400D03*
X0070596Y0116800D03*
X0057196Y0125400D03*
X0043196Y0125400D03*
X0033396Y0114600D03*
X0020996Y0130200D03*
X0017196Y0132800D03*
X0014196Y0136400D03*
X0020396Y0155600D03*
X0025596Y0155600D03*
X0079196Y0172400D03*
X0099696Y0138400D03*
X0114700Y0097000D02*
G75*
%LPD*%
D97*
X0211597Y0127549D03*
X0211597Y0125975D03*
X0211597Y0124400D03*
X0211597Y0122825D03*
X0211597Y0121250D03*
X0201203Y0121250D03*
X0201203Y0122825D03*
X0201203Y0124400D03*
X0201203Y0125975D03*
X0201203Y0127549D03*
X0136597Y0141250D03*
X0136597Y0142825D03*
X0136597Y0144400D03*
X0136597Y0145975D03*
X0136597Y0147549D03*
X0126203Y0147549D03*
X0126203Y0145975D03*
X0126203Y0144400D03*
X0126203Y0142825D03*
X0126203Y0141250D03*
D88*
X0207400Y0157400D03*
X0191400Y0144400D03*
X0181300Y0147800D03*
X0178900Y0159900D03*
X0164900Y0165900D03*
X0146900Y0168400D03*
X0146900Y0157400D03*
X0141900Y0149400D03*
X0146900Y0148400D03*
X0146900Y0144400D03*
X0145900Y0140400D03*
X0141900Y0138400D03*
X0151900Y0144400D03*
X0165900Y0144400D03*
X0181248Y0130800D03*
X0189100Y0124200D03*
X0192900Y0126400D03*
X0194900Y0130400D03*
X0192900Y0121400D03*
X0196900Y0119400D03*
X0205900Y0110800D03*
X0203500Y0106400D03*
X0179300Y0116800D03*
X0165900Y0125400D03*
X0151900Y0125400D03*
X0142100Y0114600D03*
X0129700Y0130200D03*
X0125900Y0132800D03*
X0122900Y0136400D03*
X0129100Y0155600D03*
X0134300Y0155600D03*
X0187900Y0172400D03*
X0208400Y0138400D03*
M02*
