G75*
G70*
%OFA0B0*%
%FSLAX25Y25*%
%IPPOS*%
%LPD*%
%AMOC8*
5,1,8,0,0,1.08239X$1,22.5*
%
%ADD520R,0.01387X0.05088*%
%ADD88C,0.03800*%
X0010000Y0010000D02*
G75*
%LPD*%
D520*
X0035650Y0017303D03*
X0034075Y0017303D03*
X0032500Y0017303D03*
X0030925Y0017303D03*
X0029350Y0017303D03*
X0029350Y0027697D03*
X0030925Y0027697D03*
X0032500Y0027697D03*
X0034075Y0027697D03*
X0035650Y0027697D03*
X0049350Y0092303D03*
X0050925Y0092303D03*
X0052500Y0092303D03*
X0054075Y0092303D03*
X0055650Y0092303D03*
X0055650Y0102697D03*
X0054075Y0102697D03*
X0052500Y0102697D03*
X0050925Y0102697D03*
X0049350Y0102697D03*
D88*
X0080500Y0041000D03*
X0068000Y0050000D03*
X0074000Y0064000D03*
X0076500Y0082000D03*
X0065500Y0082000D03*
X0057500Y0087000D03*
X0056500Y0082000D03*
X0052500Y0082000D03*
X0048500Y0083000D03*
X0046500Y0087000D03*
X0052500Y0077000D03*
X0052500Y0063000D03*
X0055900Y0047600D03*
X0052500Y0037500D03*
X0038900Y0047652D03*
X0032300Y0039800D03*
X0034500Y0036000D03*
X0038500Y0034000D03*
X0029500Y0036000D03*
X0027500Y0032000D03*
X0018900Y0023000D03*
X0014500Y0025400D03*
X0024900Y0049600D03*
X0033500Y0063000D03*
X0033500Y0077000D03*
X0022700Y0086800D03*
X0038300Y0099200D03*
X0040900Y0103000D03*
X0044500Y0106000D03*
X0063700Y0099800D03*
X0063700Y0094600D03*
X0065500Y0021500D03*
X0046500Y0020500D03*
X0092496Y0010000D02*
G75*
%LPD*%
D520*
X0118146Y0017303D03*
X0116571Y0017303D03*
X0114996Y0017303D03*
X0113421Y0017303D03*
X0111846Y0017303D03*
X0111846Y0027697D03*
X0113421Y0027697D03*
X0114996Y0027697D03*
X0116571Y0027697D03*
X0118146Y0027697D03*
X0131846Y0092303D03*
X0133421Y0092303D03*
X0134996Y0092303D03*
X0136571Y0092303D03*
X0138146Y0092303D03*
X0138146Y0102697D03*
X0136571Y0102697D03*
X0134996Y0102697D03*
X0133421Y0102697D03*
X0131846Y0102697D03*
D88*
X0162996Y0041000D03*
X0150496Y0050000D03*
X0156496Y0064000D03*
X0158996Y0082000D03*
X0147996Y0082000D03*
X0139996Y0087000D03*
X0138996Y0082000D03*
X0134996Y0082000D03*
X0130996Y0083000D03*
X0128996Y0087000D03*
X0134996Y0077000D03*
X0134996Y0063000D03*
X0138396Y0047600D03*
X0134996Y0037500D03*
X0121396Y0047652D03*
X0114796Y0039800D03*
X0116996Y0036000D03*
X0120996Y0034000D03*
X0111996Y0036000D03*
X0109996Y0032000D03*
X0101396Y0023000D03*
X0096996Y0025400D03*
X0107396Y0049600D03*
X0115996Y0063000D03*
X0115996Y0077000D03*
X0105196Y0086800D03*
X0120796Y0099200D03*
X0123396Y0103000D03*
X0126996Y0106000D03*
X0146196Y0099800D03*
X0146196Y0094600D03*
X0147996Y0021500D03*
X0128996Y0020500D03*
X0010000Y0110000D02*
G75*
%LPD*%
D520*
X0035650Y0117303D03*
X0034075Y0117303D03*
X0032500Y0117303D03*
X0030925Y0117303D03*
X0029350Y0117303D03*
X0029350Y0127697D03*
X0030925Y0127697D03*
X0032500Y0127697D03*
X0034075Y0127697D03*
X0035650Y0127697D03*
X0049350Y0192303D03*
X0050925Y0192303D03*
X0052500Y0192303D03*
X0054075Y0192303D03*
X0055650Y0192303D03*
X0055650Y0202697D03*
X0054075Y0202697D03*
X0052500Y0202697D03*
X0050925Y0202697D03*
X0049350Y0202697D03*
D88*
X0080500Y0141000D03*
X0068000Y0150000D03*
X0074000Y0164000D03*
X0076500Y0182000D03*
X0065500Y0182000D03*
X0057500Y0187000D03*
X0056500Y0182000D03*
X0052500Y0182000D03*
X0048500Y0183000D03*
X0046500Y0187000D03*
X0052500Y0177000D03*
X0052500Y0163000D03*
X0055900Y0147600D03*
X0052500Y0137500D03*
X0038900Y0147652D03*
X0032300Y0139800D03*
X0034500Y0136000D03*
X0038500Y0134000D03*
X0029500Y0136000D03*
X0027500Y0132000D03*
X0018900Y0123000D03*
X0014500Y0125400D03*
X0024900Y0149600D03*
X0033500Y0163000D03*
X0033500Y0177000D03*
X0022700Y0186800D03*
X0038300Y0199200D03*
X0040900Y0203000D03*
X0044500Y0206000D03*
X0063700Y0199800D03*
X0063700Y0194600D03*
X0065500Y0121500D03*
X0046500Y0120500D03*
X0010000Y0210000D02*
G75*
%LPD*%
D520*
X0035650Y0217303D03*
X0034075Y0217303D03*
X0032500Y0217303D03*
X0030925Y0217303D03*
X0029350Y0217303D03*
X0029350Y0227697D03*
X0030925Y0227697D03*
X0032500Y0227697D03*
X0034075Y0227697D03*
X0035650Y0227697D03*
X0049350Y0292303D03*
X0050925Y0292303D03*
X0052500Y0292303D03*
X0054075Y0292303D03*
X0055650Y0292303D03*
X0055650Y0302697D03*
X0054075Y0302697D03*
X0052500Y0302697D03*
X0050925Y0302697D03*
X0049350Y0302697D03*
D88*
X0080500Y0241000D03*
X0068000Y0250000D03*
X0074000Y0264000D03*
X0076500Y0282000D03*
X0065500Y0282000D03*
X0057500Y0287000D03*
X0056500Y0282000D03*
X0052500Y0282000D03*
X0048500Y0283000D03*
X0046500Y0287000D03*
X0052500Y0277000D03*
X0052500Y0263000D03*
X0055900Y0247600D03*
X0052500Y0237500D03*
X0038900Y0247652D03*
X0032300Y0239800D03*
X0034500Y0236000D03*
X0038500Y0234000D03*
X0029500Y0236000D03*
X0027500Y0232000D03*
X0018900Y0223000D03*
X0014500Y0225400D03*
X0024900Y0249600D03*
X0033500Y0263000D03*
X0033500Y0277000D03*
X0022700Y0286800D03*
X0038300Y0299200D03*
X0040900Y0303000D03*
X0044500Y0306000D03*
X0063700Y0299800D03*
X0063700Y0294600D03*
X0065500Y0221500D03*
X0046500Y0220500D03*
X0092496Y0110000D02*
G75*
%LPD*%
D520*
X0118146Y0117303D03*
X0116571Y0117303D03*
X0114996Y0117303D03*
X0113421Y0117303D03*
X0111846Y0117303D03*
X0111846Y0127697D03*
X0113421Y0127697D03*
X0114996Y0127697D03*
X0116571Y0127697D03*
X0118146Y0127697D03*
X0131846Y0192303D03*
X0133421Y0192303D03*
X0134996Y0192303D03*
X0136571Y0192303D03*
X0138146Y0192303D03*
X0138146Y0202697D03*
X0136571Y0202697D03*
X0134996Y0202697D03*
X0133421Y0202697D03*
X0131846Y0202697D03*
D88*
X0162996Y0141000D03*
X0150496Y0150000D03*
X0156496Y0164000D03*
X0158996Y0182000D03*
X0147996Y0182000D03*
X0139996Y0187000D03*
X0138996Y0182000D03*
X0134996Y0182000D03*
X0130996Y0183000D03*
X0128996Y0187000D03*
X0134996Y0177000D03*
X0134996Y0163000D03*
X0138396Y0147600D03*
X0134996Y0137500D03*
X0121396Y0147652D03*
X0114796Y0139800D03*
X0116996Y0136000D03*
X0120996Y0134000D03*
X0111996Y0136000D03*
X0109996Y0132000D03*
X0101396Y0123000D03*
X0096996Y0125400D03*
X0107396Y0149600D03*
X0115996Y0163000D03*
X0115996Y0177000D03*
X0105196Y0186800D03*
X0120796Y0199200D03*
X0123396Y0203000D03*
X0126996Y0206000D03*
X0146196Y0199800D03*
X0146196Y0194600D03*
X0147996Y0121500D03*
X0128996Y0120500D03*
X0092496Y0210000D02*
G75*
%LPD*%
D520*
X0118146Y0217303D03*
X0116571Y0217303D03*
X0114996Y0217303D03*
X0113421Y0217303D03*
X0111846Y0217303D03*
X0111846Y0227697D03*
X0113421Y0227697D03*
X0114996Y0227697D03*
X0116571Y0227697D03*
X0118146Y0227697D03*
X0131846Y0292303D03*
X0133421Y0292303D03*
X0134996Y0292303D03*
X0136571Y0292303D03*
X0138146Y0292303D03*
X0138146Y0302697D03*
X0136571Y0302697D03*
X0134996Y0302697D03*
X0133421Y0302697D03*
X0131846Y0302697D03*
D88*
X0162996Y0241000D03*
X0150496Y0250000D03*
X0156496Y0264000D03*
X0158996Y0282000D03*
X0147996Y0282000D03*
X0139996Y0287000D03*
X0138996Y0282000D03*
X0134996Y0282000D03*
X0130996Y0283000D03*
X0128996Y0287000D03*
X0134996Y0277000D03*
X0134996Y0263000D03*
X0138396Y0247600D03*
X0134996Y0237500D03*
X0121396Y0247652D03*
X0114796Y0239800D03*
X0116996Y0236000D03*
X0120996Y0234000D03*
X0111996Y0236000D03*
X0109996Y0232000D03*
X0101396Y0223000D03*
X0096996Y0225400D03*
X0107396Y0249600D03*
X0115996Y0263000D03*
X0115996Y0277000D03*
X0105196Y0286800D03*
X0120796Y0299200D03*
X0123396Y0303000D03*
X0126996Y0306000D03*
X0146196Y0299800D03*
X0146196Y0294600D03*
X0147996Y0221500D03*
X0128996Y0220500D03*
X0174992Y0010000D02*
G75*
%LPD*%
D520*
X0200642Y0017303D03*
X0199067Y0017303D03*
X0197492Y0017303D03*
X0195917Y0017303D03*
X0194342Y0017303D03*
X0194342Y0027697D03*
X0195917Y0027697D03*
X0197492Y0027697D03*
X0199067Y0027697D03*
X0200642Y0027697D03*
X0214342Y0092303D03*
X0215917Y0092303D03*
X0217492Y0092303D03*
X0219067Y0092303D03*
X0220642Y0092303D03*
X0220642Y0102697D03*
X0219067Y0102697D03*
X0217492Y0102697D03*
X0215917Y0102697D03*
X0214342Y0102697D03*
D88*
X0245492Y0041000D03*
X0232992Y0050000D03*
X0238992Y0064000D03*
X0241492Y0082000D03*
X0230492Y0082000D03*
X0222492Y0087000D03*
X0221492Y0082000D03*
X0217492Y0082000D03*
X0213492Y0083000D03*
X0211492Y0087000D03*
X0217492Y0077000D03*
X0217492Y0063000D03*
X0220892Y0047600D03*
X0217492Y0037500D03*
X0203892Y0047652D03*
X0197292Y0039800D03*
X0199492Y0036000D03*
X0203492Y0034000D03*
X0194492Y0036000D03*
X0192492Y0032000D03*
X0183892Y0023000D03*
X0179492Y0025400D03*
X0189892Y0049600D03*
X0198492Y0063000D03*
X0198492Y0077000D03*
X0187692Y0086800D03*
X0203292Y0099200D03*
X0205892Y0103000D03*
X0209492Y0106000D03*
X0228692Y0099800D03*
X0228692Y0094600D03*
X0230492Y0021500D03*
X0211492Y0020500D03*
X0174992Y0110000D02*
G75*
%LPD*%
D520*
X0200642Y0117303D03*
X0199067Y0117303D03*
X0197492Y0117303D03*
X0195917Y0117303D03*
X0194342Y0117303D03*
X0194342Y0127697D03*
X0195917Y0127697D03*
X0197492Y0127697D03*
X0199067Y0127697D03*
X0200642Y0127697D03*
X0214342Y0192303D03*
X0215917Y0192303D03*
X0217492Y0192303D03*
X0219067Y0192303D03*
X0220642Y0192303D03*
X0220642Y0202697D03*
X0219067Y0202697D03*
X0217492Y0202697D03*
X0215917Y0202697D03*
X0214342Y0202697D03*
D88*
X0245492Y0141000D03*
X0232992Y0150000D03*
X0238992Y0164000D03*
X0241492Y0182000D03*
X0230492Y0182000D03*
X0222492Y0187000D03*
X0221492Y0182000D03*
X0217492Y0182000D03*
X0213492Y0183000D03*
X0211492Y0187000D03*
X0217492Y0177000D03*
X0217492Y0163000D03*
X0220892Y0147600D03*
X0217492Y0137500D03*
X0203892Y0147652D03*
X0197292Y0139800D03*
X0199492Y0136000D03*
X0203492Y0134000D03*
X0194492Y0136000D03*
X0192492Y0132000D03*
X0183892Y0123000D03*
X0179492Y0125400D03*
X0189892Y0149600D03*
X0198492Y0163000D03*
X0198492Y0177000D03*
X0187692Y0186800D03*
X0203292Y0199200D03*
X0205892Y0203000D03*
X0209492Y0206000D03*
X0228692Y0199800D03*
X0228692Y0194600D03*
X0230492Y0121500D03*
X0211492Y0120500D03*
X0174992Y0210000D02*
G75*
%LPD*%
D520*
X0200642Y0217303D03*
X0199067Y0217303D03*
X0197492Y0217303D03*
X0195917Y0217303D03*
X0194342Y0217303D03*
X0194342Y0227697D03*
X0195917Y0227697D03*
X0197492Y0227697D03*
X0199067Y0227697D03*
X0200642Y0227697D03*
X0214342Y0292303D03*
X0215917Y0292303D03*
X0217492Y0292303D03*
X0219067Y0292303D03*
X0220642Y0292303D03*
X0220642Y0302697D03*
X0219067Y0302697D03*
X0217492Y0302697D03*
X0215917Y0302697D03*
X0214342Y0302697D03*
D88*
X0245492Y0241000D03*
X0232992Y0250000D03*
X0238992Y0264000D03*
X0241492Y0282000D03*
X0230492Y0282000D03*
X0222492Y0287000D03*
X0221492Y0282000D03*
X0217492Y0282000D03*
X0213492Y0283000D03*
X0211492Y0287000D03*
X0217492Y0277000D03*
X0217492Y0263000D03*
X0220892Y0247600D03*
X0217492Y0237500D03*
X0203892Y0247652D03*
X0197292Y0239800D03*
X0199492Y0236000D03*
X0203492Y0234000D03*
X0194492Y0236000D03*
X0192492Y0232000D03*
X0183892Y0223000D03*
X0179492Y0225400D03*
X0189892Y0249600D03*
X0198492Y0263000D03*
X0198492Y0277000D03*
X0187692Y0286800D03*
X0203292Y0299200D03*
X0205892Y0303000D03*
X0209492Y0306000D03*
X0228692Y0299800D03*
X0228692Y0294600D03*
X0230492Y0221500D03*
X0211492Y0220500D03*
M02*
