G75*
G70*
%OFA0B0*%
%FSLAX25Y25*%
%IPPOS*%
%LPD*%
%AMOC8*
5,1,8,0,0,1.08239X$1,22.5*
%
%ADD119R,0.05118X0.01575*%
%ADD135C,0.00800*%
%ADD137R,0.02598X0.00906*%
%ADD148R,0.01969X0.01378*%
%ADD200C,0.03200*%
%ADD201R,0.02150X0.02110*%
%ADD207R,0.02362X0.01575*%
%ADD213R,0.02598X0.01181*%
%ADD54R,0.03937X0.02756*%
%ADD59R,0.01378X0.01969*%
%ADD68R,0.05906X0.09449*%
X0010000Y0010000D02*
G75*
%LPD*%
D137*
X0017161Y0066850D03*
X0017161Y0068425D03*
X0017161Y0070000D03*
X0017161Y0071575D03*
X0017161Y0073150D03*
X0027831Y0073150D03*
X0027831Y0071575D03*
X0027831Y0070000D03*
X0027831Y0068425D03*
X0027831Y0066850D03*
X0092161Y0053150D03*
X0092161Y0051575D03*
X0092161Y0050000D03*
X0092161Y0048425D03*
X0092161Y0046850D03*
X0102831Y0046850D03*
X0102831Y0048425D03*
X0102831Y0050000D03*
X0102831Y0051575D03*
X0102831Y0053150D03*
D213*
X0102831Y0054921D03*
X0092161Y0054921D03*
X0092161Y0045079D03*
X0102831Y0045079D03*
X0027831Y0065079D03*
X0017161Y0065079D03*
X0017161Y0074921D03*
X0027831Y0074921D03*
D207*
X0033081Y0042937D03*
X0033081Y0039000D03*
X0033081Y0035063D03*
X0043711Y0035063D03*
X0043711Y0039000D03*
X0043711Y0042937D03*
D68*
X0038396Y0039000D03*
D119*
X0072366Y0076821D03*
X0072366Y0079380D03*
X0072366Y0081939D03*
X0078666Y0081939D03*
X0078666Y0079380D03*
X0078666Y0076821D03*
D148*
X0053947Y0077680D03*
X0053947Y0075711D03*
X0053947Y0073743D03*
X0053947Y0079648D03*
X0053947Y0081617D03*
X0045285Y0081617D03*
X0045285Y0079648D03*
X0045285Y0077680D03*
X0045285Y0075711D03*
X0045285Y0073743D03*
D59*
X0047648Y0073349D03*
X0049616Y0073349D03*
X0051585Y0073349D03*
X0051585Y0082011D03*
X0049616Y0082011D03*
X0047648Y0082011D03*
D54*
X0037516Y0081261D03*
X0037516Y0086379D03*
D201*
X0032196Y0086225D03*
X0032196Y0082815D03*
X0066196Y0083045D03*
X0066196Y0079635D03*
X0091176Y0075825D03*
X0091176Y0072415D03*
X0095596Y0072475D03*
X0095596Y0075885D03*
X0028196Y0038905D03*
X0028196Y0035495D03*
D135*
X0026422Y0026769D02*
X0093570Y0026769D01*
X0092703Y0025970D02*
X0027289Y0025970D01*
X0028157Y0025172D02*
X0091835Y0025172D01*
X0090968Y0024373D02*
X0029024Y0024373D01*
X0029891Y0023575D02*
X0090101Y0023575D01*
X0089233Y0022776D02*
X0030759Y0022776D01*
X0030913Y0022634D02*
X0025159Y0027931D01*
X0020356Y0034102D01*
X0016634Y0040980D01*
X0014095Y0048376D01*
X0012808Y0056090D01*
X0012646Y0060000D01*
X0012646Y0060000D01*
X0012764Y0063348D01*
X0013708Y0069976D01*
X0014262Y0071882D01*
X0014262Y0067310D01*
X0014462Y0067110D01*
X0014462Y0066850D01*
X0014462Y0066532D01*
X0014262Y0066332D01*
X0014262Y0063825D01*
X0015199Y0062888D01*
X0019123Y0062888D01*
X0020061Y0063825D01*
X0020061Y0066332D01*
X0019861Y0066532D01*
X0019861Y0066836D01*
X0022196Y0069172D01*
X0023024Y0070000D01*
X0024196Y0071172D01*
X0024196Y0080633D01*
X0024809Y0080887D01*
X0025709Y0081787D01*
X0026196Y0082963D01*
X0026196Y0084237D01*
X0025963Y0084800D01*
X0026033Y0084800D01*
X0027209Y0085287D01*
X0027921Y0086000D01*
X0029368Y0086000D01*
X0029521Y0085847D01*
X0029521Y0084507D01*
X0029774Y0084254D01*
X0029721Y0084054D01*
X0029721Y0082943D01*
X0032068Y0082943D01*
X0032068Y0082688D01*
X0029721Y0082688D01*
X0029721Y0081576D01*
X0029816Y0081220D01*
X0030001Y0080900D01*
X0030261Y0080640D01*
X0030581Y0080455D01*
X0030937Y0080360D01*
X0032068Y0080360D01*
X0032068Y0082687D01*
X0032323Y0082687D01*
X0032323Y0080360D01*
X0033455Y0080360D01*
X0033811Y0080455D01*
X0034131Y0080640D01*
X0034148Y0080657D01*
X0034148Y0079699D01*
X0034243Y0079343D01*
X0034427Y0079023D01*
X0034688Y0078763D01*
X0035007Y0078578D01*
X0035363Y0078483D01*
X0037227Y0078483D01*
X0037227Y0080972D01*
X0037805Y0080972D01*
X0037805Y0081550D01*
X0040884Y0081550D01*
X0040884Y0082823D01*
X0040789Y0083179D01*
X0040605Y0083498D01*
X0040425Y0083679D01*
X0041084Y0084338D01*
X0041084Y0084379D01*
X0042396Y0084379D01*
X0042396Y0081678D01*
X0042701Y0081373D01*
X0042701Y0077533D01*
X0040796Y0075628D01*
X0040796Y0073249D01*
X0040433Y0073400D01*
X0039196Y0073400D01*
X0039196Y0073637D01*
X0038709Y0074813D01*
X0037809Y0075713D01*
X0036633Y0076200D01*
X0035359Y0076200D01*
X0035021Y0076060D01*
X0034709Y0076813D01*
X0033809Y0077713D01*
X0032633Y0078200D01*
X0031359Y0078200D01*
X0030183Y0077713D01*
X0029582Y0077112D01*
X0025869Y0077112D01*
X0024931Y0076175D01*
X0024931Y0067310D01*
X0025131Y0067110D01*
X0025131Y0066850D01*
X0025131Y0066532D01*
X0024931Y0066332D01*
X0024931Y0063825D01*
X0025869Y0062888D01*
X0029793Y0062888D01*
X0030730Y0063825D01*
X0030730Y0066332D01*
X0030637Y0066425D01*
X0030742Y0066425D01*
X0031319Y0065849D01*
X0031283Y0065813D01*
X0030796Y0064637D01*
X0030796Y0063363D01*
X0031283Y0062187D01*
X0032183Y0061287D01*
X0032800Y0061032D01*
X0027368Y0055600D01*
X0026196Y0054428D01*
X0026196Y0041298D01*
X0025521Y0040623D01*
X0025521Y0037187D01*
X0025774Y0036934D01*
X0025721Y0036734D01*
X0025721Y0035623D01*
X0028068Y0035623D01*
X0028068Y0035367D01*
X0028323Y0035367D01*
X0028323Y0033040D01*
X0029455Y0033040D01*
X0029811Y0033135D01*
X0030131Y0033320D01*
X0030362Y0033551D01*
X0031237Y0032676D01*
X0034925Y0032676D01*
X0035153Y0032904D01*
X0035259Y0032876D01*
X0037996Y0032876D01*
X0037996Y0038600D01*
X0038796Y0038600D01*
X0038796Y0039400D01*
X0041130Y0039400D01*
X0041130Y0039000D01*
X0043711Y0039000D01*
X0046292Y0039000D01*
X0046292Y0039972D01*
X0046197Y0040328D01*
X0046012Y0040647D01*
X0045832Y0040827D01*
X0046492Y0041487D01*
X0046492Y0042668D01*
X0047224Y0043400D01*
X0048233Y0043400D01*
X0049409Y0043887D01*
X0050309Y0044787D01*
X0050796Y0045963D01*
X0050796Y0047237D01*
X0050309Y0048413D01*
X0049409Y0049313D01*
X0048233Y0049800D01*
X0046959Y0049800D01*
X0045783Y0049313D01*
X0044883Y0048413D01*
X0044396Y0047237D01*
X0044396Y0046228D01*
X0043492Y0045324D01*
X0041867Y0045324D01*
X0041639Y0045096D01*
X0041533Y0045124D01*
X0038796Y0045124D01*
X0038796Y0039400D01*
X0037996Y0039400D01*
X0037996Y0045124D01*
X0035259Y0045124D01*
X0035153Y0045096D01*
X0034925Y0045324D01*
X0033522Y0045324D01*
X0033196Y0045650D01*
X0033196Y0052372D01*
X0040796Y0059972D01*
X0040796Y0059572D01*
X0044596Y0055772D01*
X0045768Y0054600D01*
X0079568Y0054600D01*
X0079796Y0054372D01*
X0079796Y0053363D01*
X0080100Y0052630D01*
X0079283Y0051813D01*
X0078796Y0050637D01*
X0078796Y0049363D01*
X0079283Y0048187D01*
X0079471Y0048000D01*
X0079283Y0047813D01*
X0078796Y0046637D01*
X0078796Y0045363D01*
X0079283Y0044187D01*
X0080183Y0043287D01*
X0081359Y0042800D01*
X0082633Y0042800D01*
X0083809Y0043287D01*
X0084115Y0043593D01*
X0084283Y0043187D01*
X0085183Y0042287D01*
X0086359Y0041800D01*
X0087633Y0041800D01*
X0088809Y0042287D01*
X0089709Y0043187D01*
X0089765Y0043323D01*
X0090199Y0042888D01*
X0094123Y0042888D01*
X0095061Y0043825D01*
X0095061Y0056175D01*
X0094123Y0057112D01*
X0090199Y0057112D01*
X0090058Y0056970D01*
X0089709Y0057813D01*
X0088996Y0058525D01*
X0088996Y0063047D01*
X0095769Y0069820D01*
X0097334Y0069820D01*
X0098271Y0070757D01*
X0098271Y0077603D01*
X0097334Y0078540D01*
X0093858Y0078540D01*
X0093356Y0078038D01*
X0093176Y0078218D01*
X0093176Y0081848D01*
X0092004Y0083020D01*
X0086645Y0088379D01*
X0041084Y0088379D01*
X0041084Y0088420D01*
X0040147Y0089357D01*
X0034885Y0089357D01*
X0034171Y0088643D01*
X0033934Y0088880D01*
X0032144Y0088880D01*
X0031174Y0089850D01*
X0096720Y0089850D01*
X0098068Y0088157D01*
X0101658Y0082506D01*
X0104415Y0076405D01*
X0106284Y0069976D01*
X0107228Y0063348D01*
X0107314Y0060918D01*
X0106633Y0061200D01*
X0106196Y0061200D01*
X0106196Y0062237D01*
X0105709Y0063413D01*
X0104809Y0064313D01*
X0103633Y0064800D01*
X0102396Y0064800D01*
X0102396Y0064837D01*
X0101909Y0066013D01*
X0101009Y0066913D01*
X0099833Y0067400D01*
X0098559Y0067400D01*
X0097383Y0066913D01*
X0096483Y0066013D01*
X0095996Y0064837D01*
X0095996Y0063828D01*
X0095796Y0063628D01*
X0095796Y0050972D01*
X0097168Y0049600D01*
X0096796Y0049228D01*
X0095596Y0048028D01*
X0095596Y0042791D01*
X0094855Y0042000D01*
X0093959Y0042000D01*
X0092783Y0041513D01*
X0091883Y0040613D01*
X0091396Y0039437D01*
X0091396Y0038163D01*
X0091883Y0036987D01*
X0092783Y0036087D01*
X0093959Y0035600D01*
X0095233Y0035600D01*
X0096409Y0036087D01*
X0097196Y0036875D01*
X0097983Y0036087D01*
X0099159Y0035600D01*
X0100433Y0035600D01*
X0100451Y0035607D01*
X0099636Y0034102D01*
X0094833Y0027931D01*
X0089079Y0022634D01*
X0082532Y0018357D01*
X0075371Y0015216D01*
X0067790Y0013296D01*
X0059996Y0012650D01*
X0052202Y0013296D01*
X0044621Y0015216D01*
X0037460Y0018357D01*
X0030913Y0022634D01*
X0031918Y0021978D02*
X0088074Y0021978D01*
X0086852Y0021179D02*
X0033140Y0021179D01*
X0034362Y0020381D02*
X0085630Y0020381D01*
X0084407Y0019582D02*
X0035585Y0019582D01*
X0036807Y0018784D02*
X0083185Y0018784D01*
X0081685Y0017985D02*
X0038307Y0017985D01*
X0040128Y0017187D02*
X0079864Y0017187D01*
X0078044Y0016388D02*
X0041948Y0016388D01*
X0043769Y0015590D02*
X0076223Y0015590D01*
X0073694Y0014791D02*
X0046298Y0014791D01*
X0049451Y0013993D02*
X0070541Y0013993D01*
X0066562Y0013194D02*
X0053430Y0013194D01*
X0045555Y0032676D02*
X0041867Y0032676D01*
X0041639Y0032904D01*
X0041533Y0032876D01*
X0038796Y0032876D01*
X0038796Y0038600D01*
X0041130Y0038600D01*
X0041130Y0039000D01*
X0043711Y0039000D01*
X0043711Y0039000D01*
X0046292Y0039000D01*
X0046292Y0038028D01*
X0046197Y0037672D01*
X0046012Y0037353D01*
X0045832Y0037173D01*
X0046492Y0036513D01*
X0046492Y0033613D01*
X0045555Y0032676D01*
X0046036Y0033157D02*
X0098900Y0033157D01*
X0099522Y0033955D02*
X0046492Y0033955D01*
X0046492Y0034754D02*
X0099989Y0034754D01*
X0100421Y0035552D02*
X0046492Y0035552D01*
X0046492Y0036351D02*
X0092520Y0036351D01*
X0091816Y0037149D02*
X0045856Y0037149D01*
X0046271Y0037948D02*
X0091485Y0037948D01*
X0091396Y0038746D02*
X0046292Y0038746D01*
X0046292Y0039545D02*
X0091441Y0039545D01*
X0091772Y0040343D02*
X0046188Y0040343D01*
X0046147Y0041142D02*
X0092412Y0041142D01*
X0093816Y0041940D02*
X0087972Y0041940D01*
X0089260Y0042739D02*
X0095547Y0042739D01*
X0095596Y0043537D02*
X0094773Y0043537D01*
X0095061Y0044336D02*
X0095596Y0044336D01*
X0095596Y0045134D02*
X0095061Y0045134D01*
X0095061Y0045933D02*
X0095596Y0045933D01*
X0095596Y0046732D02*
X0095061Y0046732D01*
X0095061Y0047530D02*
X0095596Y0047530D01*
X0095896Y0048329D02*
X0095061Y0048329D01*
X0095061Y0049127D02*
X0096695Y0049127D01*
X0096842Y0049926D02*
X0095061Y0049926D01*
X0095061Y0050724D02*
X0096043Y0050724D01*
X0095796Y0051523D02*
X0095061Y0051523D01*
X0095061Y0052321D02*
X0095796Y0052321D01*
X0095796Y0053120D02*
X0095061Y0053120D01*
X0095061Y0053918D02*
X0095796Y0053918D01*
X0095796Y0054717D02*
X0095061Y0054717D01*
X0095061Y0055515D02*
X0095796Y0055515D01*
X0095796Y0056314D02*
X0094921Y0056314D01*
X0095796Y0057112D02*
X0089999Y0057112D01*
X0089611Y0057911D02*
X0095796Y0057911D01*
X0095796Y0058709D02*
X0088996Y0058709D01*
X0088996Y0059508D02*
X0095796Y0059508D01*
X0095796Y0060306D02*
X0088996Y0060306D01*
X0088996Y0061105D02*
X0095796Y0061105D01*
X0095796Y0061903D02*
X0088996Y0061903D01*
X0088996Y0062702D02*
X0095796Y0062702D01*
X0095796Y0063500D02*
X0089450Y0063500D01*
X0090248Y0064299D02*
X0095996Y0064299D01*
X0096104Y0065097D02*
X0091047Y0065097D01*
X0091845Y0065896D02*
X0096435Y0065896D01*
X0097165Y0066694D02*
X0092644Y0066694D01*
X0093442Y0067493D02*
X0106638Y0067493D01*
X0106524Y0068291D02*
X0094241Y0068291D01*
X0095039Y0069090D02*
X0106410Y0069090D01*
X0106296Y0069888D02*
X0097402Y0069888D01*
X0098201Y0070687D02*
X0106077Y0070687D01*
X0105845Y0071485D02*
X0098271Y0071485D01*
X0098271Y0072284D02*
X0105613Y0072284D01*
X0105381Y0073082D02*
X0098271Y0073082D01*
X0098271Y0073881D02*
X0105149Y0073881D01*
X0104916Y0074679D02*
X0098271Y0074679D01*
X0098271Y0075478D02*
X0104684Y0075478D01*
X0104452Y0076276D02*
X0098271Y0076276D01*
X0098271Y0077075D02*
X0104112Y0077075D01*
X0103751Y0077873D02*
X0098000Y0077873D01*
X0095596Y0075885D02*
X0091236Y0075885D01*
X0091176Y0075825D01*
X0091176Y0081020D01*
X0085817Y0086379D01*
X0058417Y0086379D01*
X0061751Y0083045D01*
X0066196Y0083045D01*
X0071260Y0083045D01*
X0072366Y0081939D01*
X0072366Y0079380D02*
X0072366Y0076821D01*
X0072366Y0076821D01*
X0068407Y0076821D01*
X0068407Y0077748D01*
X0068391Y0077720D01*
X0068131Y0077460D01*
X0067811Y0077275D01*
X0067455Y0077180D01*
X0066323Y0077180D01*
X0066323Y0079507D01*
X0066068Y0079507D01*
X0066068Y0077180D01*
X0064937Y0077180D01*
X0064581Y0077275D01*
X0064261Y0077460D01*
X0064001Y0077720D01*
X0063816Y0078040D01*
X0063721Y0078396D01*
X0063721Y0079507D01*
X0066068Y0079507D01*
X0066068Y0079762D01*
X0063721Y0079762D01*
X0063721Y0080874D01*
X0063767Y0081045D01*
X0060923Y0081045D01*
X0060196Y0081772D01*
X0060196Y0069972D01*
X0059024Y0068800D01*
X0056824Y0066600D01*
X0052968Y0066600D01*
X0051796Y0067772D01*
X0049648Y0069920D01*
X0049648Y0066125D01*
X0050360Y0065413D01*
X0050848Y0064237D01*
X0050848Y0062963D01*
X0050360Y0061787D01*
X0049460Y0060887D01*
X0048284Y0060400D01*
X0047011Y0060400D01*
X0045835Y0060887D01*
X0044935Y0061787D01*
X0044796Y0062122D01*
X0044796Y0061228D01*
X0047424Y0058600D01*
X0080996Y0058600D01*
X0080996Y0071662D01*
X0078225Y0074434D01*
X0075444Y0074434D01*
X0075215Y0074662D01*
X0075110Y0074634D01*
X0072366Y0074634D01*
X0072366Y0076821D01*
X0068407Y0076821D01*
X0068407Y0075849D01*
X0068503Y0075493D01*
X0068687Y0075174D01*
X0068948Y0074913D01*
X0069267Y0074729D01*
X0069623Y0074634D01*
X0072366Y0074634D01*
X0072366Y0076821D01*
X0072366Y0079008D01*
X0072366Y0079380D01*
X0072366Y0079380D01*
X0072366Y0078672D02*
X0072366Y0078672D01*
X0072366Y0077873D02*
X0072366Y0077873D01*
X0072366Y0077075D02*
X0072366Y0077075D01*
X0072366Y0076821D02*
X0072366Y0076821D01*
X0072366Y0076821D01*
X0072366Y0076276D02*
X0072366Y0076276D01*
X0072366Y0075478D02*
X0072366Y0075478D01*
X0072366Y0074679D02*
X0072366Y0074679D01*
X0069452Y0074679D02*
X0060196Y0074679D01*
X0060196Y0073881D02*
X0078777Y0073881D01*
X0079576Y0073082D02*
X0060196Y0073082D01*
X0060196Y0072284D02*
X0080374Y0072284D01*
X0080996Y0071485D02*
X0060196Y0071485D01*
X0060196Y0070687D02*
X0080996Y0070687D01*
X0080996Y0069888D02*
X0060113Y0069888D01*
X0059314Y0069090D02*
X0080996Y0069090D01*
X0080996Y0068291D02*
X0058516Y0068291D01*
X0057717Y0067493D02*
X0080996Y0067493D01*
X0080996Y0066694D02*
X0056919Y0066694D01*
X0055996Y0068600D02*
X0058196Y0070800D01*
X0058196Y0084579D01*
X0056396Y0086379D01*
X0058417Y0086379D01*
X0056396Y0086379D02*
X0051585Y0086379D01*
X0051585Y0082011D01*
X0049616Y0082011D02*
X0049616Y0086379D01*
X0051585Y0086379D01*
X0049616Y0086379D02*
X0044396Y0086379D01*
X0044396Y0082506D01*
X0045285Y0081617D01*
X0047648Y0082011D02*
X0047648Y0079548D01*
X0049596Y0077600D01*
X0049616Y0077600D01*
X0049616Y0073349D01*
X0049616Y0069380D01*
X0052996Y0066000D01*
X0052996Y0063400D01*
X0049196Y0059600D01*
X0047196Y0059600D01*
X0044796Y0062000D01*
X0044796Y0066600D01*
X0045285Y0067089D01*
X0045285Y0073743D01*
X0045285Y0073423D02*
X0045285Y0071654D01*
X0044796Y0071654D01*
X0044796Y0065078D01*
X0044935Y0065413D01*
X0045648Y0066125D01*
X0045648Y0071413D01*
X0045407Y0071654D01*
X0045285Y0071654D01*
X0045285Y0073423D01*
X0045285Y0073423D01*
X0045285Y0073082D02*
X0045285Y0073082D01*
X0045285Y0072284D02*
X0045285Y0072284D01*
X0045575Y0071485D02*
X0044796Y0071485D01*
X0044796Y0070687D02*
X0045648Y0070687D01*
X0045648Y0069888D02*
X0044796Y0069888D01*
X0044796Y0069090D02*
X0045648Y0069090D01*
X0045648Y0068291D02*
X0044796Y0068291D01*
X0044796Y0067493D02*
X0045648Y0067493D01*
X0045648Y0066694D02*
X0044796Y0066694D01*
X0044796Y0065896D02*
X0045418Y0065896D01*
X0044804Y0065097D02*
X0044796Y0065097D01*
X0042796Y0064800D02*
X0042796Y0060400D01*
X0046596Y0056600D01*
X0080396Y0056600D01*
X0082996Y0054000D01*
X0082996Y0063400D01*
X0082996Y0064235D01*
X0091176Y0072415D01*
X0095596Y0072475D02*
X0086996Y0063875D01*
X0086996Y0056000D01*
X0089846Y0053150D01*
X0092161Y0053150D01*
X0092161Y0051575D02*
X0085421Y0051575D01*
X0082996Y0054000D01*
X0079796Y0053918D02*
X0034743Y0053918D01*
X0035541Y0054717D02*
X0045651Y0054717D01*
X0044852Y0055515D02*
X0036340Y0055515D01*
X0037138Y0056314D02*
X0044054Y0056314D01*
X0043255Y0057112D02*
X0037937Y0057112D01*
X0038735Y0057911D02*
X0042457Y0057911D01*
X0041658Y0058709D02*
X0039534Y0058709D01*
X0040332Y0059508D02*
X0040860Y0059508D01*
X0044920Y0061105D02*
X0045617Y0061105D01*
X0045718Y0060306D02*
X0080996Y0060306D01*
X0080996Y0059508D02*
X0046517Y0059508D01*
X0047315Y0058709D02*
X0080996Y0058709D01*
X0080996Y0061105D02*
X0049678Y0061105D01*
X0050408Y0061903D02*
X0080996Y0061903D01*
X0080996Y0062702D02*
X0050739Y0062702D01*
X0050848Y0063500D02*
X0080996Y0063500D01*
X0080996Y0064299D02*
X0050822Y0064299D01*
X0050491Y0065097D02*
X0080996Y0065097D01*
X0080996Y0065896D02*
X0049877Y0065896D01*
X0049648Y0066694D02*
X0052873Y0066694D01*
X0052075Y0067493D02*
X0049648Y0067493D01*
X0049648Y0068291D02*
X0051276Y0068291D01*
X0050478Y0069090D02*
X0049648Y0069090D01*
X0049648Y0069888D02*
X0049679Y0069888D01*
X0051585Y0070811D02*
X0053796Y0068600D01*
X0055996Y0068600D01*
X0051585Y0070811D02*
X0051585Y0073349D01*
X0051485Y0075711D02*
X0049596Y0077600D01*
X0051644Y0079648D01*
X0053947Y0079648D01*
X0053947Y0079969D02*
X0053947Y0081617D01*
X0053947Y0081617D01*
X0053947Y0083706D01*
X0055115Y0083706D01*
X0055471Y0083611D01*
X0055791Y0083426D01*
X0056051Y0083166D01*
X0056196Y0082915D01*
X0056196Y0083751D01*
X0055568Y0084379D01*
X0053585Y0084379D01*
X0053585Y0083947D01*
X0053825Y0083706D01*
X0053947Y0083706D01*
X0053947Y0081617D01*
X0053947Y0079969D01*
X0053947Y0079969D01*
X0053947Y0080269D02*
X0053947Y0080269D01*
X0053947Y0081068D02*
X0053947Y0081068D01*
X0053947Y0081617D02*
X0053947Y0081617D01*
X0053947Y0081866D02*
X0053947Y0081866D01*
X0053947Y0082665D02*
X0053947Y0082665D01*
X0053947Y0083463D02*
X0053947Y0083463D01*
X0053585Y0084262D02*
X0055685Y0084262D01*
X0055727Y0083463D02*
X0056196Y0083463D01*
X0060196Y0081068D02*
X0060900Y0081068D01*
X0060196Y0080269D02*
X0063721Y0080269D01*
X0063721Y0079470D02*
X0060196Y0079470D01*
X0060196Y0078672D02*
X0063721Y0078672D01*
X0063912Y0077873D02*
X0060196Y0077873D01*
X0060196Y0077075D02*
X0068407Y0077075D01*
X0068407Y0076276D02*
X0060196Y0076276D01*
X0060196Y0075478D02*
X0068512Y0075478D01*
X0066323Y0077873D02*
X0066068Y0077873D01*
X0066068Y0078672D02*
X0066323Y0078672D01*
X0066323Y0079470D02*
X0066068Y0079470D01*
X0053947Y0075711D02*
X0051485Y0075711D01*
X0051562Y0075934D02*
X0050233Y0075934D01*
X0050033Y0075734D01*
X0049616Y0075734D01*
X0049616Y0075317D01*
X0049616Y0075734D01*
X0049199Y0075734D01*
X0048999Y0075934D01*
X0047870Y0075934D01*
X0047870Y0079626D01*
X0048064Y0079626D01*
X0048264Y0079426D01*
X0051562Y0079426D01*
X0051562Y0079232D01*
X0051362Y0079032D01*
X0051362Y0076328D01*
X0051562Y0076128D01*
X0051562Y0075934D01*
X0051414Y0076276D02*
X0047870Y0076276D01*
X0047870Y0077075D02*
X0051362Y0077075D01*
X0051362Y0077873D02*
X0047870Y0077873D01*
X0047870Y0078672D02*
X0051362Y0078672D01*
X0048220Y0079470D02*
X0047870Y0079470D01*
X0049616Y0075478D02*
X0049616Y0075478D01*
X0049616Y0075317D02*
X0049616Y0075317D01*
X0049616Y0075317D01*
X0047648Y0073349D02*
X0047648Y0063600D01*
X0044887Y0061903D02*
X0044796Y0061903D01*
X0042796Y0064800D02*
X0031196Y0053200D01*
X0031196Y0044822D01*
X0033081Y0042937D01*
X0035115Y0045134D02*
X0041677Y0045134D01*
X0044101Y0045933D02*
X0033196Y0045933D01*
X0033196Y0046732D02*
X0044396Y0046732D01*
X0044518Y0047530D02*
X0039552Y0047530D01*
X0039309Y0047287D02*
X0038133Y0046800D01*
X0036859Y0046800D01*
X0035683Y0047287D01*
X0034783Y0048187D01*
X0034296Y0049363D01*
X0034296Y0050637D01*
X0034783Y0051813D01*
X0035683Y0052713D01*
X0036859Y0053200D01*
X0038133Y0053200D01*
X0039309Y0052713D01*
X0040209Y0051813D01*
X0040696Y0050637D01*
X0040696Y0049363D01*
X0040209Y0048187D01*
X0039309Y0047287D01*
X0040267Y0048329D02*
X0044848Y0048329D01*
X0045598Y0049127D02*
X0040598Y0049127D01*
X0040696Y0049926D02*
X0078796Y0049926D01*
X0078832Y0050724D02*
X0040660Y0050724D01*
X0040329Y0051523D02*
X0079163Y0051523D01*
X0079792Y0052321D02*
X0039700Y0052321D01*
X0038327Y0053120D02*
X0079897Y0053120D01*
X0081996Y0050000D02*
X0092161Y0050000D01*
X0092161Y0048425D02*
X0084421Y0048425D01*
X0081996Y0046000D01*
X0079166Y0047530D02*
X0050674Y0047530D01*
X0050796Y0046732D02*
X0078835Y0046732D01*
X0078796Y0045933D02*
X0050783Y0045933D01*
X0050453Y0045134D02*
X0078891Y0045134D01*
X0079222Y0044336D02*
X0049857Y0044336D01*
X0048564Y0043537D02*
X0079933Y0043537D01*
X0084059Y0043537D02*
X0084138Y0043537D01*
X0084732Y0042739D02*
X0046563Y0042739D01*
X0046492Y0041940D02*
X0086020Y0041940D01*
X0086996Y0045000D02*
X0088846Y0046850D01*
X0092161Y0046850D01*
X0097596Y0047200D02*
X0098796Y0048400D01*
X0102805Y0048400D01*
X0102831Y0048425D01*
X0102831Y0050000D02*
X0099596Y0050000D01*
X0097796Y0051800D01*
X0097796Y0062800D01*
X0099196Y0064200D01*
X0101957Y0065896D02*
X0106865Y0065896D01*
X0106751Y0066694D02*
X0101227Y0066694D01*
X0102288Y0065097D02*
X0106979Y0065097D01*
X0107092Y0064299D02*
X0104823Y0064299D01*
X0105621Y0063500D02*
X0107206Y0063500D01*
X0107251Y0062702D02*
X0106003Y0062702D01*
X0106196Y0061903D02*
X0107279Y0061903D01*
X0107307Y0061105D02*
X0106862Y0061105D01*
X0105996Y0058000D02*
X0106596Y0057400D01*
X0106596Y0054600D01*
X0105146Y0053150D01*
X0102831Y0053150D01*
X0102805Y0051600D02*
X0099996Y0051600D01*
X0099396Y0052200D01*
X0099396Y0058000D01*
X0102996Y0061600D01*
X0102805Y0051600D02*
X0102831Y0051575D01*
X0102831Y0046850D02*
X0100446Y0046850D01*
X0099796Y0046200D01*
X0099796Y0038800D01*
X0097720Y0036351D02*
X0096672Y0036351D01*
X0094596Y0038800D02*
X0097596Y0042000D01*
X0097596Y0047200D01*
X0098279Y0032358D02*
X0021713Y0032358D01*
X0022335Y0031560D02*
X0097657Y0031560D01*
X0097036Y0030761D02*
X0022956Y0030761D01*
X0023578Y0029963D02*
X0096414Y0029963D01*
X0095793Y0029164D02*
X0024199Y0029164D01*
X0024821Y0028366D02*
X0095171Y0028366D01*
X0094438Y0027567D02*
X0025554Y0027567D01*
X0026937Y0033040D02*
X0026581Y0033135D01*
X0026261Y0033320D01*
X0026001Y0033580D01*
X0025816Y0033900D01*
X0025721Y0034256D01*
X0025721Y0035367D01*
X0028068Y0035367D01*
X0028068Y0033040D01*
X0026937Y0033040D01*
X0026544Y0033157D02*
X0021092Y0033157D01*
X0020470Y0033955D02*
X0025801Y0033955D01*
X0025721Y0034754D02*
X0020003Y0034754D01*
X0019571Y0035552D02*
X0028068Y0035552D01*
X0028068Y0034754D02*
X0028323Y0034754D01*
X0028323Y0033955D02*
X0028068Y0033955D01*
X0028068Y0033157D02*
X0028323Y0033157D01*
X0029848Y0033157D02*
X0030756Y0033157D01*
X0025721Y0036351D02*
X0019139Y0036351D01*
X0018707Y0037149D02*
X0025559Y0037149D01*
X0025521Y0037948D02*
X0018275Y0037948D01*
X0017843Y0038746D02*
X0025521Y0038746D01*
X0025521Y0039545D02*
X0017411Y0039545D01*
X0016978Y0040343D02*
X0025521Y0040343D01*
X0026040Y0041142D02*
X0016578Y0041142D01*
X0016304Y0041940D02*
X0026196Y0041940D01*
X0026196Y0042739D02*
X0016030Y0042739D01*
X0015756Y0043537D02*
X0026196Y0043537D01*
X0026196Y0044336D02*
X0015482Y0044336D01*
X0015208Y0045134D02*
X0026196Y0045134D01*
X0026196Y0045933D02*
X0014934Y0045933D01*
X0014660Y0046732D02*
X0026196Y0046732D01*
X0026196Y0047530D02*
X0014385Y0047530D01*
X0014111Y0048329D02*
X0026196Y0048329D01*
X0026196Y0049127D02*
X0013970Y0049127D01*
X0013836Y0049926D02*
X0026196Y0049926D01*
X0026196Y0050724D02*
X0013703Y0050724D01*
X0013570Y0051523D02*
X0026196Y0051523D01*
X0026196Y0052321D02*
X0013437Y0052321D01*
X0013303Y0053120D02*
X0026196Y0053120D01*
X0026196Y0053918D02*
X0013170Y0053918D01*
X0013037Y0054717D02*
X0026484Y0054717D01*
X0027283Y0055515D02*
X0012904Y0055515D01*
X0012798Y0056314D02*
X0028081Y0056314D01*
X0028880Y0057112D02*
X0012765Y0057112D01*
X0012732Y0057911D02*
X0029678Y0057911D01*
X0030477Y0058709D02*
X0012699Y0058709D01*
X0012666Y0059508D02*
X0031275Y0059508D01*
X0032074Y0060306D02*
X0012657Y0060306D01*
X0012685Y0061105D02*
X0032624Y0061105D01*
X0031567Y0061903D02*
X0012713Y0061903D01*
X0012741Y0062702D02*
X0031070Y0062702D01*
X0030996Y0063500D02*
X0023496Y0056000D01*
X0020496Y0056000D01*
X0013996Y0062500D01*
X0013996Y0065500D01*
X0015346Y0066850D01*
X0017161Y0066850D01*
X0023996Y0066850D01*
X0023996Y0078400D01*
X0028411Y0082815D01*
X0032196Y0082815D01*
X0033750Y0081261D01*
X0037516Y0081261D01*
X0037805Y0081068D02*
X0042701Y0081068D01*
X0042701Y0080269D02*
X0040884Y0080269D01*
X0040884Y0079699D02*
X0040884Y0080972D01*
X0037805Y0080972D01*
X0037805Y0078483D01*
X0039669Y0078483D01*
X0040025Y0078578D01*
X0040344Y0078763D01*
X0040605Y0079023D01*
X0040789Y0079343D01*
X0040884Y0079699D01*
X0040823Y0079470D02*
X0042701Y0079470D01*
X0042701Y0078672D02*
X0040187Y0078672D01*
X0042243Y0077075D02*
X0034447Y0077075D01*
X0034931Y0076276D02*
X0041444Y0076276D01*
X0040796Y0075478D02*
X0038044Y0075478D01*
X0038764Y0074679D02*
X0040796Y0074679D01*
X0040796Y0073881D02*
X0039095Y0073881D01*
X0035996Y0073000D02*
X0034571Y0071575D01*
X0027831Y0071575D01*
X0027831Y0070000D02*
X0033996Y0070000D01*
X0035996Y0068000D01*
X0033996Y0066000D02*
X0033996Y0064000D01*
X0033996Y0066000D02*
X0031571Y0068425D01*
X0027831Y0068425D01*
X0027831Y0066850D02*
X0029646Y0066850D01*
X0030996Y0065500D01*
X0030996Y0063500D01*
X0030796Y0063500D02*
X0030405Y0063500D01*
X0030730Y0064299D02*
X0030796Y0064299D01*
X0030730Y0065097D02*
X0030987Y0065097D01*
X0030730Y0065896D02*
X0031272Y0065896D01*
X0027831Y0066850D02*
X0023996Y0066850D01*
X0024931Y0067493D02*
X0020517Y0067493D01*
X0019861Y0066694D02*
X0025131Y0066694D01*
X0025131Y0066850D02*
X0025391Y0066850D01*
X0025391Y0066850D01*
X0025131Y0066850D01*
X0024931Y0065896D02*
X0020061Y0065896D01*
X0020061Y0065097D02*
X0024931Y0065097D01*
X0024931Y0064299D02*
X0020061Y0064299D01*
X0019735Y0063500D02*
X0025257Y0063500D01*
X0024931Y0068291D02*
X0021316Y0068291D01*
X0022114Y0069090D02*
X0024931Y0069090D01*
X0024931Y0069888D02*
X0022913Y0069888D01*
X0022196Y0069172D02*
X0022196Y0069172D01*
X0020196Y0070000D02*
X0018621Y0068425D01*
X0017161Y0068425D01*
X0017161Y0070000D02*
X0020196Y0070000D01*
X0022196Y0072000D01*
X0022196Y0082800D01*
X0022996Y0083600D01*
X0020196Y0085400D02*
X0022796Y0088000D01*
X0025396Y0088000D01*
X0030196Y0088000D01*
X0031996Y0086200D01*
X0032171Y0086200D01*
X0032196Y0086225D01*
X0032350Y0086379D01*
X0037516Y0086379D01*
X0044396Y0086379D01*
X0042396Y0084262D02*
X0041008Y0084262D01*
X0040625Y0083463D02*
X0042396Y0083463D01*
X0042396Y0082665D02*
X0040884Y0082665D01*
X0040884Y0081866D02*
X0042396Y0081866D01*
X0042701Y0077873D02*
X0033421Y0077873D01*
X0034845Y0078672D02*
X0024196Y0078672D01*
X0024196Y0079470D02*
X0034209Y0079470D01*
X0034148Y0080269D02*
X0024196Y0080269D01*
X0024989Y0081068D02*
X0029904Y0081068D01*
X0029721Y0081866D02*
X0025741Y0081866D01*
X0026072Y0082665D02*
X0029721Y0082665D01*
X0029721Y0083463D02*
X0026196Y0083463D01*
X0026186Y0084262D02*
X0029767Y0084262D01*
X0029521Y0085060D02*
X0026660Y0085060D01*
X0027780Y0085859D02*
X0029509Y0085859D01*
X0032068Y0082665D02*
X0032323Y0082665D01*
X0032323Y0081866D02*
X0032068Y0081866D01*
X0032068Y0081068D02*
X0032323Y0081068D01*
X0030571Y0077873D02*
X0024196Y0077873D01*
X0024196Y0077075D02*
X0025832Y0077075D01*
X0025033Y0076276D02*
X0024196Y0076276D01*
X0024196Y0075478D02*
X0024931Y0075478D01*
X0024931Y0074679D02*
X0024196Y0074679D01*
X0024196Y0073881D02*
X0024931Y0073881D01*
X0024931Y0073082D02*
X0024196Y0073082D01*
X0024196Y0072284D02*
X0024931Y0072284D01*
X0024931Y0071485D02*
X0024196Y0071485D01*
X0023711Y0070687D02*
X0024931Y0070687D01*
X0027831Y0073150D02*
X0030146Y0073150D01*
X0031996Y0075000D01*
X0037227Y0078672D02*
X0037805Y0078672D01*
X0037805Y0079470D02*
X0037227Y0079470D01*
X0037227Y0080269D02*
X0037805Y0080269D01*
X0042796Y0074800D02*
X0043707Y0075711D01*
X0045285Y0075711D01*
X0042796Y0074800D02*
X0042796Y0064800D01*
X0039796Y0065200D02*
X0028196Y0053600D01*
X0028196Y0038905D01*
X0032986Y0038905D01*
X0033081Y0039000D01*
X0037996Y0039545D02*
X0038796Y0039545D01*
X0038796Y0040343D02*
X0037996Y0040343D01*
X0037996Y0041142D02*
X0038796Y0041142D01*
X0038796Y0041940D02*
X0037996Y0041940D01*
X0037996Y0042739D02*
X0038796Y0042739D01*
X0038796Y0043537D02*
X0037996Y0043537D01*
X0037996Y0044336D02*
X0038796Y0044336D01*
X0035440Y0047530D02*
X0033196Y0047530D01*
X0033196Y0048329D02*
X0034725Y0048329D01*
X0034394Y0049127D02*
X0033196Y0049127D01*
X0033196Y0049926D02*
X0034296Y0049926D01*
X0034332Y0050724D02*
X0033196Y0050724D01*
X0033196Y0051523D02*
X0034663Y0051523D01*
X0035292Y0052321D02*
X0033196Y0052321D01*
X0033944Y0053120D02*
X0036665Y0053120D01*
X0043933Y0042937D02*
X0047596Y0046600D01*
X0049594Y0049127D02*
X0078894Y0049127D01*
X0079225Y0048329D02*
X0050344Y0048329D01*
X0043933Y0042937D02*
X0043711Y0042937D01*
X0043711Y0039000D02*
X0043711Y0039000D01*
X0041130Y0038746D02*
X0038796Y0038746D01*
X0038796Y0037948D02*
X0037996Y0037948D01*
X0037996Y0037149D02*
X0038796Y0037149D01*
X0038796Y0036351D02*
X0037996Y0036351D01*
X0037996Y0035552D02*
X0038796Y0035552D01*
X0038796Y0034754D02*
X0037996Y0034754D01*
X0037996Y0033955D02*
X0038796Y0033955D01*
X0038796Y0033157D02*
X0037996Y0033157D01*
X0014587Y0063500D02*
X0012786Y0063500D01*
X0012900Y0064299D02*
X0014262Y0064299D01*
X0014262Y0065097D02*
X0013013Y0065097D01*
X0013127Y0065896D02*
X0014262Y0065896D01*
X0014462Y0066694D02*
X0013241Y0066694D01*
X0013354Y0067493D02*
X0014262Y0067493D01*
X0014462Y0066850D02*
X0014721Y0066850D01*
X0014722Y0066850D01*
X0014462Y0066850D01*
X0014262Y0068291D02*
X0013468Y0068291D01*
X0013582Y0069090D02*
X0014262Y0069090D01*
X0014262Y0069888D02*
X0013696Y0069888D01*
X0013915Y0070687D02*
X0014262Y0070687D01*
X0014262Y0071485D02*
X0014147Y0071485D01*
X0017161Y0071575D02*
X0018171Y0071575D01*
X0019746Y0073150D01*
X0017161Y0073150D01*
X0019746Y0073150D02*
X0020196Y0073600D01*
X0020196Y0085400D01*
X0031972Y0089053D02*
X0034580Y0089053D01*
X0040452Y0089053D02*
X0097355Y0089053D01*
X0097990Y0088254D02*
X0086770Y0088254D01*
X0087569Y0087456D02*
X0098513Y0087456D01*
X0099020Y0086657D02*
X0088367Y0086657D01*
X0089166Y0085859D02*
X0099527Y0085859D01*
X0100035Y0085060D02*
X0089964Y0085060D01*
X0090763Y0084262D02*
X0100542Y0084262D01*
X0101049Y0083463D02*
X0091561Y0083463D01*
X0092360Y0082665D02*
X0101557Y0082665D01*
X0101947Y0081866D02*
X0093158Y0081866D01*
X0093176Y0081068D02*
X0102308Y0081068D01*
X0102668Y0080269D02*
X0093176Y0080269D01*
X0093176Y0079470D02*
X0103029Y0079470D01*
X0103390Y0078672D02*
X0093176Y0078672D01*
X0086796Y0079800D02*
X0084657Y0081939D01*
X0078666Y0081939D01*
X0078996Y0081609D01*
X0078996Y0081600D01*
X0078666Y0076821D02*
X0082996Y0072491D01*
X0082996Y0064235D01*
X0039796Y0065200D02*
X0039796Y0070200D01*
D200*
X0039796Y0070200D03*
X0035996Y0068000D03*
X0033996Y0064000D03*
X0035996Y0073000D03*
X0031996Y0075000D03*
X0022996Y0083600D03*
X0025396Y0088000D03*
X0049596Y0077600D03*
X0062996Y0069000D03*
X0076996Y0069000D03*
X0086796Y0079800D03*
X0099196Y0064200D03*
X0102996Y0061600D03*
X0105996Y0058000D03*
X0086996Y0056000D03*
X0082996Y0054000D03*
X0081996Y0050000D03*
X0081996Y0046000D03*
X0076996Y0050000D03*
X0086996Y0045000D03*
X0094596Y0038800D03*
X0099796Y0038800D03*
X0081996Y0037000D03*
X0081996Y0026000D03*
X0063996Y0028500D03*
X0049996Y0034500D03*
X0047596Y0046600D03*
X0037496Y0050000D03*
X0021496Y0037000D03*
X0040996Y0022000D03*
X0062996Y0050000D03*
X0047648Y0063600D03*
X0020496Y0056000D03*
X0222500Y0010000D02*
G75*
%LPD*%
D137*
X0233865Y0066850D03*
X0233865Y0068425D03*
X0233865Y0070000D03*
X0233865Y0071575D03*
X0233865Y0073150D03*
X0244535Y0073150D03*
X0244535Y0071575D03*
X0244535Y0070000D03*
X0244535Y0068425D03*
X0244535Y0066850D03*
X0308865Y0053150D03*
X0308865Y0051575D03*
X0308865Y0050000D03*
X0308865Y0048425D03*
X0308865Y0046850D03*
X0319535Y0046850D03*
X0319535Y0048425D03*
X0319535Y0050000D03*
X0319535Y0051575D03*
X0319535Y0053150D03*
D213*
X0319535Y0054921D03*
X0308865Y0054921D03*
X0308865Y0045079D03*
X0319535Y0045079D03*
X0244535Y0065079D03*
X0233865Y0065079D03*
X0233865Y0074921D03*
X0244535Y0074921D03*
D207*
X0249785Y0042937D03*
X0249785Y0039000D03*
X0249785Y0035063D03*
X0260415Y0035063D03*
X0260415Y0039000D03*
X0260415Y0042937D03*
D68*
X0255100Y0039000D03*
D119*
X0289070Y0076821D03*
X0289070Y0079380D03*
X0289070Y0081939D03*
X0295370Y0081939D03*
X0295370Y0079380D03*
X0295370Y0076821D03*
D148*
X0270651Y0077680D03*
X0270651Y0075711D03*
X0270651Y0073743D03*
X0270651Y0079648D03*
X0270651Y0081617D03*
X0261989Y0081617D03*
X0261989Y0079648D03*
X0261989Y0077680D03*
X0261989Y0075711D03*
X0261989Y0073743D03*
D59*
X0264352Y0073349D03*
X0266320Y0073349D03*
X0268289Y0073349D03*
X0268289Y0082011D03*
X0266320Y0082011D03*
X0264352Y0082011D03*
D54*
X0254220Y0081261D03*
X0254220Y0086379D03*
D201*
X0248900Y0086225D03*
X0248900Y0082815D03*
X0282900Y0083045D03*
X0282900Y0079635D03*
X0307880Y0075825D03*
X0307880Y0072415D03*
X0312300Y0072475D03*
X0312300Y0075885D03*
X0244900Y0038905D03*
X0244900Y0035495D03*
D135*
X0243126Y0026769D02*
X0310274Y0026769D01*
X0309407Y0025970D02*
X0243993Y0025970D01*
X0244861Y0025172D02*
X0308539Y0025172D01*
X0307672Y0024373D02*
X0245728Y0024373D01*
X0246595Y0023575D02*
X0306805Y0023575D01*
X0305937Y0022776D02*
X0247463Y0022776D01*
X0247617Y0022634D02*
X0241863Y0027931D01*
X0237060Y0034102D01*
X0233338Y0040980D01*
X0230799Y0048376D01*
X0229512Y0056090D01*
X0229350Y0060000D01*
X0229350Y0060000D01*
X0229468Y0063348D01*
X0230412Y0069976D01*
X0230966Y0071882D01*
X0230966Y0067310D01*
X0231166Y0067110D01*
X0231166Y0066850D01*
X0231166Y0066532D01*
X0230966Y0066332D01*
X0230966Y0063825D01*
X0231903Y0062888D01*
X0235827Y0062888D01*
X0236765Y0063825D01*
X0236765Y0066332D01*
X0236565Y0066532D01*
X0236565Y0066836D01*
X0238900Y0069172D01*
X0239728Y0070000D01*
X0240900Y0071172D01*
X0240900Y0080633D01*
X0241513Y0080887D01*
X0242413Y0081787D01*
X0242900Y0082963D01*
X0242900Y0084237D01*
X0242667Y0084800D01*
X0242737Y0084800D01*
X0243913Y0085287D01*
X0244625Y0086000D01*
X0246072Y0086000D01*
X0246225Y0085847D01*
X0246225Y0084507D01*
X0246478Y0084254D01*
X0246425Y0084054D01*
X0246425Y0082943D01*
X0248772Y0082943D01*
X0248772Y0082688D01*
X0246425Y0082688D01*
X0246425Y0081576D01*
X0246520Y0081220D01*
X0246705Y0080900D01*
X0246965Y0080640D01*
X0247285Y0080455D01*
X0247641Y0080360D01*
X0248772Y0080360D01*
X0248772Y0082687D01*
X0249027Y0082687D01*
X0249027Y0080360D01*
X0250159Y0080360D01*
X0250515Y0080455D01*
X0250835Y0080640D01*
X0250852Y0080657D01*
X0250852Y0079699D01*
X0250947Y0079343D01*
X0251131Y0079023D01*
X0251392Y0078763D01*
X0251711Y0078578D01*
X0252067Y0078483D01*
X0253931Y0078483D01*
X0253931Y0080972D01*
X0254509Y0080972D01*
X0254509Y0081550D01*
X0257588Y0081550D01*
X0257588Y0082823D01*
X0257493Y0083179D01*
X0257309Y0083498D01*
X0257129Y0083679D01*
X0257788Y0084338D01*
X0257788Y0084379D01*
X0259100Y0084379D01*
X0259100Y0081678D01*
X0259405Y0081373D01*
X0259405Y0077533D01*
X0257500Y0075628D01*
X0257500Y0073249D01*
X0257137Y0073400D01*
X0255900Y0073400D01*
X0255900Y0073637D01*
X0255413Y0074813D01*
X0254513Y0075713D01*
X0253337Y0076200D01*
X0252063Y0076200D01*
X0251725Y0076060D01*
X0251413Y0076813D01*
X0250513Y0077713D01*
X0249337Y0078200D01*
X0248063Y0078200D01*
X0246887Y0077713D01*
X0246286Y0077112D01*
X0242573Y0077112D01*
X0241635Y0076175D01*
X0241635Y0067310D01*
X0241835Y0067110D01*
X0241835Y0066850D01*
X0241835Y0066532D01*
X0241635Y0066332D01*
X0241635Y0063825D01*
X0242573Y0062888D01*
X0246497Y0062888D01*
X0247434Y0063825D01*
X0247434Y0066332D01*
X0247341Y0066425D01*
X0247446Y0066425D01*
X0248023Y0065849D01*
X0247987Y0065813D01*
X0247500Y0064637D01*
X0247500Y0063363D01*
X0247987Y0062187D01*
X0248887Y0061287D01*
X0249504Y0061032D01*
X0244072Y0055600D01*
X0242900Y0054428D01*
X0242900Y0041298D01*
X0242225Y0040623D01*
X0242225Y0037187D01*
X0242478Y0036934D01*
X0242425Y0036734D01*
X0242425Y0035623D01*
X0244772Y0035623D01*
X0244772Y0035367D01*
X0245027Y0035367D01*
X0245027Y0033040D01*
X0246159Y0033040D01*
X0246515Y0033135D01*
X0246835Y0033320D01*
X0247066Y0033551D01*
X0247941Y0032676D01*
X0251629Y0032676D01*
X0251857Y0032904D01*
X0251963Y0032876D01*
X0254700Y0032876D01*
X0254700Y0038600D01*
X0255500Y0038600D01*
X0255500Y0039400D01*
X0257834Y0039400D01*
X0257834Y0039000D01*
X0260415Y0039000D01*
X0262996Y0039000D01*
X0262996Y0039972D01*
X0262901Y0040328D01*
X0262716Y0040647D01*
X0262536Y0040827D01*
X0263196Y0041487D01*
X0263196Y0042668D01*
X0263928Y0043400D01*
X0264937Y0043400D01*
X0266113Y0043887D01*
X0267013Y0044787D01*
X0267500Y0045963D01*
X0267500Y0047237D01*
X0267013Y0048413D01*
X0266113Y0049313D01*
X0264937Y0049800D01*
X0263663Y0049800D01*
X0262487Y0049313D01*
X0261587Y0048413D01*
X0261100Y0047237D01*
X0261100Y0046228D01*
X0260196Y0045324D01*
X0258571Y0045324D01*
X0258343Y0045096D01*
X0258237Y0045124D01*
X0255500Y0045124D01*
X0255500Y0039400D01*
X0254700Y0039400D01*
X0254700Y0045124D01*
X0251963Y0045124D01*
X0251857Y0045096D01*
X0251629Y0045324D01*
X0250226Y0045324D01*
X0249900Y0045650D01*
X0249900Y0052372D01*
X0257500Y0059972D01*
X0257500Y0059572D01*
X0261300Y0055772D01*
X0262472Y0054600D01*
X0296272Y0054600D01*
X0296500Y0054372D01*
X0296500Y0053363D01*
X0296804Y0052630D01*
X0295987Y0051813D01*
X0295500Y0050637D01*
X0295500Y0049363D01*
X0295987Y0048187D01*
X0296175Y0048000D01*
X0295987Y0047813D01*
X0295500Y0046637D01*
X0295500Y0045363D01*
X0295987Y0044187D01*
X0296887Y0043287D01*
X0298063Y0042800D01*
X0299337Y0042800D01*
X0300513Y0043287D01*
X0300819Y0043593D01*
X0300987Y0043187D01*
X0301887Y0042287D01*
X0303063Y0041800D01*
X0304337Y0041800D01*
X0305513Y0042287D01*
X0306413Y0043187D01*
X0306469Y0043323D01*
X0306903Y0042888D01*
X0310827Y0042888D01*
X0311765Y0043825D01*
X0311765Y0056175D01*
X0310827Y0057112D01*
X0306903Y0057112D01*
X0306762Y0056970D01*
X0306413Y0057813D01*
X0305700Y0058525D01*
X0305700Y0063047D01*
X0312473Y0069820D01*
X0314038Y0069820D01*
X0314975Y0070757D01*
X0314975Y0077603D01*
X0314038Y0078540D01*
X0310562Y0078540D01*
X0310060Y0078038D01*
X0309880Y0078218D01*
X0309880Y0081848D01*
X0308708Y0083020D01*
X0303349Y0088379D01*
X0257788Y0088379D01*
X0257788Y0088420D01*
X0256851Y0089357D01*
X0251589Y0089357D01*
X0250875Y0088643D01*
X0250638Y0088880D01*
X0248848Y0088880D01*
X0247878Y0089850D01*
X0313424Y0089850D01*
X0314772Y0088157D01*
X0318362Y0082506D01*
X0321119Y0076405D01*
X0322988Y0069976D01*
X0323932Y0063348D01*
X0324018Y0060918D01*
X0323337Y0061200D01*
X0322900Y0061200D01*
X0322900Y0062237D01*
X0322413Y0063413D01*
X0321513Y0064313D01*
X0320337Y0064800D01*
X0319100Y0064800D01*
X0319100Y0064837D01*
X0318613Y0066013D01*
X0317713Y0066913D01*
X0316537Y0067400D01*
X0315263Y0067400D01*
X0314087Y0066913D01*
X0313187Y0066013D01*
X0312700Y0064837D01*
X0312700Y0063828D01*
X0312500Y0063628D01*
X0312500Y0050972D01*
X0313872Y0049600D01*
X0313500Y0049228D01*
X0312300Y0048028D01*
X0312300Y0042791D01*
X0311559Y0042000D01*
X0310663Y0042000D01*
X0309487Y0041513D01*
X0308587Y0040613D01*
X0308100Y0039437D01*
X0308100Y0038163D01*
X0308587Y0036987D01*
X0309487Y0036087D01*
X0310663Y0035600D01*
X0311937Y0035600D01*
X0313113Y0036087D01*
X0313900Y0036875D01*
X0314687Y0036087D01*
X0315863Y0035600D01*
X0317137Y0035600D01*
X0317155Y0035607D01*
X0316340Y0034102D01*
X0311537Y0027931D01*
X0305783Y0022634D01*
X0299236Y0018357D01*
X0292075Y0015216D01*
X0284494Y0013296D01*
X0276700Y0012650D01*
X0268906Y0013296D01*
X0261325Y0015216D01*
X0254164Y0018357D01*
X0247617Y0022634D01*
X0248622Y0021978D02*
X0304778Y0021978D01*
X0303556Y0021179D02*
X0249844Y0021179D01*
X0251066Y0020381D02*
X0302334Y0020381D01*
X0301111Y0019582D02*
X0252289Y0019582D01*
X0253511Y0018784D02*
X0299889Y0018784D01*
X0298389Y0017985D02*
X0255011Y0017985D01*
X0256832Y0017187D02*
X0296568Y0017187D01*
X0294748Y0016388D02*
X0258652Y0016388D01*
X0260473Y0015590D02*
X0292927Y0015590D01*
X0290398Y0014791D02*
X0263002Y0014791D01*
X0266155Y0013993D02*
X0287245Y0013993D01*
X0283266Y0013194D02*
X0270134Y0013194D01*
X0262259Y0032676D02*
X0258571Y0032676D01*
X0258343Y0032904D01*
X0258237Y0032876D01*
X0255500Y0032876D01*
X0255500Y0038600D01*
X0257834Y0038600D01*
X0257834Y0039000D01*
X0260415Y0039000D01*
X0260415Y0039000D01*
X0262996Y0039000D01*
X0262996Y0038028D01*
X0262901Y0037672D01*
X0262716Y0037353D01*
X0262536Y0037173D01*
X0263196Y0036513D01*
X0263196Y0033613D01*
X0262259Y0032676D01*
X0262740Y0033157D02*
X0315604Y0033157D01*
X0316226Y0033955D02*
X0263196Y0033955D01*
X0263196Y0034754D02*
X0316693Y0034754D01*
X0317125Y0035552D02*
X0263196Y0035552D01*
X0263196Y0036351D02*
X0309224Y0036351D01*
X0308520Y0037149D02*
X0262560Y0037149D01*
X0262975Y0037948D02*
X0308189Y0037948D01*
X0308100Y0038746D02*
X0262996Y0038746D01*
X0262996Y0039545D02*
X0308145Y0039545D01*
X0308476Y0040343D02*
X0262892Y0040343D01*
X0262851Y0041142D02*
X0309116Y0041142D01*
X0310520Y0041940D02*
X0304676Y0041940D01*
X0305964Y0042739D02*
X0312251Y0042739D01*
X0312300Y0043537D02*
X0311477Y0043537D01*
X0311765Y0044336D02*
X0312300Y0044336D01*
X0312300Y0045134D02*
X0311765Y0045134D01*
X0311765Y0045933D02*
X0312300Y0045933D01*
X0312300Y0046732D02*
X0311765Y0046732D01*
X0311765Y0047530D02*
X0312300Y0047530D01*
X0312600Y0048329D02*
X0311765Y0048329D01*
X0311765Y0049127D02*
X0313399Y0049127D01*
X0313546Y0049926D02*
X0311765Y0049926D01*
X0311765Y0050724D02*
X0312747Y0050724D01*
X0312500Y0051523D02*
X0311765Y0051523D01*
X0311765Y0052321D02*
X0312500Y0052321D01*
X0312500Y0053120D02*
X0311765Y0053120D01*
X0311765Y0053918D02*
X0312500Y0053918D01*
X0312500Y0054717D02*
X0311765Y0054717D01*
X0311765Y0055515D02*
X0312500Y0055515D01*
X0312500Y0056314D02*
X0311625Y0056314D01*
X0312500Y0057112D02*
X0306703Y0057112D01*
X0306315Y0057911D02*
X0312500Y0057911D01*
X0312500Y0058709D02*
X0305700Y0058709D01*
X0305700Y0059508D02*
X0312500Y0059508D01*
X0312500Y0060306D02*
X0305700Y0060306D01*
X0305700Y0061105D02*
X0312500Y0061105D01*
X0312500Y0061903D02*
X0305700Y0061903D01*
X0305700Y0062702D02*
X0312500Y0062702D01*
X0312500Y0063500D02*
X0306154Y0063500D01*
X0306952Y0064299D02*
X0312700Y0064299D01*
X0312808Y0065097D02*
X0307751Y0065097D01*
X0308549Y0065896D02*
X0313139Y0065896D01*
X0313869Y0066694D02*
X0309348Y0066694D01*
X0310146Y0067493D02*
X0323342Y0067493D01*
X0323228Y0068291D02*
X0310945Y0068291D01*
X0311743Y0069090D02*
X0323114Y0069090D01*
X0323000Y0069888D02*
X0314106Y0069888D01*
X0314905Y0070687D02*
X0322781Y0070687D01*
X0322549Y0071485D02*
X0314975Y0071485D01*
X0314975Y0072284D02*
X0322317Y0072284D01*
X0322085Y0073082D02*
X0314975Y0073082D01*
X0314975Y0073881D02*
X0321853Y0073881D01*
X0321620Y0074679D02*
X0314975Y0074679D01*
X0314975Y0075478D02*
X0321388Y0075478D01*
X0321156Y0076276D02*
X0314975Y0076276D01*
X0314975Y0077075D02*
X0320816Y0077075D01*
X0320455Y0077873D02*
X0314704Y0077873D01*
X0312300Y0075885D02*
X0307940Y0075885D01*
X0307880Y0075825D01*
X0307880Y0081020D01*
X0302521Y0086379D01*
X0275121Y0086379D01*
X0278455Y0083045D01*
X0282900Y0083045D01*
X0287964Y0083045D01*
X0289070Y0081939D01*
X0289070Y0079380D02*
X0289070Y0076821D01*
X0289070Y0076821D01*
X0285111Y0076821D01*
X0285111Y0077748D01*
X0285095Y0077720D01*
X0284835Y0077460D01*
X0284515Y0077275D01*
X0284159Y0077180D01*
X0283027Y0077180D01*
X0283027Y0079507D01*
X0282772Y0079507D01*
X0282772Y0077180D01*
X0281641Y0077180D01*
X0281285Y0077275D01*
X0280965Y0077460D01*
X0280705Y0077720D01*
X0280520Y0078040D01*
X0280425Y0078396D01*
X0280425Y0079507D01*
X0282772Y0079507D01*
X0282772Y0079762D01*
X0280425Y0079762D01*
X0280425Y0080874D01*
X0280471Y0081045D01*
X0277627Y0081045D01*
X0276900Y0081772D01*
X0276900Y0069972D01*
X0275728Y0068800D01*
X0273528Y0066600D01*
X0269672Y0066600D01*
X0268500Y0067772D01*
X0266352Y0069920D01*
X0266352Y0066125D01*
X0267064Y0065413D01*
X0267552Y0064237D01*
X0267552Y0062963D01*
X0267064Y0061787D01*
X0266164Y0060887D01*
X0264988Y0060400D01*
X0263715Y0060400D01*
X0262539Y0060887D01*
X0261639Y0061787D01*
X0261500Y0062122D01*
X0261500Y0061228D01*
X0264128Y0058600D01*
X0297700Y0058600D01*
X0297700Y0071662D01*
X0294929Y0074434D01*
X0292148Y0074434D01*
X0291919Y0074662D01*
X0291814Y0074634D01*
X0289070Y0074634D01*
X0289070Y0076821D01*
X0285111Y0076821D01*
X0285111Y0075849D01*
X0285207Y0075493D01*
X0285391Y0075174D01*
X0285652Y0074913D01*
X0285971Y0074729D01*
X0286327Y0074634D01*
X0289070Y0074634D01*
X0289070Y0076821D01*
X0289070Y0079008D01*
X0289070Y0079380D01*
X0289070Y0079380D01*
X0289070Y0078672D02*
X0289070Y0078672D01*
X0289070Y0077873D02*
X0289070Y0077873D01*
X0289070Y0077075D02*
X0289070Y0077075D01*
X0289070Y0076821D02*
X0289070Y0076821D01*
X0289070Y0076821D01*
X0289070Y0076276D02*
X0289070Y0076276D01*
X0289070Y0075478D02*
X0289070Y0075478D01*
X0289070Y0074679D02*
X0289070Y0074679D01*
X0286156Y0074679D02*
X0276900Y0074679D01*
X0276900Y0073881D02*
X0295481Y0073881D01*
X0296280Y0073082D02*
X0276900Y0073082D01*
X0276900Y0072284D02*
X0297078Y0072284D01*
X0297700Y0071485D02*
X0276900Y0071485D01*
X0276900Y0070687D02*
X0297700Y0070687D01*
X0297700Y0069888D02*
X0276817Y0069888D01*
X0276018Y0069090D02*
X0297700Y0069090D01*
X0297700Y0068291D02*
X0275220Y0068291D01*
X0274421Y0067493D02*
X0297700Y0067493D01*
X0297700Y0066694D02*
X0273623Y0066694D01*
X0272700Y0068600D02*
X0274900Y0070800D01*
X0274900Y0084579D01*
X0273100Y0086379D01*
X0275121Y0086379D01*
X0273100Y0086379D02*
X0268289Y0086379D01*
X0268289Y0082011D01*
X0266320Y0082011D02*
X0266320Y0086379D01*
X0268289Y0086379D01*
X0266320Y0086379D02*
X0261100Y0086379D01*
X0261100Y0082506D01*
X0261989Y0081617D01*
X0264352Y0082011D02*
X0264352Y0079548D01*
X0266300Y0077600D01*
X0266320Y0077600D01*
X0266320Y0073349D01*
X0266320Y0069380D01*
X0269700Y0066000D01*
X0269700Y0063400D01*
X0265900Y0059600D01*
X0263900Y0059600D01*
X0261500Y0062000D01*
X0261500Y0066600D01*
X0261989Y0067089D01*
X0261989Y0073743D01*
X0261989Y0073423D02*
X0261989Y0071654D01*
X0261500Y0071654D01*
X0261500Y0065078D01*
X0261639Y0065413D01*
X0262352Y0066125D01*
X0262352Y0071413D01*
X0262111Y0071654D01*
X0261989Y0071654D01*
X0261989Y0073423D01*
X0261989Y0073423D01*
X0261989Y0073082D02*
X0261989Y0073082D01*
X0261989Y0072284D02*
X0261989Y0072284D01*
X0262279Y0071485D02*
X0261500Y0071485D01*
X0261500Y0070687D02*
X0262352Y0070687D01*
X0262352Y0069888D02*
X0261500Y0069888D01*
X0261500Y0069090D02*
X0262352Y0069090D01*
X0262352Y0068291D02*
X0261500Y0068291D01*
X0261500Y0067493D02*
X0262352Y0067493D01*
X0262352Y0066694D02*
X0261500Y0066694D01*
X0261500Y0065896D02*
X0262122Y0065896D01*
X0261508Y0065097D02*
X0261500Y0065097D01*
X0259500Y0064800D02*
X0259500Y0060400D01*
X0263300Y0056600D01*
X0297100Y0056600D01*
X0299700Y0054000D01*
X0299700Y0063400D01*
X0299700Y0064235D01*
X0307880Y0072415D01*
X0312300Y0072475D02*
X0303700Y0063875D01*
X0303700Y0056000D01*
X0306550Y0053150D01*
X0308865Y0053150D01*
X0308865Y0051575D02*
X0302125Y0051575D01*
X0299700Y0054000D01*
X0296500Y0053918D02*
X0251447Y0053918D01*
X0252245Y0054717D02*
X0262355Y0054717D01*
X0261556Y0055515D02*
X0253044Y0055515D01*
X0253842Y0056314D02*
X0260758Y0056314D01*
X0259959Y0057112D02*
X0254641Y0057112D01*
X0255439Y0057911D02*
X0259161Y0057911D01*
X0258362Y0058709D02*
X0256238Y0058709D01*
X0257036Y0059508D02*
X0257564Y0059508D01*
X0261624Y0061105D02*
X0262321Y0061105D01*
X0262422Y0060306D02*
X0297700Y0060306D01*
X0297700Y0059508D02*
X0263221Y0059508D01*
X0264019Y0058709D02*
X0297700Y0058709D01*
X0297700Y0061105D02*
X0266382Y0061105D01*
X0267112Y0061903D02*
X0297700Y0061903D01*
X0297700Y0062702D02*
X0267443Y0062702D01*
X0267552Y0063500D02*
X0297700Y0063500D01*
X0297700Y0064299D02*
X0267526Y0064299D01*
X0267195Y0065097D02*
X0297700Y0065097D01*
X0297700Y0065896D02*
X0266581Y0065896D01*
X0266352Y0066694D02*
X0269577Y0066694D01*
X0268779Y0067493D02*
X0266352Y0067493D01*
X0266352Y0068291D02*
X0267980Y0068291D01*
X0267182Y0069090D02*
X0266352Y0069090D01*
X0266352Y0069888D02*
X0266383Y0069888D01*
X0268289Y0070811D02*
X0270500Y0068600D01*
X0272700Y0068600D01*
X0268289Y0070811D02*
X0268289Y0073349D01*
X0268189Y0075711D02*
X0266300Y0077600D01*
X0268348Y0079648D01*
X0270651Y0079648D01*
X0270651Y0079969D02*
X0270651Y0081617D01*
X0270651Y0081617D01*
X0270651Y0083706D01*
X0271819Y0083706D01*
X0272175Y0083611D01*
X0272495Y0083426D01*
X0272755Y0083166D01*
X0272900Y0082915D01*
X0272900Y0083751D01*
X0272272Y0084379D01*
X0270289Y0084379D01*
X0270289Y0083947D01*
X0270529Y0083706D01*
X0270651Y0083706D01*
X0270651Y0081617D01*
X0270651Y0079969D01*
X0270651Y0079969D01*
X0270651Y0080269D02*
X0270651Y0080269D01*
X0270651Y0081068D02*
X0270651Y0081068D01*
X0270651Y0081617D02*
X0270651Y0081617D01*
X0270651Y0081866D02*
X0270651Y0081866D01*
X0270651Y0082665D02*
X0270651Y0082665D01*
X0270651Y0083463D02*
X0270651Y0083463D01*
X0270289Y0084262D02*
X0272389Y0084262D01*
X0272431Y0083463D02*
X0272900Y0083463D01*
X0276900Y0081068D02*
X0277604Y0081068D01*
X0276900Y0080269D02*
X0280425Y0080269D01*
X0280425Y0079470D02*
X0276900Y0079470D01*
X0276900Y0078672D02*
X0280425Y0078672D01*
X0280616Y0077873D02*
X0276900Y0077873D01*
X0276900Y0077075D02*
X0285111Y0077075D01*
X0285111Y0076276D02*
X0276900Y0076276D01*
X0276900Y0075478D02*
X0285216Y0075478D01*
X0283027Y0077873D02*
X0282772Y0077873D01*
X0282772Y0078672D02*
X0283027Y0078672D01*
X0283027Y0079470D02*
X0282772Y0079470D01*
X0270651Y0075711D02*
X0268189Y0075711D01*
X0268266Y0075934D02*
X0266937Y0075934D01*
X0266737Y0075734D01*
X0266320Y0075734D01*
X0266320Y0075317D01*
X0266320Y0075734D01*
X0265903Y0075734D01*
X0265703Y0075934D01*
X0264574Y0075934D01*
X0264574Y0079626D01*
X0264768Y0079626D01*
X0264968Y0079426D01*
X0268266Y0079426D01*
X0268266Y0079232D01*
X0268066Y0079032D01*
X0268066Y0076328D01*
X0268266Y0076128D01*
X0268266Y0075934D01*
X0268118Y0076276D02*
X0264574Y0076276D01*
X0264574Y0077075D02*
X0268066Y0077075D01*
X0268066Y0077873D02*
X0264574Y0077873D01*
X0264574Y0078672D02*
X0268066Y0078672D01*
X0264924Y0079470D02*
X0264574Y0079470D01*
X0266320Y0075478D02*
X0266320Y0075478D01*
X0266320Y0075317D02*
X0266320Y0075317D01*
X0266320Y0075317D01*
X0264352Y0073349D02*
X0264352Y0063600D01*
X0261591Y0061903D02*
X0261500Y0061903D01*
X0259500Y0064800D02*
X0247900Y0053200D01*
X0247900Y0044822D01*
X0249785Y0042937D01*
X0251819Y0045134D02*
X0258381Y0045134D01*
X0260805Y0045933D02*
X0249900Y0045933D01*
X0249900Y0046732D02*
X0261100Y0046732D01*
X0261222Y0047530D02*
X0256256Y0047530D01*
X0256013Y0047287D02*
X0254837Y0046800D01*
X0253563Y0046800D01*
X0252387Y0047287D01*
X0251487Y0048187D01*
X0251000Y0049363D01*
X0251000Y0050637D01*
X0251487Y0051813D01*
X0252387Y0052713D01*
X0253563Y0053200D01*
X0254837Y0053200D01*
X0256013Y0052713D01*
X0256913Y0051813D01*
X0257400Y0050637D01*
X0257400Y0049363D01*
X0256913Y0048187D01*
X0256013Y0047287D01*
X0256971Y0048329D02*
X0261552Y0048329D01*
X0262302Y0049127D02*
X0257302Y0049127D01*
X0257400Y0049926D02*
X0295500Y0049926D01*
X0295536Y0050724D02*
X0257364Y0050724D01*
X0257033Y0051523D02*
X0295867Y0051523D01*
X0296496Y0052321D02*
X0256404Y0052321D01*
X0255031Y0053120D02*
X0296601Y0053120D01*
X0298700Y0050000D02*
X0308865Y0050000D01*
X0308865Y0048425D02*
X0301125Y0048425D01*
X0298700Y0046000D01*
X0295870Y0047530D02*
X0267378Y0047530D01*
X0267500Y0046732D02*
X0295539Y0046732D01*
X0295500Y0045933D02*
X0267487Y0045933D01*
X0267157Y0045134D02*
X0295595Y0045134D01*
X0295926Y0044336D02*
X0266561Y0044336D01*
X0265268Y0043537D02*
X0296637Y0043537D01*
X0300763Y0043537D02*
X0300842Y0043537D01*
X0301436Y0042739D02*
X0263267Y0042739D01*
X0263196Y0041940D02*
X0302724Y0041940D01*
X0303700Y0045000D02*
X0305550Y0046850D01*
X0308865Y0046850D01*
X0314300Y0047200D02*
X0315500Y0048400D01*
X0319509Y0048400D01*
X0319535Y0048425D01*
X0319535Y0050000D02*
X0316300Y0050000D01*
X0314500Y0051800D01*
X0314500Y0062800D01*
X0315900Y0064200D01*
X0318661Y0065896D02*
X0323569Y0065896D01*
X0323455Y0066694D02*
X0317931Y0066694D01*
X0318992Y0065097D02*
X0323683Y0065097D01*
X0323796Y0064299D02*
X0321527Y0064299D01*
X0322325Y0063500D02*
X0323910Y0063500D01*
X0323955Y0062702D02*
X0322707Y0062702D01*
X0322900Y0061903D02*
X0323983Y0061903D01*
X0324011Y0061105D02*
X0323566Y0061105D01*
X0322700Y0058000D02*
X0323300Y0057400D01*
X0323300Y0054600D01*
X0321850Y0053150D01*
X0319535Y0053150D01*
X0319509Y0051600D02*
X0316700Y0051600D01*
X0316100Y0052200D01*
X0316100Y0058000D01*
X0319700Y0061600D01*
X0319509Y0051600D02*
X0319535Y0051575D01*
X0319535Y0046850D02*
X0317150Y0046850D01*
X0316500Y0046200D01*
X0316500Y0038800D01*
X0314424Y0036351D02*
X0313376Y0036351D01*
X0311300Y0038800D02*
X0314300Y0042000D01*
X0314300Y0047200D01*
X0314983Y0032358D02*
X0238417Y0032358D01*
X0239039Y0031560D02*
X0314361Y0031560D01*
X0313740Y0030761D02*
X0239660Y0030761D01*
X0240282Y0029963D02*
X0313118Y0029963D01*
X0312497Y0029164D02*
X0240903Y0029164D01*
X0241525Y0028366D02*
X0311875Y0028366D01*
X0311142Y0027567D02*
X0242258Y0027567D01*
X0243641Y0033040D02*
X0243285Y0033135D01*
X0242965Y0033320D01*
X0242705Y0033580D01*
X0242520Y0033900D01*
X0242425Y0034256D01*
X0242425Y0035367D01*
X0244772Y0035367D01*
X0244772Y0033040D01*
X0243641Y0033040D01*
X0243248Y0033157D02*
X0237796Y0033157D01*
X0237174Y0033955D02*
X0242505Y0033955D01*
X0242425Y0034754D02*
X0236707Y0034754D01*
X0236275Y0035552D02*
X0244772Y0035552D01*
X0244772Y0034754D02*
X0245027Y0034754D01*
X0245027Y0033955D02*
X0244772Y0033955D01*
X0244772Y0033157D02*
X0245027Y0033157D01*
X0246552Y0033157D02*
X0247460Y0033157D01*
X0242425Y0036351D02*
X0235843Y0036351D01*
X0235411Y0037149D02*
X0242263Y0037149D01*
X0242225Y0037948D02*
X0234979Y0037948D01*
X0234547Y0038746D02*
X0242225Y0038746D01*
X0242225Y0039545D02*
X0234115Y0039545D01*
X0233682Y0040343D02*
X0242225Y0040343D01*
X0242744Y0041142D02*
X0233282Y0041142D01*
X0233008Y0041940D02*
X0242900Y0041940D01*
X0242900Y0042739D02*
X0232734Y0042739D01*
X0232460Y0043537D02*
X0242900Y0043537D01*
X0242900Y0044336D02*
X0232186Y0044336D01*
X0231912Y0045134D02*
X0242900Y0045134D01*
X0242900Y0045933D02*
X0231638Y0045933D01*
X0231364Y0046732D02*
X0242900Y0046732D01*
X0242900Y0047530D02*
X0231089Y0047530D01*
X0230815Y0048329D02*
X0242900Y0048329D01*
X0242900Y0049127D02*
X0230674Y0049127D01*
X0230540Y0049926D02*
X0242900Y0049926D01*
X0242900Y0050724D02*
X0230407Y0050724D01*
X0230274Y0051523D02*
X0242900Y0051523D01*
X0242900Y0052321D02*
X0230141Y0052321D01*
X0230007Y0053120D02*
X0242900Y0053120D01*
X0242900Y0053918D02*
X0229874Y0053918D01*
X0229741Y0054717D02*
X0243188Y0054717D01*
X0243987Y0055515D02*
X0229608Y0055515D01*
X0229502Y0056314D02*
X0244785Y0056314D01*
X0245584Y0057112D02*
X0229469Y0057112D01*
X0229436Y0057911D02*
X0246382Y0057911D01*
X0247181Y0058709D02*
X0229403Y0058709D01*
X0229370Y0059508D02*
X0247979Y0059508D01*
X0248778Y0060306D02*
X0229361Y0060306D01*
X0229389Y0061105D02*
X0249328Y0061105D01*
X0248271Y0061903D02*
X0229417Y0061903D01*
X0229445Y0062702D02*
X0247774Y0062702D01*
X0247700Y0063500D02*
X0240200Y0056000D01*
X0237200Y0056000D01*
X0230700Y0062500D01*
X0230700Y0065500D01*
X0232050Y0066850D01*
X0233865Y0066850D01*
X0240700Y0066850D01*
X0240700Y0078400D01*
X0245115Y0082815D01*
X0248900Y0082815D01*
X0250454Y0081261D01*
X0254220Y0081261D01*
X0254509Y0081068D02*
X0259405Y0081068D01*
X0259405Y0080269D02*
X0257588Y0080269D01*
X0257588Y0079699D02*
X0257588Y0080972D01*
X0254509Y0080972D01*
X0254509Y0078483D01*
X0256373Y0078483D01*
X0256729Y0078578D01*
X0257048Y0078763D01*
X0257309Y0079023D01*
X0257493Y0079343D01*
X0257588Y0079699D01*
X0257527Y0079470D02*
X0259405Y0079470D01*
X0259405Y0078672D02*
X0256891Y0078672D01*
X0258947Y0077075D02*
X0251151Y0077075D01*
X0251635Y0076276D02*
X0258148Y0076276D01*
X0257500Y0075478D02*
X0254748Y0075478D01*
X0255468Y0074679D02*
X0257500Y0074679D01*
X0257500Y0073881D02*
X0255799Y0073881D01*
X0252700Y0073000D02*
X0251275Y0071575D01*
X0244535Y0071575D01*
X0244535Y0070000D02*
X0250700Y0070000D01*
X0252700Y0068000D01*
X0250700Y0066000D02*
X0250700Y0064000D01*
X0250700Y0066000D02*
X0248275Y0068425D01*
X0244535Y0068425D01*
X0244535Y0066850D02*
X0246350Y0066850D01*
X0247700Y0065500D01*
X0247700Y0063500D01*
X0247500Y0063500D02*
X0247109Y0063500D01*
X0247434Y0064299D02*
X0247500Y0064299D01*
X0247434Y0065097D02*
X0247691Y0065097D01*
X0247434Y0065896D02*
X0247976Y0065896D01*
X0244535Y0066850D02*
X0240700Y0066850D01*
X0241635Y0067493D02*
X0237221Y0067493D01*
X0236565Y0066694D02*
X0241835Y0066694D01*
X0241835Y0066850D02*
X0242095Y0066850D01*
X0242095Y0066850D01*
X0241835Y0066850D01*
X0241635Y0065896D02*
X0236765Y0065896D01*
X0236765Y0065097D02*
X0241635Y0065097D01*
X0241635Y0064299D02*
X0236765Y0064299D01*
X0236439Y0063500D02*
X0241961Y0063500D01*
X0241635Y0068291D02*
X0238020Y0068291D01*
X0238818Y0069090D02*
X0241635Y0069090D01*
X0241635Y0069888D02*
X0239617Y0069888D01*
X0238900Y0069172D02*
X0238900Y0069172D01*
X0236900Y0070000D02*
X0235325Y0068425D01*
X0233865Y0068425D01*
X0233865Y0070000D02*
X0236900Y0070000D01*
X0238900Y0072000D01*
X0238900Y0082800D01*
X0239700Y0083600D01*
X0236900Y0085400D02*
X0239500Y0088000D01*
X0242100Y0088000D01*
X0246900Y0088000D01*
X0248700Y0086200D01*
X0248875Y0086200D01*
X0248900Y0086225D01*
X0249054Y0086379D01*
X0254220Y0086379D01*
X0261100Y0086379D01*
X0259100Y0084262D02*
X0257712Y0084262D01*
X0257329Y0083463D02*
X0259100Y0083463D01*
X0259100Y0082665D02*
X0257588Y0082665D01*
X0257588Y0081866D02*
X0259100Y0081866D01*
X0259405Y0077873D02*
X0250125Y0077873D01*
X0251549Y0078672D02*
X0240900Y0078672D01*
X0240900Y0079470D02*
X0250913Y0079470D01*
X0250852Y0080269D02*
X0240900Y0080269D01*
X0241693Y0081068D02*
X0246608Y0081068D01*
X0246425Y0081866D02*
X0242445Y0081866D01*
X0242776Y0082665D02*
X0246425Y0082665D01*
X0246425Y0083463D02*
X0242900Y0083463D01*
X0242890Y0084262D02*
X0246471Y0084262D01*
X0246225Y0085060D02*
X0243364Y0085060D01*
X0244484Y0085859D02*
X0246213Y0085859D01*
X0248772Y0082665D02*
X0249027Y0082665D01*
X0249027Y0081866D02*
X0248772Y0081866D01*
X0248772Y0081068D02*
X0249027Y0081068D01*
X0247275Y0077873D02*
X0240900Y0077873D01*
X0240900Y0077075D02*
X0242536Y0077075D01*
X0241737Y0076276D02*
X0240900Y0076276D01*
X0240900Y0075478D02*
X0241635Y0075478D01*
X0241635Y0074679D02*
X0240900Y0074679D01*
X0240900Y0073881D02*
X0241635Y0073881D01*
X0241635Y0073082D02*
X0240900Y0073082D01*
X0240900Y0072284D02*
X0241635Y0072284D01*
X0241635Y0071485D02*
X0240900Y0071485D01*
X0240415Y0070687D02*
X0241635Y0070687D01*
X0244535Y0073150D02*
X0246850Y0073150D01*
X0248700Y0075000D01*
X0253931Y0078672D02*
X0254509Y0078672D01*
X0254509Y0079470D02*
X0253931Y0079470D01*
X0253931Y0080269D02*
X0254509Y0080269D01*
X0259500Y0074800D02*
X0260411Y0075711D01*
X0261989Y0075711D01*
X0259500Y0074800D02*
X0259500Y0064800D01*
X0256500Y0065200D02*
X0244900Y0053600D01*
X0244900Y0038905D01*
X0249690Y0038905D01*
X0249785Y0039000D01*
X0254700Y0039545D02*
X0255500Y0039545D01*
X0255500Y0040343D02*
X0254700Y0040343D01*
X0254700Y0041142D02*
X0255500Y0041142D01*
X0255500Y0041940D02*
X0254700Y0041940D01*
X0254700Y0042739D02*
X0255500Y0042739D01*
X0255500Y0043537D02*
X0254700Y0043537D01*
X0254700Y0044336D02*
X0255500Y0044336D01*
X0252144Y0047530D02*
X0249900Y0047530D01*
X0249900Y0048329D02*
X0251429Y0048329D01*
X0251098Y0049127D02*
X0249900Y0049127D01*
X0249900Y0049926D02*
X0251000Y0049926D01*
X0251036Y0050724D02*
X0249900Y0050724D01*
X0249900Y0051523D02*
X0251367Y0051523D01*
X0251996Y0052321D02*
X0249900Y0052321D01*
X0250648Y0053120D02*
X0253369Y0053120D01*
X0260637Y0042937D02*
X0264300Y0046600D01*
X0266298Y0049127D02*
X0295598Y0049127D01*
X0295929Y0048329D02*
X0267048Y0048329D01*
X0260637Y0042937D02*
X0260415Y0042937D01*
X0260415Y0039000D02*
X0260415Y0039000D01*
X0257834Y0038746D02*
X0255500Y0038746D01*
X0255500Y0037948D02*
X0254700Y0037948D01*
X0254700Y0037149D02*
X0255500Y0037149D01*
X0255500Y0036351D02*
X0254700Y0036351D01*
X0254700Y0035552D02*
X0255500Y0035552D01*
X0255500Y0034754D02*
X0254700Y0034754D01*
X0254700Y0033955D02*
X0255500Y0033955D01*
X0255500Y0033157D02*
X0254700Y0033157D01*
X0231291Y0063500D02*
X0229490Y0063500D01*
X0229604Y0064299D02*
X0230966Y0064299D01*
X0230966Y0065097D02*
X0229717Y0065097D01*
X0229831Y0065896D02*
X0230966Y0065896D01*
X0231166Y0066694D02*
X0229945Y0066694D01*
X0230058Y0067493D02*
X0230966Y0067493D01*
X0231166Y0066850D02*
X0231425Y0066850D01*
X0231426Y0066850D01*
X0231166Y0066850D01*
X0230966Y0068291D02*
X0230172Y0068291D01*
X0230286Y0069090D02*
X0230966Y0069090D01*
X0230966Y0069888D02*
X0230400Y0069888D01*
X0230619Y0070687D02*
X0230966Y0070687D01*
X0230966Y0071485D02*
X0230851Y0071485D01*
X0233865Y0071575D02*
X0234875Y0071575D01*
X0236450Y0073150D01*
X0233865Y0073150D01*
X0236450Y0073150D02*
X0236900Y0073600D01*
X0236900Y0085400D01*
X0248676Y0089053D02*
X0251284Y0089053D01*
X0257156Y0089053D02*
X0314059Y0089053D01*
X0314694Y0088254D02*
X0303474Y0088254D01*
X0304273Y0087456D02*
X0315217Y0087456D01*
X0315724Y0086657D02*
X0305071Y0086657D01*
X0305870Y0085859D02*
X0316231Y0085859D01*
X0316739Y0085060D02*
X0306668Y0085060D01*
X0307467Y0084262D02*
X0317246Y0084262D01*
X0317753Y0083463D02*
X0308265Y0083463D01*
X0309064Y0082665D02*
X0318261Y0082665D01*
X0318651Y0081866D02*
X0309862Y0081866D01*
X0309880Y0081068D02*
X0319012Y0081068D01*
X0319372Y0080269D02*
X0309880Y0080269D01*
X0309880Y0079470D02*
X0319733Y0079470D01*
X0320094Y0078672D02*
X0309880Y0078672D01*
X0303500Y0079800D02*
X0301361Y0081939D01*
X0295370Y0081939D01*
X0295700Y0081609D01*
X0295700Y0081600D01*
X0295370Y0076821D02*
X0299700Y0072491D01*
X0299700Y0064235D01*
X0256500Y0065200D02*
X0256500Y0070200D01*
D200*
X0256500Y0070200D03*
X0252700Y0068000D03*
X0250700Y0064000D03*
X0252700Y0073000D03*
X0248700Y0075000D03*
X0239700Y0083600D03*
X0242100Y0088000D03*
X0266300Y0077600D03*
X0279700Y0069000D03*
X0293700Y0069000D03*
X0303500Y0079800D03*
X0315900Y0064200D03*
X0319700Y0061600D03*
X0322700Y0058000D03*
X0303700Y0056000D03*
X0299700Y0054000D03*
X0298700Y0050000D03*
X0298700Y0046000D03*
X0293700Y0050000D03*
X0303700Y0045000D03*
X0311300Y0038800D03*
X0316500Y0038800D03*
X0298700Y0037000D03*
X0298700Y0026000D03*
X0280700Y0028500D03*
X0266700Y0034500D03*
X0264300Y0046600D03*
X0254200Y0050000D03*
X0238200Y0037000D03*
X0257700Y0022000D03*
X0279700Y0050000D03*
X0264352Y0063600D03*
X0237200Y0056000D03*
X0114500Y0010000D02*
G75*
%LPD*%
D137*
X0125865Y0066850D03*
X0125865Y0068425D03*
X0125865Y0070000D03*
X0125865Y0071575D03*
X0125865Y0073150D03*
X0136535Y0073150D03*
X0136535Y0071575D03*
X0136535Y0070000D03*
X0136535Y0068425D03*
X0136535Y0066850D03*
X0200865Y0053150D03*
X0200865Y0051575D03*
X0200865Y0050000D03*
X0200865Y0048425D03*
X0200865Y0046850D03*
X0211535Y0046850D03*
X0211535Y0048425D03*
X0211535Y0050000D03*
X0211535Y0051575D03*
X0211535Y0053150D03*
D213*
X0211535Y0054921D03*
X0200865Y0054921D03*
X0200865Y0045079D03*
X0211535Y0045079D03*
X0136535Y0065079D03*
X0125865Y0065079D03*
X0125865Y0074921D03*
X0136535Y0074921D03*
D207*
X0141785Y0042937D03*
X0141785Y0039000D03*
X0141785Y0035063D03*
X0152415Y0035063D03*
X0152415Y0039000D03*
X0152415Y0042937D03*
D68*
X0147100Y0039000D03*
D119*
X0181070Y0076821D03*
X0181070Y0079380D03*
X0181070Y0081939D03*
X0187370Y0081939D03*
X0187370Y0079380D03*
X0187370Y0076821D03*
D148*
X0162651Y0077680D03*
X0162651Y0075711D03*
X0162651Y0073743D03*
X0162651Y0079648D03*
X0162651Y0081617D03*
X0153989Y0081617D03*
X0153989Y0079648D03*
X0153989Y0077680D03*
X0153989Y0075711D03*
X0153989Y0073743D03*
D59*
X0156352Y0073349D03*
X0158320Y0073349D03*
X0160289Y0073349D03*
X0160289Y0082011D03*
X0158320Y0082011D03*
X0156352Y0082011D03*
D54*
X0146220Y0081261D03*
X0146220Y0086379D03*
D201*
X0140900Y0086225D03*
X0140900Y0082815D03*
X0174900Y0083045D03*
X0174900Y0079635D03*
X0199880Y0075825D03*
X0199880Y0072415D03*
X0204300Y0072475D03*
X0204300Y0075885D03*
X0136900Y0038905D03*
X0136900Y0035495D03*
D135*
X0135126Y0026769D02*
X0202274Y0026769D01*
X0201407Y0025970D02*
X0135993Y0025970D01*
X0136861Y0025172D02*
X0200539Y0025172D01*
X0199672Y0024373D02*
X0137728Y0024373D01*
X0138595Y0023575D02*
X0198805Y0023575D01*
X0197937Y0022776D02*
X0139463Y0022776D01*
X0139617Y0022634D02*
X0133863Y0027931D01*
X0129060Y0034102D01*
X0125338Y0040980D01*
X0122799Y0048376D01*
X0121512Y0056090D01*
X0121350Y0060000D01*
X0121350Y0060000D01*
X0121468Y0063348D01*
X0122412Y0069976D01*
X0122966Y0071882D01*
X0122966Y0067310D01*
X0123166Y0067110D01*
X0123166Y0066850D01*
X0123166Y0066532D01*
X0122966Y0066332D01*
X0122966Y0063825D01*
X0123903Y0062888D01*
X0127827Y0062888D01*
X0128765Y0063825D01*
X0128765Y0066332D01*
X0128565Y0066532D01*
X0128565Y0066836D01*
X0130900Y0069172D01*
X0131728Y0070000D01*
X0132900Y0071172D01*
X0132900Y0080633D01*
X0133513Y0080887D01*
X0134413Y0081787D01*
X0134900Y0082963D01*
X0134900Y0084237D01*
X0134667Y0084800D01*
X0134737Y0084800D01*
X0135913Y0085287D01*
X0136625Y0086000D01*
X0138072Y0086000D01*
X0138225Y0085847D01*
X0138225Y0084507D01*
X0138478Y0084254D01*
X0138425Y0084054D01*
X0138425Y0082943D01*
X0140772Y0082943D01*
X0140772Y0082688D01*
X0138425Y0082688D01*
X0138425Y0081576D01*
X0138520Y0081220D01*
X0138705Y0080900D01*
X0138965Y0080640D01*
X0139285Y0080455D01*
X0139641Y0080360D01*
X0140772Y0080360D01*
X0140772Y0082687D01*
X0141027Y0082687D01*
X0141027Y0080360D01*
X0142159Y0080360D01*
X0142515Y0080455D01*
X0142835Y0080640D01*
X0142852Y0080657D01*
X0142852Y0079699D01*
X0142947Y0079343D01*
X0143131Y0079023D01*
X0143392Y0078763D01*
X0143711Y0078578D01*
X0144067Y0078483D01*
X0145931Y0078483D01*
X0145931Y0080972D01*
X0146509Y0080972D01*
X0146509Y0081550D01*
X0149588Y0081550D01*
X0149588Y0082823D01*
X0149493Y0083179D01*
X0149309Y0083498D01*
X0149129Y0083679D01*
X0149788Y0084338D01*
X0149788Y0084379D01*
X0151100Y0084379D01*
X0151100Y0081678D01*
X0151405Y0081373D01*
X0151405Y0077533D01*
X0149500Y0075628D01*
X0149500Y0073249D01*
X0149137Y0073400D01*
X0147900Y0073400D01*
X0147900Y0073637D01*
X0147413Y0074813D01*
X0146513Y0075713D01*
X0145337Y0076200D01*
X0144063Y0076200D01*
X0143725Y0076060D01*
X0143413Y0076813D01*
X0142513Y0077713D01*
X0141337Y0078200D01*
X0140063Y0078200D01*
X0138887Y0077713D01*
X0138286Y0077112D01*
X0134573Y0077112D01*
X0133635Y0076175D01*
X0133635Y0067310D01*
X0133835Y0067110D01*
X0133835Y0066850D01*
X0133835Y0066532D01*
X0133635Y0066332D01*
X0133635Y0063825D01*
X0134573Y0062888D01*
X0138497Y0062888D01*
X0139434Y0063825D01*
X0139434Y0066332D01*
X0139341Y0066425D01*
X0139446Y0066425D01*
X0140023Y0065849D01*
X0139987Y0065813D01*
X0139500Y0064637D01*
X0139500Y0063363D01*
X0139987Y0062187D01*
X0140887Y0061287D01*
X0141504Y0061032D01*
X0136072Y0055600D01*
X0134900Y0054428D01*
X0134900Y0041298D01*
X0134225Y0040623D01*
X0134225Y0037187D01*
X0134478Y0036934D01*
X0134425Y0036734D01*
X0134425Y0035623D01*
X0136772Y0035623D01*
X0136772Y0035367D01*
X0137027Y0035367D01*
X0137027Y0033040D01*
X0138159Y0033040D01*
X0138515Y0033135D01*
X0138835Y0033320D01*
X0139066Y0033551D01*
X0139941Y0032676D01*
X0143629Y0032676D01*
X0143857Y0032904D01*
X0143963Y0032876D01*
X0146700Y0032876D01*
X0146700Y0038600D01*
X0147500Y0038600D01*
X0147500Y0039400D01*
X0149834Y0039400D01*
X0149834Y0039000D01*
X0152415Y0039000D01*
X0154996Y0039000D01*
X0154996Y0039972D01*
X0154901Y0040328D01*
X0154716Y0040647D01*
X0154536Y0040827D01*
X0155196Y0041487D01*
X0155196Y0042668D01*
X0155928Y0043400D01*
X0156937Y0043400D01*
X0158113Y0043887D01*
X0159013Y0044787D01*
X0159500Y0045963D01*
X0159500Y0047237D01*
X0159013Y0048413D01*
X0158113Y0049313D01*
X0156937Y0049800D01*
X0155663Y0049800D01*
X0154487Y0049313D01*
X0153587Y0048413D01*
X0153100Y0047237D01*
X0153100Y0046228D01*
X0152196Y0045324D01*
X0150571Y0045324D01*
X0150343Y0045096D01*
X0150237Y0045124D01*
X0147500Y0045124D01*
X0147500Y0039400D01*
X0146700Y0039400D01*
X0146700Y0045124D01*
X0143963Y0045124D01*
X0143857Y0045096D01*
X0143629Y0045324D01*
X0142226Y0045324D01*
X0141900Y0045650D01*
X0141900Y0052372D01*
X0149500Y0059972D01*
X0149500Y0059572D01*
X0153300Y0055772D01*
X0154472Y0054600D01*
X0188272Y0054600D01*
X0188500Y0054372D01*
X0188500Y0053363D01*
X0188804Y0052630D01*
X0187987Y0051813D01*
X0187500Y0050637D01*
X0187500Y0049363D01*
X0187987Y0048187D01*
X0188175Y0048000D01*
X0187987Y0047813D01*
X0187500Y0046637D01*
X0187500Y0045363D01*
X0187987Y0044187D01*
X0188887Y0043287D01*
X0190063Y0042800D01*
X0191337Y0042800D01*
X0192513Y0043287D01*
X0192819Y0043593D01*
X0192987Y0043187D01*
X0193887Y0042287D01*
X0195063Y0041800D01*
X0196337Y0041800D01*
X0197513Y0042287D01*
X0198413Y0043187D01*
X0198469Y0043323D01*
X0198903Y0042888D01*
X0202827Y0042888D01*
X0203765Y0043825D01*
X0203765Y0056175D01*
X0202827Y0057112D01*
X0198903Y0057112D01*
X0198762Y0056970D01*
X0198413Y0057813D01*
X0197700Y0058525D01*
X0197700Y0063047D01*
X0204473Y0069820D01*
X0206038Y0069820D01*
X0206975Y0070757D01*
X0206975Y0077603D01*
X0206038Y0078540D01*
X0202562Y0078540D01*
X0202060Y0078038D01*
X0201880Y0078218D01*
X0201880Y0081848D01*
X0200708Y0083020D01*
X0195349Y0088379D01*
X0149788Y0088379D01*
X0149788Y0088420D01*
X0148851Y0089357D01*
X0143589Y0089357D01*
X0142875Y0088643D01*
X0142638Y0088880D01*
X0140848Y0088880D01*
X0139878Y0089850D01*
X0205424Y0089850D01*
X0206772Y0088157D01*
X0210362Y0082506D01*
X0213119Y0076405D01*
X0214988Y0069976D01*
X0215932Y0063348D01*
X0216018Y0060918D01*
X0215337Y0061200D01*
X0214900Y0061200D01*
X0214900Y0062237D01*
X0214413Y0063413D01*
X0213513Y0064313D01*
X0212337Y0064800D01*
X0211100Y0064800D01*
X0211100Y0064837D01*
X0210613Y0066013D01*
X0209713Y0066913D01*
X0208537Y0067400D01*
X0207263Y0067400D01*
X0206087Y0066913D01*
X0205187Y0066013D01*
X0204700Y0064837D01*
X0204700Y0063828D01*
X0204500Y0063628D01*
X0204500Y0050972D01*
X0205872Y0049600D01*
X0205500Y0049228D01*
X0204300Y0048028D01*
X0204300Y0042791D01*
X0203559Y0042000D01*
X0202663Y0042000D01*
X0201487Y0041513D01*
X0200587Y0040613D01*
X0200100Y0039437D01*
X0200100Y0038163D01*
X0200587Y0036987D01*
X0201487Y0036087D01*
X0202663Y0035600D01*
X0203937Y0035600D01*
X0205113Y0036087D01*
X0205900Y0036875D01*
X0206687Y0036087D01*
X0207863Y0035600D01*
X0209137Y0035600D01*
X0209155Y0035607D01*
X0208340Y0034102D01*
X0203537Y0027931D01*
X0197783Y0022634D01*
X0191236Y0018357D01*
X0184075Y0015216D01*
X0176494Y0013296D01*
X0168700Y0012650D01*
X0160906Y0013296D01*
X0153325Y0015216D01*
X0146164Y0018357D01*
X0139617Y0022634D01*
X0140622Y0021978D02*
X0196778Y0021978D01*
X0195556Y0021179D02*
X0141844Y0021179D01*
X0143066Y0020381D02*
X0194334Y0020381D01*
X0193111Y0019582D02*
X0144289Y0019582D01*
X0145511Y0018784D02*
X0191889Y0018784D01*
X0190389Y0017985D02*
X0147011Y0017985D01*
X0148832Y0017187D02*
X0188568Y0017187D01*
X0186748Y0016388D02*
X0150652Y0016388D01*
X0152473Y0015590D02*
X0184927Y0015590D01*
X0182398Y0014791D02*
X0155002Y0014791D01*
X0158155Y0013993D02*
X0179245Y0013993D01*
X0175266Y0013194D02*
X0162134Y0013194D01*
X0154259Y0032676D02*
X0150571Y0032676D01*
X0150343Y0032904D01*
X0150237Y0032876D01*
X0147500Y0032876D01*
X0147500Y0038600D01*
X0149834Y0038600D01*
X0149834Y0039000D01*
X0152415Y0039000D01*
X0152415Y0039000D01*
X0154996Y0039000D01*
X0154996Y0038028D01*
X0154901Y0037672D01*
X0154716Y0037353D01*
X0154536Y0037173D01*
X0155196Y0036513D01*
X0155196Y0033613D01*
X0154259Y0032676D01*
X0154740Y0033157D02*
X0207604Y0033157D01*
X0208226Y0033955D02*
X0155196Y0033955D01*
X0155196Y0034754D02*
X0208693Y0034754D01*
X0209125Y0035552D02*
X0155196Y0035552D01*
X0155196Y0036351D02*
X0201224Y0036351D01*
X0200520Y0037149D02*
X0154560Y0037149D01*
X0154975Y0037948D02*
X0200189Y0037948D01*
X0200100Y0038746D02*
X0154996Y0038746D01*
X0154996Y0039545D02*
X0200145Y0039545D01*
X0200476Y0040343D02*
X0154892Y0040343D01*
X0154851Y0041142D02*
X0201116Y0041142D01*
X0202520Y0041940D02*
X0196676Y0041940D01*
X0197964Y0042739D02*
X0204251Y0042739D01*
X0204300Y0043537D02*
X0203477Y0043537D01*
X0203765Y0044336D02*
X0204300Y0044336D01*
X0204300Y0045134D02*
X0203765Y0045134D01*
X0203765Y0045933D02*
X0204300Y0045933D01*
X0204300Y0046732D02*
X0203765Y0046732D01*
X0203765Y0047530D02*
X0204300Y0047530D01*
X0204600Y0048329D02*
X0203765Y0048329D01*
X0203765Y0049127D02*
X0205399Y0049127D01*
X0205546Y0049926D02*
X0203765Y0049926D01*
X0203765Y0050724D02*
X0204747Y0050724D01*
X0204500Y0051523D02*
X0203765Y0051523D01*
X0203765Y0052321D02*
X0204500Y0052321D01*
X0204500Y0053120D02*
X0203765Y0053120D01*
X0203765Y0053918D02*
X0204500Y0053918D01*
X0204500Y0054717D02*
X0203765Y0054717D01*
X0203765Y0055515D02*
X0204500Y0055515D01*
X0204500Y0056314D02*
X0203625Y0056314D01*
X0204500Y0057112D02*
X0198703Y0057112D01*
X0198315Y0057911D02*
X0204500Y0057911D01*
X0204500Y0058709D02*
X0197700Y0058709D01*
X0197700Y0059508D02*
X0204500Y0059508D01*
X0204500Y0060306D02*
X0197700Y0060306D01*
X0197700Y0061105D02*
X0204500Y0061105D01*
X0204500Y0061903D02*
X0197700Y0061903D01*
X0197700Y0062702D02*
X0204500Y0062702D01*
X0204500Y0063500D02*
X0198154Y0063500D01*
X0198952Y0064299D02*
X0204700Y0064299D01*
X0204808Y0065097D02*
X0199751Y0065097D01*
X0200549Y0065896D02*
X0205139Y0065896D01*
X0205869Y0066694D02*
X0201348Y0066694D01*
X0202146Y0067493D02*
X0215342Y0067493D01*
X0215228Y0068291D02*
X0202945Y0068291D01*
X0203743Y0069090D02*
X0215114Y0069090D01*
X0215000Y0069888D02*
X0206106Y0069888D01*
X0206905Y0070687D02*
X0214781Y0070687D01*
X0214549Y0071485D02*
X0206975Y0071485D01*
X0206975Y0072284D02*
X0214317Y0072284D01*
X0214085Y0073082D02*
X0206975Y0073082D01*
X0206975Y0073881D02*
X0213853Y0073881D01*
X0213620Y0074679D02*
X0206975Y0074679D01*
X0206975Y0075478D02*
X0213388Y0075478D01*
X0213156Y0076276D02*
X0206975Y0076276D01*
X0206975Y0077075D02*
X0212816Y0077075D01*
X0212455Y0077873D02*
X0206704Y0077873D01*
X0204300Y0075885D02*
X0199940Y0075885D01*
X0199880Y0075825D01*
X0199880Y0081020D01*
X0194521Y0086379D01*
X0167121Y0086379D01*
X0170455Y0083045D01*
X0174900Y0083045D01*
X0179964Y0083045D01*
X0181070Y0081939D01*
X0181070Y0079380D02*
X0181070Y0076821D01*
X0181070Y0076821D01*
X0177111Y0076821D01*
X0177111Y0077748D01*
X0177095Y0077720D01*
X0176835Y0077460D01*
X0176515Y0077275D01*
X0176159Y0077180D01*
X0175027Y0077180D01*
X0175027Y0079507D01*
X0174772Y0079507D01*
X0174772Y0077180D01*
X0173641Y0077180D01*
X0173285Y0077275D01*
X0172965Y0077460D01*
X0172705Y0077720D01*
X0172520Y0078040D01*
X0172425Y0078396D01*
X0172425Y0079507D01*
X0174772Y0079507D01*
X0174772Y0079762D01*
X0172425Y0079762D01*
X0172425Y0080874D01*
X0172471Y0081045D01*
X0169627Y0081045D01*
X0168900Y0081772D01*
X0168900Y0069972D01*
X0167728Y0068800D01*
X0165528Y0066600D01*
X0161672Y0066600D01*
X0160500Y0067772D01*
X0158352Y0069920D01*
X0158352Y0066125D01*
X0159064Y0065413D01*
X0159552Y0064237D01*
X0159552Y0062963D01*
X0159064Y0061787D01*
X0158164Y0060887D01*
X0156988Y0060400D01*
X0155715Y0060400D01*
X0154539Y0060887D01*
X0153639Y0061787D01*
X0153500Y0062122D01*
X0153500Y0061228D01*
X0156128Y0058600D01*
X0189700Y0058600D01*
X0189700Y0071662D01*
X0186929Y0074434D01*
X0184148Y0074434D01*
X0183919Y0074662D01*
X0183814Y0074634D01*
X0181070Y0074634D01*
X0181070Y0076821D01*
X0177111Y0076821D01*
X0177111Y0075849D01*
X0177207Y0075493D01*
X0177391Y0075174D01*
X0177652Y0074913D01*
X0177971Y0074729D01*
X0178327Y0074634D01*
X0181070Y0074634D01*
X0181070Y0076821D01*
X0181070Y0079008D01*
X0181070Y0079380D01*
X0181070Y0079380D01*
X0181070Y0078672D02*
X0181070Y0078672D01*
X0181070Y0077873D02*
X0181070Y0077873D01*
X0181070Y0077075D02*
X0181070Y0077075D01*
X0181070Y0076821D02*
X0181070Y0076821D01*
X0181070Y0076821D01*
X0181070Y0076276D02*
X0181070Y0076276D01*
X0181070Y0075478D02*
X0181070Y0075478D01*
X0181070Y0074679D02*
X0181070Y0074679D01*
X0178156Y0074679D02*
X0168900Y0074679D01*
X0168900Y0073881D02*
X0187481Y0073881D01*
X0188280Y0073082D02*
X0168900Y0073082D01*
X0168900Y0072284D02*
X0189078Y0072284D01*
X0189700Y0071485D02*
X0168900Y0071485D01*
X0168900Y0070687D02*
X0189700Y0070687D01*
X0189700Y0069888D02*
X0168817Y0069888D01*
X0168018Y0069090D02*
X0189700Y0069090D01*
X0189700Y0068291D02*
X0167220Y0068291D01*
X0166421Y0067493D02*
X0189700Y0067493D01*
X0189700Y0066694D02*
X0165623Y0066694D01*
X0164700Y0068600D02*
X0166900Y0070800D01*
X0166900Y0084579D01*
X0165100Y0086379D01*
X0167121Y0086379D01*
X0165100Y0086379D02*
X0160289Y0086379D01*
X0160289Y0082011D01*
X0158320Y0082011D02*
X0158320Y0086379D01*
X0160289Y0086379D01*
X0158320Y0086379D02*
X0153100Y0086379D01*
X0153100Y0082506D01*
X0153989Y0081617D01*
X0156352Y0082011D02*
X0156352Y0079548D01*
X0158300Y0077600D01*
X0158320Y0077600D01*
X0158320Y0073349D01*
X0158320Y0069380D01*
X0161700Y0066000D01*
X0161700Y0063400D01*
X0157900Y0059600D01*
X0155900Y0059600D01*
X0153500Y0062000D01*
X0153500Y0066600D01*
X0153989Y0067089D01*
X0153989Y0073743D01*
X0153989Y0073423D02*
X0153989Y0071654D01*
X0153500Y0071654D01*
X0153500Y0065078D01*
X0153639Y0065413D01*
X0154352Y0066125D01*
X0154352Y0071413D01*
X0154111Y0071654D01*
X0153989Y0071654D01*
X0153989Y0073423D01*
X0153989Y0073423D01*
X0153989Y0073082D02*
X0153989Y0073082D01*
X0153989Y0072284D02*
X0153989Y0072284D01*
X0154279Y0071485D02*
X0153500Y0071485D01*
X0153500Y0070687D02*
X0154352Y0070687D01*
X0154352Y0069888D02*
X0153500Y0069888D01*
X0153500Y0069090D02*
X0154352Y0069090D01*
X0154352Y0068291D02*
X0153500Y0068291D01*
X0153500Y0067493D02*
X0154352Y0067493D01*
X0154352Y0066694D02*
X0153500Y0066694D01*
X0153500Y0065896D02*
X0154122Y0065896D01*
X0153508Y0065097D02*
X0153500Y0065097D01*
X0151500Y0064800D02*
X0151500Y0060400D01*
X0155300Y0056600D01*
X0189100Y0056600D01*
X0191700Y0054000D01*
X0191700Y0063400D01*
X0191700Y0064235D01*
X0199880Y0072415D01*
X0204300Y0072475D02*
X0195700Y0063875D01*
X0195700Y0056000D01*
X0198550Y0053150D01*
X0200865Y0053150D01*
X0200865Y0051575D02*
X0194125Y0051575D01*
X0191700Y0054000D01*
X0188500Y0053918D02*
X0143447Y0053918D01*
X0144245Y0054717D02*
X0154355Y0054717D01*
X0153556Y0055515D02*
X0145044Y0055515D01*
X0145842Y0056314D02*
X0152758Y0056314D01*
X0151959Y0057112D02*
X0146641Y0057112D01*
X0147439Y0057911D02*
X0151161Y0057911D01*
X0150362Y0058709D02*
X0148238Y0058709D01*
X0149036Y0059508D02*
X0149564Y0059508D01*
X0153624Y0061105D02*
X0154321Y0061105D01*
X0154422Y0060306D02*
X0189700Y0060306D01*
X0189700Y0059508D02*
X0155221Y0059508D01*
X0156019Y0058709D02*
X0189700Y0058709D01*
X0189700Y0061105D02*
X0158382Y0061105D01*
X0159112Y0061903D02*
X0189700Y0061903D01*
X0189700Y0062702D02*
X0159443Y0062702D01*
X0159552Y0063500D02*
X0189700Y0063500D01*
X0189700Y0064299D02*
X0159526Y0064299D01*
X0159195Y0065097D02*
X0189700Y0065097D01*
X0189700Y0065896D02*
X0158581Y0065896D01*
X0158352Y0066694D02*
X0161577Y0066694D01*
X0160779Y0067493D02*
X0158352Y0067493D01*
X0158352Y0068291D02*
X0159980Y0068291D01*
X0159182Y0069090D02*
X0158352Y0069090D01*
X0158352Y0069888D02*
X0158383Y0069888D01*
X0160289Y0070811D02*
X0162500Y0068600D01*
X0164700Y0068600D01*
X0160289Y0070811D02*
X0160289Y0073349D01*
X0160189Y0075711D02*
X0158300Y0077600D01*
X0160348Y0079648D01*
X0162651Y0079648D01*
X0162651Y0079969D02*
X0162651Y0081617D01*
X0162651Y0081617D01*
X0162651Y0083706D01*
X0163819Y0083706D01*
X0164175Y0083611D01*
X0164495Y0083426D01*
X0164755Y0083166D01*
X0164900Y0082915D01*
X0164900Y0083751D01*
X0164272Y0084379D01*
X0162289Y0084379D01*
X0162289Y0083947D01*
X0162529Y0083706D01*
X0162651Y0083706D01*
X0162651Y0081617D01*
X0162651Y0079969D01*
X0162651Y0079969D01*
X0162651Y0080269D02*
X0162651Y0080269D01*
X0162651Y0081068D02*
X0162651Y0081068D01*
X0162651Y0081617D02*
X0162651Y0081617D01*
X0162651Y0081866D02*
X0162651Y0081866D01*
X0162651Y0082665D02*
X0162651Y0082665D01*
X0162651Y0083463D02*
X0162651Y0083463D01*
X0162289Y0084262D02*
X0164389Y0084262D01*
X0164431Y0083463D02*
X0164900Y0083463D01*
X0168900Y0081068D02*
X0169604Y0081068D01*
X0168900Y0080269D02*
X0172425Y0080269D01*
X0172425Y0079470D02*
X0168900Y0079470D01*
X0168900Y0078672D02*
X0172425Y0078672D01*
X0172616Y0077873D02*
X0168900Y0077873D01*
X0168900Y0077075D02*
X0177111Y0077075D01*
X0177111Y0076276D02*
X0168900Y0076276D01*
X0168900Y0075478D02*
X0177216Y0075478D01*
X0175027Y0077873D02*
X0174772Y0077873D01*
X0174772Y0078672D02*
X0175027Y0078672D01*
X0175027Y0079470D02*
X0174772Y0079470D01*
X0162651Y0075711D02*
X0160189Y0075711D01*
X0160266Y0075934D02*
X0158937Y0075934D01*
X0158737Y0075734D01*
X0158320Y0075734D01*
X0158320Y0075317D01*
X0158320Y0075734D01*
X0157903Y0075734D01*
X0157703Y0075934D01*
X0156574Y0075934D01*
X0156574Y0079626D01*
X0156768Y0079626D01*
X0156968Y0079426D01*
X0160266Y0079426D01*
X0160266Y0079232D01*
X0160066Y0079032D01*
X0160066Y0076328D01*
X0160266Y0076128D01*
X0160266Y0075934D01*
X0160118Y0076276D02*
X0156574Y0076276D01*
X0156574Y0077075D02*
X0160066Y0077075D01*
X0160066Y0077873D02*
X0156574Y0077873D01*
X0156574Y0078672D02*
X0160066Y0078672D01*
X0156924Y0079470D02*
X0156574Y0079470D01*
X0158320Y0075478D02*
X0158320Y0075478D01*
X0158320Y0075317D02*
X0158320Y0075317D01*
X0158320Y0075317D01*
X0156352Y0073349D02*
X0156352Y0063600D01*
X0153591Y0061903D02*
X0153500Y0061903D01*
X0151500Y0064800D02*
X0139900Y0053200D01*
X0139900Y0044822D01*
X0141785Y0042937D01*
X0143819Y0045134D02*
X0150381Y0045134D01*
X0152805Y0045933D02*
X0141900Y0045933D01*
X0141900Y0046732D02*
X0153100Y0046732D01*
X0153222Y0047530D02*
X0148256Y0047530D01*
X0148013Y0047287D02*
X0146837Y0046800D01*
X0145563Y0046800D01*
X0144387Y0047287D01*
X0143487Y0048187D01*
X0143000Y0049363D01*
X0143000Y0050637D01*
X0143487Y0051813D01*
X0144387Y0052713D01*
X0145563Y0053200D01*
X0146837Y0053200D01*
X0148013Y0052713D01*
X0148913Y0051813D01*
X0149400Y0050637D01*
X0149400Y0049363D01*
X0148913Y0048187D01*
X0148013Y0047287D01*
X0148971Y0048329D02*
X0153552Y0048329D01*
X0154302Y0049127D02*
X0149302Y0049127D01*
X0149400Y0049926D02*
X0187500Y0049926D01*
X0187536Y0050724D02*
X0149364Y0050724D01*
X0149033Y0051523D02*
X0187867Y0051523D01*
X0188496Y0052321D02*
X0148404Y0052321D01*
X0147031Y0053120D02*
X0188601Y0053120D01*
X0190700Y0050000D02*
X0200865Y0050000D01*
X0200865Y0048425D02*
X0193125Y0048425D01*
X0190700Y0046000D01*
X0187870Y0047530D02*
X0159378Y0047530D01*
X0159500Y0046732D02*
X0187539Y0046732D01*
X0187500Y0045933D02*
X0159487Y0045933D01*
X0159157Y0045134D02*
X0187595Y0045134D01*
X0187926Y0044336D02*
X0158561Y0044336D01*
X0157268Y0043537D02*
X0188637Y0043537D01*
X0192763Y0043537D02*
X0192842Y0043537D01*
X0193436Y0042739D02*
X0155267Y0042739D01*
X0155196Y0041940D02*
X0194724Y0041940D01*
X0195700Y0045000D02*
X0197550Y0046850D01*
X0200865Y0046850D01*
X0206300Y0047200D02*
X0207500Y0048400D01*
X0211509Y0048400D01*
X0211535Y0048425D01*
X0211535Y0050000D02*
X0208300Y0050000D01*
X0206500Y0051800D01*
X0206500Y0062800D01*
X0207900Y0064200D01*
X0210661Y0065896D02*
X0215569Y0065896D01*
X0215455Y0066694D02*
X0209931Y0066694D01*
X0210992Y0065097D02*
X0215683Y0065097D01*
X0215796Y0064299D02*
X0213527Y0064299D01*
X0214325Y0063500D02*
X0215910Y0063500D01*
X0215955Y0062702D02*
X0214707Y0062702D01*
X0214900Y0061903D02*
X0215983Y0061903D01*
X0216011Y0061105D02*
X0215566Y0061105D01*
X0214700Y0058000D02*
X0215300Y0057400D01*
X0215300Y0054600D01*
X0213850Y0053150D01*
X0211535Y0053150D01*
X0211509Y0051600D02*
X0208700Y0051600D01*
X0208100Y0052200D01*
X0208100Y0058000D01*
X0211700Y0061600D01*
X0211509Y0051600D02*
X0211535Y0051575D01*
X0211535Y0046850D02*
X0209150Y0046850D01*
X0208500Y0046200D01*
X0208500Y0038800D01*
X0206424Y0036351D02*
X0205376Y0036351D01*
X0203300Y0038800D02*
X0206300Y0042000D01*
X0206300Y0047200D01*
X0206983Y0032358D02*
X0130417Y0032358D01*
X0131039Y0031560D02*
X0206361Y0031560D01*
X0205740Y0030761D02*
X0131660Y0030761D01*
X0132282Y0029963D02*
X0205118Y0029963D01*
X0204497Y0029164D02*
X0132903Y0029164D01*
X0133525Y0028366D02*
X0203875Y0028366D01*
X0203142Y0027567D02*
X0134258Y0027567D01*
X0135641Y0033040D02*
X0135285Y0033135D01*
X0134965Y0033320D01*
X0134705Y0033580D01*
X0134520Y0033900D01*
X0134425Y0034256D01*
X0134425Y0035367D01*
X0136772Y0035367D01*
X0136772Y0033040D01*
X0135641Y0033040D01*
X0135248Y0033157D02*
X0129796Y0033157D01*
X0129174Y0033955D02*
X0134505Y0033955D01*
X0134425Y0034754D02*
X0128707Y0034754D01*
X0128275Y0035552D02*
X0136772Y0035552D01*
X0136772Y0034754D02*
X0137027Y0034754D01*
X0137027Y0033955D02*
X0136772Y0033955D01*
X0136772Y0033157D02*
X0137027Y0033157D01*
X0138552Y0033157D02*
X0139460Y0033157D01*
X0134425Y0036351D02*
X0127843Y0036351D01*
X0127411Y0037149D02*
X0134263Y0037149D01*
X0134225Y0037948D02*
X0126979Y0037948D01*
X0126547Y0038746D02*
X0134225Y0038746D01*
X0134225Y0039545D02*
X0126115Y0039545D01*
X0125682Y0040343D02*
X0134225Y0040343D01*
X0134744Y0041142D02*
X0125282Y0041142D01*
X0125008Y0041940D02*
X0134900Y0041940D01*
X0134900Y0042739D02*
X0124734Y0042739D01*
X0124460Y0043537D02*
X0134900Y0043537D01*
X0134900Y0044336D02*
X0124186Y0044336D01*
X0123912Y0045134D02*
X0134900Y0045134D01*
X0134900Y0045933D02*
X0123638Y0045933D01*
X0123364Y0046732D02*
X0134900Y0046732D01*
X0134900Y0047530D02*
X0123089Y0047530D01*
X0122815Y0048329D02*
X0134900Y0048329D01*
X0134900Y0049127D02*
X0122674Y0049127D01*
X0122540Y0049926D02*
X0134900Y0049926D01*
X0134900Y0050724D02*
X0122407Y0050724D01*
X0122274Y0051523D02*
X0134900Y0051523D01*
X0134900Y0052321D02*
X0122141Y0052321D01*
X0122007Y0053120D02*
X0134900Y0053120D01*
X0134900Y0053918D02*
X0121874Y0053918D01*
X0121741Y0054717D02*
X0135188Y0054717D01*
X0135987Y0055515D02*
X0121608Y0055515D01*
X0121502Y0056314D02*
X0136785Y0056314D01*
X0137584Y0057112D02*
X0121469Y0057112D01*
X0121436Y0057911D02*
X0138382Y0057911D01*
X0139181Y0058709D02*
X0121403Y0058709D01*
X0121370Y0059508D02*
X0139979Y0059508D01*
X0140778Y0060306D02*
X0121361Y0060306D01*
X0121389Y0061105D02*
X0141328Y0061105D01*
X0140271Y0061903D02*
X0121417Y0061903D01*
X0121445Y0062702D02*
X0139774Y0062702D01*
X0139700Y0063500D02*
X0132200Y0056000D01*
X0129200Y0056000D01*
X0122700Y0062500D01*
X0122700Y0065500D01*
X0124050Y0066850D01*
X0125865Y0066850D01*
X0132700Y0066850D01*
X0132700Y0078400D01*
X0137115Y0082815D01*
X0140900Y0082815D01*
X0142454Y0081261D01*
X0146220Y0081261D01*
X0146509Y0081068D02*
X0151405Y0081068D01*
X0151405Y0080269D02*
X0149588Y0080269D01*
X0149588Y0079699D02*
X0149588Y0080972D01*
X0146509Y0080972D01*
X0146509Y0078483D01*
X0148373Y0078483D01*
X0148729Y0078578D01*
X0149048Y0078763D01*
X0149309Y0079023D01*
X0149493Y0079343D01*
X0149588Y0079699D01*
X0149527Y0079470D02*
X0151405Y0079470D01*
X0151405Y0078672D02*
X0148891Y0078672D01*
X0150947Y0077075D02*
X0143151Y0077075D01*
X0143635Y0076276D02*
X0150148Y0076276D01*
X0149500Y0075478D02*
X0146748Y0075478D01*
X0147468Y0074679D02*
X0149500Y0074679D01*
X0149500Y0073881D02*
X0147799Y0073881D01*
X0144700Y0073000D02*
X0143275Y0071575D01*
X0136535Y0071575D01*
X0136535Y0070000D02*
X0142700Y0070000D01*
X0144700Y0068000D01*
X0142700Y0066000D02*
X0142700Y0064000D01*
X0142700Y0066000D02*
X0140275Y0068425D01*
X0136535Y0068425D01*
X0136535Y0066850D02*
X0138350Y0066850D01*
X0139700Y0065500D01*
X0139700Y0063500D01*
X0139500Y0063500D02*
X0139109Y0063500D01*
X0139434Y0064299D02*
X0139500Y0064299D01*
X0139434Y0065097D02*
X0139691Y0065097D01*
X0139434Y0065896D02*
X0139976Y0065896D01*
X0136535Y0066850D02*
X0132700Y0066850D01*
X0133635Y0067493D02*
X0129221Y0067493D01*
X0128565Y0066694D02*
X0133835Y0066694D01*
X0133835Y0066850D02*
X0134095Y0066850D01*
X0134095Y0066850D01*
X0133835Y0066850D01*
X0133635Y0065896D02*
X0128765Y0065896D01*
X0128765Y0065097D02*
X0133635Y0065097D01*
X0133635Y0064299D02*
X0128765Y0064299D01*
X0128439Y0063500D02*
X0133961Y0063500D01*
X0133635Y0068291D02*
X0130020Y0068291D01*
X0130818Y0069090D02*
X0133635Y0069090D01*
X0133635Y0069888D02*
X0131617Y0069888D01*
X0130900Y0069172D02*
X0130900Y0069172D01*
X0128900Y0070000D02*
X0127325Y0068425D01*
X0125865Y0068425D01*
X0125865Y0070000D02*
X0128900Y0070000D01*
X0130900Y0072000D01*
X0130900Y0082800D01*
X0131700Y0083600D01*
X0128900Y0085400D02*
X0131500Y0088000D01*
X0134100Y0088000D01*
X0138900Y0088000D01*
X0140700Y0086200D01*
X0140875Y0086200D01*
X0140900Y0086225D01*
X0141054Y0086379D01*
X0146220Y0086379D01*
X0153100Y0086379D01*
X0151100Y0084262D02*
X0149712Y0084262D01*
X0149329Y0083463D02*
X0151100Y0083463D01*
X0151100Y0082665D02*
X0149588Y0082665D01*
X0149588Y0081866D02*
X0151100Y0081866D01*
X0151405Y0077873D02*
X0142125Y0077873D01*
X0143549Y0078672D02*
X0132900Y0078672D01*
X0132900Y0079470D02*
X0142913Y0079470D01*
X0142852Y0080269D02*
X0132900Y0080269D01*
X0133693Y0081068D02*
X0138608Y0081068D01*
X0138425Y0081866D02*
X0134445Y0081866D01*
X0134776Y0082665D02*
X0138425Y0082665D01*
X0138425Y0083463D02*
X0134900Y0083463D01*
X0134890Y0084262D02*
X0138471Y0084262D01*
X0138225Y0085060D02*
X0135364Y0085060D01*
X0136484Y0085859D02*
X0138213Y0085859D01*
X0140772Y0082665D02*
X0141027Y0082665D01*
X0141027Y0081866D02*
X0140772Y0081866D01*
X0140772Y0081068D02*
X0141027Y0081068D01*
X0139275Y0077873D02*
X0132900Y0077873D01*
X0132900Y0077075D02*
X0134536Y0077075D01*
X0133737Y0076276D02*
X0132900Y0076276D01*
X0132900Y0075478D02*
X0133635Y0075478D01*
X0133635Y0074679D02*
X0132900Y0074679D01*
X0132900Y0073881D02*
X0133635Y0073881D01*
X0133635Y0073082D02*
X0132900Y0073082D01*
X0132900Y0072284D02*
X0133635Y0072284D01*
X0133635Y0071485D02*
X0132900Y0071485D01*
X0132415Y0070687D02*
X0133635Y0070687D01*
X0136535Y0073150D02*
X0138850Y0073150D01*
X0140700Y0075000D01*
X0145931Y0078672D02*
X0146509Y0078672D01*
X0146509Y0079470D02*
X0145931Y0079470D01*
X0145931Y0080269D02*
X0146509Y0080269D01*
X0151500Y0074800D02*
X0152411Y0075711D01*
X0153989Y0075711D01*
X0151500Y0074800D02*
X0151500Y0064800D01*
X0148500Y0065200D02*
X0136900Y0053600D01*
X0136900Y0038905D01*
X0141690Y0038905D01*
X0141785Y0039000D01*
X0146700Y0039545D02*
X0147500Y0039545D01*
X0147500Y0040343D02*
X0146700Y0040343D01*
X0146700Y0041142D02*
X0147500Y0041142D01*
X0147500Y0041940D02*
X0146700Y0041940D01*
X0146700Y0042739D02*
X0147500Y0042739D01*
X0147500Y0043537D02*
X0146700Y0043537D01*
X0146700Y0044336D02*
X0147500Y0044336D01*
X0144144Y0047530D02*
X0141900Y0047530D01*
X0141900Y0048329D02*
X0143429Y0048329D01*
X0143098Y0049127D02*
X0141900Y0049127D01*
X0141900Y0049926D02*
X0143000Y0049926D01*
X0143036Y0050724D02*
X0141900Y0050724D01*
X0141900Y0051523D02*
X0143367Y0051523D01*
X0143996Y0052321D02*
X0141900Y0052321D01*
X0142648Y0053120D02*
X0145369Y0053120D01*
X0152637Y0042937D02*
X0156300Y0046600D01*
X0158298Y0049127D02*
X0187598Y0049127D01*
X0187929Y0048329D02*
X0159048Y0048329D01*
X0152637Y0042937D02*
X0152415Y0042937D01*
X0152415Y0039000D02*
X0152415Y0039000D01*
X0149834Y0038746D02*
X0147500Y0038746D01*
X0147500Y0037948D02*
X0146700Y0037948D01*
X0146700Y0037149D02*
X0147500Y0037149D01*
X0147500Y0036351D02*
X0146700Y0036351D01*
X0146700Y0035552D02*
X0147500Y0035552D01*
X0147500Y0034754D02*
X0146700Y0034754D01*
X0146700Y0033955D02*
X0147500Y0033955D01*
X0147500Y0033157D02*
X0146700Y0033157D01*
X0123291Y0063500D02*
X0121490Y0063500D01*
X0121604Y0064299D02*
X0122966Y0064299D01*
X0122966Y0065097D02*
X0121717Y0065097D01*
X0121831Y0065896D02*
X0122966Y0065896D01*
X0123166Y0066694D02*
X0121945Y0066694D01*
X0122058Y0067493D02*
X0122966Y0067493D01*
X0123166Y0066850D02*
X0123425Y0066850D01*
X0123426Y0066850D01*
X0123166Y0066850D01*
X0122966Y0068291D02*
X0122172Y0068291D01*
X0122286Y0069090D02*
X0122966Y0069090D01*
X0122966Y0069888D02*
X0122400Y0069888D01*
X0122619Y0070687D02*
X0122966Y0070687D01*
X0122966Y0071485D02*
X0122851Y0071485D01*
X0125865Y0071575D02*
X0126875Y0071575D01*
X0128450Y0073150D01*
X0125865Y0073150D01*
X0128450Y0073150D02*
X0128900Y0073600D01*
X0128900Y0085400D01*
X0140676Y0089053D02*
X0143284Y0089053D01*
X0149156Y0089053D02*
X0206059Y0089053D01*
X0206694Y0088254D02*
X0195474Y0088254D01*
X0196273Y0087456D02*
X0207217Y0087456D01*
X0207724Y0086657D02*
X0197071Y0086657D01*
X0197870Y0085859D02*
X0208231Y0085859D01*
X0208739Y0085060D02*
X0198668Y0085060D01*
X0199467Y0084262D02*
X0209246Y0084262D01*
X0209753Y0083463D02*
X0200265Y0083463D01*
X0201064Y0082665D02*
X0210261Y0082665D01*
X0210651Y0081866D02*
X0201862Y0081866D01*
X0201880Y0081068D02*
X0211012Y0081068D01*
X0211372Y0080269D02*
X0201880Y0080269D01*
X0201880Y0079470D02*
X0211733Y0079470D01*
X0212094Y0078672D02*
X0201880Y0078672D01*
X0195500Y0079800D02*
X0193361Y0081939D01*
X0187370Y0081939D01*
X0187700Y0081609D01*
X0187700Y0081600D01*
X0187370Y0076821D02*
X0191700Y0072491D01*
X0191700Y0064235D01*
X0148500Y0065200D02*
X0148500Y0070200D01*
D200*
X0148500Y0070200D03*
X0144700Y0068000D03*
X0142700Y0064000D03*
X0144700Y0073000D03*
X0140700Y0075000D03*
X0131700Y0083600D03*
X0134100Y0088000D03*
X0158300Y0077600D03*
X0171700Y0069000D03*
X0185700Y0069000D03*
X0195500Y0079800D03*
X0207900Y0064200D03*
X0211700Y0061600D03*
X0214700Y0058000D03*
X0195700Y0056000D03*
X0191700Y0054000D03*
X0190700Y0050000D03*
X0190700Y0046000D03*
X0185700Y0050000D03*
X0195700Y0045000D03*
X0203300Y0038800D03*
X0208500Y0038800D03*
X0190700Y0037000D03*
X0190700Y0026000D03*
X0172700Y0028500D03*
X0158700Y0034500D03*
X0156300Y0046600D03*
X0146200Y0050000D03*
X0130200Y0037000D03*
X0149700Y0022000D03*
X0171700Y0050000D03*
X0156352Y0063600D03*
X0129200Y0056000D03*
X0222700Y0097000D02*
G75*
%LPD*%
D137*
X0319735Y0127550D03*
X0319735Y0125975D03*
X0319735Y0124400D03*
X0319735Y0122825D03*
X0319735Y0121250D03*
X0309065Y0121250D03*
X0309065Y0122825D03*
X0309065Y0124400D03*
X0309065Y0125975D03*
X0309065Y0127550D03*
X0244735Y0141250D03*
X0244735Y0142825D03*
X0244735Y0144400D03*
X0244735Y0145975D03*
X0244735Y0147550D03*
X0234065Y0147550D03*
X0234065Y0145975D03*
X0234065Y0144400D03*
X0234065Y0142825D03*
X0234065Y0141250D03*
D213*
X0234065Y0139479D03*
X0244735Y0139479D03*
X0244735Y0149321D03*
X0234065Y0149321D03*
X0309065Y0129321D03*
X0319735Y0129321D03*
X0319735Y0119479D03*
X0309065Y0119479D03*
D207*
X0303815Y0151463D03*
X0303815Y0155400D03*
X0303815Y0159337D03*
X0293185Y0159337D03*
X0293185Y0155400D03*
X0293185Y0151463D03*
D68*
X0298500Y0155400D03*
D119*
X0264530Y0117579D03*
X0264530Y0115020D03*
X0264530Y0112461D03*
X0258230Y0112461D03*
X0258230Y0115020D03*
X0258230Y0117579D03*
D148*
X0282949Y0116720D03*
X0282949Y0118689D03*
X0282949Y0120657D03*
X0282949Y0114752D03*
X0282949Y0112783D03*
X0291611Y0112783D03*
X0291611Y0114752D03*
X0291611Y0116720D03*
X0291611Y0118689D03*
X0291611Y0120657D03*
D59*
X0289248Y0121051D03*
X0287280Y0121051D03*
X0285311Y0121051D03*
X0285311Y0112389D03*
X0287280Y0112389D03*
X0289248Y0112389D03*
D54*
X0299380Y0113139D03*
X0299380Y0108021D03*
D201*
X0304700Y0108175D03*
X0304700Y0111585D03*
X0270700Y0111355D03*
X0270700Y0114765D03*
X0245720Y0118575D03*
X0245720Y0121985D03*
X0241300Y0121925D03*
X0241300Y0118515D03*
X0308700Y0155495D03*
X0308700Y0158905D03*
D135*
X0310474Y0167631D02*
X0243326Y0167631D01*
X0244193Y0168430D02*
X0309607Y0168430D01*
X0308739Y0169228D02*
X0245061Y0169228D01*
X0245928Y0170027D02*
X0307872Y0170027D01*
X0307005Y0170825D02*
X0246795Y0170825D01*
X0247663Y0171624D02*
X0306137Y0171624D01*
X0305983Y0171766D02*
X0311737Y0166469D01*
X0316540Y0160298D01*
X0320262Y0153420D01*
X0322801Y0146024D01*
X0324088Y0138310D01*
X0324250Y0134400D01*
X0324250Y0134400D01*
X0324132Y0131052D01*
X0323188Y0124424D01*
X0322634Y0122518D01*
X0322634Y0127090D01*
X0322434Y0127290D01*
X0322434Y0127550D01*
X0322434Y0127868D01*
X0322634Y0128068D01*
X0322634Y0130575D01*
X0321697Y0131512D01*
X0317773Y0131512D01*
X0316835Y0130575D01*
X0316835Y0128068D01*
X0317035Y0127868D01*
X0317035Y0127564D01*
X0314700Y0125228D01*
X0313872Y0124400D01*
X0312700Y0123228D01*
X0312700Y0113767D01*
X0312087Y0113513D01*
X0311187Y0112613D01*
X0310700Y0111437D01*
X0310700Y0110163D01*
X0310933Y0109600D01*
X0310863Y0109600D01*
X0309687Y0109113D01*
X0308975Y0108400D01*
X0307528Y0108400D01*
X0307375Y0108553D01*
X0307375Y0109893D01*
X0307122Y0110146D01*
X0307175Y0110346D01*
X0307175Y0111457D01*
X0304828Y0111457D01*
X0304828Y0111712D01*
X0307175Y0111712D01*
X0307175Y0112824D01*
X0307080Y0113180D01*
X0306895Y0113500D01*
X0306635Y0113760D01*
X0306315Y0113945D01*
X0305959Y0114040D01*
X0304828Y0114040D01*
X0304828Y0111713D01*
X0304573Y0111713D01*
X0304573Y0114040D01*
X0303441Y0114040D01*
X0303085Y0113945D01*
X0302765Y0113760D01*
X0302748Y0113743D01*
X0302748Y0114701D01*
X0302653Y0115057D01*
X0302469Y0115377D01*
X0302208Y0115637D01*
X0301889Y0115822D01*
X0301533Y0115917D01*
X0299669Y0115917D01*
X0299669Y0113428D01*
X0299091Y0113428D01*
X0299091Y0112850D01*
X0296012Y0112850D01*
X0296012Y0111577D01*
X0296107Y0111221D01*
X0296291Y0110902D01*
X0296471Y0110721D01*
X0295812Y0110062D01*
X0295812Y0110021D01*
X0294500Y0110021D01*
X0294500Y0112722D01*
X0294195Y0113027D01*
X0294195Y0116867D01*
X0296100Y0118772D01*
X0296100Y0121151D01*
X0296463Y0121000D01*
X0297700Y0121000D01*
X0297700Y0120763D01*
X0298187Y0119587D01*
X0299087Y0118687D01*
X0300263Y0118200D01*
X0301537Y0118200D01*
X0301875Y0118340D01*
X0302187Y0117587D01*
X0303087Y0116687D01*
X0304263Y0116200D01*
X0305537Y0116200D01*
X0306713Y0116687D01*
X0307314Y0117288D01*
X0311027Y0117288D01*
X0311965Y0118225D01*
X0311965Y0127090D01*
X0311765Y0127290D01*
X0311765Y0127550D01*
X0311765Y0127868D01*
X0311965Y0128068D01*
X0311965Y0130575D01*
X0311027Y0131512D01*
X0307103Y0131512D01*
X0306166Y0130575D01*
X0306166Y0128068D01*
X0306259Y0127975D01*
X0306154Y0127975D01*
X0305577Y0128551D01*
X0305613Y0128587D01*
X0306100Y0129763D01*
X0306100Y0131037D01*
X0305613Y0132213D01*
X0304713Y0133113D01*
X0304096Y0133368D01*
X0309528Y0138800D01*
X0310700Y0139972D01*
X0310700Y0153102D01*
X0311375Y0153777D01*
X0311375Y0157213D01*
X0311122Y0157466D01*
X0311175Y0157666D01*
X0311175Y0158777D01*
X0308828Y0158777D01*
X0308828Y0159033D01*
X0308573Y0159033D01*
X0308573Y0161360D01*
X0307441Y0161360D01*
X0307085Y0161265D01*
X0306765Y0161080D01*
X0306534Y0160849D01*
X0305659Y0161724D01*
X0301971Y0161724D01*
X0301743Y0161496D01*
X0301637Y0161524D01*
X0298900Y0161524D01*
X0298900Y0155800D01*
X0298100Y0155800D01*
X0298100Y0155000D01*
X0295766Y0155000D01*
X0295766Y0155400D01*
X0293185Y0155400D01*
X0290604Y0155400D01*
X0290604Y0154428D01*
X0290699Y0154072D01*
X0290884Y0153753D01*
X0291064Y0153573D01*
X0290404Y0152913D01*
X0290404Y0151732D01*
X0289672Y0151000D01*
X0288663Y0151000D01*
X0287487Y0150513D01*
X0286587Y0149613D01*
X0286100Y0148437D01*
X0286100Y0147163D01*
X0286587Y0145987D01*
X0287487Y0145087D01*
X0288663Y0144600D01*
X0289937Y0144600D01*
X0291113Y0145087D01*
X0292013Y0145987D01*
X0292500Y0147163D01*
X0292500Y0148172D01*
X0293404Y0149076D01*
X0295029Y0149076D01*
X0295257Y0149304D01*
X0295363Y0149276D01*
X0298100Y0149276D01*
X0298100Y0155000D01*
X0298900Y0155000D01*
X0298900Y0149276D01*
X0301637Y0149276D01*
X0301743Y0149304D01*
X0301971Y0149076D01*
X0303374Y0149076D01*
X0303700Y0148750D01*
X0303700Y0142028D01*
X0296100Y0134428D01*
X0296100Y0134828D01*
X0292300Y0138628D01*
X0291128Y0139800D01*
X0257328Y0139800D01*
X0257100Y0140028D01*
X0257100Y0141037D01*
X0256796Y0141770D01*
X0257613Y0142587D01*
X0258100Y0143763D01*
X0258100Y0145037D01*
X0257613Y0146213D01*
X0257425Y0146400D01*
X0257613Y0146587D01*
X0258100Y0147763D01*
X0258100Y0149037D01*
X0257613Y0150213D01*
X0256713Y0151113D01*
X0255537Y0151600D01*
X0254263Y0151600D01*
X0253087Y0151113D01*
X0252781Y0150807D01*
X0252613Y0151213D01*
X0251713Y0152113D01*
X0250537Y0152600D01*
X0249263Y0152600D01*
X0248087Y0152113D01*
X0247187Y0151213D01*
X0247131Y0151077D01*
X0246697Y0151512D01*
X0242773Y0151512D01*
X0241835Y0150575D01*
X0241835Y0138225D01*
X0242773Y0137288D01*
X0246697Y0137288D01*
X0246838Y0137430D01*
X0247187Y0136587D01*
X0247900Y0135875D01*
X0247900Y0131353D01*
X0241127Y0124580D01*
X0239562Y0124580D01*
X0238625Y0123643D01*
X0238625Y0116797D01*
X0239562Y0115860D01*
X0243038Y0115860D01*
X0243540Y0116362D01*
X0243720Y0116182D01*
X0243720Y0112552D01*
X0244892Y0111380D01*
X0250251Y0106021D01*
X0295812Y0106021D01*
X0295812Y0105980D01*
X0296749Y0105043D01*
X0302011Y0105043D01*
X0302725Y0105757D01*
X0302962Y0105520D01*
X0304752Y0105520D01*
X0305722Y0104550D01*
X0240176Y0104550D01*
X0238828Y0106243D01*
X0235238Y0111894D01*
X0232481Y0117995D01*
X0230612Y0124424D01*
X0229668Y0131052D01*
X0229582Y0133482D01*
X0230263Y0133200D01*
X0230700Y0133200D01*
X0230700Y0132163D01*
X0231187Y0130987D01*
X0232087Y0130087D01*
X0233263Y0129600D01*
X0234500Y0129600D01*
X0234500Y0129563D01*
X0234987Y0128387D01*
X0235887Y0127487D01*
X0237063Y0127000D01*
X0238337Y0127000D01*
X0239513Y0127487D01*
X0240413Y0128387D01*
X0240900Y0129563D01*
X0240900Y0130572D01*
X0241100Y0130772D01*
X0241100Y0143428D01*
X0239728Y0144800D01*
X0240100Y0145172D01*
X0241300Y0146372D01*
X0241300Y0151609D01*
X0242041Y0152400D01*
X0242937Y0152400D01*
X0244113Y0152887D01*
X0245013Y0153787D01*
X0245500Y0154963D01*
X0245500Y0156237D01*
X0245013Y0157413D01*
X0244113Y0158313D01*
X0242937Y0158800D01*
X0241663Y0158800D01*
X0240487Y0158313D01*
X0239700Y0157525D01*
X0238913Y0158313D01*
X0237737Y0158800D01*
X0236463Y0158800D01*
X0236445Y0158793D01*
X0237260Y0160298D01*
X0242063Y0166469D01*
X0247817Y0171766D01*
X0254364Y0176043D01*
X0261525Y0179184D01*
X0269106Y0181104D01*
X0276900Y0181750D01*
X0284694Y0181104D01*
X0292275Y0179184D01*
X0299436Y0176043D01*
X0305983Y0171766D01*
X0304978Y0172422D02*
X0248822Y0172422D01*
X0250044Y0173221D02*
X0303756Y0173221D01*
X0302534Y0174019D02*
X0251266Y0174019D01*
X0252489Y0174818D02*
X0301311Y0174818D01*
X0300089Y0175616D02*
X0253711Y0175616D01*
X0255211Y0176415D02*
X0298589Y0176415D01*
X0296768Y0177213D02*
X0257032Y0177213D01*
X0258852Y0178012D02*
X0294948Y0178012D01*
X0293127Y0178810D02*
X0260673Y0178810D01*
X0263202Y0179609D02*
X0290598Y0179609D01*
X0287445Y0180407D02*
X0266355Y0180407D01*
X0270334Y0181206D02*
X0283466Y0181206D01*
X0291341Y0161724D02*
X0295029Y0161724D01*
X0295257Y0161496D01*
X0295363Y0161524D01*
X0298100Y0161524D01*
X0298100Y0155800D01*
X0295766Y0155800D01*
X0295766Y0155400D01*
X0293185Y0155400D01*
X0293185Y0155400D01*
X0290604Y0155400D01*
X0290604Y0156372D01*
X0290699Y0156728D01*
X0290884Y0157047D01*
X0291064Y0157227D01*
X0290404Y0157887D01*
X0290404Y0160787D01*
X0291341Y0161724D01*
X0290860Y0161243D02*
X0237996Y0161243D01*
X0237374Y0160445D02*
X0290404Y0160445D01*
X0290404Y0159646D02*
X0236907Y0159646D01*
X0236475Y0158848D02*
X0290404Y0158848D01*
X0290404Y0158049D02*
X0244376Y0158049D01*
X0245080Y0157251D02*
X0291040Y0157251D01*
X0290625Y0156452D02*
X0245411Y0156452D01*
X0245500Y0155654D02*
X0290604Y0155654D01*
X0290604Y0154855D02*
X0245455Y0154855D01*
X0245124Y0154057D02*
X0290708Y0154057D01*
X0290749Y0153258D02*
X0244484Y0153258D01*
X0243080Y0152460D02*
X0248924Y0152460D01*
X0247636Y0151661D02*
X0241349Y0151661D01*
X0241300Y0150863D02*
X0242123Y0150863D01*
X0241835Y0150064D02*
X0241300Y0150064D01*
X0241300Y0149266D02*
X0241835Y0149266D01*
X0241835Y0148467D02*
X0241300Y0148467D01*
X0241300Y0147668D02*
X0241835Y0147668D01*
X0241835Y0146870D02*
X0241300Y0146870D01*
X0241000Y0146071D02*
X0241835Y0146071D01*
X0241835Y0145273D02*
X0240201Y0145273D01*
X0240054Y0144474D02*
X0241835Y0144474D01*
X0241835Y0143676D02*
X0240853Y0143676D01*
X0241100Y0142877D02*
X0241835Y0142877D01*
X0241835Y0142079D02*
X0241100Y0142079D01*
X0241100Y0141280D02*
X0241835Y0141280D01*
X0241835Y0140482D02*
X0241100Y0140482D01*
X0241100Y0139683D02*
X0241835Y0139683D01*
X0241835Y0138885D02*
X0241100Y0138885D01*
X0241100Y0138086D02*
X0241975Y0138086D01*
X0241100Y0137288D02*
X0246897Y0137288D01*
X0247285Y0136489D02*
X0241100Y0136489D01*
X0241100Y0135691D02*
X0247900Y0135691D01*
X0247900Y0134892D02*
X0241100Y0134892D01*
X0241100Y0134094D02*
X0247900Y0134094D01*
X0247900Y0133295D02*
X0241100Y0133295D01*
X0241100Y0132497D02*
X0247900Y0132497D01*
X0247900Y0131698D02*
X0241100Y0131698D01*
X0241100Y0130900D02*
X0247446Y0130900D01*
X0246648Y0130101D02*
X0240900Y0130101D01*
X0240792Y0129303D02*
X0245849Y0129303D01*
X0245051Y0128504D02*
X0240461Y0128504D01*
X0239731Y0127706D02*
X0244252Y0127706D01*
X0243454Y0126907D02*
X0230258Y0126907D01*
X0230372Y0126109D02*
X0242655Y0126109D01*
X0241857Y0125310D02*
X0230486Y0125310D01*
X0230600Y0124512D02*
X0239494Y0124512D01*
X0238695Y0123713D02*
X0230819Y0123713D01*
X0231051Y0122915D02*
X0238625Y0122915D01*
X0238625Y0122116D02*
X0231283Y0122116D01*
X0231515Y0121318D02*
X0238625Y0121318D01*
X0238625Y0120519D02*
X0231747Y0120519D01*
X0231980Y0119721D02*
X0238625Y0119721D01*
X0238625Y0118922D02*
X0232212Y0118922D01*
X0232444Y0118124D02*
X0238625Y0118124D01*
X0238625Y0117325D02*
X0232784Y0117325D01*
X0233145Y0116527D02*
X0238896Y0116527D01*
X0241300Y0118515D02*
X0245660Y0118515D01*
X0245720Y0118575D01*
X0245720Y0113380D01*
X0251079Y0108021D01*
X0278479Y0108021D01*
X0275145Y0111355D01*
X0270700Y0111355D01*
X0265636Y0111355D01*
X0264530Y0112461D01*
X0264530Y0115020D02*
X0264530Y0117579D01*
X0264530Y0117579D01*
X0268489Y0117579D01*
X0268489Y0116652D01*
X0268505Y0116680D01*
X0268765Y0116940D01*
X0269085Y0117125D01*
X0269441Y0117220D01*
X0270573Y0117220D01*
X0270573Y0114893D01*
X0270828Y0114893D01*
X0270828Y0117220D01*
X0271959Y0117220D01*
X0272315Y0117125D01*
X0272635Y0116940D01*
X0272895Y0116680D01*
X0273080Y0116360D01*
X0273175Y0116004D01*
X0273175Y0114893D01*
X0270828Y0114893D01*
X0270828Y0114638D01*
X0273175Y0114638D01*
X0273175Y0113526D01*
X0273129Y0113355D01*
X0275973Y0113355D01*
X0276700Y0112628D01*
X0276700Y0124428D01*
X0277872Y0125600D01*
X0280072Y0127800D01*
X0283928Y0127800D01*
X0285100Y0126628D01*
X0287248Y0124480D01*
X0287248Y0128275D01*
X0286536Y0128987D01*
X0286048Y0130163D01*
X0286048Y0131437D01*
X0286536Y0132613D01*
X0287436Y0133513D01*
X0288612Y0134000D01*
X0289885Y0134000D01*
X0291061Y0133513D01*
X0291961Y0132613D01*
X0292100Y0132278D01*
X0292100Y0133172D01*
X0289472Y0135800D01*
X0255900Y0135800D01*
X0255900Y0122738D01*
X0258671Y0119966D01*
X0261452Y0119966D01*
X0261681Y0119738D01*
X0261786Y0119766D01*
X0264530Y0119766D01*
X0264530Y0117579D01*
X0268489Y0117579D01*
X0268489Y0118551D01*
X0268393Y0118907D01*
X0268209Y0119226D01*
X0267948Y0119487D01*
X0267629Y0119671D01*
X0267273Y0119766D01*
X0264530Y0119766D01*
X0264530Y0117579D01*
X0264530Y0115392D01*
X0264530Y0115020D01*
X0264530Y0115020D01*
X0264530Y0115728D02*
X0264530Y0115728D01*
X0264530Y0116527D02*
X0264530Y0116527D01*
X0264530Y0117325D02*
X0264530Y0117325D01*
X0264530Y0117579D02*
X0264530Y0117579D01*
X0264530Y0117579D01*
X0264530Y0118124D02*
X0264530Y0118124D01*
X0264530Y0118922D02*
X0264530Y0118922D01*
X0264530Y0119721D02*
X0264530Y0119721D01*
X0267444Y0119721D02*
X0276700Y0119721D01*
X0276700Y0120519D02*
X0258119Y0120519D01*
X0257320Y0121318D02*
X0276700Y0121318D01*
X0276700Y0122116D02*
X0256522Y0122116D01*
X0255900Y0122915D02*
X0276700Y0122915D01*
X0276700Y0123713D02*
X0255900Y0123713D01*
X0255900Y0124512D02*
X0276783Y0124512D01*
X0277582Y0125310D02*
X0255900Y0125310D01*
X0255900Y0126109D02*
X0278380Y0126109D01*
X0279179Y0126907D02*
X0255900Y0126907D01*
X0255900Y0127706D02*
X0279977Y0127706D01*
X0280900Y0125800D02*
X0278700Y0123600D01*
X0278700Y0109821D01*
X0280500Y0108021D01*
X0278479Y0108021D01*
X0280500Y0108021D02*
X0285311Y0108021D01*
X0285311Y0112389D01*
X0287280Y0112389D02*
X0287280Y0108021D01*
X0285311Y0108021D01*
X0287280Y0108021D02*
X0292500Y0108021D01*
X0292500Y0111894D01*
X0291611Y0112783D01*
X0289248Y0112389D02*
X0289248Y0114852D01*
X0287300Y0116800D01*
X0287280Y0116800D01*
X0287280Y0121051D01*
X0287280Y0125020D01*
X0283900Y0128400D01*
X0283900Y0131000D01*
X0287700Y0134800D01*
X0289700Y0134800D01*
X0292100Y0132400D01*
X0292100Y0127800D01*
X0291611Y0127311D01*
X0291611Y0120657D01*
X0291611Y0120977D02*
X0291611Y0122746D01*
X0292100Y0122746D01*
X0292100Y0129322D01*
X0291961Y0128987D01*
X0291248Y0128275D01*
X0291248Y0122987D01*
X0291489Y0122746D01*
X0291611Y0122746D01*
X0291611Y0120977D01*
X0291611Y0120977D01*
X0291611Y0121318D02*
X0291611Y0121318D01*
X0291611Y0122116D02*
X0291611Y0122116D01*
X0291321Y0122915D02*
X0292100Y0122915D01*
X0292100Y0123713D02*
X0291248Y0123713D01*
X0291248Y0124512D02*
X0292100Y0124512D01*
X0292100Y0125310D02*
X0291248Y0125310D01*
X0291248Y0126109D02*
X0292100Y0126109D01*
X0292100Y0126907D02*
X0291248Y0126907D01*
X0291248Y0127706D02*
X0292100Y0127706D01*
X0292100Y0128504D02*
X0291478Y0128504D01*
X0292092Y0129303D02*
X0292100Y0129303D01*
X0294100Y0129600D02*
X0294100Y0134000D01*
X0290300Y0137800D01*
X0256500Y0137800D01*
X0253900Y0140400D01*
X0253900Y0131000D01*
X0253900Y0130165D01*
X0245720Y0121985D01*
X0241300Y0121925D02*
X0249900Y0130525D01*
X0249900Y0138400D01*
X0247050Y0141250D01*
X0244735Y0141250D01*
X0244735Y0142825D02*
X0251475Y0142825D01*
X0253900Y0140400D01*
X0257100Y0140482D02*
X0302153Y0140482D01*
X0301355Y0139683D02*
X0291245Y0139683D01*
X0292044Y0138885D02*
X0300556Y0138885D01*
X0299758Y0138086D02*
X0292842Y0138086D01*
X0293641Y0137288D02*
X0298959Y0137288D01*
X0298161Y0136489D02*
X0294439Y0136489D01*
X0295238Y0135691D02*
X0297362Y0135691D01*
X0296564Y0134892D02*
X0296036Y0134892D01*
X0291976Y0133295D02*
X0291279Y0133295D01*
X0291178Y0134094D02*
X0255900Y0134094D01*
X0255900Y0134892D02*
X0290379Y0134892D01*
X0289581Y0135691D02*
X0255900Y0135691D01*
X0255900Y0133295D02*
X0287218Y0133295D01*
X0286488Y0132497D02*
X0255900Y0132497D01*
X0255900Y0131698D02*
X0286157Y0131698D01*
X0286048Y0130900D02*
X0255900Y0130900D01*
X0255900Y0130101D02*
X0286074Y0130101D01*
X0286405Y0129303D02*
X0255900Y0129303D01*
X0255900Y0128504D02*
X0287019Y0128504D01*
X0287248Y0127706D02*
X0284023Y0127706D01*
X0284821Y0126907D02*
X0287248Y0126907D01*
X0287248Y0126109D02*
X0285620Y0126109D01*
X0286418Y0125310D02*
X0287248Y0125310D01*
X0287248Y0124512D02*
X0287217Y0124512D01*
X0285311Y0123589D02*
X0283100Y0125800D01*
X0280900Y0125800D01*
X0285311Y0123589D02*
X0285311Y0121051D01*
X0285411Y0118689D02*
X0287300Y0116800D01*
X0285252Y0114752D01*
X0282949Y0114752D01*
X0282949Y0114431D02*
X0282949Y0112783D01*
X0282949Y0112783D01*
X0282949Y0110694D01*
X0281781Y0110694D01*
X0281425Y0110789D01*
X0281105Y0110974D01*
X0280845Y0111234D01*
X0280700Y0111485D01*
X0280700Y0110649D01*
X0281328Y0110021D01*
X0283311Y0110021D01*
X0283311Y0110453D01*
X0283071Y0110694D01*
X0282949Y0110694D01*
X0282949Y0112783D01*
X0282949Y0114431D01*
X0282949Y0114431D01*
X0282949Y0114131D02*
X0282949Y0114131D01*
X0282949Y0113332D02*
X0282949Y0113332D01*
X0282949Y0112783D02*
X0282949Y0112783D01*
X0282949Y0112534D02*
X0282949Y0112534D01*
X0282949Y0111735D02*
X0282949Y0111735D01*
X0282949Y0110937D02*
X0282949Y0110937D01*
X0283311Y0110138D02*
X0281211Y0110138D01*
X0281169Y0110937D02*
X0280700Y0110937D01*
X0276700Y0113332D02*
X0275996Y0113332D01*
X0276700Y0114131D02*
X0273175Y0114131D01*
X0273175Y0114930D02*
X0276700Y0114930D01*
X0276700Y0115728D02*
X0273175Y0115728D01*
X0272984Y0116527D02*
X0276700Y0116527D01*
X0276700Y0117325D02*
X0268489Y0117325D01*
X0268489Y0118124D02*
X0276700Y0118124D01*
X0276700Y0118922D02*
X0268384Y0118922D01*
X0270573Y0116527D02*
X0270828Y0116527D01*
X0270828Y0115728D02*
X0270573Y0115728D01*
X0270573Y0114930D02*
X0270828Y0114930D01*
X0282949Y0118689D02*
X0285411Y0118689D01*
X0285334Y0118466D02*
X0286663Y0118466D01*
X0286863Y0118666D01*
X0287280Y0118666D01*
X0287280Y0119083D01*
X0287280Y0118666D01*
X0287697Y0118666D01*
X0287897Y0118466D01*
X0289026Y0118466D01*
X0289026Y0114774D01*
X0288832Y0114774D01*
X0288632Y0114974D01*
X0285334Y0114974D01*
X0285334Y0115168D01*
X0285534Y0115368D01*
X0285534Y0118072D01*
X0285334Y0118272D01*
X0285334Y0118466D01*
X0285482Y0118124D02*
X0289026Y0118124D01*
X0289026Y0117325D02*
X0285534Y0117325D01*
X0285534Y0116527D02*
X0289026Y0116527D01*
X0289026Y0115728D02*
X0285534Y0115728D01*
X0288676Y0114930D02*
X0289026Y0114930D01*
X0287280Y0118922D02*
X0287280Y0118922D01*
X0287280Y0119083D02*
X0287280Y0119083D01*
X0287280Y0119083D01*
X0289248Y0121051D02*
X0289248Y0130800D01*
X0292009Y0132497D02*
X0292100Y0132497D01*
X0294100Y0129600D02*
X0305700Y0141200D01*
X0305700Y0149578D01*
X0303815Y0151463D01*
X0301781Y0149266D02*
X0295219Y0149266D01*
X0292795Y0148467D02*
X0303700Y0148467D01*
X0303700Y0147668D02*
X0292500Y0147668D01*
X0292378Y0146870D02*
X0297344Y0146870D01*
X0297587Y0147113D02*
X0298763Y0147600D01*
X0300037Y0147600D01*
X0301213Y0147113D01*
X0302113Y0146213D01*
X0302600Y0145037D01*
X0302600Y0143763D01*
X0302113Y0142587D01*
X0301213Y0141687D01*
X0300037Y0141200D01*
X0298763Y0141200D01*
X0297587Y0141687D01*
X0296687Y0142587D01*
X0296200Y0143763D01*
X0296200Y0145037D01*
X0296687Y0146213D01*
X0297587Y0147113D01*
X0296629Y0146071D02*
X0292048Y0146071D01*
X0291298Y0145273D02*
X0296298Y0145273D01*
X0296200Y0144474D02*
X0258100Y0144474D01*
X0258064Y0143676D02*
X0296236Y0143676D01*
X0296567Y0142877D02*
X0257733Y0142877D01*
X0257104Y0142079D02*
X0297196Y0142079D01*
X0298569Y0141280D02*
X0256999Y0141280D01*
X0254900Y0144400D02*
X0244735Y0144400D01*
X0244735Y0145975D02*
X0252475Y0145975D01*
X0254900Y0148400D01*
X0257730Y0146870D02*
X0286222Y0146870D01*
X0286100Y0147668D02*
X0258061Y0147668D01*
X0258100Y0148467D02*
X0286113Y0148467D01*
X0286443Y0149266D02*
X0258005Y0149266D01*
X0257674Y0150064D02*
X0287039Y0150064D01*
X0288332Y0150863D02*
X0256963Y0150863D01*
X0252837Y0150863D02*
X0252758Y0150863D01*
X0252164Y0151661D02*
X0290333Y0151661D01*
X0290404Y0152460D02*
X0250876Y0152460D01*
X0249900Y0149400D02*
X0248050Y0147550D01*
X0244735Y0147550D01*
X0239300Y0147200D02*
X0238100Y0146000D01*
X0234091Y0146000D01*
X0234065Y0145975D01*
X0234065Y0144400D02*
X0237300Y0144400D01*
X0239100Y0142600D01*
X0239100Y0131600D01*
X0237700Y0130200D01*
X0234939Y0128504D02*
X0230031Y0128504D01*
X0230145Y0127706D02*
X0235669Y0127706D01*
X0234608Y0129303D02*
X0229917Y0129303D01*
X0229804Y0130101D02*
X0232073Y0130101D01*
X0231275Y0130900D02*
X0229690Y0130900D01*
X0229645Y0131698D02*
X0230893Y0131698D01*
X0230700Y0132497D02*
X0229617Y0132497D01*
X0229589Y0133295D02*
X0230034Y0133295D01*
X0230900Y0136400D02*
X0230300Y0137000D01*
X0230300Y0139800D01*
X0231750Y0141250D01*
X0234065Y0141250D01*
X0234091Y0142800D02*
X0236900Y0142800D01*
X0237500Y0142200D01*
X0237500Y0136400D01*
X0233900Y0132800D01*
X0234091Y0142800D02*
X0234065Y0142825D01*
X0234065Y0147550D02*
X0236450Y0147550D01*
X0237100Y0148200D01*
X0237100Y0155600D01*
X0239176Y0158049D02*
X0240224Y0158049D01*
X0242300Y0155600D02*
X0239300Y0152400D01*
X0239300Y0147200D01*
X0238617Y0162042D02*
X0315183Y0162042D01*
X0314561Y0162840D02*
X0239239Y0162840D01*
X0239860Y0163639D02*
X0313940Y0163639D01*
X0313318Y0164437D02*
X0240482Y0164437D01*
X0241103Y0165236D02*
X0312697Y0165236D01*
X0312075Y0166034D02*
X0241725Y0166034D01*
X0242458Y0166833D02*
X0311342Y0166833D01*
X0309959Y0161360D02*
X0310315Y0161265D01*
X0310635Y0161080D01*
X0310895Y0160820D01*
X0311080Y0160500D01*
X0311175Y0160144D01*
X0311175Y0159033D01*
X0308828Y0159033D01*
X0308828Y0161360D01*
X0309959Y0161360D01*
X0310352Y0161243D02*
X0315804Y0161243D01*
X0316426Y0160445D02*
X0311095Y0160445D01*
X0311175Y0159646D02*
X0316893Y0159646D01*
X0317325Y0158848D02*
X0308828Y0158848D01*
X0308828Y0159646D02*
X0308573Y0159646D01*
X0308573Y0160445D02*
X0308828Y0160445D01*
X0308828Y0161243D02*
X0308573Y0161243D01*
X0307048Y0161243D02*
X0306140Y0161243D01*
X0311175Y0158049D02*
X0317757Y0158049D01*
X0318189Y0157251D02*
X0311337Y0157251D01*
X0311375Y0156452D02*
X0318621Y0156452D01*
X0319053Y0155654D02*
X0311375Y0155654D01*
X0311375Y0154855D02*
X0319485Y0154855D01*
X0319918Y0154057D02*
X0311375Y0154057D01*
X0310856Y0153258D02*
X0320318Y0153258D01*
X0320592Y0152460D02*
X0310700Y0152460D01*
X0310700Y0151661D02*
X0320866Y0151661D01*
X0321140Y0150863D02*
X0310700Y0150863D01*
X0310700Y0150064D02*
X0321414Y0150064D01*
X0321688Y0149266D02*
X0310700Y0149266D01*
X0310700Y0148467D02*
X0321962Y0148467D01*
X0322236Y0147668D02*
X0310700Y0147668D01*
X0310700Y0146870D02*
X0322511Y0146870D01*
X0322785Y0146071D02*
X0310700Y0146071D01*
X0310700Y0145273D02*
X0322926Y0145273D01*
X0323060Y0144474D02*
X0310700Y0144474D01*
X0310700Y0143676D02*
X0323193Y0143676D01*
X0323326Y0142877D02*
X0310700Y0142877D01*
X0310700Y0142079D02*
X0323459Y0142079D01*
X0323593Y0141280D02*
X0310700Y0141280D01*
X0310700Y0140482D02*
X0323726Y0140482D01*
X0323859Y0139683D02*
X0310412Y0139683D01*
X0309613Y0138885D02*
X0323992Y0138885D01*
X0324098Y0138086D02*
X0308815Y0138086D01*
X0308016Y0137288D02*
X0324131Y0137288D01*
X0324164Y0136489D02*
X0307218Y0136489D01*
X0306419Y0135691D02*
X0324197Y0135691D01*
X0324230Y0134892D02*
X0305621Y0134892D01*
X0304822Y0134094D02*
X0324239Y0134094D01*
X0324211Y0133295D02*
X0304272Y0133295D01*
X0305329Y0132497D02*
X0324183Y0132497D01*
X0324155Y0131698D02*
X0305826Y0131698D01*
X0305900Y0130900D02*
X0313400Y0138400D01*
X0316400Y0138400D01*
X0322900Y0131900D01*
X0322900Y0128900D01*
X0321550Y0127550D01*
X0319735Y0127550D01*
X0312900Y0127550D01*
X0312900Y0116000D01*
X0308485Y0111585D01*
X0304700Y0111585D01*
X0303146Y0113139D01*
X0299380Y0113139D01*
X0299091Y0113332D02*
X0294195Y0113332D01*
X0294195Y0114131D02*
X0296012Y0114131D01*
X0296012Y0114701D02*
X0296012Y0113428D01*
X0299091Y0113428D01*
X0299091Y0115917D01*
X0297227Y0115917D01*
X0296871Y0115822D01*
X0296552Y0115637D01*
X0296291Y0115377D01*
X0296107Y0115057D01*
X0296012Y0114701D01*
X0296073Y0114930D02*
X0294195Y0114930D01*
X0294195Y0115728D02*
X0296709Y0115728D01*
X0294653Y0117325D02*
X0302449Y0117325D01*
X0301965Y0118124D02*
X0295452Y0118124D01*
X0296100Y0118922D02*
X0298852Y0118922D01*
X0298132Y0119721D02*
X0296100Y0119721D01*
X0296100Y0120519D02*
X0297801Y0120519D01*
X0300900Y0121400D02*
X0302325Y0122825D01*
X0309065Y0122825D01*
X0309065Y0124400D02*
X0302900Y0124400D01*
X0300900Y0126400D01*
X0302900Y0128400D02*
X0302900Y0130400D01*
X0302900Y0128400D02*
X0305325Y0125975D01*
X0309065Y0125975D01*
X0309065Y0127550D02*
X0307250Y0127550D01*
X0305900Y0128900D01*
X0305900Y0130900D01*
X0306100Y0130900D02*
X0306491Y0130900D01*
X0306166Y0130101D02*
X0306100Y0130101D01*
X0306166Y0129303D02*
X0305909Y0129303D01*
X0306166Y0128504D02*
X0305624Y0128504D01*
X0309065Y0127550D02*
X0312900Y0127550D01*
X0311965Y0126907D02*
X0316379Y0126907D01*
X0317035Y0127706D02*
X0311765Y0127706D01*
X0311765Y0127550D02*
X0311505Y0127550D01*
X0311505Y0127550D01*
X0311765Y0127550D01*
X0311965Y0128504D02*
X0316835Y0128504D01*
X0316835Y0129303D02*
X0311965Y0129303D01*
X0311965Y0130101D02*
X0316835Y0130101D01*
X0317161Y0130900D02*
X0311639Y0130900D01*
X0311965Y0126109D02*
X0315580Y0126109D01*
X0314782Y0125310D02*
X0311965Y0125310D01*
X0311965Y0124512D02*
X0313983Y0124512D01*
X0314700Y0125228D02*
X0314700Y0125228D01*
X0316700Y0124400D02*
X0318275Y0125975D01*
X0319735Y0125975D01*
X0319735Y0124400D02*
X0316700Y0124400D01*
X0314700Y0122400D01*
X0314700Y0111600D01*
X0313900Y0110800D01*
X0316700Y0109000D02*
X0314100Y0106400D01*
X0311500Y0106400D01*
X0306700Y0106400D01*
X0304900Y0108200D01*
X0304725Y0108200D01*
X0304700Y0108175D01*
X0304546Y0108021D01*
X0299380Y0108021D01*
X0292500Y0108021D01*
X0294500Y0110138D02*
X0295888Y0110138D01*
X0296271Y0110937D02*
X0294500Y0110937D01*
X0294500Y0111735D02*
X0296012Y0111735D01*
X0296012Y0112534D02*
X0294500Y0112534D01*
X0294195Y0116527D02*
X0303475Y0116527D01*
X0302051Y0115728D02*
X0312700Y0115728D01*
X0312700Y0114930D02*
X0302687Y0114930D01*
X0302748Y0114131D02*
X0312700Y0114131D01*
X0311907Y0113332D02*
X0306992Y0113332D01*
X0307175Y0112534D02*
X0311155Y0112534D01*
X0310824Y0111735D02*
X0307175Y0111735D01*
X0307175Y0110937D02*
X0310700Y0110937D01*
X0310710Y0110138D02*
X0307129Y0110138D01*
X0307375Y0109340D02*
X0310236Y0109340D01*
X0309116Y0108541D02*
X0307387Y0108541D01*
X0304828Y0111735D02*
X0304573Y0111735D01*
X0304573Y0112534D02*
X0304828Y0112534D01*
X0304828Y0113332D02*
X0304573Y0113332D01*
X0306325Y0116527D02*
X0312700Y0116527D01*
X0312700Y0117325D02*
X0311064Y0117325D01*
X0311863Y0118124D02*
X0312700Y0118124D01*
X0312700Y0118922D02*
X0311965Y0118922D01*
X0311965Y0119721D02*
X0312700Y0119721D01*
X0312700Y0120519D02*
X0311965Y0120519D01*
X0311965Y0121318D02*
X0312700Y0121318D01*
X0312700Y0122116D02*
X0311965Y0122116D01*
X0311965Y0122915D02*
X0312700Y0122915D01*
X0313185Y0123713D02*
X0311965Y0123713D01*
X0309065Y0121250D02*
X0306750Y0121250D01*
X0304900Y0119400D01*
X0299669Y0115728D02*
X0299091Y0115728D01*
X0299091Y0114930D02*
X0299669Y0114930D01*
X0299669Y0114131D02*
X0299091Y0114131D01*
X0294100Y0119600D02*
X0293189Y0118689D01*
X0291611Y0118689D01*
X0294100Y0119600D02*
X0294100Y0129600D01*
X0297100Y0129200D02*
X0308700Y0140800D01*
X0308700Y0155495D01*
X0303910Y0155495D01*
X0303815Y0155400D01*
X0298900Y0154855D02*
X0298100Y0154855D01*
X0298100Y0154057D02*
X0298900Y0154057D01*
X0298900Y0153258D02*
X0298100Y0153258D01*
X0298100Y0152460D02*
X0298900Y0152460D01*
X0298900Y0151661D02*
X0298100Y0151661D01*
X0298100Y0150863D02*
X0298900Y0150863D01*
X0298900Y0150064D02*
X0298100Y0150064D01*
X0301456Y0146870D02*
X0303700Y0146870D01*
X0303700Y0146071D02*
X0302171Y0146071D01*
X0302502Y0145273D02*
X0303700Y0145273D01*
X0303700Y0144474D02*
X0302600Y0144474D01*
X0302564Y0143676D02*
X0303700Y0143676D01*
X0303700Y0142877D02*
X0302233Y0142877D01*
X0301604Y0142079D02*
X0303700Y0142079D01*
X0302952Y0141280D02*
X0300231Y0141280D01*
X0292963Y0151463D02*
X0289300Y0147800D01*
X0287302Y0145273D02*
X0258002Y0145273D01*
X0257671Y0146071D02*
X0286552Y0146071D01*
X0292963Y0151463D02*
X0293185Y0151463D01*
X0293185Y0155400D02*
X0293185Y0155400D01*
X0295766Y0155654D02*
X0298100Y0155654D01*
X0298100Y0156452D02*
X0298900Y0156452D01*
X0298900Y0157251D02*
X0298100Y0157251D01*
X0298100Y0158049D02*
X0298900Y0158049D01*
X0298900Y0158848D02*
X0298100Y0158848D01*
X0298100Y0159646D02*
X0298900Y0159646D01*
X0298900Y0160445D02*
X0298100Y0160445D01*
X0298100Y0161243D02*
X0298900Y0161243D01*
X0322309Y0130900D02*
X0324110Y0130900D01*
X0323996Y0130101D02*
X0322634Y0130101D01*
X0322634Y0129303D02*
X0323883Y0129303D01*
X0323769Y0128504D02*
X0322634Y0128504D01*
X0322434Y0127706D02*
X0323655Y0127706D01*
X0323542Y0126907D02*
X0322634Y0126907D01*
X0322434Y0127550D02*
X0322175Y0127550D01*
X0322174Y0127550D01*
X0322434Y0127550D01*
X0322634Y0126109D02*
X0323428Y0126109D01*
X0323314Y0125310D02*
X0322634Y0125310D01*
X0322634Y0124512D02*
X0323200Y0124512D01*
X0322981Y0123713D02*
X0322634Y0123713D01*
X0322634Y0122915D02*
X0322749Y0122915D01*
X0319735Y0122825D02*
X0318725Y0122825D01*
X0317150Y0121250D01*
X0319735Y0121250D01*
X0317150Y0121250D02*
X0316700Y0120800D01*
X0316700Y0109000D01*
X0304924Y0105347D02*
X0302316Y0105347D01*
X0296444Y0105347D02*
X0239541Y0105347D01*
X0238906Y0106146D02*
X0250126Y0106146D01*
X0249327Y0106944D02*
X0238383Y0106944D01*
X0237876Y0107743D02*
X0248529Y0107743D01*
X0247730Y0108541D02*
X0237369Y0108541D01*
X0236861Y0109340D02*
X0246932Y0109340D01*
X0246133Y0110138D02*
X0236354Y0110138D01*
X0235847Y0110937D02*
X0245335Y0110937D01*
X0244536Y0111735D02*
X0235339Y0111735D01*
X0234949Y0112534D02*
X0243738Y0112534D01*
X0243720Y0113332D02*
X0234588Y0113332D01*
X0234228Y0114131D02*
X0243720Y0114131D01*
X0243720Y0114930D02*
X0233867Y0114930D01*
X0233506Y0115728D02*
X0243720Y0115728D01*
X0250100Y0114600D02*
X0252239Y0112461D01*
X0258230Y0112461D01*
X0257900Y0112791D01*
X0257900Y0112800D01*
X0258230Y0117579D02*
X0253900Y0121909D01*
X0253900Y0130165D01*
X0297100Y0129200D02*
X0297100Y0124200D01*
D200*
X0297100Y0124200D03*
X0300900Y0126400D03*
X0302900Y0130400D03*
X0300900Y0121400D03*
X0304900Y0119400D03*
X0313900Y0110800D03*
X0311500Y0106400D03*
X0287300Y0116800D03*
X0273900Y0125400D03*
X0259900Y0125400D03*
X0250100Y0114600D03*
X0237700Y0130200D03*
X0233900Y0132800D03*
X0230900Y0136400D03*
X0249900Y0138400D03*
X0253900Y0140400D03*
X0254900Y0144400D03*
X0254900Y0148400D03*
X0259900Y0144400D03*
X0249900Y0149400D03*
X0242300Y0155600D03*
X0237100Y0155600D03*
X0254900Y0157400D03*
X0254900Y0168400D03*
X0272900Y0165900D03*
X0286900Y0159900D03*
X0289300Y0147800D03*
X0299400Y0144400D03*
X0315400Y0157400D03*
X0295900Y0172400D03*
X0273900Y0144400D03*
X0289248Y0130800D03*
X0316400Y0138400D03*
X0010200Y0097000D02*
G75*
%LPD*%
D137*
X0103031Y0127550D03*
X0103031Y0125975D03*
X0103031Y0124400D03*
X0103031Y0122825D03*
X0103031Y0121250D03*
X0092361Y0121250D03*
X0092361Y0122825D03*
X0092361Y0124400D03*
X0092361Y0125975D03*
X0092361Y0127550D03*
X0028031Y0141250D03*
X0028031Y0142825D03*
X0028031Y0144400D03*
X0028031Y0145975D03*
X0028031Y0147550D03*
X0017361Y0147550D03*
X0017361Y0145975D03*
X0017361Y0144400D03*
X0017361Y0142825D03*
X0017361Y0141250D03*
D213*
X0017361Y0139479D03*
X0028031Y0139479D03*
X0028031Y0149321D03*
X0017361Y0149321D03*
X0092361Y0129321D03*
X0103031Y0129321D03*
X0103031Y0119479D03*
X0092361Y0119479D03*
D207*
X0087111Y0151463D03*
X0087111Y0155400D03*
X0087111Y0159337D03*
X0076481Y0159337D03*
X0076481Y0155400D03*
X0076481Y0151463D03*
D68*
X0081796Y0155400D03*
D119*
X0047826Y0117579D03*
X0047826Y0115020D03*
X0047826Y0112461D03*
X0041526Y0112461D03*
X0041526Y0115020D03*
X0041526Y0117579D03*
D148*
X0066245Y0116720D03*
X0066245Y0118689D03*
X0066245Y0120657D03*
X0066245Y0114752D03*
X0066245Y0112783D03*
X0074907Y0112783D03*
X0074907Y0114752D03*
X0074907Y0116720D03*
X0074907Y0118689D03*
X0074907Y0120657D03*
D59*
X0072544Y0121051D03*
X0070576Y0121051D03*
X0068607Y0121051D03*
X0068607Y0112389D03*
X0070576Y0112389D03*
X0072544Y0112389D03*
D54*
X0082676Y0113139D03*
X0082676Y0108021D03*
D201*
X0087996Y0108175D03*
X0087996Y0111585D03*
X0053996Y0111355D03*
X0053996Y0114765D03*
X0029016Y0118575D03*
X0029016Y0121985D03*
X0024596Y0121925D03*
X0024596Y0118515D03*
X0091996Y0155495D03*
X0091996Y0158905D03*
D135*
X0093770Y0167631D02*
X0026622Y0167631D01*
X0027489Y0168430D02*
X0092903Y0168430D01*
X0092035Y0169228D02*
X0028357Y0169228D01*
X0029224Y0170027D02*
X0091168Y0170027D01*
X0090301Y0170825D02*
X0030091Y0170825D01*
X0030959Y0171624D02*
X0089433Y0171624D01*
X0089279Y0171766D02*
X0095033Y0166469D01*
X0099836Y0160298D01*
X0103558Y0153420D01*
X0106097Y0146024D01*
X0107384Y0138310D01*
X0107546Y0134400D01*
X0107546Y0134400D01*
X0107428Y0131052D01*
X0106484Y0124424D01*
X0105930Y0122518D01*
X0105930Y0127090D01*
X0105730Y0127290D01*
X0105730Y0127550D01*
X0105730Y0127868D01*
X0105930Y0128068D01*
X0105930Y0130575D01*
X0104993Y0131512D01*
X0101069Y0131512D01*
X0100131Y0130575D01*
X0100131Y0128068D01*
X0100331Y0127868D01*
X0100331Y0127564D01*
X0097996Y0125228D01*
X0097168Y0124400D01*
X0095996Y0123228D01*
X0095996Y0113767D01*
X0095383Y0113513D01*
X0094483Y0112613D01*
X0093996Y0111437D01*
X0093996Y0110163D01*
X0094229Y0109600D01*
X0094159Y0109600D01*
X0092983Y0109113D01*
X0092271Y0108400D01*
X0090824Y0108400D01*
X0090671Y0108553D01*
X0090671Y0109893D01*
X0090418Y0110146D01*
X0090471Y0110346D01*
X0090471Y0111457D01*
X0088124Y0111457D01*
X0088124Y0111712D01*
X0090471Y0111712D01*
X0090471Y0112824D01*
X0090376Y0113180D01*
X0090191Y0113500D01*
X0089931Y0113760D01*
X0089611Y0113945D01*
X0089255Y0114040D01*
X0088124Y0114040D01*
X0088124Y0111713D01*
X0087869Y0111713D01*
X0087869Y0114040D01*
X0086737Y0114040D01*
X0086381Y0113945D01*
X0086061Y0113760D01*
X0086044Y0113743D01*
X0086044Y0114701D01*
X0085949Y0115057D01*
X0085765Y0115377D01*
X0085504Y0115637D01*
X0085185Y0115822D01*
X0084829Y0115917D01*
X0082965Y0115917D01*
X0082965Y0113428D01*
X0082387Y0113428D01*
X0082387Y0112850D01*
X0079308Y0112850D01*
X0079308Y0111577D01*
X0079403Y0111221D01*
X0079587Y0110902D01*
X0079767Y0110721D01*
X0079108Y0110062D01*
X0079108Y0110021D01*
X0077796Y0110021D01*
X0077796Y0112722D01*
X0077491Y0113027D01*
X0077491Y0116867D01*
X0079396Y0118772D01*
X0079396Y0121151D01*
X0079759Y0121000D01*
X0080996Y0121000D01*
X0080996Y0120763D01*
X0081483Y0119587D01*
X0082383Y0118687D01*
X0083559Y0118200D01*
X0084833Y0118200D01*
X0085171Y0118340D01*
X0085483Y0117587D01*
X0086383Y0116687D01*
X0087559Y0116200D01*
X0088833Y0116200D01*
X0090009Y0116687D01*
X0090610Y0117288D01*
X0094323Y0117288D01*
X0095261Y0118225D01*
X0095261Y0127090D01*
X0095061Y0127290D01*
X0095061Y0127550D01*
X0095061Y0127868D01*
X0095261Y0128068D01*
X0095261Y0130575D01*
X0094323Y0131512D01*
X0090399Y0131512D01*
X0089462Y0130575D01*
X0089462Y0128068D01*
X0089555Y0127975D01*
X0089450Y0127975D01*
X0088873Y0128551D01*
X0088909Y0128587D01*
X0089396Y0129763D01*
X0089396Y0131037D01*
X0088909Y0132213D01*
X0088009Y0133113D01*
X0087392Y0133368D01*
X0092824Y0138800D01*
X0093996Y0139972D01*
X0093996Y0153102D01*
X0094671Y0153777D01*
X0094671Y0157213D01*
X0094418Y0157466D01*
X0094471Y0157666D01*
X0094471Y0158777D01*
X0092124Y0158777D01*
X0092124Y0159033D01*
X0091869Y0159033D01*
X0091869Y0161360D01*
X0090737Y0161360D01*
X0090381Y0161265D01*
X0090061Y0161080D01*
X0089830Y0160849D01*
X0088955Y0161724D01*
X0085267Y0161724D01*
X0085039Y0161496D01*
X0084933Y0161524D01*
X0082196Y0161524D01*
X0082196Y0155800D01*
X0081396Y0155800D01*
X0081396Y0155000D01*
X0079062Y0155000D01*
X0079062Y0155400D01*
X0076481Y0155400D01*
X0073900Y0155400D01*
X0073900Y0154428D01*
X0073995Y0154072D01*
X0074180Y0153753D01*
X0074360Y0153573D01*
X0073700Y0152913D01*
X0073700Y0151732D01*
X0072968Y0151000D01*
X0071959Y0151000D01*
X0070783Y0150513D01*
X0069883Y0149613D01*
X0069396Y0148437D01*
X0069396Y0147163D01*
X0069883Y0145987D01*
X0070783Y0145087D01*
X0071959Y0144600D01*
X0073233Y0144600D01*
X0074409Y0145087D01*
X0075309Y0145987D01*
X0075796Y0147163D01*
X0075796Y0148172D01*
X0076700Y0149076D01*
X0078325Y0149076D01*
X0078553Y0149304D01*
X0078659Y0149276D01*
X0081396Y0149276D01*
X0081396Y0155000D01*
X0082196Y0155000D01*
X0082196Y0149276D01*
X0084933Y0149276D01*
X0085039Y0149304D01*
X0085267Y0149076D01*
X0086670Y0149076D01*
X0086996Y0148750D01*
X0086996Y0142028D01*
X0079396Y0134428D01*
X0079396Y0134828D01*
X0075596Y0138628D01*
X0074424Y0139800D01*
X0040624Y0139800D01*
X0040396Y0140028D01*
X0040396Y0141037D01*
X0040092Y0141770D01*
X0040909Y0142587D01*
X0041396Y0143763D01*
X0041396Y0145037D01*
X0040909Y0146213D01*
X0040721Y0146400D01*
X0040909Y0146587D01*
X0041396Y0147763D01*
X0041396Y0149037D01*
X0040909Y0150213D01*
X0040009Y0151113D01*
X0038833Y0151600D01*
X0037559Y0151600D01*
X0036383Y0151113D01*
X0036077Y0150807D01*
X0035909Y0151213D01*
X0035009Y0152113D01*
X0033833Y0152600D01*
X0032559Y0152600D01*
X0031383Y0152113D01*
X0030483Y0151213D01*
X0030427Y0151077D01*
X0029993Y0151512D01*
X0026069Y0151512D01*
X0025131Y0150575D01*
X0025131Y0138225D01*
X0026069Y0137288D01*
X0029993Y0137288D01*
X0030134Y0137430D01*
X0030483Y0136587D01*
X0031196Y0135875D01*
X0031196Y0131353D01*
X0024423Y0124580D01*
X0022858Y0124580D01*
X0021921Y0123643D01*
X0021921Y0116797D01*
X0022858Y0115860D01*
X0026334Y0115860D01*
X0026836Y0116362D01*
X0027016Y0116182D01*
X0027016Y0112552D01*
X0028188Y0111380D01*
X0033547Y0106021D01*
X0079108Y0106021D01*
X0079108Y0105980D01*
X0080045Y0105043D01*
X0085307Y0105043D01*
X0086021Y0105757D01*
X0086258Y0105520D01*
X0088048Y0105520D01*
X0089018Y0104550D01*
X0023472Y0104550D01*
X0022124Y0106243D01*
X0018534Y0111894D01*
X0015777Y0117995D01*
X0013908Y0124424D01*
X0012964Y0131052D01*
X0012878Y0133482D01*
X0013559Y0133200D01*
X0013996Y0133200D01*
X0013996Y0132163D01*
X0014483Y0130987D01*
X0015383Y0130087D01*
X0016559Y0129600D01*
X0017796Y0129600D01*
X0017796Y0129563D01*
X0018283Y0128387D01*
X0019183Y0127487D01*
X0020359Y0127000D01*
X0021633Y0127000D01*
X0022809Y0127487D01*
X0023709Y0128387D01*
X0024196Y0129563D01*
X0024196Y0130572D01*
X0024396Y0130772D01*
X0024396Y0143428D01*
X0023024Y0144800D01*
X0023396Y0145172D01*
X0024596Y0146372D01*
X0024596Y0151609D01*
X0025337Y0152400D01*
X0026233Y0152400D01*
X0027409Y0152887D01*
X0028309Y0153787D01*
X0028796Y0154963D01*
X0028796Y0156237D01*
X0028309Y0157413D01*
X0027409Y0158313D01*
X0026233Y0158800D01*
X0024959Y0158800D01*
X0023783Y0158313D01*
X0022996Y0157525D01*
X0022209Y0158313D01*
X0021033Y0158800D01*
X0019759Y0158800D01*
X0019741Y0158793D01*
X0020556Y0160298D01*
X0025359Y0166469D01*
X0031113Y0171766D01*
X0037660Y0176043D01*
X0044821Y0179184D01*
X0052402Y0181104D01*
X0060196Y0181750D01*
X0067990Y0181104D01*
X0075571Y0179184D01*
X0082732Y0176043D01*
X0089279Y0171766D01*
X0088274Y0172422D02*
X0032118Y0172422D01*
X0033340Y0173221D02*
X0087052Y0173221D01*
X0085830Y0174019D02*
X0034562Y0174019D01*
X0035785Y0174818D02*
X0084607Y0174818D01*
X0083385Y0175616D02*
X0037007Y0175616D01*
X0038507Y0176415D02*
X0081885Y0176415D01*
X0080064Y0177213D02*
X0040328Y0177213D01*
X0042148Y0178012D02*
X0078244Y0178012D01*
X0076423Y0178810D02*
X0043969Y0178810D01*
X0046498Y0179609D02*
X0073894Y0179609D01*
X0070741Y0180407D02*
X0049651Y0180407D01*
X0053630Y0181206D02*
X0066762Y0181206D01*
X0074637Y0161724D02*
X0078325Y0161724D01*
X0078553Y0161496D01*
X0078659Y0161524D01*
X0081396Y0161524D01*
X0081396Y0155800D01*
X0079062Y0155800D01*
X0079062Y0155400D01*
X0076481Y0155400D01*
X0076481Y0155400D01*
X0073900Y0155400D01*
X0073900Y0156372D01*
X0073995Y0156728D01*
X0074180Y0157047D01*
X0074360Y0157227D01*
X0073700Y0157887D01*
X0073700Y0160787D01*
X0074637Y0161724D01*
X0074156Y0161243D02*
X0021292Y0161243D01*
X0020670Y0160445D02*
X0073700Y0160445D01*
X0073700Y0159646D02*
X0020203Y0159646D01*
X0019771Y0158848D02*
X0073700Y0158848D01*
X0073700Y0158049D02*
X0027672Y0158049D01*
X0028376Y0157251D02*
X0074336Y0157251D01*
X0073921Y0156452D02*
X0028707Y0156452D01*
X0028796Y0155654D02*
X0073900Y0155654D01*
X0073900Y0154855D02*
X0028751Y0154855D01*
X0028420Y0154057D02*
X0074004Y0154057D01*
X0074045Y0153258D02*
X0027780Y0153258D01*
X0026376Y0152460D02*
X0032220Y0152460D01*
X0030932Y0151661D02*
X0024645Y0151661D01*
X0024596Y0150863D02*
X0025419Y0150863D01*
X0025131Y0150064D02*
X0024596Y0150064D01*
X0024596Y0149266D02*
X0025131Y0149266D01*
X0025131Y0148467D02*
X0024596Y0148467D01*
X0024596Y0147668D02*
X0025131Y0147668D01*
X0025131Y0146870D02*
X0024596Y0146870D01*
X0024296Y0146071D02*
X0025131Y0146071D01*
X0025131Y0145273D02*
X0023497Y0145273D01*
X0023350Y0144474D02*
X0025131Y0144474D01*
X0025131Y0143676D02*
X0024149Y0143676D01*
X0024396Y0142877D02*
X0025131Y0142877D01*
X0025131Y0142079D02*
X0024396Y0142079D01*
X0024396Y0141280D02*
X0025131Y0141280D01*
X0025131Y0140482D02*
X0024396Y0140482D01*
X0024396Y0139683D02*
X0025131Y0139683D01*
X0025131Y0138885D02*
X0024396Y0138885D01*
X0024396Y0138086D02*
X0025271Y0138086D01*
X0024396Y0137288D02*
X0030193Y0137288D01*
X0030581Y0136489D02*
X0024396Y0136489D01*
X0024396Y0135691D02*
X0031196Y0135691D01*
X0031196Y0134892D02*
X0024396Y0134892D01*
X0024396Y0134094D02*
X0031196Y0134094D01*
X0031196Y0133295D02*
X0024396Y0133295D01*
X0024396Y0132497D02*
X0031196Y0132497D01*
X0031196Y0131698D02*
X0024396Y0131698D01*
X0024396Y0130900D02*
X0030742Y0130900D01*
X0029944Y0130101D02*
X0024196Y0130101D01*
X0024088Y0129303D02*
X0029145Y0129303D01*
X0028347Y0128504D02*
X0023757Y0128504D01*
X0023027Y0127706D02*
X0027548Y0127706D01*
X0026750Y0126907D02*
X0013554Y0126907D01*
X0013668Y0126109D02*
X0025951Y0126109D01*
X0025153Y0125310D02*
X0013782Y0125310D01*
X0013896Y0124512D02*
X0022790Y0124512D01*
X0021991Y0123713D02*
X0014115Y0123713D01*
X0014347Y0122915D02*
X0021921Y0122915D01*
X0021921Y0122116D02*
X0014579Y0122116D01*
X0014811Y0121318D02*
X0021921Y0121318D01*
X0021921Y0120519D02*
X0015043Y0120519D01*
X0015276Y0119721D02*
X0021921Y0119721D01*
X0021921Y0118922D02*
X0015508Y0118922D01*
X0015740Y0118124D02*
X0021921Y0118124D01*
X0021921Y0117325D02*
X0016080Y0117325D01*
X0016441Y0116527D02*
X0022192Y0116527D01*
X0024596Y0118515D02*
X0028956Y0118515D01*
X0029016Y0118575D01*
X0029016Y0113380D01*
X0034375Y0108021D01*
X0061775Y0108021D01*
X0058441Y0111355D01*
X0053996Y0111355D01*
X0048932Y0111355D01*
X0047826Y0112461D01*
X0047826Y0115020D02*
X0047826Y0117579D01*
X0047826Y0117579D01*
X0051785Y0117579D01*
X0051785Y0116652D01*
X0051801Y0116680D01*
X0052061Y0116940D01*
X0052381Y0117125D01*
X0052737Y0117220D01*
X0053869Y0117220D01*
X0053869Y0114893D01*
X0054124Y0114893D01*
X0054124Y0117220D01*
X0055255Y0117220D01*
X0055611Y0117125D01*
X0055931Y0116940D01*
X0056191Y0116680D01*
X0056376Y0116360D01*
X0056471Y0116004D01*
X0056471Y0114893D01*
X0054124Y0114893D01*
X0054124Y0114638D01*
X0056471Y0114638D01*
X0056471Y0113526D01*
X0056425Y0113355D01*
X0059269Y0113355D01*
X0059996Y0112628D01*
X0059996Y0124428D01*
X0061168Y0125600D01*
X0063368Y0127800D01*
X0067224Y0127800D01*
X0068396Y0126628D01*
X0070544Y0124480D01*
X0070544Y0128275D01*
X0069832Y0128987D01*
X0069344Y0130163D01*
X0069344Y0131437D01*
X0069832Y0132613D01*
X0070732Y0133513D01*
X0071908Y0134000D01*
X0073181Y0134000D01*
X0074357Y0133513D01*
X0075257Y0132613D01*
X0075396Y0132278D01*
X0075396Y0133172D01*
X0072768Y0135800D01*
X0039196Y0135800D01*
X0039196Y0122738D01*
X0041967Y0119966D01*
X0044748Y0119966D01*
X0044977Y0119738D01*
X0045082Y0119766D01*
X0047826Y0119766D01*
X0047826Y0117579D01*
X0051785Y0117579D01*
X0051785Y0118551D01*
X0051689Y0118907D01*
X0051505Y0119226D01*
X0051244Y0119487D01*
X0050925Y0119671D01*
X0050569Y0119766D01*
X0047826Y0119766D01*
X0047826Y0117579D01*
X0047826Y0115392D01*
X0047826Y0115020D01*
X0047826Y0115020D01*
X0047826Y0115728D02*
X0047826Y0115728D01*
X0047826Y0116527D02*
X0047826Y0116527D01*
X0047826Y0117325D02*
X0047826Y0117325D01*
X0047826Y0117579D02*
X0047826Y0117579D01*
X0047826Y0117579D01*
X0047826Y0118124D02*
X0047826Y0118124D01*
X0047826Y0118922D02*
X0047826Y0118922D01*
X0047826Y0119721D02*
X0047826Y0119721D01*
X0050740Y0119721D02*
X0059996Y0119721D01*
X0059996Y0120519D02*
X0041415Y0120519D01*
X0040616Y0121318D02*
X0059996Y0121318D01*
X0059996Y0122116D02*
X0039818Y0122116D01*
X0039196Y0122915D02*
X0059996Y0122915D01*
X0059996Y0123713D02*
X0039196Y0123713D01*
X0039196Y0124512D02*
X0060079Y0124512D01*
X0060878Y0125310D02*
X0039196Y0125310D01*
X0039196Y0126109D02*
X0061676Y0126109D01*
X0062475Y0126907D02*
X0039196Y0126907D01*
X0039196Y0127706D02*
X0063273Y0127706D01*
X0064196Y0125800D02*
X0061996Y0123600D01*
X0061996Y0109821D01*
X0063796Y0108021D01*
X0061775Y0108021D01*
X0063796Y0108021D02*
X0068607Y0108021D01*
X0068607Y0112389D01*
X0070576Y0112389D02*
X0070576Y0108021D01*
X0068607Y0108021D01*
X0070576Y0108021D02*
X0075796Y0108021D01*
X0075796Y0111894D01*
X0074907Y0112783D01*
X0072544Y0112389D02*
X0072544Y0114852D01*
X0070596Y0116800D01*
X0070576Y0116800D01*
X0070576Y0121051D01*
X0070576Y0125020D01*
X0067196Y0128400D01*
X0067196Y0131000D01*
X0070996Y0134800D01*
X0072996Y0134800D01*
X0075396Y0132400D01*
X0075396Y0127800D01*
X0074907Y0127311D01*
X0074907Y0120657D01*
X0074907Y0120977D02*
X0074907Y0122746D01*
X0075396Y0122746D01*
X0075396Y0129322D01*
X0075257Y0128987D01*
X0074544Y0128275D01*
X0074544Y0122987D01*
X0074785Y0122746D01*
X0074907Y0122746D01*
X0074907Y0120977D01*
X0074907Y0120977D01*
X0074907Y0121318D02*
X0074907Y0121318D01*
X0074907Y0122116D02*
X0074907Y0122116D01*
X0074617Y0122915D02*
X0075396Y0122915D01*
X0075396Y0123713D02*
X0074544Y0123713D01*
X0074544Y0124512D02*
X0075396Y0124512D01*
X0075396Y0125310D02*
X0074544Y0125310D01*
X0074544Y0126109D02*
X0075396Y0126109D01*
X0075396Y0126907D02*
X0074544Y0126907D01*
X0074544Y0127706D02*
X0075396Y0127706D01*
X0075396Y0128504D02*
X0074774Y0128504D01*
X0075388Y0129303D02*
X0075396Y0129303D01*
X0077396Y0129600D02*
X0077396Y0134000D01*
X0073596Y0137800D01*
X0039796Y0137800D01*
X0037196Y0140400D01*
X0037196Y0131000D01*
X0037196Y0130165D01*
X0029016Y0121985D01*
X0024596Y0121925D02*
X0033196Y0130525D01*
X0033196Y0138400D01*
X0030346Y0141250D01*
X0028031Y0141250D01*
X0028031Y0142825D02*
X0034771Y0142825D01*
X0037196Y0140400D01*
X0040396Y0140482D02*
X0085449Y0140482D01*
X0084651Y0139683D02*
X0074541Y0139683D01*
X0075340Y0138885D02*
X0083852Y0138885D01*
X0083054Y0138086D02*
X0076138Y0138086D01*
X0076937Y0137288D02*
X0082255Y0137288D01*
X0081457Y0136489D02*
X0077735Y0136489D01*
X0078534Y0135691D02*
X0080658Y0135691D01*
X0079860Y0134892D02*
X0079332Y0134892D01*
X0075272Y0133295D02*
X0074575Y0133295D01*
X0074474Y0134094D02*
X0039196Y0134094D01*
X0039196Y0134892D02*
X0073675Y0134892D01*
X0072877Y0135691D02*
X0039196Y0135691D01*
X0039196Y0133295D02*
X0070514Y0133295D01*
X0069784Y0132497D02*
X0039196Y0132497D01*
X0039196Y0131698D02*
X0069453Y0131698D01*
X0069344Y0130900D02*
X0039196Y0130900D01*
X0039196Y0130101D02*
X0069370Y0130101D01*
X0069701Y0129303D02*
X0039196Y0129303D01*
X0039196Y0128504D02*
X0070315Y0128504D01*
X0070544Y0127706D02*
X0067319Y0127706D01*
X0068117Y0126907D02*
X0070544Y0126907D01*
X0070544Y0126109D02*
X0068916Y0126109D01*
X0069714Y0125310D02*
X0070544Y0125310D01*
X0070544Y0124512D02*
X0070513Y0124512D01*
X0068607Y0123589D02*
X0066396Y0125800D01*
X0064196Y0125800D01*
X0068607Y0123589D02*
X0068607Y0121051D01*
X0068707Y0118689D02*
X0070596Y0116800D01*
X0068548Y0114752D01*
X0066245Y0114752D01*
X0066245Y0114431D02*
X0066245Y0112783D01*
X0066245Y0112783D01*
X0066245Y0110694D01*
X0065077Y0110694D01*
X0064721Y0110789D01*
X0064401Y0110974D01*
X0064141Y0111234D01*
X0063996Y0111485D01*
X0063996Y0110649D01*
X0064624Y0110021D01*
X0066607Y0110021D01*
X0066607Y0110453D01*
X0066367Y0110694D01*
X0066245Y0110694D01*
X0066245Y0112783D01*
X0066245Y0114431D01*
X0066245Y0114431D01*
X0066245Y0114131D02*
X0066245Y0114131D01*
X0066245Y0113332D02*
X0066245Y0113332D01*
X0066245Y0112783D02*
X0066245Y0112783D01*
X0066245Y0112534D02*
X0066245Y0112534D01*
X0066245Y0111735D02*
X0066245Y0111735D01*
X0066245Y0110937D02*
X0066245Y0110937D01*
X0066607Y0110138D02*
X0064507Y0110138D01*
X0064465Y0110937D02*
X0063996Y0110937D01*
X0059996Y0113332D02*
X0059292Y0113332D01*
X0059996Y0114131D02*
X0056471Y0114131D01*
X0056471Y0114930D02*
X0059996Y0114930D01*
X0059996Y0115728D02*
X0056471Y0115728D01*
X0056280Y0116527D02*
X0059996Y0116527D01*
X0059996Y0117325D02*
X0051785Y0117325D01*
X0051785Y0118124D02*
X0059996Y0118124D01*
X0059996Y0118922D02*
X0051680Y0118922D01*
X0053869Y0116527D02*
X0054124Y0116527D01*
X0054124Y0115728D02*
X0053869Y0115728D01*
X0053869Y0114930D02*
X0054124Y0114930D01*
X0066245Y0118689D02*
X0068707Y0118689D01*
X0068630Y0118466D02*
X0069959Y0118466D01*
X0070159Y0118666D01*
X0070576Y0118666D01*
X0070576Y0119083D01*
X0070576Y0118666D01*
X0070993Y0118666D01*
X0071193Y0118466D01*
X0072322Y0118466D01*
X0072322Y0114774D01*
X0072128Y0114774D01*
X0071928Y0114974D01*
X0068630Y0114974D01*
X0068630Y0115168D01*
X0068830Y0115368D01*
X0068830Y0118072D01*
X0068630Y0118272D01*
X0068630Y0118466D01*
X0068778Y0118124D02*
X0072322Y0118124D01*
X0072322Y0117325D02*
X0068830Y0117325D01*
X0068830Y0116527D02*
X0072322Y0116527D01*
X0072322Y0115728D02*
X0068830Y0115728D01*
X0071972Y0114930D02*
X0072322Y0114930D01*
X0070576Y0118922D02*
X0070576Y0118922D01*
X0070576Y0119083D02*
X0070576Y0119083D01*
X0070576Y0119083D01*
X0072544Y0121051D02*
X0072544Y0130800D01*
X0075305Y0132497D02*
X0075396Y0132497D01*
X0077396Y0129600D02*
X0088996Y0141200D01*
X0088996Y0149578D01*
X0087111Y0151463D01*
X0085077Y0149266D02*
X0078515Y0149266D01*
X0076091Y0148467D02*
X0086996Y0148467D01*
X0086996Y0147668D02*
X0075796Y0147668D01*
X0075674Y0146870D02*
X0080640Y0146870D01*
X0080883Y0147113D02*
X0082059Y0147600D01*
X0083333Y0147600D01*
X0084509Y0147113D01*
X0085409Y0146213D01*
X0085896Y0145037D01*
X0085896Y0143763D01*
X0085409Y0142587D01*
X0084509Y0141687D01*
X0083333Y0141200D01*
X0082059Y0141200D01*
X0080883Y0141687D01*
X0079983Y0142587D01*
X0079496Y0143763D01*
X0079496Y0145037D01*
X0079983Y0146213D01*
X0080883Y0147113D01*
X0079925Y0146071D02*
X0075344Y0146071D01*
X0074594Y0145273D02*
X0079594Y0145273D01*
X0079496Y0144474D02*
X0041396Y0144474D01*
X0041360Y0143676D02*
X0079532Y0143676D01*
X0079863Y0142877D02*
X0041029Y0142877D01*
X0040400Y0142079D02*
X0080492Y0142079D01*
X0081865Y0141280D02*
X0040295Y0141280D01*
X0038196Y0144400D02*
X0028031Y0144400D01*
X0028031Y0145975D02*
X0035771Y0145975D01*
X0038196Y0148400D01*
X0041026Y0146870D02*
X0069518Y0146870D01*
X0069396Y0147668D02*
X0041357Y0147668D01*
X0041396Y0148467D02*
X0069409Y0148467D01*
X0069739Y0149266D02*
X0041301Y0149266D01*
X0040970Y0150064D02*
X0070335Y0150064D01*
X0071628Y0150863D02*
X0040259Y0150863D01*
X0036133Y0150863D02*
X0036054Y0150863D01*
X0035460Y0151661D02*
X0073629Y0151661D01*
X0073700Y0152460D02*
X0034172Y0152460D01*
X0033196Y0149400D02*
X0031346Y0147550D01*
X0028031Y0147550D01*
X0022596Y0147200D02*
X0021396Y0146000D01*
X0017387Y0146000D01*
X0017361Y0145975D01*
X0017361Y0144400D02*
X0020596Y0144400D01*
X0022396Y0142600D01*
X0022396Y0131600D01*
X0020996Y0130200D01*
X0018235Y0128504D02*
X0013327Y0128504D01*
X0013441Y0127706D02*
X0018965Y0127706D01*
X0017904Y0129303D02*
X0013213Y0129303D01*
X0013100Y0130101D02*
X0015369Y0130101D01*
X0014571Y0130900D02*
X0012986Y0130900D01*
X0012941Y0131698D02*
X0014189Y0131698D01*
X0013996Y0132497D02*
X0012913Y0132497D01*
X0012885Y0133295D02*
X0013330Y0133295D01*
X0014196Y0136400D02*
X0013596Y0137000D01*
X0013596Y0139800D01*
X0015046Y0141250D01*
X0017361Y0141250D01*
X0017387Y0142800D02*
X0020196Y0142800D01*
X0020796Y0142200D01*
X0020796Y0136400D01*
X0017196Y0132800D01*
X0017387Y0142800D02*
X0017361Y0142825D01*
X0017361Y0147550D02*
X0019746Y0147550D01*
X0020396Y0148200D01*
X0020396Y0155600D01*
X0022472Y0158049D02*
X0023520Y0158049D01*
X0025596Y0155600D02*
X0022596Y0152400D01*
X0022596Y0147200D01*
X0021913Y0162042D02*
X0098479Y0162042D01*
X0097857Y0162840D02*
X0022535Y0162840D01*
X0023156Y0163639D02*
X0097236Y0163639D01*
X0096614Y0164437D02*
X0023778Y0164437D01*
X0024399Y0165236D02*
X0095993Y0165236D01*
X0095371Y0166034D02*
X0025021Y0166034D01*
X0025754Y0166833D02*
X0094638Y0166833D01*
X0093255Y0161360D02*
X0093611Y0161265D01*
X0093931Y0161080D01*
X0094191Y0160820D01*
X0094376Y0160500D01*
X0094471Y0160144D01*
X0094471Y0159033D01*
X0092124Y0159033D01*
X0092124Y0161360D01*
X0093255Y0161360D01*
X0093648Y0161243D02*
X0099100Y0161243D01*
X0099722Y0160445D02*
X0094391Y0160445D01*
X0094471Y0159646D02*
X0100189Y0159646D01*
X0100621Y0158848D02*
X0092124Y0158848D01*
X0092124Y0159646D02*
X0091869Y0159646D01*
X0091869Y0160445D02*
X0092124Y0160445D01*
X0092124Y0161243D02*
X0091869Y0161243D01*
X0090344Y0161243D02*
X0089436Y0161243D01*
X0094471Y0158049D02*
X0101053Y0158049D01*
X0101485Y0157251D02*
X0094633Y0157251D01*
X0094671Y0156452D02*
X0101917Y0156452D01*
X0102349Y0155654D02*
X0094671Y0155654D01*
X0094671Y0154855D02*
X0102781Y0154855D01*
X0103214Y0154057D02*
X0094671Y0154057D01*
X0094152Y0153258D02*
X0103614Y0153258D01*
X0103888Y0152460D02*
X0093996Y0152460D01*
X0093996Y0151661D02*
X0104162Y0151661D01*
X0104436Y0150863D02*
X0093996Y0150863D01*
X0093996Y0150064D02*
X0104710Y0150064D01*
X0104984Y0149266D02*
X0093996Y0149266D01*
X0093996Y0148467D02*
X0105258Y0148467D01*
X0105532Y0147668D02*
X0093996Y0147668D01*
X0093996Y0146870D02*
X0105807Y0146870D01*
X0106081Y0146071D02*
X0093996Y0146071D01*
X0093996Y0145273D02*
X0106222Y0145273D01*
X0106356Y0144474D02*
X0093996Y0144474D01*
X0093996Y0143676D02*
X0106489Y0143676D01*
X0106622Y0142877D02*
X0093996Y0142877D01*
X0093996Y0142079D02*
X0106755Y0142079D01*
X0106889Y0141280D02*
X0093996Y0141280D01*
X0093996Y0140482D02*
X0107022Y0140482D01*
X0107155Y0139683D02*
X0093708Y0139683D01*
X0092909Y0138885D02*
X0107288Y0138885D01*
X0107394Y0138086D02*
X0092111Y0138086D01*
X0091312Y0137288D02*
X0107427Y0137288D01*
X0107460Y0136489D02*
X0090514Y0136489D01*
X0089715Y0135691D02*
X0107493Y0135691D01*
X0107526Y0134892D02*
X0088917Y0134892D01*
X0088118Y0134094D02*
X0107535Y0134094D01*
X0107507Y0133295D02*
X0087568Y0133295D01*
X0088625Y0132497D02*
X0107479Y0132497D01*
X0107451Y0131698D02*
X0089122Y0131698D01*
X0089196Y0130900D02*
X0096696Y0138400D01*
X0099696Y0138400D01*
X0106196Y0131900D01*
X0106196Y0128900D01*
X0104846Y0127550D01*
X0103031Y0127550D01*
X0096196Y0127550D01*
X0096196Y0116000D01*
X0091781Y0111585D01*
X0087996Y0111585D01*
X0086442Y0113139D01*
X0082676Y0113139D01*
X0082387Y0113332D02*
X0077491Y0113332D01*
X0077491Y0114131D02*
X0079308Y0114131D01*
X0079308Y0114701D02*
X0079308Y0113428D01*
X0082387Y0113428D01*
X0082387Y0115917D01*
X0080523Y0115917D01*
X0080167Y0115822D01*
X0079848Y0115637D01*
X0079587Y0115377D01*
X0079403Y0115057D01*
X0079308Y0114701D01*
X0079369Y0114930D02*
X0077491Y0114930D01*
X0077491Y0115728D02*
X0080005Y0115728D01*
X0077949Y0117325D02*
X0085745Y0117325D01*
X0085261Y0118124D02*
X0078748Y0118124D01*
X0079396Y0118922D02*
X0082148Y0118922D01*
X0081428Y0119721D02*
X0079396Y0119721D01*
X0079396Y0120519D02*
X0081097Y0120519D01*
X0084196Y0121400D02*
X0085621Y0122825D01*
X0092361Y0122825D01*
X0092361Y0124400D02*
X0086196Y0124400D01*
X0084196Y0126400D01*
X0086196Y0128400D02*
X0086196Y0130400D01*
X0086196Y0128400D02*
X0088621Y0125975D01*
X0092361Y0125975D01*
X0092361Y0127550D02*
X0090546Y0127550D01*
X0089196Y0128900D01*
X0089196Y0130900D01*
X0089396Y0130900D02*
X0089787Y0130900D01*
X0089462Y0130101D02*
X0089396Y0130101D01*
X0089462Y0129303D02*
X0089205Y0129303D01*
X0089462Y0128504D02*
X0088920Y0128504D01*
X0092361Y0127550D02*
X0096196Y0127550D01*
X0095261Y0126907D02*
X0099675Y0126907D01*
X0100331Y0127706D02*
X0095061Y0127706D01*
X0095061Y0127550D02*
X0094801Y0127550D01*
X0094801Y0127550D01*
X0095061Y0127550D01*
X0095261Y0128504D02*
X0100131Y0128504D01*
X0100131Y0129303D02*
X0095261Y0129303D01*
X0095261Y0130101D02*
X0100131Y0130101D01*
X0100457Y0130900D02*
X0094935Y0130900D01*
X0095261Y0126109D02*
X0098876Y0126109D01*
X0098078Y0125310D02*
X0095261Y0125310D01*
X0095261Y0124512D02*
X0097279Y0124512D01*
X0097996Y0125228D02*
X0097996Y0125228D01*
X0099996Y0124400D02*
X0101571Y0125975D01*
X0103031Y0125975D01*
X0103031Y0124400D02*
X0099996Y0124400D01*
X0097996Y0122400D01*
X0097996Y0111600D01*
X0097196Y0110800D01*
X0099996Y0109000D02*
X0097396Y0106400D01*
X0094796Y0106400D01*
X0089996Y0106400D01*
X0088196Y0108200D01*
X0088021Y0108200D01*
X0087996Y0108175D01*
X0087842Y0108021D01*
X0082676Y0108021D01*
X0075796Y0108021D01*
X0077796Y0110138D02*
X0079184Y0110138D01*
X0079567Y0110937D02*
X0077796Y0110937D01*
X0077796Y0111735D02*
X0079308Y0111735D01*
X0079308Y0112534D02*
X0077796Y0112534D01*
X0077491Y0116527D02*
X0086771Y0116527D01*
X0085347Y0115728D02*
X0095996Y0115728D01*
X0095996Y0114930D02*
X0085983Y0114930D01*
X0086044Y0114131D02*
X0095996Y0114131D01*
X0095203Y0113332D02*
X0090288Y0113332D01*
X0090471Y0112534D02*
X0094451Y0112534D01*
X0094120Y0111735D02*
X0090471Y0111735D01*
X0090471Y0110937D02*
X0093996Y0110937D01*
X0094006Y0110138D02*
X0090425Y0110138D01*
X0090671Y0109340D02*
X0093532Y0109340D01*
X0092412Y0108541D02*
X0090683Y0108541D01*
X0088124Y0111735D02*
X0087869Y0111735D01*
X0087869Y0112534D02*
X0088124Y0112534D01*
X0088124Y0113332D02*
X0087869Y0113332D01*
X0089621Y0116527D02*
X0095996Y0116527D01*
X0095996Y0117325D02*
X0094360Y0117325D01*
X0095159Y0118124D02*
X0095996Y0118124D01*
X0095996Y0118922D02*
X0095261Y0118922D01*
X0095261Y0119721D02*
X0095996Y0119721D01*
X0095996Y0120519D02*
X0095261Y0120519D01*
X0095261Y0121318D02*
X0095996Y0121318D01*
X0095996Y0122116D02*
X0095261Y0122116D01*
X0095261Y0122915D02*
X0095996Y0122915D01*
X0096481Y0123713D02*
X0095261Y0123713D01*
X0092361Y0121250D02*
X0090046Y0121250D01*
X0088196Y0119400D01*
X0082965Y0115728D02*
X0082387Y0115728D01*
X0082387Y0114930D02*
X0082965Y0114930D01*
X0082965Y0114131D02*
X0082387Y0114131D01*
X0077396Y0119600D02*
X0076485Y0118689D01*
X0074907Y0118689D01*
X0077396Y0119600D02*
X0077396Y0129600D01*
X0080396Y0129200D02*
X0091996Y0140800D01*
X0091996Y0155495D01*
X0087206Y0155495D01*
X0087111Y0155400D01*
X0082196Y0154855D02*
X0081396Y0154855D01*
X0081396Y0154057D02*
X0082196Y0154057D01*
X0082196Y0153258D02*
X0081396Y0153258D01*
X0081396Y0152460D02*
X0082196Y0152460D01*
X0082196Y0151661D02*
X0081396Y0151661D01*
X0081396Y0150863D02*
X0082196Y0150863D01*
X0082196Y0150064D02*
X0081396Y0150064D01*
X0084752Y0146870D02*
X0086996Y0146870D01*
X0086996Y0146071D02*
X0085467Y0146071D01*
X0085798Y0145273D02*
X0086996Y0145273D01*
X0086996Y0144474D02*
X0085896Y0144474D01*
X0085860Y0143676D02*
X0086996Y0143676D01*
X0086996Y0142877D02*
X0085529Y0142877D01*
X0084900Y0142079D02*
X0086996Y0142079D01*
X0086248Y0141280D02*
X0083527Y0141280D01*
X0076259Y0151463D02*
X0072596Y0147800D01*
X0070598Y0145273D02*
X0041298Y0145273D01*
X0040967Y0146071D02*
X0069848Y0146071D01*
X0076259Y0151463D02*
X0076481Y0151463D01*
X0076481Y0155400D02*
X0076481Y0155400D01*
X0079062Y0155654D02*
X0081396Y0155654D01*
X0081396Y0156452D02*
X0082196Y0156452D01*
X0082196Y0157251D02*
X0081396Y0157251D01*
X0081396Y0158049D02*
X0082196Y0158049D01*
X0082196Y0158848D02*
X0081396Y0158848D01*
X0081396Y0159646D02*
X0082196Y0159646D01*
X0082196Y0160445D02*
X0081396Y0160445D01*
X0081396Y0161243D02*
X0082196Y0161243D01*
X0105605Y0130900D02*
X0107406Y0130900D01*
X0107292Y0130101D02*
X0105930Y0130101D01*
X0105930Y0129303D02*
X0107179Y0129303D01*
X0107065Y0128504D02*
X0105930Y0128504D01*
X0105730Y0127706D02*
X0106951Y0127706D01*
X0106838Y0126907D02*
X0105930Y0126907D01*
X0105730Y0127550D02*
X0105471Y0127550D01*
X0105470Y0127550D01*
X0105730Y0127550D01*
X0105930Y0126109D02*
X0106724Y0126109D01*
X0106610Y0125310D02*
X0105930Y0125310D01*
X0105930Y0124512D02*
X0106496Y0124512D01*
X0106277Y0123713D02*
X0105930Y0123713D01*
X0105930Y0122915D02*
X0106045Y0122915D01*
X0103031Y0122825D02*
X0102021Y0122825D01*
X0100446Y0121250D01*
X0103031Y0121250D01*
X0100446Y0121250D02*
X0099996Y0120800D01*
X0099996Y0109000D01*
X0088220Y0105347D02*
X0085612Y0105347D01*
X0079740Y0105347D02*
X0022837Y0105347D01*
X0022202Y0106146D02*
X0033422Y0106146D01*
X0032623Y0106944D02*
X0021679Y0106944D01*
X0021172Y0107743D02*
X0031825Y0107743D01*
X0031026Y0108541D02*
X0020665Y0108541D01*
X0020157Y0109340D02*
X0030228Y0109340D01*
X0029429Y0110138D02*
X0019650Y0110138D01*
X0019143Y0110937D02*
X0028631Y0110937D01*
X0027832Y0111735D02*
X0018635Y0111735D01*
X0018245Y0112534D02*
X0027034Y0112534D01*
X0027016Y0113332D02*
X0017884Y0113332D01*
X0017524Y0114131D02*
X0027016Y0114131D01*
X0027016Y0114930D02*
X0017163Y0114930D01*
X0016802Y0115728D02*
X0027016Y0115728D01*
X0033396Y0114600D02*
X0035535Y0112461D01*
X0041526Y0112461D01*
X0041196Y0112791D01*
X0041196Y0112800D01*
X0041526Y0117579D02*
X0037196Y0121909D01*
X0037196Y0130165D01*
X0080396Y0129200D02*
X0080396Y0124200D01*
D200*
X0080396Y0124200D03*
X0084196Y0126400D03*
X0086196Y0130400D03*
X0084196Y0121400D03*
X0088196Y0119400D03*
X0097196Y0110800D03*
X0094796Y0106400D03*
X0070596Y0116800D03*
X0057196Y0125400D03*
X0043196Y0125400D03*
X0033396Y0114600D03*
X0020996Y0130200D03*
X0017196Y0132800D03*
X0014196Y0136400D03*
X0033196Y0138400D03*
X0037196Y0140400D03*
X0038196Y0144400D03*
X0038196Y0148400D03*
X0043196Y0144400D03*
X0033196Y0149400D03*
X0025596Y0155600D03*
X0020396Y0155600D03*
X0038196Y0157400D03*
X0038196Y0168400D03*
X0056196Y0165900D03*
X0070196Y0159900D03*
X0072596Y0147800D03*
X0082696Y0144400D03*
X0098696Y0157400D03*
X0079196Y0172400D03*
X0057196Y0144400D03*
X0072544Y0130800D03*
X0099696Y0138400D03*
X0114700Y0097000D02*
G75*
%LPD*%
D137*
X0211735Y0127550D03*
X0211735Y0125975D03*
X0211735Y0124400D03*
X0211735Y0122825D03*
X0211735Y0121250D03*
X0201065Y0121250D03*
X0201065Y0122825D03*
X0201065Y0124400D03*
X0201065Y0125975D03*
X0201065Y0127550D03*
X0136735Y0141250D03*
X0136735Y0142825D03*
X0136735Y0144400D03*
X0136735Y0145975D03*
X0136735Y0147550D03*
X0126065Y0147550D03*
X0126065Y0145975D03*
X0126065Y0144400D03*
X0126065Y0142825D03*
X0126065Y0141250D03*
D213*
X0126065Y0139479D03*
X0136735Y0139479D03*
X0136735Y0149321D03*
X0126065Y0149321D03*
X0201065Y0129321D03*
X0211735Y0129321D03*
X0211735Y0119479D03*
X0201065Y0119479D03*
D207*
X0195815Y0151463D03*
X0195815Y0155400D03*
X0195815Y0159337D03*
X0185185Y0159337D03*
X0185185Y0155400D03*
X0185185Y0151463D03*
D68*
X0190500Y0155400D03*
D119*
X0156530Y0117579D03*
X0156530Y0115020D03*
X0156530Y0112461D03*
X0150230Y0112461D03*
X0150230Y0115020D03*
X0150230Y0117579D03*
D148*
X0174949Y0116720D03*
X0174949Y0118689D03*
X0174949Y0120657D03*
X0174949Y0114752D03*
X0174949Y0112783D03*
X0183611Y0112783D03*
X0183611Y0114752D03*
X0183611Y0116720D03*
X0183611Y0118689D03*
X0183611Y0120657D03*
D59*
X0181248Y0121051D03*
X0179280Y0121051D03*
X0177311Y0121051D03*
X0177311Y0112389D03*
X0179280Y0112389D03*
X0181248Y0112389D03*
D54*
X0191380Y0113139D03*
X0191380Y0108021D03*
D201*
X0196700Y0108175D03*
X0196700Y0111585D03*
X0162700Y0111355D03*
X0162700Y0114765D03*
X0137720Y0118575D03*
X0137720Y0121985D03*
X0133300Y0121925D03*
X0133300Y0118515D03*
X0200700Y0155495D03*
X0200700Y0158905D03*
D135*
X0202474Y0167631D02*
X0135326Y0167631D01*
X0136193Y0168430D02*
X0201607Y0168430D01*
X0200739Y0169228D02*
X0137061Y0169228D01*
X0137928Y0170027D02*
X0199872Y0170027D01*
X0199005Y0170825D02*
X0138795Y0170825D01*
X0139663Y0171624D02*
X0198137Y0171624D01*
X0197983Y0171766D02*
X0203737Y0166469D01*
X0208540Y0160298D01*
X0212262Y0153420D01*
X0214801Y0146024D01*
X0216088Y0138310D01*
X0216250Y0134400D01*
X0216250Y0134400D01*
X0216132Y0131052D01*
X0215188Y0124424D01*
X0214634Y0122518D01*
X0214634Y0127090D01*
X0214434Y0127290D01*
X0214434Y0127550D01*
X0214434Y0127868D01*
X0214634Y0128068D01*
X0214634Y0130575D01*
X0213697Y0131512D01*
X0209773Y0131512D01*
X0208835Y0130575D01*
X0208835Y0128068D01*
X0209035Y0127868D01*
X0209035Y0127564D01*
X0206700Y0125228D01*
X0205872Y0124400D01*
X0204700Y0123228D01*
X0204700Y0113767D01*
X0204087Y0113513D01*
X0203187Y0112613D01*
X0202700Y0111437D01*
X0202700Y0110163D01*
X0202933Y0109600D01*
X0202863Y0109600D01*
X0201687Y0109113D01*
X0200975Y0108400D01*
X0199528Y0108400D01*
X0199375Y0108553D01*
X0199375Y0109893D01*
X0199122Y0110146D01*
X0199175Y0110346D01*
X0199175Y0111457D01*
X0196828Y0111457D01*
X0196828Y0111712D01*
X0199175Y0111712D01*
X0199175Y0112824D01*
X0199080Y0113180D01*
X0198895Y0113500D01*
X0198635Y0113760D01*
X0198315Y0113945D01*
X0197959Y0114040D01*
X0196828Y0114040D01*
X0196828Y0111713D01*
X0196573Y0111713D01*
X0196573Y0114040D01*
X0195441Y0114040D01*
X0195085Y0113945D01*
X0194765Y0113760D01*
X0194748Y0113743D01*
X0194748Y0114701D01*
X0194653Y0115057D01*
X0194469Y0115377D01*
X0194208Y0115637D01*
X0193889Y0115822D01*
X0193533Y0115917D01*
X0191669Y0115917D01*
X0191669Y0113428D01*
X0191091Y0113428D01*
X0191091Y0112850D01*
X0188012Y0112850D01*
X0188012Y0111577D01*
X0188107Y0111221D01*
X0188291Y0110902D01*
X0188471Y0110721D01*
X0187812Y0110062D01*
X0187812Y0110021D01*
X0186500Y0110021D01*
X0186500Y0112722D01*
X0186195Y0113027D01*
X0186195Y0116867D01*
X0188100Y0118772D01*
X0188100Y0121151D01*
X0188463Y0121000D01*
X0189700Y0121000D01*
X0189700Y0120763D01*
X0190187Y0119587D01*
X0191087Y0118687D01*
X0192263Y0118200D01*
X0193537Y0118200D01*
X0193875Y0118340D01*
X0194187Y0117587D01*
X0195087Y0116687D01*
X0196263Y0116200D01*
X0197537Y0116200D01*
X0198713Y0116687D01*
X0199314Y0117288D01*
X0203027Y0117288D01*
X0203965Y0118225D01*
X0203965Y0127090D01*
X0203765Y0127290D01*
X0203765Y0127550D01*
X0203765Y0127868D01*
X0203965Y0128068D01*
X0203965Y0130575D01*
X0203027Y0131512D01*
X0199103Y0131512D01*
X0198166Y0130575D01*
X0198166Y0128068D01*
X0198259Y0127975D01*
X0198154Y0127975D01*
X0197577Y0128551D01*
X0197613Y0128587D01*
X0198100Y0129763D01*
X0198100Y0131037D01*
X0197613Y0132213D01*
X0196713Y0133113D01*
X0196096Y0133368D01*
X0201528Y0138800D01*
X0202700Y0139972D01*
X0202700Y0153102D01*
X0203375Y0153777D01*
X0203375Y0157213D01*
X0203122Y0157466D01*
X0203175Y0157666D01*
X0203175Y0158777D01*
X0200828Y0158777D01*
X0200828Y0159033D01*
X0200573Y0159033D01*
X0200573Y0161360D01*
X0199441Y0161360D01*
X0199085Y0161265D01*
X0198765Y0161080D01*
X0198534Y0160849D01*
X0197659Y0161724D01*
X0193971Y0161724D01*
X0193743Y0161496D01*
X0193637Y0161524D01*
X0190900Y0161524D01*
X0190900Y0155800D01*
X0190100Y0155800D01*
X0190100Y0155000D01*
X0187766Y0155000D01*
X0187766Y0155400D01*
X0185185Y0155400D01*
X0182604Y0155400D01*
X0182604Y0154428D01*
X0182699Y0154072D01*
X0182884Y0153753D01*
X0183064Y0153573D01*
X0182404Y0152913D01*
X0182404Y0151732D01*
X0181672Y0151000D01*
X0180663Y0151000D01*
X0179487Y0150513D01*
X0178587Y0149613D01*
X0178100Y0148437D01*
X0178100Y0147163D01*
X0178587Y0145987D01*
X0179487Y0145087D01*
X0180663Y0144600D01*
X0181937Y0144600D01*
X0183113Y0145087D01*
X0184013Y0145987D01*
X0184500Y0147163D01*
X0184500Y0148172D01*
X0185404Y0149076D01*
X0187029Y0149076D01*
X0187257Y0149304D01*
X0187363Y0149276D01*
X0190100Y0149276D01*
X0190100Y0155000D01*
X0190900Y0155000D01*
X0190900Y0149276D01*
X0193637Y0149276D01*
X0193743Y0149304D01*
X0193971Y0149076D01*
X0195374Y0149076D01*
X0195700Y0148750D01*
X0195700Y0142028D01*
X0188100Y0134428D01*
X0188100Y0134828D01*
X0184300Y0138628D01*
X0183128Y0139800D01*
X0149328Y0139800D01*
X0149100Y0140028D01*
X0149100Y0141037D01*
X0148796Y0141770D01*
X0149613Y0142587D01*
X0150100Y0143763D01*
X0150100Y0145037D01*
X0149613Y0146213D01*
X0149425Y0146400D01*
X0149613Y0146587D01*
X0150100Y0147763D01*
X0150100Y0149037D01*
X0149613Y0150213D01*
X0148713Y0151113D01*
X0147537Y0151600D01*
X0146263Y0151600D01*
X0145087Y0151113D01*
X0144781Y0150807D01*
X0144613Y0151213D01*
X0143713Y0152113D01*
X0142537Y0152600D01*
X0141263Y0152600D01*
X0140087Y0152113D01*
X0139187Y0151213D01*
X0139131Y0151077D01*
X0138697Y0151512D01*
X0134773Y0151512D01*
X0133835Y0150575D01*
X0133835Y0138225D01*
X0134773Y0137288D01*
X0138697Y0137288D01*
X0138838Y0137430D01*
X0139187Y0136587D01*
X0139900Y0135875D01*
X0139900Y0131353D01*
X0133127Y0124580D01*
X0131562Y0124580D01*
X0130625Y0123643D01*
X0130625Y0116797D01*
X0131562Y0115860D01*
X0135038Y0115860D01*
X0135540Y0116362D01*
X0135720Y0116182D01*
X0135720Y0112552D01*
X0136892Y0111380D01*
X0142251Y0106021D01*
X0187812Y0106021D01*
X0187812Y0105980D01*
X0188749Y0105043D01*
X0194011Y0105043D01*
X0194725Y0105757D01*
X0194962Y0105520D01*
X0196752Y0105520D01*
X0197722Y0104550D01*
X0132176Y0104550D01*
X0130828Y0106243D01*
X0127238Y0111894D01*
X0124481Y0117995D01*
X0122612Y0124424D01*
X0121668Y0131052D01*
X0121582Y0133482D01*
X0122263Y0133200D01*
X0122700Y0133200D01*
X0122700Y0132163D01*
X0123187Y0130987D01*
X0124087Y0130087D01*
X0125263Y0129600D01*
X0126500Y0129600D01*
X0126500Y0129563D01*
X0126987Y0128387D01*
X0127887Y0127487D01*
X0129063Y0127000D01*
X0130337Y0127000D01*
X0131513Y0127487D01*
X0132413Y0128387D01*
X0132900Y0129563D01*
X0132900Y0130572D01*
X0133100Y0130772D01*
X0133100Y0143428D01*
X0131728Y0144800D01*
X0132100Y0145172D01*
X0133300Y0146372D01*
X0133300Y0151609D01*
X0134041Y0152400D01*
X0134937Y0152400D01*
X0136113Y0152887D01*
X0137013Y0153787D01*
X0137500Y0154963D01*
X0137500Y0156237D01*
X0137013Y0157413D01*
X0136113Y0158313D01*
X0134937Y0158800D01*
X0133663Y0158800D01*
X0132487Y0158313D01*
X0131700Y0157525D01*
X0130913Y0158313D01*
X0129737Y0158800D01*
X0128463Y0158800D01*
X0128445Y0158793D01*
X0129260Y0160298D01*
X0134063Y0166469D01*
X0139817Y0171766D01*
X0146364Y0176043D01*
X0153525Y0179184D01*
X0161106Y0181104D01*
X0168900Y0181750D01*
X0176694Y0181104D01*
X0184275Y0179184D01*
X0191436Y0176043D01*
X0197983Y0171766D01*
X0196978Y0172422D02*
X0140822Y0172422D01*
X0142044Y0173221D02*
X0195756Y0173221D01*
X0194534Y0174019D02*
X0143266Y0174019D01*
X0144489Y0174818D02*
X0193311Y0174818D01*
X0192089Y0175616D02*
X0145711Y0175616D01*
X0147211Y0176415D02*
X0190589Y0176415D01*
X0188768Y0177213D02*
X0149032Y0177213D01*
X0150852Y0178012D02*
X0186948Y0178012D01*
X0185127Y0178810D02*
X0152673Y0178810D01*
X0155202Y0179609D02*
X0182598Y0179609D01*
X0179445Y0180407D02*
X0158355Y0180407D01*
X0162334Y0181206D02*
X0175466Y0181206D01*
X0183341Y0161724D02*
X0187029Y0161724D01*
X0187257Y0161496D01*
X0187363Y0161524D01*
X0190100Y0161524D01*
X0190100Y0155800D01*
X0187766Y0155800D01*
X0187766Y0155400D01*
X0185185Y0155400D01*
X0185185Y0155400D01*
X0182604Y0155400D01*
X0182604Y0156372D01*
X0182699Y0156728D01*
X0182884Y0157047D01*
X0183064Y0157227D01*
X0182404Y0157887D01*
X0182404Y0160787D01*
X0183341Y0161724D01*
X0182860Y0161243D02*
X0129996Y0161243D01*
X0129374Y0160445D02*
X0182404Y0160445D01*
X0182404Y0159646D02*
X0128907Y0159646D01*
X0128475Y0158848D02*
X0182404Y0158848D01*
X0182404Y0158049D02*
X0136376Y0158049D01*
X0137080Y0157251D02*
X0183040Y0157251D01*
X0182625Y0156452D02*
X0137411Y0156452D01*
X0137500Y0155654D02*
X0182604Y0155654D01*
X0182604Y0154855D02*
X0137455Y0154855D01*
X0137124Y0154057D02*
X0182708Y0154057D01*
X0182749Y0153258D02*
X0136484Y0153258D01*
X0135080Y0152460D02*
X0140924Y0152460D01*
X0139636Y0151661D02*
X0133349Y0151661D01*
X0133300Y0150863D02*
X0134123Y0150863D01*
X0133835Y0150064D02*
X0133300Y0150064D01*
X0133300Y0149266D02*
X0133835Y0149266D01*
X0133835Y0148467D02*
X0133300Y0148467D01*
X0133300Y0147668D02*
X0133835Y0147668D01*
X0133835Y0146870D02*
X0133300Y0146870D01*
X0133000Y0146071D02*
X0133835Y0146071D01*
X0133835Y0145273D02*
X0132201Y0145273D01*
X0132054Y0144474D02*
X0133835Y0144474D01*
X0133835Y0143676D02*
X0132853Y0143676D01*
X0133100Y0142877D02*
X0133835Y0142877D01*
X0133835Y0142079D02*
X0133100Y0142079D01*
X0133100Y0141280D02*
X0133835Y0141280D01*
X0133835Y0140482D02*
X0133100Y0140482D01*
X0133100Y0139683D02*
X0133835Y0139683D01*
X0133835Y0138885D02*
X0133100Y0138885D01*
X0133100Y0138086D02*
X0133975Y0138086D01*
X0133100Y0137288D02*
X0138897Y0137288D01*
X0139285Y0136489D02*
X0133100Y0136489D01*
X0133100Y0135691D02*
X0139900Y0135691D01*
X0139900Y0134892D02*
X0133100Y0134892D01*
X0133100Y0134094D02*
X0139900Y0134094D01*
X0139900Y0133295D02*
X0133100Y0133295D01*
X0133100Y0132497D02*
X0139900Y0132497D01*
X0139900Y0131698D02*
X0133100Y0131698D01*
X0133100Y0130900D02*
X0139446Y0130900D01*
X0138648Y0130101D02*
X0132900Y0130101D01*
X0132792Y0129303D02*
X0137849Y0129303D01*
X0137051Y0128504D02*
X0132461Y0128504D01*
X0131731Y0127706D02*
X0136252Y0127706D01*
X0135454Y0126907D02*
X0122258Y0126907D01*
X0122372Y0126109D02*
X0134655Y0126109D01*
X0133857Y0125310D02*
X0122486Y0125310D01*
X0122600Y0124512D02*
X0131494Y0124512D01*
X0130695Y0123713D02*
X0122819Y0123713D01*
X0123051Y0122915D02*
X0130625Y0122915D01*
X0130625Y0122116D02*
X0123283Y0122116D01*
X0123515Y0121318D02*
X0130625Y0121318D01*
X0130625Y0120519D02*
X0123747Y0120519D01*
X0123980Y0119721D02*
X0130625Y0119721D01*
X0130625Y0118922D02*
X0124212Y0118922D01*
X0124444Y0118124D02*
X0130625Y0118124D01*
X0130625Y0117325D02*
X0124784Y0117325D01*
X0125145Y0116527D02*
X0130896Y0116527D01*
X0133300Y0118515D02*
X0137660Y0118515D01*
X0137720Y0118575D01*
X0137720Y0113380D01*
X0143079Y0108021D01*
X0170479Y0108021D01*
X0167145Y0111355D01*
X0162700Y0111355D01*
X0157636Y0111355D01*
X0156530Y0112461D01*
X0156530Y0115020D02*
X0156530Y0117579D01*
X0156530Y0117579D01*
X0160489Y0117579D01*
X0160489Y0116652D01*
X0160505Y0116680D01*
X0160765Y0116940D01*
X0161085Y0117125D01*
X0161441Y0117220D01*
X0162573Y0117220D01*
X0162573Y0114893D01*
X0162828Y0114893D01*
X0162828Y0117220D01*
X0163959Y0117220D01*
X0164315Y0117125D01*
X0164635Y0116940D01*
X0164895Y0116680D01*
X0165080Y0116360D01*
X0165175Y0116004D01*
X0165175Y0114893D01*
X0162828Y0114893D01*
X0162828Y0114638D01*
X0165175Y0114638D01*
X0165175Y0113526D01*
X0165129Y0113355D01*
X0167973Y0113355D01*
X0168700Y0112628D01*
X0168700Y0124428D01*
X0169872Y0125600D01*
X0172072Y0127800D01*
X0175928Y0127800D01*
X0177100Y0126628D01*
X0179248Y0124480D01*
X0179248Y0128275D01*
X0178536Y0128987D01*
X0178048Y0130163D01*
X0178048Y0131437D01*
X0178536Y0132613D01*
X0179436Y0133513D01*
X0180612Y0134000D01*
X0181885Y0134000D01*
X0183061Y0133513D01*
X0183961Y0132613D01*
X0184100Y0132278D01*
X0184100Y0133172D01*
X0181472Y0135800D01*
X0147900Y0135800D01*
X0147900Y0122738D01*
X0150671Y0119966D01*
X0153452Y0119966D01*
X0153681Y0119738D01*
X0153786Y0119766D01*
X0156530Y0119766D01*
X0156530Y0117579D01*
X0160489Y0117579D01*
X0160489Y0118551D01*
X0160393Y0118907D01*
X0160209Y0119226D01*
X0159948Y0119487D01*
X0159629Y0119671D01*
X0159273Y0119766D01*
X0156530Y0119766D01*
X0156530Y0117579D01*
X0156530Y0115392D01*
X0156530Y0115020D01*
X0156530Y0115020D01*
X0156530Y0115728D02*
X0156530Y0115728D01*
X0156530Y0116527D02*
X0156530Y0116527D01*
X0156530Y0117325D02*
X0156530Y0117325D01*
X0156530Y0117579D02*
X0156530Y0117579D01*
X0156530Y0117579D01*
X0156530Y0118124D02*
X0156530Y0118124D01*
X0156530Y0118922D02*
X0156530Y0118922D01*
X0156530Y0119721D02*
X0156530Y0119721D01*
X0159444Y0119721D02*
X0168700Y0119721D01*
X0168700Y0120519D02*
X0150119Y0120519D01*
X0149320Y0121318D02*
X0168700Y0121318D01*
X0168700Y0122116D02*
X0148522Y0122116D01*
X0147900Y0122915D02*
X0168700Y0122915D01*
X0168700Y0123713D02*
X0147900Y0123713D01*
X0147900Y0124512D02*
X0168783Y0124512D01*
X0169582Y0125310D02*
X0147900Y0125310D01*
X0147900Y0126109D02*
X0170380Y0126109D01*
X0171179Y0126907D02*
X0147900Y0126907D01*
X0147900Y0127706D02*
X0171977Y0127706D01*
X0172900Y0125800D02*
X0170700Y0123600D01*
X0170700Y0109821D01*
X0172500Y0108021D01*
X0170479Y0108021D01*
X0172500Y0108021D02*
X0177311Y0108021D01*
X0177311Y0112389D01*
X0179280Y0112389D02*
X0179280Y0108021D01*
X0177311Y0108021D01*
X0179280Y0108021D02*
X0184500Y0108021D01*
X0184500Y0111894D01*
X0183611Y0112783D01*
X0181248Y0112389D02*
X0181248Y0114852D01*
X0179300Y0116800D01*
X0179280Y0116800D01*
X0179280Y0121051D01*
X0179280Y0125020D01*
X0175900Y0128400D01*
X0175900Y0131000D01*
X0179700Y0134800D01*
X0181700Y0134800D01*
X0184100Y0132400D01*
X0184100Y0127800D01*
X0183611Y0127311D01*
X0183611Y0120657D01*
X0183611Y0120977D02*
X0183611Y0122746D01*
X0184100Y0122746D01*
X0184100Y0129322D01*
X0183961Y0128987D01*
X0183248Y0128275D01*
X0183248Y0122987D01*
X0183489Y0122746D01*
X0183611Y0122746D01*
X0183611Y0120977D01*
X0183611Y0120977D01*
X0183611Y0121318D02*
X0183611Y0121318D01*
X0183611Y0122116D02*
X0183611Y0122116D01*
X0183321Y0122915D02*
X0184100Y0122915D01*
X0184100Y0123713D02*
X0183248Y0123713D01*
X0183248Y0124512D02*
X0184100Y0124512D01*
X0184100Y0125310D02*
X0183248Y0125310D01*
X0183248Y0126109D02*
X0184100Y0126109D01*
X0184100Y0126907D02*
X0183248Y0126907D01*
X0183248Y0127706D02*
X0184100Y0127706D01*
X0184100Y0128504D02*
X0183478Y0128504D01*
X0184092Y0129303D02*
X0184100Y0129303D01*
X0186100Y0129600D02*
X0186100Y0134000D01*
X0182300Y0137800D01*
X0148500Y0137800D01*
X0145900Y0140400D01*
X0145900Y0131000D01*
X0145900Y0130165D01*
X0137720Y0121985D01*
X0133300Y0121925D02*
X0141900Y0130525D01*
X0141900Y0138400D01*
X0139050Y0141250D01*
X0136735Y0141250D01*
X0136735Y0142825D02*
X0143475Y0142825D01*
X0145900Y0140400D01*
X0149100Y0140482D02*
X0194153Y0140482D01*
X0193355Y0139683D02*
X0183245Y0139683D01*
X0184044Y0138885D02*
X0192556Y0138885D01*
X0191758Y0138086D02*
X0184842Y0138086D01*
X0185641Y0137288D02*
X0190959Y0137288D01*
X0190161Y0136489D02*
X0186439Y0136489D01*
X0187238Y0135691D02*
X0189362Y0135691D01*
X0188564Y0134892D02*
X0188036Y0134892D01*
X0183976Y0133295D02*
X0183279Y0133295D01*
X0183178Y0134094D02*
X0147900Y0134094D01*
X0147900Y0134892D02*
X0182379Y0134892D01*
X0181581Y0135691D02*
X0147900Y0135691D01*
X0147900Y0133295D02*
X0179218Y0133295D01*
X0178488Y0132497D02*
X0147900Y0132497D01*
X0147900Y0131698D02*
X0178157Y0131698D01*
X0178048Y0130900D02*
X0147900Y0130900D01*
X0147900Y0130101D02*
X0178074Y0130101D01*
X0178405Y0129303D02*
X0147900Y0129303D01*
X0147900Y0128504D02*
X0179019Y0128504D01*
X0179248Y0127706D02*
X0176023Y0127706D01*
X0176821Y0126907D02*
X0179248Y0126907D01*
X0179248Y0126109D02*
X0177620Y0126109D01*
X0178418Y0125310D02*
X0179248Y0125310D01*
X0179248Y0124512D02*
X0179217Y0124512D01*
X0177311Y0123589D02*
X0175100Y0125800D01*
X0172900Y0125800D01*
X0177311Y0123589D02*
X0177311Y0121051D01*
X0177411Y0118689D02*
X0179300Y0116800D01*
X0177252Y0114752D01*
X0174949Y0114752D01*
X0174949Y0114431D02*
X0174949Y0112783D01*
X0174949Y0112783D01*
X0174949Y0110694D01*
X0173781Y0110694D01*
X0173425Y0110789D01*
X0173105Y0110974D01*
X0172845Y0111234D01*
X0172700Y0111485D01*
X0172700Y0110649D01*
X0173328Y0110021D01*
X0175311Y0110021D01*
X0175311Y0110453D01*
X0175071Y0110694D01*
X0174949Y0110694D01*
X0174949Y0112783D01*
X0174949Y0114431D01*
X0174949Y0114431D01*
X0174949Y0114131D02*
X0174949Y0114131D01*
X0174949Y0113332D02*
X0174949Y0113332D01*
X0174949Y0112783D02*
X0174949Y0112783D01*
X0174949Y0112534D02*
X0174949Y0112534D01*
X0174949Y0111735D02*
X0174949Y0111735D01*
X0174949Y0110937D02*
X0174949Y0110937D01*
X0175311Y0110138D02*
X0173211Y0110138D01*
X0173169Y0110937D02*
X0172700Y0110937D01*
X0168700Y0113332D02*
X0167996Y0113332D01*
X0168700Y0114131D02*
X0165175Y0114131D01*
X0165175Y0114930D02*
X0168700Y0114930D01*
X0168700Y0115728D02*
X0165175Y0115728D01*
X0164984Y0116527D02*
X0168700Y0116527D01*
X0168700Y0117325D02*
X0160489Y0117325D01*
X0160489Y0118124D02*
X0168700Y0118124D01*
X0168700Y0118922D02*
X0160384Y0118922D01*
X0162573Y0116527D02*
X0162828Y0116527D01*
X0162828Y0115728D02*
X0162573Y0115728D01*
X0162573Y0114930D02*
X0162828Y0114930D01*
X0174949Y0118689D02*
X0177411Y0118689D01*
X0177334Y0118466D02*
X0178663Y0118466D01*
X0178863Y0118666D01*
X0179280Y0118666D01*
X0179280Y0119083D01*
X0179280Y0118666D01*
X0179697Y0118666D01*
X0179897Y0118466D01*
X0181026Y0118466D01*
X0181026Y0114774D01*
X0180832Y0114774D01*
X0180632Y0114974D01*
X0177334Y0114974D01*
X0177334Y0115168D01*
X0177534Y0115368D01*
X0177534Y0118072D01*
X0177334Y0118272D01*
X0177334Y0118466D01*
X0177482Y0118124D02*
X0181026Y0118124D01*
X0181026Y0117325D02*
X0177534Y0117325D01*
X0177534Y0116527D02*
X0181026Y0116527D01*
X0181026Y0115728D02*
X0177534Y0115728D01*
X0180676Y0114930D02*
X0181026Y0114930D01*
X0179280Y0118922D02*
X0179280Y0118922D01*
X0179280Y0119083D02*
X0179280Y0119083D01*
X0179280Y0119083D01*
X0181248Y0121051D02*
X0181248Y0130800D01*
X0184009Y0132497D02*
X0184100Y0132497D01*
X0186100Y0129600D02*
X0197700Y0141200D01*
X0197700Y0149578D01*
X0195815Y0151463D01*
X0193781Y0149266D02*
X0187219Y0149266D01*
X0184795Y0148467D02*
X0195700Y0148467D01*
X0195700Y0147668D02*
X0184500Y0147668D01*
X0184378Y0146870D02*
X0189344Y0146870D01*
X0189587Y0147113D02*
X0190763Y0147600D01*
X0192037Y0147600D01*
X0193213Y0147113D01*
X0194113Y0146213D01*
X0194600Y0145037D01*
X0194600Y0143763D01*
X0194113Y0142587D01*
X0193213Y0141687D01*
X0192037Y0141200D01*
X0190763Y0141200D01*
X0189587Y0141687D01*
X0188687Y0142587D01*
X0188200Y0143763D01*
X0188200Y0145037D01*
X0188687Y0146213D01*
X0189587Y0147113D01*
X0188629Y0146071D02*
X0184048Y0146071D01*
X0183298Y0145273D02*
X0188298Y0145273D01*
X0188200Y0144474D02*
X0150100Y0144474D01*
X0150064Y0143676D02*
X0188236Y0143676D01*
X0188567Y0142877D02*
X0149733Y0142877D01*
X0149104Y0142079D02*
X0189196Y0142079D01*
X0190569Y0141280D02*
X0148999Y0141280D01*
X0146900Y0144400D02*
X0136735Y0144400D01*
X0136735Y0145975D02*
X0144475Y0145975D01*
X0146900Y0148400D01*
X0149730Y0146870D02*
X0178222Y0146870D01*
X0178100Y0147668D02*
X0150061Y0147668D01*
X0150100Y0148467D02*
X0178113Y0148467D01*
X0178443Y0149266D02*
X0150005Y0149266D01*
X0149674Y0150064D02*
X0179039Y0150064D01*
X0180332Y0150863D02*
X0148963Y0150863D01*
X0144837Y0150863D02*
X0144758Y0150863D01*
X0144164Y0151661D02*
X0182333Y0151661D01*
X0182404Y0152460D02*
X0142876Y0152460D01*
X0141900Y0149400D02*
X0140050Y0147550D01*
X0136735Y0147550D01*
X0131300Y0147200D02*
X0130100Y0146000D01*
X0126091Y0146000D01*
X0126065Y0145975D01*
X0126065Y0144400D02*
X0129300Y0144400D01*
X0131100Y0142600D01*
X0131100Y0131600D01*
X0129700Y0130200D01*
X0126939Y0128504D02*
X0122031Y0128504D01*
X0122145Y0127706D02*
X0127669Y0127706D01*
X0126608Y0129303D02*
X0121917Y0129303D01*
X0121804Y0130101D02*
X0124073Y0130101D01*
X0123275Y0130900D02*
X0121690Y0130900D01*
X0121645Y0131698D02*
X0122893Y0131698D01*
X0122700Y0132497D02*
X0121617Y0132497D01*
X0121589Y0133295D02*
X0122034Y0133295D01*
X0122900Y0136400D02*
X0122300Y0137000D01*
X0122300Y0139800D01*
X0123750Y0141250D01*
X0126065Y0141250D01*
X0126091Y0142800D02*
X0128900Y0142800D01*
X0129500Y0142200D01*
X0129500Y0136400D01*
X0125900Y0132800D01*
X0126091Y0142800D02*
X0126065Y0142825D01*
X0126065Y0147550D02*
X0128450Y0147550D01*
X0129100Y0148200D01*
X0129100Y0155600D01*
X0131176Y0158049D02*
X0132224Y0158049D01*
X0134300Y0155600D02*
X0131300Y0152400D01*
X0131300Y0147200D01*
X0130617Y0162042D02*
X0207183Y0162042D01*
X0206561Y0162840D02*
X0131239Y0162840D01*
X0131860Y0163639D02*
X0205940Y0163639D01*
X0205318Y0164437D02*
X0132482Y0164437D01*
X0133103Y0165236D02*
X0204697Y0165236D01*
X0204075Y0166034D02*
X0133725Y0166034D01*
X0134458Y0166833D02*
X0203342Y0166833D01*
X0201959Y0161360D02*
X0202315Y0161265D01*
X0202635Y0161080D01*
X0202895Y0160820D01*
X0203080Y0160500D01*
X0203175Y0160144D01*
X0203175Y0159033D01*
X0200828Y0159033D01*
X0200828Y0161360D01*
X0201959Y0161360D01*
X0202352Y0161243D02*
X0207804Y0161243D01*
X0208426Y0160445D02*
X0203095Y0160445D01*
X0203175Y0159646D02*
X0208893Y0159646D01*
X0209325Y0158848D02*
X0200828Y0158848D01*
X0200828Y0159646D02*
X0200573Y0159646D01*
X0200573Y0160445D02*
X0200828Y0160445D01*
X0200828Y0161243D02*
X0200573Y0161243D01*
X0199048Y0161243D02*
X0198140Y0161243D01*
X0203175Y0158049D02*
X0209757Y0158049D01*
X0210189Y0157251D02*
X0203337Y0157251D01*
X0203375Y0156452D02*
X0210621Y0156452D01*
X0211053Y0155654D02*
X0203375Y0155654D01*
X0203375Y0154855D02*
X0211485Y0154855D01*
X0211918Y0154057D02*
X0203375Y0154057D01*
X0202856Y0153258D02*
X0212318Y0153258D01*
X0212592Y0152460D02*
X0202700Y0152460D01*
X0202700Y0151661D02*
X0212866Y0151661D01*
X0213140Y0150863D02*
X0202700Y0150863D01*
X0202700Y0150064D02*
X0213414Y0150064D01*
X0213688Y0149266D02*
X0202700Y0149266D01*
X0202700Y0148467D02*
X0213962Y0148467D01*
X0214236Y0147668D02*
X0202700Y0147668D01*
X0202700Y0146870D02*
X0214511Y0146870D01*
X0214785Y0146071D02*
X0202700Y0146071D01*
X0202700Y0145273D02*
X0214926Y0145273D01*
X0215060Y0144474D02*
X0202700Y0144474D01*
X0202700Y0143676D02*
X0215193Y0143676D01*
X0215326Y0142877D02*
X0202700Y0142877D01*
X0202700Y0142079D02*
X0215459Y0142079D01*
X0215593Y0141280D02*
X0202700Y0141280D01*
X0202700Y0140482D02*
X0215726Y0140482D01*
X0215859Y0139683D02*
X0202412Y0139683D01*
X0201613Y0138885D02*
X0215992Y0138885D01*
X0216098Y0138086D02*
X0200815Y0138086D01*
X0200016Y0137288D02*
X0216131Y0137288D01*
X0216164Y0136489D02*
X0199218Y0136489D01*
X0198419Y0135691D02*
X0216197Y0135691D01*
X0216230Y0134892D02*
X0197621Y0134892D01*
X0196822Y0134094D02*
X0216239Y0134094D01*
X0216211Y0133295D02*
X0196272Y0133295D01*
X0197329Y0132497D02*
X0216183Y0132497D01*
X0216155Y0131698D02*
X0197826Y0131698D01*
X0197900Y0130900D02*
X0205400Y0138400D01*
X0208400Y0138400D01*
X0214900Y0131900D01*
X0214900Y0128900D01*
X0213550Y0127550D01*
X0211735Y0127550D01*
X0204900Y0127550D01*
X0204900Y0116000D01*
X0200485Y0111585D01*
X0196700Y0111585D01*
X0195146Y0113139D01*
X0191380Y0113139D01*
X0191091Y0113332D02*
X0186195Y0113332D01*
X0186195Y0114131D02*
X0188012Y0114131D01*
X0188012Y0114701D02*
X0188012Y0113428D01*
X0191091Y0113428D01*
X0191091Y0115917D01*
X0189227Y0115917D01*
X0188871Y0115822D01*
X0188552Y0115637D01*
X0188291Y0115377D01*
X0188107Y0115057D01*
X0188012Y0114701D01*
X0188073Y0114930D02*
X0186195Y0114930D01*
X0186195Y0115728D02*
X0188709Y0115728D01*
X0186653Y0117325D02*
X0194449Y0117325D01*
X0193965Y0118124D02*
X0187452Y0118124D01*
X0188100Y0118922D02*
X0190852Y0118922D01*
X0190132Y0119721D02*
X0188100Y0119721D01*
X0188100Y0120519D02*
X0189801Y0120519D01*
X0192900Y0121400D02*
X0194325Y0122825D01*
X0201065Y0122825D01*
X0201065Y0124400D02*
X0194900Y0124400D01*
X0192900Y0126400D01*
X0194900Y0128400D02*
X0194900Y0130400D01*
X0194900Y0128400D02*
X0197325Y0125975D01*
X0201065Y0125975D01*
X0201065Y0127550D02*
X0199250Y0127550D01*
X0197900Y0128900D01*
X0197900Y0130900D01*
X0198100Y0130900D02*
X0198491Y0130900D01*
X0198166Y0130101D02*
X0198100Y0130101D01*
X0198166Y0129303D02*
X0197909Y0129303D01*
X0198166Y0128504D02*
X0197624Y0128504D01*
X0201065Y0127550D02*
X0204900Y0127550D01*
X0203965Y0126907D02*
X0208379Y0126907D01*
X0209035Y0127706D02*
X0203765Y0127706D01*
X0203765Y0127550D02*
X0203505Y0127550D01*
X0203505Y0127550D01*
X0203765Y0127550D01*
X0203965Y0128504D02*
X0208835Y0128504D01*
X0208835Y0129303D02*
X0203965Y0129303D01*
X0203965Y0130101D02*
X0208835Y0130101D01*
X0209161Y0130900D02*
X0203639Y0130900D01*
X0203965Y0126109D02*
X0207580Y0126109D01*
X0206782Y0125310D02*
X0203965Y0125310D01*
X0203965Y0124512D02*
X0205983Y0124512D01*
X0206700Y0125228D02*
X0206700Y0125228D01*
X0208700Y0124400D02*
X0210275Y0125975D01*
X0211735Y0125975D01*
X0211735Y0124400D02*
X0208700Y0124400D01*
X0206700Y0122400D01*
X0206700Y0111600D01*
X0205900Y0110800D01*
X0208700Y0109000D02*
X0206100Y0106400D01*
X0203500Y0106400D01*
X0198700Y0106400D01*
X0196900Y0108200D01*
X0196725Y0108200D01*
X0196700Y0108175D01*
X0196546Y0108021D01*
X0191380Y0108021D01*
X0184500Y0108021D01*
X0186500Y0110138D02*
X0187888Y0110138D01*
X0188271Y0110937D02*
X0186500Y0110937D01*
X0186500Y0111735D02*
X0188012Y0111735D01*
X0188012Y0112534D02*
X0186500Y0112534D01*
X0186195Y0116527D02*
X0195475Y0116527D01*
X0194051Y0115728D02*
X0204700Y0115728D01*
X0204700Y0114930D02*
X0194687Y0114930D01*
X0194748Y0114131D02*
X0204700Y0114131D01*
X0203907Y0113332D02*
X0198992Y0113332D01*
X0199175Y0112534D02*
X0203155Y0112534D01*
X0202824Y0111735D02*
X0199175Y0111735D01*
X0199175Y0110937D02*
X0202700Y0110937D01*
X0202710Y0110138D02*
X0199129Y0110138D01*
X0199375Y0109340D02*
X0202236Y0109340D01*
X0201116Y0108541D02*
X0199387Y0108541D01*
X0196828Y0111735D02*
X0196573Y0111735D01*
X0196573Y0112534D02*
X0196828Y0112534D01*
X0196828Y0113332D02*
X0196573Y0113332D01*
X0198325Y0116527D02*
X0204700Y0116527D01*
X0204700Y0117325D02*
X0203064Y0117325D01*
X0203863Y0118124D02*
X0204700Y0118124D01*
X0204700Y0118922D02*
X0203965Y0118922D01*
X0203965Y0119721D02*
X0204700Y0119721D01*
X0204700Y0120519D02*
X0203965Y0120519D01*
X0203965Y0121318D02*
X0204700Y0121318D01*
X0204700Y0122116D02*
X0203965Y0122116D01*
X0203965Y0122915D02*
X0204700Y0122915D01*
X0205185Y0123713D02*
X0203965Y0123713D01*
X0201065Y0121250D02*
X0198750Y0121250D01*
X0196900Y0119400D01*
X0191669Y0115728D02*
X0191091Y0115728D01*
X0191091Y0114930D02*
X0191669Y0114930D01*
X0191669Y0114131D02*
X0191091Y0114131D01*
X0186100Y0119600D02*
X0185189Y0118689D01*
X0183611Y0118689D01*
X0186100Y0119600D02*
X0186100Y0129600D01*
X0189100Y0129200D02*
X0200700Y0140800D01*
X0200700Y0155495D01*
X0195910Y0155495D01*
X0195815Y0155400D01*
X0190900Y0154855D02*
X0190100Y0154855D01*
X0190100Y0154057D02*
X0190900Y0154057D01*
X0190900Y0153258D02*
X0190100Y0153258D01*
X0190100Y0152460D02*
X0190900Y0152460D01*
X0190900Y0151661D02*
X0190100Y0151661D01*
X0190100Y0150863D02*
X0190900Y0150863D01*
X0190900Y0150064D02*
X0190100Y0150064D01*
X0193456Y0146870D02*
X0195700Y0146870D01*
X0195700Y0146071D02*
X0194171Y0146071D01*
X0194502Y0145273D02*
X0195700Y0145273D01*
X0195700Y0144474D02*
X0194600Y0144474D01*
X0194564Y0143676D02*
X0195700Y0143676D01*
X0195700Y0142877D02*
X0194233Y0142877D01*
X0193604Y0142079D02*
X0195700Y0142079D01*
X0194952Y0141280D02*
X0192231Y0141280D01*
X0184963Y0151463D02*
X0181300Y0147800D01*
X0179302Y0145273D02*
X0150002Y0145273D01*
X0149671Y0146071D02*
X0178552Y0146071D01*
X0184963Y0151463D02*
X0185185Y0151463D01*
X0185185Y0155400D02*
X0185185Y0155400D01*
X0187766Y0155654D02*
X0190100Y0155654D01*
X0190100Y0156452D02*
X0190900Y0156452D01*
X0190900Y0157251D02*
X0190100Y0157251D01*
X0190100Y0158049D02*
X0190900Y0158049D01*
X0190900Y0158848D02*
X0190100Y0158848D01*
X0190100Y0159646D02*
X0190900Y0159646D01*
X0190900Y0160445D02*
X0190100Y0160445D01*
X0190100Y0161243D02*
X0190900Y0161243D01*
X0214309Y0130900D02*
X0216110Y0130900D01*
X0215996Y0130101D02*
X0214634Y0130101D01*
X0214634Y0129303D02*
X0215883Y0129303D01*
X0215769Y0128504D02*
X0214634Y0128504D01*
X0214434Y0127706D02*
X0215655Y0127706D01*
X0215542Y0126907D02*
X0214634Y0126907D01*
X0214434Y0127550D02*
X0214175Y0127550D01*
X0214174Y0127550D01*
X0214434Y0127550D01*
X0214634Y0126109D02*
X0215428Y0126109D01*
X0215314Y0125310D02*
X0214634Y0125310D01*
X0214634Y0124512D02*
X0215200Y0124512D01*
X0214981Y0123713D02*
X0214634Y0123713D01*
X0214634Y0122915D02*
X0214749Y0122915D01*
X0211735Y0122825D02*
X0210725Y0122825D01*
X0209150Y0121250D01*
X0211735Y0121250D01*
X0209150Y0121250D02*
X0208700Y0120800D01*
X0208700Y0109000D01*
X0196924Y0105347D02*
X0194316Y0105347D01*
X0188444Y0105347D02*
X0131541Y0105347D01*
X0130906Y0106146D02*
X0142126Y0106146D01*
X0141327Y0106944D02*
X0130383Y0106944D01*
X0129876Y0107743D02*
X0140529Y0107743D01*
X0139730Y0108541D02*
X0129369Y0108541D01*
X0128861Y0109340D02*
X0138932Y0109340D01*
X0138133Y0110138D02*
X0128354Y0110138D01*
X0127847Y0110937D02*
X0137335Y0110937D01*
X0136536Y0111735D02*
X0127339Y0111735D01*
X0126949Y0112534D02*
X0135738Y0112534D01*
X0135720Y0113332D02*
X0126588Y0113332D01*
X0126228Y0114131D02*
X0135720Y0114131D01*
X0135720Y0114930D02*
X0125867Y0114930D01*
X0125506Y0115728D02*
X0135720Y0115728D01*
X0142100Y0114600D02*
X0144239Y0112461D01*
X0150230Y0112461D01*
X0149900Y0112791D01*
X0149900Y0112800D01*
X0150230Y0117579D02*
X0145900Y0121909D01*
X0145900Y0130165D01*
X0189100Y0129200D02*
X0189100Y0124200D01*
D200*
X0189100Y0124200D03*
X0192900Y0126400D03*
X0194900Y0130400D03*
X0192900Y0121400D03*
X0196900Y0119400D03*
X0205900Y0110800D03*
X0203500Y0106400D03*
X0179300Y0116800D03*
X0165900Y0125400D03*
X0151900Y0125400D03*
X0142100Y0114600D03*
X0129700Y0130200D03*
X0125900Y0132800D03*
X0122900Y0136400D03*
X0141900Y0138400D03*
X0145900Y0140400D03*
X0146900Y0144400D03*
X0146900Y0148400D03*
X0151900Y0144400D03*
X0141900Y0149400D03*
X0134300Y0155600D03*
X0129100Y0155600D03*
X0146900Y0157400D03*
X0146900Y0168400D03*
X0164900Y0165900D03*
X0178900Y0159900D03*
X0181300Y0147800D03*
X0191400Y0144400D03*
X0207400Y0157400D03*
X0187900Y0172400D03*
X0165900Y0144400D03*
X0181248Y0130800D03*
X0208400Y0138400D03*
M02*
