%
T01C0.016000
X2820Y2880
X2010Y4300
X2050Y5600
X3400Y6400
X3600Y6800
X3980Y7020
X3600Y7300
X3200Y7500
X2300Y8360
X2540Y8800
X5060Y7760
X6300Y6900
X7700Y6900
X8680Y7980
X9920Y6420
X10300Y6160
X10600Y5800
X8700Y5600
X8300Y5400
X8200Y5000
X8200Y4600
X7700Y5000
X8700Y4500
X9460Y3880
X9980Y3880
X8200Y3700
X8200Y2600
X6400Y2850
X5000Y3310
X4760Y4660
X3800Y5000
X3720Y5660
X4765Y6460
X6300Y5000
X4840Y1940
X24490Y2880
X23680Y4300
X23720Y5600
X25070Y6400
X25270Y6800
X25650Y7020
X25270Y7300
X24870Y7500
X23970Y8360
X24210Y8800
X26730Y7760
X27970Y6900
X29370Y6900
X30350Y7980
X31590Y6420
X31970Y6160
X32270Y5800
X30370Y5600
X29970Y5400
X29870Y5000
X29870Y4600
X29370Y5000
X30370Y4500
X31130Y3880
X31650Y3880
X29870Y3700
X29870Y2600
X28070Y2850
X26670Y3310
X26430Y4660
X25470Y5000
X25390Y5660
X26435Y6460
X27970Y5000
X26510Y1940
X13690Y2880
X12880Y4300
X12920Y5600
X14270Y6400
X14470Y6800
X14850Y7020
X14470Y7300
X14070Y7500
X13170Y8360
X13410Y8800
X15930Y7760
X17170Y6900
X18570Y6900
X19550Y7980
X20790Y6420
X21170Y6160
X21470Y5800
X19570Y5600
X19170Y5400
X19070Y5000
X19070Y4600
X18570Y5000
X19570Y4500
X20330Y3880
X20850Y3880
X19070Y3700
X19070Y2600
X17270Y2850
X15870Y3310
X15630Y4660
X14670Y5000
X14590Y5660
X15635Y6460
X17170Y5000
X15710Y1940
X30870Y16560
X31680Y15140
X31640Y13840
X30290Y13040
X30090Y12640
X29710Y12420
X30090Y12140
X30490Y11940
X31390Y11080
X31150Y10640
X28630Y11680
X27390Y12540
X25990Y12540
X25010Y11460
X23770Y13020
X23390Y13280
X23090Y13640
X24990Y13840
X25390Y14040
X25490Y14440
X25490Y14840
X25990Y14440
X24990Y14940
X24230Y15560
X23710Y15560
X25490Y15740
X25490Y16840
X27290Y16590
X28690Y16130
X28930Y14780
X29890Y14440
X29970Y13780
X28925Y12980
X27390Y14440
X28850Y17500
X9200Y16560
X10010Y15140
X9970Y13840
X8620Y13040
X8420Y12640
X8040Y12420
X8420Y12140
X8820Y11940
X9720Y11080
X9480Y10640
X6960Y11680
X5720Y12540
X4320Y12540
X3340Y11460
X2100Y13020
X1720Y13280
X1420Y13640
X3320Y13840
X3720Y14040
X3820Y14440
X3820Y14840
X4320Y14440
X3320Y14940
X2560Y15560
X2040Y15560
X3820Y15740
X3820Y16840
X5620Y16590
X7020Y16130
X7260Y14780
X8220Y14440
X8300Y13780
X7255Y12980
X5720Y14440
X7180Y17500
X20070Y16560
X20880Y15140
X20840Y13840
X19490Y13040
X19290Y12640
X18910Y12420
X19290Y12140
X19690Y11940
X20590Y11080
X20350Y10640
X17830Y11680
X16590Y12540
X15190Y12540
X14210Y11460
X12970Y13020
X12590Y13280
X12290Y13640
X14190Y13840
X14590Y14040
X14690Y14440
X14690Y14840
X15190Y14440
X14190Y14940
X13430Y15560
X12910Y15560
X14690Y15740
X14690Y16840
X16490Y16590
X17890Y16130
X18130Y14780
X19090Y14440
X19170Y13780
X18125Y12980
X16590Y14440
X18050Y17500
M30
