G75*
G70*
%OFA0B0*%
%FSLAX25Y25*%
%IPPOS*%
%LPD*%
%AMOC8*
5,1,8,0,0,1.08239X$1,22.5*
%
%ADD179R,0.05718X0.02175*%
%ADD197R,0.03198X0.01781*%
%ADD201R,0.02962X0.02175*%
%ADD220R,0.02750X0.02710*%
%ADD249R,0.06506X0.10049*%
%ADD250R,0.03750X0.01978*%
%ADD271R,0.01978X0.03750*%
%ADD275R,0.03198X0.01506*%
%ADD276R,0.04537X0.03356*%
%ADD88C,0.03800*%
X0010000Y0010000D02*
G75*
%LPD*%
D275*
X0017161Y0066850D03*
X0017161Y0068425D03*
X0017161Y0070000D03*
X0017161Y0071575D03*
X0017161Y0073150D03*
X0027831Y0073150D03*
X0027831Y0071575D03*
X0027831Y0070000D03*
X0027831Y0068425D03*
X0027831Y0066850D03*
X0092161Y0053150D03*
X0092161Y0051575D03*
X0092161Y0050000D03*
X0092161Y0048425D03*
X0092161Y0046850D03*
X0102831Y0046850D03*
X0102831Y0048425D03*
X0102831Y0050000D03*
X0102831Y0051575D03*
X0102831Y0053150D03*
D197*
X0102831Y0054921D03*
X0092161Y0054921D03*
X0092161Y0045079D03*
X0102831Y0045079D03*
X0027831Y0065079D03*
X0017161Y0065079D03*
X0017161Y0074921D03*
X0027831Y0074921D03*
D201*
X0032881Y0043337D03*
X0032881Y0039400D03*
X0032881Y0035463D03*
X0043511Y0035463D03*
X0043511Y0039400D03*
X0043511Y0043337D03*
D249*
X0038196Y0039400D03*
D179*
X0072366Y0076821D03*
X0072366Y0079380D03*
X0072366Y0081939D03*
X0078666Y0081939D03*
X0078666Y0079380D03*
X0078666Y0076821D03*
D250*
X0055537Y0077680D03*
X0055537Y0075711D03*
X0055537Y0073743D03*
X0055537Y0079648D03*
X0055537Y0081617D03*
X0045695Y0081617D03*
X0045695Y0079648D03*
X0045695Y0077680D03*
X0045695Y0075711D03*
X0045695Y0073743D03*
D271*
X0048648Y0072759D03*
X0050616Y0072759D03*
X0052585Y0072759D03*
X0052585Y0082601D03*
X0050616Y0082601D03*
X0048648Y0082601D03*
D276*
X0037516Y0081261D03*
X0037516Y0086379D03*
D220*
X0032196Y0086225D03*
X0032196Y0082815D03*
X0066196Y0083045D03*
X0066196Y0079635D03*
X0091176Y0075825D03*
X0091176Y0072415D03*
X0095596Y0072475D03*
X0095596Y0075885D03*
X0028196Y0039305D03*
X0028196Y0035895D03*
D88*
X0028196Y0028800D03*
X0020096Y0043000D03*
X0020496Y0056000D03*
X0033996Y0064000D03*
X0035996Y0068000D03*
X0039796Y0070200D03*
X0035996Y0073000D03*
X0031996Y0075000D03*
X0022996Y0083600D03*
X0025396Y0088000D03*
X0050596Y0077600D03*
X0062996Y0069000D03*
X0076996Y0069000D03*
X0086796Y0079800D03*
X0099196Y0064200D03*
X0102996Y0061600D03*
X0105996Y0058000D03*
X0086996Y0056000D03*
X0082996Y0054000D03*
X0081996Y0050000D03*
X0081996Y0046000D03*
X0076996Y0050000D03*
X0086996Y0045000D03*
X0094596Y0038800D03*
X0099796Y0038800D03*
X0081996Y0037000D03*
X0081996Y0026000D03*
X0063996Y0028500D03*
X0049996Y0033100D03*
X0047596Y0046600D03*
X0037996Y0050000D03*
X0037196Y0056600D03*
X0047648Y0064600D03*
X0062996Y0050000D03*
X0048396Y0019400D03*
X0222500Y0010000D02*
G75*
%LPD*%
D275*
X0233865Y0066850D03*
X0233865Y0068425D03*
X0233865Y0070000D03*
X0233865Y0071575D03*
X0233865Y0073150D03*
X0244535Y0073150D03*
X0244535Y0071575D03*
X0244535Y0070000D03*
X0244535Y0068425D03*
X0244535Y0066850D03*
X0308865Y0053150D03*
X0308865Y0051575D03*
X0308865Y0050000D03*
X0308865Y0048425D03*
X0308865Y0046850D03*
X0319535Y0046850D03*
X0319535Y0048425D03*
X0319535Y0050000D03*
X0319535Y0051575D03*
X0319535Y0053150D03*
D197*
X0319535Y0054921D03*
X0308865Y0054921D03*
X0308865Y0045079D03*
X0319535Y0045079D03*
X0244535Y0065079D03*
X0233865Y0065079D03*
X0233865Y0074921D03*
X0244535Y0074921D03*
D201*
X0249585Y0043337D03*
X0249585Y0039400D03*
X0249585Y0035463D03*
X0260215Y0035463D03*
X0260215Y0039400D03*
X0260215Y0043337D03*
D249*
X0254900Y0039400D03*
D179*
X0289070Y0076821D03*
X0289070Y0079380D03*
X0289070Y0081939D03*
X0295370Y0081939D03*
X0295370Y0079380D03*
X0295370Y0076821D03*
D250*
X0272241Y0077680D03*
X0272241Y0075711D03*
X0272241Y0073743D03*
X0272241Y0079648D03*
X0272241Y0081617D03*
X0262399Y0081617D03*
X0262399Y0079648D03*
X0262399Y0077680D03*
X0262399Y0075711D03*
X0262399Y0073743D03*
D271*
X0265352Y0072759D03*
X0267320Y0072759D03*
X0269289Y0072759D03*
X0269289Y0082601D03*
X0267320Y0082601D03*
X0265352Y0082601D03*
D276*
X0254220Y0081261D03*
X0254220Y0086379D03*
D220*
X0248900Y0086225D03*
X0248900Y0082815D03*
X0282900Y0083045D03*
X0282900Y0079635D03*
X0307880Y0075825D03*
X0307880Y0072415D03*
X0312300Y0072475D03*
X0312300Y0075885D03*
X0244900Y0039305D03*
X0244900Y0035895D03*
D88*
X0244900Y0028800D03*
X0236800Y0043000D03*
X0237200Y0056000D03*
X0250700Y0064000D03*
X0252700Y0068000D03*
X0256500Y0070200D03*
X0252700Y0073000D03*
X0248700Y0075000D03*
X0239700Y0083600D03*
X0242100Y0088000D03*
X0267300Y0077600D03*
X0279700Y0069000D03*
X0293700Y0069000D03*
X0303500Y0079800D03*
X0315900Y0064200D03*
X0319700Y0061600D03*
X0322700Y0058000D03*
X0303700Y0056000D03*
X0299700Y0054000D03*
X0298700Y0050000D03*
X0298700Y0046000D03*
X0293700Y0050000D03*
X0303700Y0045000D03*
X0311300Y0038800D03*
X0316500Y0038800D03*
X0298700Y0037000D03*
X0298700Y0026000D03*
X0280700Y0028500D03*
X0266700Y0033100D03*
X0264300Y0046600D03*
X0254700Y0050000D03*
X0253900Y0056600D03*
X0264352Y0064600D03*
X0279700Y0050000D03*
X0265100Y0019400D03*
X0114500Y0010000D02*
G75*
%LPD*%
D275*
X0125865Y0066850D03*
X0125865Y0068425D03*
X0125865Y0070000D03*
X0125865Y0071575D03*
X0125865Y0073150D03*
X0136535Y0073150D03*
X0136535Y0071575D03*
X0136535Y0070000D03*
X0136535Y0068425D03*
X0136535Y0066850D03*
X0200865Y0053150D03*
X0200865Y0051575D03*
X0200865Y0050000D03*
X0200865Y0048425D03*
X0200865Y0046850D03*
X0211535Y0046850D03*
X0211535Y0048425D03*
X0211535Y0050000D03*
X0211535Y0051575D03*
X0211535Y0053150D03*
D197*
X0211535Y0054921D03*
X0200865Y0054921D03*
X0200865Y0045079D03*
X0211535Y0045079D03*
X0136535Y0065079D03*
X0125865Y0065079D03*
X0125865Y0074921D03*
X0136535Y0074921D03*
D201*
X0141585Y0043337D03*
X0141585Y0039400D03*
X0141585Y0035463D03*
X0152215Y0035463D03*
X0152215Y0039400D03*
X0152215Y0043337D03*
D249*
X0146900Y0039400D03*
D179*
X0181070Y0076821D03*
X0181070Y0079380D03*
X0181070Y0081939D03*
X0187370Y0081939D03*
X0187370Y0079380D03*
X0187370Y0076821D03*
D250*
X0164241Y0077680D03*
X0164241Y0075711D03*
X0164241Y0073743D03*
X0164241Y0079648D03*
X0164241Y0081617D03*
X0154399Y0081617D03*
X0154399Y0079648D03*
X0154399Y0077680D03*
X0154399Y0075711D03*
X0154399Y0073743D03*
D271*
X0157352Y0072759D03*
X0159320Y0072759D03*
X0161289Y0072759D03*
X0161289Y0082601D03*
X0159320Y0082601D03*
X0157352Y0082601D03*
D276*
X0146220Y0081261D03*
X0146220Y0086379D03*
D220*
X0140900Y0086225D03*
X0140900Y0082815D03*
X0174900Y0083045D03*
X0174900Y0079635D03*
X0199880Y0075825D03*
X0199880Y0072415D03*
X0204300Y0072475D03*
X0204300Y0075885D03*
X0136900Y0039305D03*
X0136900Y0035895D03*
D88*
X0136900Y0028800D03*
X0128800Y0043000D03*
X0129200Y0056000D03*
X0142700Y0064000D03*
X0144700Y0068000D03*
X0148500Y0070200D03*
X0144700Y0073000D03*
X0140700Y0075000D03*
X0131700Y0083600D03*
X0134100Y0088000D03*
X0159300Y0077600D03*
X0171700Y0069000D03*
X0185700Y0069000D03*
X0195500Y0079800D03*
X0207900Y0064200D03*
X0211700Y0061600D03*
X0214700Y0058000D03*
X0195700Y0056000D03*
X0191700Y0054000D03*
X0190700Y0050000D03*
X0190700Y0046000D03*
X0185700Y0050000D03*
X0195700Y0045000D03*
X0203300Y0038800D03*
X0208500Y0038800D03*
X0190700Y0037000D03*
X0190700Y0026000D03*
X0172700Y0028500D03*
X0158700Y0033100D03*
X0156300Y0046600D03*
X0146700Y0050000D03*
X0145900Y0056600D03*
X0156352Y0064600D03*
X0171700Y0050000D03*
X0157100Y0019400D03*
X0222700Y0097000D02*
G75*
%LPD*%
D275*
X0319735Y0127550D03*
X0319735Y0125975D03*
X0319735Y0124400D03*
X0319735Y0122825D03*
X0319735Y0121250D03*
X0309065Y0121250D03*
X0309065Y0122825D03*
X0309065Y0124400D03*
X0309065Y0125975D03*
X0309065Y0127550D03*
X0244735Y0141250D03*
X0244735Y0142825D03*
X0244735Y0144400D03*
X0244735Y0145975D03*
X0244735Y0147550D03*
X0234065Y0147550D03*
X0234065Y0145975D03*
X0234065Y0144400D03*
X0234065Y0142825D03*
X0234065Y0141250D03*
D197*
X0234065Y0139479D03*
X0244735Y0139479D03*
X0244735Y0149321D03*
X0234065Y0149321D03*
X0309065Y0129321D03*
X0319735Y0129321D03*
X0319735Y0119479D03*
X0309065Y0119479D03*
D201*
X0304015Y0151063D03*
X0304015Y0155000D03*
X0304015Y0158937D03*
X0293385Y0158937D03*
X0293385Y0155000D03*
X0293385Y0151063D03*
D249*
X0298700Y0155000D03*
D179*
X0264530Y0117579D03*
X0264530Y0115020D03*
X0264530Y0112461D03*
X0258230Y0112461D03*
X0258230Y0115020D03*
X0258230Y0117579D03*
D250*
X0281359Y0116720D03*
X0281359Y0118689D03*
X0281359Y0120657D03*
X0281359Y0114752D03*
X0281359Y0112783D03*
X0291201Y0112783D03*
X0291201Y0114752D03*
X0291201Y0116720D03*
X0291201Y0118689D03*
X0291201Y0120657D03*
D271*
X0288248Y0121641D03*
X0286280Y0121641D03*
X0284311Y0121641D03*
X0284311Y0111799D03*
X0286280Y0111799D03*
X0288248Y0111799D03*
D276*
X0299380Y0113139D03*
X0299380Y0108021D03*
D220*
X0304700Y0108175D03*
X0304700Y0111585D03*
X0270700Y0111355D03*
X0270700Y0114765D03*
X0245720Y0118575D03*
X0245720Y0121985D03*
X0241300Y0121925D03*
X0241300Y0118515D03*
X0308700Y0155095D03*
X0308700Y0158505D03*
D88*
X0308700Y0165600D03*
X0316800Y0151400D03*
X0316400Y0138400D03*
X0302900Y0130400D03*
X0300900Y0126400D03*
X0297100Y0124200D03*
X0300900Y0121400D03*
X0304900Y0119400D03*
X0313900Y0110800D03*
X0311500Y0106400D03*
X0286300Y0116800D03*
X0273900Y0125400D03*
X0259900Y0125400D03*
X0250100Y0114600D03*
X0237700Y0130200D03*
X0233900Y0132800D03*
X0230900Y0136400D03*
X0249900Y0138400D03*
X0253900Y0140400D03*
X0254900Y0144400D03*
X0254900Y0148400D03*
X0259900Y0144400D03*
X0249900Y0149400D03*
X0242300Y0155600D03*
X0237100Y0155600D03*
X0254900Y0157400D03*
X0254900Y0168400D03*
X0272900Y0165900D03*
X0286900Y0161300D03*
X0289300Y0147800D03*
X0298900Y0144400D03*
X0299700Y0137800D03*
X0289248Y0129800D03*
X0273900Y0144400D03*
X0288500Y0175000D03*
X0010200Y0097000D02*
G75*
%LPD*%
D275*
X0103031Y0127550D03*
X0103031Y0125975D03*
X0103031Y0124400D03*
X0103031Y0122825D03*
X0103031Y0121250D03*
X0092361Y0121250D03*
X0092361Y0122825D03*
X0092361Y0124400D03*
X0092361Y0125975D03*
X0092361Y0127550D03*
X0028031Y0141250D03*
X0028031Y0142825D03*
X0028031Y0144400D03*
X0028031Y0145975D03*
X0028031Y0147550D03*
X0017361Y0147550D03*
X0017361Y0145975D03*
X0017361Y0144400D03*
X0017361Y0142825D03*
X0017361Y0141250D03*
D197*
X0017361Y0139479D03*
X0028031Y0139479D03*
X0028031Y0149321D03*
X0017361Y0149321D03*
X0092361Y0129321D03*
X0103031Y0129321D03*
X0103031Y0119479D03*
X0092361Y0119479D03*
D201*
X0087311Y0151063D03*
X0087311Y0155000D03*
X0087311Y0158937D03*
X0076681Y0158937D03*
X0076681Y0155000D03*
X0076681Y0151063D03*
D249*
X0081996Y0155000D03*
D179*
X0047826Y0117579D03*
X0047826Y0115020D03*
X0047826Y0112461D03*
X0041526Y0112461D03*
X0041526Y0115020D03*
X0041526Y0117579D03*
D250*
X0064655Y0116720D03*
X0064655Y0118689D03*
X0064655Y0120657D03*
X0064655Y0114752D03*
X0064655Y0112783D03*
X0074497Y0112783D03*
X0074497Y0114752D03*
X0074497Y0116720D03*
X0074497Y0118689D03*
X0074497Y0120657D03*
D271*
X0071544Y0121641D03*
X0069576Y0121641D03*
X0067607Y0121641D03*
X0067607Y0111799D03*
X0069576Y0111799D03*
X0071544Y0111799D03*
D276*
X0082676Y0113139D03*
X0082676Y0108021D03*
D220*
X0087996Y0108175D03*
X0087996Y0111585D03*
X0053996Y0111355D03*
X0053996Y0114765D03*
X0029016Y0118575D03*
X0029016Y0121985D03*
X0024596Y0121925D03*
X0024596Y0118515D03*
X0091996Y0155095D03*
X0091996Y0158505D03*
D88*
X0091996Y0165600D03*
X0100096Y0151400D03*
X0099696Y0138400D03*
X0086196Y0130400D03*
X0084196Y0126400D03*
X0080396Y0124200D03*
X0084196Y0121400D03*
X0088196Y0119400D03*
X0097196Y0110800D03*
X0094796Y0106400D03*
X0069596Y0116800D03*
X0057196Y0125400D03*
X0043196Y0125400D03*
X0033396Y0114600D03*
X0020996Y0130200D03*
X0017196Y0132800D03*
X0014196Y0136400D03*
X0033196Y0138400D03*
X0037196Y0140400D03*
X0038196Y0144400D03*
X0038196Y0148400D03*
X0043196Y0144400D03*
X0033196Y0149400D03*
X0025596Y0155600D03*
X0020396Y0155600D03*
X0038196Y0157400D03*
X0038196Y0168400D03*
X0056196Y0165900D03*
X0070196Y0161300D03*
X0072596Y0147800D03*
X0082196Y0144400D03*
X0082996Y0137800D03*
X0072544Y0129800D03*
X0057196Y0144400D03*
X0071796Y0175000D03*
X0114700Y0097000D02*
G75*
%LPD*%
D275*
X0211735Y0127550D03*
X0211735Y0125975D03*
X0211735Y0124400D03*
X0211735Y0122825D03*
X0211735Y0121250D03*
X0201065Y0121250D03*
X0201065Y0122825D03*
X0201065Y0124400D03*
X0201065Y0125975D03*
X0201065Y0127550D03*
X0136735Y0141250D03*
X0136735Y0142825D03*
X0136735Y0144400D03*
X0136735Y0145975D03*
X0136735Y0147550D03*
X0126065Y0147550D03*
X0126065Y0145975D03*
X0126065Y0144400D03*
X0126065Y0142825D03*
X0126065Y0141250D03*
D197*
X0126065Y0139479D03*
X0136735Y0139479D03*
X0136735Y0149321D03*
X0126065Y0149321D03*
X0201065Y0129321D03*
X0211735Y0129321D03*
X0211735Y0119479D03*
X0201065Y0119479D03*
D201*
X0196015Y0151063D03*
X0196015Y0155000D03*
X0196015Y0158937D03*
X0185385Y0158937D03*
X0185385Y0155000D03*
X0185385Y0151063D03*
D249*
X0190700Y0155000D03*
D179*
X0156530Y0117579D03*
X0156530Y0115020D03*
X0156530Y0112461D03*
X0150230Y0112461D03*
X0150230Y0115020D03*
X0150230Y0117579D03*
D250*
X0173359Y0116720D03*
X0173359Y0118689D03*
X0173359Y0120657D03*
X0173359Y0114752D03*
X0173359Y0112783D03*
X0183201Y0112783D03*
X0183201Y0114752D03*
X0183201Y0116720D03*
X0183201Y0118689D03*
X0183201Y0120657D03*
D271*
X0180248Y0121641D03*
X0178280Y0121641D03*
X0176311Y0121641D03*
X0176311Y0111799D03*
X0178280Y0111799D03*
X0180248Y0111799D03*
D276*
X0191380Y0113139D03*
X0191380Y0108021D03*
D220*
X0196700Y0108175D03*
X0196700Y0111585D03*
X0162700Y0111355D03*
X0162700Y0114765D03*
X0137720Y0118575D03*
X0137720Y0121985D03*
X0133300Y0121925D03*
X0133300Y0118515D03*
X0200700Y0155095D03*
X0200700Y0158505D03*
D88*
X0200700Y0165600D03*
X0208800Y0151400D03*
X0208400Y0138400D03*
X0194900Y0130400D03*
X0192900Y0126400D03*
X0189100Y0124200D03*
X0192900Y0121400D03*
X0196900Y0119400D03*
X0205900Y0110800D03*
X0203500Y0106400D03*
X0178300Y0116800D03*
X0165900Y0125400D03*
X0151900Y0125400D03*
X0142100Y0114600D03*
X0129700Y0130200D03*
X0125900Y0132800D03*
X0122900Y0136400D03*
X0141900Y0138400D03*
X0145900Y0140400D03*
X0146900Y0144400D03*
X0146900Y0148400D03*
X0151900Y0144400D03*
X0141900Y0149400D03*
X0134300Y0155600D03*
X0129100Y0155600D03*
X0146900Y0157400D03*
X0146900Y0168400D03*
X0164900Y0165900D03*
X0178900Y0161300D03*
X0181300Y0147800D03*
X0190900Y0144400D03*
X0191700Y0137800D03*
X0181248Y0129800D03*
X0165900Y0144400D03*
X0180500Y0175000D03*
M02*
