<?xml version="1.0" encoding="utf-8"?><svg xmlns="http://www.w3.org/2000/svg" width="31" height="31"><g><rect style="fill:#ffffff;" width="31.0" height="31.0" x="0.0" y="0.0"/><rect width="1.0" height="1.0" x="1.0" y="1.0"/><rect width="1.0" height="1.0" x="2.0" y="1.0"/><rect width="1.0" height="1.0" x="3.0" y="1.0"/><rect width="1.0" height="1.0" x="4.0" y="1.0"/><rect width="1.0" height="1.0" x="5.0" y="1.0"/><rect width="1.0" height="1.0" x="6.0" y="1.0"/><rect width="1.0" height="1.0" x="7.0" y="1.0"/><rect width="1.0" height="1.0" x="10.0" y="1.0"/><rect width="1.0" height="1.0" x="11.0" y="1.0"/><rect width="1.0" height="1.0" x="13.0" y="1.0"/><rect width="1.0" height="1.0" x="15.0" y="1.0"/><rect width="1.0" height="1.0" x="17.0" y="1.0"/><rect width="1.0" height="1.0" x="19.0" y="1.0"/><rect width="1.0" height="1.0" x="20.0" y="1.0"/><rect width="1.0" height="1.0" x="23.0" y="1.0"/><rect width="1.0" height="1.0" x="24.0" y="1.0"/><rect width="1.0" height="1.0" x="25.0" y="1.0"/><rect width="1.0" height="1.0" x="26.0" y="1.0"/><rect width="1.0" height="1.0" x="27.0" y="1.0"/><rect width="1.0" height="1.0" x="28.0" y="1.0"/><rect width="1.0" height="1.0" x="29.0" y="1.0"/><rect width="1.0" height="1.0" x="1.0" y="2.0"/><rect width="1.0" height="1.0" x="7.0" y="2.0"/><rect width="1.0" height="1.0" x="9.0" y="2.0"/><rect width="1.0" height="1.0" x="10.0" y="2.0"/><rect width="1.0" height="1.0" x="11.0" y="2.0"/><rect width="1.0" height="1.0" x="14.0" y="2.0"/><rect width="1.0" height="1.0" x="15.0" y="2.0"/><rect width="1.0" height="1.0" x="16.0" y="2.0"/><rect width="1.0" height="1.0" x="17.0" y="2.0"/><rect width="1.0" height="1.0" x="21.0" y="2.0"/><rect width="1.0" height="1.0" x="23.0" y="2.0"/><rect width="1.0" height="1.0" x="29.0" y="2.0"/><rect width="1.0" height="1.0" x="1.0" y="3.0"/><rect width="1.0" height="1.0" x="3.0" y="3.0"/><rect width="1.0" height="1.0" x="4.0" y="3.0"/><rect width="1.0" height="1.0" x="5.0" y="3.0"/><rect width="1.0" height="1.0" x="7.0" y="3.0"/><rect width="1.0" height="1.0" x="10.0" y="3.0"/><rect width="1.0" height="1.0" x="14.0" y="3.0"/><rect width="1.0" height="1.0" x="15.0" y="3.0"/><rect width="1.0" height="1.0" x="17.0" y="3.0"/><rect width="1.0" height="1.0" x="19.0" y="3.0"/><rect width="1.0" height="1.0" x="21.0" y="3.0"/><rect width="1.0" height="1.0" x="23.0" y="3.0"/><rect width="1.0" height="1.0" x="25.0" y="3.0"/><rect width="1.0" height="1.0" x="26.0" y="3.0"/><rect width="1.0" height="1.0" x="27.0" y="3.0"/><rect width="1.0" height="1.0" x="29.0" y="3.0"/><rect width="1.0" height="1.0" x="1.0" y="4.0"/><rect width="1.0" height="1.0" x="3.0" y="4.0"/><rect width="1.0" height="1.0" x="4.0" y="4.0"/><rect width="1.0" height="1.0" x="5.0" y="4.0"/><rect width="1.0" height="1.0" x="7.0" y="4.0"/><rect width="1.0" height="1.0" x="9.0" y="4.0"/><rect width="1.0" height="1.0" x="13.0" y="4.0"/><rect width="1.0" height="1.0" x="14.0" y="4.0"/><rect width="1.0" height="1.0" x="18.0" y="4.0"/><rect width="1.0" height="1.0" x="20.0" y="4.0"/><rect width="1.0" height="1.0" x="21.0" y="4.0"/><rect width="1.0" height="1.0" x="23.0" y="4.0"/><rect width="1.0" height="1.0" x="25.0" y="4.0"/><rect width="1.0" height="1.0" x="26.0" y="4.0"/><rect width="1.0" height="1.0" x="27.0" y="4.0"/><rect width="1.0" height="1.0" x="29.0" y="4.0"/><rect width="1.0" height="1.0" x="1.0" y="5.0"/><rect width="1.0" height="1.0" x="3.0" y="5.0"/><rect width="1.0" height="1.0" x="4.0" y="5.0"/><rect width="1.0" height="1.0" x="5.0" y="5.0"/><rect width="1.0" height="1.0" x="7.0" y="5.0"/><rect width="1.0" height="1.0" x="9.0" y="5.0"/><rect width="1.0" height="1.0" x="10.0" y="5.0"/><rect width="1.0" height="1.0" x="11.0" y="5.0"/><rect width="1.0" height="1.0" x="12.0" y="5.0"/><rect width="1.0" height="1.0" x="14.0" y="5.0"/><rect width="1.0" height="1.0" x="15.0" y="5.0"/><rect width="1.0" height="1.0" x="16.0" y="5.0"/><rect width="1.0" height="1.0" x="17.0" y="5.0"/><rect width="1.0" height="1.0" x="18.0" y="5.0"/><rect width="1.0" height="1.0" x="19.0" y="5.0"/><rect width="1.0" height="1.0" x="20.0" y="5.0"/><rect width="1.0" height="1.0" x="23.0" y="5.0"/><rect width="1.0" height="1.0" x="25.0" y="5.0"/><rect width="1.0" height="1.0" x="26.0" y="5.0"/><rect width="1.0" height="1.0" x="27.0" y="5.0"/><rect width="1.0" height="1.0" x="29.0" y="5.0"/><rect width="1.0" height="1.0" x="1.0" y="6.0"/><rect width="1.0" height="1.0" x="7.0" y="6.0"/><rect width="1.0" height="1.0" x="10.0" y="6.0"/><rect width="1.0" height="1.0" x="12.0" y="6.0"/><rect width="1.0" height="1.0" x="15.0" y="6.0"/><rect width="1.0" height="1.0" x="18.0" y="6.0"/><rect width="1.0" height="1.0" x="19.0" y="6.0"/><rect width="1.0" height="1.0" x="21.0" y="6.0"/><rect width="1.0" height="1.0" x="23.0" y="6.0"/><rect width="1.0" height="1.0" x="29.0" y="6.0"/><rect width="1.0" height="1.0" x="1.0" y="7.0"/><rect width="1.0" height="1.0" x="2.0" y="7.0"/><rect width="1.0" height="1.0" x="3.0" y="7.0"/><rect width="1.0" height="1.0" x="4.0" y="7.0"/><rect width="1.0" height="1.0" x="5.0" y="7.0"/><rect width="1.0" height="1.0" x="6.0" y="7.0"/><rect width="1.0" height="1.0" x="7.0" y="7.0"/><rect width="1.0" height="1.0" x="9.0" y="7.0"/><rect width="1.0" height="1.0" x="11.0" y="7.0"/><rect width="1.0" height="1.0" x="13.0" y="7.0"/><rect width="1.0" height="1.0" x="15.0" y="7.0"/><rect width="1.0" height="1.0" x="17.0" y="7.0"/><rect width="1.0" height="1.0" x="19.0" y="7.0"/><rect width="1.0" height="1.0" x="21.0" y="7.0"/><rect width="1.0" height="1.0" x="23.0" y="7.0"/><rect width="1.0" height="1.0" x="24.0" y="7.0"/><rect width="1.0" height="1.0" x="25.0" y="7.0"/><rect width="1.0" height="1.0" x="26.0" y="7.0"/><rect width="1.0" height="1.0" x="27.0" y="7.0"/><rect width="1.0" height="1.0" x="28.0" y="7.0"/><rect width="1.0" height="1.0" x="29.0" y="7.0"/><rect width="1.0" height="1.0" x="9.0" y="8.0"/><rect width="1.0" height="1.0" x="12.0" y="8.0"/><rect width="1.0" height="1.0" x="13.0" y="8.0"/><rect width="1.0" height="1.0" x="14.0" y="8.0"/><rect width="1.0" height="1.0" x="20.0" y="8.0"/><rect width="1.0" height="1.0" x="2.0" y="9.0"/><rect width="1.0" height="1.0" x="4.0" y="9.0"/><rect width="1.0" height="1.0" x="5.0" y="9.0"/><rect width="1.0" height="1.0" x="6.0" y="9.0"/><rect width="1.0" height="1.0" x="7.0" y="9.0"/><rect width="1.0" height="1.0" x="9.0" y="9.0"/><rect width="1.0" height="1.0" x="16.0" y="9.0"/><rect width="1.0" height="1.0" x="17.0" y="9.0"/><rect width="1.0" height="1.0" x="19.0" y="9.0"/><rect width="1.0" height="1.0" x="20.0" y="9.0"/><rect width="1.0" height="1.0" x="21.0" y="9.0"/><rect width="1.0" height="1.0" x="22.0" y="9.0"/><rect width="1.0" height="1.0" x="23.0" y="9.0"/><rect width="1.0" height="1.0" x="25.0" y="9.0"/><rect width="1.0" height="1.0" x="26.0" y="9.0"/><rect width="1.0" height="1.0" x="28.0" y="9.0"/><rect width="1.0" height="1.0" x="1.0" y="10.0"/><rect width="1.0" height="1.0" x="3.0" y="10.0"/><rect width="1.0" height="1.0" x="5.0" y="10.0"/><rect width="1.0" height="1.0" x="6.0" y="10.0"/><rect width="1.0" height="1.0" x="9.0" y="10.0"/><rect width="1.0" height="1.0" x="12.0" y="10.0"/><rect width="1.0" height="1.0" x="14.0" y="10.0"/><rect width="1.0" height="1.0" x="15.0" y="10.0"/><rect width="1.0" height="1.0" x="17.0" y="10.0"/><rect width="1.0" height="1.0" x="18.0" y="10.0"/><rect width="1.0" height="1.0" x="21.0" y="10.0"/><rect width="1.0" height="1.0" x="22.0" y="10.0"/><rect width="1.0" height="1.0" x="25.0" y="10.0"/><rect width="1.0" height="1.0" x="26.0" y="10.0"/><rect width="1.0" height="1.0" x="28.0" y="10.0"/><rect width="1.0" height="1.0" x="1.0" y="11.0"/><rect width="1.0" height="1.0" x="2.0" y="11.0"/><rect width="1.0" height="1.0" x="3.0" y="11.0"/><rect width="1.0" height="1.0" x="5.0" y="11.0"/><rect width="1.0" height="1.0" x="7.0" y="11.0"/><rect width="1.0" height="1.0" x="9.0" y="11.0"/><rect width="1.0" height="1.0" x="12.0" y="11.0"/><rect width="1.0" height="1.0" x="14.0" y="11.0"/><rect width="1.0" height="1.0" x="17.0" y="11.0"/><rect width="1.0" height="1.0" x="18.0" y="11.0"/><rect width="1.0" height="1.0" x="19.0" y="11.0"/><rect width="1.0" height="1.0" x="23.0" y="11.0"/><rect width="1.0" height="1.0" x="24.0" y="11.0"/><rect width="1.0" height="1.0" x="25.0" y="11.0"/><rect width="1.0" height="1.0" x="26.0" y="11.0"/><rect width="1.0" height="1.0" x="1.0" y="12.0"/><rect width="1.0" height="1.0" x="2.0" y="12.0"/><rect width="1.0" height="1.0" x="5.0" y="12.0"/><rect width="1.0" height="1.0" x="8.0" y="12.0"/><rect width="1.0" height="1.0" x="9.0" y="12.0"/><rect width="1.0" height="1.0" x="10.0" y="12.0"/><rect width="1.0" height="1.0" x="12.0" y="12.0"/><rect width="1.0" height="1.0" x="15.0" y="12.0"/><rect width="1.0" height="1.0" x="16.0" y="12.0"/><rect width="1.0" height="1.0" x="17.0" y="12.0"/><rect width="1.0" height="1.0" x="18.0" y="12.0"/><rect width="1.0" height="1.0" x="22.0" y="12.0"/><rect width="1.0" height="1.0" x="25.0" y="12.0"/><rect width="1.0" height="1.0" x="26.0" y="12.0"/><rect width="1.0" height="1.0" x="29.0" y="12.0"/><rect width="1.0" height="1.0" x="4.0" y="13.0"/><rect width="1.0" height="1.0" x="5.0" y="13.0"/><rect width="1.0" height="1.0" x="6.0" y="13.0"/><rect width="1.0" height="1.0" x="7.0" y="13.0"/><rect width="1.0" height="1.0" x="9.0" y="13.0"/><rect width="1.0" height="1.0" x="11.0" y="13.0"/><rect width="1.0" height="1.0" x="12.0" y="13.0"/><rect width="1.0" height="1.0" x="17.0" y="13.0"/><rect width="1.0" height="1.0" x="20.0" y="13.0"/><rect width="1.0" height="1.0" x="21.0" y="13.0"/><rect width="1.0" height="1.0" x="22.0" y="13.0"/><rect width="1.0" height="1.0" x="23.0" y="13.0"/><rect width="1.0" height="1.0" x="24.0" y="13.0"/><rect width="1.0" height="1.0" x="28.0" y="13.0"/><rect width="1.0" height="1.0" x="1.0" y="14.0"/><rect width="1.0" height="1.0" x="4.0" y="14.0"/><rect width="1.0" height="1.0" x="5.0" y="14.0"/><rect width="1.0" height="1.0" x="9.0" y="14.0"/><rect width="1.0" height="1.0" x="10.0" y="14.0"/><rect width="1.0" height="1.0" x="12.0" y="14.0"/><rect width="1.0" height="1.0" x="15.0" y="14.0"/><rect width="1.0" height="1.0" x="17.0" y="14.0"/><rect width="1.0" height="1.0" x="18.0" y="14.0"/><rect width="1.0" height="1.0" x="19.0" y="14.0"/><rect width="1.0" height="1.0" x="23.0" y="14.0"/><rect width="1.0" height="1.0" x="25.0" y="14.0"/><rect width="1.0" height="1.0" x="27.0" y="14.0"/><rect width="1.0" height="1.0" x="29.0" y="14.0"/><rect width="1.0" height="1.0" x="3.0" y="15.0"/><rect width="1.0" height="1.0" x="6.0" y="15.0"/><rect width="1.0" height="1.0" x="7.0" y="15.0"/><rect width="1.0" height="1.0" x="13.0" y="15.0"/><rect width="1.0" height="1.0" x="16.0" y="15.0"/><rect width="1.0" height="1.0" x="18.0" y="15.0"/><rect width="1.0" height="1.0" x="20.0" y="15.0"/><rect width="1.0" height="1.0" x="23.0" y="15.0"/><rect width="1.0" height="1.0" x="26.0" y="15.0"/><rect width="1.0" height="1.0" x="28.0" y="15.0"/><rect width="1.0" height="1.0" x="29.0" y="15.0"/><rect width="1.0" height="1.0" x="2.0" y="16.0"/><rect width="1.0" height="1.0" x="5.0" y="16.0"/><rect width="1.0" height="1.0" x="8.0" y="16.0"/><rect width="1.0" height="1.0" x="9.0" y="16.0"/><rect width="1.0" height="1.0" x="10.0" y="16.0"/><rect width="1.0" height="1.0" x="14.0" y="16.0"/><rect width="1.0" height="1.0" x="16.0" y="16.0"/><rect width="1.0" height="1.0" x="17.0" y="16.0"/><rect width="1.0" height="1.0" x="18.0" y="16.0"/><rect width="1.0" height="1.0" x="19.0" y="16.0"/><rect width="1.0" height="1.0" x="20.0" y="16.0"/><rect width="1.0" height="1.0" x="22.0" y="16.0"/><rect width="1.0" height="1.0" x="23.0" y="16.0"/><rect width="1.0" height="1.0" x="26.0" y="16.0"/><rect width="1.0" height="1.0" x="27.0" y="16.0"/><rect width="1.0" height="1.0" x="28.0" y="16.0"/><rect width="1.0" height="1.0" x="1.0" y="17.0"/><rect width="1.0" height="1.0" x="5.0" y="17.0"/><rect width="1.0" height="1.0" x="7.0" y="17.0"/><rect width="1.0" height="1.0" x="12.0" y="17.0"/><rect width="1.0" height="1.0" x="15.0" y="17.0"/><rect width="1.0" height="1.0" x="16.0" y="17.0"/><rect width="1.0" height="1.0" x="17.0" y="17.0"/><rect width="1.0" height="1.0" x="18.0" y="17.0"/><rect width="1.0" height="1.0" x="20.0" y="17.0"/><rect width="1.0" height="1.0" x="21.0" y="17.0"/><rect width="1.0" height="1.0" x="26.0" y="17.0"/><rect width="1.0" height="1.0" x="29.0" y="17.0"/><rect width="1.0" height="1.0" x="1.0" y="18.0"/><rect width="1.0" height="1.0" x="2.0" y="18.0"/><rect width="1.0" height="1.0" x="3.0" y="18.0"/><rect width="1.0" height="1.0" x="4.0" y="18.0"/><rect width="1.0" height="1.0" x="5.0" y="18.0"/><rect width="1.0" height="1.0" x="10.0" y="18.0"/><rect width="1.0" height="1.0" x="13.0" y="18.0"/><rect width="1.0" height="1.0" x="14.0" y="18.0"/><rect width="1.0" height="1.0" x="17.0" y="18.0"/><rect width="1.0" height="1.0" x="19.0" y="18.0"/><rect width="1.0" height="1.0" x="21.0" y="18.0"/><rect width="1.0" height="1.0" x="24.0" y="18.0"/><rect width="1.0" height="1.0" x="25.0" y="18.0"/><rect width="1.0" height="1.0" x="1.0" y="19.0"/><rect width="1.0" height="1.0" x="2.0" y="19.0"/><rect width="1.0" height="1.0" x="3.0" y="19.0"/><rect width="1.0" height="1.0" x="4.0" y="19.0"/><rect width="1.0" height="1.0" x="5.0" y="19.0"/><rect width="1.0" height="1.0" x="6.0" y="19.0"/><rect width="1.0" height="1.0" x="7.0" y="19.0"/><rect width="1.0" height="1.0" x="8.0" y="19.0"/><rect width="1.0" height="1.0" x="9.0" y="19.0"/><rect width="1.0" height="1.0" x="10.0" y="19.0"/><rect width="1.0" height="1.0" x="16.0" y="19.0"/><rect width="1.0" height="1.0" x="21.0" y="19.0"/><rect width="1.0" height="1.0" x="24.0" y="19.0"/><rect width="1.0" height="1.0" x="26.0" y="19.0"/><rect width="1.0" height="1.0" x="27.0" y="19.0"/><rect width="1.0" height="1.0" x="29.0" y="19.0"/><rect width="1.0" height="1.0" x="1.0" y="20.0"/><rect width="1.0" height="1.0" x="2.0" y="20.0"/><rect width="1.0" height="1.0" x="3.0" y="20.0"/><rect width="1.0" height="1.0" x="4.0" y="20.0"/><rect width="1.0" height="1.0" x="6.0" y="20.0"/><rect width="1.0" height="1.0" x="8.0" y="20.0"/><rect width="1.0" height="1.0" x="9.0" y="20.0"/><rect width="1.0" height="1.0" x="14.0" y="20.0"/><rect width="1.0" height="1.0" x="15.0" y="20.0"/><rect width="1.0" height="1.0" x="19.0" y="20.0"/><rect width="1.0" height="1.0" x="22.0" y="20.0"/><rect width="1.0" height="1.0" x="23.0" y="20.0"/><rect width="1.0" height="1.0" x="24.0" y="20.0"/><rect width="1.0" height="1.0" x="25.0" y="20.0"/><rect width="1.0" height="1.0" x="27.0" y="20.0"/><rect width="1.0" height="1.0" x="1.0" y="21.0"/><rect width="1.0" height="1.0" x="2.0" y="21.0"/><rect width="1.0" height="1.0" x="4.0" y="21.0"/><rect width="1.0" height="1.0" x="5.0" y="21.0"/><rect width="1.0" height="1.0" x="7.0" y="21.0"/><rect width="1.0" height="1.0" x="9.0" y="21.0"/><rect width="1.0" height="1.0" x="10.0" y="21.0"/><rect width="1.0" height="1.0" x="14.0" y="21.0"/><rect width="1.0" height="1.0" x="16.0" y="21.0"/><rect width="1.0" height="1.0" x="18.0" y="21.0"/><rect width="1.0" height="1.0" x="21.0" y="21.0"/><rect width="1.0" height="1.0" x="22.0" y="21.0"/><rect width="1.0" height="1.0" x="23.0" y="21.0"/><rect width="1.0" height="1.0" x="24.0" y="21.0"/><rect width="1.0" height="1.0" x="25.0" y="21.0"/><rect width="1.0" height="1.0" x="26.0" y="21.0"/><rect width="1.0" height="1.0" x="27.0" y="21.0"/><rect width="1.0" height="1.0" x="28.0" y="21.0"/><rect width="1.0" height="1.0" x="9.0" y="22.0"/><rect width="1.0" height="1.0" x="11.0" y="22.0"/><rect width="1.0" height="1.0" x="14.0" y="22.0"/><rect width="1.0" height="1.0" x="16.0" y="22.0"/><rect width="1.0" height="1.0" x="19.0" y="22.0"/><rect width="1.0" height="1.0" x="21.0" y="22.0"/><rect width="1.0" height="1.0" x="25.0" y="22.0"/><rect width="1.0" height="1.0" x="26.0" y="22.0"/><rect width="1.0" height="1.0" x="27.0" y="22.0"/><rect width="1.0" height="1.0" x="1.0" y="23.0"/><rect width="1.0" height="1.0" x="2.0" y="23.0"/><rect width="1.0" height="1.0" x="3.0" y="23.0"/><rect width="1.0" height="1.0" x="4.0" y="23.0"/><rect width="1.0" height="1.0" x="5.0" y="23.0"/><rect width="1.0" height="1.0" x="6.0" y="23.0"/><rect width="1.0" height="1.0" x="7.0" y="23.0"/><rect width="1.0" height="1.0" x="11.0" y="23.0"/><rect width="1.0" height="1.0" x="13.0" y="23.0"/><rect width="1.0" height="1.0" x="14.0" y="23.0"/><rect width="1.0" height="1.0" x="15.0" y="23.0"/><rect width="1.0" height="1.0" x="16.0" y="23.0"/><rect width="1.0" height="1.0" x="18.0" y="23.0"/><rect width="1.0" height="1.0" x="19.0" y="23.0"/><rect width="1.0" height="1.0" x="20.0" y="23.0"/><rect width="1.0" height="1.0" x="21.0" y="23.0"/><rect width="1.0" height="1.0" x="23.0" y="23.0"/><rect width="1.0" height="1.0" x="25.0" y="23.0"/><rect width="1.0" height="1.0" x="27.0" y="23.0"/><rect width="1.0" height="1.0" x="1.0" y="24.0"/><rect width="1.0" height="1.0" x="7.0" y="24.0"/><rect width="1.0" height="1.0" x="9.0" y="24.0"/><rect width="1.0" height="1.0" x="10.0" y="24.0"/><rect width="1.0" height="1.0" x="11.0" y="24.0"/><rect width="1.0" height="1.0" x="12.0" y="24.0"/><rect width="1.0" height="1.0" x="13.0" y="24.0"/><rect width="1.0" height="1.0" x="15.0" y="24.0"/><rect width="1.0" height="1.0" x="16.0" y="24.0"/><rect width="1.0" height="1.0" x="18.0" y="24.0"/><rect width="1.0" height="1.0" x="20.0" y="24.0"/><rect width="1.0" height="1.0" x="21.0" y="24.0"/><rect width="1.0" height="1.0" x="25.0" y="24.0"/><rect width="1.0" height="1.0" x="26.0" y="24.0"/><rect width="1.0" height="1.0" x="29.0" y="24.0"/><rect width="1.0" height="1.0" x="1.0" y="25.0"/><rect width="1.0" height="1.0" x="3.0" y="25.0"/><rect width="1.0" height="1.0" x="4.0" y="25.0"/><rect width="1.0" height="1.0" x="5.0" y="25.0"/><rect width="1.0" height="1.0" x="7.0" y="25.0"/><rect width="1.0" height="1.0" x="9.0" y="25.0"/><rect width="1.0" height="1.0" x="10.0" y="25.0"/><rect width="1.0" height="1.0" x="13.0" y="25.0"/><rect width="1.0" height="1.0" x="15.0" y="25.0"/><rect width="1.0" height="1.0" x="17.0" y="25.0"/><rect width="1.0" height="1.0" x="18.0" y="25.0"/><rect width="1.0" height="1.0" x="19.0" y="25.0"/><rect width="1.0" height="1.0" x="20.0" y="25.0"/><rect width="1.0" height="1.0" x="21.0" y="25.0"/><rect width="1.0" height="1.0" x="22.0" y="25.0"/><rect width="1.0" height="1.0" x="23.0" y="25.0"/><rect width="1.0" height="1.0" x="24.0" y="25.0"/><rect width="1.0" height="1.0" x="25.0" y="25.0"/><rect width="1.0" height="1.0" x="29.0" y="25.0"/><rect width="1.0" height="1.0" x="1.0" y="26.0"/><rect width="1.0" height="1.0" x="3.0" y="26.0"/><rect width="1.0" height="1.0" x="4.0" y="26.0"/><rect width="1.0" height="1.0" x="5.0" y="26.0"/><rect width="1.0" height="1.0" x="7.0" y="26.0"/><rect width="1.0" height="1.0" x="9.0" y="26.0"/><rect width="1.0" height="1.0" x="10.0" y="26.0"/><rect width="1.0" height="1.0" x="17.0" y="26.0"/><rect width="1.0" height="1.0" x="18.0" y="26.0"/><rect width="1.0" height="1.0" x="22.0" y="26.0"/><rect width="1.0" height="1.0" x="24.0" y="26.0"/><rect width="1.0" height="1.0" x="26.0" y="26.0"/><rect width="1.0" height="1.0" x="28.0" y="26.0"/><rect width="1.0" height="1.0" x="1.0" y="27.0"/><rect width="1.0" height="1.0" x="3.0" y="27.0"/><rect width="1.0" height="1.0" x="4.0" y="27.0"/><rect width="1.0" height="1.0" x="5.0" y="27.0"/><rect width="1.0" height="1.0" x="7.0" y="27.0"/><rect width="1.0" height="1.0" x="11.0" y="27.0"/><rect width="1.0" height="1.0" x="12.0" y="27.0"/><rect width="1.0" height="1.0" x="14.0" y="27.0"/><rect width="1.0" height="1.0" x="17.0" y="27.0"/><rect width="1.0" height="1.0" x="18.0" y="27.0"/><rect width="1.0" height="1.0" x="19.0" y="27.0"/><rect width="1.0" height="1.0" x="21.0" y="27.0"/><rect width="1.0" height="1.0" x="22.0" y="27.0"/><rect width="1.0" height="1.0" x="25.0" y="27.0"/><rect width="1.0" height="1.0" x="26.0" y="27.0"/><rect width="1.0" height="1.0" x="27.0" y="27.0"/><rect width="1.0" height="1.0" x="28.0" y="27.0"/><rect width="1.0" height="1.0" x="29.0" y="27.0"/><rect width="1.0" height="1.0" x="1.0" y="28.0"/><rect width="1.0" height="1.0" x="7.0" y="28.0"/><rect width="1.0" height="1.0" x="9.0" y="28.0"/><rect width="1.0" height="1.0" x="13.0" y="28.0"/><rect width="1.0" height="1.0" x="15.0" y="28.0"/><rect width="1.0" height="1.0" x="16.0" y="28.0"/><rect width="1.0" height="1.0" x="21.0" y="28.0"/><rect width="1.0" height="1.0" x="22.0" y="28.0"/><rect width="1.0" height="1.0" x="25.0" y="28.0"/><rect width="1.0" height="1.0" x="27.0" y="28.0"/><rect width="1.0" height="1.0" x="29.0" y="28.0"/><rect width="1.0" height="1.0" x="1.0" y="29.0"/><rect width="1.0" height="1.0" x="2.0" y="29.0"/><rect width="1.0" height="1.0" x="3.0" y="29.0"/><rect width="1.0" height="1.0" x="4.0" y="29.0"/><rect width="1.0" height="1.0" x="5.0" y="29.0"/><rect width="1.0" height="1.0" x="6.0" y="29.0"/><rect width="1.0" height="1.0" x="7.0" y="29.0"/><rect width="1.0" height="1.0" x="10.0" y="29.0"/><rect width="1.0" height="1.0" x="14.0" y="29.0"/><rect width="1.0" height="1.0" x="19.0" y="29.0"/><rect width="1.0" height="1.0" x="21.0" y="29.0"/><rect width="1.0" height="1.0" x="24.0" y="29.0"/><rect width="1.0" height="1.0" x="25.0" y="29.0"/><rect width="1.0" height="1.0" x="26.0" y="29.0"/></g></svg>