G75*
%MOIN*%
%OFA0B0*%
%FSLAX25Y25*%
%IPPOS*%
%LPD*%
%AMOC8*
5,1,8,0,0,1.08239X$1,22.5*
%
%ADD10R,0.04488X0.00787*%
%ADD11C,0.00800*%
%ADD12C,0.03200*%
D10*
X0012753Y0058712D03*
X0012753Y0060286D03*
X0012753Y0061861D03*
X0012753Y0063436D03*
X0012753Y0065011D03*
X0023147Y0065011D03*
X0023147Y0063436D03*
X0023147Y0061861D03*
X0023147Y0060286D03*
X0023147Y0058712D03*
X0087753Y0045011D03*
X0087753Y0043436D03*
X0087753Y0041861D03*
X0087753Y0040286D03*
X0087753Y0038712D03*
X0098147Y0038712D03*
X0098147Y0040286D03*
X0098147Y0041861D03*
X0098147Y0043436D03*
X0098147Y0045011D03*
D11*
X0088989Y0018630D02*
X0021911Y0018630D01*
X0022718Y0017831D02*
X0088182Y0017831D01*
X0087374Y0017033D02*
X0023526Y0017033D01*
X0024333Y0016234D02*
X0086567Y0016234D01*
X0086008Y0015682D02*
X0080023Y0011376D01*
X0073441Y0008053D01*
X0066423Y0005793D01*
X0059139Y0004652D01*
X0055452Y0004511D01*
X0055448Y0004511D01*
X0051761Y0004652D01*
X0044477Y0005793D01*
X0037459Y0008053D01*
X0030877Y0011376D01*
X0024892Y0015682D01*
X0019649Y0020866D01*
X0015276Y0026802D01*
X0011880Y0033346D01*
X0009541Y0040339D01*
X0008868Y0043570D01*
X0008875Y0043615D01*
X0008773Y0044040D01*
X0008701Y0044470D01*
X0008651Y0044550D01*
X0008488Y0045232D01*
X0007928Y0049305D01*
X0008187Y0057321D01*
X0008855Y0060601D01*
X0008906Y0060780D01*
X0008909Y0060784D01*
X0008909Y0059230D01*
X0009109Y0059030D01*
X0009109Y0058712D01*
X0009427Y0058712D01*
X0009427Y0058712D01*
X0009109Y0058712D01*
X0009109Y0058134D01*
X0009204Y0057778D01*
X0009389Y0057458D01*
X0009649Y0057198D01*
X0009969Y0057013D01*
X0010325Y0056918D01*
X0012753Y0056918D01*
X0012753Y0058286D01*
X0012753Y0058286D01*
X0012753Y0056918D01*
X0015182Y0056918D01*
X0015538Y0057013D01*
X0015857Y0057198D01*
X0016118Y0057458D01*
X0016302Y0057778D01*
X0016397Y0058134D01*
X0016397Y0058712D01*
X0016397Y0059030D01*
X0016597Y0059230D01*
X0016597Y0059980D01*
X0017650Y0061033D01*
X0019303Y0062686D01*
X0019303Y0061343D01*
X0019303Y0059230D01*
X0019503Y0059030D01*
X0019503Y0058712D01*
X0019821Y0058712D01*
X0019821Y0058712D01*
X0019503Y0058712D01*
X0019503Y0058134D01*
X0019598Y0057778D01*
X0019782Y0057458D01*
X0020043Y0057198D01*
X0020362Y0057013D01*
X0020718Y0056918D01*
X0023147Y0056918D01*
X0025575Y0056918D01*
X0025931Y0057013D01*
X0026251Y0057198D01*
X0026511Y0057458D01*
X0026696Y0057778D01*
X0026698Y0057785D01*
X0026773Y0057710D01*
X0026737Y0057674D01*
X0026250Y0056498D01*
X0026250Y0055225D01*
X0026737Y0054049D01*
X0027637Y0053148D01*
X0028813Y0052661D01*
X0030087Y0052661D01*
X0031263Y0053148D01*
X0032163Y0054049D01*
X0032650Y0055225D01*
X0032650Y0056498D01*
X0032510Y0056837D01*
X0033263Y0057148D01*
X0034163Y0058049D01*
X0034516Y0058902D01*
X0034613Y0058861D01*
X0035887Y0058861D01*
X0037063Y0059348D01*
X0037963Y0060249D01*
X0038450Y0061425D01*
X0038450Y0062698D01*
X0037963Y0063874D01*
X0037250Y0064587D01*
X0037250Y0067490D01*
X0033850Y0070890D01*
X0032678Y0072061D01*
X0027078Y0072061D01*
X0026850Y0072290D01*
X0026850Y0076690D01*
X0025678Y0077861D01*
X0024050Y0079490D01*
X0024050Y0080498D01*
X0023563Y0081674D01*
X0023525Y0081711D01*
X0043872Y0081711D01*
X0042850Y0080690D01*
X0038850Y0076690D01*
X0038850Y0061433D01*
X0040022Y0060261D01*
X0041102Y0059181D01*
X0041102Y0057987D01*
X0040389Y0057274D01*
X0039902Y0056098D01*
X0039902Y0054825D01*
X0040389Y0053649D01*
X0041102Y0052936D01*
X0041102Y0041038D01*
X0040337Y0040274D01*
X0039850Y0039098D01*
X0039850Y0037825D01*
X0040337Y0036649D01*
X0041237Y0035748D01*
X0042413Y0035261D01*
X0043687Y0035261D01*
X0044863Y0035748D01*
X0045763Y0036649D01*
X0046250Y0037825D01*
X0046250Y0039098D01*
X0045763Y0040274D01*
X0045102Y0040935D01*
X0045102Y0052936D01*
X0045814Y0053649D01*
X0046302Y0054825D01*
X0046302Y0056098D01*
X0045814Y0057274D01*
X0045102Y0057987D01*
X0045102Y0060838D01*
X0043930Y0062010D01*
X0042850Y0063090D01*
X0042850Y0075033D01*
X0045678Y0077861D01*
X0073222Y0077861D01*
X0079050Y0072033D01*
X0079050Y0071025D01*
X0079537Y0069849D01*
X0080437Y0068948D01*
X0080450Y0068943D01*
X0080450Y0050387D01*
X0079737Y0049674D01*
X0079425Y0048921D01*
X0079087Y0049061D01*
X0077813Y0049061D01*
X0076637Y0048574D01*
X0075737Y0047674D01*
X0075250Y0046498D01*
X0075250Y0045225D01*
X0075554Y0044491D01*
X0074737Y0043674D01*
X0074250Y0042498D01*
X0074250Y0041225D01*
X0074737Y0040049D01*
X0074925Y0039861D01*
X0074737Y0039674D01*
X0074250Y0038498D01*
X0074250Y0037225D01*
X0074737Y0036049D01*
X0075637Y0035148D01*
X0076813Y0034661D01*
X0078087Y0034661D01*
X0079263Y0035148D01*
X0079569Y0035455D01*
X0079737Y0035049D01*
X0080637Y0034148D01*
X0081813Y0033661D01*
X0083087Y0033661D01*
X0084263Y0034148D01*
X0085163Y0035049D01*
X0085650Y0036225D01*
X0085650Y0036712D01*
X0088582Y0036712D01*
X0088588Y0036718D01*
X0090660Y0036718D01*
X0091050Y0037108D01*
X0091050Y0034652D01*
X0090309Y0033861D01*
X0089413Y0033861D01*
X0088237Y0033374D01*
X0087337Y0032474D01*
X0086850Y0031298D01*
X0086850Y0030025D01*
X0087337Y0028849D01*
X0088237Y0027948D01*
X0089413Y0027461D01*
X0090687Y0027461D01*
X0091863Y0027948D01*
X0092650Y0028736D01*
X0093437Y0027948D01*
X0094613Y0027461D01*
X0095887Y0027461D01*
X0095987Y0027503D01*
X0095624Y0026802D01*
X0091251Y0020866D01*
X0086008Y0015682D01*
X0085666Y0015436D02*
X0025234Y0015436D01*
X0026344Y0014637D02*
X0084556Y0014637D01*
X0083446Y0013839D02*
X0027454Y0013839D01*
X0028563Y0013040D02*
X0082337Y0013040D01*
X0081227Y0012242D02*
X0029673Y0012242D01*
X0030783Y0011443D02*
X0080117Y0011443D01*
X0078575Y0010645D02*
X0032325Y0010645D01*
X0033906Y0009846D02*
X0076994Y0009846D01*
X0075412Y0009048D02*
X0035488Y0009048D01*
X0037069Y0008249D02*
X0073831Y0008249D01*
X0071572Y0007451D02*
X0039328Y0007451D01*
X0041808Y0006652D02*
X0069092Y0006652D01*
X0066611Y0005854D02*
X0044289Y0005854D01*
X0049189Y0005055D02*
X0061711Y0005055D01*
X0089797Y0019429D02*
X0021103Y0019429D01*
X0020296Y0020227D02*
X0090604Y0020227D01*
X0091368Y0021026D02*
X0019532Y0021026D01*
X0018944Y0021824D02*
X0091956Y0021824D01*
X0092545Y0022623D02*
X0018355Y0022623D01*
X0017767Y0023421D02*
X0093133Y0023421D01*
X0093721Y0024220D02*
X0017179Y0024220D01*
X0016591Y0025018D02*
X0094309Y0025018D01*
X0094897Y0025817D02*
X0016003Y0025817D01*
X0015414Y0026615D02*
X0095486Y0026615D01*
X0095941Y0027414D02*
X0014959Y0027414D01*
X0014545Y0028212D02*
X0087974Y0028212D01*
X0087270Y0029011D02*
X0014130Y0029011D01*
X0013716Y0029809D02*
X0086939Y0029809D01*
X0086850Y0030608D02*
X0013301Y0030608D01*
X0012887Y0031406D02*
X0086895Y0031406D01*
X0087226Y0032205D02*
X0012472Y0032205D01*
X0012058Y0033003D02*
X0087866Y0033003D01*
X0089270Y0033802D02*
X0083426Y0033802D01*
X0084714Y0034600D02*
X0091001Y0034600D01*
X0091050Y0035399D02*
X0085308Y0035399D01*
X0085639Y0036197D02*
X0091050Y0036197D01*
X0091050Y0036996D02*
X0090938Y0036996D01*
X0093050Y0039061D02*
X0093050Y0033861D01*
X0090050Y0030661D01*
X0092126Y0028212D02*
X0093174Y0028212D01*
X0095250Y0030661D02*
X0095250Y0038061D01*
X0095900Y0038712D01*
X0098147Y0038712D01*
X0098147Y0040286D02*
X0094275Y0040286D01*
X0093050Y0039061D01*
X0095050Y0041861D02*
X0093250Y0043661D01*
X0093250Y0054661D01*
X0094650Y0056061D01*
X0098450Y0053461D02*
X0094850Y0049861D01*
X0094850Y0044061D01*
X0095475Y0043436D01*
X0098147Y0043436D01*
X0098147Y0041861D02*
X0095050Y0041861D01*
X0098147Y0045011D02*
X0100600Y0045011D01*
X0102050Y0046461D01*
X0102050Y0049261D01*
X0101450Y0049861D01*
X0087753Y0045011D02*
X0085300Y0045011D01*
X0082450Y0047861D01*
X0082450Y0071461D01*
X0082250Y0071661D01*
X0074050Y0079861D01*
X0044850Y0079861D01*
X0040850Y0075861D01*
X0040850Y0062261D01*
X0043102Y0060010D01*
X0043102Y0055461D01*
X0043102Y0055061D01*
X0043102Y0038513D01*
X0043050Y0038461D01*
X0040193Y0036996D02*
X0010659Y0036996D01*
X0010392Y0037794D02*
X0039863Y0037794D01*
X0039850Y0038593D02*
X0010125Y0038593D01*
X0009858Y0039391D02*
X0030894Y0039391D01*
X0031137Y0039148D02*
X0030237Y0040049D01*
X0029750Y0041225D01*
X0029750Y0042498D01*
X0030237Y0043674D01*
X0031137Y0044574D01*
X0032313Y0045061D01*
X0033587Y0045061D01*
X0034763Y0044574D01*
X0035663Y0043674D01*
X0036150Y0042498D01*
X0036150Y0041225D01*
X0035663Y0040049D01*
X0034763Y0039148D01*
X0033587Y0038661D01*
X0032313Y0038661D01*
X0031137Y0039148D01*
X0030179Y0040190D02*
X0009591Y0040190D01*
X0009406Y0040988D02*
X0029848Y0040988D01*
X0029750Y0041787D02*
X0009240Y0041787D01*
X0009073Y0042585D02*
X0029786Y0042585D01*
X0030117Y0043384D02*
X0008907Y0043384D01*
X0008749Y0044182D02*
X0030746Y0044182D01*
X0032119Y0044981D02*
X0008548Y0044981D01*
X0008413Y0045779D02*
X0041102Y0045779D01*
X0041102Y0044981D02*
X0033781Y0044981D01*
X0035154Y0044182D02*
X0041102Y0044182D01*
X0041102Y0043384D02*
X0035783Y0043384D01*
X0036114Y0042585D02*
X0041102Y0042585D01*
X0041102Y0041787D02*
X0036150Y0041787D01*
X0036052Y0040988D02*
X0041052Y0040988D01*
X0040302Y0040190D02*
X0035721Y0040190D01*
X0035006Y0039391D02*
X0039972Y0039391D01*
X0040789Y0036197D02*
X0010926Y0036197D01*
X0011193Y0035399D02*
X0042082Y0035399D01*
X0044018Y0035399D02*
X0075387Y0035399D01*
X0074676Y0036197D02*
X0045311Y0036197D01*
X0045907Y0036996D02*
X0074345Y0036996D01*
X0074250Y0037794D02*
X0046237Y0037794D01*
X0046250Y0038593D02*
X0074289Y0038593D01*
X0074620Y0039391D02*
X0046128Y0039391D01*
X0045798Y0040190D02*
X0074679Y0040190D01*
X0074348Y0040988D02*
X0045102Y0040988D01*
X0045102Y0041787D02*
X0074250Y0041787D01*
X0074286Y0042585D02*
X0045102Y0042585D01*
X0045102Y0043384D02*
X0074617Y0043384D01*
X0075246Y0044182D02*
X0045102Y0044182D01*
X0045102Y0044981D02*
X0075351Y0044981D01*
X0075250Y0045779D02*
X0045102Y0045779D01*
X0045102Y0046578D02*
X0075283Y0046578D01*
X0075614Y0047376D02*
X0045102Y0047376D01*
X0045102Y0048175D02*
X0076238Y0048175D01*
X0077601Y0048973D02*
X0045102Y0048973D01*
X0045102Y0049772D02*
X0079835Y0049772D01*
X0079447Y0048973D02*
X0079299Y0048973D01*
X0080450Y0050570D02*
X0045102Y0050570D01*
X0045102Y0051369D02*
X0080450Y0051369D01*
X0080450Y0052167D02*
X0045102Y0052167D01*
X0045132Y0052966D02*
X0080450Y0052966D01*
X0080450Y0053764D02*
X0045862Y0053764D01*
X0046193Y0054563D02*
X0080450Y0054563D01*
X0080450Y0055362D02*
X0046302Y0055362D01*
X0046276Y0056160D02*
X0080450Y0056160D01*
X0080450Y0056959D02*
X0045945Y0056959D01*
X0045331Y0057757D02*
X0080450Y0057757D01*
X0080450Y0058556D02*
X0045102Y0058556D01*
X0045102Y0059354D02*
X0080450Y0059354D01*
X0080450Y0060153D02*
X0045102Y0060153D01*
X0044989Y0060951D02*
X0080450Y0060951D01*
X0080450Y0061750D02*
X0044190Y0061750D01*
X0043930Y0062010D02*
X0043930Y0062010D01*
X0043392Y0062548D02*
X0080450Y0062548D01*
X0080450Y0063347D02*
X0042850Y0063347D01*
X0042850Y0064145D02*
X0080450Y0064145D01*
X0080450Y0064944D02*
X0042850Y0064944D01*
X0042850Y0065742D02*
X0080450Y0065742D01*
X0080450Y0066541D02*
X0042850Y0066541D01*
X0042850Y0067339D02*
X0080450Y0067339D01*
X0080450Y0068138D02*
X0042850Y0068138D01*
X0042850Y0068936D02*
X0080450Y0068936D01*
X0079651Y0069735D02*
X0042850Y0069735D01*
X0042850Y0070533D02*
X0079254Y0070533D01*
X0079050Y0071332D02*
X0042850Y0071332D01*
X0042850Y0072130D02*
X0078953Y0072130D01*
X0078154Y0072929D02*
X0042850Y0072929D01*
X0042850Y0073727D02*
X0077356Y0073727D01*
X0076557Y0074526D02*
X0042850Y0074526D01*
X0043141Y0075324D02*
X0075759Y0075324D01*
X0074960Y0076123D02*
X0043940Y0076123D01*
X0044738Y0076921D02*
X0074162Y0076921D01*
X0073363Y0077720D02*
X0045537Y0077720D01*
X0042276Y0080115D02*
X0024050Y0080115D01*
X0024223Y0079317D02*
X0041477Y0079317D01*
X0040679Y0078518D02*
X0025021Y0078518D01*
X0025820Y0077720D02*
X0039880Y0077720D01*
X0039082Y0076921D02*
X0026618Y0076921D01*
X0026850Y0076123D02*
X0038850Y0076123D01*
X0038850Y0075324D02*
X0026850Y0075324D01*
X0026850Y0074526D02*
X0038850Y0074526D01*
X0038850Y0073727D02*
X0026850Y0073727D01*
X0026850Y0072929D02*
X0038850Y0072929D01*
X0038850Y0072130D02*
X0027009Y0072130D01*
X0026250Y0070061D02*
X0024850Y0071461D01*
X0024850Y0075861D01*
X0020850Y0079861D01*
X0018250Y0079861D01*
X0015650Y0077261D01*
X0015650Y0065461D01*
X0015200Y0065011D01*
X0013625Y0063436D01*
X0012753Y0063436D01*
X0012753Y0065011D02*
X0015200Y0065011D01*
X0017650Y0063861D02*
X0015650Y0061861D01*
X0014075Y0060286D01*
X0012753Y0060286D01*
X0012753Y0058712D02*
X0010800Y0058712D01*
X0009450Y0057361D01*
X0009450Y0054361D01*
X0015950Y0047861D01*
X0018950Y0047861D01*
X0026450Y0055361D01*
X0026450Y0057361D01*
X0025100Y0058712D01*
X0023147Y0058712D01*
X0023147Y0058286D02*
X0023147Y0056918D01*
X0023147Y0058286D01*
X0023147Y0058286D01*
X0023147Y0057757D02*
X0023147Y0057757D01*
X0023147Y0056959D02*
X0023147Y0056959D01*
X0020567Y0056959D02*
X0015333Y0056959D01*
X0016290Y0057757D02*
X0019610Y0057757D01*
X0019503Y0058556D02*
X0016397Y0058556D01*
X0016397Y0058712D02*
X0016079Y0058712D01*
X0016397Y0058712D01*
X0016079Y0058712D02*
X0016079Y0058712D01*
X0016597Y0059354D02*
X0019303Y0059354D01*
X0019303Y0060153D02*
X0016770Y0060153D01*
X0017568Y0060951D02*
X0019303Y0060951D01*
X0019303Y0061750D02*
X0018367Y0061750D01*
X0019165Y0062548D02*
X0019303Y0062548D01*
X0017650Y0063861D02*
X0017650Y0074661D01*
X0018450Y0075461D01*
X0023878Y0080914D02*
X0043074Y0080914D01*
X0038850Y0071332D02*
X0033408Y0071332D01*
X0034206Y0070533D02*
X0038850Y0070533D01*
X0038850Y0069735D02*
X0035005Y0069735D01*
X0035803Y0068936D02*
X0038850Y0068936D01*
X0038850Y0068138D02*
X0036602Y0068138D01*
X0037250Y0067339D02*
X0038850Y0067339D01*
X0038850Y0066541D02*
X0037250Y0066541D01*
X0037250Y0065742D02*
X0038850Y0065742D01*
X0038850Y0064944D02*
X0037250Y0064944D01*
X0037692Y0064145D02*
X0038850Y0064145D01*
X0038850Y0063347D02*
X0038181Y0063347D01*
X0038450Y0062548D02*
X0038850Y0062548D01*
X0038850Y0061750D02*
X0038450Y0061750D01*
X0038254Y0060951D02*
X0039332Y0060951D01*
X0040130Y0060153D02*
X0037867Y0060153D01*
X0037068Y0059354D02*
X0040929Y0059354D01*
X0041102Y0058556D02*
X0034373Y0058556D01*
X0033871Y0057757D02*
X0040872Y0057757D01*
X0040258Y0056959D02*
X0032804Y0056959D01*
X0032650Y0056160D02*
X0039927Y0056160D01*
X0039902Y0055362D02*
X0032650Y0055362D01*
X0032376Y0054563D02*
X0040010Y0054563D01*
X0040341Y0053764D02*
X0031879Y0053764D01*
X0030822Y0052966D02*
X0041071Y0052966D01*
X0041102Y0052167D02*
X0008021Y0052167D01*
X0007995Y0051369D02*
X0041102Y0051369D01*
X0041102Y0050570D02*
X0007969Y0050570D01*
X0007943Y0049772D02*
X0041102Y0049772D01*
X0041102Y0048973D02*
X0007974Y0048973D01*
X0008084Y0048175D02*
X0041102Y0048175D01*
X0041102Y0047376D02*
X0008193Y0047376D01*
X0008303Y0046578D02*
X0041102Y0046578D01*
X0029450Y0055861D02*
X0029450Y0057861D01*
X0027025Y0060286D01*
X0023147Y0060286D01*
X0023147Y0061861D02*
X0029450Y0061861D01*
X0031450Y0059861D01*
X0035250Y0062061D02*
X0035250Y0066661D01*
X0031850Y0070061D01*
X0026250Y0070061D01*
X0027450Y0066861D02*
X0025600Y0065011D01*
X0023147Y0065011D01*
X0023147Y0063436D02*
X0030025Y0063436D01*
X0031450Y0064861D01*
X0026726Y0057757D02*
X0026684Y0057757D01*
X0026441Y0056959D02*
X0025727Y0056959D01*
X0026250Y0056160D02*
X0008149Y0056160D01*
X0008124Y0055362D02*
X0026250Y0055362D01*
X0026524Y0054563D02*
X0008098Y0054563D01*
X0008072Y0053764D02*
X0027021Y0053764D01*
X0028078Y0052966D02*
X0008046Y0052966D01*
X0008175Y0056959D02*
X0010173Y0056959D01*
X0009216Y0057757D02*
X0008275Y0057757D01*
X0008438Y0058556D02*
X0009109Y0058556D01*
X0008909Y0059354D02*
X0008601Y0059354D01*
X0008763Y0060153D02*
X0008909Y0060153D01*
X0012753Y0061861D02*
X0015650Y0061861D01*
X0012753Y0057757D02*
X0012753Y0057757D01*
X0012753Y0056959D02*
X0012753Y0056959D01*
X0011460Y0034600D02*
X0080186Y0034600D01*
X0079592Y0035399D02*
X0079513Y0035399D01*
X0081474Y0033802D02*
X0011727Y0033802D01*
X0077450Y0037861D02*
X0079875Y0040286D01*
X0087753Y0040286D01*
X0087753Y0038712D02*
X0084300Y0038712D01*
X0082450Y0036861D01*
X0077450Y0041861D02*
X0087753Y0041861D01*
X0087753Y0043436D02*
X0080875Y0043436D01*
X0078450Y0045861D01*
D12*
X0078450Y0045861D03*
X0077450Y0041861D03*
X0072450Y0041861D03*
X0077450Y0037861D03*
X0082450Y0036861D03*
X0090050Y0030661D03*
X0095250Y0030661D03*
X0077450Y0028861D03*
X0077450Y0017861D03*
X0059450Y0020361D03*
X0045450Y0026361D03*
X0043050Y0038461D03*
X0032950Y0041861D03*
X0029450Y0055861D03*
X0031450Y0059861D03*
X0035250Y0062061D03*
X0031450Y0064861D03*
X0027450Y0066861D03*
X0018450Y0075461D03*
X0020850Y0079861D03*
X0045050Y0069461D03*
X0058450Y0060861D03*
X0072450Y0060861D03*
X0082250Y0071661D03*
X0094650Y0056061D03*
X0098450Y0053461D03*
X0101450Y0049861D03*
X0082450Y0047861D03*
X0058450Y0041861D03*
X0043102Y0055461D03*
X0015950Y0047861D03*
X0016950Y0028861D03*
X0036450Y0013861D03*
M02*
