G75*
%MOIN*%
%OFA0B0*%
%FSLAX25Y25*%
%IPPOS*%
%LPD*%
%AMOC8*
5,1,8,0,0,1.08239X$1,22.5*
%
%ADD10R,0.03198X0.01506*%
%ADD11R,0.03198X0.01781*%
%ADD12R,0.02962X0.02175*%
%ADD13R,0.06506X0.10049*%
%ADD14R,0.05718X0.02175*%
%ADD15R,0.02569X0.01978*%
%ADD16R,0.01978X0.02569*%
%ADD17R,0.04537X0.03356*%
%ADD18R,0.02750X0.02710*%
%ADD19C,0.03800*%
D10*
X0012615Y0058712D03*
X0012615Y0060286D03*
X0012615Y0061861D03*
X0012615Y0063436D03*
X0012615Y0065011D03*
X0023285Y0065011D03*
X0023285Y0063436D03*
X0023285Y0061861D03*
X0023285Y0060286D03*
X0023285Y0058712D03*
X0087615Y0045011D03*
X0087615Y0043436D03*
X0087615Y0041861D03*
X0087615Y0040286D03*
X0087615Y0038712D03*
X0098285Y0038712D03*
X0098285Y0040286D03*
X0098285Y0041861D03*
X0098285Y0043436D03*
X0098285Y0045011D03*
D11*
X0098285Y0046783D03*
X0087615Y0046783D03*
X0087615Y0036940D03*
X0098285Y0036940D03*
X0023285Y0056940D03*
X0012615Y0056940D03*
X0012615Y0066783D03*
X0023285Y0066783D03*
D12*
X0028535Y0026924D03*
X0028535Y0030861D03*
X0028535Y0034798D03*
X0039165Y0034798D03*
X0039165Y0030861D03*
X0039165Y0026924D03*
D13*
X0033850Y0030861D03*
D14*
X0067820Y0068682D03*
X0067820Y0071241D03*
X0067820Y0073800D03*
X0074120Y0073800D03*
X0074120Y0071241D03*
X0074120Y0068682D03*
D15*
X0049401Y0069541D03*
X0049401Y0067573D03*
X0049401Y0065604D03*
X0049401Y0071510D03*
X0049401Y0073478D03*
X0040739Y0073478D03*
X0040739Y0071510D03*
X0040739Y0069541D03*
X0040739Y0067573D03*
X0040739Y0065604D03*
D16*
X0043102Y0065211D03*
X0045070Y0065211D03*
X0047039Y0065211D03*
X0047039Y0073872D03*
X0045070Y0073872D03*
X0043102Y0073872D03*
D17*
X0032970Y0073122D03*
X0032970Y0078240D03*
D18*
X0027650Y0078086D03*
X0027650Y0074676D03*
X0061650Y0074906D03*
X0061650Y0071496D03*
X0086630Y0067686D03*
X0086630Y0064276D03*
X0091050Y0064336D03*
X0091050Y0067746D03*
X0023650Y0030766D03*
X0023650Y0027356D03*
D19*
X0016950Y0028861D03*
X0032950Y0041861D03*
X0043050Y0038461D03*
X0045450Y0026361D03*
X0059450Y0020361D03*
X0077450Y0017861D03*
X0077450Y0028861D03*
X0082450Y0036861D03*
X0077450Y0037861D03*
X0077450Y0041861D03*
X0078450Y0045861D03*
X0082450Y0047861D03*
X0072450Y0041861D03*
X0058450Y0041861D03*
X0043102Y0055461D03*
X0035250Y0062061D03*
X0031450Y0059861D03*
X0029450Y0055861D03*
X0031450Y0064861D03*
X0027450Y0066861D03*
X0018450Y0075461D03*
X0020850Y0079861D03*
X0045050Y0069461D03*
X0058450Y0060861D03*
X0072450Y0060861D03*
X0082250Y0071661D03*
X0094650Y0056061D03*
X0098450Y0053461D03*
X0101450Y0049861D03*
X0095250Y0030661D03*
X0090050Y0030661D03*
X0036450Y0013861D03*
X0015950Y0047861D03*
M02*
