G75*
%MOIN*%
%OFA0B0*%
%FSLAX25Y25*%
%IPPOS*%
%LPD*%
%AMOC8*
5,1,8,0,0,1.08239X$1,22.5*
%
%ADD10C,0.00500*%
D10*
X0001250Y0047161D02*
X0001386Y0047168D01*
X0001522Y0047170D01*
X0001658Y0047168D01*
X0001794Y0047163D01*
X0001929Y0047154D01*
X0002064Y0047141D01*
X0002199Y0047124D01*
X0002333Y0047103D01*
X0002467Y0047079D01*
X0002600Y0047050D01*
X0002732Y0047018D01*
X0002863Y0046982D01*
X0002993Y0046943D01*
X0003122Y0046899D01*
X0003249Y0046852D01*
X0003375Y0046802D01*
X0003500Y0046748D01*
X0003623Y0046690D01*
X0003744Y0046629D01*
X0003864Y0046564D01*
X0003981Y0046496D01*
X0004097Y0046425D01*
X0004211Y0046350D01*
X0004322Y0046273D01*
X0004431Y0046192D01*
X0004538Y0046108D01*
X0004642Y0046021D01*
X0004744Y0045931D01*
X0004844Y0045838D01*
X0004940Y0045743D01*
X0005034Y0045644D01*
X0005125Y0045543D01*
X0005213Y0045440D01*
X0005298Y0045334D01*
X0005380Y0045226D01*
X0005459Y0045115D01*
X0005535Y0045002D01*
X0005607Y0044887D01*
X0005676Y0044770D01*
X0005742Y0044652D01*
X0005804Y0044531D01*
X0005863Y0044408D01*
X0005919Y0044284D01*
X0005971Y0044159D01*
X0006019Y0044032D01*
X0006063Y0043903D01*
X0006104Y0043774D01*
X0006142Y0043643D01*
X0006175Y0043512D01*
X0001250Y0047161D02*
X0001250Y0058061D01*
X0001396Y0058060D01*
X0001541Y0058063D01*
X0001686Y0058070D01*
X0001831Y0058081D01*
X0001976Y0058096D01*
X0002120Y0058115D01*
X0002263Y0058138D01*
X0002406Y0058165D01*
X0002548Y0058196D01*
X0002690Y0058230D01*
X0002830Y0058268D01*
X0002969Y0058311D01*
X0003107Y0058356D01*
X0003244Y0058406D01*
X0003379Y0058459D01*
X0003512Y0058517D01*
X0003645Y0058577D01*
X0003775Y0058641D01*
X0003904Y0058709D01*
X0004030Y0058780D01*
X0004155Y0058855D01*
X0004278Y0058933D01*
X0004398Y0059015D01*
X0004516Y0059099D01*
X0004632Y0059187D01*
X0004746Y0059278D01*
X0004856Y0059372D01*
X0004965Y0059469D01*
X0005070Y0059569D01*
X0005173Y0059672D01*
X0005273Y0059777D01*
X0005370Y0059885D01*
X0005464Y0059996D01*
X0005555Y0060110D01*
X0005643Y0060225D01*
X0005728Y0060344D01*
X0005810Y0060464D01*
X0005888Y0060586D01*
X0005962Y0060711D01*
X0006034Y0060838D01*
X0006102Y0060966D01*
X0006166Y0061097D01*
X0006227Y0061229D01*
X0006284Y0061362D01*
X0006337Y0061498D01*
X0006387Y0061634D01*
X0006433Y0061772D01*
X0006476Y0061911D01*
X0017550Y0084361D02*
X0044250Y0084361D01*
X0044400Y0084361D02*
X0044537Y0084363D01*
X0044675Y0084369D01*
X0044812Y0084378D01*
X0044949Y0084392D01*
X0045085Y0084409D01*
X0045221Y0084430D01*
X0045356Y0084455D01*
X0045490Y0084484D01*
X0045624Y0084516D01*
X0045756Y0084553D01*
X0045888Y0084592D01*
X0046018Y0084636D01*
X0046147Y0084683D01*
X0046275Y0084734D01*
X0046401Y0084788D01*
X0046526Y0084846D01*
X0046649Y0084908D01*
X0046770Y0084972D01*
X0046890Y0085041D01*
X0047007Y0085112D01*
X0047122Y0085187D01*
X0047235Y0085265D01*
X0047346Y0085346D01*
X0047455Y0085430D01*
X0047561Y0085517D01*
X0047665Y0085607D01*
X0047766Y0085700D01*
X0047865Y0085796D01*
X0047961Y0085895D01*
X0048054Y0085996D01*
X0048144Y0086100D01*
X0048231Y0086206D01*
X0048315Y0086315D01*
X0048396Y0086426D01*
X0048474Y0086539D01*
X0048549Y0086654D01*
X0048620Y0086771D01*
X0048689Y0086891D01*
X0048753Y0087012D01*
X0048815Y0087135D01*
X0048873Y0087260D01*
X0048927Y0087386D01*
X0048978Y0087514D01*
X0049025Y0087643D01*
X0049069Y0087773D01*
X0049108Y0087905D01*
X0049145Y0088037D01*
X0049177Y0088171D01*
X0049206Y0088305D01*
X0049231Y0088440D01*
X0049252Y0088576D01*
X0049269Y0088712D01*
X0049283Y0088849D01*
X0049292Y0088986D01*
X0049298Y0089124D01*
X0049300Y0089261D01*
X0061850Y0089261D01*
X0061852Y0089124D01*
X0061858Y0088986D01*
X0061867Y0088849D01*
X0061881Y0088712D01*
X0061898Y0088576D01*
X0061919Y0088440D01*
X0061944Y0088305D01*
X0061973Y0088171D01*
X0062005Y0088037D01*
X0062042Y0087905D01*
X0062081Y0087773D01*
X0062125Y0087643D01*
X0062172Y0087514D01*
X0062223Y0087386D01*
X0062277Y0087260D01*
X0062335Y0087135D01*
X0062397Y0087012D01*
X0062461Y0086891D01*
X0062530Y0086771D01*
X0062601Y0086654D01*
X0062676Y0086539D01*
X0062754Y0086426D01*
X0062835Y0086315D01*
X0062919Y0086206D01*
X0063006Y0086100D01*
X0063096Y0085996D01*
X0063189Y0085895D01*
X0063285Y0085796D01*
X0063384Y0085700D01*
X0063485Y0085607D01*
X0063589Y0085517D01*
X0063695Y0085430D01*
X0063804Y0085346D01*
X0063915Y0085265D01*
X0064028Y0085187D01*
X0064143Y0085112D01*
X0064260Y0085041D01*
X0064380Y0084972D01*
X0064501Y0084908D01*
X0064624Y0084846D01*
X0064749Y0084788D01*
X0064875Y0084734D01*
X0065003Y0084683D01*
X0065132Y0084636D01*
X0065262Y0084592D01*
X0065394Y0084553D01*
X0065526Y0084516D01*
X0065660Y0084484D01*
X0065794Y0084455D01*
X0065929Y0084430D01*
X0066065Y0084409D01*
X0066201Y0084392D01*
X0066338Y0084378D01*
X0066475Y0084369D01*
X0066613Y0084363D01*
X0066750Y0084361D01*
X0093450Y0084361D01*
X0104424Y0061911D02*
X0104467Y0061772D01*
X0104513Y0061634D01*
X0104563Y0061498D01*
X0104616Y0061362D01*
X0104673Y0061229D01*
X0104734Y0061097D01*
X0104798Y0060966D01*
X0104866Y0060838D01*
X0104938Y0060711D01*
X0105012Y0060586D01*
X0105090Y0060464D01*
X0105172Y0060344D01*
X0105257Y0060225D01*
X0105345Y0060110D01*
X0105436Y0059996D01*
X0105530Y0059885D01*
X0105627Y0059777D01*
X0105727Y0059672D01*
X0105830Y0059569D01*
X0105935Y0059469D01*
X0106044Y0059372D01*
X0106154Y0059278D01*
X0106268Y0059187D01*
X0106384Y0059099D01*
X0106502Y0059015D01*
X0106622Y0058933D01*
X0106745Y0058855D01*
X0106870Y0058780D01*
X0106996Y0058709D01*
X0107125Y0058641D01*
X0107255Y0058577D01*
X0107388Y0058517D01*
X0107521Y0058459D01*
X0107656Y0058406D01*
X0107793Y0058356D01*
X0107931Y0058311D01*
X0108070Y0058268D01*
X0108210Y0058230D01*
X0108352Y0058196D01*
X0108494Y0058165D01*
X0108637Y0058138D01*
X0108780Y0058115D01*
X0108924Y0058096D01*
X0109069Y0058081D01*
X0109214Y0058070D01*
X0109359Y0058063D01*
X0109504Y0058060D01*
X0109650Y0058061D01*
X0109650Y0047161D01*
X0109514Y0047168D01*
X0109378Y0047170D01*
X0109242Y0047168D01*
X0109106Y0047163D01*
X0108971Y0047154D01*
X0108836Y0047141D01*
X0108701Y0047124D01*
X0108567Y0047103D01*
X0108433Y0047079D01*
X0108300Y0047050D01*
X0108168Y0047018D01*
X0108037Y0046982D01*
X0107907Y0046943D01*
X0107778Y0046899D01*
X0107651Y0046852D01*
X0107525Y0046802D01*
X0107400Y0046748D01*
X0107277Y0046690D01*
X0107156Y0046629D01*
X0107036Y0046564D01*
X0106919Y0046496D01*
X0106803Y0046425D01*
X0106689Y0046350D01*
X0106578Y0046273D01*
X0106469Y0046192D01*
X0106362Y0046108D01*
X0106258Y0046021D01*
X0106156Y0045931D01*
X0106056Y0045838D01*
X0105960Y0045743D01*
X0105866Y0045644D01*
X0105775Y0045543D01*
X0105687Y0045440D01*
X0105602Y0045334D01*
X0105520Y0045226D01*
X0105441Y0045115D01*
X0105365Y0045002D01*
X0105293Y0044887D01*
X0105224Y0044770D01*
X0105158Y0044652D01*
X0105096Y0044531D01*
X0105037Y0044408D01*
X0104981Y0044284D01*
X0104929Y0044159D01*
X0104881Y0044032D01*
X0104837Y0043903D01*
X0104796Y0043774D01*
X0104758Y0043643D01*
X0104725Y0043512D01*
X0104425Y0061911D02*
X0104175Y0063088D01*
X0103896Y0064258D01*
X0103588Y0065421D01*
X0103252Y0066577D01*
X0102888Y0067723D01*
X0102496Y0068861D01*
X0102076Y0069988D01*
X0101628Y0071105D01*
X0101153Y0072211D01*
X0100652Y0073304D01*
X0100123Y0074385D01*
X0099568Y0075453D01*
X0098988Y0076507D01*
X0098381Y0077546D01*
X0097749Y0078570D01*
X0097093Y0079578D01*
X0096412Y0080570D01*
X0095706Y0081545D01*
X0094977Y0082502D01*
X0094225Y0083441D01*
X0093450Y0084361D01*
X0104725Y0043511D02*
X0104510Y0042321D01*
X0104266Y0041136D01*
X0103994Y0039958D01*
X0103693Y0038786D01*
X0103364Y0037623D01*
X0103007Y0036467D01*
X0102622Y0035321D01*
X0102209Y0034184D01*
X0101769Y0033057D01*
X0101302Y0031942D01*
X0100808Y0030838D01*
X0100287Y0029746D01*
X0099740Y0028668D01*
X0099167Y0027603D01*
X0098568Y0026552D01*
X0097944Y0025516D01*
X0097295Y0024495D01*
X0096622Y0023491D01*
X0095924Y0022502D01*
X0095203Y0021532D01*
X0094459Y0020579D01*
X0093691Y0019644D01*
X0092901Y0018728D01*
X0092090Y0017831D01*
X0091256Y0016955D01*
X0090402Y0016099D01*
X0089527Y0015263D01*
X0088633Y0014450D01*
X0087719Y0013658D01*
X0086786Y0012888D01*
X0085834Y0012142D01*
X0084865Y0011418D01*
X0083878Y0010719D01*
X0082875Y0010043D01*
X0081856Y0009392D01*
X0080822Y0008766D01*
X0079772Y0008165D01*
X0078708Y0007589D01*
X0077631Y0007040D01*
X0076540Y0006516D01*
X0075438Y0006020D01*
X0074323Y0005550D01*
X0073198Y0005107D01*
X0072062Y0004692D01*
X0070916Y0004305D01*
X0069761Y0003945D01*
X0068598Y0003613D01*
X0067428Y0003310D01*
X0066250Y0003035D01*
X0065066Y0002788D01*
X0063876Y0002571D01*
X0062682Y0002382D01*
X0061483Y0002222D01*
X0060280Y0002092D01*
X0059075Y0001990D01*
X0057868Y0001918D01*
X0056659Y0001875D01*
X0055450Y0001861D01*
X0054241Y0001875D01*
X0053032Y0001918D01*
X0051825Y0001990D01*
X0050620Y0002092D01*
X0049417Y0002222D01*
X0048218Y0002382D01*
X0047024Y0002571D01*
X0045834Y0002788D01*
X0044650Y0003035D01*
X0043472Y0003310D01*
X0042302Y0003613D01*
X0041139Y0003945D01*
X0039984Y0004305D01*
X0038838Y0004692D01*
X0037702Y0005107D01*
X0036577Y0005550D01*
X0035462Y0006020D01*
X0034360Y0006516D01*
X0033269Y0007040D01*
X0032192Y0007589D01*
X0031128Y0008165D01*
X0030078Y0008766D01*
X0029044Y0009392D01*
X0028025Y0010043D01*
X0027022Y0010719D01*
X0026035Y0011418D01*
X0025066Y0012142D01*
X0024114Y0012888D01*
X0023181Y0013658D01*
X0022267Y0014450D01*
X0021373Y0015263D01*
X0020498Y0016099D01*
X0019644Y0016955D01*
X0018810Y0017831D01*
X0017999Y0018728D01*
X0017209Y0019644D01*
X0016441Y0020579D01*
X0015697Y0021532D01*
X0014976Y0022502D01*
X0014278Y0023491D01*
X0013605Y0024495D01*
X0012956Y0025516D01*
X0012332Y0026552D01*
X0011733Y0027603D01*
X0011160Y0028668D01*
X0010613Y0029746D01*
X0010092Y0030838D01*
X0009598Y0031942D01*
X0009131Y0033057D01*
X0008691Y0034184D01*
X0008278Y0035321D01*
X0007893Y0036467D01*
X0007536Y0037623D01*
X0007207Y0038786D01*
X0006906Y0039958D01*
X0006634Y0041136D01*
X0006390Y0042321D01*
X0006175Y0043511D01*
X0006475Y0061911D02*
X0006725Y0063088D01*
X0007004Y0064258D01*
X0007312Y0065421D01*
X0007648Y0066577D01*
X0008012Y0067723D01*
X0008404Y0068861D01*
X0008824Y0069988D01*
X0009272Y0071105D01*
X0009747Y0072211D01*
X0010248Y0073304D01*
X0010777Y0074385D01*
X0011332Y0075453D01*
X0011912Y0076507D01*
X0012519Y0077546D01*
X0013151Y0078570D01*
X0013807Y0079578D01*
X0014488Y0080570D01*
X0015194Y0081545D01*
X0015923Y0082502D01*
X0016675Y0083441D01*
X0017450Y0084361D01*
M02*
