G75*
%MOIN*%
%OFA0B0*%
%FSLAX25Y25*%
%IPPOS*%
%LPD*%
%AMOC8*
5,1,8,0,0,1.08239X$1,22.5*
%
%ADD10R,0.03198X0.01506*%
%ADD11R,0.03198X0.01781*%
%ADD12R,0.02962X0.02175*%
%ADD13R,0.06506X0.10049*%
%ADD14R,0.05718X0.02175*%
%ADD15R,0.02569X0.01978*%
%ADD16R,0.01978X0.02569*%
%ADD17R,0.04537X0.03356*%
%ADD18R,0.02750X0.02710*%
%ADD19C,0.03800*%
D10*
X0008952Y0058712D03*
X0008952Y0060286D03*
X0008952Y0061861D03*
X0008952Y0063436D03*
X0008952Y0065011D03*
X0019621Y0065011D03*
X0019621Y0063436D03*
X0019621Y0061861D03*
X0019621Y0060286D03*
X0019621Y0058712D03*
X0083952Y0045011D03*
X0083952Y0043436D03*
X0083952Y0041861D03*
X0083952Y0040286D03*
X0083952Y0038712D03*
X0094621Y0038712D03*
X0094621Y0040286D03*
X0094621Y0041861D03*
X0094621Y0043436D03*
X0094621Y0045011D03*
D11*
X0094621Y0046783D03*
X0083952Y0046783D03*
X0083952Y0036940D03*
X0094621Y0036940D03*
X0019621Y0056940D03*
X0008952Y0056940D03*
X0008952Y0066783D03*
X0019621Y0066783D03*
D12*
X0024871Y0026924D03*
X0024871Y0030861D03*
X0024871Y0034798D03*
X0035501Y0034798D03*
X0035501Y0030861D03*
X0035501Y0026924D03*
D13*
X0030186Y0030861D03*
D14*
X0064157Y0068682D03*
X0064157Y0071241D03*
X0064157Y0073800D03*
X0070456Y0073800D03*
X0070456Y0071241D03*
X0070456Y0068682D03*
D15*
X0045737Y0069541D03*
X0045737Y0067573D03*
X0045737Y0065604D03*
X0045737Y0071510D03*
X0045737Y0073478D03*
X0037076Y0073478D03*
X0037076Y0071510D03*
X0037076Y0069541D03*
X0037076Y0067573D03*
X0037076Y0065604D03*
D16*
X0039438Y0065211D03*
X0041406Y0065211D03*
X0043375Y0065211D03*
X0043375Y0073872D03*
X0041406Y0073872D03*
X0039438Y0073872D03*
D17*
X0029306Y0073122D03*
X0029306Y0078240D03*
D18*
X0023986Y0078086D03*
X0023986Y0074676D03*
X0057986Y0074906D03*
X0057986Y0071496D03*
X0082966Y0067686D03*
X0082966Y0064276D03*
X0087386Y0064336D03*
X0087386Y0067746D03*
X0019986Y0030766D03*
X0019986Y0027356D03*
D19*
X0013286Y0028861D03*
X0029286Y0041861D03*
X0039386Y0038461D03*
X0041786Y0026361D03*
X0055786Y0020361D03*
X0073786Y0017861D03*
X0073786Y0028861D03*
X0078786Y0036861D03*
X0073786Y0037861D03*
X0073786Y0041861D03*
X0074786Y0045861D03*
X0078786Y0047861D03*
X0068786Y0041861D03*
X0054786Y0041861D03*
X0039438Y0055461D03*
X0031586Y0062061D03*
X0027786Y0059861D03*
X0025786Y0055861D03*
X0027786Y0064861D03*
X0023786Y0066861D03*
X0014786Y0075461D03*
X0017186Y0079861D03*
X0041386Y0069461D03*
X0054786Y0060861D03*
X0068786Y0060861D03*
X0078586Y0071661D03*
X0090986Y0056061D03*
X0094786Y0053461D03*
X0097786Y0049861D03*
X0091586Y0030661D03*
X0086386Y0030661D03*
X0032786Y0013861D03*
X0012286Y0047861D03*
M02*
