G75*
%MOIN*%
%OFA0B0*%
%FSLAX25Y25*%
%IPPOS*%
%LPD*%
%AMOC8*
5,1,8,0,0,1.08239X$1,22.5*
%
%ADD10R,0.02598X0.00906*%
%ADD11R,0.02598X0.01181*%
%ADD12R,0.02362X0.01575*%
%ADD13R,0.05906X0.09449*%
%ADD14R,0.05118X0.01575*%
%ADD15R,0.01969X0.01378*%
%ADD16R,0.01378X0.01969*%
%ADD17R,0.03937X0.02756*%
%ADD18R,0.02150X0.02110*%
%ADD19C,0.00800*%
%ADD20C,0.03200*%
D10*
X0008952Y0058712D03*
X0008952Y0060286D03*
X0008952Y0061861D03*
X0008952Y0063436D03*
X0008952Y0065011D03*
X0019621Y0065011D03*
X0019621Y0063436D03*
X0019621Y0061861D03*
X0019621Y0060286D03*
X0019621Y0058712D03*
X0083952Y0045011D03*
X0083952Y0043436D03*
X0083952Y0041861D03*
X0083952Y0040286D03*
X0083952Y0038712D03*
X0094621Y0038712D03*
X0094621Y0040286D03*
X0094621Y0041861D03*
X0094621Y0043436D03*
X0094621Y0045011D03*
D11*
X0094621Y0046783D03*
X0083952Y0046783D03*
X0083952Y0036940D03*
X0094621Y0036940D03*
X0019621Y0056940D03*
X0008952Y0056940D03*
X0008952Y0066783D03*
X0019621Y0066783D03*
D12*
X0024871Y0034798D03*
X0024871Y0030861D03*
X0024871Y0026924D03*
X0035501Y0026924D03*
X0035501Y0030861D03*
X0035501Y0034798D03*
D13*
X0030186Y0030861D03*
D14*
X0064157Y0068682D03*
X0064157Y0071241D03*
X0064157Y0073800D03*
X0070456Y0073800D03*
X0070456Y0071241D03*
X0070456Y0068682D03*
D15*
X0045737Y0069541D03*
X0045737Y0067573D03*
X0045737Y0065604D03*
X0045737Y0071510D03*
X0045737Y0073478D03*
X0037076Y0073478D03*
X0037076Y0071510D03*
X0037076Y0069541D03*
X0037076Y0067573D03*
X0037076Y0065604D03*
D16*
X0039438Y0065211D03*
X0041406Y0065211D03*
X0043375Y0065211D03*
X0043375Y0073872D03*
X0041406Y0073872D03*
X0039438Y0073872D03*
D17*
X0029306Y0073122D03*
X0029306Y0078240D03*
D18*
X0023986Y0078086D03*
X0023986Y0074676D03*
X0057986Y0074906D03*
X0057986Y0071496D03*
X0082966Y0067686D03*
X0082966Y0064276D03*
X0087386Y0064336D03*
X0087386Y0067746D03*
X0019986Y0030766D03*
X0019986Y0027356D03*
D19*
X0019862Y0017033D02*
X0083711Y0017033D01*
X0084518Y0017831D02*
X0019054Y0017831D01*
X0018247Y0018630D02*
X0085326Y0018630D01*
X0086133Y0019429D02*
X0017439Y0019429D01*
X0016632Y0020227D02*
X0086941Y0020227D01*
X0087587Y0020866D02*
X0082344Y0015682D01*
X0076359Y0011376D01*
X0069778Y0008053D01*
X0062759Y0005793D01*
X0055475Y0004652D01*
X0051788Y0004511D01*
X0051784Y0004511D01*
X0048098Y0004652D01*
X0040813Y0005793D01*
X0033795Y0008053D01*
X0027213Y0011376D01*
X0021228Y0015682D01*
X0015986Y0020866D01*
X0011613Y0026802D01*
X0008216Y0033346D01*
X0005878Y0040339D01*
X0005125Y0043950D01*
X0005124Y0043956D01*
X0005122Y0043964D01*
X0004715Y0046853D01*
X0004445Y0052682D01*
X0004905Y0058499D01*
X0005406Y0061372D01*
X0005408Y0061384D01*
X0005410Y0061394D01*
X0006052Y0064143D01*
X0006052Y0059171D01*
X0006252Y0058971D01*
X0006252Y0058712D01*
X0006512Y0058712D01*
X0006512Y0058712D01*
X0006252Y0058712D01*
X0006252Y0058393D01*
X0006052Y0058193D01*
X0006052Y0055687D01*
X0006990Y0054749D01*
X0010914Y0054749D01*
X0011851Y0055687D01*
X0011851Y0058193D01*
X0011651Y0058393D01*
X0011651Y0058697D01*
X0012815Y0059861D01*
X0014815Y0061861D01*
X0015986Y0063033D01*
X0015986Y0072495D01*
X0016599Y0072748D01*
X0017499Y0073649D01*
X0017986Y0074825D01*
X0017986Y0076098D01*
X0017753Y0076661D01*
X0017823Y0076661D01*
X0018999Y0077148D01*
X0019712Y0077861D01*
X0021158Y0077861D01*
X0021311Y0077708D01*
X0021311Y0076369D01*
X0021565Y0076115D01*
X0021511Y0075916D01*
X0021511Y0074804D01*
X0023859Y0074804D01*
X0023859Y0074549D01*
X0024114Y0074549D01*
X0024114Y0072221D01*
X0025246Y0072221D01*
X0025602Y0072317D01*
X0025921Y0072501D01*
X0025938Y0072518D01*
X0025938Y0071560D01*
X0026033Y0071204D01*
X0026217Y0070885D01*
X0026478Y0070624D01*
X0026797Y0070440D01*
X0027153Y0070344D01*
X0029017Y0070344D01*
X0029017Y0072833D01*
X0029595Y0072833D01*
X0029595Y0070344D01*
X0031459Y0070344D01*
X0031815Y0070440D01*
X0032134Y0070624D01*
X0032395Y0070885D01*
X0032579Y0071204D01*
X0032675Y0071560D01*
X0032675Y0072833D01*
X0029595Y0072833D01*
X0029595Y0073411D01*
X0032675Y0073411D01*
X0032675Y0074684D01*
X0032579Y0075041D01*
X0032395Y0075360D01*
X0032215Y0075540D01*
X0032875Y0076200D01*
X0032875Y0076240D01*
X0034186Y0076240D01*
X0034186Y0073539D01*
X0034491Y0073234D01*
X0034491Y0069395D01*
X0032586Y0067490D01*
X0032586Y0065111D01*
X0032223Y0065261D01*
X0030986Y0065261D01*
X0030986Y0065498D01*
X0030499Y0066674D01*
X0029599Y0067574D01*
X0028423Y0068061D01*
X0027150Y0068061D01*
X0026811Y0067921D01*
X0026499Y0068674D01*
X0025599Y0069574D01*
X0024423Y0070061D01*
X0023150Y0070061D01*
X0021974Y0069574D01*
X0021373Y0068973D01*
X0017659Y0068973D01*
X0016722Y0068036D01*
X0016722Y0059171D01*
X0016922Y0058971D01*
X0016922Y0058712D01*
X0017181Y0058712D01*
X0017181Y0058712D01*
X0016922Y0058712D01*
X0016922Y0058393D01*
X0016722Y0058193D01*
X0016722Y0055687D01*
X0017659Y0054749D01*
X0021583Y0054749D01*
X0022520Y0055687D01*
X0022520Y0058193D01*
X0022427Y0058286D01*
X0022533Y0058286D01*
X0023109Y0057710D01*
X0023073Y0057674D01*
X0022586Y0056498D01*
X0022586Y0055225D01*
X0023073Y0054049D01*
X0023974Y0053148D01*
X0024590Y0052893D01*
X0019158Y0047461D01*
X0017986Y0046290D01*
X0017986Y0033159D01*
X0017311Y0032484D01*
X0017311Y0029049D01*
X0017565Y0028795D01*
X0017511Y0028596D01*
X0017511Y0027484D01*
X0019859Y0027484D01*
X0019859Y0027229D01*
X0020114Y0027229D01*
X0020114Y0024901D01*
X0021246Y0024901D01*
X0021602Y0024997D01*
X0021921Y0025181D01*
X0022152Y0025412D01*
X0023027Y0024537D01*
X0026715Y0024537D01*
X0026943Y0024765D01*
X0027049Y0024737D01*
X0029786Y0024737D01*
X0029786Y0030461D01*
X0030586Y0030461D01*
X0030586Y0024737D01*
X0033323Y0024737D01*
X0033429Y0024765D01*
X0033657Y0024537D01*
X0037345Y0024537D01*
X0038282Y0025474D01*
X0038282Y0028374D01*
X0037623Y0029034D01*
X0037803Y0029214D01*
X0037987Y0029533D01*
X0038082Y0029890D01*
X0038082Y0030861D01*
X0035501Y0030861D01*
X0032920Y0030861D01*
X0032920Y0030461D01*
X0030586Y0030461D01*
X0030586Y0031261D01*
X0032920Y0031261D01*
X0032920Y0030861D01*
X0035501Y0030861D01*
X0035501Y0030861D01*
X0035501Y0030861D01*
X0038082Y0030861D01*
X0038082Y0031833D01*
X0037987Y0032189D01*
X0037803Y0032508D01*
X0037623Y0032688D01*
X0038282Y0033348D01*
X0038282Y0034529D01*
X0039015Y0035261D01*
X0040023Y0035261D01*
X0041199Y0035748D01*
X0042099Y0036649D01*
X0042586Y0037825D01*
X0042586Y0039098D01*
X0042099Y0040274D01*
X0041199Y0041174D01*
X0040023Y0041661D01*
X0038750Y0041661D01*
X0037574Y0041174D01*
X0036673Y0040274D01*
X0036186Y0039098D01*
X0036186Y0038090D01*
X0035282Y0037186D01*
X0033657Y0037186D01*
X0033429Y0036957D01*
X0033323Y0036986D01*
X0030586Y0036986D01*
X0030586Y0031261D01*
X0029786Y0031261D01*
X0029786Y0036986D01*
X0027049Y0036986D01*
X0026943Y0036957D01*
X0026715Y0037186D01*
X0025312Y0037186D01*
X0024986Y0037512D01*
X0024986Y0044233D01*
X0032586Y0051833D01*
X0032586Y0051433D01*
X0036386Y0047633D01*
X0037558Y0046461D01*
X0071358Y0046461D01*
X0071586Y0046233D01*
X0071586Y0045225D01*
X0071890Y0044491D01*
X0071073Y0043674D01*
X0070586Y0042498D01*
X0070586Y0041225D01*
X0071073Y0040049D01*
X0071261Y0039861D01*
X0071073Y0039674D01*
X0070586Y0038498D01*
X0070586Y0037225D01*
X0071073Y0036049D01*
X0071974Y0035148D01*
X0073150Y0034661D01*
X0074423Y0034661D01*
X0075599Y0035148D01*
X0075905Y0035455D01*
X0076073Y0035049D01*
X0076974Y0034148D01*
X0078150Y0033661D01*
X0079423Y0033661D01*
X0080599Y0034148D01*
X0081499Y0035049D01*
X0081555Y0035184D01*
X0081990Y0034749D01*
X0085914Y0034749D01*
X0086851Y0035687D01*
X0086851Y0048036D01*
X0085914Y0048973D01*
X0081990Y0048973D01*
X0081848Y0048831D01*
X0081499Y0049674D01*
X0080786Y0050387D01*
X0080786Y0054908D01*
X0087560Y0061681D01*
X0089124Y0061681D01*
X0090061Y0062619D01*
X0090061Y0069464D01*
X0089124Y0070401D01*
X0085649Y0070401D01*
X0085146Y0069899D01*
X0084966Y0070079D01*
X0084966Y0073710D01*
X0083795Y0074881D01*
X0078436Y0080240D01*
X0032875Y0080240D01*
X0032875Y0080281D01*
X0031938Y0081218D01*
X0026675Y0081218D01*
X0025961Y0080504D01*
X0025724Y0080741D01*
X0023935Y0080741D01*
X0022965Y0081711D01*
X0042238Y0081711D01*
X0042600Y0081861D01*
X0061222Y0081861D01*
X0061584Y0081711D01*
X0088523Y0081711D01*
X0089659Y0080307D01*
X0092948Y0075323D01*
X0095571Y0069958D01*
X0097483Y0064301D01*
X0098077Y0061757D01*
X0098069Y0061682D01*
X0098184Y0061283D01*
X0098266Y0060875D01*
X0098330Y0060780D01*
X0098381Y0060601D01*
X0099050Y0057321D01*
X0099197Y0052741D01*
X0098423Y0053061D01*
X0097986Y0053061D01*
X0097986Y0054098D01*
X0097499Y0055274D01*
X0096599Y0056174D01*
X0095423Y0056661D01*
X0094186Y0056661D01*
X0094186Y0056698D01*
X0093699Y0057874D01*
X0092799Y0058774D01*
X0091623Y0059261D01*
X0090350Y0059261D01*
X0089174Y0058774D01*
X0088273Y0057874D01*
X0087786Y0056698D01*
X0087786Y0055690D01*
X0087586Y0055490D01*
X0087586Y0042833D01*
X0088958Y0041461D01*
X0088586Y0041090D01*
X0087386Y0039890D01*
X0087386Y0034652D01*
X0086645Y0033861D01*
X0085750Y0033861D01*
X0084574Y0033374D01*
X0083673Y0032474D01*
X0083186Y0031298D01*
X0083186Y0030025D01*
X0083673Y0028849D01*
X0084574Y0027948D01*
X0085750Y0027461D01*
X0087023Y0027461D01*
X0088199Y0027948D01*
X0088986Y0028736D01*
X0089774Y0027948D01*
X0090950Y0027461D01*
X0092223Y0027461D01*
X0092324Y0027503D01*
X0091960Y0026802D01*
X0087587Y0020866D01*
X0087704Y0021026D02*
X0015868Y0021026D01*
X0015280Y0021824D02*
X0088293Y0021824D01*
X0088881Y0022623D02*
X0014692Y0022623D01*
X0014103Y0023421D02*
X0089469Y0023421D01*
X0090057Y0024220D02*
X0013515Y0024220D01*
X0012927Y0025018D02*
X0018334Y0025018D01*
X0018371Y0024997D02*
X0018727Y0024901D01*
X0019859Y0024901D01*
X0019859Y0027229D01*
X0017511Y0027229D01*
X0017511Y0026117D01*
X0017607Y0025761D01*
X0017791Y0025442D01*
X0018052Y0025181D01*
X0018371Y0024997D01*
X0017592Y0025817D02*
X0012339Y0025817D01*
X0011751Y0026615D02*
X0017511Y0026615D01*
X0017511Y0028212D02*
X0010881Y0028212D01*
X0011295Y0027414D02*
X0019859Y0027414D01*
X0019859Y0026615D02*
X0020114Y0026615D01*
X0020114Y0025817D02*
X0019859Y0025817D01*
X0019859Y0025018D02*
X0020114Y0025018D01*
X0021639Y0025018D02*
X0022546Y0025018D01*
X0017349Y0029011D02*
X0010466Y0029011D01*
X0010052Y0029809D02*
X0017311Y0029809D01*
X0017311Y0030608D02*
X0009637Y0030608D01*
X0009223Y0031406D02*
X0017311Y0031406D01*
X0017311Y0032205D02*
X0008808Y0032205D01*
X0008394Y0033003D02*
X0017830Y0033003D01*
X0017986Y0033802D02*
X0008064Y0033802D01*
X0007797Y0034600D02*
X0017986Y0034600D01*
X0017986Y0035399D02*
X0007530Y0035399D01*
X0007263Y0036197D02*
X0017986Y0036197D01*
X0017986Y0036996D02*
X0006996Y0036996D01*
X0006729Y0037794D02*
X0017986Y0037794D01*
X0017986Y0038593D02*
X0006462Y0038593D01*
X0006195Y0039391D02*
X0017986Y0039391D01*
X0017986Y0040190D02*
X0005928Y0040190D01*
X0005742Y0040988D02*
X0017986Y0040988D01*
X0017986Y0041787D02*
X0005576Y0041787D01*
X0005409Y0042585D02*
X0017986Y0042585D01*
X0017986Y0043384D02*
X0005243Y0043384D01*
X0005092Y0044182D02*
X0017986Y0044182D01*
X0017986Y0044981D02*
X0004979Y0044981D01*
X0004866Y0045779D02*
X0017986Y0045779D01*
X0018274Y0046578D02*
X0004754Y0046578D01*
X0004691Y0047376D02*
X0019073Y0047376D01*
X0019872Y0048175D02*
X0004654Y0048175D01*
X0004617Y0048973D02*
X0020670Y0048973D01*
X0021469Y0049772D02*
X0004580Y0049772D01*
X0004543Y0050570D02*
X0022267Y0050570D01*
X0023066Y0051369D02*
X0004506Y0051369D01*
X0004469Y0052167D02*
X0023864Y0052167D01*
X0024414Y0052966D02*
X0004468Y0052966D01*
X0004531Y0053764D02*
X0023358Y0053764D01*
X0022860Y0054563D02*
X0004594Y0054563D01*
X0004657Y0055362D02*
X0006378Y0055362D01*
X0006052Y0056160D02*
X0004720Y0056160D01*
X0004783Y0056959D02*
X0006052Y0056959D01*
X0005786Y0057361D02*
X0005786Y0054361D01*
X0012286Y0047861D01*
X0015286Y0047861D01*
X0022786Y0055361D01*
X0022786Y0057361D01*
X0021436Y0058712D01*
X0019621Y0058712D01*
X0015786Y0058712D01*
X0015786Y0070261D01*
X0020201Y0074676D01*
X0023986Y0074676D01*
X0025540Y0073122D01*
X0029306Y0073122D01*
X0029595Y0072929D02*
X0034491Y0072929D01*
X0034491Y0072130D02*
X0032675Y0072130D01*
X0032614Y0071332D02*
X0034491Y0071332D01*
X0034491Y0070533D02*
X0031977Y0070533D01*
X0029595Y0070533D02*
X0029017Y0070533D01*
X0029017Y0071332D02*
X0029595Y0071332D01*
X0029595Y0072130D02*
X0029017Y0072130D01*
X0026635Y0070533D02*
X0015986Y0070533D01*
X0015986Y0069735D02*
X0022361Y0069735D01*
X0022727Y0072221D02*
X0022371Y0072317D01*
X0022052Y0072501D01*
X0021791Y0072762D01*
X0021607Y0073081D01*
X0021511Y0073437D01*
X0021511Y0074549D01*
X0023859Y0074549D01*
X0023859Y0072221D01*
X0022727Y0072221D01*
X0021695Y0072929D02*
X0016779Y0072929D01*
X0017532Y0073727D02*
X0021511Y0073727D01*
X0021511Y0074526D02*
X0017862Y0074526D01*
X0017986Y0075324D02*
X0021511Y0075324D01*
X0021557Y0076123D02*
X0017976Y0076123D01*
X0018451Y0076921D02*
X0021311Y0076921D01*
X0021299Y0077720D02*
X0019570Y0077720D01*
X0017186Y0079861D02*
X0014586Y0079861D01*
X0011986Y0077261D01*
X0011986Y0065461D01*
X0011536Y0065011D01*
X0009961Y0063436D01*
X0008952Y0063436D01*
X0008952Y0065011D02*
X0011536Y0065011D01*
X0013986Y0063861D02*
X0011986Y0061861D01*
X0010411Y0060286D01*
X0008952Y0060286D01*
X0008952Y0058712D02*
X0007137Y0058712D01*
X0005786Y0057361D01*
X0006052Y0057757D02*
X0004846Y0057757D01*
X0004915Y0058556D02*
X0006252Y0058556D01*
X0006052Y0059354D02*
X0005054Y0059354D01*
X0005193Y0060153D02*
X0006052Y0060153D01*
X0006052Y0060951D02*
X0005333Y0060951D01*
X0005493Y0061750D02*
X0006052Y0061750D01*
X0006052Y0062548D02*
X0005680Y0062548D01*
X0005866Y0063347D02*
X0006052Y0063347D01*
X0008952Y0061861D02*
X0011986Y0061861D01*
X0013905Y0060951D02*
X0016722Y0060951D01*
X0016722Y0060153D02*
X0013106Y0060153D01*
X0012815Y0059861D02*
X0012815Y0059861D01*
X0012307Y0059354D02*
X0016722Y0059354D01*
X0016922Y0058556D02*
X0011651Y0058556D01*
X0011851Y0057757D02*
X0016722Y0057757D01*
X0016722Y0056959D02*
X0011851Y0056959D01*
X0011851Y0056160D02*
X0016722Y0056160D01*
X0017047Y0055362D02*
X0011526Y0055362D01*
X0008952Y0058712D02*
X0015786Y0058712D01*
X0016722Y0061750D02*
X0014703Y0061750D01*
X0015502Y0062548D02*
X0016722Y0062548D01*
X0016722Y0063347D02*
X0015986Y0063347D01*
X0015986Y0064145D02*
X0016722Y0064145D01*
X0016722Y0064944D02*
X0015986Y0064944D01*
X0015986Y0065742D02*
X0016722Y0065742D01*
X0016722Y0066541D02*
X0015986Y0066541D01*
X0015986Y0067339D02*
X0016722Y0067339D01*
X0016824Y0068138D02*
X0015986Y0068138D01*
X0015986Y0068936D02*
X0017622Y0068936D01*
X0015986Y0071332D02*
X0025999Y0071332D01*
X0025938Y0072130D02*
X0015986Y0072130D01*
X0013986Y0074661D02*
X0014786Y0075461D01*
X0013986Y0074661D02*
X0013986Y0063861D01*
X0019621Y0063436D02*
X0026361Y0063436D01*
X0027786Y0064861D01*
X0029834Y0067339D02*
X0032586Y0067339D01*
X0032586Y0066541D02*
X0030554Y0066541D01*
X0030885Y0065742D02*
X0032586Y0065742D01*
X0034586Y0066661D02*
X0035498Y0067573D01*
X0037076Y0067573D01*
X0037076Y0065604D02*
X0037076Y0058951D01*
X0036586Y0058461D01*
X0036586Y0053861D01*
X0038986Y0051461D01*
X0040986Y0051461D01*
X0044786Y0055261D01*
X0044786Y0057861D01*
X0041406Y0061241D01*
X0041406Y0065211D01*
X0041406Y0069461D01*
X0041386Y0069461D01*
X0043275Y0067573D01*
X0045737Y0067573D01*
X0043353Y0067795D02*
X0042023Y0067795D01*
X0041823Y0067595D01*
X0041406Y0067595D01*
X0040989Y0067595D01*
X0040789Y0067795D01*
X0039660Y0067795D01*
X0039660Y0071488D01*
X0039855Y0071488D01*
X0040055Y0071288D01*
X0043353Y0071288D01*
X0043353Y0071093D01*
X0043153Y0070893D01*
X0043153Y0068190D01*
X0043353Y0067990D01*
X0043353Y0067795D01*
X0043205Y0068138D02*
X0039660Y0068138D01*
X0039660Y0068936D02*
X0043153Y0068936D01*
X0043153Y0069735D02*
X0039660Y0069735D01*
X0039660Y0070533D02*
X0043153Y0070533D01*
X0043435Y0071510D02*
X0041386Y0069461D01*
X0039438Y0071410D01*
X0039438Y0073872D01*
X0041406Y0073872D02*
X0041406Y0078240D01*
X0043375Y0078240D01*
X0043375Y0073872D01*
X0043435Y0071510D02*
X0045737Y0071510D01*
X0045737Y0071830D02*
X0045737Y0073478D01*
X0045737Y0071830D01*
X0045737Y0071830D01*
X0045737Y0072130D02*
X0045737Y0072130D01*
X0045737Y0072929D02*
X0045737Y0072929D01*
X0045737Y0073478D02*
X0045737Y0073478D01*
X0045737Y0075567D01*
X0045615Y0075567D01*
X0045375Y0075808D01*
X0045375Y0076240D01*
X0047358Y0076240D01*
X0047986Y0075612D01*
X0047986Y0074776D01*
X0047842Y0075027D01*
X0047581Y0075288D01*
X0047262Y0075472D01*
X0046906Y0075567D01*
X0045737Y0075567D01*
X0045737Y0073478D01*
X0045737Y0073478D01*
X0045737Y0073727D02*
X0045737Y0073727D01*
X0045737Y0074526D02*
X0045737Y0074526D01*
X0045737Y0075324D02*
X0045737Y0075324D01*
X0045375Y0076123D02*
X0047475Y0076123D01*
X0047517Y0075324D02*
X0047986Y0075324D01*
X0049986Y0076440D02*
X0048186Y0078240D01*
X0050207Y0078240D01*
X0077607Y0078240D01*
X0082966Y0072881D01*
X0082966Y0067686D01*
X0083026Y0067746D01*
X0087386Y0067746D01*
X0090061Y0068138D02*
X0096186Y0068138D01*
X0095916Y0068936D02*
X0090061Y0068936D01*
X0089791Y0069735D02*
X0095646Y0069735D01*
X0095290Y0070533D02*
X0084966Y0070533D01*
X0084966Y0071332D02*
X0094899Y0071332D01*
X0094509Y0072130D02*
X0084966Y0072130D01*
X0084966Y0072929D02*
X0094119Y0072929D01*
X0093728Y0073727D02*
X0084949Y0073727D01*
X0084150Y0074526D02*
X0093338Y0074526D01*
X0092947Y0075324D02*
X0083352Y0075324D01*
X0082553Y0076123D02*
X0092420Y0076123D01*
X0091893Y0076921D02*
X0081755Y0076921D01*
X0080956Y0077720D02*
X0091366Y0077720D01*
X0090839Y0078518D02*
X0080158Y0078518D01*
X0079359Y0079317D02*
X0090312Y0079317D01*
X0089785Y0080115D02*
X0078561Y0080115D01*
X0076447Y0073800D02*
X0078586Y0071661D01*
X0076447Y0073800D02*
X0070456Y0073800D01*
X0070786Y0073470D01*
X0070786Y0073461D01*
X0070456Y0068682D02*
X0074786Y0064352D01*
X0074786Y0056096D01*
X0074786Y0055261D01*
X0074786Y0045861D01*
X0072186Y0048461D01*
X0038386Y0048461D01*
X0034586Y0052261D01*
X0034586Y0056661D01*
X0022986Y0045061D01*
X0022986Y0036683D01*
X0024871Y0034798D01*
X0026905Y0036996D02*
X0033467Y0036996D01*
X0035891Y0037794D02*
X0024986Y0037794D01*
X0024986Y0038593D02*
X0036186Y0038593D01*
X0036308Y0039391D02*
X0031342Y0039391D01*
X0031099Y0039148D02*
X0031999Y0040049D01*
X0032486Y0041225D01*
X0032486Y0042498D01*
X0031999Y0043674D01*
X0031099Y0044574D01*
X0029923Y0045061D01*
X0028650Y0045061D01*
X0027474Y0044574D01*
X0026573Y0043674D01*
X0026086Y0042498D01*
X0026086Y0041225D01*
X0026573Y0040049D01*
X0027474Y0039148D01*
X0028650Y0038661D01*
X0029923Y0038661D01*
X0031099Y0039148D01*
X0032058Y0040190D02*
X0036639Y0040190D01*
X0037388Y0040988D02*
X0032388Y0040988D01*
X0032486Y0041787D02*
X0070586Y0041787D01*
X0070623Y0042585D02*
X0032450Y0042585D01*
X0032119Y0043384D02*
X0070953Y0043384D01*
X0071582Y0044182D02*
X0031491Y0044182D01*
X0030117Y0044981D02*
X0071687Y0044981D01*
X0071586Y0045779D02*
X0026533Y0045779D01*
X0025734Y0044981D02*
X0028456Y0044981D01*
X0027082Y0044182D02*
X0024986Y0044182D01*
X0024986Y0043384D02*
X0026453Y0043384D01*
X0026123Y0042585D02*
X0024986Y0042585D01*
X0024986Y0041787D02*
X0026086Y0041787D01*
X0026184Y0040988D02*
X0024986Y0040988D01*
X0024986Y0040190D02*
X0026515Y0040190D01*
X0027231Y0039391D02*
X0024986Y0039391D01*
X0029786Y0036197D02*
X0030586Y0036197D01*
X0030586Y0035399D02*
X0029786Y0035399D01*
X0029786Y0034600D02*
X0030586Y0034600D01*
X0030586Y0033802D02*
X0029786Y0033802D01*
X0029786Y0033003D02*
X0030586Y0033003D01*
X0030586Y0032205D02*
X0029786Y0032205D01*
X0029786Y0031406D02*
X0030586Y0031406D01*
X0030586Y0030608D02*
X0032920Y0030608D01*
X0030586Y0029809D02*
X0029786Y0029809D01*
X0029786Y0029011D02*
X0030586Y0029011D01*
X0030586Y0028212D02*
X0029786Y0028212D01*
X0029786Y0027414D02*
X0030586Y0027414D01*
X0030586Y0026615D02*
X0029786Y0026615D01*
X0029786Y0025817D02*
X0030586Y0025817D01*
X0030586Y0025018D02*
X0029786Y0025018D01*
X0024776Y0030766D02*
X0024871Y0030861D01*
X0024776Y0030766D02*
X0019986Y0030766D01*
X0019986Y0045461D01*
X0031586Y0057061D01*
X0031586Y0062061D01*
X0027786Y0059861D02*
X0025786Y0061861D01*
X0019621Y0061861D01*
X0019621Y0060286D02*
X0023361Y0060286D01*
X0025786Y0057861D01*
X0025786Y0055861D01*
X0022777Y0056959D02*
X0022520Y0056959D01*
X0022520Y0057757D02*
X0023062Y0057757D01*
X0022586Y0056160D02*
X0022520Y0056160D01*
X0022586Y0055362D02*
X0022195Y0055362D01*
X0029727Y0048973D02*
X0035046Y0048973D01*
X0035844Y0048175D02*
X0028928Y0048175D01*
X0028130Y0047376D02*
X0036643Y0047376D01*
X0037441Y0046578D02*
X0027331Y0046578D01*
X0030525Y0049772D02*
X0034247Y0049772D01*
X0033449Y0050570D02*
X0031324Y0050570D01*
X0032122Y0051369D02*
X0032650Y0051369D01*
X0036586Y0053090D02*
X0039215Y0050461D01*
X0072786Y0050461D01*
X0072786Y0063523D01*
X0070015Y0066295D01*
X0067234Y0066295D01*
X0067006Y0066523D01*
X0066900Y0066495D01*
X0064157Y0066495D01*
X0064157Y0068682D01*
X0064157Y0068682D01*
X0064157Y0066495D01*
X0061413Y0066495D01*
X0061057Y0066590D01*
X0060738Y0066775D01*
X0060477Y0067035D01*
X0060293Y0067354D01*
X0060198Y0067710D01*
X0060198Y0068682D01*
X0064157Y0068682D01*
X0064157Y0068682D01*
X0064157Y0071241D01*
X0064157Y0071241D01*
X0064157Y0070870D01*
X0064157Y0068682D01*
X0064157Y0068682D01*
X0060198Y0068682D01*
X0060198Y0069610D01*
X0060182Y0069582D01*
X0059921Y0069321D01*
X0059602Y0069137D01*
X0059246Y0069041D01*
X0058114Y0069041D01*
X0058114Y0071369D01*
X0057859Y0071369D01*
X0057859Y0069041D01*
X0056727Y0069041D01*
X0056371Y0069137D01*
X0056052Y0069321D01*
X0055791Y0069582D01*
X0055607Y0069901D01*
X0055511Y0070257D01*
X0055511Y0071369D01*
X0057859Y0071369D01*
X0057859Y0071624D01*
X0055511Y0071624D01*
X0055511Y0072736D01*
X0055557Y0072906D01*
X0052713Y0072906D01*
X0051986Y0073633D01*
X0051986Y0061833D01*
X0050815Y0060661D01*
X0048615Y0058461D01*
X0044758Y0058461D01*
X0043586Y0059633D01*
X0041438Y0061781D01*
X0041438Y0057987D01*
X0042151Y0057274D01*
X0042638Y0056098D01*
X0042638Y0054825D01*
X0042151Y0053649D01*
X0041250Y0052748D01*
X0040074Y0052261D01*
X0038801Y0052261D01*
X0037625Y0052748D01*
X0036725Y0053649D01*
X0036586Y0053983D01*
X0036586Y0053090D01*
X0036710Y0052966D02*
X0037408Y0052966D01*
X0037508Y0052167D02*
X0072786Y0052167D01*
X0072786Y0051369D02*
X0038307Y0051369D01*
X0039105Y0050570D02*
X0072786Y0050570D01*
X0072786Y0052966D02*
X0041468Y0052966D01*
X0042199Y0053764D02*
X0072786Y0053764D01*
X0072786Y0054563D02*
X0042529Y0054563D01*
X0042638Y0055362D02*
X0072786Y0055362D01*
X0072786Y0056160D02*
X0042612Y0056160D01*
X0042281Y0056959D02*
X0072786Y0056959D01*
X0072786Y0057757D02*
X0041667Y0057757D01*
X0041438Y0058556D02*
X0044664Y0058556D01*
X0043865Y0059354D02*
X0041438Y0059354D01*
X0041438Y0060153D02*
X0043067Y0060153D01*
X0042268Y0060951D02*
X0041438Y0060951D01*
X0041438Y0061750D02*
X0041469Y0061750D01*
X0043375Y0062673D02*
X0045586Y0060461D01*
X0047786Y0060461D01*
X0049986Y0062661D01*
X0049986Y0076440D01*
X0050207Y0078240D02*
X0053541Y0074906D01*
X0057986Y0074906D01*
X0063051Y0074906D01*
X0064157Y0073800D01*
X0064157Y0070533D02*
X0064157Y0070533D01*
X0064157Y0069735D02*
X0064157Y0069735D01*
X0064157Y0068936D02*
X0064157Y0068936D01*
X0064157Y0068138D02*
X0064157Y0068138D01*
X0064157Y0067339D02*
X0064157Y0067339D01*
X0064157Y0066541D02*
X0064157Y0066541D01*
X0061242Y0066541D02*
X0051986Y0066541D01*
X0051986Y0067339D02*
X0060302Y0067339D01*
X0060198Y0068138D02*
X0051986Y0068138D01*
X0051986Y0068936D02*
X0060198Y0068936D01*
X0058114Y0069735D02*
X0057859Y0069735D01*
X0057859Y0070533D02*
X0058114Y0070533D01*
X0058114Y0071332D02*
X0057859Y0071332D01*
X0055511Y0071332D02*
X0051986Y0071332D01*
X0051986Y0072130D02*
X0055511Y0072130D01*
X0055511Y0070533D02*
X0051986Y0070533D01*
X0051986Y0069735D02*
X0055703Y0069735D01*
X0052690Y0072929D02*
X0051986Y0072929D01*
X0048186Y0078240D02*
X0043375Y0078240D01*
X0041406Y0078240D02*
X0036186Y0078240D01*
X0036186Y0074368D01*
X0037076Y0073478D01*
X0034186Y0073727D02*
X0032675Y0073727D01*
X0032675Y0074526D02*
X0034186Y0074526D01*
X0034186Y0075324D02*
X0032416Y0075324D01*
X0032798Y0076123D02*
X0034186Y0076123D01*
X0036186Y0078240D02*
X0029306Y0078240D01*
X0024140Y0078240D01*
X0023986Y0078086D01*
X0023961Y0078061D01*
X0023786Y0078061D01*
X0021986Y0079861D01*
X0017186Y0079861D01*
X0023762Y0080914D02*
X0026371Y0080914D01*
X0032242Y0080914D02*
X0089168Y0080914D01*
X0090061Y0067339D02*
X0096456Y0067339D01*
X0096726Y0066541D02*
X0090061Y0066541D01*
X0090061Y0065742D02*
X0096996Y0065742D01*
X0097266Y0064944D02*
X0090061Y0064944D01*
X0090061Y0064145D02*
X0097520Y0064145D01*
X0097706Y0063347D02*
X0090061Y0063347D01*
X0089991Y0062548D02*
X0097893Y0062548D01*
X0098077Y0061750D02*
X0089192Y0061750D01*
X0086830Y0060951D02*
X0098251Y0060951D01*
X0098473Y0060153D02*
X0086031Y0060153D01*
X0085233Y0059354D02*
X0098635Y0059354D01*
X0098798Y0058556D02*
X0093017Y0058556D01*
X0093748Y0057757D02*
X0098961Y0057757D01*
X0099061Y0056959D02*
X0094078Y0056959D01*
X0096613Y0056160D02*
X0099087Y0056160D01*
X0099113Y0055362D02*
X0097411Y0055362D01*
X0097794Y0054563D02*
X0099138Y0054563D01*
X0099164Y0053764D02*
X0097986Y0053764D01*
X0098653Y0052966D02*
X0099190Y0052966D01*
X0097786Y0049861D02*
X0098386Y0049261D01*
X0098386Y0046461D01*
X0096936Y0045011D01*
X0094621Y0045011D01*
X0094596Y0043461D02*
X0094621Y0043436D01*
X0094596Y0043461D02*
X0091786Y0043461D01*
X0091186Y0044061D01*
X0091186Y0049861D01*
X0094786Y0053461D01*
X0090986Y0056061D02*
X0089586Y0054661D01*
X0089586Y0043661D01*
X0091386Y0041861D01*
X0094621Y0041861D01*
X0094621Y0040286D02*
X0094596Y0040261D01*
X0090586Y0040261D01*
X0089386Y0039061D01*
X0089386Y0033861D01*
X0086386Y0030661D01*
X0084310Y0028212D02*
X0038282Y0028212D01*
X0038282Y0027414D02*
X0092277Y0027414D01*
X0091822Y0026615D02*
X0038282Y0026615D01*
X0038282Y0025817D02*
X0091234Y0025817D01*
X0090646Y0025018D02*
X0037826Y0025018D01*
X0037646Y0029011D02*
X0083606Y0029011D01*
X0083276Y0029809D02*
X0038061Y0029809D01*
X0038082Y0030608D02*
X0083186Y0030608D01*
X0083231Y0031406D02*
X0038082Y0031406D01*
X0037978Y0032205D02*
X0083562Y0032205D01*
X0084203Y0033003D02*
X0037937Y0033003D01*
X0038282Y0033802D02*
X0077811Y0033802D01*
X0076522Y0034600D02*
X0038354Y0034600D01*
X0040355Y0035399D02*
X0071723Y0035399D01*
X0071012Y0036197D02*
X0041648Y0036197D01*
X0042243Y0036996D02*
X0070681Y0036996D01*
X0070586Y0037794D02*
X0042574Y0037794D01*
X0042586Y0038593D02*
X0070626Y0038593D01*
X0070956Y0039391D02*
X0042465Y0039391D01*
X0042134Y0040190D02*
X0071015Y0040190D01*
X0070684Y0040988D02*
X0041385Y0040988D01*
X0039386Y0038461D02*
X0035723Y0034798D01*
X0035501Y0034798D01*
X0036586Y0053764D02*
X0036677Y0053764D01*
X0039438Y0055461D02*
X0039438Y0065211D01*
X0037076Y0065284D02*
X0037076Y0063515D01*
X0037197Y0063515D01*
X0037438Y0063275D01*
X0037438Y0057987D01*
X0036725Y0057274D01*
X0036586Y0056939D01*
X0036586Y0063515D01*
X0037076Y0063515D01*
X0037076Y0065284D01*
X0037076Y0065284D01*
X0037076Y0064944D02*
X0037076Y0064944D01*
X0037076Y0064145D02*
X0037076Y0064145D01*
X0037366Y0063347D02*
X0036586Y0063347D01*
X0036586Y0062548D02*
X0037438Y0062548D01*
X0037438Y0061750D02*
X0036586Y0061750D01*
X0036586Y0060951D02*
X0037438Y0060951D01*
X0037438Y0060153D02*
X0036586Y0060153D01*
X0036586Y0059354D02*
X0037438Y0059354D01*
X0037438Y0058556D02*
X0036586Y0058556D01*
X0036586Y0057757D02*
X0037208Y0057757D01*
X0036594Y0056959D02*
X0036586Y0056959D01*
X0034586Y0056661D02*
X0034586Y0066661D01*
X0033234Y0068138D02*
X0026721Y0068138D01*
X0026237Y0068936D02*
X0034033Y0068936D01*
X0034491Y0069735D02*
X0025211Y0069735D01*
X0024114Y0072929D02*
X0023859Y0072929D01*
X0023859Y0073727D02*
X0024114Y0073727D01*
X0024114Y0074526D02*
X0023859Y0074526D01*
X0023786Y0066861D02*
X0021936Y0065011D01*
X0019621Y0065011D01*
X0039660Y0071332D02*
X0040011Y0071332D01*
X0041406Y0067595D02*
X0041406Y0067178D01*
X0041406Y0067178D01*
X0041406Y0067178D01*
X0041406Y0067595D01*
X0041406Y0067339D02*
X0041406Y0067339D01*
X0043375Y0065211D02*
X0043375Y0062673D01*
X0048709Y0058556D02*
X0072786Y0058556D01*
X0072786Y0059354D02*
X0049508Y0059354D01*
X0050306Y0060153D02*
X0072786Y0060153D01*
X0072786Y0060951D02*
X0051105Y0060951D01*
X0051903Y0061750D02*
X0072786Y0061750D01*
X0072786Y0062548D02*
X0051986Y0062548D01*
X0051986Y0063347D02*
X0072786Y0063347D01*
X0072165Y0064145D02*
X0051986Y0064145D01*
X0051986Y0064944D02*
X0071366Y0064944D01*
X0070567Y0065742D02*
X0051986Y0065742D01*
X0061582Y0081712D02*
X0042241Y0081712D01*
X0074786Y0056096D02*
X0082966Y0064276D01*
X0087386Y0064336D02*
X0078786Y0055736D01*
X0078786Y0047861D01*
X0081637Y0045011D01*
X0083952Y0045011D01*
X0083952Y0043436D02*
X0077211Y0043436D01*
X0074786Y0045861D01*
X0073786Y0041861D02*
X0083952Y0041861D01*
X0083952Y0040286D02*
X0076211Y0040286D01*
X0073786Y0037861D01*
X0075849Y0035399D02*
X0075928Y0035399D01*
X0078786Y0036861D02*
X0080637Y0038712D01*
X0083952Y0038712D01*
X0086851Y0038593D02*
X0087386Y0038593D01*
X0087386Y0039391D02*
X0086851Y0039391D01*
X0086851Y0040190D02*
X0087686Y0040190D01*
X0088485Y0040988D02*
X0086851Y0040988D01*
X0086851Y0041787D02*
X0088632Y0041787D01*
X0087834Y0042585D02*
X0086851Y0042585D01*
X0086851Y0043384D02*
X0087586Y0043384D01*
X0087586Y0044182D02*
X0086851Y0044182D01*
X0086851Y0044981D02*
X0087586Y0044981D01*
X0087586Y0045779D02*
X0086851Y0045779D01*
X0086851Y0046578D02*
X0087586Y0046578D01*
X0087586Y0047376D02*
X0086851Y0047376D01*
X0086712Y0048175D02*
X0087586Y0048175D01*
X0087586Y0048973D02*
X0081789Y0048973D01*
X0081401Y0049772D02*
X0087586Y0049772D01*
X0087586Y0050570D02*
X0080786Y0050570D01*
X0080786Y0051369D02*
X0087586Y0051369D01*
X0087586Y0052167D02*
X0080786Y0052167D01*
X0080786Y0052966D02*
X0087586Y0052966D01*
X0087586Y0053764D02*
X0080786Y0053764D01*
X0080786Y0054563D02*
X0087586Y0054563D01*
X0087586Y0055362D02*
X0081240Y0055362D01*
X0082038Y0056160D02*
X0087786Y0056160D01*
X0087894Y0056959D02*
X0082837Y0056959D01*
X0083635Y0057757D02*
X0088225Y0057757D01*
X0088955Y0058556D02*
X0084434Y0058556D01*
X0092237Y0038712D02*
X0091586Y0038061D01*
X0091586Y0030661D01*
X0089510Y0028212D02*
X0088463Y0028212D01*
X0085606Y0033802D02*
X0079762Y0033802D01*
X0081051Y0034600D02*
X0087338Y0034600D01*
X0087386Y0035399D02*
X0086563Y0035399D01*
X0086851Y0036197D02*
X0087386Y0036197D01*
X0087386Y0036996D02*
X0086851Y0036996D01*
X0086851Y0037794D02*
X0087386Y0037794D01*
X0092237Y0038712D02*
X0094621Y0038712D01*
X0082903Y0016234D02*
X0020669Y0016234D01*
X0021570Y0015436D02*
X0082002Y0015436D01*
X0080893Y0014637D02*
X0022680Y0014637D01*
X0023790Y0013839D02*
X0079783Y0013839D01*
X0078673Y0013040D02*
X0024900Y0013040D01*
X0026009Y0012242D02*
X0077563Y0012242D01*
X0076453Y0011443D02*
X0027119Y0011443D01*
X0028661Y0010645D02*
X0074912Y0010645D01*
X0073330Y0009846D02*
X0030242Y0009846D01*
X0031824Y0009048D02*
X0071749Y0009048D01*
X0070167Y0008249D02*
X0033405Y0008249D01*
X0035664Y0007451D02*
X0067908Y0007451D01*
X0065428Y0006652D02*
X0038145Y0006652D01*
X0040625Y0005854D02*
X0062948Y0005854D01*
X0058048Y0005055D02*
X0045525Y0005055D01*
D20*
X0032786Y0013861D03*
X0041786Y0026361D03*
X0039386Y0038461D03*
X0029286Y0041861D03*
X0025786Y0055861D03*
X0027786Y0059861D03*
X0031586Y0062061D03*
X0027786Y0064861D03*
X0023786Y0066861D03*
X0014786Y0075461D03*
X0017186Y0079861D03*
X0041386Y0069461D03*
X0054786Y0060861D03*
X0068786Y0060861D03*
X0078586Y0071661D03*
X0090986Y0056061D03*
X0094786Y0053461D03*
X0097786Y0049861D03*
X0078786Y0047861D03*
X0074786Y0045861D03*
X0073786Y0041861D03*
X0068786Y0041861D03*
X0073786Y0037861D03*
X0078786Y0036861D03*
X0086386Y0030661D03*
X0091586Y0030661D03*
X0073786Y0028861D03*
X0073786Y0017861D03*
X0055786Y0020361D03*
X0054786Y0041861D03*
X0039438Y0055461D03*
X0012286Y0047861D03*
X0013286Y0028861D03*
M02*
