G75*
%MOIN*%
%OFA0B0*%
%FSLAX25Y25*%
%IPPOS*%
%LPD*%
%AMOC8*
5,1,8,0,0,1.08239X$1,22.5*
%
%ADD10R,0.04488X0.00787*%
%ADD11C,0.00800*%
%ADD12C,0.03200*%
D10*
X0009089Y0058712D03*
X0009089Y0060286D03*
X0009089Y0061861D03*
X0009089Y0063436D03*
X0009089Y0065011D03*
X0019483Y0065011D03*
X0019483Y0063436D03*
X0019483Y0061861D03*
X0019483Y0060286D03*
X0019483Y0058712D03*
X0084089Y0045011D03*
X0084089Y0043436D03*
X0084089Y0041861D03*
X0084089Y0040286D03*
X0084089Y0038712D03*
X0094483Y0038712D03*
X0094483Y0040286D03*
X0094483Y0041861D03*
X0094483Y0043436D03*
X0094483Y0045011D03*
D11*
X0083711Y0017033D02*
X0019862Y0017033D01*
X0020669Y0016234D02*
X0082903Y0016234D01*
X0082344Y0015682D02*
X0076359Y0011376D01*
X0069778Y0008053D01*
X0062759Y0005793D01*
X0055475Y0004652D01*
X0051788Y0004511D01*
X0051784Y0004511D01*
X0048098Y0004652D01*
X0040813Y0005793D01*
X0033795Y0008053D01*
X0027213Y0011376D01*
X0021228Y0015682D01*
X0015986Y0020866D01*
X0011613Y0026802D01*
X0008216Y0033346D01*
X0005878Y0040339D01*
X0005125Y0043950D01*
X0005124Y0043956D01*
X0005122Y0043964D01*
X0004715Y0046853D01*
X0004445Y0052682D01*
X0004905Y0058499D01*
X0005245Y0060451D01*
X0005245Y0059230D01*
X0005445Y0059030D01*
X0005445Y0058712D01*
X0005764Y0058712D01*
X0005764Y0058712D01*
X0005445Y0058712D01*
X0005445Y0058134D01*
X0005541Y0057778D01*
X0005725Y0057458D01*
X0005986Y0057198D01*
X0006305Y0057013D01*
X0006661Y0056918D01*
X0009089Y0056918D01*
X0009089Y0058286D01*
X0009089Y0058286D01*
X0009089Y0056918D01*
X0011518Y0056918D01*
X0011874Y0057013D01*
X0012193Y0057198D01*
X0012454Y0057458D01*
X0012638Y0057778D01*
X0012734Y0058134D01*
X0012733Y0058712D01*
X0012734Y0058712D02*
X0012734Y0059030D01*
X0012934Y0059230D01*
X0012934Y0059980D01*
X0013986Y0061033D01*
X0015639Y0062686D01*
X0015639Y0061343D01*
X0015639Y0059230D01*
X0015839Y0059030D01*
X0015839Y0058712D01*
X0016157Y0058712D01*
X0016157Y0058712D01*
X0015839Y0058712D01*
X0015839Y0058134D01*
X0015934Y0057778D01*
X0016119Y0057458D01*
X0016379Y0057198D01*
X0016699Y0057013D01*
X0017055Y0056918D01*
X0019483Y0056918D01*
X0019483Y0058286D01*
X0019483Y0058286D01*
X0019483Y0056918D01*
X0021912Y0056918D01*
X0022268Y0057013D01*
X0022587Y0057198D01*
X0022847Y0057458D01*
X0023032Y0057778D01*
X0023034Y0057785D01*
X0023109Y0057710D01*
X0023073Y0057674D01*
X0022586Y0056498D01*
X0022586Y0055225D01*
X0023073Y0054049D01*
X0023974Y0053148D01*
X0025150Y0052661D01*
X0026423Y0052661D01*
X0027599Y0053148D01*
X0028499Y0054049D01*
X0028986Y0055225D01*
X0028986Y0056498D01*
X0028846Y0056837D01*
X0029599Y0057148D01*
X0030499Y0058049D01*
X0030852Y0058902D01*
X0030950Y0058861D01*
X0032223Y0058861D01*
X0033399Y0059348D01*
X0034299Y0060249D01*
X0034786Y0061425D01*
X0034786Y0062698D01*
X0034299Y0063874D01*
X0033586Y0064587D01*
X0033586Y0067490D01*
X0030186Y0070890D01*
X0029015Y0072061D01*
X0023415Y0072061D01*
X0023186Y0072290D01*
X0023186Y0076690D01*
X0022015Y0077861D01*
X0020386Y0079490D01*
X0020386Y0080498D01*
X0019899Y0081674D01*
X0019862Y0081711D01*
X0040208Y0081711D01*
X0039186Y0080690D01*
X0035186Y0076690D01*
X0035186Y0061433D01*
X0036358Y0060261D01*
X0037438Y0059181D01*
X0037438Y0057987D01*
X0036725Y0057274D01*
X0036238Y0056098D01*
X0036238Y0054825D01*
X0036725Y0053649D01*
X0037438Y0052936D01*
X0037438Y0041038D01*
X0036673Y0040274D01*
X0036186Y0039098D01*
X0036186Y0037825D01*
X0036673Y0036649D01*
X0037574Y0035748D01*
X0038750Y0035261D01*
X0040023Y0035261D01*
X0041199Y0035748D01*
X0042099Y0036649D01*
X0042586Y0037825D01*
X0042586Y0039098D01*
X0042099Y0040274D01*
X0041438Y0040935D01*
X0041438Y0052936D01*
X0042151Y0053649D01*
X0042638Y0054825D01*
X0042638Y0056098D01*
X0042151Y0057274D01*
X0041438Y0057987D01*
X0041438Y0060838D01*
X0040266Y0062010D01*
X0039186Y0063090D01*
X0039186Y0075033D01*
X0042015Y0077861D01*
X0069558Y0077861D01*
X0075386Y0072033D01*
X0075386Y0071025D01*
X0075873Y0069849D01*
X0076774Y0068948D01*
X0076786Y0068943D01*
X0076786Y0050387D01*
X0076073Y0049674D01*
X0075762Y0048921D01*
X0075423Y0049061D01*
X0074150Y0049061D01*
X0072974Y0048574D01*
X0072073Y0047674D01*
X0071586Y0046498D01*
X0071586Y0045225D01*
X0071890Y0044491D01*
X0071073Y0043674D01*
X0070586Y0042498D01*
X0070586Y0041225D01*
X0071073Y0040049D01*
X0071261Y0039861D01*
X0071073Y0039674D01*
X0070586Y0038498D01*
X0070586Y0037225D01*
X0071073Y0036049D01*
X0071974Y0035148D01*
X0073150Y0034661D01*
X0074423Y0034661D01*
X0075599Y0035148D01*
X0075905Y0035455D01*
X0076073Y0035049D01*
X0076974Y0034148D01*
X0078150Y0033661D01*
X0079423Y0033661D01*
X0080599Y0034148D01*
X0081499Y0035049D01*
X0081986Y0036225D01*
X0081986Y0036712D01*
X0084918Y0036712D01*
X0084924Y0036718D01*
X0086996Y0036718D01*
X0087386Y0037108D01*
X0087386Y0034652D01*
X0086645Y0033861D01*
X0085750Y0033861D01*
X0084574Y0033374D01*
X0083673Y0032474D01*
X0083186Y0031298D01*
X0083186Y0030025D01*
X0083673Y0028849D01*
X0084574Y0027948D01*
X0085750Y0027461D01*
X0087023Y0027461D01*
X0088199Y0027948D01*
X0088986Y0028736D01*
X0089774Y0027948D01*
X0090950Y0027461D01*
X0092223Y0027461D01*
X0092324Y0027503D01*
X0091960Y0026802D01*
X0087587Y0020866D01*
X0082344Y0015682D01*
X0082002Y0015436D02*
X0021570Y0015436D01*
X0022680Y0014637D02*
X0080893Y0014637D01*
X0079783Y0013839D02*
X0023790Y0013839D01*
X0024900Y0013040D02*
X0078673Y0013040D01*
X0077563Y0012242D02*
X0026009Y0012242D01*
X0027119Y0011443D02*
X0076453Y0011443D01*
X0074912Y0010645D02*
X0028661Y0010645D01*
X0030242Y0009846D02*
X0073330Y0009846D01*
X0071749Y0009048D02*
X0031824Y0009048D01*
X0033405Y0008249D02*
X0070167Y0008249D01*
X0067908Y0007451D02*
X0035664Y0007451D01*
X0038145Y0006652D02*
X0065428Y0006652D01*
X0062948Y0005854D02*
X0040625Y0005854D01*
X0045525Y0005055D02*
X0058048Y0005055D01*
X0084518Y0017831D02*
X0019054Y0017831D01*
X0018247Y0018630D02*
X0085326Y0018630D01*
X0086133Y0019429D02*
X0017439Y0019429D01*
X0016632Y0020227D02*
X0086941Y0020227D01*
X0087704Y0021026D02*
X0015868Y0021026D01*
X0015280Y0021824D02*
X0088293Y0021824D01*
X0088881Y0022623D02*
X0014692Y0022623D01*
X0014103Y0023421D02*
X0089469Y0023421D01*
X0090057Y0024220D02*
X0013515Y0024220D01*
X0012927Y0025018D02*
X0090646Y0025018D01*
X0091234Y0025817D02*
X0012339Y0025817D01*
X0011751Y0026615D02*
X0091822Y0026615D01*
X0092277Y0027414D02*
X0011295Y0027414D01*
X0010881Y0028212D02*
X0084310Y0028212D01*
X0083606Y0029011D02*
X0010466Y0029011D01*
X0010052Y0029809D02*
X0083276Y0029809D01*
X0083186Y0030608D02*
X0009637Y0030608D01*
X0009223Y0031406D02*
X0083231Y0031406D01*
X0083562Y0032205D02*
X0008808Y0032205D01*
X0008394Y0033003D02*
X0084203Y0033003D01*
X0085606Y0033802D02*
X0079762Y0033802D01*
X0081051Y0034600D02*
X0087338Y0034600D01*
X0087386Y0035399D02*
X0081644Y0035399D01*
X0081975Y0036197D02*
X0087386Y0036197D01*
X0087386Y0036996D02*
X0087274Y0036996D01*
X0089386Y0039061D02*
X0089386Y0033861D01*
X0086386Y0030661D01*
X0088463Y0028212D02*
X0089510Y0028212D01*
X0091586Y0030661D02*
X0091586Y0038061D01*
X0092237Y0038712D01*
X0094483Y0038712D01*
X0094483Y0040286D02*
X0090611Y0040286D01*
X0089386Y0039061D01*
X0091386Y0041861D02*
X0089586Y0043661D01*
X0089586Y0054661D01*
X0090986Y0056061D01*
X0094786Y0053461D02*
X0091186Y0049861D01*
X0091186Y0044061D01*
X0091811Y0043436D01*
X0094483Y0043436D01*
X0094483Y0041861D02*
X0091386Y0041861D01*
X0094483Y0045011D02*
X0096936Y0045011D01*
X0098386Y0046461D01*
X0098386Y0049261D01*
X0097786Y0049861D01*
X0084089Y0045011D02*
X0081637Y0045011D01*
X0078786Y0047861D01*
X0078786Y0071461D01*
X0078586Y0071661D01*
X0070386Y0079861D01*
X0041186Y0079861D01*
X0037186Y0075861D01*
X0037186Y0062261D01*
X0039438Y0060010D01*
X0039438Y0055461D01*
X0039438Y0055061D01*
X0039438Y0038513D01*
X0039386Y0038461D01*
X0036530Y0036996D02*
X0006996Y0036996D01*
X0006729Y0037794D02*
X0036199Y0037794D01*
X0036186Y0038593D02*
X0006462Y0038593D01*
X0006195Y0039391D02*
X0027231Y0039391D01*
X0027474Y0039148D02*
X0028650Y0038661D01*
X0029923Y0038661D01*
X0031099Y0039148D01*
X0031999Y0040049D01*
X0032486Y0041225D01*
X0032486Y0042498D01*
X0031999Y0043674D01*
X0031099Y0044574D01*
X0029923Y0045061D01*
X0028650Y0045061D01*
X0027474Y0044574D01*
X0026573Y0043674D01*
X0026086Y0042498D01*
X0026086Y0041225D01*
X0026573Y0040049D01*
X0027474Y0039148D01*
X0026515Y0040190D02*
X0005928Y0040190D01*
X0005742Y0040988D02*
X0026184Y0040988D01*
X0026086Y0041787D02*
X0005576Y0041787D01*
X0005409Y0042585D02*
X0026123Y0042585D01*
X0026453Y0043384D02*
X0005243Y0043384D01*
X0005092Y0044182D02*
X0027082Y0044182D01*
X0028456Y0044981D02*
X0004979Y0044981D01*
X0004866Y0045779D02*
X0037438Y0045779D01*
X0037438Y0044981D02*
X0030117Y0044981D01*
X0031491Y0044182D02*
X0037438Y0044182D01*
X0037438Y0043384D02*
X0032119Y0043384D01*
X0032450Y0042585D02*
X0037438Y0042585D01*
X0037438Y0041787D02*
X0032486Y0041787D01*
X0032388Y0040988D02*
X0037388Y0040988D01*
X0036639Y0040190D02*
X0032058Y0040190D01*
X0031342Y0039391D02*
X0036308Y0039391D01*
X0037125Y0036197D02*
X0007263Y0036197D01*
X0007530Y0035399D02*
X0038418Y0035399D01*
X0040355Y0035399D02*
X0071723Y0035399D01*
X0071012Y0036197D02*
X0041648Y0036197D01*
X0042243Y0036996D02*
X0070681Y0036996D01*
X0070586Y0037794D02*
X0042574Y0037794D01*
X0042586Y0038593D02*
X0070626Y0038593D01*
X0070956Y0039391D02*
X0042465Y0039391D01*
X0042134Y0040190D02*
X0071015Y0040190D01*
X0070684Y0040988D02*
X0041438Y0040988D01*
X0041438Y0041787D02*
X0070586Y0041787D01*
X0070623Y0042585D02*
X0041438Y0042585D01*
X0041438Y0043384D02*
X0070953Y0043384D01*
X0071582Y0044182D02*
X0041438Y0044182D01*
X0041438Y0044981D02*
X0071687Y0044981D01*
X0071586Y0045779D02*
X0041438Y0045779D01*
X0041438Y0046578D02*
X0071619Y0046578D01*
X0071950Y0047376D02*
X0041438Y0047376D01*
X0041438Y0048175D02*
X0072574Y0048175D01*
X0073938Y0048973D02*
X0041438Y0048973D01*
X0041438Y0049772D02*
X0076171Y0049772D01*
X0075783Y0048973D02*
X0075635Y0048973D01*
X0076786Y0050570D02*
X0041438Y0050570D01*
X0041438Y0051369D02*
X0076786Y0051369D01*
X0076786Y0052167D02*
X0041438Y0052167D01*
X0041468Y0052966D02*
X0076786Y0052966D01*
X0076786Y0053764D02*
X0042199Y0053764D01*
X0042529Y0054563D02*
X0076786Y0054563D01*
X0076786Y0055362D02*
X0042638Y0055362D01*
X0042612Y0056160D02*
X0076786Y0056160D01*
X0076786Y0056959D02*
X0042281Y0056959D01*
X0041667Y0057757D02*
X0076786Y0057757D01*
X0076786Y0058556D02*
X0041438Y0058556D01*
X0041438Y0059354D02*
X0076786Y0059354D01*
X0076786Y0060153D02*
X0041438Y0060153D01*
X0041325Y0060951D02*
X0076786Y0060951D01*
X0076786Y0061750D02*
X0040526Y0061750D01*
X0040266Y0062010D02*
X0040266Y0062010D01*
X0039728Y0062548D02*
X0076786Y0062548D01*
X0076786Y0063347D02*
X0039186Y0063347D01*
X0039186Y0064145D02*
X0076786Y0064145D01*
X0076786Y0064944D02*
X0039186Y0064944D01*
X0039186Y0065742D02*
X0076786Y0065742D01*
X0076786Y0066541D02*
X0039186Y0066541D01*
X0039186Y0067339D02*
X0076786Y0067339D01*
X0076786Y0068138D02*
X0039186Y0068138D01*
X0039186Y0068936D02*
X0076786Y0068936D01*
X0075987Y0069735D02*
X0039186Y0069735D01*
X0039186Y0070533D02*
X0075590Y0070533D01*
X0075386Y0071332D02*
X0039186Y0071332D01*
X0039186Y0072130D02*
X0075289Y0072130D01*
X0074490Y0072929D02*
X0039186Y0072929D01*
X0039186Y0073727D02*
X0073692Y0073727D01*
X0072893Y0074526D02*
X0039186Y0074526D01*
X0039478Y0075324D02*
X0072095Y0075324D01*
X0071296Y0076123D02*
X0040276Y0076123D01*
X0041075Y0076921D02*
X0070498Y0076921D01*
X0069699Y0077720D02*
X0041873Y0077720D01*
X0038612Y0080115D02*
X0020386Y0080115D01*
X0020559Y0079317D02*
X0037813Y0079317D01*
X0037015Y0078518D02*
X0021358Y0078518D01*
X0022015Y0077861D02*
X0022015Y0077861D01*
X0022156Y0077720D02*
X0036216Y0077720D01*
X0035418Y0076921D02*
X0022955Y0076921D01*
X0023186Y0076123D02*
X0035186Y0076123D01*
X0035186Y0075324D02*
X0023186Y0075324D01*
X0023186Y0074526D02*
X0035186Y0074526D01*
X0035186Y0073727D02*
X0023186Y0073727D01*
X0023186Y0072929D02*
X0035186Y0072929D01*
X0035186Y0072130D02*
X0023346Y0072130D01*
X0022586Y0070061D02*
X0021186Y0071461D01*
X0021186Y0075861D01*
X0017186Y0079861D01*
X0014586Y0079861D01*
X0011986Y0077261D01*
X0011986Y0065461D01*
X0011536Y0065011D01*
X0009961Y0063436D01*
X0009089Y0063436D01*
X0009089Y0065011D02*
X0011536Y0065011D01*
X0013986Y0063861D02*
X0011986Y0061861D01*
X0010411Y0060286D01*
X0009089Y0060286D01*
X0009089Y0058712D02*
X0007137Y0058712D01*
X0005786Y0057361D01*
X0005786Y0054361D01*
X0012286Y0047861D01*
X0015286Y0047861D01*
X0022786Y0055361D01*
X0022786Y0057361D01*
X0021436Y0058712D01*
X0019483Y0058712D01*
X0019483Y0057757D02*
X0019483Y0057757D01*
X0019483Y0056959D02*
X0019483Y0056959D01*
X0022063Y0056959D02*
X0022777Y0056959D01*
X0022586Y0056160D02*
X0004720Y0056160D01*
X0004657Y0055362D02*
X0022586Y0055362D01*
X0022860Y0054563D02*
X0004594Y0054563D01*
X0004531Y0053764D02*
X0023358Y0053764D01*
X0024414Y0052966D02*
X0004468Y0052966D01*
X0004469Y0052167D02*
X0037438Y0052167D01*
X0037438Y0051369D02*
X0004506Y0051369D01*
X0004543Y0050570D02*
X0037438Y0050570D01*
X0037438Y0049772D02*
X0004580Y0049772D01*
X0004617Y0048973D02*
X0037438Y0048973D01*
X0037438Y0048175D02*
X0004654Y0048175D01*
X0004691Y0047376D02*
X0037438Y0047376D01*
X0037438Y0046578D02*
X0004754Y0046578D01*
X0004783Y0056959D02*
X0006510Y0056959D01*
X0005553Y0057757D02*
X0004846Y0057757D01*
X0004915Y0058556D02*
X0005445Y0058556D01*
X0005245Y0059354D02*
X0005054Y0059354D01*
X0005193Y0060153D02*
X0005245Y0060153D01*
X0009089Y0061861D02*
X0011986Y0061861D01*
X0013905Y0060951D02*
X0015639Y0060951D01*
X0015639Y0060153D02*
X0013106Y0060153D01*
X0012934Y0059354D02*
X0015639Y0059354D01*
X0015839Y0058556D02*
X0012734Y0058556D01*
X0012733Y0058712D02*
X0012415Y0058712D01*
X0012734Y0058712D01*
X0012415Y0058712D02*
X0012415Y0058712D01*
X0012626Y0057757D02*
X0015946Y0057757D01*
X0016903Y0056959D02*
X0011669Y0056959D01*
X0009089Y0056959D02*
X0009089Y0056959D01*
X0009089Y0057757D02*
X0009089Y0057757D01*
X0013986Y0061033D02*
X0013986Y0061033D01*
X0014703Y0061750D02*
X0015639Y0061750D01*
X0015639Y0062548D02*
X0015502Y0062548D01*
X0013986Y0063861D02*
X0013986Y0074661D01*
X0014786Y0075461D01*
X0020214Y0080914D02*
X0039410Y0080914D01*
X0035186Y0071332D02*
X0029744Y0071332D01*
X0030543Y0070533D02*
X0035186Y0070533D01*
X0035186Y0069735D02*
X0031341Y0069735D01*
X0032140Y0068936D02*
X0035186Y0068936D01*
X0035186Y0068138D02*
X0032938Y0068138D01*
X0033586Y0067339D02*
X0035186Y0067339D01*
X0035186Y0066541D02*
X0033586Y0066541D01*
X0033586Y0065742D02*
X0035186Y0065742D01*
X0035186Y0064944D02*
X0033586Y0064944D01*
X0034028Y0064145D02*
X0035186Y0064145D01*
X0035186Y0063347D02*
X0034517Y0063347D01*
X0034786Y0062548D02*
X0035186Y0062548D01*
X0035186Y0061750D02*
X0034786Y0061750D01*
X0034590Y0060951D02*
X0035668Y0060951D01*
X0036358Y0060261D02*
X0036358Y0060261D01*
X0036467Y0060153D02*
X0034203Y0060153D01*
X0033405Y0059354D02*
X0037265Y0059354D01*
X0037438Y0058556D02*
X0030709Y0058556D01*
X0030208Y0057757D02*
X0037208Y0057757D01*
X0036594Y0056959D02*
X0029140Y0056959D01*
X0028986Y0056160D02*
X0036264Y0056160D01*
X0036238Y0055362D02*
X0028986Y0055362D01*
X0028712Y0054563D02*
X0036346Y0054563D01*
X0036677Y0053764D02*
X0028215Y0053764D01*
X0027158Y0052966D02*
X0037408Y0052966D01*
X0027786Y0059861D02*
X0025786Y0061861D01*
X0019483Y0061861D01*
X0019483Y0060286D02*
X0023361Y0060286D01*
X0025786Y0057861D01*
X0025786Y0055861D01*
X0023062Y0057757D02*
X0023020Y0057757D01*
X0026361Y0063436D02*
X0019483Y0063436D01*
X0019483Y0065011D02*
X0021936Y0065011D01*
X0023786Y0066861D01*
X0026361Y0063436D02*
X0027786Y0064861D01*
X0031586Y0066661D02*
X0031586Y0062061D01*
X0031586Y0066661D02*
X0028186Y0070061D01*
X0022586Y0070061D01*
X0007797Y0034600D02*
X0076522Y0034600D01*
X0075928Y0035399D02*
X0075849Y0035399D01*
X0077811Y0033802D02*
X0008064Y0033802D01*
X0073786Y0037861D02*
X0076211Y0040286D01*
X0084089Y0040286D01*
X0084089Y0038712D02*
X0080637Y0038712D01*
X0078786Y0036861D01*
X0073786Y0041861D02*
X0084089Y0041861D01*
X0084089Y0043436D02*
X0077211Y0043436D01*
X0074786Y0045861D01*
D12*
X0074786Y0045861D03*
X0073786Y0041861D03*
X0068786Y0041861D03*
X0073786Y0037861D03*
X0078786Y0036861D03*
X0086386Y0030661D03*
X0091586Y0030661D03*
X0073786Y0028861D03*
X0073786Y0017861D03*
X0055786Y0020361D03*
X0041786Y0026361D03*
X0039386Y0038461D03*
X0029286Y0041861D03*
X0025786Y0055861D03*
X0027786Y0059861D03*
X0031586Y0062061D03*
X0027786Y0064861D03*
X0023786Y0066861D03*
X0014786Y0075461D03*
X0017186Y0079861D03*
X0041386Y0069461D03*
X0054786Y0060861D03*
X0068786Y0060861D03*
X0078586Y0071661D03*
X0090986Y0056061D03*
X0094786Y0053461D03*
X0097786Y0049861D03*
X0078786Y0047861D03*
X0054786Y0041861D03*
X0039438Y0055461D03*
X0012286Y0047861D03*
X0013286Y0028861D03*
X0032786Y0013861D03*
M02*
