%
M48
M72
T01C0.0160
%
T01
X3279Y1386
X4179Y2636
X3939Y3846
X2929Y4186
X2579Y5586
X2779Y5986
X3159Y6206
X2779Y6486
X2379Y6686
X1479Y7546
X1719Y7986
X4139Y6946
X5479Y6086
X6879Y6086
X7859Y7166
X9099Y5606
X9479Y5346
X9779Y4986
X7879Y4786
X7479Y4586
X7379Y4186
X6879Y4186
X7379Y3786
X7879Y3686
X8639Y3066
X9159Y3066
X7379Y2886
X7379Y1786
X5579Y2036
X5479Y4186
X3944Y5546
X1229Y4786
X1329Y2886
M30
