%
M48
M72
T01C0.0160
%
T01
X1695Y2840
X3295Y4140
X4305Y3800
X4545Y2590
X5945Y1990
X7745Y1740
X7745Y2840
X8245Y3640
X7745Y3740
X7745Y4140
X7245Y4140
X7845Y4540
X8245Y4740
X9465Y5560
X9845Y5300
X10145Y4940
X9525Y3020
X9005Y3020
X5845Y4140
X4310Y5500
X3525Y6160
X3145Y5940
X2945Y5540
X3145Y6440
X2745Y6640
X1845Y7500
X2085Y7940
X4505Y6900
X5845Y6040
X7245Y6040
X8225Y7120
X1595Y4740
X3645Y1340
M30
