G75*
%MOIN*%
%OFA0B0*%
%FSLAX25Y25*%
%IPPOS*%
%LPD*%
%AMOC8*
5,1,8,0,0,1.08239X$1,22.5*
%
%ADD10R,0.05088X0.01387*%
%ADD11C,0.03800*%
D10*
X0012753Y0058250D03*
X0012753Y0059825D03*
X0012753Y0061400D03*
X0012753Y0062975D03*
X0012753Y0064550D03*
X0023147Y0064550D03*
X0023147Y0062975D03*
X0023147Y0061400D03*
X0023147Y0059825D03*
X0023147Y0058250D03*
X0087753Y0044550D03*
X0087753Y0042975D03*
X0087753Y0041400D03*
X0087753Y0039825D03*
X0087753Y0038250D03*
X0098147Y0038250D03*
X0098147Y0039825D03*
X0098147Y0041400D03*
X0098147Y0042975D03*
X0098147Y0044550D03*
D11*
X0016950Y0028400D03*
X0032950Y0041400D03*
X0043050Y0038000D03*
X0045450Y0025900D03*
X0059450Y0019900D03*
X0077450Y0017400D03*
X0077450Y0028400D03*
X0082450Y0036400D03*
X0077450Y0037400D03*
X0077450Y0041400D03*
X0072450Y0041400D03*
X0078450Y0045400D03*
X0082450Y0047400D03*
X0094650Y0055600D03*
X0098450Y0053000D03*
X0101450Y0049400D03*
X0095250Y0030200D03*
X0090050Y0030200D03*
X0058450Y0041400D03*
X0043102Y0055000D03*
X0035250Y0061600D03*
X0031450Y0059400D03*
X0029450Y0055400D03*
X0031450Y0064400D03*
X0027450Y0066400D03*
X0018450Y0075000D03*
X0020850Y0079400D03*
X0045050Y0069000D03*
X0058450Y0060400D03*
X0072450Y0060400D03*
X0082250Y0071200D03*
X0015950Y0047400D03*
X0036450Y0013400D03*
M02*
