G75*
%MOIN*%
%OFA0B0*%
%FSLAX25Y25*%
%IPPOS*%
%LPD*%
%AMOC8*
5,1,8,0,0,1.08239X$1,22.5*
%
%ADD10R,0.03198X0.01506*%
%ADD11R,0.03198X0.01781*%
%ADD12R,0.02962X0.02175*%
%ADD13R,0.06506X0.10049*%
%ADD14R,0.05718X0.02175*%
%ADD15R,0.02569X0.01978*%
%ADD16R,0.01978X0.02569*%
%ADD17R,0.04537X0.03356*%
%ADD18R,0.02750X0.02710*%
%ADD19C,0.03800*%
D10*
X0008565Y0058250D03*
X0008565Y0059825D03*
X0008565Y0061400D03*
X0008565Y0062975D03*
X0008565Y0064550D03*
X0019235Y0064550D03*
X0019235Y0062975D03*
X0019235Y0061400D03*
X0019235Y0059825D03*
X0019235Y0058250D03*
X0083565Y0044550D03*
X0083565Y0042975D03*
X0083565Y0041400D03*
X0083565Y0039825D03*
X0083565Y0038250D03*
X0094235Y0038250D03*
X0094235Y0039825D03*
X0094235Y0041400D03*
X0094235Y0042975D03*
X0094235Y0044550D03*
D11*
X0094235Y0046321D03*
X0083565Y0046321D03*
X0083565Y0036479D03*
X0094235Y0036479D03*
X0019235Y0056479D03*
X0008565Y0056479D03*
X0008565Y0066321D03*
X0019235Y0066321D03*
D12*
X0024485Y0034337D03*
X0024485Y0030400D03*
X0024485Y0026463D03*
X0035115Y0026463D03*
X0035115Y0030400D03*
X0035115Y0034337D03*
D13*
X0029800Y0030400D03*
D14*
X0063770Y0068221D03*
X0063770Y0070780D03*
X0063770Y0073339D03*
X0070070Y0073339D03*
X0070070Y0070780D03*
X0070070Y0068221D03*
D15*
X0045351Y0069080D03*
X0045351Y0067111D03*
X0045351Y0065143D03*
X0045351Y0071048D03*
X0045351Y0073017D03*
X0036689Y0073017D03*
X0036689Y0071048D03*
X0036689Y0069080D03*
X0036689Y0067111D03*
X0036689Y0065143D03*
D16*
X0039052Y0064749D03*
X0041020Y0064749D03*
X0042989Y0064749D03*
X0042989Y0073411D03*
X0041020Y0073411D03*
X0039052Y0073411D03*
D17*
X0028920Y0072661D03*
X0028920Y0077779D03*
D18*
X0019600Y0026895D03*
X0019600Y0030305D03*
X0057600Y0071035D03*
X0057600Y0074445D03*
X0082580Y0067225D03*
X0082580Y0063815D03*
X0087000Y0063875D03*
X0087000Y0067285D03*
X0023600Y0074215D03*
X0023600Y0077625D03*
D19*
X0016800Y0079400D03*
X0014400Y0075000D03*
X0023400Y0066400D03*
X0027400Y0064400D03*
X0031200Y0061600D03*
X0027400Y0059400D03*
X0025400Y0055400D03*
X0039052Y0055000D03*
X0054400Y0060400D03*
X0041000Y0069000D03*
X0068400Y0060400D03*
X0078200Y0071200D03*
X0090600Y0055600D03*
X0094400Y0053000D03*
X0097400Y0049400D03*
X0078400Y0047400D03*
X0074400Y0045400D03*
X0073400Y0041400D03*
X0073400Y0037400D03*
X0078400Y0036400D03*
X0086000Y0030200D03*
X0091200Y0030200D03*
X0073400Y0028400D03*
X0073400Y0017400D03*
X0055400Y0019900D03*
X0041400Y0025900D03*
X0039000Y0038000D03*
X0028900Y0041400D03*
X0012900Y0028400D03*
X0032400Y0013400D03*
X0054400Y0041400D03*
X0068400Y0041400D03*
X0011900Y0047400D03*
M02*
