G75*
%MOIN*%
%OFA0B0*%
%FSLAX25Y25*%
%IPPOS*%
%LPD*%
%AMOC8*
5,1,8,0,0,1.08239X$1,22.5*
%
%ADD10R,0.04488X0.00787*%
%ADD11C,0.00800*%
%ADD12C,0.03200*%
D10*
X0012753Y0058250D03*
X0012753Y0059825D03*
X0012753Y0061400D03*
X0012753Y0062975D03*
X0012753Y0064550D03*
X0023147Y0064550D03*
X0023147Y0062975D03*
X0023147Y0061400D03*
X0023147Y0059825D03*
X0023147Y0058250D03*
X0087753Y0044550D03*
X0087753Y0042975D03*
X0087753Y0041400D03*
X0087753Y0039825D03*
X0087753Y0038250D03*
X0098147Y0038250D03*
X0098147Y0039825D03*
X0098147Y0041400D03*
X0098147Y0042975D03*
X0098147Y0044550D03*
D11*
X0089024Y0018169D02*
X0021876Y0018169D01*
X0022743Y0017370D02*
X0088157Y0017370D01*
X0087289Y0016572D02*
X0023611Y0016572D01*
X0024478Y0015773D02*
X0086422Y0015773D01*
X0085555Y0014975D02*
X0025345Y0014975D01*
X0026213Y0014176D02*
X0084687Y0014176D01*
X0084533Y0014034D02*
X0077986Y0009757D01*
X0070825Y0006616D01*
X0063244Y0004696D01*
X0055450Y0004050D01*
X0047656Y0004696D01*
X0040075Y0006616D01*
X0032914Y0009757D01*
X0026367Y0014034D01*
X0020613Y0019331D01*
X0015810Y0025502D01*
X0012088Y0032380D01*
X0009549Y0039776D01*
X0008262Y0047490D01*
X0008100Y0051400D01*
X0008100Y0051400D01*
X0008218Y0054748D01*
X0008909Y0059600D01*
X0008909Y0058769D01*
X0009109Y0058569D01*
X0009109Y0058250D01*
X0009109Y0057672D01*
X0009204Y0057316D01*
X0009389Y0056997D01*
X0009649Y0056736D01*
X0009969Y0056552D01*
X0010325Y0056457D01*
X0012753Y0056457D01*
X0012753Y0057825D01*
X0012753Y0057825D01*
X0012753Y0056457D01*
X0015182Y0056457D01*
X0015538Y0056552D01*
X0015857Y0056736D01*
X0016118Y0056997D01*
X0016302Y0057316D01*
X0016397Y0057672D01*
X0016397Y0058250D01*
X0016079Y0058250D01*
X0016079Y0058250D01*
X0016397Y0058250D01*
X0016397Y0058569D01*
X0016597Y0058769D01*
X0016597Y0059519D01*
X0017650Y0060572D01*
X0019303Y0062224D01*
X0019303Y0060882D01*
X0019303Y0058769D01*
X0019503Y0058569D01*
X0019503Y0058250D01*
X0019503Y0057672D01*
X0019598Y0057316D01*
X0019782Y0056997D01*
X0020043Y0056736D01*
X0020362Y0056552D01*
X0020718Y0056457D01*
X0023147Y0056457D01*
X0025575Y0056457D01*
X0025931Y0056552D01*
X0026251Y0056736D01*
X0026511Y0056997D01*
X0026696Y0057316D01*
X0026698Y0057324D01*
X0026773Y0057249D01*
X0026737Y0057213D01*
X0026250Y0056037D01*
X0026250Y0054763D01*
X0026737Y0053587D01*
X0027637Y0052687D01*
X0028813Y0052200D01*
X0030087Y0052200D01*
X0031263Y0052687D01*
X0032163Y0053587D01*
X0032650Y0054763D01*
X0032650Y0056037D01*
X0032510Y0056375D01*
X0033263Y0056687D01*
X0034163Y0057587D01*
X0034516Y0058440D01*
X0034613Y0058400D01*
X0035887Y0058400D01*
X0037063Y0058887D01*
X0037963Y0059787D01*
X0038450Y0060963D01*
X0038450Y0062237D01*
X0037963Y0063413D01*
X0037250Y0064125D01*
X0037250Y0067028D01*
X0033850Y0070428D01*
X0033850Y0070428D01*
X0032678Y0071600D01*
X0027078Y0071600D01*
X0026850Y0071828D01*
X0026850Y0076228D01*
X0025678Y0077400D01*
X0024050Y0079028D01*
X0024050Y0080037D01*
X0023563Y0081213D01*
X0023525Y0081250D01*
X0043872Y0081250D01*
X0042850Y0080228D01*
X0038850Y0076228D01*
X0038850Y0060972D01*
X0040022Y0059800D01*
X0041102Y0058720D01*
X0041102Y0057525D01*
X0040389Y0056813D01*
X0039902Y0055637D01*
X0039902Y0054363D01*
X0040389Y0053187D01*
X0041102Y0052475D01*
X0041102Y0040577D01*
X0040337Y0039813D01*
X0039850Y0038637D01*
X0039850Y0037363D01*
X0040337Y0036187D01*
X0041237Y0035287D01*
X0042413Y0034800D01*
X0043687Y0034800D01*
X0044863Y0035287D01*
X0045763Y0036187D01*
X0046250Y0037363D01*
X0046250Y0038637D01*
X0045763Y0039813D01*
X0045102Y0040474D01*
X0045102Y0052475D01*
X0045814Y0053187D01*
X0046302Y0054363D01*
X0046302Y0055637D01*
X0045814Y0056813D01*
X0045102Y0057525D01*
X0045102Y0060377D01*
X0043930Y0061548D01*
X0042850Y0062628D01*
X0042850Y0074572D01*
X0045678Y0077400D01*
X0073222Y0077400D01*
X0079050Y0071572D01*
X0079050Y0070563D01*
X0079537Y0069387D01*
X0080437Y0068487D01*
X0080450Y0068482D01*
X0080450Y0049925D01*
X0079737Y0049213D01*
X0079425Y0048460D01*
X0079087Y0048600D01*
X0077813Y0048600D01*
X0076637Y0048113D01*
X0075737Y0047213D01*
X0075250Y0046037D01*
X0075250Y0044763D01*
X0075554Y0044030D01*
X0074737Y0043213D01*
X0074250Y0042037D01*
X0074250Y0040763D01*
X0074737Y0039587D01*
X0074925Y0039400D01*
X0074737Y0039213D01*
X0074250Y0038037D01*
X0074250Y0036763D01*
X0074737Y0035587D01*
X0075637Y0034687D01*
X0076813Y0034200D01*
X0078087Y0034200D01*
X0079263Y0034687D01*
X0079569Y0034993D01*
X0079737Y0034587D01*
X0080637Y0033687D01*
X0081813Y0033200D01*
X0083087Y0033200D01*
X0084263Y0033687D01*
X0085163Y0034587D01*
X0085650Y0035763D01*
X0085650Y0036250D01*
X0088582Y0036250D01*
X0088588Y0036257D01*
X0090660Y0036257D01*
X0091050Y0036647D01*
X0091050Y0034191D01*
X0090309Y0033400D01*
X0089413Y0033400D01*
X0088237Y0032913D01*
X0087337Y0032013D01*
X0086850Y0030837D01*
X0086850Y0029563D01*
X0087337Y0028387D01*
X0088237Y0027487D01*
X0089413Y0027000D01*
X0090687Y0027000D01*
X0091863Y0027487D01*
X0092650Y0028275D01*
X0093437Y0027487D01*
X0094613Y0027000D01*
X0095887Y0027000D01*
X0095905Y0027007D01*
X0095090Y0025502D01*
X0090287Y0019331D01*
X0084533Y0014034D01*
X0083528Y0013378D02*
X0027372Y0013378D01*
X0028594Y0012579D02*
X0082306Y0012579D01*
X0081084Y0011781D02*
X0029816Y0011781D01*
X0031039Y0010982D02*
X0079861Y0010982D01*
X0078639Y0010184D02*
X0032261Y0010184D01*
X0033761Y0009385D02*
X0077139Y0009385D01*
X0075318Y0008587D02*
X0035582Y0008587D01*
X0037402Y0007788D02*
X0073498Y0007788D01*
X0071677Y0006990D02*
X0039223Y0006990D01*
X0041752Y0006191D02*
X0069148Y0006191D01*
X0065995Y0005393D02*
X0044905Y0005393D01*
X0048884Y0004594D02*
X0062016Y0004594D01*
X0087974Y0027751D02*
X0014593Y0027751D01*
X0014161Y0028549D02*
X0087270Y0028549D01*
X0086939Y0029348D02*
X0013729Y0029348D01*
X0013297Y0030146D02*
X0086850Y0030146D01*
X0086895Y0030945D02*
X0012865Y0030945D01*
X0012432Y0031743D02*
X0087226Y0031743D01*
X0087866Y0032542D02*
X0012032Y0032542D01*
X0011758Y0033340D02*
X0081474Y0033340D01*
X0080186Y0034139D02*
X0011484Y0034139D01*
X0011210Y0034937D02*
X0042082Y0034937D01*
X0040789Y0035736D02*
X0010936Y0035736D01*
X0010662Y0036534D02*
X0040193Y0036534D01*
X0039863Y0037333D02*
X0010388Y0037333D01*
X0010114Y0038132D02*
X0039850Y0038132D01*
X0039972Y0038930D02*
X0035006Y0038930D01*
X0034763Y0038687D02*
X0033587Y0038200D01*
X0032313Y0038200D01*
X0031137Y0038687D01*
X0030237Y0039587D01*
X0029750Y0040763D01*
X0029750Y0042037D01*
X0030237Y0043213D01*
X0031137Y0044113D01*
X0032313Y0044600D01*
X0033587Y0044600D01*
X0034763Y0044113D01*
X0035663Y0043213D01*
X0036150Y0042037D01*
X0036150Y0040763D01*
X0035663Y0039587D01*
X0034763Y0038687D01*
X0035721Y0039729D02*
X0040302Y0039729D01*
X0041052Y0040527D02*
X0036052Y0040527D01*
X0036150Y0041326D02*
X0041102Y0041326D01*
X0041102Y0042124D02*
X0036114Y0042124D01*
X0035783Y0042923D02*
X0041102Y0042923D01*
X0041102Y0043721D02*
X0035154Y0043721D01*
X0033781Y0044520D02*
X0041102Y0044520D01*
X0041102Y0045318D02*
X0008624Y0045318D01*
X0008757Y0044520D02*
X0032119Y0044520D01*
X0030746Y0043721D02*
X0008891Y0043721D01*
X0009024Y0042923D02*
X0030117Y0042923D01*
X0029786Y0042124D02*
X0009157Y0042124D01*
X0009290Y0041326D02*
X0029750Y0041326D01*
X0029848Y0040527D02*
X0009424Y0040527D01*
X0009565Y0039729D02*
X0030179Y0039729D01*
X0030894Y0038930D02*
X0009839Y0038930D01*
X0008491Y0046117D02*
X0041102Y0046117D01*
X0041102Y0046915D02*
X0008358Y0046915D01*
X0008252Y0047714D02*
X0041102Y0047714D01*
X0041102Y0048512D02*
X0008219Y0048512D01*
X0008186Y0049311D02*
X0041102Y0049311D01*
X0041102Y0050109D02*
X0008153Y0050109D01*
X0008120Y0050908D02*
X0041102Y0050908D01*
X0041102Y0051706D02*
X0008111Y0051706D01*
X0008139Y0052505D02*
X0028078Y0052505D01*
X0027021Y0053303D02*
X0008167Y0053303D01*
X0008195Y0054102D02*
X0026524Y0054102D01*
X0026450Y0054900D02*
X0018950Y0047400D01*
X0015950Y0047400D01*
X0009450Y0053900D01*
X0009450Y0056900D01*
X0010800Y0058250D01*
X0012753Y0058250D01*
X0012753Y0057296D02*
X0012753Y0057296D01*
X0012753Y0056497D02*
X0012753Y0056497D01*
X0010173Y0056497D02*
X0008467Y0056497D01*
X0008354Y0055699D02*
X0026250Y0055699D01*
X0026250Y0054900D02*
X0008240Y0054900D01*
X0008581Y0057296D02*
X0009216Y0057296D01*
X0009109Y0058094D02*
X0008695Y0058094D01*
X0009109Y0058250D02*
X0009427Y0058250D01*
X0009427Y0058250D01*
X0009109Y0058250D01*
X0008909Y0058893D02*
X0008808Y0058893D01*
X0012753Y0059825D02*
X0014075Y0059825D01*
X0015650Y0061400D01*
X0012753Y0061400D01*
X0012753Y0062975D02*
X0013625Y0062975D01*
X0015200Y0064550D01*
X0015650Y0065000D01*
X0015650Y0076800D01*
X0018250Y0079400D01*
X0020850Y0079400D01*
X0024850Y0075400D01*
X0024850Y0071000D01*
X0026250Y0069600D01*
X0031850Y0069600D01*
X0035250Y0066200D01*
X0035250Y0061600D01*
X0037692Y0063684D02*
X0038850Y0063684D01*
X0038850Y0064482D02*
X0037250Y0064482D01*
X0037250Y0065281D02*
X0038850Y0065281D01*
X0038850Y0066079D02*
X0037250Y0066079D01*
X0037250Y0066878D02*
X0038850Y0066878D01*
X0038850Y0067676D02*
X0036602Y0067676D01*
X0035803Y0068475D02*
X0038850Y0068475D01*
X0038850Y0069273D02*
X0035005Y0069273D01*
X0034206Y0070072D02*
X0038850Y0070072D01*
X0038850Y0070870D02*
X0033408Y0070870D01*
X0038850Y0071669D02*
X0027009Y0071669D01*
X0026850Y0072468D02*
X0038850Y0072468D01*
X0038850Y0073266D02*
X0026850Y0073266D01*
X0026850Y0074065D02*
X0038850Y0074065D01*
X0038850Y0074863D02*
X0026850Y0074863D01*
X0026850Y0075662D02*
X0038850Y0075662D01*
X0039082Y0076460D02*
X0026618Y0076460D01*
X0025820Y0077259D02*
X0039880Y0077259D01*
X0040679Y0078057D02*
X0025021Y0078057D01*
X0024223Y0078856D02*
X0041477Y0078856D01*
X0042276Y0079654D02*
X0024050Y0079654D01*
X0023878Y0080453D02*
X0043074Y0080453D01*
X0044850Y0079400D02*
X0074050Y0079400D01*
X0082250Y0071200D01*
X0082450Y0071000D01*
X0082450Y0047400D01*
X0085300Y0044550D01*
X0087753Y0044550D01*
X0087753Y0042975D02*
X0080875Y0042975D01*
X0078450Y0045400D01*
X0076238Y0047714D02*
X0045102Y0047714D01*
X0045102Y0048512D02*
X0077601Y0048512D01*
X0075614Y0046915D02*
X0045102Y0046915D01*
X0045102Y0046117D02*
X0075283Y0046117D01*
X0075250Y0045318D02*
X0045102Y0045318D01*
X0045102Y0044520D02*
X0075351Y0044520D01*
X0075246Y0043721D02*
X0045102Y0043721D01*
X0045102Y0042923D02*
X0074617Y0042923D01*
X0074286Y0042124D02*
X0045102Y0042124D01*
X0045102Y0041326D02*
X0074250Y0041326D01*
X0074348Y0040527D02*
X0045102Y0040527D01*
X0045798Y0039729D02*
X0074679Y0039729D01*
X0074620Y0038930D02*
X0046128Y0038930D01*
X0046250Y0038132D02*
X0074289Y0038132D01*
X0074250Y0037333D02*
X0046237Y0037333D01*
X0045907Y0036534D02*
X0074345Y0036534D01*
X0074676Y0035736D02*
X0045311Y0035736D01*
X0044018Y0034937D02*
X0075387Y0034937D01*
X0077450Y0037400D02*
X0079875Y0039825D01*
X0087753Y0039825D01*
X0087753Y0041400D02*
X0077450Y0041400D01*
X0082450Y0036400D02*
X0084300Y0038250D01*
X0087753Y0038250D01*
X0085639Y0035736D02*
X0091050Y0035736D01*
X0091050Y0036534D02*
X0090938Y0036534D01*
X0091050Y0034937D02*
X0085308Y0034937D01*
X0084714Y0034139D02*
X0091001Y0034139D01*
X0093050Y0033400D02*
X0090050Y0030200D01*
X0092126Y0027751D02*
X0093174Y0027751D01*
X0095443Y0026154D02*
X0015457Y0026154D01*
X0015025Y0026952D02*
X0095875Y0026952D01*
X0094976Y0025355D02*
X0015924Y0025355D01*
X0016546Y0024557D02*
X0094354Y0024557D01*
X0093733Y0023758D02*
X0017167Y0023758D01*
X0017789Y0022960D02*
X0093111Y0022960D01*
X0092490Y0022161D02*
X0018410Y0022161D01*
X0019032Y0021363D02*
X0091868Y0021363D01*
X0091247Y0020564D02*
X0019653Y0020564D01*
X0020275Y0019766D02*
X0090625Y0019766D01*
X0089892Y0018967D02*
X0021008Y0018967D01*
X0043050Y0038000D02*
X0043102Y0038052D01*
X0043102Y0054600D01*
X0043102Y0055000D01*
X0043102Y0059548D01*
X0040850Y0061800D01*
X0040850Y0075400D01*
X0044850Y0079400D01*
X0045537Y0077259D02*
X0073363Y0077259D01*
X0074162Y0076460D02*
X0044738Y0076460D01*
X0043940Y0075662D02*
X0074960Y0075662D01*
X0075759Y0074863D02*
X0043141Y0074863D01*
X0042850Y0074065D02*
X0076557Y0074065D01*
X0077356Y0073266D02*
X0042850Y0073266D01*
X0042850Y0072468D02*
X0078154Y0072468D01*
X0078953Y0071669D02*
X0042850Y0071669D01*
X0042850Y0070870D02*
X0079050Y0070870D01*
X0079254Y0070072D02*
X0042850Y0070072D01*
X0042850Y0069273D02*
X0079651Y0069273D01*
X0080450Y0068475D02*
X0042850Y0068475D01*
X0042850Y0067676D02*
X0080450Y0067676D01*
X0080450Y0066878D02*
X0042850Y0066878D01*
X0042850Y0066079D02*
X0080450Y0066079D01*
X0080450Y0065281D02*
X0042850Y0065281D01*
X0042850Y0064482D02*
X0080450Y0064482D01*
X0080450Y0063684D02*
X0042850Y0063684D01*
X0042850Y0062885D02*
X0080450Y0062885D01*
X0080450Y0062087D02*
X0043392Y0062087D01*
X0043930Y0061548D02*
X0043930Y0061548D01*
X0044190Y0061288D02*
X0080450Y0061288D01*
X0080450Y0060490D02*
X0044989Y0060490D01*
X0045102Y0059691D02*
X0080450Y0059691D01*
X0080450Y0058893D02*
X0045102Y0058893D01*
X0045102Y0058094D02*
X0080450Y0058094D01*
X0080450Y0057296D02*
X0045331Y0057296D01*
X0045945Y0056497D02*
X0080450Y0056497D01*
X0080450Y0055699D02*
X0046276Y0055699D01*
X0046302Y0054900D02*
X0080450Y0054900D01*
X0080450Y0054102D02*
X0046193Y0054102D01*
X0045862Y0053303D02*
X0080450Y0053303D01*
X0080450Y0052505D02*
X0045132Y0052505D01*
X0045102Y0051706D02*
X0080450Y0051706D01*
X0080450Y0050908D02*
X0045102Y0050908D01*
X0045102Y0050109D02*
X0080450Y0050109D01*
X0079835Y0049311D02*
X0045102Y0049311D01*
X0041071Y0052505D02*
X0030822Y0052505D01*
X0031879Y0053303D02*
X0040341Y0053303D01*
X0040010Y0054102D02*
X0032376Y0054102D01*
X0032650Y0054900D02*
X0039902Y0054900D01*
X0039927Y0055699D02*
X0032650Y0055699D01*
X0032804Y0056497D02*
X0040258Y0056497D01*
X0040872Y0057296D02*
X0033871Y0057296D01*
X0034373Y0058094D02*
X0041102Y0058094D01*
X0040929Y0058893D02*
X0037068Y0058893D01*
X0037867Y0059691D02*
X0040130Y0059691D01*
X0039332Y0060490D02*
X0038254Y0060490D01*
X0038450Y0061288D02*
X0038850Y0061288D01*
X0038850Y0062087D02*
X0038450Y0062087D01*
X0038181Y0062885D02*
X0038850Y0062885D01*
X0031450Y0064400D02*
X0030025Y0062975D01*
X0023147Y0062975D01*
X0023147Y0061400D02*
X0029450Y0061400D01*
X0031450Y0059400D01*
X0029450Y0057400D02*
X0029450Y0055400D01*
X0029450Y0057400D02*
X0027025Y0059825D01*
X0023147Y0059825D01*
X0023147Y0058250D02*
X0025100Y0058250D01*
X0026450Y0056900D01*
X0026450Y0054900D01*
X0026441Y0056497D02*
X0025727Y0056497D01*
X0026684Y0057296D02*
X0026726Y0057296D01*
X0023147Y0057296D02*
X0023147Y0057296D01*
X0023147Y0057825D02*
X0023147Y0056457D01*
X0023147Y0057825D01*
X0023147Y0057825D01*
X0023147Y0056497D02*
X0023147Y0056497D01*
X0020567Y0056497D02*
X0015333Y0056497D01*
X0016290Y0057296D02*
X0019610Y0057296D01*
X0019503Y0058094D02*
X0016397Y0058094D01*
X0016597Y0058893D02*
X0019303Y0058893D01*
X0019503Y0058250D02*
X0019821Y0058250D01*
X0019503Y0058250D01*
X0019821Y0058250D02*
X0019821Y0058250D01*
X0019303Y0059691D02*
X0016770Y0059691D01*
X0017568Y0060490D02*
X0019303Y0060490D01*
X0019303Y0061288D02*
X0018367Y0061288D01*
X0017650Y0060572D02*
X0017650Y0060572D01*
X0015650Y0061400D02*
X0017650Y0063400D01*
X0017650Y0074200D01*
X0018450Y0075000D01*
X0027450Y0066400D02*
X0025600Y0064550D01*
X0023147Y0064550D01*
X0019303Y0062087D02*
X0019165Y0062087D01*
X0015200Y0064550D02*
X0012753Y0064550D01*
X0079299Y0048512D02*
X0079447Y0048512D01*
X0093050Y0038600D02*
X0093050Y0033400D01*
X0089270Y0033340D02*
X0083426Y0033340D01*
X0079592Y0034937D02*
X0079513Y0034937D01*
X0093050Y0038600D02*
X0094275Y0039825D01*
X0098147Y0039825D01*
X0098147Y0041400D02*
X0095050Y0041400D01*
X0093250Y0043200D01*
X0093250Y0054200D01*
X0094650Y0055600D01*
X0098450Y0053000D02*
X0094850Y0049400D01*
X0094850Y0043600D01*
X0095475Y0042975D01*
X0098147Y0042975D01*
X0098147Y0044550D02*
X0100600Y0044550D01*
X0102050Y0046000D01*
X0102050Y0048800D01*
X0101450Y0049400D01*
X0098147Y0038250D02*
X0095900Y0038250D01*
X0095250Y0037600D01*
X0095250Y0030200D01*
D12*
X0095250Y0030200D03*
X0090050Y0030200D03*
X0082450Y0036400D03*
X0077450Y0037400D03*
X0077450Y0041400D03*
X0072450Y0041400D03*
X0078450Y0045400D03*
X0082450Y0047400D03*
X0094650Y0055600D03*
X0098450Y0053000D03*
X0101450Y0049400D03*
X0077450Y0028400D03*
X0077450Y0017400D03*
X0059450Y0019900D03*
X0045450Y0025900D03*
X0043050Y0038000D03*
X0032950Y0041400D03*
X0016950Y0028400D03*
X0036450Y0013400D03*
X0058450Y0041400D03*
X0043102Y0055000D03*
X0035250Y0061600D03*
X0031450Y0059400D03*
X0029450Y0055400D03*
X0031450Y0064400D03*
X0027450Y0066400D03*
X0018450Y0075000D03*
X0020850Y0079400D03*
X0045050Y0069000D03*
X0058450Y0060400D03*
X0072450Y0060400D03*
X0082250Y0071200D03*
X0015950Y0047400D03*
M02*
