G75*
%MOIN*%
%OFA0B0*%
%FSLAX25Y25*%
%IPPOS*%
%LPD*%
%AMOC8*
5,1,8,0,0,1.08239X$1,22.5*
%
%ADD10R,0.03198X0.01506*%
%ADD11R,0.03198X0.01781*%
%ADD12R,0.02962X0.02175*%
%ADD13R,0.06506X0.10049*%
%ADD14R,0.05718X0.02175*%
%ADD15R,0.02569X0.01978*%
%ADD16R,0.01978X0.02569*%
%ADD17R,0.04537X0.03356*%
%ADD18R,0.02750X0.02710*%
%ADD19C,0.03800*%
D10*
X0012615Y0058250D03*
X0012615Y0059825D03*
X0012615Y0061400D03*
X0012615Y0062975D03*
X0012615Y0064550D03*
X0023285Y0064550D03*
X0023285Y0062975D03*
X0023285Y0061400D03*
X0023285Y0059825D03*
X0023285Y0058250D03*
X0087615Y0044550D03*
X0087615Y0042975D03*
X0087615Y0041400D03*
X0087615Y0039825D03*
X0087615Y0038250D03*
X0098285Y0038250D03*
X0098285Y0039825D03*
X0098285Y0041400D03*
X0098285Y0042975D03*
X0098285Y0044550D03*
D11*
X0098285Y0046321D03*
X0087615Y0046321D03*
X0087615Y0036479D03*
X0098285Y0036479D03*
X0023285Y0056479D03*
X0012615Y0056479D03*
X0012615Y0066321D03*
X0023285Y0066321D03*
D12*
X0028535Y0034337D03*
X0028535Y0030400D03*
X0028535Y0026463D03*
X0039165Y0026463D03*
X0039165Y0030400D03*
X0039165Y0034337D03*
D13*
X0033850Y0030400D03*
D14*
X0067820Y0068221D03*
X0067820Y0070780D03*
X0067820Y0073339D03*
X0074120Y0073339D03*
X0074120Y0070780D03*
X0074120Y0068221D03*
D15*
X0049401Y0069080D03*
X0049401Y0067111D03*
X0049401Y0065143D03*
X0049401Y0071048D03*
X0049401Y0073017D03*
X0040739Y0073017D03*
X0040739Y0071048D03*
X0040739Y0069080D03*
X0040739Y0067111D03*
X0040739Y0065143D03*
D16*
X0043102Y0064749D03*
X0045070Y0064749D03*
X0047039Y0064749D03*
X0047039Y0073411D03*
X0045070Y0073411D03*
X0043102Y0073411D03*
D17*
X0032970Y0072661D03*
X0032970Y0077779D03*
D18*
X0023650Y0026895D03*
X0023650Y0030305D03*
X0061650Y0071035D03*
X0061650Y0074445D03*
X0086630Y0067225D03*
X0086630Y0063815D03*
X0091050Y0063875D03*
X0091050Y0067285D03*
X0027650Y0074215D03*
X0027650Y0077625D03*
D19*
X0020850Y0079400D03*
X0018450Y0075000D03*
X0027450Y0066400D03*
X0031450Y0064400D03*
X0035250Y0061600D03*
X0031450Y0059400D03*
X0029450Y0055400D03*
X0043102Y0055000D03*
X0058450Y0060400D03*
X0045050Y0069000D03*
X0072450Y0060400D03*
X0082250Y0071200D03*
X0094650Y0055600D03*
X0098450Y0053000D03*
X0101450Y0049400D03*
X0082450Y0047400D03*
X0078450Y0045400D03*
X0077450Y0041400D03*
X0077450Y0037400D03*
X0072450Y0041400D03*
X0082450Y0036400D03*
X0090050Y0030200D03*
X0095250Y0030200D03*
X0077450Y0028400D03*
X0077450Y0017400D03*
X0059450Y0019900D03*
X0045450Y0025900D03*
X0043050Y0038000D03*
X0032950Y0041400D03*
X0016950Y0028400D03*
X0036450Y0013400D03*
X0058450Y0041400D03*
X0015950Y0047400D03*
M02*
