G75*
%MOIN*%
%OFA0B0*%
%FSLAX25Y25*%
%IPPOS*%
%LPD*%
%AMOC8*
5,1,8,0,0,1.08239X$1,22.5*
%
%ADD10C,0.00500*%
D10*
X0001400Y0051400D02*
X0001415Y0050182D01*
X0001459Y0048966D01*
X0001533Y0047750D01*
X0001637Y0046537D01*
X0001770Y0045327D01*
X0001933Y0044120D01*
X0002125Y0042918D01*
X0002346Y0041720D01*
X0002596Y0040528D01*
X0002875Y0039343D01*
X0003183Y0038165D01*
X0003520Y0036995D01*
X0003885Y0035833D01*
X0004278Y0034681D01*
X0004699Y0033538D01*
X0005148Y0032407D01*
X0005624Y0031286D01*
X0006128Y0030177D01*
X0006658Y0029081D01*
X0007215Y0027998D01*
X0007798Y0026929D01*
X0008406Y0025875D01*
X0009041Y0024835D01*
X0009700Y0023812D01*
X0010384Y0022804D01*
X0011093Y0021814D01*
X0011825Y0020841D01*
X0012581Y0019887D01*
X0013360Y0018951D01*
X0014161Y0018034D01*
X0014985Y0017137D01*
X0015830Y0016261D01*
X0016696Y0015405D01*
X0017583Y0014570D01*
X0018490Y0013758D01*
X0019416Y0012968D01*
X0020362Y0012200D01*
X0021325Y0011456D01*
X0022307Y0010736D01*
X0023306Y0010039D01*
X0024321Y0009367D01*
X0025353Y0008720D01*
X0026400Y0008099D01*
X0027462Y0007503D01*
X0028538Y0006933D01*
X0029627Y0006389D01*
X0030730Y0005873D01*
X0031845Y0005383D01*
X0032971Y0004920D01*
X0034108Y0004485D01*
X0035256Y0004078D01*
X0036413Y0003699D01*
X0037579Y0003348D01*
X0038753Y0003026D01*
X0039935Y0002732D01*
X0041124Y0002467D01*
X0042318Y0002232D01*
X0043518Y0002025D01*
X0044723Y0001848D01*
X0045931Y0001700D01*
X0047143Y0001582D01*
X0048358Y0001493D01*
X0049574Y0001433D01*
X0050791Y0001404D01*
X0052009Y0001404D01*
X0053226Y0001433D01*
X0054442Y0001493D01*
X0055657Y0001582D01*
X0056869Y0001700D01*
X0058077Y0001848D01*
X0059282Y0002025D01*
X0060482Y0002232D01*
X0061676Y0002467D01*
X0062865Y0002732D01*
X0064047Y0003026D01*
X0065221Y0003348D01*
X0066387Y0003699D01*
X0067544Y0004078D01*
X0068692Y0004485D01*
X0069829Y0004920D01*
X0070955Y0005383D01*
X0072070Y0005873D01*
X0073173Y0006389D01*
X0074262Y0006933D01*
X0075338Y0007503D01*
X0076400Y0008099D01*
X0077447Y0008720D01*
X0078479Y0009367D01*
X0079494Y0010039D01*
X0080493Y0010736D01*
X0081475Y0011456D01*
X0082438Y0012200D01*
X0083384Y0012968D01*
X0084310Y0013758D01*
X0085217Y0014570D01*
X0086104Y0015405D01*
X0086970Y0016261D01*
X0087815Y0017137D01*
X0088639Y0018034D01*
X0089440Y0018951D01*
X0090219Y0019887D01*
X0090975Y0020841D01*
X0091707Y0021814D01*
X0092416Y0022804D01*
X0093100Y0023812D01*
X0093759Y0024835D01*
X0094394Y0025875D01*
X0095002Y0026929D01*
X0095585Y0027998D01*
X0096142Y0029081D01*
X0096672Y0030177D01*
X0097176Y0031286D01*
X0097652Y0032407D01*
X0098101Y0033538D01*
X0098522Y0034681D01*
X0098915Y0035833D01*
X0099280Y0036995D01*
X0099617Y0038165D01*
X0099925Y0039343D01*
X0100204Y0040528D01*
X0100454Y0041720D01*
X0100675Y0042918D01*
X0100867Y0044120D01*
X0101030Y0045327D01*
X0101163Y0046537D01*
X0101267Y0047750D01*
X0101341Y0048966D01*
X0101385Y0050182D01*
X0101400Y0051400D01*
X0089400Y0083900D02*
X0013400Y0083900D01*
X0089400Y0083900D02*
X0090182Y0082963D01*
X0090940Y0082008D01*
X0091675Y0081034D01*
X0092386Y0080043D01*
X0093072Y0079034D01*
X0093734Y0078009D01*
X0094370Y0076969D01*
X0094981Y0075913D01*
X0095566Y0074842D01*
X0096125Y0073758D01*
X0096657Y0072660D01*
X0097162Y0071550D01*
X0097640Y0070427D01*
X0098090Y0069294D01*
X0098513Y0068149D01*
X0098907Y0066995D01*
X0099273Y0065831D01*
X0099611Y0064659D01*
X0099920Y0063479D01*
X0100200Y0062292D01*
X0100451Y0061098D01*
X0100673Y0059898D01*
X0100866Y0058694D01*
X0101029Y0057485D01*
X0101162Y0056272D01*
X0101266Y0055057D01*
X0101341Y0053839D01*
X0101385Y0052620D01*
X0101400Y0051400D01*
X0013400Y0083900D02*
X0012618Y0082963D01*
X0011860Y0082008D01*
X0011125Y0081034D01*
X0010414Y0080043D01*
X0009728Y0079034D01*
X0009066Y0078009D01*
X0008430Y0076969D01*
X0007819Y0075913D01*
X0007234Y0074842D01*
X0006675Y0073758D01*
X0006143Y0072660D01*
X0005638Y0071550D01*
X0005160Y0070427D01*
X0004710Y0069294D01*
X0004287Y0068149D01*
X0003893Y0066995D01*
X0003527Y0065831D01*
X0003189Y0064659D01*
X0002880Y0063479D01*
X0002600Y0062292D01*
X0002349Y0061098D01*
X0002127Y0059898D01*
X0001934Y0058694D01*
X0001771Y0057485D01*
X0001638Y0056272D01*
X0001534Y0055057D01*
X0001459Y0053839D01*
X0001415Y0052620D01*
X0001400Y0051400D01*
M02*
