%
M48
M72
T01C0.0160
%
T01
X3240Y1340
X4140Y2590
X5540Y1990
X7340Y1740
X7340Y2840
X7840Y3640
X7340Y3740
X7340Y4140
X7440Y4540
X7840Y4740
X6840Y4140
X5440Y4140
X3900Y3800
X2890Y4140
X3905Y5500
X3120Y6160
X2740Y5940
X2540Y5540
X2740Y6440
X2340Y6640
X1440Y7500
X1680Y7940
X4100Y6900
X5440Y6040
X6840Y6040
X7820Y7120
X9060Y5560
X9440Y5300
X9740Y4940
X9120Y3020
X8600Y3020
X1290Y2840
X1190Y4740
M30
