G75*
%MOIN*%
%OFA0B0*%
%FSLAX25Y25*%
%IPPOS*%
%LPD*%
%AMOC8*
5,1,8,0,0,1.08239X$1,22.5*
%
%ADD10R,0.04488X0.00787*%
%ADD11C,0.00800*%
%ADD12C,0.03200*%
D10*
X0008703Y0058250D03*
X0008703Y0059825D03*
X0008703Y0061400D03*
X0008703Y0062975D03*
X0008703Y0064550D03*
X0019097Y0064550D03*
X0019097Y0062975D03*
X0019097Y0061400D03*
X0019097Y0059825D03*
X0019097Y0058250D03*
X0083703Y0044550D03*
X0083703Y0042975D03*
X0083703Y0041400D03*
X0083703Y0039825D03*
X0083703Y0038250D03*
X0094097Y0038250D03*
X0094097Y0039825D03*
X0094097Y0041400D03*
X0094097Y0042975D03*
X0094097Y0044550D03*
D11*
X0084107Y0017370D02*
X0018693Y0017370D01*
X0019561Y0016572D02*
X0083239Y0016572D01*
X0082372Y0015773D02*
X0020428Y0015773D01*
X0021295Y0014975D02*
X0081505Y0014975D01*
X0080637Y0014176D02*
X0022163Y0014176D01*
X0022317Y0014034D02*
X0016563Y0019331D01*
X0011760Y0025502D01*
X0008038Y0032380D01*
X0005499Y0039776D01*
X0004212Y0047490D01*
X0004050Y0051400D01*
X0004050Y0051400D01*
X0004168Y0054748D01*
X0004859Y0059600D01*
X0004859Y0058769D01*
X0005059Y0058569D01*
X0005059Y0058250D01*
X0005059Y0057672D01*
X0005154Y0057316D01*
X0005339Y0056997D01*
X0005599Y0056736D01*
X0005919Y0056552D01*
X0006275Y0056457D01*
X0008703Y0056457D01*
X0008703Y0057825D01*
X0008703Y0057825D01*
X0008703Y0056457D01*
X0011132Y0056457D01*
X0011488Y0056552D01*
X0011807Y0056736D01*
X0012068Y0056997D01*
X0012252Y0057316D01*
X0012347Y0057672D01*
X0012347Y0058250D01*
X0012029Y0058250D01*
X0012029Y0058250D01*
X0012347Y0058250D01*
X0012347Y0058569D01*
X0012547Y0058769D01*
X0012547Y0059519D01*
X0013600Y0060572D01*
X0015253Y0062224D01*
X0015253Y0060882D01*
X0015253Y0058769D01*
X0015453Y0058569D01*
X0015453Y0058250D01*
X0015453Y0057672D01*
X0015548Y0057316D01*
X0015732Y0056997D01*
X0015993Y0056736D01*
X0016312Y0056552D01*
X0016668Y0056457D01*
X0019097Y0056457D01*
X0021525Y0056457D01*
X0021881Y0056552D01*
X0022201Y0056736D01*
X0022461Y0056997D01*
X0022646Y0057316D01*
X0022648Y0057324D01*
X0022723Y0057249D01*
X0022687Y0057213D01*
X0022200Y0056037D01*
X0022200Y0054763D01*
X0022687Y0053587D01*
X0023587Y0052687D01*
X0024763Y0052200D01*
X0026037Y0052200D01*
X0027213Y0052687D01*
X0028113Y0053587D01*
X0028600Y0054763D01*
X0028600Y0056037D01*
X0028460Y0056375D01*
X0029213Y0056687D01*
X0030113Y0057587D01*
X0030466Y0058440D01*
X0030563Y0058400D01*
X0031837Y0058400D01*
X0033013Y0058887D01*
X0033913Y0059787D01*
X0034400Y0060963D01*
X0034400Y0062237D01*
X0033913Y0063413D01*
X0033200Y0064125D01*
X0033200Y0067028D01*
X0029800Y0070428D01*
X0029800Y0070428D01*
X0028628Y0071600D01*
X0023028Y0071600D01*
X0022800Y0071828D01*
X0022800Y0076228D01*
X0021628Y0077400D01*
X0020000Y0079028D01*
X0020000Y0080037D01*
X0019513Y0081213D01*
X0019475Y0081250D01*
X0039822Y0081250D01*
X0038800Y0080228D01*
X0034800Y0076228D01*
X0034800Y0060972D01*
X0035972Y0059800D01*
X0037052Y0058720D01*
X0037052Y0057525D01*
X0036339Y0056813D01*
X0035852Y0055637D01*
X0035852Y0054363D01*
X0036339Y0053187D01*
X0037052Y0052475D01*
X0037052Y0040577D01*
X0036287Y0039813D01*
X0035800Y0038637D01*
X0035800Y0037363D01*
X0036287Y0036187D01*
X0037187Y0035287D01*
X0038363Y0034800D01*
X0039637Y0034800D01*
X0040813Y0035287D01*
X0041713Y0036187D01*
X0042200Y0037363D01*
X0042200Y0038637D01*
X0041713Y0039813D01*
X0041052Y0040474D01*
X0041052Y0052475D01*
X0041764Y0053187D01*
X0042252Y0054363D01*
X0042252Y0055637D01*
X0041764Y0056813D01*
X0041052Y0057525D01*
X0041052Y0060377D01*
X0039880Y0061548D01*
X0038800Y0062628D01*
X0038800Y0074572D01*
X0041628Y0077400D01*
X0069172Y0077400D01*
X0075000Y0071572D01*
X0075000Y0070563D01*
X0075487Y0069387D01*
X0076387Y0068487D01*
X0076400Y0068482D01*
X0076400Y0049925D01*
X0075687Y0049213D01*
X0075375Y0048460D01*
X0075037Y0048600D01*
X0073763Y0048600D01*
X0072587Y0048113D01*
X0071687Y0047213D01*
X0071200Y0046037D01*
X0071200Y0044763D01*
X0071504Y0044030D01*
X0070687Y0043213D01*
X0070200Y0042037D01*
X0070200Y0040763D01*
X0070687Y0039587D01*
X0070875Y0039400D01*
X0070687Y0039213D01*
X0070200Y0038037D01*
X0070200Y0036763D01*
X0070687Y0035587D01*
X0071587Y0034687D01*
X0072763Y0034200D01*
X0074037Y0034200D01*
X0075213Y0034687D01*
X0075519Y0034993D01*
X0075687Y0034587D01*
X0076587Y0033687D01*
X0077763Y0033200D01*
X0079037Y0033200D01*
X0080213Y0033687D01*
X0081113Y0034587D01*
X0081600Y0035763D01*
X0081600Y0036250D01*
X0084532Y0036250D01*
X0084538Y0036257D01*
X0086610Y0036257D01*
X0087000Y0036647D01*
X0087000Y0034191D01*
X0086259Y0033400D01*
X0085363Y0033400D01*
X0084187Y0032913D01*
X0083287Y0032013D01*
X0082800Y0030837D01*
X0082800Y0029563D01*
X0083287Y0028387D01*
X0084187Y0027487D01*
X0085363Y0027000D01*
X0086637Y0027000D01*
X0087813Y0027487D01*
X0088600Y0028275D01*
X0089387Y0027487D01*
X0090563Y0027000D01*
X0091837Y0027000D01*
X0091855Y0027007D01*
X0091040Y0025502D01*
X0086237Y0019331D01*
X0080483Y0014034D01*
X0073936Y0009757D01*
X0066775Y0006616D01*
X0059194Y0004696D01*
X0051400Y0004050D01*
X0043606Y0004696D01*
X0036025Y0006616D01*
X0028864Y0009757D01*
X0022317Y0014034D01*
X0023322Y0013378D02*
X0079478Y0013378D01*
X0078256Y0012579D02*
X0024544Y0012579D01*
X0025766Y0011781D02*
X0077034Y0011781D01*
X0075811Y0010982D02*
X0026989Y0010982D01*
X0028211Y0010184D02*
X0074589Y0010184D01*
X0073089Y0009385D02*
X0029711Y0009385D01*
X0031532Y0008587D02*
X0071268Y0008587D01*
X0069448Y0007788D02*
X0033352Y0007788D01*
X0035173Y0006990D02*
X0067627Y0006990D01*
X0065098Y0006191D02*
X0037702Y0006191D01*
X0040855Y0005393D02*
X0061945Y0005393D01*
X0057966Y0004594D02*
X0044834Y0004594D01*
X0017826Y0018169D02*
X0084974Y0018169D01*
X0085842Y0018967D02*
X0016958Y0018967D01*
X0016225Y0019766D02*
X0086575Y0019766D01*
X0087197Y0020564D02*
X0015603Y0020564D01*
X0014982Y0021363D02*
X0087818Y0021363D01*
X0088440Y0022161D02*
X0014360Y0022161D01*
X0013739Y0022960D02*
X0089061Y0022960D01*
X0089683Y0023758D02*
X0013117Y0023758D01*
X0012496Y0024557D02*
X0090304Y0024557D01*
X0090926Y0025355D02*
X0011874Y0025355D01*
X0011407Y0026154D02*
X0091393Y0026154D01*
X0091825Y0026952D02*
X0010975Y0026952D01*
X0010543Y0027751D02*
X0083924Y0027751D01*
X0083220Y0028549D02*
X0010111Y0028549D01*
X0009679Y0029348D02*
X0082889Y0029348D01*
X0082800Y0030146D02*
X0009247Y0030146D01*
X0008815Y0030945D02*
X0082845Y0030945D01*
X0083176Y0031743D02*
X0008382Y0031743D01*
X0007982Y0032542D02*
X0083816Y0032542D01*
X0085220Y0033340D02*
X0079376Y0033340D01*
X0080664Y0034139D02*
X0086951Y0034139D01*
X0087000Y0034937D02*
X0081258Y0034937D01*
X0081589Y0035736D02*
X0087000Y0035736D01*
X0087000Y0036534D02*
X0086888Y0036534D01*
X0089000Y0038600D02*
X0089000Y0033400D01*
X0086000Y0030200D01*
X0088076Y0027751D02*
X0089124Y0027751D01*
X0091200Y0030200D02*
X0091200Y0037600D01*
X0091850Y0038250D01*
X0094097Y0038250D01*
X0094097Y0039825D02*
X0090225Y0039825D01*
X0089000Y0038600D01*
X0091000Y0041400D02*
X0089200Y0043200D01*
X0089200Y0054200D01*
X0090600Y0055600D01*
X0094400Y0053000D02*
X0090800Y0049400D01*
X0090800Y0043600D01*
X0091425Y0042975D01*
X0094097Y0042975D01*
X0094097Y0044550D02*
X0096550Y0044550D01*
X0098000Y0046000D01*
X0098000Y0048800D01*
X0097400Y0049400D01*
X0094097Y0041400D02*
X0091000Y0041400D01*
X0083703Y0041400D02*
X0073400Y0041400D01*
X0075825Y0039825D02*
X0073400Y0037400D01*
X0070200Y0037333D02*
X0042187Y0037333D01*
X0042200Y0038132D02*
X0070239Y0038132D01*
X0070570Y0038930D02*
X0042078Y0038930D01*
X0041748Y0039729D02*
X0070629Y0039729D01*
X0070298Y0040527D02*
X0041052Y0040527D01*
X0041052Y0041326D02*
X0070200Y0041326D01*
X0070236Y0042124D02*
X0041052Y0042124D01*
X0041052Y0042923D02*
X0070567Y0042923D01*
X0071196Y0043721D02*
X0041052Y0043721D01*
X0041052Y0044520D02*
X0071301Y0044520D01*
X0071200Y0045318D02*
X0041052Y0045318D01*
X0041052Y0046117D02*
X0071233Y0046117D01*
X0071564Y0046915D02*
X0041052Y0046915D01*
X0041052Y0047714D02*
X0072188Y0047714D01*
X0073551Y0048512D02*
X0041052Y0048512D01*
X0041052Y0049311D02*
X0075785Y0049311D01*
X0075397Y0048512D02*
X0075249Y0048512D01*
X0076400Y0050109D02*
X0041052Y0050109D01*
X0041052Y0050908D02*
X0076400Y0050908D01*
X0076400Y0051706D02*
X0041052Y0051706D01*
X0041082Y0052505D02*
X0076400Y0052505D01*
X0076400Y0053303D02*
X0041812Y0053303D01*
X0042143Y0054102D02*
X0076400Y0054102D01*
X0076400Y0054900D02*
X0042252Y0054900D01*
X0042226Y0055699D02*
X0076400Y0055699D01*
X0076400Y0056497D02*
X0041895Y0056497D01*
X0041281Y0057296D02*
X0076400Y0057296D01*
X0076400Y0058094D02*
X0041052Y0058094D01*
X0041052Y0058893D02*
X0076400Y0058893D01*
X0076400Y0059691D02*
X0041052Y0059691D01*
X0040939Y0060490D02*
X0076400Y0060490D01*
X0076400Y0061288D02*
X0040140Y0061288D01*
X0039880Y0061548D02*
X0039880Y0061548D01*
X0039342Y0062087D02*
X0076400Y0062087D01*
X0076400Y0062885D02*
X0038800Y0062885D01*
X0038800Y0063684D02*
X0076400Y0063684D01*
X0076400Y0064482D02*
X0038800Y0064482D01*
X0038800Y0065281D02*
X0076400Y0065281D01*
X0076400Y0066079D02*
X0038800Y0066079D01*
X0038800Y0066878D02*
X0076400Y0066878D01*
X0076400Y0067676D02*
X0038800Y0067676D01*
X0038800Y0068475D02*
X0076400Y0068475D01*
X0075601Y0069273D02*
X0038800Y0069273D01*
X0038800Y0070072D02*
X0075204Y0070072D01*
X0075000Y0070870D02*
X0038800Y0070870D01*
X0038800Y0071669D02*
X0074903Y0071669D01*
X0074104Y0072468D02*
X0038800Y0072468D01*
X0038800Y0073266D02*
X0073306Y0073266D01*
X0072507Y0074065D02*
X0038800Y0074065D01*
X0039091Y0074863D02*
X0071709Y0074863D01*
X0070910Y0075662D02*
X0039890Y0075662D01*
X0040688Y0076460D02*
X0070112Y0076460D01*
X0069313Y0077259D02*
X0041487Y0077259D01*
X0040800Y0079400D02*
X0070000Y0079400D01*
X0078200Y0071200D01*
X0078400Y0071000D01*
X0078400Y0047400D01*
X0081250Y0044550D01*
X0083703Y0044550D01*
X0083703Y0042975D02*
X0076825Y0042975D01*
X0074400Y0045400D01*
X0075825Y0039825D02*
X0083703Y0039825D01*
X0083703Y0038250D02*
X0080250Y0038250D01*
X0078400Y0036400D01*
X0076136Y0034139D02*
X0007434Y0034139D01*
X0007160Y0034937D02*
X0038032Y0034937D01*
X0036739Y0035736D02*
X0006886Y0035736D01*
X0006612Y0036534D02*
X0036143Y0036534D01*
X0035813Y0037333D02*
X0006338Y0037333D01*
X0006064Y0038132D02*
X0035800Y0038132D01*
X0035922Y0038930D02*
X0030956Y0038930D01*
X0030713Y0038687D02*
X0031613Y0039587D01*
X0032100Y0040763D01*
X0032100Y0042037D01*
X0031613Y0043213D01*
X0030713Y0044113D01*
X0029537Y0044600D01*
X0028263Y0044600D01*
X0027087Y0044113D01*
X0026187Y0043213D01*
X0025700Y0042037D01*
X0025700Y0040763D01*
X0026187Y0039587D01*
X0027087Y0038687D01*
X0028263Y0038200D01*
X0029537Y0038200D01*
X0030713Y0038687D01*
X0031671Y0039729D02*
X0036252Y0039729D01*
X0037002Y0040527D02*
X0032002Y0040527D01*
X0032100Y0041326D02*
X0037052Y0041326D01*
X0037052Y0042124D02*
X0032064Y0042124D01*
X0031733Y0042923D02*
X0037052Y0042923D01*
X0037052Y0043721D02*
X0031104Y0043721D01*
X0029731Y0044520D02*
X0037052Y0044520D01*
X0037052Y0045318D02*
X0004574Y0045318D01*
X0004707Y0044520D02*
X0028069Y0044520D01*
X0026696Y0043721D02*
X0004841Y0043721D01*
X0004974Y0042923D02*
X0026067Y0042923D01*
X0025736Y0042124D02*
X0005107Y0042124D01*
X0005240Y0041326D02*
X0025700Y0041326D01*
X0025798Y0040527D02*
X0005374Y0040527D01*
X0005515Y0039729D02*
X0026129Y0039729D01*
X0026844Y0038930D02*
X0005789Y0038930D01*
X0007708Y0033340D02*
X0077424Y0033340D01*
X0075542Y0034937D02*
X0075463Y0034937D01*
X0071337Y0034937D02*
X0039968Y0034937D01*
X0041261Y0035736D02*
X0070626Y0035736D01*
X0070295Y0036534D02*
X0041857Y0036534D01*
X0039052Y0038052D02*
X0039000Y0038000D01*
X0039052Y0038052D02*
X0039052Y0054600D01*
X0039052Y0055000D01*
X0039052Y0059548D01*
X0036800Y0061800D01*
X0036800Y0075400D01*
X0040800Y0079400D01*
X0039024Y0080453D02*
X0019828Y0080453D01*
X0020000Y0079654D02*
X0038226Y0079654D01*
X0037427Y0078856D02*
X0020173Y0078856D01*
X0020971Y0078057D02*
X0036629Y0078057D01*
X0035830Y0077259D02*
X0021770Y0077259D01*
X0022568Y0076460D02*
X0035032Y0076460D01*
X0034800Y0075662D02*
X0022800Y0075662D01*
X0022800Y0074863D02*
X0034800Y0074863D01*
X0034800Y0074065D02*
X0022800Y0074065D01*
X0022800Y0073266D02*
X0034800Y0073266D01*
X0034800Y0072468D02*
X0022800Y0072468D01*
X0022959Y0071669D02*
X0034800Y0071669D01*
X0034800Y0070870D02*
X0029358Y0070870D01*
X0030156Y0070072D02*
X0034800Y0070072D01*
X0034800Y0069273D02*
X0030955Y0069273D01*
X0031753Y0068475D02*
X0034800Y0068475D01*
X0034800Y0067676D02*
X0032552Y0067676D01*
X0033200Y0066878D02*
X0034800Y0066878D01*
X0034800Y0066079D02*
X0033200Y0066079D01*
X0033200Y0065281D02*
X0034800Y0065281D01*
X0034800Y0064482D02*
X0033200Y0064482D01*
X0033642Y0063684D02*
X0034800Y0063684D01*
X0034800Y0062885D02*
X0034131Y0062885D01*
X0034400Y0062087D02*
X0034800Y0062087D01*
X0034800Y0061288D02*
X0034400Y0061288D01*
X0034204Y0060490D02*
X0035282Y0060490D01*
X0036080Y0059691D02*
X0033817Y0059691D01*
X0033018Y0058893D02*
X0036879Y0058893D01*
X0037052Y0058094D02*
X0030323Y0058094D01*
X0029821Y0057296D02*
X0036822Y0057296D01*
X0036208Y0056497D02*
X0028754Y0056497D01*
X0028600Y0055699D02*
X0035877Y0055699D01*
X0035852Y0054900D02*
X0028600Y0054900D01*
X0028326Y0054102D02*
X0035960Y0054102D01*
X0036291Y0053303D02*
X0027829Y0053303D01*
X0026772Y0052505D02*
X0037021Y0052505D01*
X0037052Y0051706D02*
X0004061Y0051706D01*
X0004070Y0050908D02*
X0037052Y0050908D01*
X0037052Y0050109D02*
X0004103Y0050109D01*
X0004136Y0049311D02*
X0037052Y0049311D01*
X0037052Y0048512D02*
X0004169Y0048512D01*
X0004202Y0047714D02*
X0037052Y0047714D01*
X0037052Y0046915D02*
X0004308Y0046915D01*
X0004441Y0046117D02*
X0037052Y0046117D01*
X0025400Y0055400D02*
X0025400Y0057400D01*
X0022975Y0059825D01*
X0019097Y0059825D01*
X0019097Y0058250D02*
X0021050Y0058250D01*
X0022400Y0056900D01*
X0022400Y0054900D01*
X0014900Y0047400D01*
X0011900Y0047400D01*
X0005400Y0053900D01*
X0005400Y0056900D01*
X0006750Y0058250D01*
X0008703Y0058250D01*
X0008703Y0057296D02*
X0008703Y0057296D01*
X0008703Y0056497D02*
X0008703Y0056497D01*
X0011283Y0056497D02*
X0016517Y0056497D01*
X0015560Y0057296D02*
X0012240Y0057296D01*
X0012347Y0058094D02*
X0015453Y0058094D01*
X0015453Y0058250D02*
X0015771Y0058250D01*
X0015771Y0058250D01*
X0015453Y0058250D01*
X0015253Y0058893D02*
X0012547Y0058893D01*
X0012720Y0059691D02*
X0015253Y0059691D01*
X0015253Y0060490D02*
X0013518Y0060490D01*
X0013600Y0060572D02*
X0013600Y0060572D01*
X0014317Y0061288D02*
X0015253Y0061288D01*
X0015253Y0062087D02*
X0015115Y0062087D01*
X0013600Y0063400D02*
X0011600Y0061400D01*
X0010025Y0059825D01*
X0008703Y0059825D01*
X0008703Y0061400D02*
X0011600Y0061400D01*
X0009575Y0062975D02*
X0011150Y0064550D01*
X0011600Y0065000D01*
X0011600Y0076800D01*
X0014200Y0079400D01*
X0016800Y0079400D01*
X0020800Y0075400D01*
X0020800Y0071000D01*
X0022200Y0069600D01*
X0027800Y0069600D01*
X0031200Y0066200D01*
X0031200Y0061600D01*
X0027400Y0059400D02*
X0025400Y0061400D01*
X0019097Y0061400D01*
X0019097Y0062975D02*
X0025975Y0062975D01*
X0027400Y0064400D01*
X0023400Y0066400D02*
X0021550Y0064550D01*
X0019097Y0064550D01*
X0013600Y0063400D02*
X0013600Y0074200D01*
X0014400Y0075000D01*
X0011150Y0064550D02*
X0008703Y0064550D01*
X0008703Y0062975D02*
X0009575Y0062975D01*
X0004859Y0058893D02*
X0004758Y0058893D01*
X0005059Y0058250D02*
X0005377Y0058250D01*
X0005378Y0058250D01*
X0005059Y0058250D01*
X0005059Y0058094D02*
X0004645Y0058094D01*
X0004531Y0057296D02*
X0005166Y0057296D01*
X0004417Y0056497D02*
X0006123Y0056497D01*
X0004304Y0055699D02*
X0022200Y0055699D01*
X0022200Y0054900D02*
X0004190Y0054900D01*
X0004145Y0054102D02*
X0022474Y0054102D01*
X0022971Y0053303D02*
X0004117Y0053303D01*
X0004089Y0052505D02*
X0024028Y0052505D01*
X0022391Y0056497D02*
X0021677Y0056497D01*
X0022634Y0057296D02*
X0022676Y0057296D01*
X0019097Y0057296D02*
X0019097Y0057296D01*
X0019097Y0057825D02*
X0019097Y0056457D01*
X0019097Y0057825D01*
X0019097Y0057825D01*
X0019097Y0056497D02*
X0019097Y0056497D01*
D12*
X0025400Y0055400D03*
X0027400Y0059400D03*
X0031200Y0061600D03*
X0027400Y0064400D03*
X0023400Y0066400D03*
X0014400Y0075000D03*
X0016800Y0079400D03*
X0041000Y0069000D03*
X0054400Y0060400D03*
X0068400Y0060400D03*
X0078200Y0071200D03*
X0090600Y0055600D03*
X0094400Y0053000D03*
X0097400Y0049400D03*
X0078400Y0047400D03*
X0074400Y0045400D03*
X0073400Y0041400D03*
X0073400Y0037400D03*
X0078400Y0036400D03*
X0086000Y0030200D03*
X0091200Y0030200D03*
X0073400Y0028400D03*
X0073400Y0017400D03*
X0055400Y0019900D03*
X0041400Y0025900D03*
X0039000Y0038000D03*
X0028900Y0041400D03*
X0039052Y0055000D03*
X0054400Y0041400D03*
X0068400Y0041400D03*
X0032400Y0013400D03*
X0012900Y0028400D03*
X0011900Y0047400D03*
M02*
