G75*
%MOIN*%
%OFA0B0*%
%FSLAX25Y25*%
%IPPOS*%
%LPD*%
%AMOC8*
5,1,8,0,0,1.08239X$1,22.5*
%
%ADD10R,0.02598X0.00906*%
%ADD11R,0.02598X0.01181*%
%ADD12R,0.02362X0.01575*%
%ADD13R,0.05906X0.09449*%
%ADD14R,0.05118X0.01575*%
%ADD15R,0.01969X0.01378*%
%ADD16R,0.01378X0.01969*%
%ADD17R,0.03937X0.02756*%
%ADD18R,0.02150X0.02110*%
%ADD19C,0.00800*%
%ADD20C,0.03200*%
D10*
X0012615Y0058250D03*
X0012615Y0059825D03*
X0012615Y0061400D03*
X0012615Y0062975D03*
X0012615Y0064550D03*
X0023285Y0064550D03*
X0023285Y0062975D03*
X0023285Y0061400D03*
X0023285Y0059825D03*
X0023285Y0058250D03*
X0087615Y0044550D03*
X0087615Y0042975D03*
X0087615Y0041400D03*
X0087615Y0039825D03*
X0087615Y0038250D03*
X0098285Y0038250D03*
X0098285Y0039825D03*
X0098285Y0041400D03*
X0098285Y0042975D03*
X0098285Y0044550D03*
D11*
X0098285Y0046321D03*
X0087615Y0046321D03*
X0087615Y0036479D03*
X0098285Y0036479D03*
X0023285Y0056479D03*
X0012615Y0056479D03*
X0012615Y0066321D03*
X0023285Y0066321D03*
D12*
X0028535Y0034337D03*
X0028535Y0030400D03*
X0028535Y0026463D03*
X0039165Y0026463D03*
X0039165Y0030400D03*
X0039165Y0034337D03*
D13*
X0033850Y0030400D03*
D14*
X0067820Y0068221D03*
X0067820Y0070780D03*
X0067820Y0073339D03*
X0074120Y0073339D03*
X0074120Y0070780D03*
X0074120Y0068221D03*
D15*
X0049401Y0069080D03*
X0049401Y0067111D03*
X0049401Y0065143D03*
X0049401Y0071048D03*
X0049401Y0073017D03*
X0040739Y0073017D03*
X0040739Y0071048D03*
X0040739Y0069080D03*
X0040739Y0067111D03*
X0040739Y0065143D03*
D16*
X0043102Y0064749D03*
X0045070Y0064749D03*
X0047039Y0064749D03*
X0047039Y0073411D03*
X0045070Y0073411D03*
X0043102Y0073411D03*
D17*
X0032970Y0072661D03*
X0032970Y0077779D03*
D18*
X0027650Y0077625D03*
X0027650Y0074215D03*
X0061650Y0074445D03*
X0061650Y0071035D03*
X0086630Y0067225D03*
X0086630Y0063815D03*
X0091050Y0063875D03*
X0091050Y0067285D03*
X0023650Y0030305D03*
X0023650Y0026895D03*
D19*
X0021876Y0018169D02*
X0089024Y0018169D01*
X0088157Y0017370D02*
X0022743Y0017370D01*
X0023611Y0016572D02*
X0087289Y0016572D01*
X0086422Y0015773D02*
X0024478Y0015773D01*
X0025345Y0014975D02*
X0085555Y0014975D01*
X0084687Y0014176D02*
X0026213Y0014176D01*
X0026367Y0014034D02*
X0020613Y0019331D01*
X0015810Y0025502D01*
X0012088Y0032380D01*
X0009549Y0039776D01*
X0008262Y0047490D01*
X0008100Y0051400D01*
X0008100Y0051400D01*
X0008218Y0054748D01*
X0009162Y0061376D01*
X0009716Y0063282D01*
X0009716Y0058710D01*
X0009916Y0058510D01*
X0009916Y0058250D01*
X0009916Y0057932D01*
X0009716Y0057732D01*
X0009716Y0055225D01*
X0010653Y0054288D01*
X0014577Y0054288D01*
X0015515Y0055225D01*
X0015515Y0057732D01*
X0015315Y0057932D01*
X0015315Y0058236D01*
X0017650Y0060572D01*
X0018478Y0061400D01*
X0019650Y0062572D01*
X0019650Y0072033D01*
X0020263Y0072287D01*
X0021163Y0073187D01*
X0021650Y0074363D01*
X0021650Y0075637D01*
X0021417Y0076200D01*
X0021487Y0076200D01*
X0022663Y0076687D01*
X0023375Y0077400D01*
X0024822Y0077400D01*
X0024975Y0077247D01*
X0024975Y0075907D01*
X0025228Y0075654D01*
X0025175Y0075454D01*
X0025175Y0074343D01*
X0027522Y0074343D01*
X0027522Y0074088D01*
X0025175Y0074088D01*
X0025175Y0072976D01*
X0025270Y0072620D01*
X0025455Y0072300D01*
X0025715Y0072040D01*
X0026035Y0071855D01*
X0026391Y0071760D01*
X0027522Y0071760D01*
X0027522Y0074087D01*
X0027777Y0074087D01*
X0027777Y0071760D01*
X0028909Y0071760D01*
X0029265Y0071855D01*
X0029585Y0072040D01*
X0029602Y0072057D01*
X0029602Y0071099D01*
X0029697Y0070743D01*
X0029881Y0070423D01*
X0030142Y0070163D01*
X0030461Y0069978D01*
X0030817Y0069883D01*
X0032681Y0069883D01*
X0032681Y0072372D01*
X0033259Y0072372D01*
X0033259Y0072950D01*
X0036338Y0072950D01*
X0036338Y0074223D01*
X0036243Y0074579D01*
X0036059Y0074898D01*
X0035879Y0075079D01*
X0036538Y0075738D01*
X0036538Y0075779D01*
X0037850Y0075779D01*
X0037850Y0073078D01*
X0038155Y0072773D01*
X0038155Y0068933D01*
X0036250Y0067028D01*
X0036250Y0064649D01*
X0035887Y0064800D01*
X0034650Y0064800D01*
X0034650Y0065037D01*
X0034163Y0066213D01*
X0033263Y0067113D01*
X0032087Y0067600D01*
X0030813Y0067600D01*
X0030475Y0067460D01*
X0030163Y0068213D01*
X0029263Y0069113D01*
X0028087Y0069600D01*
X0026813Y0069600D01*
X0025637Y0069113D01*
X0025036Y0068512D01*
X0021323Y0068512D01*
X0020385Y0067575D01*
X0020385Y0058710D01*
X0020585Y0058510D01*
X0020585Y0058250D01*
X0020585Y0057932D01*
X0020385Y0057732D01*
X0020385Y0055225D01*
X0021323Y0054288D01*
X0025247Y0054288D01*
X0026184Y0055225D01*
X0026184Y0057732D01*
X0026091Y0057825D01*
X0026196Y0057825D01*
X0026773Y0057249D01*
X0026737Y0057213D01*
X0026250Y0056037D01*
X0026250Y0054763D01*
X0026737Y0053587D01*
X0027637Y0052687D01*
X0028254Y0052432D01*
X0022822Y0047000D01*
X0021650Y0045828D01*
X0021650Y0032698D01*
X0020975Y0032023D01*
X0020975Y0028587D01*
X0021228Y0028334D01*
X0021175Y0028134D01*
X0021175Y0027023D01*
X0023522Y0027023D01*
X0023522Y0026767D01*
X0023777Y0026767D01*
X0023777Y0024440D01*
X0024909Y0024440D01*
X0025265Y0024535D01*
X0025585Y0024720D01*
X0025816Y0024951D01*
X0026691Y0024076D01*
X0030379Y0024076D01*
X0030607Y0024304D01*
X0030713Y0024276D01*
X0033450Y0024276D01*
X0033450Y0030000D01*
X0034250Y0030000D01*
X0034250Y0030800D01*
X0036584Y0030800D01*
X0036584Y0030400D01*
X0039165Y0030400D01*
X0041746Y0030400D01*
X0041746Y0031372D01*
X0041651Y0031728D01*
X0041466Y0032047D01*
X0041286Y0032227D01*
X0041946Y0032887D01*
X0041946Y0034068D01*
X0042678Y0034800D01*
X0043687Y0034800D01*
X0044863Y0035287D01*
X0045763Y0036187D01*
X0046250Y0037363D01*
X0046250Y0038637D01*
X0045763Y0039813D01*
X0044863Y0040713D01*
X0043687Y0041200D01*
X0042413Y0041200D01*
X0041237Y0040713D01*
X0040337Y0039813D01*
X0039850Y0038637D01*
X0039850Y0037628D01*
X0038946Y0036724D01*
X0037321Y0036724D01*
X0037093Y0036496D01*
X0036987Y0036524D01*
X0034250Y0036524D01*
X0034250Y0030800D01*
X0033450Y0030800D01*
X0033450Y0036524D01*
X0030713Y0036524D01*
X0030607Y0036496D01*
X0030379Y0036724D01*
X0028976Y0036724D01*
X0028650Y0037050D01*
X0028650Y0043772D01*
X0036250Y0051372D01*
X0036250Y0050972D01*
X0040050Y0047172D01*
X0041222Y0046000D01*
X0075022Y0046000D01*
X0075250Y0045772D01*
X0075250Y0044763D01*
X0075554Y0044030D01*
X0074737Y0043213D01*
X0074250Y0042037D01*
X0074250Y0040763D01*
X0074737Y0039587D01*
X0074925Y0039400D01*
X0074737Y0039213D01*
X0074250Y0038037D01*
X0074250Y0036763D01*
X0074737Y0035587D01*
X0075637Y0034687D01*
X0076813Y0034200D01*
X0078087Y0034200D01*
X0079263Y0034687D01*
X0079569Y0034993D01*
X0079737Y0034587D01*
X0080637Y0033687D01*
X0081813Y0033200D01*
X0083087Y0033200D01*
X0084263Y0033687D01*
X0085163Y0034587D01*
X0085219Y0034723D01*
X0085653Y0034288D01*
X0089577Y0034288D01*
X0090515Y0035225D01*
X0090515Y0047575D01*
X0089577Y0048512D01*
X0085653Y0048512D01*
X0085512Y0048370D01*
X0085163Y0049213D01*
X0084450Y0049925D01*
X0084450Y0054447D01*
X0091223Y0061220D01*
X0092788Y0061220D01*
X0093725Y0062157D01*
X0093725Y0069003D01*
X0092788Y0069940D01*
X0089312Y0069940D01*
X0088810Y0069438D01*
X0088630Y0069618D01*
X0088630Y0073248D01*
X0087458Y0074420D01*
X0082099Y0079779D01*
X0036538Y0079779D01*
X0036538Y0079820D01*
X0035601Y0080757D01*
X0030339Y0080757D01*
X0029625Y0080043D01*
X0029388Y0080280D01*
X0027598Y0080280D01*
X0026628Y0081250D01*
X0092174Y0081250D01*
X0093522Y0079557D01*
X0097112Y0073906D01*
X0099869Y0067805D01*
X0101738Y0061376D01*
X0102682Y0054748D01*
X0102768Y0052318D01*
X0102087Y0052600D01*
X0101650Y0052600D01*
X0101650Y0053637D01*
X0101163Y0054813D01*
X0100263Y0055713D01*
X0099087Y0056200D01*
X0097850Y0056200D01*
X0097850Y0056237D01*
X0097363Y0057413D01*
X0096463Y0058313D01*
X0095287Y0058800D01*
X0094013Y0058800D01*
X0092837Y0058313D01*
X0091937Y0057413D01*
X0091450Y0056237D01*
X0091450Y0055228D01*
X0091250Y0055028D01*
X0091250Y0042372D01*
X0092622Y0041000D01*
X0092250Y0040628D01*
X0091050Y0039428D01*
X0091050Y0034191D01*
X0090309Y0033400D01*
X0089413Y0033400D01*
X0088237Y0032913D01*
X0087337Y0032013D01*
X0086850Y0030837D01*
X0086850Y0029563D01*
X0087337Y0028387D01*
X0088237Y0027487D01*
X0089413Y0027000D01*
X0090687Y0027000D01*
X0091863Y0027487D01*
X0092650Y0028275D01*
X0093437Y0027487D01*
X0094613Y0027000D01*
X0095887Y0027000D01*
X0095905Y0027007D01*
X0095090Y0025502D01*
X0090287Y0019331D01*
X0084533Y0014034D01*
X0077986Y0009757D01*
X0070825Y0006616D01*
X0063244Y0004696D01*
X0055450Y0004050D01*
X0047656Y0004696D01*
X0040075Y0006616D01*
X0032914Y0009757D01*
X0026367Y0014034D01*
X0027372Y0013378D02*
X0083528Y0013378D01*
X0082306Y0012579D02*
X0028594Y0012579D01*
X0029816Y0011781D02*
X0081084Y0011781D01*
X0079861Y0010982D02*
X0031039Y0010982D01*
X0032261Y0010184D02*
X0078639Y0010184D01*
X0077139Y0009385D02*
X0033761Y0009385D01*
X0035582Y0008587D02*
X0075318Y0008587D01*
X0073498Y0007788D02*
X0037402Y0007788D01*
X0039223Y0006990D02*
X0071677Y0006990D01*
X0069148Y0006191D02*
X0041752Y0006191D01*
X0044905Y0005393D02*
X0065995Y0005393D01*
X0062016Y0004594D02*
X0048884Y0004594D01*
X0041009Y0024076D02*
X0037321Y0024076D01*
X0037093Y0024304D01*
X0036987Y0024276D01*
X0034250Y0024276D01*
X0034250Y0030000D01*
X0036584Y0030000D01*
X0036584Y0030400D01*
X0039165Y0030400D01*
X0039165Y0030400D01*
X0041746Y0030400D01*
X0041746Y0029428D01*
X0041651Y0029072D01*
X0041466Y0028753D01*
X0041286Y0028573D01*
X0041946Y0027913D01*
X0041946Y0025013D01*
X0041009Y0024076D01*
X0041490Y0024557D02*
X0094354Y0024557D01*
X0094976Y0025355D02*
X0041946Y0025355D01*
X0041946Y0026154D02*
X0095443Y0026154D01*
X0095875Y0026952D02*
X0041946Y0026952D01*
X0041946Y0027751D02*
X0087974Y0027751D01*
X0087270Y0028549D02*
X0041310Y0028549D01*
X0041725Y0029348D02*
X0086939Y0029348D01*
X0086850Y0030146D02*
X0041746Y0030146D01*
X0041746Y0030945D02*
X0086895Y0030945D01*
X0087226Y0031743D02*
X0041642Y0031743D01*
X0041601Y0032542D02*
X0087866Y0032542D01*
X0089270Y0033340D02*
X0083426Y0033340D01*
X0084714Y0034139D02*
X0091001Y0034139D01*
X0091050Y0034937D02*
X0090227Y0034937D01*
X0090515Y0035736D02*
X0091050Y0035736D01*
X0091050Y0036534D02*
X0090515Y0036534D01*
X0090515Y0037333D02*
X0091050Y0037333D01*
X0091050Y0038132D02*
X0090515Y0038132D01*
X0090515Y0038930D02*
X0091050Y0038930D01*
X0091350Y0039729D02*
X0090515Y0039729D01*
X0090515Y0040527D02*
X0092149Y0040527D01*
X0092296Y0041326D02*
X0090515Y0041326D01*
X0090515Y0042124D02*
X0091497Y0042124D01*
X0091250Y0042923D02*
X0090515Y0042923D01*
X0090515Y0043721D02*
X0091250Y0043721D01*
X0091250Y0044520D02*
X0090515Y0044520D01*
X0090515Y0045318D02*
X0091250Y0045318D01*
X0091250Y0046117D02*
X0090515Y0046117D01*
X0090515Y0046915D02*
X0091250Y0046915D01*
X0091250Y0047714D02*
X0090375Y0047714D01*
X0091250Y0048512D02*
X0085453Y0048512D01*
X0085065Y0049311D02*
X0091250Y0049311D01*
X0091250Y0050109D02*
X0084450Y0050109D01*
X0084450Y0050908D02*
X0091250Y0050908D01*
X0091250Y0051706D02*
X0084450Y0051706D01*
X0084450Y0052505D02*
X0091250Y0052505D01*
X0091250Y0053303D02*
X0084450Y0053303D01*
X0084450Y0054102D02*
X0091250Y0054102D01*
X0091250Y0054900D02*
X0084904Y0054900D01*
X0085702Y0055699D02*
X0091450Y0055699D01*
X0091558Y0056497D02*
X0086501Y0056497D01*
X0087299Y0057296D02*
X0091889Y0057296D01*
X0092619Y0058094D02*
X0088098Y0058094D01*
X0088896Y0058893D02*
X0102092Y0058893D01*
X0101978Y0059691D02*
X0089695Y0059691D01*
X0090493Y0060490D02*
X0101864Y0060490D01*
X0101750Y0061288D02*
X0092856Y0061288D01*
X0093655Y0062087D02*
X0101531Y0062087D01*
X0101299Y0062885D02*
X0093725Y0062885D01*
X0093725Y0063684D02*
X0101067Y0063684D01*
X0100835Y0064482D02*
X0093725Y0064482D01*
X0093725Y0065281D02*
X0100603Y0065281D01*
X0100370Y0066079D02*
X0093725Y0066079D01*
X0093725Y0066878D02*
X0100138Y0066878D01*
X0099906Y0067676D02*
X0093725Y0067676D01*
X0093725Y0068475D02*
X0099566Y0068475D01*
X0099205Y0069273D02*
X0093454Y0069273D01*
X0091050Y0067285D02*
X0086690Y0067285D01*
X0086630Y0067225D01*
X0086630Y0072420D01*
X0081271Y0077779D01*
X0053871Y0077779D01*
X0057205Y0074445D01*
X0061650Y0074445D01*
X0066714Y0074445D01*
X0067820Y0073339D01*
X0067820Y0070780D02*
X0067820Y0068221D01*
X0067820Y0068221D01*
X0063861Y0068221D01*
X0063861Y0069148D01*
X0063845Y0069120D01*
X0063585Y0068860D01*
X0063265Y0068675D01*
X0062909Y0068580D01*
X0061777Y0068580D01*
X0061777Y0070907D01*
X0061522Y0070907D01*
X0061522Y0068580D01*
X0060391Y0068580D01*
X0060035Y0068675D01*
X0059715Y0068860D01*
X0059455Y0069120D01*
X0059270Y0069440D01*
X0059175Y0069796D01*
X0059175Y0070907D01*
X0061522Y0070907D01*
X0061522Y0071162D01*
X0059175Y0071162D01*
X0059175Y0072274D01*
X0059221Y0072445D01*
X0056377Y0072445D01*
X0055650Y0073172D01*
X0055650Y0061372D01*
X0054478Y0060200D01*
X0052278Y0058000D01*
X0048422Y0058000D01*
X0047250Y0059172D01*
X0045102Y0061320D01*
X0045102Y0057525D01*
X0045814Y0056813D01*
X0046302Y0055637D01*
X0046302Y0054363D01*
X0045814Y0053187D01*
X0044914Y0052287D01*
X0043738Y0051800D01*
X0042465Y0051800D01*
X0041289Y0052287D01*
X0040389Y0053187D01*
X0040250Y0053522D01*
X0040250Y0052628D01*
X0042878Y0050000D01*
X0076450Y0050000D01*
X0076450Y0063062D01*
X0073679Y0065834D01*
X0070898Y0065834D01*
X0070669Y0066062D01*
X0070564Y0066034D01*
X0067820Y0066034D01*
X0067820Y0068221D01*
X0063861Y0068221D01*
X0063861Y0067249D01*
X0063957Y0066893D01*
X0064141Y0066574D01*
X0064402Y0066313D01*
X0064721Y0066129D01*
X0065077Y0066034D01*
X0067820Y0066034D01*
X0067820Y0068221D01*
X0067820Y0070408D01*
X0067820Y0070780D01*
X0067820Y0070780D01*
X0067820Y0070072D02*
X0067820Y0070072D01*
X0067820Y0069273D02*
X0067820Y0069273D01*
X0067820Y0068475D02*
X0067820Y0068475D01*
X0067820Y0068221D02*
X0067820Y0068221D01*
X0067820Y0068221D01*
X0067820Y0067676D02*
X0067820Y0067676D01*
X0067820Y0066878D02*
X0067820Y0066878D01*
X0067820Y0066079D02*
X0067820Y0066079D01*
X0064906Y0066079D02*
X0055650Y0066079D01*
X0055650Y0065281D02*
X0074231Y0065281D01*
X0075030Y0064482D02*
X0055650Y0064482D01*
X0055650Y0063684D02*
X0075828Y0063684D01*
X0076450Y0062885D02*
X0055650Y0062885D01*
X0055650Y0062087D02*
X0076450Y0062087D01*
X0076450Y0061288D02*
X0055567Y0061288D01*
X0054768Y0060490D02*
X0076450Y0060490D01*
X0076450Y0059691D02*
X0053970Y0059691D01*
X0053171Y0058893D02*
X0076450Y0058893D01*
X0076450Y0058094D02*
X0052373Y0058094D01*
X0051450Y0060000D02*
X0053650Y0062200D01*
X0053650Y0075979D01*
X0051850Y0077779D01*
X0053871Y0077779D01*
X0051850Y0077779D02*
X0047039Y0077779D01*
X0047039Y0073411D01*
X0045070Y0073411D02*
X0045070Y0077779D01*
X0047039Y0077779D01*
X0045070Y0077779D02*
X0039850Y0077779D01*
X0039850Y0073906D01*
X0040739Y0073017D01*
X0043102Y0073411D02*
X0043102Y0070948D01*
X0045050Y0069000D01*
X0045070Y0069000D01*
X0045070Y0064749D01*
X0045070Y0060780D01*
X0048450Y0057400D01*
X0048450Y0054800D01*
X0044650Y0051000D01*
X0042650Y0051000D01*
X0040250Y0053400D01*
X0040250Y0058000D01*
X0040739Y0058489D01*
X0040739Y0065143D01*
X0040739Y0064823D02*
X0040739Y0063054D01*
X0040250Y0063054D01*
X0040250Y0056478D01*
X0040389Y0056813D01*
X0041102Y0057525D01*
X0041102Y0062813D01*
X0040861Y0063054D01*
X0040739Y0063054D01*
X0040739Y0064823D01*
X0040739Y0064823D01*
X0040739Y0064482D02*
X0040739Y0064482D01*
X0040739Y0063684D02*
X0040739Y0063684D01*
X0041029Y0062885D02*
X0040250Y0062885D01*
X0040250Y0062087D02*
X0041102Y0062087D01*
X0041102Y0061288D02*
X0040250Y0061288D01*
X0040250Y0060490D02*
X0041102Y0060490D01*
X0041102Y0059691D02*
X0040250Y0059691D01*
X0040250Y0058893D02*
X0041102Y0058893D01*
X0041102Y0058094D02*
X0040250Y0058094D01*
X0040250Y0057296D02*
X0040872Y0057296D01*
X0040258Y0056497D02*
X0040250Y0056497D01*
X0038250Y0056200D02*
X0038250Y0051800D01*
X0042050Y0048000D01*
X0075850Y0048000D01*
X0078450Y0045400D01*
X0078450Y0054800D01*
X0078450Y0055635D01*
X0086630Y0063815D01*
X0091050Y0063875D02*
X0082450Y0055275D01*
X0082450Y0047400D01*
X0085300Y0044550D01*
X0087615Y0044550D01*
X0087615Y0042975D02*
X0080875Y0042975D01*
X0078450Y0045400D01*
X0075250Y0045318D02*
X0030197Y0045318D01*
X0030995Y0046117D02*
X0041105Y0046117D01*
X0040306Y0046915D02*
X0031794Y0046915D01*
X0032592Y0047714D02*
X0039508Y0047714D01*
X0038709Y0048512D02*
X0033391Y0048512D01*
X0034189Y0049311D02*
X0037911Y0049311D01*
X0037112Y0050109D02*
X0034988Y0050109D01*
X0035786Y0050908D02*
X0036314Y0050908D01*
X0040374Y0052505D02*
X0041071Y0052505D01*
X0041172Y0051706D02*
X0076450Y0051706D01*
X0076450Y0050908D02*
X0041971Y0050908D01*
X0042769Y0050109D02*
X0076450Y0050109D01*
X0076450Y0052505D02*
X0045132Y0052505D01*
X0045862Y0053303D02*
X0076450Y0053303D01*
X0076450Y0054102D02*
X0046193Y0054102D01*
X0046302Y0054900D02*
X0076450Y0054900D01*
X0076450Y0055699D02*
X0046276Y0055699D01*
X0045945Y0056497D02*
X0076450Y0056497D01*
X0076450Y0057296D02*
X0045331Y0057296D01*
X0045102Y0058094D02*
X0048327Y0058094D01*
X0047529Y0058893D02*
X0045102Y0058893D01*
X0045102Y0059691D02*
X0046730Y0059691D01*
X0045932Y0060490D02*
X0045102Y0060490D01*
X0045102Y0061288D02*
X0045133Y0061288D01*
X0047039Y0062211D02*
X0049250Y0060000D01*
X0051450Y0060000D01*
X0047039Y0062211D02*
X0047039Y0064749D01*
X0046939Y0067111D02*
X0045050Y0069000D01*
X0047098Y0071048D01*
X0049401Y0071048D01*
X0049401Y0071369D02*
X0049401Y0073017D01*
X0049401Y0073017D01*
X0049401Y0075106D01*
X0050569Y0075106D01*
X0050925Y0075011D01*
X0051245Y0074826D01*
X0051505Y0074566D01*
X0051650Y0074315D01*
X0051650Y0075151D01*
X0051022Y0075779D01*
X0049039Y0075779D01*
X0049039Y0075347D01*
X0049279Y0075106D01*
X0049401Y0075106D01*
X0049401Y0073017D01*
X0049401Y0071369D01*
X0049401Y0071369D01*
X0049401Y0071669D02*
X0049401Y0071669D01*
X0049401Y0072468D02*
X0049401Y0072468D01*
X0049401Y0073017D02*
X0049401Y0073017D01*
X0049401Y0073266D02*
X0049401Y0073266D01*
X0049401Y0074065D02*
X0049401Y0074065D01*
X0049401Y0074863D02*
X0049401Y0074863D01*
X0049039Y0075662D02*
X0051139Y0075662D01*
X0051181Y0074863D02*
X0051650Y0074863D01*
X0055650Y0072468D02*
X0056354Y0072468D01*
X0055650Y0071669D02*
X0059175Y0071669D01*
X0059175Y0070870D02*
X0055650Y0070870D01*
X0055650Y0070072D02*
X0059175Y0070072D01*
X0059366Y0069273D02*
X0055650Y0069273D01*
X0055650Y0068475D02*
X0063861Y0068475D01*
X0063861Y0067676D02*
X0055650Y0067676D01*
X0055650Y0066878D02*
X0063966Y0066878D01*
X0061777Y0069273D02*
X0061522Y0069273D01*
X0061522Y0070072D02*
X0061777Y0070072D01*
X0061777Y0070870D02*
X0061522Y0070870D01*
X0049401Y0067111D02*
X0046939Y0067111D01*
X0047016Y0067334D02*
X0045687Y0067334D01*
X0045487Y0067134D01*
X0045070Y0067134D01*
X0045070Y0066717D01*
X0045070Y0067134D01*
X0044653Y0067134D01*
X0044453Y0067334D01*
X0043324Y0067334D01*
X0043324Y0071026D01*
X0043518Y0071026D01*
X0043718Y0070826D01*
X0047016Y0070826D01*
X0047016Y0070632D01*
X0046816Y0070432D01*
X0046816Y0067728D01*
X0047016Y0067528D01*
X0047016Y0067334D01*
X0046868Y0067676D02*
X0043324Y0067676D01*
X0043324Y0068475D02*
X0046816Y0068475D01*
X0046816Y0069273D02*
X0043324Y0069273D01*
X0043324Y0070072D02*
X0046816Y0070072D01*
X0043674Y0070870D02*
X0043324Y0070870D01*
X0045070Y0066878D02*
X0045070Y0066878D01*
X0045070Y0066717D02*
X0045070Y0066717D01*
X0045070Y0066717D01*
X0043102Y0064749D02*
X0043102Y0055000D01*
X0040341Y0053303D02*
X0040250Y0053303D01*
X0038250Y0056200D02*
X0026650Y0044600D01*
X0026650Y0036222D01*
X0028535Y0034337D01*
X0030569Y0036534D02*
X0037131Y0036534D01*
X0039555Y0037333D02*
X0028650Y0037333D01*
X0028650Y0038132D02*
X0039850Y0038132D01*
X0039972Y0038930D02*
X0035006Y0038930D01*
X0034763Y0038687D02*
X0033587Y0038200D01*
X0032313Y0038200D01*
X0031137Y0038687D01*
X0030237Y0039587D01*
X0029750Y0040763D01*
X0029750Y0042037D01*
X0030237Y0043213D01*
X0031137Y0044113D01*
X0032313Y0044600D01*
X0033587Y0044600D01*
X0034763Y0044113D01*
X0035663Y0043213D01*
X0036150Y0042037D01*
X0036150Y0040763D01*
X0035663Y0039587D01*
X0034763Y0038687D01*
X0035721Y0039729D02*
X0040302Y0039729D01*
X0041052Y0040527D02*
X0036052Y0040527D01*
X0036150Y0041326D02*
X0074250Y0041326D01*
X0074286Y0042124D02*
X0036114Y0042124D01*
X0035783Y0042923D02*
X0074617Y0042923D01*
X0075246Y0043721D02*
X0035154Y0043721D01*
X0033781Y0044520D02*
X0075351Y0044520D01*
X0077450Y0041400D02*
X0087615Y0041400D01*
X0087615Y0039825D02*
X0079875Y0039825D01*
X0077450Y0037400D01*
X0074620Y0038930D02*
X0046128Y0038930D01*
X0046250Y0038132D02*
X0074289Y0038132D01*
X0074250Y0037333D02*
X0046237Y0037333D01*
X0045907Y0036534D02*
X0074345Y0036534D01*
X0074676Y0035736D02*
X0045311Y0035736D01*
X0044018Y0034937D02*
X0075387Y0034937D01*
X0079513Y0034937D02*
X0079592Y0034937D01*
X0080186Y0034139D02*
X0042017Y0034139D01*
X0041946Y0033340D02*
X0081474Y0033340D01*
X0082450Y0036400D02*
X0084300Y0038250D01*
X0087615Y0038250D01*
X0093050Y0038600D02*
X0094250Y0039800D01*
X0098259Y0039800D01*
X0098285Y0039825D01*
X0098285Y0041400D02*
X0095050Y0041400D01*
X0093250Y0043200D01*
X0093250Y0054200D01*
X0094650Y0055600D01*
X0097411Y0057296D02*
X0102319Y0057296D01*
X0102205Y0058094D02*
X0096681Y0058094D01*
X0097742Y0056497D02*
X0102433Y0056497D01*
X0102546Y0055699D02*
X0100277Y0055699D01*
X0101075Y0054900D02*
X0102660Y0054900D01*
X0102705Y0054102D02*
X0101457Y0054102D01*
X0101650Y0053303D02*
X0102733Y0053303D01*
X0102761Y0052505D02*
X0102316Y0052505D01*
X0101450Y0049400D02*
X0102050Y0048800D01*
X0102050Y0046000D01*
X0100600Y0044550D01*
X0098285Y0044550D01*
X0098259Y0043000D02*
X0095450Y0043000D01*
X0094850Y0043600D01*
X0094850Y0049400D01*
X0098450Y0053000D01*
X0098259Y0043000D02*
X0098285Y0042975D01*
X0098285Y0038250D02*
X0095900Y0038250D01*
X0095250Y0037600D01*
X0095250Y0030200D01*
X0093174Y0027751D02*
X0092126Y0027751D01*
X0090050Y0030200D02*
X0093050Y0033400D01*
X0093050Y0038600D01*
X0093733Y0023758D02*
X0017167Y0023758D01*
X0017789Y0022960D02*
X0093111Y0022960D01*
X0092490Y0022161D02*
X0018410Y0022161D01*
X0019032Y0021363D02*
X0091868Y0021363D01*
X0091247Y0020564D02*
X0019653Y0020564D01*
X0020275Y0019766D02*
X0090625Y0019766D01*
X0089892Y0018967D02*
X0021008Y0018967D01*
X0022391Y0024440D02*
X0022035Y0024535D01*
X0021715Y0024720D01*
X0021455Y0024980D01*
X0021270Y0025300D01*
X0021175Y0025656D01*
X0021175Y0026767D01*
X0023522Y0026767D01*
X0023522Y0024440D01*
X0022391Y0024440D01*
X0021998Y0024557D02*
X0016546Y0024557D01*
X0015924Y0025355D02*
X0021255Y0025355D01*
X0021175Y0026154D02*
X0015457Y0026154D01*
X0015025Y0026952D02*
X0023522Y0026952D01*
X0023522Y0026154D02*
X0023777Y0026154D01*
X0023777Y0025355D02*
X0023522Y0025355D01*
X0023522Y0024557D02*
X0023777Y0024557D01*
X0025302Y0024557D02*
X0026210Y0024557D01*
X0021175Y0027751D02*
X0014593Y0027751D01*
X0014161Y0028549D02*
X0021013Y0028549D01*
X0020975Y0029348D02*
X0013729Y0029348D01*
X0013297Y0030146D02*
X0020975Y0030146D01*
X0020975Y0030945D02*
X0012865Y0030945D01*
X0012432Y0031743D02*
X0020975Y0031743D01*
X0021494Y0032542D02*
X0012032Y0032542D01*
X0011758Y0033340D02*
X0021650Y0033340D01*
X0021650Y0034139D02*
X0011484Y0034139D01*
X0011210Y0034937D02*
X0021650Y0034937D01*
X0021650Y0035736D02*
X0010936Y0035736D01*
X0010662Y0036534D02*
X0021650Y0036534D01*
X0021650Y0037333D02*
X0010388Y0037333D01*
X0010114Y0038132D02*
X0021650Y0038132D01*
X0021650Y0038930D02*
X0009839Y0038930D01*
X0009565Y0039729D02*
X0021650Y0039729D01*
X0021650Y0040527D02*
X0009424Y0040527D01*
X0009290Y0041326D02*
X0021650Y0041326D01*
X0021650Y0042124D02*
X0009157Y0042124D01*
X0009024Y0042923D02*
X0021650Y0042923D01*
X0021650Y0043721D02*
X0008891Y0043721D01*
X0008757Y0044520D02*
X0021650Y0044520D01*
X0021650Y0045318D02*
X0008624Y0045318D01*
X0008491Y0046117D02*
X0021938Y0046117D01*
X0022737Y0046915D02*
X0008358Y0046915D01*
X0008252Y0047714D02*
X0023535Y0047714D01*
X0024334Y0048512D02*
X0008219Y0048512D01*
X0008186Y0049311D02*
X0025132Y0049311D01*
X0025931Y0050109D02*
X0008153Y0050109D01*
X0008120Y0050908D02*
X0026729Y0050908D01*
X0027528Y0051706D02*
X0008111Y0051706D01*
X0008139Y0052505D02*
X0028078Y0052505D01*
X0027021Y0053303D02*
X0008167Y0053303D01*
X0008195Y0054102D02*
X0026524Y0054102D01*
X0026450Y0054900D02*
X0018950Y0047400D01*
X0015950Y0047400D01*
X0009450Y0053900D01*
X0009450Y0056900D01*
X0010800Y0058250D01*
X0012615Y0058250D01*
X0019450Y0058250D01*
X0019450Y0069800D01*
X0023865Y0074215D01*
X0027650Y0074215D01*
X0029204Y0072661D01*
X0032970Y0072661D01*
X0033259Y0072468D02*
X0038155Y0072468D01*
X0038155Y0071669D02*
X0036338Y0071669D01*
X0036338Y0071099D02*
X0036338Y0072372D01*
X0033259Y0072372D01*
X0033259Y0069883D01*
X0035123Y0069883D01*
X0035479Y0069978D01*
X0035798Y0070163D01*
X0036059Y0070423D01*
X0036243Y0070743D01*
X0036338Y0071099D01*
X0036277Y0070870D02*
X0038155Y0070870D01*
X0038155Y0070072D02*
X0035641Y0070072D01*
X0037697Y0068475D02*
X0029901Y0068475D01*
X0030385Y0067676D02*
X0036898Y0067676D01*
X0036250Y0066878D02*
X0033498Y0066878D01*
X0034218Y0066079D02*
X0036250Y0066079D01*
X0036250Y0065281D02*
X0034549Y0065281D01*
X0031450Y0064400D02*
X0030025Y0062975D01*
X0023285Y0062975D01*
X0023285Y0061400D02*
X0029450Y0061400D01*
X0031450Y0059400D01*
X0029450Y0057400D02*
X0029450Y0055400D01*
X0029450Y0057400D02*
X0027025Y0059825D01*
X0023285Y0059825D01*
X0023285Y0058250D02*
X0025100Y0058250D01*
X0026450Y0056900D01*
X0026450Y0054900D01*
X0026250Y0054900D02*
X0025859Y0054900D01*
X0026184Y0055699D02*
X0026250Y0055699D01*
X0026184Y0056497D02*
X0026441Y0056497D01*
X0026184Y0057296D02*
X0026726Y0057296D01*
X0023285Y0058250D02*
X0019450Y0058250D01*
X0020385Y0058893D02*
X0015971Y0058893D01*
X0015315Y0058094D02*
X0020585Y0058094D01*
X0020585Y0058250D02*
X0020845Y0058250D01*
X0020845Y0058250D01*
X0020585Y0058250D01*
X0020385Y0057296D02*
X0015515Y0057296D01*
X0015515Y0056497D02*
X0020385Y0056497D01*
X0020385Y0055699D02*
X0015515Y0055699D01*
X0015189Y0054900D02*
X0020711Y0054900D01*
X0020385Y0059691D02*
X0016770Y0059691D01*
X0017568Y0060490D02*
X0020385Y0060490D01*
X0020385Y0061288D02*
X0018367Y0061288D01*
X0017650Y0060572D02*
X0017650Y0060572D01*
X0015650Y0061400D02*
X0014075Y0059825D01*
X0012615Y0059825D01*
X0012615Y0061400D02*
X0015650Y0061400D01*
X0017650Y0063400D01*
X0017650Y0074200D01*
X0018450Y0075000D01*
X0015650Y0076800D02*
X0018250Y0079400D01*
X0020850Y0079400D01*
X0025650Y0079400D01*
X0027450Y0077600D01*
X0027625Y0077600D01*
X0027650Y0077625D01*
X0027804Y0077779D01*
X0032970Y0077779D01*
X0039850Y0077779D01*
X0037850Y0075662D02*
X0036462Y0075662D01*
X0036079Y0074863D02*
X0037850Y0074863D01*
X0037850Y0074065D02*
X0036338Y0074065D01*
X0036338Y0073266D02*
X0037850Y0073266D01*
X0038155Y0069273D02*
X0028875Y0069273D01*
X0030299Y0070072D02*
X0019650Y0070072D01*
X0019650Y0070870D02*
X0029663Y0070870D01*
X0029602Y0071669D02*
X0019650Y0071669D01*
X0020443Y0072468D02*
X0025358Y0072468D01*
X0025175Y0073266D02*
X0021195Y0073266D01*
X0021526Y0074065D02*
X0025175Y0074065D01*
X0025175Y0074863D02*
X0021650Y0074863D01*
X0021640Y0075662D02*
X0025221Y0075662D01*
X0024975Y0076460D02*
X0022114Y0076460D01*
X0023234Y0077259D02*
X0024963Y0077259D01*
X0027522Y0074065D02*
X0027777Y0074065D01*
X0027777Y0073266D02*
X0027522Y0073266D01*
X0027522Y0072468D02*
X0027777Y0072468D01*
X0026025Y0069273D02*
X0019650Y0069273D01*
X0019650Y0068475D02*
X0021286Y0068475D01*
X0020487Y0067676D02*
X0019650Y0067676D01*
X0019650Y0066878D02*
X0020385Y0066878D01*
X0020385Y0066079D02*
X0019650Y0066079D01*
X0019650Y0065281D02*
X0020385Y0065281D01*
X0020385Y0064482D02*
X0019650Y0064482D01*
X0019650Y0063684D02*
X0020385Y0063684D01*
X0020385Y0062885D02*
X0019650Y0062885D01*
X0019165Y0062087D02*
X0020385Y0062087D01*
X0023285Y0064550D02*
X0025600Y0064550D01*
X0027450Y0066400D01*
X0032681Y0070072D02*
X0033259Y0070072D01*
X0033259Y0070870D02*
X0032681Y0070870D01*
X0032681Y0071669D02*
X0033259Y0071669D01*
X0038250Y0066200D02*
X0039161Y0067111D01*
X0040739Y0067111D01*
X0038250Y0066200D02*
X0038250Y0056200D01*
X0035250Y0056600D02*
X0023650Y0045000D01*
X0023650Y0030305D01*
X0028440Y0030305D01*
X0028535Y0030400D01*
X0033450Y0030945D02*
X0034250Y0030945D01*
X0034250Y0031743D02*
X0033450Y0031743D01*
X0033450Y0032542D02*
X0034250Y0032542D01*
X0034250Y0033340D02*
X0033450Y0033340D01*
X0033450Y0034139D02*
X0034250Y0034139D01*
X0034250Y0034937D02*
X0033450Y0034937D01*
X0033450Y0035736D02*
X0034250Y0035736D01*
X0030894Y0038930D02*
X0028650Y0038930D01*
X0028650Y0039729D02*
X0030179Y0039729D01*
X0029848Y0040527D02*
X0028650Y0040527D01*
X0028650Y0041326D02*
X0029750Y0041326D01*
X0029786Y0042124D02*
X0028650Y0042124D01*
X0028650Y0042923D02*
X0030117Y0042923D01*
X0030746Y0043721D02*
X0028650Y0043721D01*
X0029398Y0044520D02*
X0032119Y0044520D01*
X0039387Y0034337D02*
X0043050Y0038000D01*
X0045048Y0040527D02*
X0074348Y0040527D01*
X0074679Y0039729D02*
X0045798Y0039729D01*
X0039387Y0034337D02*
X0039165Y0034337D01*
X0039165Y0030400D02*
X0039165Y0030400D01*
X0036584Y0030146D02*
X0034250Y0030146D01*
X0034250Y0029348D02*
X0033450Y0029348D01*
X0033450Y0028549D02*
X0034250Y0028549D01*
X0034250Y0027751D02*
X0033450Y0027751D01*
X0033450Y0026952D02*
X0034250Y0026952D01*
X0034250Y0026154D02*
X0033450Y0026154D01*
X0033450Y0025355D02*
X0034250Y0025355D01*
X0034250Y0024557D02*
X0033450Y0024557D01*
X0010041Y0054900D02*
X0008240Y0054900D01*
X0008354Y0055699D02*
X0009716Y0055699D01*
X0009716Y0056497D02*
X0008467Y0056497D01*
X0008581Y0057296D02*
X0009716Y0057296D01*
X0009916Y0058094D02*
X0008695Y0058094D01*
X0008808Y0058893D02*
X0009716Y0058893D01*
X0009916Y0058250D02*
X0010175Y0058250D01*
X0010176Y0058250D01*
X0009916Y0058250D01*
X0009716Y0059691D02*
X0008922Y0059691D01*
X0009036Y0060490D02*
X0009716Y0060490D01*
X0009716Y0061288D02*
X0009150Y0061288D01*
X0009369Y0062087D02*
X0009716Y0062087D01*
X0009716Y0062885D02*
X0009601Y0062885D01*
X0012615Y0062975D02*
X0013625Y0062975D01*
X0015200Y0064550D01*
X0012615Y0064550D01*
X0015200Y0064550D02*
X0015650Y0065000D01*
X0015650Y0076800D01*
X0027426Y0080453D02*
X0030034Y0080453D01*
X0035906Y0080453D02*
X0092809Y0080453D01*
X0093444Y0079654D02*
X0082224Y0079654D01*
X0083023Y0078856D02*
X0093967Y0078856D01*
X0094474Y0078057D02*
X0083821Y0078057D01*
X0084620Y0077259D02*
X0094981Y0077259D01*
X0095489Y0076460D02*
X0085418Y0076460D01*
X0086217Y0075662D02*
X0095996Y0075662D01*
X0096503Y0074863D02*
X0087015Y0074863D01*
X0087814Y0074065D02*
X0097011Y0074065D01*
X0097401Y0073266D02*
X0088612Y0073266D01*
X0088630Y0072468D02*
X0097762Y0072468D01*
X0098122Y0071669D02*
X0088630Y0071669D01*
X0088630Y0070870D02*
X0098483Y0070870D01*
X0098844Y0070072D02*
X0088630Y0070072D01*
X0082250Y0071200D02*
X0080111Y0073339D01*
X0074120Y0073339D01*
X0074450Y0073009D01*
X0074450Y0073000D01*
X0074120Y0068221D02*
X0078450Y0063891D01*
X0078450Y0055635D01*
X0035250Y0056600D02*
X0035250Y0061600D01*
D20*
X0035250Y0061600D03*
X0031450Y0059400D03*
X0029450Y0055400D03*
X0031450Y0064400D03*
X0027450Y0066400D03*
X0018450Y0075000D03*
X0020850Y0079400D03*
X0045050Y0069000D03*
X0058450Y0060400D03*
X0072450Y0060400D03*
X0082250Y0071200D03*
X0094650Y0055600D03*
X0098450Y0053000D03*
X0101450Y0049400D03*
X0082450Y0047400D03*
X0078450Y0045400D03*
X0077450Y0041400D03*
X0077450Y0037400D03*
X0072450Y0041400D03*
X0082450Y0036400D03*
X0090050Y0030200D03*
X0095250Y0030200D03*
X0077450Y0028400D03*
X0077450Y0017400D03*
X0059450Y0019900D03*
X0045450Y0025900D03*
X0043050Y0038000D03*
X0032950Y0041400D03*
X0016950Y0028400D03*
X0036450Y0013400D03*
X0058450Y0041400D03*
X0043102Y0055000D03*
X0015950Y0047400D03*
M02*
