G75*
%MOIN*%
%OFA0B0*%
%FSLAX25Y25*%
%IPPOS*%
%LPD*%
%AMOC8*
5,1,8,0,0,1.08239X$1,22.5*
%
%ADD10R,0.05088X0.01387*%
%ADD11C,0.03800*%
D10*
X0008703Y0058250D03*
X0008703Y0059825D03*
X0008703Y0061400D03*
X0008703Y0062975D03*
X0008703Y0064550D03*
X0019097Y0064550D03*
X0019097Y0062975D03*
X0019097Y0061400D03*
X0019097Y0059825D03*
X0019097Y0058250D03*
X0083703Y0044550D03*
X0083703Y0042975D03*
X0083703Y0041400D03*
X0083703Y0039825D03*
X0083703Y0038250D03*
X0094097Y0038250D03*
X0094097Y0039825D03*
X0094097Y0041400D03*
X0094097Y0042975D03*
X0094097Y0044550D03*
D11*
X0032400Y0013400D03*
X0041400Y0025900D03*
X0055400Y0019900D03*
X0073400Y0017400D03*
X0073400Y0028400D03*
X0078400Y0036400D03*
X0073400Y0037400D03*
X0073400Y0041400D03*
X0074400Y0045400D03*
X0078400Y0047400D03*
X0068400Y0041400D03*
X0054400Y0041400D03*
X0039000Y0038000D03*
X0028900Y0041400D03*
X0039052Y0055000D03*
X0031200Y0061600D03*
X0027400Y0059400D03*
X0025400Y0055400D03*
X0027400Y0064400D03*
X0023400Y0066400D03*
X0014400Y0075000D03*
X0016800Y0079400D03*
X0041000Y0069000D03*
X0054400Y0060400D03*
X0068400Y0060400D03*
X0078200Y0071200D03*
X0090600Y0055600D03*
X0094400Y0053000D03*
X0097400Y0049400D03*
X0091200Y0030200D03*
X0086000Y0030200D03*
X0012900Y0028400D03*
X0011900Y0047400D03*
M02*
