G75*
%MOIN*%
%OFA0B0*%
%FSLAX25Y25*%
%IPPOS*%
%LPD*%
%AMOC8*
5,1,8,0,0,1.08239X$1,22.5*
%
%ADD10C,0.00500*%
D10*
X0005450Y0051400D02*
X0005465Y0050182D01*
X0005509Y0048966D01*
X0005583Y0047750D01*
X0005687Y0046537D01*
X0005820Y0045327D01*
X0005983Y0044120D01*
X0006175Y0042918D01*
X0006396Y0041720D01*
X0006646Y0040528D01*
X0006925Y0039343D01*
X0007233Y0038165D01*
X0007570Y0036995D01*
X0007935Y0035833D01*
X0008328Y0034681D01*
X0008749Y0033538D01*
X0009198Y0032407D01*
X0009674Y0031286D01*
X0010178Y0030177D01*
X0010708Y0029081D01*
X0011265Y0027998D01*
X0011848Y0026929D01*
X0012456Y0025875D01*
X0013091Y0024835D01*
X0013750Y0023812D01*
X0014434Y0022804D01*
X0015143Y0021814D01*
X0015875Y0020841D01*
X0016631Y0019887D01*
X0017410Y0018951D01*
X0018211Y0018034D01*
X0019035Y0017137D01*
X0019880Y0016261D01*
X0020746Y0015405D01*
X0021633Y0014570D01*
X0022540Y0013758D01*
X0023466Y0012968D01*
X0024412Y0012200D01*
X0025375Y0011456D01*
X0026357Y0010736D01*
X0027356Y0010039D01*
X0028371Y0009367D01*
X0029403Y0008720D01*
X0030450Y0008099D01*
X0031512Y0007503D01*
X0032588Y0006933D01*
X0033677Y0006389D01*
X0034780Y0005873D01*
X0035895Y0005383D01*
X0037021Y0004920D01*
X0038158Y0004485D01*
X0039306Y0004078D01*
X0040463Y0003699D01*
X0041629Y0003348D01*
X0042803Y0003026D01*
X0043985Y0002732D01*
X0045174Y0002467D01*
X0046368Y0002232D01*
X0047568Y0002025D01*
X0048773Y0001848D01*
X0049981Y0001700D01*
X0051193Y0001582D01*
X0052408Y0001493D01*
X0053624Y0001433D01*
X0054841Y0001404D01*
X0056059Y0001404D01*
X0057276Y0001433D01*
X0058492Y0001493D01*
X0059707Y0001582D01*
X0060919Y0001700D01*
X0062127Y0001848D01*
X0063332Y0002025D01*
X0064532Y0002232D01*
X0065726Y0002467D01*
X0066915Y0002732D01*
X0068097Y0003026D01*
X0069271Y0003348D01*
X0070437Y0003699D01*
X0071594Y0004078D01*
X0072742Y0004485D01*
X0073879Y0004920D01*
X0075005Y0005383D01*
X0076120Y0005873D01*
X0077223Y0006389D01*
X0078312Y0006933D01*
X0079388Y0007503D01*
X0080450Y0008099D01*
X0081497Y0008720D01*
X0082529Y0009367D01*
X0083544Y0010039D01*
X0084543Y0010736D01*
X0085525Y0011456D01*
X0086488Y0012200D01*
X0087434Y0012968D01*
X0088360Y0013758D01*
X0089267Y0014570D01*
X0090154Y0015405D01*
X0091020Y0016261D01*
X0091865Y0017137D01*
X0092689Y0018034D01*
X0093490Y0018951D01*
X0094269Y0019887D01*
X0095025Y0020841D01*
X0095757Y0021814D01*
X0096466Y0022804D01*
X0097150Y0023812D01*
X0097809Y0024835D01*
X0098444Y0025875D01*
X0099052Y0026929D01*
X0099635Y0027998D01*
X0100192Y0029081D01*
X0100722Y0030177D01*
X0101226Y0031286D01*
X0101702Y0032407D01*
X0102151Y0033538D01*
X0102572Y0034681D01*
X0102965Y0035833D01*
X0103330Y0036995D01*
X0103667Y0038165D01*
X0103975Y0039343D01*
X0104254Y0040528D01*
X0104504Y0041720D01*
X0104725Y0042918D01*
X0104917Y0044120D01*
X0105080Y0045327D01*
X0105213Y0046537D01*
X0105317Y0047750D01*
X0105391Y0048966D01*
X0105435Y0050182D01*
X0105450Y0051400D01*
X0093450Y0083900D02*
X0017450Y0083900D01*
X0093450Y0083900D02*
X0094232Y0082963D01*
X0094990Y0082008D01*
X0095725Y0081034D01*
X0096436Y0080043D01*
X0097122Y0079034D01*
X0097784Y0078009D01*
X0098420Y0076969D01*
X0099031Y0075913D01*
X0099616Y0074842D01*
X0100175Y0073758D01*
X0100707Y0072660D01*
X0101212Y0071550D01*
X0101690Y0070427D01*
X0102140Y0069294D01*
X0102563Y0068149D01*
X0102957Y0066995D01*
X0103323Y0065831D01*
X0103661Y0064659D01*
X0103970Y0063479D01*
X0104250Y0062292D01*
X0104501Y0061098D01*
X0104723Y0059898D01*
X0104916Y0058694D01*
X0105079Y0057485D01*
X0105212Y0056272D01*
X0105316Y0055057D01*
X0105391Y0053839D01*
X0105435Y0052620D01*
X0105450Y0051400D01*
X0017450Y0083900D02*
X0016668Y0082963D01*
X0015910Y0082008D01*
X0015175Y0081034D01*
X0014464Y0080043D01*
X0013778Y0079034D01*
X0013116Y0078009D01*
X0012480Y0076969D01*
X0011869Y0075913D01*
X0011284Y0074842D01*
X0010725Y0073758D01*
X0010193Y0072660D01*
X0009688Y0071550D01*
X0009210Y0070427D01*
X0008760Y0069294D01*
X0008337Y0068149D01*
X0007943Y0066995D01*
X0007577Y0065831D01*
X0007239Y0064659D01*
X0006930Y0063479D01*
X0006650Y0062292D01*
X0006399Y0061098D01*
X0006177Y0059898D01*
X0005984Y0058694D01*
X0005821Y0057485D01*
X0005688Y0056272D01*
X0005584Y0055057D01*
X0005509Y0053839D01*
X0005465Y0052620D01*
X0005450Y0051400D01*
M02*
