%
M48
M72
T01C0.0160
%
T01
X2365Y2020
X1555Y3440
X1595Y4740
X2945Y5540
X3145Y5940
X3525Y6160
X3145Y6440
X2745Y6640
X1845Y7500
X2085Y7940
X4605Y6900
X5845Y6040
X7245Y6040
X8225Y7120
X9465Y5560
X9845Y5300
X10145Y4940
X8245Y4740
X7845Y4540
X7745Y4140
X7745Y3740
X7245Y4140
X8245Y3640
X9005Y3020
X9525Y3020
X7745Y2840
X7745Y1740
X5945Y1990
X4545Y2450
X4305Y3800
X3345Y4140
X3265Y4800
X4310Y5600
X5845Y4140
X4385Y1080
M30
