G75*
%MOIN*%
%OFA0B0*%
%FSLAX25Y25*%
%IPPOS*%
%LPD*%
%AMOC8*
5,1,8,0,0,1.08239X$1,22.5*
%
%ADD10C,0.02600*%
%ADD11R,0.03198X0.01506*%
%ADD12R,0.03198X0.01781*%
%ADD13R,0.02962X0.02175*%
%ADD14R,0.06506X0.10049*%
%ADD15R,0.05718X0.02175*%
%ADD16R,0.03750X0.01978*%
%ADD17R,0.01978X0.03750*%
%ADD18R,0.04537X0.03356*%
%ADD19R,0.02750X0.02710*%
%ADD20R,0.03750X0.03750*%
%ADD21R,0.01781X0.03750*%
%ADD22R,0.03750X0.01781*%
%ADD23R,0.02710X0.02750*%
D10*
X0050400Y0005800D03*
X0053000Y0005600D03*
X0055500Y0005500D03*
X0058000Y0005600D03*
X0060500Y0005800D03*
X0105200Y0050100D03*
X0105400Y0052600D03*
X0105500Y0055100D03*
X0105400Y0057600D03*
X0105200Y0060200D03*
X0060500Y0088000D03*
X0058000Y0088000D03*
X0055500Y0088000D03*
X0053000Y0088000D03*
X0050500Y0088000D03*
X0005800Y0060200D03*
X0005600Y0057600D03*
X0005500Y0055100D03*
X0005600Y0052600D03*
X0005800Y0050100D03*
D11*
X0012665Y0062350D03*
X0012665Y0063925D03*
X0012665Y0065500D03*
X0012665Y0067075D03*
X0012665Y0068650D03*
X0023335Y0068650D03*
X0023335Y0067075D03*
X0023335Y0065500D03*
X0023335Y0063925D03*
X0023335Y0062350D03*
X0087665Y0048650D03*
X0087665Y0047075D03*
X0087665Y0045500D03*
X0087665Y0043925D03*
X0087665Y0042350D03*
X0098335Y0042350D03*
X0098335Y0043925D03*
X0098335Y0045500D03*
X0098335Y0047075D03*
X0098335Y0048650D03*
D12*
X0098335Y0050421D03*
X0098335Y0040579D03*
X0087665Y0040579D03*
X0087665Y0050421D03*
X0023335Y0060579D03*
X0023335Y0070421D03*
X0012665Y0070421D03*
X0012665Y0060579D03*
D13*
X0024185Y0029963D03*
X0024185Y0033900D03*
X0024185Y0037837D03*
X0034815Y0037837D03*
X0034815Y0033900D03*
X0034815Y0029963D03*
D14*
X0029500Y0033900D03*
D15*
X0067870Y0072321D03*
X0067870Y0074880D03*
X0067870Y0077439D03*
X0074170Y0077439D03*
X0074170Y0074880D03*
X0074170Y0072321D03*
D16*
X0051041Y0073180D03*
X0051041Y0071211D03*
X0051041Y0069243D03*
X0051041Y0075148D03*
X0051041Y0077117D03*
X0041199Y0077117D03*
X0041199Y0075148D03*
X0041199Y0073180D03*
X0041199Y0071211D03*
X0041199Y0069243D03*
D17*
X0044152Y0068259D03*
X0046120Y0068259D03*
X0048089Y0068259D03*
X0048089Y0078101D03*
X0046120Y0078101D03*
X0044152Y0078101D03*
D18*
X0033020Y0076761D03*
X0033020Y0081879D03*
D19*
X0027700Y0081725D03*
X0027700Y0078315D03*
X0014900Y0050805D03*
X0014900Y0047395D03*
X0019500Y0033805D03*
X0019500Y0030395D03*
X0052300Y0030605D03*
X0052300Y0027195D03*
X0086680Y0067915D03*
X0086680Y0071325D03*
X0091100Y0071385D03*
X0091100Y0067975D03*
X0061700Y0075135D03*
X0061700Y0078545D03*
D20*
X0026653Y0050900D03*
X0020747Y0050900D03*
D21*
X0057763Y0030415D03*
X0059731Y0030415D03*
X0061700Y0030415D03*
X0063669Y0030415D03*
X0065637Y0030415D03*
X0065637Y0019785D03*
X0063669Y0019785D03*
X0061700Y0019785D03*
X0059731Y0019785D03*
X0057763Y0019785D03*
D22*
X0056680Y0023131D03*
X0056680Y0025100D03*
X0056680Y0027069D03*
X0066720Y0027069D03*
X0066720Y0025100D03*
X0066720Y0023131D03*
D23*
X0057805Y0015300D03*
X0054395Y0015300D03*
M02*
