G75*
%MOIN*%
%OFA0B0*%
%FSLAX25Y25*%
%IPPOS*%
%LPD*%
%AMOC8*
5,1,8,0,0,1.08239X$1,22.5*
%
%ADD10C,0.00000*%
D10*
X0053000Y0001000D02*
X0053013Y0001131D01*
X0053022Y0001262D01*
X0053027Y0001393D01*
X0053028Y0001524D01*
X0053025Y0001655D01*
X0053019Y0001786D01*
X0053008Y0001917D01*
X0052994Y0002047D01*
X0052976Y0002177D01*
X0052954Y0002307D01*
X0052928Y0002435D01*
X0052898Y0002563D01*
X0052865Y0002690D01*
X0052828Y0002816D01*
X0052787Y0002941D01*
X0052743Y0003064D01*
X0052694Y0003186D01*
X0052643Y0003307D01*
X0052587Y0003426D01*
X0052528Y0003543D01*
X0052466Y0003659D01*
X0052400Y0003772D01*
X0052331Y0003884D01*
X0052259Y0003993D01*
X0052184Y0004101D01*
X0052105Y0004206D01*
X0052023Y0004309D01*
X0051939Y0004409D01*
X0051851Y0004506D01*
X0051760Y0004601D01*
X0051667Y0004694D01*
X0051571Y0004783D01*
X0051473Y0004870D01*
X0051371Y0004953D01*
X0051268Y0005034D01*
X0051162Y0005112D01*
X0051054Y0005186D01*
X0050944Y0005257D01*
X0050831Y0005325D01*
X0050717Y0005389D01*
X0050601Y0005450D01*
X0050483Y0005508D01*
X0050363Y0005562D01*
X0050242Y0005612D01*
X0050119Y0005659D01*
X0049995Y0005702D01*
X0049870Y0005742D01*
X0049744Y0005778D01*
X0049617Y0005810D01*
X0049489Y0005838D01*
X0049360Y0005862D01*
X0049230Y0005883D01*
X0049100Y0005900D01*
X0049400Y0005800D02*
X0049402Y0005863D01*
X0049408Y0005925D01*
X0049418Y0005987D01*
X0049431Y0006049D01*
X0049449Y0006109D01*
X0049470Y0006168D01*
X0049495Y0006226D01*
X0049524Y0006282D01*
X0049556Y0006336D01*
X0049591Y0006388D01*
X0049629Y0006437D01*
X0049671Y0006485D01*
X0049715Y0006529D01*
X0049763Y0006571D01*
X0049812Y0006609D01*
X0049864Y0006644D01*
X0049918Y0006676D01*
X0049974Y0006705D01*
X0050032Y0006730D01*
X0050091Y0006751D01*
X0050151Y0006769D01*
X0050213Y0006782D01*
X0050275Y0006792D01*
X0050337Y0006798D01*
X0050400Y0006800D01*
X0050463Y0006798D01*
X0050525Y0006792D01*
X0050587Y0006782D01*
X0050649Y0006769D01*
X0050709Y0006751D01*
X0050768Y0006730D01*
X0050826Y0006705D01*
X0050882Y0006676D01*
X0050936Y0006644D01*
X0050988Y0006609D01*
X0051037Y0006571D01*
X0051085Y0006529D01*
X0051129Y0006485D01*
X0051171Y0006437D01*
X0051209Y0006388D01*
X0051244Y0006336D01*
X0051276Y0006282D01*
X0051305Y0006226D01*
X0051330Y0006168D01*
X0051351Y0006109D01*
X0051369Y0006049D01*
X0051382Y0005987D01*
X0051392Y0005925D01*
X0051398Y0005863D01*
X0051400Y0005800D01*
X0051398Y0005737D01*
X0051392Y0005675D01*
X0051382Y0005613D01*
X0051369Y0005551D01*
X0051351Y0005491D01*
X0051330Y0005432D01*
X0051305Y0005374D01*
X0051276Y0005318D01*
X0051244Y0005264D01*
X0051209Y0005212D01*
X0051171Y0005163D01*
X0051129Y0005115D01*
X0051085Y0005071D01*
X0051037Y0005029D01*
X0050988Y0004991D01*
X0050936Y0004956D01*
X0050882Y0004924D01*
X0050826Y0004895D01*
X0050768Y0004870D01*
X0050709Y0004849D01*
X0050649Y0004831D01*
X0050587Y0004818D01*
X0050525Y0004808D01*
X0050463Y0004802D01*
X0050400Y0004800D01*
X0050337Y0004802D01*
X0050275Y0004808D01*
X0050213Y0004818D01*
X0050151Y0004831D01*
X0050091Y0004849D01*
X0050032Y0004870D01*
X0049974Y0004895D01*
X0049918Y0004924D01*
X0049864Y0004956D01*
X0049812Y0004991D01*
X0049763Y0005029D01*
X0049715Y0005071D01*
X0049671Y0005115D01*
X0049629Y0005163D01*
X0049591Y0005212D01*
X0049556Y0005264D01*
X0049524Y0005318D01*
X0049495Y0005374D01*
X0049470Y0005432D01*
X0049449Y0005491D01*
X0049431Y0005551D01*
X0049418Y0005613D01*
X0049408Y0005675D01*
X0049402Y0005737D01*
X0049400Y0005800D01*
X0052000Y0005600D02*
X0052002Y0005663D01*
X0052008Y0005725D01*
X0052018Y0005787D01*
X0052031Y0005849D01*
X0052049Y0005909D01*
X0052070Y0005968D01*
X0052095Y0006026D01*
X0052124Y0006082D01*
X0052156Y0006136D01*
X0052191Y0006188D01*
X0052229Y0006237D01*
X0052271Y0006285D01*
X0052315Y0006329D01*
X0052363Y0006371D01*
X0052412Y0006409D01*
X0052464Y0006444D01*
X0052518Y0006476D01*
X0052574Y0006505D01*
X0052632Y0006530D01*
X0052691Y0006551D01*
X0052751Y0006569D01*
X0052813Y0006582D01*
X0052875Y0006592D01*
X0052937Y0006598D01*
X0053000Y0006600D01*
X0053063Y0006598D01*
X0053125Y0006592D01*
X0053187Y0006582D01*
X0053249Y0006569D01*
X0053309Y0006551D01*
X0053368Y0006530D01*
X0053426Y0006505D01*
X0053482Y0006476D01*
X0053536Y0006444D01*
X0053588Y0006409D01*
X0053637Y0006371D01*
X0053685Y0006329D01*
X0053729Y0006285D01*
X0053771Y0006237D01*
X0053809Y0006188D01*
X0053844Y0006136D01*
X0053876Y0006082D01*
X0053905Y0006026D01*
X0053930Y0005968D01*
X0053951Y0005909D01*
X0053969Y0005849D01*
X0053982Y0005787D01*
X0053992Y0005725D01*
X0053998Y0005663D01*
X0054000Y0005600D01*
X0053998Y0005537D01*
X0053992Y0005475D01*
X0053982Y0005413D01*
X0053969Y0005351D01*
X0053951Y0005291D01*
X0053930Y0005232D01*
X0053905Y0005174D01*
X0053876Y0005118D01*
X0053844Y0005064D01*
X0053809Y0005012D01*
X0053771Y0004963D01*
X0053729Y0004915D01*
X0053685Y0004871D01*
X0053637Y0004829D01*
X0053588Y0004791D01*
X0053536Y0004756D01*
X0053482Y0004724D01*
X0053426Y0004695D01*
X0053368Y0004670D01*
X0053309Y0004649D01*
X0053249Y0004631D01*
X0053187Y0004618D01*
X0053125Y0004608D01*
X0053063Y0004602D01*
X0053000Y0004600D01*
X0052937Y0004602D01*
X0052875Y0004608D01*
X0052813Y0004618D01*
X0052751Y0004631D01*
X0052691Y0004649D01*
X0052632Y0004670D01*
X0052574Y0004695D01*
X0052518Y0004724D01*
X0052464Y0004756D01*
X0052412Y0004791D01*
X0052363Y0004829D01*
X0052315Y0004871D01*
X0052271Y0004915D01*
X0052229Y0004963D01*
X0052191Y0005012D01*
X0052156Y0005064D01*
X0052124Y0005118D01*
X0052095Y0005174D01*
X0052070Y0005232D01*
X0052049Y0005291D01*
X0052031Y0005351D01*
X0052018Y0005413D01*
X0052008Y0005475D01*
X0052002Y0005537D01*
X0052000Y0005600D01*
X0054500Y0005500D02*
X0054502Y0005563D01*
X0054508Y0005625D01*
X0054518Y0005687D01*
X0054531Y0005749D01*
X0054549Y0005809D01*
X0054570Y0005868D01*
X0054595Y0005926D01*
X0054624Y0005982D01*
X0054656Y0006036D01*
X0054691Y0006088D01*
X0054729Y0006137D01*
X0054771Y0006185D01*
X0054815Y0006229D01*
X0054863Y0006271D01*
X0054912Y0006309D01*
X0054964Y0006344D01*
X0055018Y0006376D01*
X0055074Y0006405D01*
X0055132Y0006430D01*
X0055191Y0006451D01*
X0055251Y0006469D01*
X0055313Y0006482D01*
X0055375Y0006492D01*
X0055437Y0006498D01*
X0055500Y0006500D01*
X0055563Y0006498D01*
X0055625Y0006492D01*
X0055687Y0006482D01*
X0055749Y0006469D01*
X0055809Y0006451D01*
X0055868Y0006430D01*
X0055926Y0006405D01*
X0055982Y0006376D01*
X0056036Y0006344D01*
X0056088Y0006309D01*
X0056137Y0006271D01*
X0056185Y0006229D01*
X0056229Y0006185D01*
X0056271Y0006137D01*
X0056309Y0006088D01*
X0056344Y0006036D01*
X0056376Y0005982D01*
X0056405Y0005926D01*
X0056430Y0005868D01*
X0056451Y0005809D01*
X0056469Y0005749D01*
X0056482Y0005687D01*
X0056492Y0005625D01*
X0056498Y0005563D01*
X0056500Y0005500D01*
X0056498Y0005437D01*
X0056492Y0005375D01*
X0056482Y0005313D01*
X0056469Y0005251D01*
X0056451Y0005191D01*
X0056430Y0005132D01*
X0056405Y0005074D01*
X0056376Y0005018D01*
X0056344Y0004964D01*
X0056309Y0004912D01*
X0056271Y0004863D01*
X0056229Y0004815D01*
X0056185Y0004771D01*
X0056137Y0004729D01*
X0056088Y0004691D01*
X0056036Y0004656D01*
X0055982Y0004624D01*
X0055926Y0004595D01*
X0055868Y0004570D01*
X0055809Y0004549D01*
X0055749Y0004531D01*
X0055687Y0004518D01*
X0055625Y0004508D01*
X0055563Y0004502D01*
X0055500Y0004500D01*
X0055437Y0004502D01*
X0055375Y0004508D01*
X0055313Y0004518D01*
X0055251Y0004531D01*
X0055191Y0004549D01*
X0055132Y0004570D01*
X0055074Y0004595D01*
X0055018Y0004624D01*
X0054964Y0004656D01*
X0054912Y0004691D01*
X0054863Y0004729D01*
X0054815Y0004771D01*
X0054771Y0004815D01*
X0054729Y0004863D01*
X0054691Y0004912D01*
X0054656Y0004964D01*
X0054624Y0005018D01*
X0054595Y0005074D01*
X0054570Y0005132D01*
X0054549Y0005191D01*
X0054531Y0005251D01*
X0054518Y0005313D01*
X0054508Y0005375D01*
X0054502Y0005437D01*
X0054500Y0005500D01*
X0057000Y0005600D02*
X0057002Y0005663D01*
X0057008Y0005725D01*
X0057018Y0005787D01*
X0057031Y0005849D01*
X0057049Y0005909D01*
X0057070Y0005968D01*
X0057095Y0006026D01*
X0057124Y0006082D01*
X0057156Y0006136D01*
X0057191Y0006188D01*
X0057229Y0006237D01*
X0057271Y0006285D01*
X0057315Y0006329D01*
X0057363Y0006371D01*
X0057412Y0006409D01*
X0057464Y0006444D01*
X0057518Y0006476D01*
X0057574Y0006505D01*
X0057632Y0006530D01*
X0057691Y0006551D01*
X0057751Y0006569D01*
X0057813Y0006582D01*
X0057875Y0006592D01*
X0057937Y0006598D01*
X0058000Y0006600D01*
X0058063Y0006598D01*
X0058125Y0006592D01*
X0058187Y0006582D01*
X0058249Y0006569D01*
X0058309Y0006551D01*
X0058368Y0006530D01*
X0058426Y0006505D01*
X0058482Y0006476D01*
X0058536Y0006444D01*
X0058588Y0006409D01*
X0058637Y0006371D01*
X0058685Y0006329D01*
X0058729Y0006285D01*
X0058771Y0006237D01*
X0058809Y0006188D01*
X0058844Y0006136D01*
X0058876Y0006082D01*
X0058905Y0006026D01*
X0058930Y0005968D01*
X0058951Y0005909D01*
X0058969Y0005849D01*
X0058982Y0005787D01*
X0058992Y0005725D01*
X0058998Y0005663D01*
X0059000Y0005600D01*
X0058998Y0005537D01*
X0058992Y0005475D01*
X0058982Y0005413D01*
X0058969Y0005351D01*
X0058951Y0005291D01*
X0058930Y0005232D01*
X0058905Y0005174D01*
X0058876Y0005118D01*
X0058844Y0005064D01*
X0058809Y0005012D01*
X0058771Y0004963D01*
X0058729Y0004915D01*
X0058685Y0004871D01*
X0058637Y0004829D01*
X0058588Y0004791D01*
X0058536Y0004756D01*
X0058482Y0004724D01*
X0058426Y0004695D01*
X0058368Y0004670D01*
X0058309Y0004649D01*
X0058249Y0004631D01*
X0058187Y0004618D01*
X0058125Y0004608D01*
X0058063Y0004602D01*
X0058000Y0004600D01*
X0057937Y0004602D01*
X0057875Y0004608D01*
X0057813Y0004618D01*
X0057751Y0004631D01*
X0057691Y0004649D01*
X0057632Y0004670D01*
X0057574Y0004695D01*
X0057518Y0004724D01*
X0057464Y0004756D01*
X0057412Y0004791D01*
X0057363Y0004829D01*
X0057315Y0004871D01*
X0057271Y0004915D01*
X0057229Y0004963D01*
X0057191Y0005012D01*
X0057156Y0005064D01*
X0057124Y0005118D01*
X0057095Y0005174D01*
X0057070Y0005232D01*
X0057049Y0005291D01*
X0057031Y0005351D01*
X0057018Y0005413D01*
X0057008Y0005475D01*
X0057002Y0005537D01*
X0057000Y0005600D01*
X0059500Y0005800D02*
X0059502Y0005863D01*
X0059508Y0005925D01*
X0059518Y0005987D01*
X0059531Y0006049D01*
X0059549Y0006109D01*
X0059570Y0006168D01*
X0059595Y0006226D01*
X0059624Y0006282D01*
X0059656Y0006336D01*
X0059691Y0006388D01*
X0059729Y0006437D01*
X0059771Y0006485D01*
X0059815Y0006529D01*
X0059863Y0006571D01*
X0059912Y0006609D01*
X0059964Y0006644D01*
X0060018Y0006676D01*
X0060074Y0006705D01*
X0060132Y0006730D01*
X0060191Y0006751D01*
X0060251Y0006769D01*
X0060313Y0006782D01*
X0060375Y0006792D01*
X0060437Y0006798D01*
X0060500Y0006800D01*
X0060563Y0006798D01*
X0060625Y0006792D01*
X0060687Y0006782D01*
X0060749Y0006769D01*
X0060809Y0006751D01*
X0060868Y0006730D01*
X0060926Y0006705D01*
X0060982Y0006676D01*
X0061036Y0006644D01*
X0061088Y0006609D01*
X0061137Y0006571D01*
X0061185Y0006529D01*
X0061229Y0006485D01*
X0061271Y0006437D01*
X0061309Y0006388D01*
X0061344Y0006336D01*
X0061376Y0006282D01*
X0061405Y0006226D01*
X0061430Y0006168D01*
X0061451Y0006109D01*
X0061469Y0006049D01*
X0061482Y0005987D01*
X0061492Y0005925D01*
X0061498Y0005863D01*
X0061500Y0005800D01*
X0061498Y0005737D01*
X0061492Y0005675D01*
X0061482Y0005613D01*
X0061469Y0005551D01*
X0061451Y0005491D01*
X0061430Y0005432D01*
X0061405Y0005374D01*
X0061376Y0005318D01*
X0061344Y0005264D01*
X0061309Y0005212D01*
X0061271Y0005163D01*
X0061229Y0005115D01*
X0061185Y0005071D01*
X0061137Y0005029D01*
X0061088Y0004991D01*
X0061036Y0004956D01*
X0060982Y0004924D01*
X0060926Y0004895D01*
X0060868Y0004870D01*
X0060809Y0004849D01*
X0060749Y0004831D01*
X0060687Y0004818D01*
X0060625Y0004808D01*
X0060563Y0004802D01*
X0060500Y0004800D01*
X0060437Y0004802D01*
X0060375Y0004808D01*
X0060313Y0004818D01*
X0060251Y0004831D01*
X0060191Y0004849D01*
X0060132Y0004870D01*
X0060074Y0004895D01*
X0060018Y0004924D01*
X0059964Y0004956D01*
X0059912Y0004991D01*
X0059863Y0005029D01*
X0059815Y0005071D01*
X0059771Y0005115D01*
X0059729Y0005163D01*
X0059691Y0005212D01*
X0059656Y0005264D01*
X0059624Y0005318D01*
X0059595Y0005374D01*
X0059570Y0005432D01*
X0059549Y0005491D01*
X0059531Y0005551D01*
X0059518Y0005613D01*
X0059508Y0005675D01*
X0059502Y0005737D01*
X0059500Y0005800D01*
X0061900Y0005900D02*
X0061770Y0005883D01*
X0061640Y0005862D01*
X0061511Y0005838D01*
X0061383Y0005810D01*
X0061256Y0005778D01*
X0061130Y0005742D01*
X0061005Y0005702D01*
X0060881Y0005659D01*
X0060758Y0005612D01*
X0060637Y0005562D01*
X0060517Y0005508D01*
X0060399Y0005450D01*
X0060283Y0005389D01*
X0060169Y0005325D01*
X0060056Y0005257D01*
X0059946Y0005186D01*
X0059838Y0005112D01*
X0059732Y0005034D01*
X0059629Y0004953D01*
X0059527Y0004870D01*
X0059429Y0004783D01*
X0059333Y0004694D01*
X0059240Y0004601D01*
X0059149Y0004506D01*
X0059061Y0004409D01*
X0058977Y0004309D01*
X0058895Y0004206D01*
X0058816Y0004101D01*
X0058741Y0003993D01*
X0058669Y0003884D01*
X0058600Y0003772D01*
X0058534Y0003659D01*
X0058472Y0003543D01*
X0058413Y0003426D01*
X0058357Y0003307D01*
X0058306Y0003186D01*
X0058257Y0003064D01*
X0058213Y0002941D01*
X0058172Y0002816D01*
X0058135Y0002690D01*
X0058102Y0002563D01*
X0058072Y0002435D01*
X0058046Y0002307D01*
X0058024Y0002177D01*
X0058006Y0002047D01*
X0057992Y0001917D01*
X0057981Y0001786D01*
X0057975Y0001655D01*
X0057972Y0001524D01*
X0057973Y0001393D01*
X0057978Y0001262D01*
X0057987Y0001131D01*
X0058000Y0001000D01*
X0105000Y0048400D02*
X0105014Y0048534D01*
X0105031Y0048667D01*
X0105053Y0048799D01*
X0105078Y0048931D01*
X0105107Y0049062D01*
X0105140Y0049193D01*
X0105176Y0049322D01*
X0105217Y0049450D01*
X0105261Y0049577D01*
X0105308Y0049702D01*
X0105360Y0049826D01*
X0105415Y0049949D01*
X0105473Y0050070D01*
X0105535Y0050189D01*
X0105600Y0050306D01*
X0105669Y0050422D01*
X0105741Y0050535D01*
X0105817Y0050646D01*
X0105895Y0050755D01*
X0105977Y0050862D01*
X0106062Y0050966D01*
X0106149Y0051068D01*
X0106240Y0051167D01*
X0106334Y0051263D01*
X0106430Y0051357D01*
X0106529Y0051447D01*
X0106630Y0051535D01*
X0106734Y0051620D01*
X0106841Y0051702D01*
X0106950Y0051781D01*
X0107061Y0051856D01*
X0107174Y0051928D01*
X0107289Y0051997D01*
X0107407Y0052063D01*
X0107526Y0052125D01*
X0107647Y0052183D01*
X0107769Y0052238D01*
X0107893Y0052290D01*
X0108019Y0052338D01*
X0108145Y0052382D01*
X0108273Y0052422D01*
X0108403Y0052459D01*
X0108533Y0052492D01*
X0108664Y0052521D01*
X0108796Y0052546D01*
X0108928Y0052568D01*
X0109062Y0052585D01*
X0109195Y0052599D01*
X0109329Y0052609D01*
X0109463Y0052615D01*
X0109598Y0052617D01*
X0109732Y0052615D01*
X0109866Y0052609D01*
X0110000Y0052600D01*
X0104500Y0055100D02*
X0104502Y0055163D01*
X0104508Y0055225D01*
X0104518Y0055287D01*
X0104531Y0055349D01*
X0104549Y0055409D01*
X0104570Y0055468D01*
X0104595Y0055526D01*
X0104624Y0055582D01*
X0104656Y0055636D01*
X0104691Y0055688D01*
X0104729Y0055737D01*
X0104771Y0055785D01*
X0104815Y0055829D01*
X0104863Y0055871D01*
X0104912Y0055909D01*
X0104964Y0055944D01*
X0105018Y0055976D01*
X0105074Y0056005D01*
X0105132Y0056030D01*
X0105191Y0056051D01*
X0105251Y0056069D01*
X0105313Y0056082D01*
X0105375Y0056092D01*
X0105437Y0056098D01*
X0105500Y0056100D01*
X0105563Y0056098D01*
X0105625Y0056092D01*
X0105687Y0056082D01*
X0105749Y0056069D01*
X0105809Y0056051D01*
X0105868Y0056030D01*
X0105926Y0056005D01*
X0105982Y0055976D01*
X0106036Y0055944D01*
X0106088Y0055909D01*
X0106137Y0055871D01*
X0106185Y0055829D01*
X0106229Y0055785D01*
X0106271Y0055737D01*
X0106309Y0055688D01*
X0106344Y0055636D01*
X0106376Y0055582D01*
X0106405Y0055526D01*
X0106430Y0055468D01*
X0106451Y0055409D01*
X0106469Y0055349D01*
X0106482Y0055287D01*
X0106492Y0055225D01*
X0106498Y0055163D01*
X0106500Y0055100D01*
X0106498Y0055037D01*
X0106492Y0054975D01*
X0106482Y0054913D01*
X0106469Y0054851D01*
X0106451Y0054791D01*
X0106430Y0054732D01*
X0106405Y0054674D01*
X0106376Y0054618D01*
X0106344Y0054564D01*
X0106309Y0054512D01*
X0106271Y0054463D01*
X0106229Y0054415D01*
X0106185Y0054371D01*
X0106137Y0054329D01*
X0106088Y0054291D01*
X0106036Y0054256D01*
X0105982Y0054224D01*
X0105926Y0054195D01*
X0105868Y0054170D01*
X0105809Y0054149D01*
X0105749Y0054131D01*
X0105687Y0054118D01*
X0105625Y0054108D01*
X0105563Y0054102D01*
X0105500Y0054100D01*
X0105437Y0054102D01*
X0105375Y0054108D01*
X0105313Y0054118D01*
X0105251Y0054131D01*
X0105191Y0054149D01*
X0105132Y0054170D01*
X0105074Y0054195D01*
X0105018Y0054224D01*
X0104964Y0054256D01*
X0104912Y0054291D01*
X0104863Y0054329D01*
X0104815Y0054371D01*
X0104771Y0054415D01*
X0104729Y0054463D01*
X0104691Y0054512D01*
X0104656Y0054564D01*
X0104624Y0054618D01*
X0104595Y0054674D01*
X0104570Y0054732D01*
X0104549Y0054791D01*
X0104531Y0054851D01*
X0104518Y0054913D01*
X0104508Y0054975D01*
X0104502Y0055037D01*
X0104500Y0055100D01*
X0104400Y0052600D02*
X0104402Y0052663D01*
X0104408Y0052725D01*
X0104418Y0052787D01*
X0104431Y0052849D01*
X0104449Y0052909D01*
X0104470Y0052968D01*
X0104495Y0053026D01*
X0104524Y0053082D01*
X0104556Y0053136D01*
X0104591Y0053188D01*
X0104629Y0053237D01*
X0104671Y0053285D01*
X0104715Y0053329D01*
X0104763Y0053371D01*
X0104812Y0053409D01*
X0104864Y0053444D01*
X0104918Y0053476D01*
X0104974Y0053505D01*
X0105032Y0053530D01*
X0105091Y0053551D01*
X0105151Y0053569D01*
X0105213Y0053582D01*
X0105275Y0053592D01*
X0105337Y0053598D01*
X0105400Y0053600D01*
X0105463Y0053598D01*
X0105525Y0053592D01*
X0105587Y0053582D01*
X0105649Y0053569D01*
X0105709Y0053551D01*
X0105768Y0053530D01*
X0105826Y0053505D01*
X0105882Y0053476D01*
X0105936Y0053444D01*
X0105988Y0053409D01*
X0106037Y0053371D01*
X0106085Y0053329D01*
X0106129Y0053285D01*
X0106171Y0053237D01*
X0106209Y0053188D01*
X0106244Y0053136D01*
X0106276Y0053082D01*
X0106305Y0053026D01*
X0106330Y0052968D01*
X0106351Y0052909D01*
X0106369Y0052849D01*
X0106382Y0052787D01*
X0106392Y0052725D01*
X0106398Y0052663D01*
X0106400Y0052600D01*
X0106398Y0052537D01*
X0106392Y0052475D01*
X0106382Y0052413D01*
X0106369Y0052351D01*
X0106351Y0052291D01*
X0106330Y0052232D01*
X0106305Y0052174D01*
X0106276Y0052118D01*
X0106244Y0052064D01*
X0106209Y0052012D01*
X0106171Y0051963D01*
X0106129Y0051915D01*
X0106085Y0051871D01*
X0106037Y0051829D01*
X0105988Y0051791D01*
X0105936Y0051756D01*
X0105882Y0051724D01*
X0105826Y0051695D01*
X0105768Y0051670D01*
X0105709Y0051649D01*
X0105649Y0051631D01*
X0105587Y0051618D01*
X0105525Y0051608D01*
X0105463Y0051602D01*
X0105400Y0051600D01*
X0105337Y0051602D01*
X0105275Y0051608D01*
X0105213Y0051618D01*
X0105151Y0051631D01*
X0105091Y0051649D01*
X0105032Y0051670D01*
X0104974Y0051695D01*
X0104918Y0051724D01*
X0104864Y0051756D01*
X0104812Y0051791D01*
X0104763Y0051829D01*
X0104715Y0051871D01*
X0104671Y0051915D01*
X0104629Y0051963D01*
X0104591Y0052012D01*
X0104556Y0052064D01*
X0104524Y0052118D01*
X0104495Y0052174D01*
X0104470Y0052232D01*
X0104449Y0052291D01*
X0104431Y0052351D01*
X0104418Y0052413D01*
X0104408Y0052475D01*
X0104402Y0052537D01*
X0104400Y0052600D01*
X0104200Y0050100D02*
X0104202Y0050163D01*
X0104208Y0050225D01*
X0104218Y0050287D01*
X0104231Y0050349D01*
X0104249Y0050409D01*
X0104270Y0050468D01*
X0104295Y0050526D01*
X0104324Y0050582D01*
X0104356Y0050636D01*
X0104391Y0050688D01*
X0104429Y0050737D01*
X0104471Y0050785D01*
X0104515Y0050829D01*
X0104563Y0050871D01*
X0104612Y0050909D01*
X0104664Y0050944D01*
X0104718Y0050976D01*
X0104774Y0051005D01*
X0104832Y0051030D01*
X0104891Y0051051D01*
X0104951Y0051069D01*
X0105013Y0051082D01*
X0105075Y0051092D01*
X0105137Y0051098D01*
X0105200Y0051100D01*
X0105263Y0051098D01*
X0105325Y0051092D01*
X0105387Y0051082D01*
X0105449Y0051069D01*
X0105509Y0051051D01*
X0105568Y0051030D01*
X0105626Y0051005D01*
X0105682Y0050976D01*
X0105736Y0050944D01*
X0105788Y0050909D01*
X0105837Y0050871D01*
X0105885Y0050829D01*
X0105929Y0050785D01*
X0105971Y0050737D01*
X0106009Y0050688D01*
X0106044Y0050636D01*
X0106076Y0050582D01*
X0106105Y0050526D01*
X0106130Y0050468D01*
X0106151Y0050409D01*
X0106169Y0050349D01*
X0106182Y0050287D01*
X0106192Y0050225D01*
X0106198Y0050163D01*
X0106200Y0050100D01*
X0106198Y0050037D01*
X0106192Y0049975D01*
X0106182Y0049913D01*
X0106169Y0049851D01*
X0106151Y0049791D01*
X0106130Y0049732D01*
X0106105Y0049674D01*
X0106076Y0049618D01*
X0106044Y0049564D01*
X0106009Y0049512D01*
X0105971Y0049463D01*
X0105929Y0049415D01*
X0105885Y0049371D01*
X0105837Y0049329D01*
X0105788Y0049291D01*
X0105736Y0049256D01*
X0105682Y0049224D01*
X0105626Y0049195D01*
X0105568Y0049170D01*
X0105509Y0049149D01*
X0105449Y0049131D01*
X0105387Y0049118D01*
X0105325Y0049108D01*
X0105263Y0049102D01*
X0105200Y0049100D01*
X0105137Y0049102D01*
X0105075Y0049108D01*
X0105013Y0049118D01*
X0104951Y0049131D01*
X0104891Y0049149D01*
X0104832Y0049170D01*
X0104774Y0049195D01*
X0104718Y0049224D01*
X0104664Y0049256D01*
X0104612Y0049291D01*
X0104563Y0049329D01*
X0104515Y0049371D01*
X0104471Y0049415D01*
X0104429Y0049463D01*
X0104391Y0049512D01*
X0104356Y0049564D01*
X0104324Y0049618D01*
X0104295Y0049674D01*
X0104270Y0049732D01*
X0104249Y0049791D01*
X0104231Y0049851D01*
X0104218Y0049913D01*
X0104208Y0049975D01*
X0104202Y0050037D01*
X0104200Y0050100D01*
X0104400Y0057600D02*
X0104402Y0057663D01*
X0104408Y0057725D01*
X0104418Y0057787D01*
X0104431Y0057849D01*
X0104449Y0057909D01*
X0104470Y0057968D01*
X0104495Y0058026D01*
X0104524Y0058082D01*
X0104556Y0058136D01*
X0104591Y0058188D01*
X0104629Y0058237D01*
X0104671Y0058285D01*
X0104715Y0058329D01*
X0104763Y0058371D01*
X0104812Y0058409D01*
X0104864Y0058444D01*
X0104918Y0058476D01*
X0104974Y0058505D01*
X0105032Y0058530D01*
X0105091Y0058551D01*
X0105151Y0058569D01*
X0105213Y0058582D01*
X0105275Y0058592D01*
X0105337Y0058598D01*
X0105400Y0058600D01*
X0105463Y0058598D01*
X0105525Y0058592D01*
X0105587Y0058582D01*
X0105649Y0058569D01*
X0105709Y0058551D01*
X0105768Y0058530D01*
X0105826Y0058505D01*
X0105882Y0058476D01*
X0105936Y0058444D01*
X0105988Y0058409D01*
X0106037Y0058371D01*
X0106085Y0058329D01*
X0106129Y0058285D01*
X0106171Y0058237D01*
X0106209Y0058188D01*
X0106244Y0058136D01*
X0106276Y0058082D01*
X0106305Y0058026D01*
X0106330Y0057968D01*
X0106351Y0057909D01*
X0106369Y0057849D01*
X0106382Y0057787D01*
X0106392Y0057725D01*
X0106398Y0057663D01*
X0106400Y0057600D01*
X0106398Y0057537D01*
X0106392Y0057475D01*
X0106382Y0057413D01*
X0106369Y0057351D01*
X0106351Y0057291D01*
X0106330Y0057232D01*
X0106305Y0057174D01*
X0106276Y0057118D01*
X0106244Y0057064D01*
X0106209Y0057012D01*
X0106171Y0056963D01*
X0106129Y0056915D01*
X0106085Y0056871D01*
X0106037Y0056829D01*
X0105988Y0056791D01*
X0105936Y0056756D01*
X0105882Y0056724D01*
X0105826Y0056695D01*
X0105768Y0056670D01*
X0105709Y0056649D01*
X0105649Y0056631D01*
X0105587Y0056618D01*
X0105525Y0056608D01*
X0105463Y0056602D01*
X0105400Y0056600D01*
X0105337Y0056602D01*
X0105275Y0056608D01*
X0105213Y0056618D01*
X0105151Y0056631D01*
X0105091Y0056649D01*
X0105032Y0056670D01*
X0104974Y0056695D01*
X0104918Y0056724D01*
X0104864Y0056756D01*
X0104812Y0056791D01*
X0104763Y0056829D01*
X0104715Y0056871D01*
X0104671Y0056915D01*
X0104629Y0056963D01*
X0104591Y0057012D01*
X0104556Y0057064D01*
X0104524Y0057118D01*
X0104495Y0057174D01*
X0104470Y0057232D01*
X0104449Y0057291D01*
X0104431Y0057351D01*
X0104418Y0057413D01*
X0104408Y0057475D01*
X0104402Y0057537D01*
X0104400Y0057600D01*
X0104200Y0060200D02*
X0104202Y0060263D01*
X0104208Y0060325D01*
X0104218Y0060387D01*
X0104231Y0060449D01*
X0104249Y0060509D01*
X0104270Y0060568D01*
X0104295Y0060626D01*
X0104324Y0060682D01*
X0104356Y0060736D01*
X0104391Y0060788D01*
X0104429Y0060837D01*
X0104471Y0060885D01*
X0104515Y0060929D01*
X0104563Y0060971D01*
X0104612Y0061009D01*
X0104664Y0061044D01*
X0104718Y0061076D01*
X0104774Y0061105D01*
X0104832Y0061130D01*
X0104891Y0061151D01*
X0104951Y0061169D01*
X0105013Y0061182D01*
X0105075Y0061192D01*
X0105137Y0061198D01*
X0105200Y0061200D01*
X0105263Y0061198D01*
X0105325Y0061192D01*
X0105387Y0061182D01*
X0105449Y0061169D01*
X0105509Y0061151D01*
X0105568Y0061130D01*
X0105626Y0061105D01*
X0105682Y0061076D01*
X0105736Y0061044D01*
X0105788Y0061009D01*
X0105837Y0060971D01*
X0105885Y0060929D01*
X0105929Y0060885D01*
X0105971Y0060837D01*
X0106009Y0060788D01*
X0106044Y0060736D01*
X0106076Y0060682D01*
X0106105Y0060626D01*
X0106130Y0060568D01*
X0106151Y0060509D01*
X0106169Y0060449D01*
X0106182Y0060387D01*
X0106192Y0060325D01*
X0106198Y0060263D01*
X0106200Y0060200D01*
X0106198Y0060137D01*
X0106192Y0060075D01*
X0106182Y0060013D01*
X0106169Y0059951D01*
X0106151Y0059891D01*
X0106130Y0059832D01*
X0106105Y0059774D01*
X0106076Y0059718D01*
X0106044Y0059664D01*
X0106009Y0059612D01*
X0105971Y0059563D01*
X0105929Y0059515D01*
X0105885Y0059471D01*
X0105837Y0059429D01*
X0105788Y0059391D01*
X0105736Y0059356D01*
X0105682Y0059324D01*
X0105626Y0059295D01*
X0105568Y0059270D01*
X0105509Y0059249D01*
X0105449Y0059231D01*
X0105387Y0059218D01*
X0105325Y0059208D01*
X0105263Y0059202D01*
X0105200Y0059200D01*
X0105137Y0059202D01*
X0105075Y0059208D01*
X0105013Y0059218D01*
X0104951Y0059231D01*
X0104891Y0059249D01*
X0104832Y0059270D01*
X0104774Y0059295D01*
X0104718Y0059324D01*
X0104664Y0059356D01*
X0104612Y0059391D01*
X0104563Y0059429D01*
X0104515Y0059471D01*
X0104471Y0059515D01*
X0104429Y0059563D01*
X0104391Y0059612D01*
X0104356Y0059664D01*
X0104324Y0059718D01*
X0104295Y0059774D01*
X0104270Y0059832D01*
X0104249Y0059891D01*
X0104231Y0059951D01*
X0104218Y0060013D01*
X0104208Y0060075D01*
X0104202Y0060137D01*
X0104200Y0060200D01*
X0105100Y0061800D02*
X0105113Y0061668D01*
X0105128Y0061536D01*
X0105148Y0061405D01*
X0105172Y0061274D01*
X0105199Y0061144D01*
X0105230Y0061015D01*
X0105265Y0060887D01*
X0105304Y0060760D01*
X0105346Y0060634D01*
X0105392Y0060510D01*
X0105441Y0060387D01*
X0105495Y0060265D01*
X0105551Y0060145D01*
X0105611Y0060027D01*
X0105675Y0059910D01*
X0105741Y0059795D01*
X0105812Y0059683D01*
X0105885Y0059572D01*
X0105962Y0059464D01*
X0106041Y0059358D01*
X0106124Y0059254D01*
X0106210Y0059152D01*
X0106298Y0059054D01*
X0106390Y0058958D01*
X0106484Y0058864D01*
X0106581Y0058773D01*
X0106680Y0058686D01*
X0106782Y0058601D01*
X0106887Y0058519D01*
X0106994Y0058440D01*
X0107103Y0058364D01*
X0107214Y0058292D01*
X0107327Y0058222D01*
X0107442Y0058157D01*
X0107559Y0058094D01*
X0107678Y0058035D01*
X0107799Y0057979D01*
X0107921Y0057927D01*
X0108044Y0057879D01*
X0108169Y0057834D01*
X0108296Y0057793D01*
X0108423Y0057755D01*
X0108551Y0057721D01*
X0108680Y0057691D01*
X0108811Y0057665D01*
X0108941Y0057642D01*
X0109073Y0057624D01*
X0109205Y0057609D01*
X0109337Y0057598D01*
X0109469Y0057591D01*
X0109602Y0057587D01*
X0109735Y0057588D01*
X0109867Y0057592D01*
X0110000Y0057600D01*
X0093500Y0088000D02*
X0063000Y0088000D01*
X0059500Y0088000D02*
X0059502Y0088063D01*
X0059508Y0088125D01*
X0059518Y0088187D01*
X0059531Y0088249D01*
X0059549Y0088309D01*
X0059570Y0088368D01*
X0059595Y0088426D01*
X0059624Y0088482D01*
X0059656Y0088536D01*
X0059691Y0088588D01*
X0059729Y0088637D01*
X0059771Y0088685D01*
X0059815Y0088729D01*
X0059863Y0088771D01*
X0059912Y0088809D01*
X0059964Y0088844D01*
X0060018Y0088876D01*
X0060074Y0088905D01*
X0060132Y0088930D01*
X0060191Y0088951D01*
X0060251Y0088969D01*
X0060313Y0088982D01*
X0060375Y0088992D01*
X0060437Y0088998D01*
X0060500Y0089000D01*
X0060563Y0088998D01*
X0060625Y0088992D01*
X0060687Y0088982D01*
X0060749Y0088969D01*
X0060809Y0088951D01*
X0060868Y0088930D01*
X0060926Y0088905D01*
X0060982Y0088876D01*
X0061036Y0088844D01*
X0061088Y0088809D01*
X0061137Y0088771D01*
X0061185Y0088729D01*
X0061229Y0088685D01*
X0061271Y0088637D01*
X0061309Y0088588D01*
X0061344Y0088536D01*
X0061376Y0088482D01*
X0061405Y0088426D01*
X0061430Y0088368D01*
X0061451Y0088309D01*
X0061469Y0088249D01*
X0061482Y0088187D01*
X0061492Y0088125D01*
X0061498Y0088063D01*
X0061500Y0088000D01*
X0061498Y0087937D01*
X0061492Y0087875D01*
X0061482Y0087813D01*
X0061469Y0087751D01*
X0061451Y0087691D01*
X0061430Y0087632D01*
X0061405Y0087574D01*
X0061376Y0087518D01*
X0061344Y0087464D01*
X0061309Y0087412D01*
X0061271Y0087363D01*
X0061229Y0087315D01*
X0061185Y0087271D01*
X0061137Y0087229D01*
X0061088Y0087191D01*
X0061036Y0087156D01*
X0060982Y0087124D01*
X0060926Y0087095D01*
X0060868Y0087070D01*
X0060809Y0087049D01*
X0060749Y0087031D01*
X0060687Y0087018D01*
X0060625Y0087008D01*
X0060563Y0087002D01*
X0060500Y0087000D01*
X0060437Y0087002D01*
X0060375Y0087008D01*
X0060313Y0087018D01*
X0060251Y0087031D01*
X0060191Y0087049D01*
X0060132Y0087070D01*
X0060074Y0087095D01*
X0060018Y0087124D01*
X0059964Y0087156D01*
X0059912Y0087191D01*
X0059863Y0087229D01*
X0059815Y0087271D01*
X0059771Y0087315D01*
X0059729Y0087363D01*
X0059691Y0087412D01*
X0059656Y0087464D01*
X0059624Y0087518D01*
X0059595Y0087574D01*
X0059570Y0087632D01*
X0059549Y0087691D01*
X0059531Y0087751D01*
X0059518Y0087813D01*
X0059508Y0087875D01*
X0059502Y0087937D01*
X0059500Y0088000D01*
X0057000Y0088000D02*
X0057002Y0088063D01*
X0057008Y0088125D01*
X0057018Y0088187D01*
X0057031Y0088249D01*
X0057049Y0088309D01*
X0057070Y0088368D01*
X0057095Y0088426D01*
X0057124Y0088482D01*
X0057156Y0088536D01*
X0057191Y0088588D01*
X0057229Y0088637D01*
X0057271Y0088685D01*
X0057315Y0088729D01*
X0057363Y0088771D01*
X0057412Y0088809D01*
X0057464Y0088844D01*
X0057518Y0088876D01*
X0057574Y0088905D01*
X0057632Y0088930D01*
X0057691Y0088951D01*
X0057751Y0088969D01*
X0057813Y0088982D01*
X0057875Y0088992D01*
X0057937Y0088998D01*
X0058000Y0089000D01*
X0058063Y0088998D01*
X0058125Y0088992D01*
X0058187Y0088982D01*
X0058249Y0088969D01*
X0058309Y0088951D01*
X0058368Y0088930D01*
X0058426Y0088905D01*
X0058482Y0088876D01*
X0058536Y0088844D01*
X0058588Y0088809D01*
X0058637Y0088771D01*
X0058685Y0088729D01*
X0058729Y0088685D01*
X0058771Y0088637D01*
X0058809Y0088588D01*
X0058844Y0088536D01*
X0058876Y0088482D01*
X0058905Y0088426D01*
X0058930Y0088368D01*
X0058951Y0088309D01*
X0058969Y0088249D01*
X0058982Y0088187D01*
X0058992Y0088125D01*
X0058998Y0088063D01*
X0059000Y0088000D01*
X0058998Y0087937D01*
X0058992Y0087875D01*
X0058982Y0087813D01*
X0058969Y0087751D01*
X0058951Y0087691D01*
X0058930Y0087632D01*
X0058905Y0087574D01*
X0058876Y0087518D01*
X0058844Y0087464D01*
X0058809Y0087412D01*
X0058771Y0087363D01*
X0058729Y0087315D01*
X0058685Y0087271D01*
X0058637Y0087229D01*
X0058588Y0087191D01*
X0058536Y0087156D01*
X0058482Y0087124D01*
X0058426Y0087095D01*
X0058368Y0087070D01*
X0058309Y0087049D01*
X0058249Y0087031D01*
X0058187Y0087018D01*
X0058125Y0087008D01*
X0058063Y0087002D01*
X0058000Y0087000D01*
X0057937Y0087002D01*
X0057875Y0087008D01*
X0057813Y0087018D01*
X0057751Y0087031D01*
X0057691Y0087049D01*
X0057632Y0087070D01*
X0057574Y0087095D01*
X0057518Y0087124D01*
X0057464Y0087156D01*
X0057412Y0087191D01*
X0057363Y0087229D01*
X0057315Y0087271D01*
X0057271Y0087315D01*
X0057229Y0087363D01*
X0057191Y0087412D01*
X0057156Y0087464D01*
X0057124Y0087518D01*
X0057095Y0087574D01*
X0057070Y0087632D01*
X0057049Y0087691D01*
X0057031Y0087751D01*
X0057018Y0087813D01*
X0057008Y0087875D01*
X0057002Y0087937D01*
X0057000Y0088000D01*
X0054500Y0088000D02*
X0054502Y0088063D01*
X0054508Y0088125D01*
X0054518Y0088187D01*
X0054531Y0088249D01*
X0054549Y0088309D01*
X0054570Y0088368D01*
X0054595Y0088426D01*
X0054624Y0088482D01*
X0054656Y0088536D01*
X0054691Y0088588D01*
X0054729Y0088637D01*
X0054771Y0088685D01*
X0054815Y0088729D01*
X0054863Y0088771D01*
X0054912Y0088809D01*
X0054964Y0088844D01*
X0055018Y0088876D01*
X0055074Y0088905D01*
X0055132Y0088930D01*
X0055191Y0088951D01*
X0055251Y0088969D01*
X0055313Y0088982D01*
X0055375Y0088992D01*
X0055437Y0088998D01*
X0055500Y0089000D01*
X0055563Y0088998D01*
X0055625Y0088992D01*
X0055687Y0088982D01*
X0055749Y0088969D01*
X0055809Y0088951D01*
X0055868Y0088930D01*
X0055926Y0088905D01*
X0055982Y0088876D01*
X0056036Y0088844D01*
X0056088Y0088809D01*
X0056137Y0088771D01*
X0056185Y0088729D01*
X0056229Y0088685D01*
X0056271Y0088637D01*
X0056309Y0088588D01*
X0056344Y0088536D01*
X0056376Y0088482D01*
X0056405Y0088426D01*
X0056430Y0088368D01*
X0056451Y0088309D01*
X0056469Y0088249D01*
X0056482Y0088187D01*
X0056492Y0088125D01*
X0056498Y0088063D01*
X0056500Y0088000D01*
X0056498Y0087937D01*
X0056492Y0087875D01*
X0056482Y0087813D01*
X0056469Y0087751D01*
X0056451Y0087691D01*
X0056430Y0087632D01*
X0056405Y0087574D01*
X0056376Y0087518D01*
X0056344Y0087464D01*
X0056309Y0087412D01*
X0056271Y0087363D01*
X0056229Y0087315D01*
X0056185Y0087271D01*
X0056137Y0087229D01*
X0056088Y0087191D01*
X0056036Y0087156D01*
X0055982Y0087124D01*
X0055926Y0087095D01*
X0055868Y0087070D01*
X0055809Y0087049D01*
X0055749Y0087031D01*
X0055687Y0087018D01*
X0055625Y0087008D01*
X0055563Y0087002D01*
X0055500Y0087000D01*
X0055437Y0087002D01*
X0055375Y0087008D01*
X0055313Y0087018D01*
X0055251Y0087031D01*
X0055191Y0087049D01*
X0055132Y0087070D01*
X0055074Y0087095D01*
X0055018Y0087124D01*
X0054964Y0087156D01*
X0054912Y0087191D01*
X0054863Y0087229D01*
X0054815Y0087271D01*
X0054771Y0087315D01*
X0054729Y0087363D01*
X0054691Y0087412D01*
X0054656Y0087464D01*
X0054624Y0087518D01*
X0054595Y0087574D01*
X0054570Y0087632D01*
X0054549Y0087691D01*
X0054531Y0087751D01*
X0054518Y0087813D01*
X0054508Y0087875D01*
X0054502Y0087937D01*
X0054500Y0088000D01*
X0052000Y0088000D02*
X0052002Y0088063D01*
X0052008Y0088125D01*
X0052018Y0088187D01*
X0052031Y0088249D01*
X0052049Y0088309D01*
X0052070Y0088368D01*
X0052095Y0088426D01*
X0052124Y0088482D01*
X0052156Y0088536D01*
X0052191Y0088588D01*
X0052229Y0088637D01*
X0052271Y0088685D01*
X0052315Y0088729D01*
X0052363Y0088771D01*
X0052412Y0088809D01*
X0052464Y0088844D01*
X0052518Y0088876D01*
X0052574Y0088905D01*
X0052632Y0088930D01*
X0052691Y0088951D01*
X0052751Y0088969D01*
X0052813Y0088982D01*
X0052875Y0088992D01*
X0052937Y0088998D01*
X0053000Y0089000D01*
X0053063Y0088998D01*
X0053125Y0088992D01*
X0053187Y0088982D01*
X0053249Y0088969D01*
X0053309Y0088951D01*
X0053368Y0088930D01*
X0053426Y0088905D01*
X0053482Y0088876D01*
X0053536Y0088844D01*
X0053588Y0088809D01*
X0053637Y0088771D01*
X0053685Y0088729D01*
X0053729Y0088685D01*
X0053771Y0088637D01*
X0053809Y0088588D01*
X0053844Y0088536D01*
X0053876Y0088482D01*
X0053905Y0088426D01*
X0053930Y0088368D01*
X0053951Y0088309D01*
X0053969Y0088249D01*
X0053982Y0088187D01*
X0053992Y0088125D01*
X0053998Y0088063D01*
X0054000Y0088000D01*
X0053998Y0087937D01*
X0053992Y0087875D01*
X0053982Y0087813D01*
X0053969Y0087751D01*
X0053951Y0087691D01*
X0053930Y0087632D01*
X0053905Y0087574D01*
X0053876Y0087518D01*
X0053844Y0087464D01*
X0053809Y0087412D01*
X0053771Y0087363D01*
X0053729Y0087315D01*
X0053685Y0087271D01*
X0053637Y0087229D01*
X0053588Y0087191D01*
X0053536Y0087156D01*
X0053482Y0087124D01*
X0053426Y0087095D01*
X0053368Y0087070D01*
X0053309Y0087049D01*
X0053249Y0087031D01*
X0053187Y0087018D01*
X0053125Y0087008D01*
X0053063Y0087002D01*
X0053000Y0087000D01*
X0052937Y0087002D01*
X0052875Y0087008D01*
X0052813Y0087018D01*
X0052751Y0087031D01*
X0052691Y0087049D01*
X0052632Y0087070D01*
X0052574Y0087095D01*
X0052518Y0087124D01*
X0052464Y0087156D01*
X0052412Y0087191D01*
X0052363Y0087229D01*
X0052315Y0087271D01*
X0052271Y0087315D01*
X0052229Y0087363D01*
X0052191Y0087412D01*
X0052156Y0087464D01*
X0052124Y0087518D01*
X0052095Y0087574D01*
X0052070Y0087632D01*
X0052049Y0087691D01*
X0052031Y0087751D01*
X0052018Y0087813D01*
X0052008Y0087875D01*
X0052002Y0087937D01*
X0052000Y0088000D01*
X0049500Y0088000D02*
X0049502Y0088063D01*
X0049508Y0088125D01*
X0049518Y0088187D01*
X0049531Y0088249D01*
X0049549Y0088309D01*
X0049570Y0088368D01*
X0049595Y0088426D01*
X0049624Y0088482D01*
X0049656Y0088536D01*
X0049691Y0088588D01*
X0049729Y0088637D01*
X0049771Y0088685D01*
X0049815Y0088729D01*
X0049863Y0088771D01*
X0049912Y0088809D01*
X0049964Y0088844D01*
X0050018Y0088876D01*
X0050074Y0088905D01*
X0050132Y0088930D01*
X0050191Y0088951D01*
X0050251Y0088969D01*
X0050313Y0088982D01*
X0050375Y0088992D01*
X0050437Y0088998D01*
X0050500Y0089000D01*
X0050563Y0088998D01*
X0050625Y0088992D01*
X0050687Y0088982D01*
X0050749Y0088969D01*
X0050809Y0088951D01*
X0050868Y0088930D01*
X0050926Y0088905D01*
X0050982Y0088876D01*
X0051036Y0088844D01*
X0051088Y0088809D01*
X0051137Y0088771D01*
X0051185Y0088729D01*
X0051229Y0088685D01*
X0051271Y0088637D01*
X0051309Y0088588D01*
X0051344Y0088536D01*
X0051376Y0088482D01*
X0051405Y0088426D01*
X0051430Y0088368D01*
X0051451Y0088309D01*
X0051469Y0088249D01*
X0051482Y0088187D01*
X0051492Y0088125D01*
X0051498Y0088063D01*
X0051500Y0088000D01*
X0051498Y0087937D01*
X0051492Y0087875D01*
X0051482Y0087813D01*
X0051469Y0087751D01*
X0051451Y0087691D01*
X0051430Y0087632D01*
X0051405Y0087574D01*
X0051376Y0087518D01*
X0051344Y0087464D01*
X0051309Y0087412D01*
X0051271Y0087363D01*
X0051229Y0087315D01*
X0051185Y0087271D01*
X0051137Y0087229D01*
X0051088Y0087191D01*
X0051036Y0087156D01*
X0050982Y0087124D01*
X0050926Y0087095D01*
X0050868Y0087070D01*
X0050809Y0087049D01*
X0050749Y0087031D01*
X0050687Y0087018D01*
X0050625Y0087008D01*
X0050563Y0087002D01*
X0050500Y0087000D01*
X0050437Y0087002D01*
X0050375Y0087008D01*
X0050313Y0087018D01*
X0050251Y0087031D01*
X0050191Y0087049D01*
X0050132Y0087070D01*
X0050074Y0087095D01*
X0050018Y0087124D01*
X0049964Y0087156D01*
X0049912Y0087191D01*
X0049863Y0087229D01*
X0049815Y0087271D01*
X0049771Y0087315D01*
X0049729Y0087363D01*
X0049691Y0087412D01*
X0049656Y0087464D01*
X0049624Y0087518D01*
X0049595Y0087574D01*
X0049570Y0087632D01*
X0049549Y0087691D01*
X0049531Y0087751D01*
X0049518Y0087813D01*
X0049508Y0087875D01*
X0049502Y0087937D01*
X0049500Y0088000D01*
X0048000Y0088000D02*
X0017500Y0088000D01*
X0005900Y0061800D02*
X0005887Y0061668D01*
X0005872Y0061536D01*
X0005852Y0061405D01*
X0005828Y0061274D01*
X0005801Y0061144D01*
X0005770Y0061015D01*
X0005735Y0060887D01*
X0005696Y0060760D01*
X0005654Y0060634D01*
X0005608Y0060510D01*
X0005559Y0060387D01*
X0005505Y0060265D01*
X0005449Y0060145D01*
X0005389Y0060027D01*
X0005325Y0059910D01*
X0005259Y0059795D01*
X0005188Y0059683D01*
X0005115Y0059572D01*
X0005038Y0059464D01*
X0004959Y0059358D01*
X0004876Y0059254D01*
X0004790Y0059152D01*
X0004702Y0059054D01*
X0004610Y0058958D01*
X0004516Y0058864D01*
X0004419Y0058773D01*
X0004320Y0058686D01*
X0004218Y0058601D01*
X0004113Y0058519D01*
X0004006Y0058440D01*
X0003897Y0058364D01*
X0003786Y0058292D01*
X0003673Y0058222D01*
X0003558Y0058157D01*
X0003441Y0058094D01*
X0003322Y0058035D01*
X0003201Y0057979D01*
X0003079Y0057927D01*
X0002956Y0057879D01*
X0002831Y0057834D01*
X0002704Y0057793D01*
X0002577Y0057755D01*
X0002449Y0057721D01*
X0002320Y0057691D01*
X0002189Y0057665D01*
X0002059Y0057642D01*
X0001927Y0057624D01*
X0001795Y0057609D01*
X0001663Y0057598D01*
X0001531Y0057591D01*
X0001398Y0057587D01*
X0001265Y0057588D01*
X0001133Y0057592D01*
X0001000Y0057600D01*
X0004500Y0055100D02*
X0004502Y0055163D01*
X0004508Y0055225D01*
X0004518Y0055287D01*
X0004531Y0055349D01*
X0004549Y0055409D01*
X0004570Y0055468D01*
X0004595Y0055526D01*
X0004624Y0055582D01*
X0004656Y0055636D01*
X0004691Y0055688D01*
X0004729Y0055737D01*
X0004771Y0055785D01*
X0004815Y0055829D01*
X0004863Y0055871D01*
X0004912Y0055909D01*
X0004964Y0055944D01*
X0005018Y0055976D01*
X0005074Y0056005D01*
X0005132Y0056030D01*
X0005191Y0056051D01*
X0005251Y0056069D01*
X0005313Y0056082D01*
X0005375Y0056092D01*
X0005437Y0056098D01*
X0005500Y0056100D01*
X0005563Y0056098D01*
X0005625Y0056092D01*
X0005687Y0056082D01*
X0005749Y0056069D01*
X0005809Y0056051D01*
X0005868Y0056030D01*
X0005926Y0056005D01*
X0005982Y0055976D01*
X0006036Y0055944D01*
X0006088Y0055909D01*
X0006137Y0055871D01*
X0006185Y0055829D01*
X0006229Y0055785D01*
X0006271Y0055737D01*
X0006309Y0055688D01*
X0006344Y0055636D01*
X0006376Y0055582D01*
X0006405Y0055526D01*
X0006430Y0055468D01*
X0006451Y0055409D01*
X0006469Y0055349D01*
X0006482Y0055287D01*
X0006492Y0055225D01*
X0006498Y0055163D01*
X0006500Y0055100D01*
X0006498Y0055037D01*
X0006492Y0054975D01*
X0006482Y0054913D01*
X0006469Y0054851D01*
X0006451Y0054791D01*
X0006430Y0054732D01*
X0006405Y0054674D01*
X0006376Y0054618D01*
X0006344Y0054564D01*
X0006309Y0054512D01*
X0006271Y0054463D01*
X0006229Y0054415D01*
X0006185Y0054371D01*
X0006137Y0054329D01*
X0006088Y0054291D01*
X0006036Y0054256D01*
X0005982Y0054224D01*
X0005926Y0054195D01*
X0005868Y0054170D01*
X0005809Y0054149D01*
X0005749Y0054131D01*
X0005687Y0054118D01*
X0005625Y0054108D01*
X0005563Y0054102D01*
X0005500Y0054100D01*
X0005437Y0054102D01*
X0005375Y0054108D01*
X0005313Y0054118D01*
X0005251Y0054131D01*
X0005191Y0054149D01*
X0005132Y0054170D01*
X0005074Y0054195D01*
X0005018Y0054224D01*
X0004964Y0054256D01*
X0004912Y0054291D01*
X0004863Y0054329D01*
X0004815Y0054371D01*
X0004771Y0054415D01*
X0004729Y0054463D01*
X0004691Y0054512D01*
X0004656Y0054564D01*
X0004624Y0054618D01*
X0004595Y0054674D01*
X0004570Y0054732D01*
X0004549Y0054791D01*
X0004531Y0054851D01*
X0004518Y0054913D01*
X0004508Y0054975D01*
X0004502Y0055037D01*
X0004500Y0055100D01*
X0004600Y0052600D02*
X0004602Y0052663D01*
X0004608Y0052725D01*
X0004618Y0052787D01*
X0004631Y0052849D01*
X0004649Y0052909D01*
X0004670Y0052968D01*
X0004695Y0053026D01*
X0004724Y0053082D01*
X0004756Y0053136D01*
X0004791Y0053188D01*
X0004829Y0053237D01*
X0004871Y0053285D01*
X0004915Y0053329D01*
X0004963Y0053371D01*
X0005012Y0053409D01*
X0005064Y0053444D01*
X0005118Y0053476D01*
X0005174Y0053505D01*
X0005232Y0053530D01*
X0005291Y0053551D01*
X0005351Y0053569D01*
X0005413Y0053582D01*
X0005475Y0053592D01*
X0005537Y0053598D01*
X0005600Y0053600D01*
X0005663Y0053598D01*
X0005725Y0053592D01*
X0005787Y0053582D01*
X0005849Y0053569D01*
X0005909Y0053551D01*
X0005968Y0053530D01*
X0006026Y0053505D01*
X0006082Y0053476D01*
X0006136Y0053444D01*
X0006188Y0053409D01*
X0006237Y0053371D01*
X0006285Y0053329D01*
X0006329Y0053285D01*
X0006371Y0053237D01*
X0006409Y0053188D01*
X0006444Y0053136D01*
X0006476Y0053082D01*
X0006505Y0053026D01*
X0006530Y0052968D01*
X0006551Y0052909D01*
X0006569Y0052849D01*
X0006582Y0052787D01*
X0006592Y0052725D01*
X0006598Y0052663D01*
X0006600Y0052600D01*
X0006598Y0052537D01*
X0006592Y0052475D01*
X0006582Y0052413D01*
X0006569Y0052351D01*
X0006551Y0052291D01*
X0006530Y0052232D01*
X0006505Y0052174D01*
X0006476Y0052118D01*
X0006444Y0052064D01*
X0006409Y0052012D01*
X0006371Y0051963D01*
X0006329Y0051915D01*
X0006285Y0051871D01*
X0006237Y0051829D01*
X0006188Y0051791D01*
X0006136Y0051756D01*
X0006082Y0051724D01*
X0006026Y0051695D01*
X0005968Y0051670D01*
X0005909Y0051649D01*
X0005849Y0051631D01*
X0005787Y0051618D01*
X0005725Y0051608D01*
X0005663Y0051602D01*
X0005600Y0051600D01*
X0005537Y0051602D01*
X0005475Y0051608D01*
X0005413Y0051618D01*
X0005351Y0051631D01*
X0005291Y0051649D01*
X0005232Y0051670D01*
X0005174Y0051695D01*
X0005118Y0051724D01*
X0005064Y0051756D01*
X0005012Y0051791D01*
X0004963Y0051829D01*
X0004915Y0051871D01*
X0004871Y0051915D01*
X0004829Y0051963D01*
X0004791Y0052012D01*
X0004756Y0052064D01*
X0004724Y0052118D01*
X0004695Y0052174D01*
X0004670Y0052232D01*
X0004649Y0052291D01*
X0004631Y0052351D01*
X0004618Y0052413D01*
X0004608Y0052475D01*
X0004602Y0052537D01*
X0004600Y0052600D01*
X0004800Y0050100D02*
X0004802Y0050163D01*
X0004808Y0050225D01*
X0004818Y0050287D01*
X0004831Y0050349D01*
X0004849Y0050409D01*
X0004870Y0050468D01*
X0004895Y0050526D01*
X0004924Y0050582D01*
X0004956Y0050636D01*
X0004991Y0050688D01*
X0005029Y0050737D01*
X0005071Y0050785D01*
X0005115Y0050829D01*
X0005163Y0050871D01*
X0005212Y0050909D01*
X0005264Y0050944D01*
X0005318Y0050976D01*
X0005374Y0051005D01*
X0005432Y0051030D01*
X0005491Y0051051D01*
X0005551Y0051069D01*
X0005613Y0051082D01*
X0005675Y0051092D01*
X0005737Y0051098D01*
X0005800Y0051100D01*
X0005863Y0051098D01*
X0005925Y0051092D01*
X0005987Y0051082D01*
X0006049Y0051069D01*
X0006109Y0051051D01*
X0006168Y0051030D01*
X0006226Y0051005D01*
X0006282Y0050976D01*
X0006336Y0050944D01*
X0006388Y0050909D01*
X0006437Y0050871D01*
X0006485Y0050829D01*
X0006529Y0050785D01*
X0006571Y0050737D01*
X0006609Y0050688D01*
X0006644Y0050636D01*
X0006676Y0050582D01*
X0006705Y0050526D01*
X0006730Y0050468D01*
X0006751Y0050409D01*
X0006769Y0050349D01*
X0006782Y0050287D01*
X0006792Y0050225D01*
X0006798Y0050163D01*
X0006800Y0050100D01*
X0006798Y0050037D01*
X0006792Y0049975D01*
X0006782Y0049913D01*
X0006769Y0049851D01*
X0006751Y0049791D01*
X0006730Y0049732D01*
X0006705Y0049674D01*
X0006676Y0049618D01*
X0006644Y0049564D01*
X0006609Y0049512D01*
X0006571Y0049463D01*
X0006529Y0049415D01*
X0006485Y0049371D01*
X0006437Y0049329D01*
X0006388Y0049291D01*
X0006336Y0049256D01*
X0006282Y0049224D01*
X0006226Y0049195D01*
X0006168Y0049170D01*
X0006109Y0049149D01*
X0006049Y0049131D01*
X0005987Y0049118D01*
X0005925Y0049108D01*
X0005863Y0049102D01*
X0005800Y0049100D01*
X0005737Y0049102D01*
X0005675Y0049108D01*
X0005613Y0049118D01*
X0005551Y0049131D01*
X0005491Y0049149D01*
X0005432Y0049170D01*
X0005374Y0049195D01*
X0005318Y0049224D01*
X0005264Y0049256D01*
X0005212Y0049291D01*
X0005163Y0049329D01*
X0005115Y0049371D01*
X0005071Y0049415D01*
X0005029Y0049463D01*
X0004991Y0049512D01*
X0004956Y0049564D01*
X0004924Y0049618D01*
X0004895Y0049674D01*
X0004870Y0049732D01*
X0004849Y0049791D01*
X0004831Y0049851D01*
X0004818Y0049913D01*
X0004808Y0049975D01*
X0004802Y0050037D01*
X0004800Y0050100D01*
X0006000Y0048400D02*
X0005986Y0048534D01*
X0005969Y0048667D01*
X0005947Y0048799D01*
X0005922Y0048931D01*
X0005893Y0049062D01*
X0005860Y0049193D01*
X0005824Y0049322D01*
X0005783Y0049450D01*
X0005739Y0049577D01*
X0005692Y0049702D01*
X0005640Y0049826D01*
X0005585Y0049949D01*
X0005527Y0050070D01*
X0005465Y0050189D01*
X0005400Y0050306D01*
X0005331Y0050422D01*
X0005259Y0050535D01*
X0005183Y0050646D01*
X0005105Y0050755D01*
X0005023Y0050862D01*
X0004938Y0050966D01*
X0004851Y0051068D01*
X0004760Y0051167D01*
X0004666Y0051263D01*
X0004570Y0051357D01*
X0004471Y0051447D01*
X0004370Y0051535D01*
X0004266Y0051620D01*
X0004159Y0051702D01*
X0004050Y0051781D01*
X0003939Y0051856D01*
X0003826Y0051928D01*
X0003711Y0051997D01*
X0003593Y0052063D01*
X0003474Y0052125D01*
X0003353Y0052183D01*
X0003231Y0052238D01*
X0003107Y0052290D01*
X0002981Y0052338D01*
X0002855Y0052382D01*
X0002727Y0052422D01*
X0002597Y0052459D01*
X0002467Y0052492D01*
X0002336Y0052521D01*
X0002204Y0052546D01*
X0002072Y0052568D01*
X0001938Y0052585D01*
X0001805Y0052599D01*
X0001671Y0052609D01*
X0001537Y0052615D01*
X0001402Y0052617D01*
X0001268Y0052615D01*
X0001134Y0052609D01*
X0001000Y0052600D01*
X0004600Y0057600D02*
X0004602Y0057663D01*
X0004608Y0057725D01*
X0004618Y0057787D01*
X0004631Y0057849D01*
X0004649Y0057909D01*
X0004670Y0057968D01*
X0004695Y0058026D01*
X0004724Y0058082D01*
X0004756Y0058136D01*
X0004791Y0058188D01*
X0004829Y0058237D01*
X0004871Y0058285D01*
X0004915Y0058329D01*
X0004963Y0058371D01*
X0005012Y0058409D01*
X0005064Y0058444D01*
X0005118Y0058476D01*
X0005174Y0058505D01*
X0005232Y0058530D01*
X0005291Y0058551D01*
X0005351Y0058569D01*
X0005413Y0058582D01*
X0005475Y0058592D01*
X0005537Y0058598D01*
X0005600Y0058600D01*
X0005663Y0058598D01*
X0005725Y0058592D01*
X0005787Y0058582D01*
X0005849Y0058569D01*
X0005909Y0058551D01*
X0005968Y0058530D01*
X0006026Y0058505D01*
X0006082Y0058476D01*
X0006136Y0058444D01*
X0006188Y0058409D01*
X0006237Y0058371D01*
X0006285Y0058329D01*
X0006329Y0058285D01*
X0006371Y0058237D01*
X0006409Y0058188D01*
X0006444Y0058136D01*
X0006476Y0058082D01*
X0006505Y0058026D01*
X0006530Y0057968D01*
X0006551Y0057909D01*
X0006569Y0057849D01*
X0006582Y0057787D01*
X0006592Y0057725D01*
X0006598Y0057663D01*
X0006600Y0057600D01*
X0006598Y0057537D01*
X0006592Y0057475D01*
X0006582Y0057413D01*
X0006569Y0057351D01*
X0006551Y0057291D01*
X0006530Y0057232D01*
X0006505Y0057174D01*
X0006476Y0057118D01*
X0006444Y0057064D01*
X0006409Y0057012D01*
X0006371Y0056963D01*
X0006329Y0056915D01*
X0006285Y0056871D01*
X0006237Y0056829D01*
X0006188Y0056791D01*
X0006136Y0056756D01*
X0006082Y0056724D01*
X0006026Y0056695D01*
X0005968Y0056670D01*
X0005909Y0056649D01*
X0005849Y0056631D01*
X0005787Y0056618D01*
X0005725Y0056608D01*
X0005663Y0056602D01*
X0005600Y0056600D01*
X0005537Y0056602D01*
X0005475Y0056608D01*
X0005413Y0056618D01*
X0005351Y0056631D01*
X0005291Y0056649D01*
X0005232Y0056670D01*
X0005174Y0056695D01*
X0005118Y0056724D01*
X0005064Y0056756D01*
X0005012Y0056791D01*
X0004963Y0056829D01*
X0004915Y0056871D01*
X0004871Y0056915D01*
X0004829Y0056963D01*
X0004791Y0057012D01*
X0004756Y0057064D01*
X0004724Y0057118D01*
X0004695Y0057174D01*
X0004670Y0057232D01*
X0004649Y0057291D01*
X0004631Y0057351D01*
X0004618Y0057413D01*
X0004608Y0057475D01*
X0004602Y0057537D01*
X0004600Y0057600D01*
X0004800Y0060200D02*
X0004802Y0060263D01*
X0004808Y0060325D01*
X0004818Y0060387D01*
X0004831Y0060449D01*
X0004849Y0060509D01*
X0004870Y0060568D01*
X0004895Y0060626D01*
X0004924Y0060682D01*
X0004956Y0060736D01*
X0004991Y0060788D01*
X0005029Y0060837D01*
X0005071Y0060885D01*
X0005115Y0060929D01*
X0005163Y0060971D01*
X0005212Y0061009D01*
X0005264Y0061044D01*
X0005318Y0061076D01*
X0005374Y0061105D01*
X0005432Y0061130D01*
X0005491Y0061151D01*
X0005551Y0061169D01*
X0005613Y0061182D01*
X0005675Y0061192D01*
X0005737Y0061198D01*
X0005800Y0061200D01*
X0005863Y0061198D01*
X0005925Y0061192D01*
X0005987Y0061182D01*
X0006049Y0061169D01*
X0006109Y0061151D01*
X0006168Y0061130D01*
X0006226Y0061105D01*
X0006282Y0061076D01*
X0006336Y0061044D01*
X0006388Y0061009D01*
X0006437Y0060971D01*
X0006485Y0060929D01*
X0006529Y0060885D01*
X0006571Y0060837D01*
X0006609Y0060788D01*
X0006644Y0060736D01*
X0006676Y0060682D01*
X0006705Y0060626D01*
X0006730Y0060568D01*
X0006751Y0060509D01*
X0006769Y0060449D01*
X0006782Y0060387D01*
X0006792Y0060325D01*
X0006798Y0060263D01*
X0006800Y0060200D01*
X0006798Y0060137D01*
X0006792Y0060075D01*
X0006782Y0060013D01*
X0006769Y0059951D01*
X0006751Y0059891D01*
X0006730Y0059832D01*
X0006705Y0059774D01*
X0006676Y0059718D01*
X0006644Y0059664D01*
X0006609Y0059612D01*
X0006571Y0059563D01*
X0006529Y0059515D01*
X0006485Y0059471D01*
X0006437Y0059429D01*
X0006388Y0059391D01*
X0006336Y0059356D01*
X0006282Y0059324D01*
X0006226Y0059295D01*
X0006168Y0059270D01*
X0006109Y0059249D01*
X0006049Y0059231D01*
X0005987Y0059218D01*
X0005925Y0059208D01*
X0005863Y0059202D01*
X0005800Y0059200D01*
X0005737Y0059202D01*
X0005675Y0059208D01*
X0005613Y0059218D01*
X0005551Y0059231D01*
X0005491Y0059249D01*
X0005432Y0059270D01*
X0005374Y0059295D01*
X0005318Y0059324D01*
X0005264Y0059356D01*
X0005212Y0059391D01*
X0005163Y0059429D01*
X0005115Y0059471D01*
X0005071Y0059515D01*
X0005029Y0059563D01*
X0004991Y0059612D01*
X0004956Y0059664D01*
X0004924Y0059718D01*
X0004895Y0059774D01*
X0004870Y0059832D01*
X0004849Y0059891D01*
X0004831Y0059951D01*
X0004818Y0060013D01*
X0004808Y0060075D01*
X0004802Y0060137D01*
X0004800Y0060200D01*
X0048000Y0088000D02*
X0048140Y0088002D01*
X0048280Y0088008D01*
X0048420Y0088018D01*
X0048560Y0088031D01*
X0048699Y0088049D01*
X0048838Y0088071D01*
X0048975Y0088096D01*
X0049113Y0088125D01*
X0049249Y0088158D01*
X0049384Y0088195D01*
X0049518Y0088236D01*
X0049651Y0088281D01*
X0049783Y0088329D01*
X0049913Y0088381D01*
X0050042Y0088436D01*
X0050169Y0088495D01*
X0050295Y0088558D01*
X0050419Y0088624D01*
X0050540Y0088693D01*
X0050660Y0088766D01*
X0050778Y0088843D01*
X0050893Y0088922D01*
X0051007Y0089005D01*
X0051117Y0089091D01*
X0051226Y0089180D01*
X0051332Y0089272D01*
X0051435Y0089367D01*
X0051536Y0089464D01*
X0051633Y0089565D01*
X0051728Y0089668D01*
X0051820Y0089774D01*
X0051909Y0089883D01*
X0051995Y0089993D01*
X0052078Y0090107D01*
X0052157Y0090222D01*
X0052234Y0090340D01*
X0052307Y0090460D01*
X0052376Y0090581D01*
X0052442Y0090705D01*
X0052505Y0090831D01*
X0052564Y0090958D01*
X0052619Y0091087D01*
X0052671Y0091217D01*
X0052719Y0091349D01*
X0052764Y0091482D01*
X0052805Y0091616D01*
X0052842Y0091751D01*
X0052875Y0091887D01*
X0052904Y0092025D01*
X0052929Y0092162D01*
X0052951Y0092301D01*
X0052969Y0092440D01*
X0052982Y0092580D01*
X0052992Y0092720D01*
X0052998Y0092860D01*
X0053000Y0093000D01*
X0058000Y0093000D02*
X0058002Y0092860D01*
X0058008Y0092720D01*
X0058018Y0092580D01*
X0058031Y0092440D01*
X0058049Y0092301D01*
X0058071Y0092162D01*
X0058096Y0092025D01*
X0058125Y0091887D01*
X0058158Y0091751D01*
X0058195Y0091616D01*
X0058236Y0091482D01*
X0058281Y0091349D01*
X0058329Y0091217D01*
X0058381Y0091087D01*
X0058436Y0090958D01*
X0058495Y0090831D01*
X0058558Y0090705D01*
X0058624Y0090581D01*
X0058693Y0090460D01*
X0058766Y0090340D01*
X0058843Y0090222D01*
X0058922Y0090107D01*
X0059005Y0089993D01*
X0059091Y0089883D01*
X0059180Y0089774D01*
X0059272Y0089668D01*
X0059367Y0089565D01*
X0059464Y0089464D01*
X0059565Y0089367D01*
X0059668Y0089272D01*
X0059774Y0089180D01*
X0059883Y0089091D01*
X0059993Y0089005D01*
X0060107Y0088922D01*
X0060222Y0088843D01*
X0060340Y0088766D01*
X0060460Y0088693D01*
X0060581Y0088624D01*
X0060705Y0088558D01*
X0060831Y0088495D01*
X0060958Y0088436D01*
X0061087Y0088381D01*
X0061217Y0088329D01*
X0061349Y0088281D01*
X0061482Y0088236D01*
X0061616Y0088195D01*
X0061751Y0088158D01*
X0061887Y0088125D01*
X0062025Y0088096D01*
X0062162Y0088071D01*
X0062301Y0088049D01*
X0062440Y0088031D01*
X0062580Y0088018D01*
X0062720Y0088008D01*
X0062860Y0088002D01*
X0063000Y0088000D01*
X0017500Y0088001D02*
X0016727Y0087069D01*
X0015976Y0086119D01*
X0015249Y0085152D01*
X0014545Y0084167D01*
X0013864Y0083166D01*
X0013208Y0082149D01*
X0012577Y0081116D01*
X0011970Y0080068D01*
X0011389Y0079006D01*
X0010834Y0077931D01*
X0010304Y0076842D01*
X0009801Y0075741D01*
X0009324Y0074629D01*
X0008874Y0073505D01*
X0008451Y0072371D01*
X0008056Y0071227D01*
X0007688Y0070073D01*
X0007348Y0068912D01*
X0007035Y0067742D01*
X0006751Y0066565D01*
X0006496Y0065382D01*
X0006269Y0064193D01*
X0006070Y0062999D01*
X0005900Y0061800D01*
X0093500Y0088001D02*
X0094273Y0087069D01*
X0095024Y0086119D01*
X0095751Y0085152D01*
X0096455Y0084167D01*
X0097136Y0083166D01*
X0097792Y0082149D01*
X0098423Y0081116D01*
X0099030Y0080068D01*
X0099611Y0079006D01*
X0100166Y0077931D01*
X0100696Y0076842D01*
X0101199Y0075741D01*
X0101676Y0074629D01*
X0102126Y0073505D01*
X0102549Y0072371D01*
X0102944Y0071227D01*
X0103312Y0070073D01*
X0103652Y0068912D01*
X0103965Y0067742D01*
X0104249Y0066565D01*
X0104504Y0065382D01*
X0104731Y0064193D01*
X0104930Y0062999D01*
X0105100Y0061800D01*
X0105000Y0048399D02*
X0104820Y0047208D01*
X0104611Y0046021D01*
X0104373Y0044840D01*
X0104107Y0043664D01*
X0103812Y0042496D01*
X0103489Y0041335D01*
X0103139Y0040182D01*
X0102760Y0039038D01*
X0102353Y0037903D01*
X0101920Y0036779D01*
X0101459Y0035665D01*
X0100971Y0034563D01*
X0100457Y0033473D01*
X0099916Y0032396D01*
X0099350Y0031333D01*
X0098757Y0030283D01*
X0098140Y0029248D01*
X0097498Y0028228D01*
X0096831Y0027225D01*
X0096140Y0026237D01*
X0095425Y0025267D01*
X0094687Y0024314D01*
X0093926Y0023380D01*
X0093143Y0022464D01*
X0092338Y0021567D01*
X0091511Y0020690D01*
X0090663Y0019834D01*
X0089795Y0018998D01*
X0088907Y0018184D01*
X0087999Y0017391D01*
X0087072Y0016621D01*
X0086127Y0015873D01*
X0085164Y0015149D01*
X0084184Y0014448D01*
X0083187Y0013770D01*
X0082174Y0013118D01*
X0081145Y0012490D01*
X0080102Y0011887D01*
X0079044Y0011310D01*
X0077972Y0010758D01*
X0076888Y0010233D01*
X0075791Y0009734D01*
X0074682Y0009261D01*
X0073562Y0008816D01*
X0072432Y0008398D01*
X0071292Y0008008D01*
X0070143Y0007645D01*
X0068985Y0007310D01*
X0067819Y0007004D01*
X0066647Y0006726D01*
X0065468Y0006476D01*
X0064283Y0006255D01*
X0063094Y0006062D01*
X0061900Y0005899D01*
X0049100Y0005899D02*
X0047906Y0006062D01*
X0046717Y0006255D01*
X0045532Y0006476D01*
X0044353Y0006726D01*
X0043181Y0007004D01*
X0042015Y0007310D01*
X0040857Y0007645D01*
X0039708Y0008008D01*
X0038568Y0008398D01*
X0037438Y0008816D01*
X0036318Y0009261D01*
X0035209Y0009734D01*
X0034112Y0010233D01*
X0033028Y0010758D01*
X0031956Y0011310D01*
X0030898Y0011887D01*
X0029855Y0012490D01*
X0028826Y0013118D01*
X0027813Y0013770D01*
X0026816Y0014448D01*
X0025836Y0015149D01*
X0024873Y0015873D01*
X0023928Y0016621D01*
X0023001Y0017391D01*
X0022093Y0018184D01*
X0021205Y0018998D01*
X0020337Y0019834D01*
X0019489Y0020690D01*
X0018662Y0021567D01*
X0017857Y0022464D01*
X0017074Y0023380D01*
X0016313Y0024314D01*
X0015575Y0025267D01*
X0014860Y0026237D01*
X0014169Y0027225D01*
X0013502Y0028228D01*
X0012860Y0029248D01*
X0012243Y0030283D01*
X0011650Y0031333D01*
X0011084Y0032396D01*
X0010543Y0033473D01*
X0010029Y0034563D01*
X0009541Y0035665D01*
X0009080Y0036779D01*
X0008647Y0037903D01*
X0008240Y0039038D01*
X0007861Y0040182D01*
X0007511Y0041335D01*
X0007188Y0042496D01*
X0006893Y0043664D01*
X0006627Y0044840D01*
X0006389Y0046021D01*
X0006180Y0047208D01*
X0006000Y0048399D01*
M02*
