%
M48
M72
T01C0.0160
T02C0.0200
%
T01
X4230Y1570
X5250Y2170
X6170Y2510
X7150Y2310
X7230Y3610
X7750Y4150
X7590Y4550
X7850Y4950
X8250Y5150
X7530Y5510
X6310Y4490
X5460Y4280
X5210Y5070
X4350Y5390
X3410Y5200
X2950Y5950
X3150Y6350
X3090Y6830
X2750Y7050
X2410Y7470
X1910Y7530
X1690Y7930
X2050Y8330
X4080Y6410
X4610Y7310
X5550Y6770
X5890Y7030
X5270Y6350
X5750Y7910
X7470Y6650
X8250Y6750
X7950Y7750
X8970Y8290
X9730Y6700
X9850Y5710
X10090Y5400
X8250Y4050
X8590Y3750
X9010Y3430
X9530Y3430
X8690Y2490
X3990Y4410
X1950Y3870
X1350Y3930
X1300Y5470
T02
X560Y5260
X580Y5010
X550Y5510
X560Y5760
X580Y6020
X5050Y8800
X5300Y8800
X5550Y8800
X5800Y8800
X6050Y8800
X10520Y6020
X10540Y5760
X10550Y5510
X10540Y5260
X10520Y5010
X6050Y580
X5800Y560
X5550Y550
X5300Y560
X5040Y580
M30
