%
M48
M72
T01C0.0160
%
T01
X1695Y2886
X3295Y4186
X4305Y3846
X4545Y2636
X5945Y2036
X7745Y1786
X7745Y2886
X8245Y3686
X7745Y3786
X7745Y4186
X7845Y4586
X8245Y4786
X7245Y4186
X5845Y4186
X4310Y5546
X3525Y6206
X3145Y5986
X2945Y5586
X3145Y6486
X2745Y6686
X1845Y7546
X2085Y7986
X4505Y6946
X5845Y6086
X7245Y6086
X8225Y7166
X9465Y5606
X9845Y5346
X10145Y4986
X9525Y3066
X9005Y3066
X3645Y1386
X1595Y4786
M30
