G75*
%MOIN*%
%OFA0B0*%
%FSLAX25Y25*%
%IPPOS*%
%LPD*%
%AMOC8*
5,1,8,0,0,1.08239X$1,22.5*
%
%ADD10R,0.05088X0.01387*%
%ADD11C,0.03800*%
D10*
X0012753Y0058712D03*
X0012753Y0060286D03*
X0012753Y0061861D03*
X0012753Y0063436D03*
X0012753Y0065011D03*
X0023147Y0065011D03*
X0023147Y0063436D03*
X0023147Y0061861D03*
X0023147Y0060286D03*
X0023147Y0058712D03*
X0087753Y0045011D03*
X0087753Y0043436D03*
X0087753Y0041861D03*
X0087753Y0040286D03*
X0087753Y0038712D03*
X0098147Y0038712D03*
X0098147Y0040286D03*
X0098147Y0041861D03*
X0098147Y0043436D03*
X0098147Y0045011D03*
D11*
X0016950Y0028861D03*
X0032950Y0041861D03*
X0043050Y0038461D03*
X0045450Y0026361D03*
X0059450Y0020361D03*
X0077450Y0017861D03*
X0077450Y0028861D03*
X0082450Y0036861D03*
X0077450Y0037861D03*
X0077450Y0041861D03*
X0078450Y0045861D03*
X0082450Y0047861D03*
X0072450Y0041861D03*
X0058450Y0041861D03*
X0043102Y0055461D03*
X0035250Y0062061D03*
X0031450Y0059861D03*
X0029450Y0055861D03*
X0031450Y0064861D03*
X0027450Y0066861D03*
X0018450Y0075461D03*
X0020850Y0079861D03*
X0045050Y0069461D03*
X0058450Y0060861D03*
X0072450Y0060861D03*
X0082250Y0071661D03*
X0094650Y0056061D03*
X0098450Y0053461D03*
X0101450Y0049861D03*
X0095250Y0030661D03*
X0090050Y0030661D03*
X0036450Y0013861D03*
X0015950Y0047861D03*
M02*
